<svg xmlns="http://www.w3.org/2000/svg" viewBox="0 0 28.22 42.82"><defs><style>.a{fill:#f8f8ff;}.b{fill:#c04300;}</style></defs><title>S8 adesivi GArtboard 1</title><path class="a" d="M14.11,0h0C7.09,0,0,4.65,0,15c0,6.85,12.81,26.58,13.35,27.41a.843.843,0,0,0,.46.35.878.878,0,0,0,.32.06h.09a.912.912,0,0,0,.66-.41c.55-.84,13.34-20.56,13.34-27.41C28.22,4.65,21.14,0,14.11,0Z"/><path class="b" d="M14.12,41.05C12.71,38.86,1.43,21.14,1.43,15.15c0-4.33,1.38-7.89,4-10.3a12.712,12.712,0,0,1,8.69-3.23A12.711,12.711,0,0,1,22.8,4.85c2.62,2.41,4,6,4,10.3C26.8,21.14,15.52,38.86,14.12,41.05Z"/><path class="a" d="M12.5,13.92,6.77,10.6l.8-1.38,5.74,3.31V5.9h1.6v6.63l5.75-3.31.8,1.38-5.74,3.32,5.74,3.31-.8,1.39-5.75-3.31v6.63h-1.6V15.31L7.57,18.62l-.8-1.39Z"/></svg>