<svg xmlns="http://www.w3.org/2000/svg" viewBox="0 0 32.09 43"><defs><style>.cls-1{fill:#fff;}.cls-2{fill:#c04300;}.cls-3{fill:#f8f8ff;}</style></defs><title>S8 adesivi GAsset 3</title><g id="Layer_2" data-name="Layer 2"><g id="Layer_1-2" data-name="Layer 1"><path class="cls-1" d="M30.84,9.8A16.11,16.11,0,0,0,27.4,4.7,16.06,16.06,0,0,0,9.81,1.26,16.05,16.05,0,0,0,4.7,27.4,15.87,15.87,0,0,0,11,31.28L12.71,37l1.82,6h3l1.82-6,1.74-5.74A16.06,16.06,0,0,0,30.84,9.8Z"/><path class="cls-2" d="M29.64,12.62a14,14,0,1,0-17,17l2.06,6.8L16.06,41l1.38-4.53,2.06-6.8A14,14,0,0,0,29.64,12.62Z"/><path class="cls-3" d="M14.43,16,8.7,12.7l.8-1.38,5.75,3.31V8h1.6v6.63l5.74-3.31.8,1.38L17.65,16l5.74,3.31-.8,1.39-5.74-3.31V24H15.25l0-6.63L9.5,20.72l-.8-1.39Z"/></g></g></svg>