<svg xmlns="http://www.w3.org/2000/svg" width="33" height="43" viewBox="0 0 33 43"><defs><style>.a{fill:#fff;}.b{fill:#222;}</style></defs><title>eti2021Artboard 10</title><path class="a" d="M31.29,9.8a16.126,16.126,0,0,0-3.439-5.1A16.074,16.074,0,0,0,10.259,1.259a16.058,16.058,0,0,0,1.166,30.022l1.741,5.737L14.983,43h3.04l1.818-5.982,1.741-5.737A16.055,16.055,0,0,0,31.29,9.8ZM18.819,28.4,16.512,36l-2.307-7.6a12.565,12.565,0,1,1,4.614,0Z"/><path class="b" d="M16.512,3.481A12.566,12.566,0,0,1,18.819,28.4L16.512,36l-2.307-7.6A12.567,12.567,0,0,1,16.512,3.481m0-1.436a14,14,0,0,0-3.439,27.58l2.061,6.794,1.378,4.529,1.377-4.529,2.062-6.794a14,14,0,0,0-3.439-27.58Z"/><path class="a" d="M29.077,16.046A12.565,12.565,0,1,0,14.205,28.391l2.307,7.6,2.307-7.6A12.554,12.554,0,0,0,29.077,16.046Z"/><path class="b" d="M21.7,21.868a.343.343,0,0,1,.056,0,6.3,6.3,0,0,0,.33-.663l.006-.013a5.629,5.629,0,0,0,.339-1.1,5.737,5.737,0,0,0,.108-.906H20.757a5.77,5.77,0,0,1-.8,2.676H21.7v0ZM10.715,13h-.1a3.042,3.042,0,0,0-.951-2.223,3.044,3.044,0,0,0-2.223-.951v-.1A3.037,3.037,0,0,0,9.66,8.769a3.052,3.052,0,0,0,.951-2.223h.1a3.046,3.046,0,0,0,.951,2.223,3.048,3.048,0,0,0,2.225.951v.1A3.25,3.25,0,0,0,10.715,13ZM8.829,16.886H8.781a1.493,1.493,0,0,0-1.457-1.457v-.048a1.494,1.494,0,0,0,1.457-1.456h.048a1.49,1.49,0,0,0,1.455,1.457v.048a1.488,1.488,0,0,0-1.455,1.456Zm16.647,4.385h-.048a1.488,1.488,0,0,0-1.455-1.456v-.047a1.492,1.492,0,0,0,1.455-1.456h.048a1.493,1.493,0,0,0,1.457,1.457v.048a1.4,1.4,0,0,0-1.02.437,1.381,1.381,0,0,0-.437,1.017Zm-2.571-7.535h-.086a2.725,2.725,0,0,0-2.663-2.665v-.087a2.55,2.55,0,0,0,1.865-.8,2.556,2.556,0,0,0,.8-1.866h.086a2.56,2.56,0,0,0,.8,1.866,2.56,2.56,0,0,0,1.866.8v.086a2.727,2.727,0,0,0-2.664,2.667ZM16.213,7.577h.841V11.95h.462l.107.546c.106.016.209.033.311.054a6.075,6.075,0,0,1,1.21.375.052.052,0,0,1,.016.006,6.63,6.63,0,0,1,1.1.6,6.415,6.415,0,0,1,1.743,1.743,6.942,6.942,0,0,1,.6,1.1h0v0a6.131,6.131,0,0,1,.38,1.224,6.79,6.79,0,0,1,0,2.6,6.205,6.205,0,0,1-.374,1.21l-.006.016a6.67,6.67,0,0,1-.6,1.1,6.415,6.415,0,0,1-1.743,1.743,6.779,6.779,0,0,1-1.1.6h0a6.169,6.169,0,0,1-1.224.379,6.78,6.78,0,0,1-2.6,0,6.263,6.263,0,0,1-1.212-.373l-.015-.006a6.679,6.679,0,0,1-1.105-.6,6.392,6.392,0,0,1-.956-.787,6.276,6.276,0,0,1-.786-.956,6.863,6.863,0,0,1-.6-1.1h0v0a6.065,6.065,0,0,1-.38-1.226,6.775,6.775,0,0,1,0-2.6,6.125,6.125,0,0,1,.375-1.211l.006-.016a6.67,6.67,0,0,1,.6-1.1A6.415,6.415,0,0,1,13,13.531a6.942,6.942,0,0,1,1.1-.6h0a6.325,6.325,0,0,1,1.226-.38h0c.1-.02.207-.038.311-.054l.107-.546h.463V7.577Zm-.344,17.2a12.022,12.022,0,0,1-2.2-2.339H11.877a5.628,5.628,0,0,0,.568.659h0a5.682,5.682,0,0,0,.869.717,6.307,6.307,0,0,0,1.014.549l.012.006a5.561,5.561,0,0,0,1.1.339c.14.027.284.049.427.068Zm-5.144-6.153h1.793a6.18,6.18,0,0,1,.888-2.676h-1.9a6.386,6.386,0,0,0-.328.657l-.006.013a5.638,5.638,0,0,0-.338,1.1,5.793,5.793,0,0,0-.11.907Zm6.63-5.589A13.3,13.3,0,0,1,19.5,15.378h1.892a5.548,5.548,0,0,0-.568-.659v0h0A5.8,5.8,0,0,0,19.95,14a6.419,6.419,0,0,0-1.013-.549l-.013-.006a5.559,5.559,0,0,0-1.1-.338c-.154-.031-.311-.054-.469-.074Zm4.4,2.913h-1.9a6.165,6.165,0,0,1,.887,2.676H22.54a6.141,6.141,0,0,0-.109-.907,5.534,5.534,0,0,0-.344-1.112h0a6.2,6.2,0,0,0-.329-.657ZM16.916,13.4v1.976H18.8A13.459,13.459,0,0,0,16.916,13.4Zm0,5.788v2.676h2.375a5.364,5.364,0,0,0,.9-2.676Zm0,3.246v2a12.248,12.248,0,0,0,1.978-2Zm-.568,2v-2H14.371a12.2,12.2,0,0,0,1.977,2Zm0-2.567V19.19H13.074a5.374,5.374,0,0,0,.9,2.676h2.374v0Zm0-3.246V15.946H14.069a5.84,5.84,0,0,0-.983,2.676Zm0-3.244V13.4a13.555,13.555,0,0,0-1.881,1.976Z"/></svg>