<svg xmlns="http://www.w3.org/2000/svg" width="33" height="43" viewBox="0 0 33 43"><defs><style>.a{fill:#fff;}.b{fill:#222;}</style></defs><title>eti2021Artboard 5</title><path class="a" d="M31.29,9.8a16.126,16.126,0,0,0-3.439-5.1A16.074,16.074,0,0,0,10.259,1.259a16.058,16.058,0,0,0,1.166,30.022l1.741,5.737L14.983,43h3.04l1.818-5.982,1.741-5.737A16.055,16.055,0,0,0,31.29,9.8ZM18.819,28.4,16.512,36l-2.307-7.6a12.565,12.565,0,1,1,4.614,0Z"/><path class="b" d="M16.512,3.481A12.566,12.566,0,0,1,18.819,28.4L16.512,36l-2.307-7.6A12.567,12.567,0,0,1,16.512,3.481m0-1.436a14,14,0,0,0-3.439,27.58l2.061,6.794,1.378,4.529,1.377-4.529,2.062-6.794a14,14,0,0,0-3.439-27.58Z"/><path class="a" d="M29.077,16.046A12.565,12.565,0,1,0,14.205,28.391l2.307,7.6,2.307-7.6A12.554,12.554,0,0,0,29.077,16.046Z"/><path class="b" d="M25.874,10.283c-.211.347-.448.33-.845-.059l-.482-.481-1.9,1.9c.017.017.076.084.135.144.482.481.972.954,1.445,1.444.862.888.752,2.02-.194,2.138a1.5,1.5,0,0,1-1.174-.4c-.271-.237-.524-.5-.871-.828a.575.575,0,0,1-.084.194q-3.523,3.524-7.047,7.055a.619.619,0,0,1-.668.144A6.8,6.8,0,0,1,11.7,20.406a.946.946,0,0,1-.1.178q-1.584,1.6-3.186,3.185a1.574,1.574,0,0,1-.312.212c-.068-.009-.135-.026-.2-.034-.439-.3-.515-.583-.228-.871l3.219-3.219a1.19,1.19,0,0,1,.161-.118,6.131,6.131,0,0,1-.921-1.817c-.017-.042-.026-.084-.043-.127-.3-1.124-.3-.878.3-1.5,2.247-2.256,4.5-4.5,6.743-6.743a1.056,1.056,0,0,1,.211-.127c-.279-.27-.507-.465-.71-.684-.845-.888-.693-2,.27-2.1a1.514,1.514,0,0,1,1.158.431c.389.354.761.743,1.132,1.115.212.211.423.431.609.617l1.918-1.918c-.161-.152-.364-.347-.558-.55a.615.615,0,0,1-.228-.464c.017-.271.3-.372.575-.2a1.052,1.052,0,0,1,.245.22c1.267,1.268,2.535,2.527,3.794,3.794.1.1.194.228.287.338C25.849,10.123,25.866,10.2,25.874,10.283ZM15.768,12.4c.026.009.068.034.1.043.625.219,1.259.422,1.884.676a14.9,14.9,0,0,0,2.788.912c.076.017.178.026.22-.017.194-.177.38-.363.549-.541L18,10.165C17.264,10.909,16.52,11.661,15.768,12.4Zm3.38,3.211c-.051-.05-.1-.11-.152-.16-.338-.338-.668-.676-1.014-1.006a.556.556,0,0,0-.7.034.543.543,0,0,0-.043.684c.389.4.8.778,1.192,1.158C18.59,16.164,18.979,15.784,19.148,15.615ZM14.72,20c.169-.169.558-.558.736-.727l-.972-.972c-.042-.042-.085-.093-.135-.135a.6.6,0,0,0-.744-.008.547.547,0,0,0-.017.718c.372.389.769.769,1.132,1.124Zm2.586-2.535c-.228-.237-.439-.473-.668-.685a.554.554,0,0,0-.684.043.543.543,0,0,0-.051.676c.22.236.465.447.685.659.16-.152.541-.533.718-.693Z"/></svg>