<svg xmlns="http://www.w3.org/2000/svg" width="33" height="43" viewBox="0 0 33 43"><defs><style>.a{fill:#fff;}.b{fill:#222;}</style></defs><title>eti2021Artboard 6</title><path class="a" d="M31.29,9.8a16.126,16.126,0,0,0-3.439-5.1A16.074,16.074,0,0,0,10.259,1.259a16.058,16.058,0,0,0,1.166,30.022l1.741,5.737L14.983,43h3.04l1.818-5.982,1.741-5.737A16.055,16.055,0,0,0,31.29,9.8ZM18.819,28.4,16.512,36l-2.307-7.6a12.565,12.565,0,1,1,4.614,0Z"/><path class="b" d="M16.512,3.481A12.566,12.566,0,0,1,18.819,28.4L16.512,36l-2.307-7.6A12.567,12.567,0,0,1,16.512,3.481m0-1.436a14,14,0,0,0-3.439,27.58l2.061,6.794,1.378,4.529,1.377-4.529,2.062-6.794a14,14,0,0,0-3.439-27.58Z"/><path class="a" d="M29.077,16.046A12.565,12.565,0,1,0,14.205,28.391l2.307,7.6,2.307-7.6A12.554,12.554,0,0,0,29.077,16.046Z"/><path class="b" d="M15.183,5.581c.067.369-.057.516-.435.516l-.46,0V8.6c.019,0,.076,0,.134,0,.46,0,.92-.006,1.38,0a1.024,1.024,0,0,1,.927,1.534.947.947,0,0,1-.756.5c-.244.024-.491.016-.812.024a.7.7,0,0,1,.052.185q0,4.641.005,9.281a.636.636,0,0,1-.25.538,3.921,3.921,0,0,1-1.729.905.966.966,0,0,1,.036.187q0,2.094,0,4.19a2.71,2.71,0,0,1-.046.346l-.114.114c-.358.087-.525-.045-.525-.419q0-2.119,0-4.239c0-.059.011-.117.017-.183a3.464,3.464,0,0,1-1.31-.591c-.026-.019-.052-.037-.078-.057-.68-.541-.566-.38-.567-1.184q-.008-4.44,0-8.88a1.43,1.43,0,0,1,.043-.223c-.261.008-.464.026-.666.019A1.02,1.02,0,0,1,9.157,9.1a.923.923,0,0,1,.757-.476c.357-.022.716-.013,1.075-.015.2,0,.406,0,.586.008V6.09c-.149,0-.339.006-.53.007a.359.359,0,0,1-.33-.158.331.331,0,0,1,.181-.5.863.863,0,0,1,.222-.022q1.813,0,3.629,0a2.729,2.729,0,0,1,.3.031Zm-3.819,7.181a.658.658,0,0,0,.073-.038c.406-.266,2.461-.234,2.992-.73a.274.274,0,0,0,.1-.153c.01-.245.005-.924.006-1.149H11.365C11.365,11.66,11.364,11.777,11.364,12.762Zm3.151.895c-.047,0-.1,0-.153,0-.321,0-.642-.006-.963.007A.329.329,0,0,0,13.08,14a.32.32,0,0,0,.307.329c.378.007.756-.011,1.125-.019Zm-.022,5.517,0-.676h-.931c-.043,0-.086,0-.129,0a.35.35,0,0,0-.357.337.331.331,0,0,0,.333.341C13.781,19.186,14.15,19.176,14.493,19.174Zm.024-3.08c-.221,0-.435-.021-.647-.008a.325.325,0,0,0-.306.33.321.321,0,0,0,.3.333c.217.011.435-.01.641-.017Z"/><path class="b" d="M22.854,9.178c0-2.08-1.05-3.766-2.345-3.766S18.165,7.1,18.165,9.178c0,1.745.739,3.212,1.741,3.639V25.838a.6.6,0,0,0,1.206,0V12.817C22.115,12.39,22.854,10.923,22.854,9.178Z"/></svg>