<svg xmlns="http://www.w3.org/2000/svg" width="33" height="43" viewBox="0 0 33 43">
  <defs>
    <style>
.a{fill:#fff;opacity:0.8;isolation:isolate;}.b{fill:#c04300;}.c{fill:#f8f8ff;}
</style>
  </defs>
  <title>m-home</title>
  <path class="a" d="M31.265,9.788a16.386,16.386,0,0,0-3.431-5.1A16.049,16.049,0,1,0,11.42,31.272l1.741,5.736L14.979,43h3.048l1.818-5.992,1.741-5.736a16.055,16.055,0,0,0,10.14-20.306C31.572,10.557,31.419,10.172,31.265,9.788Z" transform="translate(-0.441 0)"/>
  <path class="b" d="M30.062,12.605a14,14,0,1,0-17,17l2.048,6.786,1.383,4.532,1.383-4.532,2.049-6.786A13.99,13.99,0,0,0,30.062,12.605Z" transform="translate(-0.441 0)"/>
  <path class="c" d="M14.851,16.011l-5.735-3.3.793-1.382,5.736,3.3V8h1.613v6.632l5.736-3.3.794,1.382-5.736,3.3,5.736,3.3L22.994,20.7l-5.736-3.3v6.633H15.671V17.393L9.935,20.7l-.794-1.383Z" transform="translate(-0.441 0)"/>
</svg>
