<svg xmlns="http://www.w3.org/2000/svg" width="33" height="43" viewBox="0 0 33 43"><defs><style>.a{fill:#fff;}.b{fill:#222;}</style></defs><title>eti2021Artboard 3</title><path class="a" d="M31.29,9.8a16.126,16.126,0,0,0-3.439-5.1A16.074,16.074,0,0,0,10.259,1.259a16.058,16.058,0,0,0,1.166,30.022l1.741,5.737L14.983,43h3.04l1.818-5.982,1.741-5.737A16.055,16.055,0,0,0,31.29,9.8ZM18.819,28.4,16.512,36l-2.307-7.6a12.565,12.565,0,1,1,4.614,0Z"/><path class="b" d="M16.512,3.481A12.566,12.566,0,0,1,18.819,28.4L16.512,36l-2.307-7.6A12.567,12.567,0,0,1,16.512,3.481m0-1.436a14,14,0,0,0-3.439,27.58l2.061,6.794,1.378,4.529,1.377-4.529,2.062-6.794a14,14,0,0,0-3.439-27.58Z"/><path class="a" d="M29.077,16.046A12.565,12.565,0,1,0,14.205,28.391l2.307,7.6,2.307-7.6A12.554,12.554,0,0,0,29.077,16.046Z"/><path class="b" d="M25.414,12.978a5.478,5.478,0,0,1-.42.441c-.215.183-.447.346-.677.512a.56.56,0,0,1-.8-.059c-.3-.291-.595-.581-.881-.882a1.326,1.326,0,0,0-.557-.37c-.154-.051-.3-.126-.454-.183a.567.567,0,0,0-.742.3.56.56,0,0,0,.3.74c.35.157.7.3,1.063.439a.2.2,0,0,1,.145.22c0,.768.009,1.536,0,2.3A4.447,4.447,0,0,1,20.6,20.018a.4.4,0,0,0-.138.241c-.117.968-.22,1.938-.336,2.906a.306.306,0,0,0,.158.334,1.342,1.342,0,0,1,.6,1.158.565.565,0,0,1-.588.6c-.517,0-1.033,0-1.549,0a.574.574,0,0,1-.62-.626q0-2.3,0-4.608v-.236a8.882,8.882,0,0,1-2.145.686V16.945h1.189c.482,0,.691-.208.691-.687,0-.9,0-1.8,0-2.7a.926.926,0,0,1,.07-.241,1.618,1.618,0,0,0,.11-.39c.013-.478,0-.957.006-1.435A3.962,3.962,0,0,1,22.04,7.5c.781,0,1.562,0,2.342,0a.6.6,0,0,1,.585.3.585.585,0,0,1-.061.639c-.248.386-.5.773-.732,1.167a.317.317,0,0,0-.02.252c.405.934.82,1.864,1.233,2.794,0,.01.018.016.027.023Z"/><path class="b" d="M14.822,20.549l-.66-.1a6.762,6.762,0,0,1-1.767-.552c-.037.108-.067.209-.106.307a2.764,2.764,0,0,1-1.249,1.437.36.36,0,0,0-.156.207c-.1.46-.186.924-.282,1.385a.181.181,0,0,0,.1.226,1.361,1.361,0,0,1,.658,1.221.56.56,0,0,1-.57.578c-.484.006-.969.009-1.454,0a.737.737,0,0,1-.73-.741q-.009-1.605,0-3.21a.848.848,0,0,1,.1-.339c.187-.391.389-.775.575-1.167a.777.777,0,0,0,.077-.321c.006-.925,0-1.851.006-2.776a3.212,3.212,0,0,1,2.993-3.15c.062,0,.125,0,.216,0v.2q0,1.274,0,2.549a.579.579,0,0,0,.639.645c.534,0,1.068,0,1.613,0a1.216,1.216,0,0,1,.014.135q0,1.652,0,3.3c0,.057-.01.113-.015.169Z"/><path class="b" d="M9.591,13.556c-.211.26-.427.5-.609.758a4.224,4.224,0,0,0-.759,2.392,12.844,12.844,0,0,1-.047,1.62,2.019,2.019,0,0,1-1.462,1.687A.461.461,0,0,1,6.2,19.89a.446.446,0,0,1-.078-.526,6.205,6.205,0,0,0,.541-2.713,3.054,3.054,0,0,1,2.794-3.1C9.5,13.552,9.541,13.556,9.591,13.556Z"/><path class="b" d="M13.715,13.553h3V15.8h-3Z"/><path class="b" d="M14.819,20.553l.9-.052.223-.011a.51.51,0,0,1-.38.584.56.56,0,0,1-.681-.327c-.025-.063-.037-.132-.056-.2Z"/></svg>