<svg xmlns="http://www.w3.org/2000/svg" width="33" height="43" viewBox="0 0 33 43"><defs><style>.a{fill:#fff;}.b,.c{fill:#222;}.c{fill-rule:evenodd;}</style></defs><title>eti2021Artboard 8</title><path class="a" d="M31.29,9.8a16.126,16.126,0,0,0-3.439-5.1A16.074,16.074,0,0,0,10.259,1.259a16.058,16.058,0,0,0,1.166,30.022l1.741,5.737L14.983,43h3.04l1.818-5.982,1.741-5.737A16.055,16.055,0,0,0,31.29,9.8ZM18.819,28.4,16.512,36l-2.307-7.6a12.565,12.565,0,1,1,4.614,0Z"/><path class="b" d="M16.512,3.481A12.566,12.566,0,0,1,18.819,28.4L16.512,36l-2.307-7.6A12.567,12.567,0,0,1,16.512,3.481m0-1.436a14,14,0,0,0-3.439,27.58l2.061,6.794,1.378,4.529,1.377-4.529,2.062-6.794a14,14,0,0,0-3.439-27.58Z"/><path class="a" d="M29.077,16.046A12.565,12.565,0,1,0,14.205,28.391l2.307,7.6,2.307-7.6A12.554,12.554,0,0,0,29.077,16.046Z"/><path class="c" d="M16.769,13.049a1.212,1.212,0,1,1-1.1,1.315v0A1.212,1.212,0,0,1,16.769,13.049ZM7.544,7.509H9.137a.152.152,0,0,1,.151.151v3.858a.152.152,0,0,1-.151.152H7.544a.151.151,0,0,1-.151-.152V7.665a.151.151,0,0,1,.151-.152ZM9.691,8.2a.3.3,0,0,1,.05-.188c.1-.138.35-.1.508-.1a2.285,2.285,0,0,0,.488-.038,5.529,5.529,0,0,0,.7-.232c.862-.3,1.6-.5,2.5-.894a.693.693,0,0,1,.584,0,15.237,15.237,0,0,1,2.434,1.14.859.859,0,0,1,.362.359c.5.724.925,1.458,1.335,2.193a.712.712,0,0,1,.1.656c-.385.632-1.077-.267-1.818-.866-.314-.251-.741-.475-1.108-.73a5.742,5.742,0,0,0-1.2-.491c-.776-.067-.839,1.047.18,1.088a4.316,4.316,0,0,1,2.519,1.232c.374.539.168,1.07-.593,1.05l-.636-.118a3.652,3.652,0,0,0-2.04-.033,4.755,4.755,0,0,1-1.744.106,1.821,1.821,0,0,1-.859-.455,2.846,2.846,0,0,0-.511-.345,1.834,1.834,0,0,0-.463-.2c-.243-.058-.584.024-.726-.185a.4.4,0,0,1-.058-.208ZM26.013,19.283H23.652V23.85h2.361Zm-2.879,4.184V19.65H21.418a6.431,6.431,0,0,0-2.183.983H17.9c-.606.036-.92.647-.332,1.05a2.472,2.472,0,0,0,1.717.267.287.287,0,1,1,0,.566c-.151.013-.33-.025-.48-.025a1.958,1.958,0,0,1-1.837-.775l-.2-.466-1.983-.984c-.993-.326-1.7.712-.967,1.434a26.007,26.007,0,0,0,4.417,2.6,3,3,0,0,0,3.284,0l1.615-.833ZM19.383,10.776l3.92,6.031-4.5,2.846-.385-.593,3.215-2.032L21.679,17a.666.666,0,0,0,.194-.922h0l-.185-.284H21.7l-.892-1.355L19.03,11.712a1.47,1.47,0,0,0,.227-.294h0A.963.963,0,0,0,19.383,10.776Zm-.82,1.167,2.957,4.546-4.5,2.848-4.131-6.364c.115,0,.229-.009.343-.02.195-.018.384-.045.568-.077l3.006,4.567a.789.789,0,0,1,1.085.244l1.772-1.13a.784.784,0,0,1,.246-1.082l0,0-2-3.03c.009-.012.017-.026.025-.038a.509.509,0,0,0,.03-.05,1.1,1.1,0,0,0,.124-.482A1.012,1.012,0,0,0,18.563,11.943Z"/></svg>