<svg xmlns="http://www.w3.org/2000/svg" width="33" height="43" viewBox="0 0 33 43"><defs><style>.a{fill:#fff;}.b{fill:#222;}</style></defs><title>eti2021Artboard 11</title><path class="a" d="M31.29,9.8a16.126,16.126,0,0,0-3.439-5.1A16.074,16.074,0,0,0,10.259,1.259a16.058,16.058,0,0,0,1.166,30.022l1.741,5.737L14.983,43h3.04l1.818-5.982,1.741-5.737A16.055,16.055,0,0,0,31.29,9.8ZM18.819,28.4,16.512,36l-2.307-7.6a12.565,12.565,0,1,1,4.614,0Z"/><path class="b" d="M16.512,3.481A12.566,12.566,0,0,1,18.819,28.4L16.512,36l-2.307-7.6A12.567,12.567,0,0,1,16.512,3.481m0-1.436a14,14,0,0,0-3.439,27.58l2.061,6.794,1.378,4.529,1.377-4.529,2.062-6.794a14,14,0,0,0-3.439-27.58Z"/><path class="a" d="M29.077,16.046A12.565,12.565,0,1,0,14.205,28.391l2.307,7.6,2.307-7.6A12.554,12.554,0,0,0,29.077,16.046Z"/><path class="b" d="M15.592,20.283H13.563L11.99,13.965h-.025l-1.547,6.318H8.351L5.894,11H7.935L9.4,17.319H9.43L11.042,11h1.911l1.586,6.4h.025L16.086,11h2Z"/><path class="b" d="M25.211,14.121A2.005,2.005,0,0,0,23.184,12.5c-1.834,0-2.523,1.56-2.523,3.185,0,1.547.689,3.107,2.523,3.107a2.09,2.09,0,0,0,2.105-2.08h1.977a3.921,3.921,0,0,1-4.082,3.8c-2.873,0-4.564-2.145-4.564-4.823,0-2.756,1.691-4.9,4.564-4.9a3.767,3.767,0,0,1,4,3.341Z"/></svg>