<svg xmlns="http://www.w3.org/2000/svg" width="33" height="43" viewBox="0 0 33 43"><defs><style>.a{fill:#fff;}.b,.c{fill:#222;}.c{fill-rule:evenodd;}</style></defs><title>eti2021Artboard 7</title><path class="a" d="M31.29,9.8a16.126,16.126,0,0,0-3.439-5.1A16.074,16.074,0,0,0,10.259,1.259a16.058,16.058,0,0,0,1.166,30.022l1.741,5.737L14.983,43h3.04l1.818-5.982,1.741-5.737A16.055,16.055,0,0,0,31.29,9.8ZM18.819,28.4,16.512,36l-2.307-7.6a12.565,12.565,0,1,1,4.614,0Z"/><path class="b" d="M16.512,3.481A12.566,12.566,0,0,1,18.819,28.4L16.512,36l-2.307-7.6A12.567,12.567,0,0,1,16.512,3.481m0-1.436a14,14,0,0,0-3.439,27.58l2.061,6.794,1.378,4.529,1.377-4.529,2.062-6.794a14,14,0,0,0-3.439-27.58Z"/><path class="a" d="M29.077,16.046A12.565,12.565,0,1,0,14.205,28.391l2.307,7.6,2.307-7.6A12.554,12.554,0,0,0,29.077,16.046Z"/><path class="c" d="M12.62,13.35v10.8a.792.792,0,0,1-.789.79h0a.794.794,0,0,1-.79-.79V17.8h-.31v6.35a.792.792,0,0,1-.789.79h0a.794.794,0,0,1-.79-.79V13.35H8.877v3.968a.6.6,0,0,1-.6.6h0a.6.6,0,0,1-.6-.6V13.051a1.754,1.754,0,0,1,.659-1.5c.731-.552,4.344-.552,5.075,0a1.758,1.758,0,0,1,.66,1.5v4.267a.6.6,0,0,1-.6.6h0a.6.6,0,0,1-.593-.6V13.35Zm3.758-5.375a.457.457,0,0,1,.914,0V24.94a.457.457,0,0,1-.914,0Zm10,4.913c.01.025.018.049.026.075l1.234,4.389a.613.613,0,1,1-1.182.326l-1.216-4.333h-.276v.275l1.625,6.46H24.961v4.065a.792.792,0,0,1-.789.79h0a.793.793,0,0,1-.788-.79V20.08h-.312v4.065a.794.794,0,0,1-.79.79h0a.792.792,0,0,1-.784-.785V20.085H19.771L21.5,13.454v-.1h-.3l-1.223,4.328a.613.613,0,0,1-1.182-.326L20,13.051h-.013a2.527,2.527,0,0,1,.766-1.5c.732-.552,4.266-.552,5,0C26.147,11.841,26.213,12.238,26.375,12.888ZM23.216,7.975A1.428,1.428,0,1,1,21.789,9.4h0A1.427,1.427,0,0,1,23.216,7.975Zm-12.341,0A1.428,1.428,0,1,1,9.448,9.4h0a1.427,1.427,0,0,1,1.427-1.428Z"/></svg>