<svg id="abenteur" xmlns="http://www.w3.org/2000/svg" xmlns:xlink="http://www.w3.org/1999/xlink" viewBox="0 0 2284.4 2086.3">
  <defs>
    <style>
      .cls-1, .cls-10, .cls-13, .cls-14, .cls-16, .cls-2, .cls-7, .cls-8, .cls-9 {
        fill: none;
      }

      .cls-2 {
        stroke: #231f20;
        stroke-width: 0.75px;
      }

      .cls-3, .cls-6 {
        fill: #f8f8ff;
      }

      .cls-10, .cls-11, .cls-13, .cls-14, .cls-3, .cls-7, .cls-8 {
        stroke: #222;
      }

      .cls-11, .cls-12, .cls-3, .cls-4 {
        fill-rule: evenodd;
      }

      .cls-11, .cls-4 {
        fill: #ddd;
      }

      .cls-5 {
        fill: url(#XMLID_11_);
      }

      .cls-8, .cls-9 {
        stroke-linejoin: round;
      }

      .cls-13, .cls-14, .cls-8 {
        stroke-width: 6px;
      }

      .cls-9 {
        stroke: #f8f8ff;
      }

      .cls-10, .cls-9 {
        stroke-width: 3px;
      }

      .cls-12, .cls-15 {
        fill: #222;
      }

      .cls-13 {
        stroke-linejoin: bevel;
      }

      .cls-16 {
        stroke: #c04300;
        stroke-miterlimit: 10;
        stroke-width: 13px;
      }

      .cls-17 {
        fill: #fff;
        opacity: 0.8;
        isolation: isolate;
      }

      .cls-18 {
        fill: #c04300;
      }
		
		#rail, #tr1, #tr2, #tr3 {
  stroke-dasharray: 10 10;
}
		
/* .startH to #here and .startM to #marker added in HTML */
/* Line: interaction and animation */
#here {
  fill: none;
  stroke: #c04300;
  stroke-miterlimit: 10;
  stroke-width: 13px;
  stroke-linecap: square;
  stroke-dasharray: 2500;
}
.startH { stroke-dashoffset: 2500; }
.openH {
  stroke-dashoffset: 2500;
  animation: draw 1.8s 0.2s forwards;
}
.closeH { animation: undraw 1.8s 0.2s forwards; }
@keyframes draw {
		to { stroke-dashoffset: 0; }
		}
@keyframes undraw {
		to { stroke-dashoffset: 2500; }
		}

/* Marker: interaction and animation */
#marker {
  transform-origin: 50% 100%;
  transform-box: fill-box;
  }
.startM { transform: scale(0); }
.openM {
  transform: scale(0);
  animation: pop .2s 1.2s forwards;
}
.closeM { animation: unpop .2s .5s forwards; }
@keyframes pop {
		to { transform: scale(1); }
		}
@keyframes unpop {
		to { transform: scale(0); }
		}		
		
    </style>
    <pattern id="XMLID_11_" data-name="XMLID 11 " width="72" height="72" patternTransform="translate(6148.4 26559.7) scale(1.94)" patternUnits="userSpaceOnUse" viewBox="0 0 72 72">
      <rect class="cls-1" width="72" height="72"/>
      <g>
        <rect class="cls-1" width="72" height="72"/>
        <rect class="cls-1" width="72" height="72"/>
        <path class="cls-2" d="M80.4,64.1s1,4.1-2.9,4-3.9,1.9-3.1,4.3S74.2,77,71.1,77"/>
        <path class="cls-2" d="M13.4,15.5s3.8-1.7,4.5,2.1,2.6,3.5,4.8,2.2,4.6-.7,5.1,2.4"/>
        <path class="cls-2" d="M66.1,28.7s-2.6,3.3-5,.2-3.9-1.9-5.3.2-3.7,2.7-5.7.2"/>
        <path class="cls-2" d="M39.1,29.1s-3.8-1.7-1.5-4.7.9-4.3-1.6-5.1-3.6-2.9-1.7-5.4"/>
        <path class="cls-2" d="M41.2,24.8s4.1-.9,2.4-4.4,0-4.4,2.5-4.7,4.1-2.1,2.7-5"/>
        <path class="cls-2" d="M55.2,14.9s4.1-.9,2.4-4.4,0-4.4,2.5-4.7,4.1-2.1,2.7-5"/>
        <path class="cls-2" d="M27.4,34.2s3.7-2,1.1-4.8-1.2-4.2,1.1-5.2S33,21,30.8,18.7"/>
        <path class="cls-2" d="M10.4,22.9s1.3,4-2.6,4.2S4,29.3,5,31.6s.2,4.6-2.9,4.8"/>
        <path class="cls-2" d="M7.6,41.2s-2-3.6,1.7-4.6,3.3-2.9,1.9-5-1.1-4.5,2-5.3"/>
        <path class="cls-2" d="M20.5,17s1.4-3.9,4.6-1.8,4.3.5,4.9-2,2.6-3.8,5.3-2.1"/>
        <path class="cls-2" d="M12.4,44.5s-1.8-3.8,2-4.5,3.5-2.6,2.2-4.8-.8-4.6,2.3-5.2"/>
        <path class="cls-2" d="M24.1,38.7s-3.4-2.4-.5-4.9,1.7-4-.5-5.3-3-3.5-.6-5.6"/>
        <path class="cls-2" d="M11.1,59.6s.3-4.2,4-2.9,4.3-.6,4.3-3.1S21,49.2,24,50.2"/>
        <path class="cls-2" d="M29.5,52.9s-.4,4.2-4,2.9-4.3.5-4.3,3.1-1.6,4.3-4.6,3.3"/>
        <path class="cls-2" d="M19.7,27.3s-4.2.2-3.4-3.6-1.1-4.2-3.6-3.9-4.5-1-3.9-4.1"/>
        <path class="cls-2" d="M32.7,28s-1.5,3.9,2.4,4.4,3.7,2.4,2.5,4.7-.4,4.6,2.7,5"/>
        <path class="cls-2" d="M3.4,45.7s1.9,3.7,4.8,1.1,4.2-1.2,5.2,1.2,3.1,3.4,5.5,1.3"/>
        <path class="cls-2" d="M51.1,83.4s-1.9-3.7,1.9-4.6,3.4-2.7,2.1-4.9-.9-4.5,2.2-5.2"/>
        <path class="cls-2" d="M64.6,10s2.5,3.4-1.1,4.8-2.9,3.3-1.2,5.2,1.6,4.3-1.3,5.5"/>
        <path class="cls-2" d="M60,14.3s-4.1.8-2.4,4.3,0,4.4-2.6,4.6-4.1,2.1-2.7,5"/>
        <path class="cls-2" d="M17.1.7s4.2.2,3,3.9.7,4.3,3.3,4.2,4.4,1.4,3.5,4.5"/>
        <path class="cls-2" d="M39.5,15.7s-4-1-2.2-4.4.1-4.4-2.4-4.7-4-2.3-2.6-5.1"/>
        <path class="cls-2" d="M18.1,7.9s-4-1.3-4.2,2.6-2.2,3.8-4.5,2.8-4.6-.2-4.8,3"/>
        <path class="cls-2" d="M8.4,64.1s1,4.1-2.9,4S1.6,70,2.4,72.4,2.2,77-.9,77"/>
        <path class="cls-2" d="M70.4,33.5s-2.3,3.5-4.9.7-4.1-1.6-5.3.7-3.5,3.1-5.6.7"/>
        <path class="cls-2" d="M50.4,1.6s1,4.1-2.9,4-3.9,1.9-3.1,4.3-.2,4.6-3.3,4.6"/>
        <path class="cls-2" d="M43.9,31.8s-1.6-3.8,2.2-4.4,3.6-2.5,2.4-4.8S47.9,18,51,17.5"/>
        <path class="cls-2" d="M74.9,33.6s-4.1-.4-2.8-4.1-.5-4.3-3-4.4-4.3-1.7-3.2-4.7"/>
        <path class="cls-2" d="M62.2,38.2s3.5-2.3,4.8,1.3,3.1,3,5.1,1.4,4.4-1.5,5.5,1.5"/>
        <path class="cls-2" d="M71.7,62.7s-.8,4.1-4.3,2.5-4.4.1-4.6,2.7-2,4.2-4.9,2.8"/>
        <path class="cls-2" d="M28.8,44s4.1.6,2.7,4.2.3,4.4,2.9,4.5,4.3,1.8,3.1,4.7"/>
        <path class="cls-2" d="M14.8,43.4s1.2,4,4.5,2,4.3-.4,4.9,2.1,2.5,3.9,5.2,2.3"/>
        <path class="cls-2" d="M1.8,60S3,64,6.3,62s4.3-.4,4.9,2.1,2.5,3.9,5.2,2.3"/>
        <path class="cls-2" d="M37.9,69s4.2-.4,2.9-4,.5-4.3,3.1-4.3,4.3-1.6,3.3-4.6"/>
        <path class="cls-2" d="M34.5,60.1s3.2,2.7.1,5-2,3.9.1,5.3,2.6,3.8.1,5.7"/>
        <path class="cls-2" d="M50.9,63.6s-3.4-2.5-.4-4.9,1.8-4-.4-5.3-2.9-3.6-.4-5.6"/>
        <path class="cls-2" d="M56,59.4s2.8-3.1,5,.2,3.8,2.2,5.3.2,3.9-2.5,5.7.2"/>
        <path class="cls-2" d="M40.2,32.5s4.2.2,3,3.9.7,4.3,3.2,4.2,4.4,1.5,3.4,4.5"/>
        <path class="cls-2" d="M31.7,40.4s-.4,4.2,3.4,3.6,4.2,1.3,3.7,3.8.8,4.6,3.9,4.1"/>
        <path class="cls-2" d="M19.5,42.7s1.1-4,4.5-2.2,4.4.2,4.8-2.3,2.3-4,5.1-2.5"/>
        <path class="cls-2" d="M1.2,13.2s4.2-.2,3-3.9S4.9,5,7.4,5.1,11.8,3.6,10.9.6"/>
        <path class="cls-2" d="M35.7,57.7s-3.8-1.7-4.5,2.2-2.5,3.5-4.8,2.3-4.6-.7-5.1,2.5"/>
        <path class="cls-2" d="M83.8,52.8s-1.6-3.9-4.7-1.5-4.3.8-5-1.7-2.8-3.6-5.4-1.8"/>
        <path class="cls-2" d="M67.8,48.8s-1,4-4.4,2.2-4.4-.2-4.8,2.4-2.3,4-5.1,2.5"/>
        <path class="cls-2" d="M59.7,60.8s-.1,4.2-3.9,3.1-4.3.8-4.1,3.3-1.4,4.4-4.4,3.6"/>
        <path class="cls-2" d="M51.4,47.9s2-3.6,4.9-1,4.2,1.3,5.2-1.1,3.2-3.3,5.5-1.1"/>
        <path class="cls-2" d="M41.3,59.1s-2-3.7,1.8-4.6,3.3-2.8,1.9-4.9-1-4.5,2.1-5.3"/>
        <path class="cls-2" d="M62.1,83.5s-1.3-4,2.6-4.2,3.8-2.2,2.8-4.5-.2-4.6,2.9-4.8"/>
        <path class="cls-2" d="M46.4,34s4.1-.8,3.9,3.1,1.7,4,4.2,3.3,4.6.3,4.4,3.5"/>
        <path class="cls-2" d="M66.6,12.8s4.1-.5,3.7,3.3,1.4,4.1,3.9,3.6,4.6.7,4.2,3.8"/>
        <path class="cls-2" d="M65.1,53.8s2.4,3.4,4.9.5,4-1.7,5.3.5,3.6,2.9,5.6.5"/>
        <path class="cls-2" d="M45.5,62.8s-3.7,1.9-1.2,4.8,1.1,4.2-1.3,5.2-3.4,3.1-1.4,5.5"/>
        <path class="cls-2" d="M28.3,80.3s-3.6-2.2-.8-4.9,1.4-4.1-.9-5.2-3.2-3.4-.9-5.6"/>
        <path class="cls-2" d="M20,65.7s1.2,4-2.7,4.2-3.8,2.1-2.9,4.5.1,4.6-3.1,4.8"/>
        <path class="cls-2" d="M2.9,33.6s-4.1-.4-2.8-4.1-.5-4.3-3-4.4-4.3-1.7-3.2-4.7"/>
        <path class="cls-2" d="M-9.8,38.2s3.5-2.3,4.8,1.3,3.1,3,5.1,1.4,4.4-1.5,5.5,1.5"/>
        <path class="cls-2" d="M-.3,62.7s-.8,4.1-4.3,2.5-4.4.1-4.6,2.7-2,4.2-4.9,2.8"/>
        <path class="cls-2" d="M-16,59.4s2.8-3.1,5,.2,3.7,2.2,5.2.2,3.9-2.5,5.7.2"/>
        <path class="cls-2" d="M11.8,52.8s-1.6-3.9-4.7-1.5-4.3.8-5-1.7S-.7,46-3.3,47.8"/>
        <path class="cls-2" d="M-5.4,12.8s4.1-.5,3.7,3.3,1.4,4.1,3.9,3.6,4.6.7,4.2,3.8"/>
        <path class="cls-2" d="M-6.9,53.8s2.4,3.4,4.9.5,4-1.7,5.3.5,3.6,2.9,5.6.5"/>
        <path class="cls-2" d="M80.4-7.9s1,4.1-2.9,4S73.6-2,74.4.4,74.2,5,71.1,5"/>
        <path class="cls-2" d="M51.1,11.4S49.2,7.7,53,6.8s3.4-2.7,2.1-4.9-.9-4.5,2.2-5.2"/>
        <path class="cls-2" d="M8.4-7.9s1,4.1-2.9,4S1.6-2,2.4.4,2.2,5-.9,5"/>
        <path class="cls-2" d="M34.5-11.9s3.2,2.7.1,5-2,3.9.1,5.3,2.6,3.8.1,5.7"/>
        <path class="cls-2" d="M62.1,11.5s-1.3-4,2.6-4.2,3.8-2.2,2.8-4.5S67.3-1.8,70.4-2"/>
        <path class="cls-2" d="M45.5-9.2s-3.7,1.9-1.2,4.8S45.4-.2,43,.8s-3.4,3.1-1.4,5.5"/>
        <path class="cls-2" d="M28.3,8.3s-3.6-2.2-.8-4.9,1.4-4.1-.9-5.2-3.2-3.4-.9-5.6"/>
        <path class="cls-2" d="M20-6.3s1.2,4-2.7,4.2S13.5,0,14.4,2.4s.1,4.6-3.1,4.8"/>
      </g>
    </pattern>
  </defs>
  <title>abenteuer</title>
  <path id="block" class="cls-3" d="M2189.5,1710.7l-75.7-3.6-.6,84.4,76.3,46.1" transform="translate(0.2 -2.1)"/>
  <path id="parking" class="cls-3" d="M1865,558.5l.3,91.5,222.1-1.8-1.1-89ZM1364.9,730.8l241.9-2.3-.5-53.4-228.5-1.2Zm-909-619.1.9,59.7,26.8-.4,27.7-.4-.9-59.7m163,793.9.7,146.3h14.5l.3,58.3,34.6-.2-1.1-213.3-33.3.2v8.6Zm1069.4,331.3,52.5-.4-.4-171h-51.5ZM534.3,712l.7,124h14.4l.2,31.9,37.6-.2-.9-155.8Zm552.8,975,276,25,.6-25.6-262-21.6-14.1,14.7ZM692.4,689.5h51.5V612.9H729.3v-56H692.5Zm837.5,526.6,100.5,1,.2-55.6-100.5-.2Zm-406-174.7,161.3,1.8.4-32.2-161.3-1.8ZM1713,1282.7l.7,14,38.5-7.6,41.5-3.5,244.1,3,1.7-15.2-245.3-1.6-43.5,4.5ZM1239,896h50.4V805.4H1239Zm486.6-174.8,74.5-.7-.7-50.7-73.8-.3ZM1294.5,169.6l27.8.3.4-12-.4-93.9-27.4,1Zm652.6,1060.3H1992l-1.4-58.5-42.9.7Zm60.7-1104.1v19.4l128.2-.7V125.1Zm175.8,34.9,1,51.8h45.8l-2-52.2ZM1390.4,331.4l62,.2-.5-26.2-61.5-1ZM540.8,995.7v7l44.6-.2v-7Zm-67.1-2.1.2,6.4,23.6-.6-.2-6.4Z" transform="translate(0.2 -2.1)"/>
  <path id="grass" class="cls-4" d="M1333.7,1197.6l10.5,81.2,19.2,54.4,20.7,9,56.2-20.4-32-30.9-25.9-146.4-.6-175.5,48.9-28.5,19.2,20.1.3,90.6L1463,1073l-1.2,110.6,13.7,7.9,36.1-1.7-3.5-42.5,144.1.9-30-176.2,23.9-68.7-1.2-76.6-27.9-.3-13.4,92-73.9-10.2-.3-40.4-68.4,1.1-.7-13.8-114.9,6.6Zm836.2-253.9.3-144.7-185.7,2.3.9,68.1,53.6,85,112.4,2.3ZM2005.5,1471l10-30.7-39.2-5.3-92.2.3-.2,44.6,111.2.3Zm184.1,454.2-229.9-137.1-80.7-36.3-198.6-68-227.4-3.5h-4.9l-2.3,36.5,259.5,39.4,64.6,15.7,62,19,59.9,24.2,297.8,172.5ZM1116.4,1041.6h-22.9l.8-69.3-136.6.4,1.2,103.3,157.6-.4ZM716.8,1398.2,928.2,1509l50.8-69-59-60.6,1.8-62.3-291.2-2.2Zm77.4-261.3-12.9-27.2-10.6-11.5-18.4,7.3-16.6,27.2-8.6,17.4-4.5,15.9,29.7,9,30.2,1.4ZM1656,899.1l61.8-1.5-1.3-57.8-61.8,1.5ZM541.3,1078l48.6-.8-1.1-67.3-48.6.8Zm1531.4,298.2h-25.4l-.3,25.3-1.7,25.6,1.4,7.5-.7,17.6-14.7,9-1.6,11-17.1,3.1-9.6,9.8-.2,10.7h69.9ZM154.8,111l-5.2,54.6-42.3-.3L63.9,213.7l43.5,1304.8L178,1543l42.4,2.8,22.9-43.2-1.5,4.4-15.7,37.3-10.3,21.9,70.8,289.7,32.5,5.8,28.6.6,468.9,22.1,23.2-283.9,71.2,5.7,46.2,3.7,1.3-7.8-69.9-26.2L814,1536.1l-57.5-33.8-95.6-70.4-97.6-95.7L455,1222.9l-70.7-62.7L316.9,1113l-39-28.8-24.3,389.1-5.4,15.3,12-272.4L270.7,1017l2.2-42.3,44.6-404.4,12.1-232.5,19.7-2.2,41.9-1.9,45.8,1,33.8,2.8,76.8,9.8L889.4,393l104.1,10.2,89.6,4.9,214.1,7.3,16.8-16.2,1.9-51.9-132,.2-45.1-1.1-57.9-3.8-66.9-8.1-54.7-8.9L526.8,246l2.5-25.6L336.4,185V111ZM76.7,2061.4H356.9L279.6,1874l-4.8-16.3-100-299.2-67.4-28.3Z" transform="translate(0.2 -2.1)"/>
  <path id="wald" class="cls-5" d="M101.2,442.1l.2-.4v-.4l50.3-260.4v-.2l14.5-96.1,161.1,15.7L321.1,209h0L307.4,549.7l-60.9,928.5-3.7,6.7-68.1-6.6L27.3,948.7v-.3Z" transform="translate(0.2 -2.1)"/>
  <path id="streetF" class="cls-6" d="M1884.7,167a5.3,5.3,0,0,1,4.8-5.7l99-8.4,186.8-9.1,26.7-2.4-3.5-30.6h3.7l3.5,30.6a5.2,5.2,0,0,1,3.8,6.3,4.9,4.9,0,0,1-2.5,3.3l1.5,9.3h0l.9,50.9a1.9,1.9,0,0,1-1.8,1.9h0a1.8,1.8,0,0,1-1.8-1.8l-.9-50.7-1.5-8.9-27.3,2.4h-.2l-186.7,9-98.8,8.4h-.4A5.1,5.1,0,0,1,1884.7,167Zm355.7,1504.1a1.8,1.8,0,0,1-1.6,1.8l-39,5.1h-.3l-58.2-2.6h-.6l-14.6-5.7a1.6,1.6,0,0,1-.8-.6l-8.8-12.2a1.4,1.4,0,0,1-.3-1.1l.7-79.8-28.9-23.2a1.9,1.9,0,0,1-.7-1.4l-.2-98.9a.6.6,0,0,1,.1-.4l13.5-56.9v-88.4h0v-36.6l-49.4-.3-9.7,62,.5,88.1v.2a.8.8,0,0,1-.1.4v.3l-.2.3-.3.3h-.1l-16.7,10.3a1.6,1.6,0,0,1-.9.3l-33.7.8-202.3-7.8a1.9,1.9,0,0,1,.1-3.7l202.2,7.8,33.1-.8,15.4-9.5-.5-87.2v-.3l9.6-61.6-110.7-.7-127.7-.6-40.2,4.2-27,2.6-28,5.4-73.3,17.9-269.7,87.9,39.1,91.2,10.9-4.7.7-.2h11.5a1.9,1.9,0,0,1,1.8,1.9,1.8,1.8,0,0,1-1.8,1.8h-11.1l-10.6,4.6,22.9,53.4a6,6,0,0,1,.6,1.9l7.7,36.2a.7.7,0,0,0,.1.5c0,.2.1.3.1.5l3.1,28.4,377.9,33.7a5.3,5.3,0,0,1,4.8,5.7,5.2,5.2,0,0,1-5.2,4.8h-.5l-376.7-33.6-.6,28.4v.4l-2.6,46.6h0l-.8,17.8v.4l-12.9,149.1h0l-8.6,88.7a2.9,2.9,0,0,1-.2.9c-.1.3-.1.6-.2.9l-.3.9-.3.8a5.6,5.6,0,0,1-.5.8l-.5.7-.7.7-.6.6-.8.6a1.8,1.8,0,0,1-.7.5l-.9.5-.7.4-1.1.3-.7.2-1.9.2h-.8l-371.8-30.6-5.9,125.9h-20.2l6-126.3-56.7,1.8h-.3a7.8,7.8,0,0,1-2.2-.3l-53.8-12.3-32-6.4-384.6-17.9-6.8,161.3H461.5l6.8-162.3-118.4-6.8a10.1,10.1,0,0,1,1.1-20.1l128.3,7.4L874.6,1885l1.5.2,32.8,6.6h.3l52.6,12,66.3-2.1h1.2l372.3,30.7,7.6-78.8,12.7-147-316.2-23.2a1.9,1.9,0,0,1,.3-3.7h0l316.2,23.2.7-15.7h0l2.6-46.5.7-33.6-2.1-19.5-35.5,25.5a5.6,5.6,0,0,1-2.8,1l-26.4,1.4h-.9l-208.6-25.4h-.7l-40.7-10.3h-.3l-.6-.2-.4-.2-.5-.3-.4-.3-.4-.3-.3-.4-.3-.4a.8.8,0,0,1-.2-.4c-.1-.2-.2-.3-.2-.5s-.1-.3-.1-.5a.9.9,0,0,1-.1-.5.7.7,0,0,0-.1-.5v-.4l-.8-224.4a4.9,4.9,0,0,1,.1-1.2l5-21.9a4.6,4.6,0,0,1,1.2-2.3l12.3-13.8a4.6,4.6,0,0,1,.7-.7l12.7-9.6a5.7,5.7,0,0,1,2.8-1.1l20-1.5h.4l100.2.5,54.1-16.8-13.4-43.8a8.5,8.5,0,0,1-.4-2.3l-2.5-37.2v-1l4-107.7-348.4,2h0a1.9,1.9,0,0,1-1.8-1.9,1.8,1.8,0,0,1,1.8-1.8l348.6-2,2-53.6-167.3-.5a1.9,1.9,0,0,1-1.8-1.9,1.8,1.8,0,0,1,1.8-1.8h0l167.5.5,3-80.1,3.6-93.7.4-39.5-46.2-.5,1.1,73.5a1.9,1.9,0,0,1-1.8,1.9h0a1.8,1.8,0,0,1-1.8-1.8l-1.2-75.4a1.9,1.9,0,0,1,.5-1.3,1.3,1.3,0,0,1,1.3-.5l48.2.5,3.3-64.9,4-108.7,6-179.3L957.3,442.4h-.5l-147-14.8L796.8,529,778,686v.2L763.5,788.6a16,16,0,0,1-.5,2.1l-13.6,36.5a9.4,9.4,0,0,1-1.9,3.2l-27,30-1.2,1.1-23,18.5,8.2,21.4a5.7,5.7,0,0,1,.3,1.8l2.6,205a5.2,5.2,0,0,1-5.2,5.3h-.1a5.2,5.2,0,0,1-5.2-5.2l-2.6-204-7.7-20.2-52,10.3-1.8.2-71.7,1h-.4l-46.6-1.3v91.2l.3,122.7a1.7,1.7,0,0,1-.1.7v.3c-.1.2-.1.5-.2.7s-.1.2-.1.3l-.3.6a.4.4,0,0,0-.1.3l-.4.5-.2.3-.5.4-.3.3-.5.3-.4.2-.5.2-.5.2h-1l-100.3.7h0a5.7,5.7,0,0,1-2.8-.8L273,1030.5a5.2,5.2,0,0,1-1.7-7.2,5.3,5.3,0,0,1,7.2-1.7L410,1103l93.6-.7-.3-117.5V893.3l-15.8-.4-1.6-.2-34.5-6.5-3.2,3.2-5.6,2.9-6.2,1-6.2-1-5.6-2.9-4.5-4.5-2.9-5.6-1-6.2,1-6.2,2.9-5.6,4.5-4.5,5.6-2.9,6.2-1,6.2,1,5.6,2.9,4.5,4.5,2.7,5.2,33.5,6.4,66.6,1.8.3-155.1a5.2,5.2,0,0,1,5.2-5.2h0a5.2,5.2,0,0,1,5.2,5.2L566,874.7l65.3-.9,52.2-10.3,22.2-17.9,25.2-28,12.6-33.7,13.4-94.7-39.5-.3a5.2,5.2,0,0,1-5.2-5.2l-.5-119.1a5.3,5.3,0,0,1,5.2-5.3h0a5.2,5.2,0,0,1,5.2,5.2l.5,113.9,35.6.3,18.4-153,13-101.3L447,378l-6.2-.4.7,16.4,1.1,29.7,164.8,93.9a5.2,5.2,0,1,1-5.1,9.1.1.1,0,0,1-.1-.1L434.9,431.3a5,5,0,0,1-2.6-4.4l-1.2-32.5-.8-17.4-21.2-.8-53.5,1-44.5,5.6-57.4,20.3-56.8,32.2L101.4,510,33,562l-.8.6-13.9,8.6V547.5l3-1.8L89,494l96-75.1,1.2-.8,58.3-33,1.6-.7,59.3-21,2.1-.5,46.1-5.8h1l54.4-1h.6l25.9,1h.3l6.5.4-4.2-87.5-1-59L429.2,74V71.3h10.5v2.3L447,199.3l19.6-18.4L478.3,169l-.8-97.6H488l.9,99.7a5.1,5.1,0,0,1-1.5,3.7L474,188.3l-.2.2L447.6,213l.9,56.7,4.2,88.8,349.2,47.4,156.3,15.7L1326,438.4l5.4-22.6,3.9-67.2h0l2.2-46V302l6.3-57.8-220.6,4.4-89.8.6h-.1a10.1,10.1,0,0,1-10.1-9.4L1020,189,786.2,142.6l-23.9,1.1-11,9.7.2,25.6a10.1,10.1,0,0,1-10,10.2H550a10.1,10.1,0,0,1,0-20.2H731.7l-.2-20a10.4,10.4,0,0,1,3.4-7.7l17.2-15.1a10.1,10.1,0,0,1,6.2-2.5l28.6-1.3a9.7,9.7,0,0,1,2.4.2l242.6,48.1a10.1,10.1,0,0,1,8.1,9.3l3.1,49,80.1-.5,223.5-4.4,4.2-24.7,8-42.8,16.3-85h132.6l.5-.2h11.5l-11.1,3.8h-9.3L1539.9,87a5.1,5.1,0,0,1,3.8,5v37.8a5.2,5.2,0,0,1-5.2,5.2h0a5.2,5.2,0,0,1-5.2-5.2V96L1472,78.6h-.2l-.5-.2-.4-.2-.4-.3-.4-.3c-.1-.1-.3-.2-.4-.4l-.3-.3-.3-.4a.5.5,0,0,1-.2-.4c-.1-.2-.2-.3-.2-.5v-.2l-73.3-.3L1379,160.4l-6.6,35.2,58.7-1.5a5.2,5.2,0,0,1,5.4,5h0a5.3,5.3,0,0,1-5.1,5.4l-60.8,1.5-4.9,29.4-7.3,66.5,32.4,1.8h.1l.7.2h.1l10.3,6h49.4a1.8,1.8,0,0,1,0,3.6h-49.9l-.9-.3-10.3-6-32.1-1.8-1.6,33.4,105.4-.7h.1a10.1,10.1,0,0,1,0,20.1l-106.6.7-3,52.7,73.3-2,36.2-.2h0a5.3,5.3,0,0,1,0,10.5l-36.1.2-74.7,2.1-6.7,28-5.9,177.9,181.3.7,34.8.6,65,1.8,89.2.7,130.2,2.1,41.1-.2-.2-9.1.9-32.6a1.8,1.8,0,0,1,1.8-1.8h0l177.1,2.8,28.9-19.8,13.6-10.6a1.9,1.9,0,1,1,2.3,2.9h-.1l-9.5,7.5h15.2l18.3-13.8,6.2-20.6V524l-16.7-60.1a1.9,1.9,0,0,1,3.6-1h0l16.8,60.4c0,.2.1.3.1.5v15.5a.7.7,0,0,1-.1.5l-6.4,21.4a1.3,1.3,0,0,1-.7.9L2112,576.7a2.1,2.1,0,0,1-1.1.4h0l-20.5-.2L2063,595.6l5.2,7.2,25.7-15.5a1.6,1.6,0,0,1,.9-.3l22.3-.2h26.4l8.6-18.3a.2.2,0,0,1,.2-.2l.2-.3.3-.2.3-.2h.7l47.9-.7v3.7l-46.7.7-8.6,18.3a1.9,1.9,0,0,1-1.7,1.1h-27.6l-21.7.2-25.6,15.5,2.4,12.2v.6l-1.5,9.8a10.1,10.1,0,0,1,1.6,18.4l-7.7,4.2.7,15.1,11.5,9.9,79.8,1.7,25.4.3h1.2l.6.2.4.2.5.3.4.3.3.2,16.3,14V707l-14.4-12.3.4,98,1.5,39.5h12.5v10.5h-12.3l1.1,119.4h11.2v10.5l-16.4-.2h0l-24.3-.2v27.1a5.2,5.2,0,1,1-10.4,0V972.2l-82.5-.8v46.3a5.2,5.2,0,1,1-10.4,0v-45l-37.1,8.6L1974.9,993l1.4,41.5a5.3,5.3,0,0,1-5.1,5.4h-.2a5.2,5.2,0,0,1-5.2-5.1l-1.4-39.5-33.1,6.7-18.3,20,.4,87.8,24.1,14,266.2-42v10.6l-266.4,42.1a5,5,0,0,1-3.4-.6l-28.3-16.4a5.1,5.1,0,0,1-2.6-4.5l-.4-92.8a5.4,5.4,0,0,1,1.4-3.6l20.8-22.8h.1l.5-.4.3-.3.5-.3.4-.2.4-.2.5-.2h.1l40.7-8.2,49.8-12.7,43.6-10.1h1.2l117.2,1.1-1.2-124.6-1.6-44.5-.4-104.5-20.3-.2-81.8-1.7a5.1,5.1,0,0,1-3.3-1.3l-14.6-12.6a5.3,5.3,0,0,1-1.8-3.7l-.8-16.1-64.7.6-150.3.6h-.2l-15-.3-113-1.8.9,36.4a5,5,0,0,1,3.2,3.3h83.7a1.8,1.8,0,0,1,0,3.6h-83.2l4.2,32.1a5.2,5.2,0,0,1-4.5,5.9h-.7a5.4,5.4,0,0,1-5.2-4.6l-4.6-34.8a5.2,5.2,0,0,1,3.2-5.5l-.9-36.6-87.7-.7h-.2l-65-1.8-34.6-.6-181.8-.7-2,53.8,196.8.9H1589a1.9,1.9,0,0,1,1.8,1.9,1.8,1.8,0,0,1-1.8,1.8h-56.3l-196.9-.9-1.3,36.2,16.2.2,95.2.9a5.3,5.3,0,0,1,5.2,4.8l1.9,22.3,54.2.3a5.2,5.2,0,1,1,0,10.4h0l-59-.3a5.2,5.2,0,0,1-5.2-4.8l-1.9-22.3-90.4-.8-16.6-.2-3.1,61.3-.4,41.3v.3l-3.6,93.8-9.2,248.2,2.3,35.5,36.2,118.1,7.3,16.9,158.1-51.5-3.3-113.7h0a.6.6,0,0,1,.1-.4c0-.1.1-.2.1-.3h0l7.9-13.5a1.7,1.7,0,0,1,1.6-.9l102-1.2a1.9,1.9,0,0,1,1.9,1.7h0a1.9,1.9,0,0,1-1.8,1.9h0l-101,1.2-7.2,12.1,3.2,112.1,110.1-35.9.7-.2,21.2-5.2-51.3-315a5.2,5.2,0,1,1,10.3-1.7l51.2,314.2,42.6-10.4h.5l28.7-5.5h1l26.5-2.5V1120.3l.4-53.9a1.8,1.8,0,0,1,1.8-1.8h0a1.8,1.8,0,0,1,1.8,1.9l-.4,53.9v131.9l37.8-3.9h1l128.3.6,47.2.3.5-46.6h-32.2a1.8,1.8,0,0,1,0-3.6h34a1.8,1.8,0,0,1,1.8,1.8h0l-.6,48.4,246.9,1.5v20.2h-17l-.3,136.5v.4l-4.7,22.9-1.4,124.4,27.3,15.7a1.7,1.7,0,0,1,.9,1.6ZM1883.1,624.5l.2,9.1,105.4-.5,66.9-.6,6.3-3.5a10.1,10.1,0,0,1,4.5-1.2l1.4-9.5-2.6-12.8-6.5-9-174.9-2.8Zm-546.2,733.7-.4-1-20.2-65.9-54.8,17a4.1,4.1,0,0,1-1.6.2h0l-100.8-.5-18.2,1.4-11,8.4-11.1,12.4-4.6,20,.7,219.7,36.4,9.2,207.8,25.3,24.4-1.3,39-28-7.3-33.9Zm767.4-53.5,109.7-.7v-33.4l-109.7-.7Zm14.1,267.8,15.4-15.4a1.9,1.9,0,0,1,1.3-.5l59.7-.3,12.8-2,1.4-124.1v-.4l4.7-22.8.2-99.3-109.7.7v86.8a.6.6,0,0,1-.1.4l-13.5,56.9.2,97.8Zm118.3,97-.8-96.3-26.8-15.4-13.8,2.1h-.3l-59,.3-15.5,15.5-.7,79.4,8.2,11.3,13.9,5.4,57.7,2.6Zm-535-1343.8a5.3,5.3,0,0,0,5.2,5.1h.2a5.3,5.3,0,0,0,5.1-5.4l-7.5-253V71.3h-10.5v1.4Zm-401-156.6h0a1.8,1.8,0,0,0,1.8-1.8l-.3-96h-3.7l.3,96A1.8,1.8,0,0,0,1300.7,169.1Z" transform="translate(0.2 -2.1)"/>
  <path id="streetS" class="cls-7" d="M2198,108.9h.3l3.7,32.7-26.7,2.4-186.8,9.1-99,8.4a5.3,5.3,0,0,0,.4,10.5h.4l98.8-8.4,186.7-9h.2l27.3-2.4,1.5,8.9.9,50.7a1.8,1.8,0,0,0,1.8,1.8h0a1.9,1.9,0,0,0,1.8-1.9h0l-.9-50.9h0l-1.5-9.3a5.2,5.2,0,0,0,2-7.1,5.6,5.6,0,0,0-3.3-2.5l-3.7-32.6m-736.4-64,2.4,26.2-72.1-.3,4.5-25.9m156,10-48.5,16.4h-21.6l-8-2.3-2.2-24M1693.1,38l1.1,34.7,7.5,253a5.3,5.3,0,0,0,5.2,5.1h.2a5.3,5.3,0,0,0,5.1-5.4l-7.5-253-1.1-34.5M2201,566.5l-47.9.7h-.7l-.3.2-.3.2c-.1.1-.2.2-.2.3l-.2.2-8.6,18.3h-26.4l-22.3.2a1.4,1.4,0,0,0-.9.3l-25.7,15.5-5.2-7.2,27.4-18.7,20.5.2h0a1.5,1.5,0,0,0,1.1-.4l19.3-14.6a3.1,3.1,0,0,0,.7-.9l6.4-21.4c0-.2.1-.3.1-.5V523.6a.9.9,0,0,0-.1-.5L2121,462.7a1.9,1.9,0,0,0-3.6,1h0l16.7,60.1v14.9l-6.2,20.6-18.3,13.8h-15.2l9.5-7.5a1.9,1.9,0,1,0-2.2-3h-.1l-13.6,10.6L2059,592.9l-177.1-2.8h0a1.8,1.8,0,0,0-1.8,1.8l-.9,32.6.2,9.1-41.1.2-130.2-2.1-89.2-.7-65-1.8-34.8-.6-181.3-.7,5.9-177.9,6.7-28,74.7-2.1,36.1-.2a5.3,5.3,0,0,0,0-10.5h0l-36.2.2-73.3,2,3-52.7,106.6-.7a10.1,10.1,0,0,0,0-20.2h-.1l-105.4.7,1.6-33.4,32.1,1.8,10.3,6a1.6,1.6,0,0,0,.9.3h49.9a1.8,1.8,0,0,0,0-3.6h-49.4l-10.3-6h-.9l-32.4-1.8,7.3-66.5,4.9-29.4,60.8-1.5a5.3,5.3,0,0,0,5.1-5.4,5.1,5.1,0,0,0-5.2-5.1h-.1l-58.7,1.5,6.6-35.2,16.3-85.4,73.3.3v.2l.2.5a.5.5,0,0,1,.2.4l.3.4.3.3.4.4.4.3.4.3.4.2.5.2h.2l61.3,17.4v33.8a5.2,5.2,0,0,0,5.2,5.2h0a5.2,5.2,0,0,0,5.2-5.2V91.6a5.2,5.2,0,0,0-3.8-5l-40.5-11.5h9.3l49.2-16.6a1.6,1.6,0,0,0,.8-.6m648.8,640.5-22.1-19-.3-.2-.4-.3-.5-.3-.4-.2-.6-.2h-1.2l-25.4-.3-79.8-1.7-11.5-9.9-.6-15,7.7-4.2a10,10,0,0,0-1.6-18.3l1.5-9.8v-.6l-2.4-12.2,25.6-15.5,21.7-.2h27.6a1.8,1.8,0,0,0,1.7-1.1l8.6-18.3,46.8-.7m6,262.2h-18.7l-1.5-39.5-.4-98,13.4,11.6m-1.7,255.8h-8.4l-1.1-119.4h16.7m24.8,407.8-242.4-1.4.6-48.4a1.9,1.9,0,0,0-1.8-1.9h-34a1.8,1.8,0,1,0,0,3.6h32.2l-.5,46.6-47.2-.3-128.3-.6h-1l-37.8,3.9V1120.2l.4-53.9a1.9,1.9,0,0,0-1.8-1.9h0a1.8,1.8,0,0,0-1.8,1.8l-.4,53.9v132.3l-26.5,2.5h-1l-28.7,5.5h-.5l-42.6,10.4L1616,956.8a5.2,5.2,0,1,0-10.3,1.7h0l51.3,315-21.2,5.2-.7.2L1525,1314.8l-3.2-112.1,7.2-12.1,101-1.2a1.8,1.8,0,0,0,1.8-1.9h0a1.8,1.8,0,0,0-1.7-1.8h-.1l-102,1.2a2.2,2.2,0,0,0-1.6.9l-7.9,13.5h0a.4.4,0,0,0-.1.3c0,.1-.1.2-.1.4h0l3.3,113.7-158.1,51.5-7.3-16.9L1320,1232.4l-2.3-35.5,9.2-248.2,3.6-93.8v-.3l.4-41.3L1334,752l16.6.2,90.4.8,1.9,22.3a5.2,5.2,0,0,0,5.2,4.8l59,.3h0a5.2,5.2,0,1,0,0-10.4l-54.2-.3-1.9-22.3a5.2,5.2,0,0,0-5.2-4.8l-95.2-.9-16.2-.2,1.3-36.2,196.9.9h56.3a1.9,1.9,0,0,0,1.8-1.9,1.8,1.8,0,0,0-1.8-1.8h-56.3l-196.8-.9,2-53.8,181.8.7,34.6.6,65,1.8h.2l87.7.7.9,36.6a5.2,5.2,0,0,0-3.2,5.5l4.6,34.8a5.3,5.3,0,0,0,5.2,4.6h.7a5.2,5.2,0,0,0,4.5-5.9h0l-4.2-32.1h83.2a1.8,1.8,0,0,0,0-3.6h-83.7a5.5,5.5,0,0,0-3.2-3.3l-.9-36.4,113,1.8,15,.3h.2l150.3-.6,64.7-.6.8,16.1a5.3,5.3,0,0,0,1.8,3.7l14.6,12.6a5.1,5.1,0,0,0,3.3,1.3l81.8,1.7,20.3.2.4,104.5,1.6,44.5,1.2,124.6-117.2-1.1h-1.2L2018,971l-49.8,12.7-40.7,8.2h-.1l-.5.2-.4.2-.4.2-.5.3-.3.3-.5.4h-.1l-20.8,22.8a5.2,5.2,0,0,0-1.4,3.6l.4,92.8a5.1,5.1,0,0,0,2.6,4.5l28.3,16.4a4.8,4.8,0,0,0,2.6.7h.8l265.2-41.9M1032.6,2035.6l5.3-113.3,371.8,30.6h.8l1.9-.2.7-.2,1.1-.3.7-.4.9-.5.7-.5.8-.6.6-.6.7-.7.5-.7a3.5,3.5,0,0,0,.5-.8l.3-.8a3.2,3.2,0,0,0,.3-.9c.1-.3.1-.6.2-.9s.1-.6.2-.9l8.6-88.7h0l12.9-149.1v-.4l.8-17.8h0l2.6-46.6v-.4l.6-28.4,376.7,33.6h.5a5.2,5.2,0,0,0,5.2-5.2,5.2,5.2,0,0,0-4.8-5.2l-377.9-33.7-3.1-28.4c0-.2-.1-.3-.1-.5a.7.7,0,0,0-.1-.5l-7.7-36.2a7,7,0,0,0-.6-1.9l-22.9-53.4,10.6-4.6H1433a1.9,1.9,0,0,0,1.8-1.9,1.8,1.8,0,0,0-1.8-1.8h-11.5l-.7.2-10.9,4.7-39.1-91.2,269.7-87.9,73.3-17.9,28-5.4,27-2.6,40.2-4.2,127.7.6,110.7.7-9.6,61.6v.3l.5,87.2-15.4,9.5-33.1.8-202.2-7.8a1.9,1.9,0,0,0-.1,3.7h0l202.3,7.8,33.7-.8a1.6,1.6,0,0,0,.9-.3l16.7-10.3.4-.4.2-.3a.4.4,0,0,0,.1-.3c0-.1.1-.2.1-.4v-.2l-.5-88.1,9.7-62,49.4.3v36.6h0v88.4l-13.5,56.9c0,.1-.1.3-.1.4l.2,98.9a1.7,1.7,0,0,0,.7,1.4l28.9,23.2-.7,79.8a2,2,0,0,0,.3,1.1l8.8,12.2a1.6,1.6,0,0,0,.8.6l14.6,5.7h.6l58.2,2.6h.3l39-5.1a1.8,1.8,0,0,0,1.6-1.8l-.8-99a1.9,1.9,0,0,0-.9-1.6l-27.3-15.7,1.4-124.4,4.7-22.9v-.4l.3-136.5h16.8m-1753.4,791,7.4-174.7,384.6,17.9,32,6.4,53.7,12.3a8.3,8.3,0,0,0,2.2.3h.3l56.7-1.8-5.4,113.8M32.2,562.6l.8-.6,68.4-52.1,95.5-74.7L253.7,403l57.4-20.3,44.5-5.6,53.5-1,21.2.8.8,17.4,1.2,32.5a5.5,5.5,0,0,0,2.6,4.4l167.3,95.3a5.2,5.2,0,0,0,7.1-2,5.3,5.3,0,0,0-1.9-7.1L442.6,423.5l-1.1-29.7-.7-16.4,6.2.4,342.6,46.5-13,101.3-18.4,153-35.6-.3-.5-113.9a5.2,5.2,0,0,0-5.2-5.2h0a5.2,5.2,0,0,0-5.2,5.3l.5,119.1a5.2,5.2,0,0,0,5.2,5.2l39.5.3-13.4,94.7-12.6,33.7-25.2,28-22.2,17.9-52.2,10.3-65.3.9.3-155.2a5.2,5.2,0,0,0-5.2-5.2h0a5.2,5.2,0,0,0-5.2,5.2l-.3,155.1L489,872.7l-33.5-6.4-2.7-5.2-4.5-4.5-5.6-2.9-6.2-1-6.2,1-5.6,2.9-4.5,4.5-2.9,5.6-1,6.2,1,6.2,2.9,5.6,4.5,4.5,5.6,2.9,6.2,1,6.2-1,5.6-2.9,3.2-3.2,34.5,6.5,1.6.2,15.8.4v91.5l.3,117.5-93.7.9-131.9-82.3a5.2,5.2,0,0,0-5.5,8.9h0l133.2,83.1a5.4,5.4,0,0,0,2.8.8h0l100.3-.7h1l.5-.2.5-.2.4-.2.5-.3.3-.3.5-.4.2-.3.4-.5a.4.4,0,0,0,.1-.3l.3-.6v-.3a1.9,1.9,0,0,0,.2-.7v-.3c0-.2.1-.5.1-.7l-.3-122.7V893.4l46.6,1.3h.4l71.7-1,1.8-.2,52-10.3,7.7,20.2,2.6,204a5.2,5.2,0,0,0,5.2,5.2h.1a5.2,5.2,0,0,0,5.2-5.3l-2.6-205a5.7,5.7,0,0,0-.3-1.8l-8.2-21.4,23-18.5,1.2-1.1,27-30a9.4,9.4,0,0,0,1.9-3.2l13.6-36.5a8,8,0,0,0,.5-2.1l14.5-102.4v-.2l18.8-157,13-101.4,147,14.8h.5l366.5,16.7-6,179.3-4,108.7-3.3,64.9-48.2-.5a1.9,1.9,0,0,0-1.3.5,2.1,2.1,0,0,0-.5,1.3l1.2,75.4a1.8,1.8,0,0,0,1.8,1.8h0a1.9,1.9,0,0,0,1.8-1.9l-1.1-73.5,46.2.5-.4,39.5-3.6,93.7-3,80.1-167.5-.5h0a1.9,1.9,0,0,0-1.8,1.9,1.8,1.8,0,0,0,1.8,1.8l167.3.5-2,53.6-348.6,2a1.9,1.9,0,0,0-1.8,1.9,1.8,1.8,0,0,0,1.8,1.8h0l348.4-2-4,107.7v1l2.5,37.2a18.5,18.5,0,0,0,.4,2.3l13.4,43.8-54.1,16.8-100.2-.5h-.4l-20,1.5a4.9,4.9,0,0,0-2.8,1.1l-12.7,9.6-.7.7-12.3,13.8a5.7,5.7,0,0,0-1.2,2.3l-5,21.9a4.9,4.9,0,0,0-.1,1.2l.8,224.4v.4a.7.7,0,0,0,.1.5c0,.2.1.3.1.5s.1.3.1.5l.2.5c.1.1.1.3.2.4l.3.4.3.4.4.3.4.3.5.3.4.2.6.2h.3l40.7,10.3h.7l208.6,25.4h.9l26.4-1.4a5.6,5.6,0,0,0,2.8-1l35.5-25.5,2.1,19.5-.7,33.6-2.6,46.5h0l-.7,15.7-316.2-23.2a1.9,1.9,0,0,0-.3,3.7l316.2,23.2-12.7,147-7.6,78.8-372.3-30.7h-1.2l-66.3,2.1-52.6-12h-.3l-32.8-6.6-1.5-.2-395.3-18.4-128.3-7.4a10.1,10.1,0,0,0-1.1,20.1l118.4,6.8-7.4,175.1v.5m1775.4-487.6.8,96.3-37.2,4.9-57.7-2.6-13.9-5.4-8.2-11.3.7-79.4,15.5-15.5,59-.3h.3l13.8-2.1ZM2209,1429.8v.4l-1.4,124.1-12.8,2-59.7.3a1.9,1.9,0,0,0-1.3.5l-15.4,15.4-27.6-22.2-.2-97.8,13.5-56.9v-87.2l109.7-.7-.2,99.3Zm5-125.8-109.7.7V1270l109.7.7Zm-12.7-221.9-264.5,41.8-24.1-14-.4-87.8,18.3-20,33.1-6.7,1.4,39.5a5.3,5.3,0,0,0,5.2,5.1h.2a5.3,5.3,0,0,0,5.1-5.4h0l-1.4-41.5,45.7-11.7,37.1-8.6v45a5.2,5.2,0,0,0,10.4,0V971.5l82.5.8v27.2a5.2,5.2,0,0,0,10.4,0V972.3l24.3.2h0l15.9.2M1883.1,624.5l.8-30.7,174.9,2.8,6.5,9,2.6,12.8-1.4,9.5a8.9,8.9,0,0,0-4.5,1.2l-6.3,3.5-66.9.6-105.4.5Zm-546.2,733.7,78.5,183.1,7.3,33.9-39,28-24.4,1.3-207.8-25.3-36.4-9.2-.7-219.7,4.6-20,11.1-12.4,11-8.4,18.2-1.4,100.8.5h0l1.6-.2,54.8-17,20.2,65.9c-.1.3.1.6.2.9ZM429.2,74l7.9,136.9,1,59,4.2,87.5-6.5-.4h-.3l-25.9-1H409l-54.4,1h-1l-46.1,5.8-2.1.5-59.3,21-1.6.7-58.3,33-1.2.8L89,494,21.1,545.7M475.9,72l2.4,97-11.7,11.9L447,199.3,439.7,73.6m940.5-30.7-1.5,8.8-20-1.1h-.2L1300.2,54h-.7l-.3.2a1.2,1.2,0,0,0-.5.5l-.2.3c0,.1-.1.2-.1.4s-.1.2-.1.3l.3,111.4a1.8,1.8,0,0,0,1.8,1.8h0a1.8,1.8,0,0,0,1.8-1.8l-.3-109.7,56.4-3.3,19.5,1.1-2.7,15.5-16.4,85.4-8,42.8-4.2,24.7L1123,228.2l-80.1.5-3.1-49a10.1,10.1,0,0,0-8.1-9.3L789.1,122.3a9.7,9.7,0,0,0-2.4-.2l-28.6,1.3a10.1,10.1,0,0,0-6.2,2.5L734.7,141a9.7,9.7,0,0,0-3.4,7.7l.2,20H550a10.1,10.1,0,0,0,0,20.2H741.8a10.1,10.1,0,0,0,10.1-10.1h0l-.2-25.6,11-9.7,23.9-1.1,233.8,46.4,3.2,50.8a10,10,0,0,0,10.1,9.4h.1l89.8-.6,220.6-4.4-6.3,57.8v.6l-2.2,46h0l-3.9,67.2-5.4,22.6L958.6,421.3,802.3,405.6,453.1,358.2l-4.2-88.8-.9-56.7,26.2-24.5.2-.2,13.3-13.6a5.1,5.1,0,0,0,1.5-3.7l-2.5-99.1m991.4,339.7h-.1a10.1,10.1,0,0,0-10.1,10l-.2,19.5a10,10,0,0,0,9.7,10.2l33.6,1.2h.4a10.1,10.1,0,0,0,.4-20.2l-23.7-.9v-9.7a10.3,10.3,0,0,0-10.1-10.1Zm139.6,1413.6a5.2,5.2,0,0,0-6,4.3l-17.1,104.4-5.2,26.7a5.2,5.2,0,1,0,10.2,2h0l5.2-26.8,17.1-104.6A5,5,0,0,0,1617.7,1824.9Z" transform="translate(0.2 -2.1)"/>
  <g id="train">
    <path class="cls-8" d="M1537.6,1645.8l40.1-.8,40.1,2.9,154.2,13.2,155.6,11.9,129,8,178.1,17.7" transform="translate(0.2 -2.1)"/>
    <path class="cls-8" d="M10,967.6,78.3,984l87.5,27.7,55.6,23.6,52.2,29.7,65,40.2,72.6,55.1,70.7,67.5,56.7,60.4,90.5,95.2,41,36.3,58.6,48.1,63.3,41.7,69.7,37.5,71.9,32.1,74.3,27.3,86.9,23.1L1185,1643l77.3,2.3,56.9-4.9,61-3,58.4,2.1,99.1,6.1" transform="translate(0.2 -2.1)"/>
    <path class="cls-8" d="M1380.1,1637.6l-61-2.1-56.5-2.5-75.9-8.8-87.7-16-85.8-22.6L940.5,1560,871,1531l-69.8-36.6-60.4-36.8-62.7-46.9-42-35.9-97.4-86.5" transform="translate(0.2 -2.1)"/>
    <path id="tr3" class="cls-9" d="M1537.6,1645.8l40.1-.8,40.1,2.9,154.2,13.2,155.6,11.9,129,8,178.1,17.7" transform="translate(0.2 -2.1)"/>
    <path id="tr2" class="cls-9" d="M10,967.6,78.3,984l87.5,27.7,55.6,23.6,52.2,29.7,65,40.2,72.6,55.1,70.7,67.5,56.7,60.4,90.5,95.2,41,36.3,58.6,48.1,63.3,41.7,69.7,37.5,71.9,32.1,74.3,27.3,86.9,23.1L1185,1643l77.3,2.3,56.9-4.9,61-3,58.4,2.1,99.1,6.1" transform="translate(0.2 -2.1)"/>
    <path id="tr1" class="cls-9" d="M1380.1,1637.6l-61-2.1-56.5-2.5-75.9-8.8-87.7-16-85.8-22.6L940.5,1560,871,1531l-69.8-36.6-60.4-36.8-62.7-46.9-42-35.9-97.4-86.5" transform="translate(0.2 -2.1)"/>
  </g>
  <path id="rail" class="cls-10" d="M14.6,180.1l460.7,72.4,346.2,73.1,323.8,32.5,332.4-2.4,112.9-.8,273.5-11.7,374.2-28.1M0,251.9l467.1,51.6L823.3,373l312.5,19.8,568.3.9,332.2-33.4,205.1-17.9" transform="translate(0.2 -2.1)"/>
  <path id="u-bahn" class="cls-3" d="M1725.4,346.8v5.9l103.3,1.4h4.9l36.2.5V393l-1,33.8v.6l-29.6-.4-105.7-1.4-.2,14.7-52.7-.3-.5-19.6V364l-.8-15.8Zm-263.8,1.4H1473l91.7-.7,67-.3,47.6,1,.8,15.8-49.1.2-69.7.3,1.2,56.4-31.6.7h-69.2Zm34.1,164.6,16.1-.4.3-62.4-.7-7.8,20.2.4h30.3l-23.1,84.2.9,30.9-12.5,1.3-7.1,9.5-24.6,1.7ZM745.8,327.2l2-7.2,81.9,15.3-2.9,16.1,17.3,2.7-4,32.3-106.2-14Zm1065.6-74.7h30.1v6l.7,88.9h-8.9l-21.9.7Z" transform="translate(0.2 -2.1)"/>
  <path id="sport" class="cls-11" d="M887.8,509.5l.4,147.3,115.6-.4-.5-147.3ZM256.6,1488.7l170,14.1,7.8-93.9,13.1-158.1-170-14.1Zm165.7,64.7,205.6,17.1,12-144.5-205.6-17-7.8,93.9Zm-47.4,156.5L550.1,1724l9.9-123.7-175.2-14Zm-10.3,129.7,124.6,8.7,7-118.8-121.1-9.9ZM562.5,1743l60,4.7,7.6-111.8-55.9-4.7Z" transform="translate(0.2 -2.1)"/>
  <path id="build" class="cls-12" d="M957.5,719.8l.2,28.7,44.7-.3.2,29.5,26.9-.2.2,20.9-25.3.2.3,39.4-46.5.3.2,28.1,45.2-.3.2,26.1h9.1v11.9h18.5l-.3-39.5,57.8-.4-.2-22.6,23.6-.2.2,26.4,27.8-.2.2,34.6,29.6-.2-.3-36.7,26.5-.2-.2-27.6-26.9.2-.2-22.7h-15.4l-.3-38.8,68.1-.5-1.2-172.8-64.1.5-.4-64.2,113.1-.8-.2-30.8h6.3l-.2-27.2-130,.9.2,32.8-46.4.4-.2-31.1-25.6.2.2,25.1-46.2.3.2,31.3,46.6-.4.4,61.7-47.2.3.2,29.1,46.7-.4.2,25.5,26.1-.2-.2-32.3,45.3-.3.8,112.2-91.6.6V720.1h-21.4l-.3-38.7-28.9.2.3,37.5Zm84,28.9,39.4-.4.8,79.2-39.4.4Zm58.1-145.1V539.8h43.9v63.8ZM1114.3,748l27.1-.2.7,80.1-27.1.2Zm-785,31.1V775l19.1-.2.3,41.3,46.8-.4.9,107.3,44-.4,1,112.8,46.3-.4.5,60-22.5.2v5.8l-24.1.2-.3-32.5-49.8.4-.2-19h12.2l-.8-91.7-59.3.5-.2-21.2h9.3l-.7-82.7-47.5.4-.6-75.9ZM2232.5,304l-.6-4.7H2190v6.4l-32-.6-.6-5.8-15.3-1.4-9.7-.9-.6,13.4-28.5-1.1-.6,7-33.8-1.2-.6-6.4-34.4-1.2-6.4,7-16.3,1.1v-7.5l-27.9-.6-.6-11h-9.3l-.6-11.1,9.9-.8-.6-10.9h19.8v4.7h12.8l-.6-5.1,11.7,1v5.2H2038v-5.7h38.5l.5,5.9,12.3.5v-6.3h10.5l.6,4.7,11.7,1.7v-6.3H2140l-.6-10.5h2.4l20.3-.5v5.1h12.2l.5-5.1h9.9l.6,7,12.8-1.2v-5.1h38.5l.6,7,13.9-.5ZM1404,205.3l39.4.4.2-26.9-28.9-.2.4-47.6h5.7l.3-37.7,38.1.3-.3,30.2,41.8.4-.2,21.3h16.1l-.3,28.9-38.9-.4-.4,41.4,69.2.6-.5,60.1-37.1-.4v7.8l-19.3-.2-.2,21.1-56.6-.5.4-45.6h6.9l.2-22.2-36.5-.3Zm267.9,1132.6h10.6v-4.7h16.6v-5.5h17.6v1.7H1762v8.2h8.8v2.3h15.3v3.3h11.8v-2.5h33.3v9.4h8.2v2.1h16.7v2.3h11.2V1353h33.4v7.7h8.5v1.8h16.3v5.6h12.4v-3.3h26.6v3.3h13v-4.6h6.8l-.2-17h-5.3v-11.2h21.5v2.2h15.7v20.2h4v19.3h6.9v23.2h-14.3v-7.2h-6.7v14.6h-7.5v5.6h-16.3v-5.8h-11.1v-5.1H1958v-6.5h-15.6v6.5h-14.8v5h-19.1v5.6h-15.2V1390H1878v-6.6h-6.2v6h-13.6v5.7H1838v5.4h-15.6v-22.6h-14.5v-6h-5.9v6H1787v4.6h-20.1v5.4h-14.6v-21.8h-27.3v-1.7h-5.9v6.1h-10v1.9h-14.5v-5.4h-20v-17.4h-2.8Zm186.7-636.4V690h53.1v-5.4l81.6.4V670h32.2v10h-15.6v5.7l35.6.2v13.3l43.4.2v5.3l69.6.3v22.9h-12.5v12.4h-5.2v19.1h-16.1v8.8l-48.2-.2V745.6h-15.6V721.3L1996,721l-64.2-.3v18.5h-5.5v17.9h-14.5v9.4l-39.7-.2V740.7h-5.9V716.8h-7.8ZM1394.5,964.7V952.5h17.1v-3h11.8v11.2h4.7v17.4h4.3V995h-2.5l.4,48.2h5.8l.2,18.2h-1.2l.3,38.3h-2.9v14h2.8v17.1h3.7v7.2h8.4l.3,35.9h-1.2v9.1h2.2v15.4h2.5v8.3h8.1l.2,33.3h-2.7V1253h3.3v7.2h14.4v-2.3H1494v12.8h-3v14.9h-9.3v7.2h-15v4.1h-10.1v5.1l-22.7.2-.2-18.9-20.6.2-.2-21.6h6.9v-11.4h4.6l-.2-23.9h-4.1v-8.8h3.3v-4.2l-21.4.2-.2-23.7h5.1v-11.7h4.4l-.2-23.1h-3.8v-8h3.5v-5.1h-19.9l-.2-23.2h4.7v-11.1h6l-.3-35.4h-5.2l-.2-19.9h-2.8l-.2-21.4h6.6v-12.5h-3.6v-12.3h-3.7l-.2-20h-2.7l-.2-22Zm81.3,590.9h5.8v-18.8h4.7v-13.7h6.2v-8.8h13.6v-4.2h14.5v17h-2.3v14.5h8v3.2h11.5v-2.7h32.6v8.9h8v2.8h17.7v3.5H1609v-3.5h32.6v9.3h8.4v2.5h16.8v2.8h12.4v-3.1h32.6v8.2h11.4v4.3h15.4v2.6h13.5v-3h36v-2.9h18.2v3.9h16v4.2h12.1v7.4H1813v28.5h-14.4v-3.2H1786v-7.7h-6.2v4.4h-35.3v5.1h-18v5.6h-16.1v-21.8h-16.3V1595h-6v6h-14.4v4.6h-19.3v-15.2h-29.2v-7.6h-6.5v6.6h-14.2v5.3h-19.9v6H1570v-22.2h-15.9v-6.2h-6.9v6.7H1533v4.7h-10.8v5.6h-15.3v-6.2h-9.5v-10.3H1491v5.6h-15.1Zm-109.2-798,19.8-1.2,8.1,4.1h16.9l2.9,37.3h7.6v6.4h21l27.4,12.9,35.2,2.6,15.3.5,25.2.7,1.1,30,21.6.6,15-18.1,25.6-.6v18.7l-7.6,1.1-1.8,57.7h-32V904l-33.3,1.1V862.6l-18.4.6-50.9,1.7-1.1-21.5-40.8,2.3-18,1.2-10.5,5.8-18.7-1.2-2.3-73.3h-8.2ZM416.2,86.4l2.5,79.3-58.8,1.8L357,74.1Zm1515.3,935.2,24.6.2-.2,21.7,22.6.2V1042l43.5.4.3-38.1,23.7.2-.2,21.6,23.1.2v-2l45.5.4.3-38.9,24.5.2-.2,21.6,22.7.2v-1.5l46.8.4-.3,34h-15.6v9.1l-90.4-.8-.2,18.8-92-.8-.2,19.6-78.9-.7Zm-298.2-43.8,12.2-12.2-1.8-21.5,20.9-.7-.5-5.7,13.9,2.2,5.8,54.1,10.4,1.2,1.8,71.6,8.2.6,6.4,70.4h5.8l3.5,69.3,8.8-.5,1.2,11.1-1.7,11.6-15.8,1.1v4.7h-8.7l-1.1-6.9h-8.8l-2.2-14.5-20.5.5-1.1-22,11.1-12.8-.7-21-5.1-1.7-.6-12.2-16.3-1.2-1.3-22.8h7v-9.8h5.2l-2.3-36-21.3-1.3-.3-22.7,12.3-12.7-1.7-21-5.9-.6-1.1-14.5h-16.3ZM826.5,915v-8.3l46.7-.4v9.6l60.6-.6.5,59-19,.2.2,17.4-131.2,1.2-.2-16.8-16.2.2-.6-60.9ZM1879.2,187.9h15.6v-8.5l35.5.2v5.6h16.9v-7.1l36.1.2v5.1h8.4V168.5h21.5v-6l37.1.2v6.4h15.4V164l37.3.2v3.2h15.1v-6.1l39.3.2v4.7h19.9v17.8h-12.1l-.2,23.2-172.8-1.1V224l-113-.7Zm140.4,988.5v-5.1l37-.2v6.2h16V1171l37.8-.2v6.1h15.2V1170l37.4-.2v7.3h16.5v-6.9l36.1-.2v6.4h15.6v-6.1l35.3-.2v5.8h17.6v16.9H2274v21l-263.5,1.7-.2-22.5h-12.2v-16.6Zm-263-1125,1.3,70h7.6l.5,80.5-7.1.6,1.3,56.5,9.7-.2,1.4,72.5-38.4.8-1.3-70.3h-5.9l-1.4-71.7h4l-1.3-68.7h-6l-1.3-69.3ZM580.2,408.7,761.6,435l-7.4,51.5L572.8,460.2Zm936.5-263.2,41.6,2.2-.3-24.1,26.3-.3,1.8,51.2,7.9.6,1.5,28.2-20.2-.2.7,47.9,55.6-.8.3,22-18.4.3V279l-20.8.3v5.2h-9.2l.6,37.6-25.1.4-.3-18.1h-9.2l-.3-22.4h-2.7l-.8-6.1.5-60.1-1.3-37.3-28.6-4.3Zm-26.3,1276H1525v15.4l79.6-.2h93l-.2,57-82.7-.2-.5-30.4h-5.3l-118.7,1.5Zm699.9,34,.4,86.7-88.5.4-.4-86.7Zm15.9-139.3.4,86.7-88.5.4-.4-86.7Zm20.8,260.1.4,86.7-88.5.4-.4-86.7ZM341.9,456.2l-4.7-2.9,5.3-14.6-4.7-2.3,8.8-29.7,23.3,1.7v4.1l15.1,5.2-10.5,29.1,2.3,19.2,26.8,11.1,22.1-.6,9.3,21L414,508l3.5,19.2-22.7,7.6-3.5-9.3-21.5,1.8-2.9-9.9-21-6.4v-5.8l-7-2.9,5.2-22.1-8.1-8.7ZM1945.8,1539.3l-.2-19.9h4.1l-.2-14.2h6.8v-8.7h13.6v-2.6h13.7l.3,30.9h-4.2v14.7h7.8v9.5h8.9l.3,32.7h-3.1V1595h-3.2v6.6l21.8-.2v-2.3h16.4v12.6h-3.2l.2,14.9h-4.5v6.1h-13.7v5.8l-18.5.2v6.4l-23.5.2-.2-15.2h5.8v-6.2h-12.3v-7.8h-5.9v-14.4h5.6v-12.1h5.3v-14h6.8v-7.7h-7.3V1560h-1.5v-6.4l-21.5.2v-14.6ZM1848.1,819l41.6.2-.3,50.1,32.7.2-.3,51.2,33,.2-.2,44.5-42.3-.2.3-50.5-32.6-.2.3-49.3-32.4-.2ZM548.5,197.5h38.4v3.3l31.9,1.3v-6.4l39.6.6v4.6H694l.7,9.7,69.8-1v20.3l-108.9-.6v-6.4l-31.4,1.8-1.1,6.9-39.6-1.2-.7-6.9-34.3,1.2ZM1653.3,705.3v3.2l29.8-.6.3,17.4h-2.6l.4,19.9,16.3-.3-.2-6.9,24.2-.5.5,23.1H1716l.2,10.5-13.2.3.3,13.5h-6.5l.4,19.2-14.7.3v-5.4l-34.1.7-.8-38.1H1641l-.8-37.1h-6.3l-.4-19.4Zm-48.8,666.1.2,65.3-79.6.2v-65.3ZM675.4,124.7l-.5-21.2-16-.9-1.7-19.1,17.7,1.6-.5-22.4-17,.9-1.1-19.9,18.6-.6,1.1-22H660.9V2.5l36.4-.4,2.6,163.4-23.8,1.6V142.8l-17.6,1.8-2.5-21.1ZM902,61.8l75.7-1.2V76.2l12.7.7.6,15.2h40.8l1.1,40.6-4.8-.2h-3.3l.6,6.4-24.4.5-1.3-17.3,18.1-1.2-.6-11.6-25.1-.6-.6,8.2-8.2,1.7v5.2H956.6l.7-15.9,16.2-2.2V94.4l-24.4-.6v7l-5.8-.6-1.1,8.7h-2.5l-26.5.4L912,92.4h19.1l-.6-13.4-29.1-1.2ZM596.3,151.5l.6-23.3-20.4-.6V108.4l20.4,1.1.6-22.7-19.7-.7L577,67.7h19.8V45.5l-18.6.6.6-18H619l1.8,143.8-48.3.6-1.8-20.4Zm74.2,845.7.5,91.3-52.6.3-.6-91.3Zm762.7,477.1.2-65.8h57.1v78.3h-57.2ZM793.7,50.8l.7,14.4h41.8V79.7L879.9,81v39.6h-5.2V127l-30.8-.7.5-15.6,18,.6-.6-14-25-.6v7l-10.5,1.2v7l-23.8-2.5V96.2l18.6-1.7-.5-14.7H794.2v9.3L783,88.7v7l-23.8-.8v-15l9.3.6-1.2-11.7-16.8-.7L748,51.9Zm1052,1135.7v-13.3h19.2v-5.1h22.3v-7.6h18.5v5.1h19.7v13.2h4.1v17.9h-4.8v13.5h-6.5v6.7h-13.1v-1.5h-20.7v7.3h-17.7v1.4H1853v-6.8h-7.3v-13.6H1841v-17.4ZM861.2,203.3l22.2,1.2-1.8-16.3H863l1.2-25.6,40.8.6,1.8,123.9-26.2-.6.5-23.8-18.6-.6v-18l19.8-.6-.5-21.1-21,.6Zm118.2-26.8,2.3,121.7L956.6,297l.5-19.8-17.9-1.3-.6-18.6,19.1.7.6-21-17.5,1.1-1.1-20.5,18.6-1.7L957,196.3l-19.1-.8-.7-19.6ZM1253.2,67.9h34.7V177.3h-34.6Zm-466,120.3,19.9,1,.5-22-19.7-.7.5-16.7,39-1.7,2.9,122.8-24.4,1.6-1.2-24.4L788.4,247l.7-17.6,18.6-1.1L807,208l-19.8-1.8ZM613.9,918.9l.2,51.5-46.9.2v-18H534.5V919.1Zm648.8-17.3v39.3h14.9v52.2h-43.1V940.7h12.3V929.6H1230v-28ZM503.9,545.5l-4.4-1,13.2-19.8h18.6l-.3-5.2v-4.2h11.2v4l22-.5v17h-8.7v19.4H548l-.6,17.7h-3.5l.5,14.8H526.8l-.2-8.4h-7v-3.4h-7.1l-8.4-3.1,1.7-10.3-7-2ZM827.2,1793.9,954,1807.5l-2.4,22.1L824.8,1816ZM518.5,1901l44.4,4.4-3.1,31.2-7-.7-4.1,40.9-27.5-2.7,4.1-40.8-10-1Zm1080-674.8.6,34.6-68.3,1.2-.6-34.6Zm-397.4-1021h13v-8.7H1322v19l-120.9.2ZM661.9,737.8h-6.8l.2,22.7h-6.4l.2,17.4h10.8v19.6H649.1l.3,11.7H621.1l-.7-22.9h-6.9V772.3h-4.5V759.4h8.1l-.3-30.4h-3.4l-.2-14.8h-3.2V703.7h11.9l-.3-30.4h-3.4l-.2-15.5h-3.5V643.1l-.3-28.7h-3.6V598.9h-4.3V585.7l40.1-.4.2,25h4.8l.3,32.2h3.6l.2,18.8h10.6l.2,17.3h-7.2l.2,23.5h-7.8l.2,17.7h10.6ZM369.1,1896.1l42.2,2.3-1.7,31.1-11-.6-2,35.8-23.4-1.3,2-36.2-7.8-.4Zm582.6-66.5,2.4-22.1,1.3-11.4,54.1,6.1-4.3,37.9-54.1-6.1Zm-240,86.8,41.5,2.1-1.5,28.9-10.5-.5-1.8,35.2-24.3-1.2,1.9-36.7-6.8-.4Zm102.6,3,39.6,2.4-1.8,29.4-10.5-.6-1.4,23.3-29.1-1.8Zm484.2-84.5,46.6,2.3-4.1,39.6-44.8-2.3Zm-136-1570,22.5-.2v2.8l23.9-.2v15.5l.3,36.6h-18l-.3-37.2-28.3.2v9.6h-13l-.2-27.4Zm83,1546.7,40.8,2.9-1.2,43.6-41.3-4.1Zm-633.2,98.5,42.8,1.6-1.1,28-12-.5-.9,24.7-21.7-.8.9-24.7-9-.4ZM1577,1755.7l41.6,4.3-3.6,35.3-41.6-4.3ZM1277.5,264.5v2.8l24.3-.2.4,52.9-18.5.2-.3-37.5-28.3.2V264.7Zm-46,.3v2.8l23.6-.2v15.5l.3,37h-18l-.3-37.4-28.1.2V264.9Zm406.2,1590.6,25.1,4.2-1,6.1,2.7.4,1.4,2-1.6,9.7-2.1,1.4-2.6-.4-1.7,10.1,2.6.4,1.6,1.8-1.6,9.8-2,1.4-2.6-.4-.8,5.2-.2.7-15-2.5-10.2-1.8Zm12.5-92.2,40.3,5.8-4.7,32.7-40.3-5.9Zm-384.5-716.4v18.4l-69.1.4v-18.4Zm773.1,866.5,33.5,18.9-14.6,25.9-17.6-9.9-2.1,3.8-15.9-9ZM1159.7,125.5h20.9l.3,40.8h-21.1l-.2-23.5h-19.7V125.6Zm-74,.5h20.8l.3,40.8h-21.1l-.2-23.5h-19.7V126.1ZM1106,45.6l.3,39.8H1085l-.2-22h-19.7V45.9Zm74-.5.3,39.7L1159,85l-.2-22h-19.7V45.4ZM1159,85h21.3l.3,40.5h-20.9l-.2-22.7h-19.7V85.1Zm-74,.5h21.3l.3,40.5h-20.8l-.2-22.7h-19.7V85.6Zm815.7,1752.1,32.4,16.1-14.6,29.5-32.4-16.1Zm-815-1670.8h21.1l.3,39.8h-21v-22h-19.7V166.9Zm428.6,1595.3,4.1.2,1-11.5,33,2.5-2.5,33-10.7-.7-.2,1.3-2.5,4.1-5.4-.4-2.1-4.5.2-1.5-12.4-.9.7-11.4-3.7-.4ZM1159.7,166.3h21.1l.3,39.8h-21l-.2-22h-19.7V166.4Zm792.1,1698.3,27.4,15.6-18.5,32.5-27.4-15.6Zm-266.2,20.3,28,7.3-10,38.4-28-7.3Zm-603-91.3,32.8,2.5-2.7,33.8-32.8-2.6Zm114.2,12.7,29.6,2.3-2.6,33.6-8.6-.7-2.2,3.9-8.7-.7-1.5-4.1-8.6-.7ZM1042.3,258.6v7h-1l.2,20-37,.3-.2-27.1Zm71.9,6.7,35.5-.3.2,27.4-36.8.3v-6.9l-.2-20.5Zm-71.8.4,34.3-.3h.8l.2,20.7v6.3l-36.1.3v-7l-.2-20Zm71.7-7v6.6H1113l.2,20.5-35.5.3-.2-20.7h-.8V259ZM1567.4,1867l3.5-2.5,1.7.4,1.4-8.7,30.2,4.9-4.7,28.7-30.1-5,1.5-8.7-1.8-.3-2.5-3.6Zm-206.1-41.9,18.5,1.4-.5,6.4,6,.9-2.3,30.3-4.7-.5-.3,3.4-8.1-.5.2-3.5-11.6-1.2ZM1136,1774.9l33.2,1.2-2.3,27.4-31.4-1.7Zm321.6.8,25.1,1.7-2.4,34.5-25.1-1.8Zm-1.6,66.1h.7v.2l30.3,2.5v-.2h.7l-2.1,26.2h-.6v-.2l-30.3-2.5v.2h-.7Zm-348-96.6-1.2,33.8-22.7-.6-1.2-33.7Zm147.2-14.9,31.9,2.7-2.1,25-31.9-2.7Zm549.1,181.3-1.9-1.2-1.4-6.1,3.5-3.5,1.1.4,4.7-11.2,1.7.3,3-6.6,9.4,4.3-.8,2,6,2.4-1.3,4.6,2.3,1.1-8,20.1-2.9-.9-3.9,10.1-15.2-6.7Zm-87.1-135.1,30.2,7.5-5.9,24.2-30.2-7.4Zm-394.9-40.7,24.2,1.7-2.2,30.7-24.2-1.7Zm185.3,135.6,7.2.3.4-5.4,9.8.2.6-3.4,8.1.4-2.5,33.4-25.1-1.8Zm248.4-12.3,23.8,8.2-2.5,8.9,1.5.6-2.5,7.9-1.7-.4-2.9,8.2-24.2-7.6Zm-386.2-122.4,16.5,1.4-.9,11.2,7.6.9-.4,6.4,4.1.5-.6,8.4H1395l-.2,1.6-1.9-.2v1.6l-25.6-2.2Zm482.4,95.9,18.6,9.9-8.7,22.1-19.2-7.6Zm-287.7-11.7,25.4,2.3-1.6,18.4-25.5-2.3Zm325,2.6,11,5.5-14.6,29.7-11.1-5.5Zm-164.8,31.4,15,4.9-6.1,19.4-15.2-4.4Zm-22.7-82.8,10.7,2.4-5.8,24.7-10.9-2.6Zm-340,30.7,21.4,1.1v12.8l-22.1-1.2Zm270.9-32.6,11.7,1.9-3.4,20.5-11.7-2Zm6.9,135.1,15,2.5.2-.7,3.2.5-2.1,12.3-18.2-3.1Zm-6.2-80.8,9.2,1.5-2.9,17.4-9.2-1.5ZM1494.7,474.1v11.6h9.7v20.2h-23.8V563h-16.2v20h2.4v24.2H1432V588.6h-13.2v5.2h-25.2V563.6h13.6V550.1h-5.5V531h27.1v3.1H1445v-3.3h10.4v-25H1428V471.5h21.9V456.1h-11.7V441.5h30.2v15.6h16.5v-2.6h19.4v19.4h-9.6Zm644.8,54.3a30.1,30.1,0,0,1-60.1.3v-.3c0-.5.1-.9.1-1.3h-99.6v8.6H1847v-8.6H1616.4L1566,491.6l-1.6-1.2-1.4-1h.1a30.2,30.2,0,1,1,48.6-18.2h57.5v8.8H2084l34.7,20.1a29.8,29.8,0,0,1,11.3,6.5h.3a30.7,30.7,0,0,1,9.2,21.7Zm-226-71.7h-31.1V428.3H1910v-7.4h199.5v35.8h-27.3v-4.5H1913.6Zm-156.4,83.7h26.4v47.8H1593.6V540.4h27.2V547h136.3Zm-68.6-118.9H1556.8v-61h131.7Zm283,317.8h10.4v10.4h-10.4Zm-13.2,10.4V739.3h10.4v10.4Zm23.6,2.8v10.4h-10.4V752.5Zm-13.2,10.4h-10.4V752.5h10.4ZM654.2,1485.6l10.3.7.6-8,18,1.2-2.3,32,44.8,3.1-3.7,53.4-47-3.3,2.7-37.8-26.1-1.8Z" transform="translate(0.2 -2.1)"/>
  <polyline id="mauer" class="cls-13" points="43.2 1491.4 187.4 1546.8 336.3 2085.5"/>
  <g id="label">
    <polyline class="cls-14" points="2189.7 2021 2189.7 2056.2 1860.6 2056.2 1860.6 2021"/>
    <path class="cls-15" d="M1704.1,2031.1c4.4,0,8.5-1.5,9.3-5.3h4.2v31.9h-5.7v-22.5h-7.8Zm46.6,10.6c0,7.2-1.9,16.6-11,16.6s-11-9.3-11-16.6,1.9-16.6,11-16.6,11,9.4,11,16.6Zm-5.2,0c0-6.7-1.3-12.3-5.8-12.3s-5.8,5.6-5.8,12.3,1.3,12.3,5.8,12.3,5.8-5.6,5.8-12.3Zm30.5,0c0,7.2-1.9,16.6-11,16.6s-11-9.3-11-16.6,1.9-16.6,11-16.6,11,9.4,11,16.6Zm-5.2,0c0-6.7-1.3-12.3-5.8-12.3s-5.8,5.6-5.8,12.3,1.3,12.3,5.8,12.3,5.8-5.6,5.8-12.3Zm22.3-7.6h4.9v3.3h.1a7.7,7.7,0,0,1,7.2-3.9c2.9,0,5.6,1.2,6.6,3.9a8.5,8.5,0,0,1,7.4-3.9c5,0,7.9,2.2,7.9,7.9v16.3H1822v-13.8c0-3.7-.2-6.3-4.3-6.3s-5,2.3-5,6.3v13.8h-5.2v-15.1c0-3.2-1-5-4.1-5s-5.2,2.2-5.2,6.1v14H1793v-23.6Z" transform="translate(0.2 -2.1)"/>
  </g>
  <polygon id="here" class="startH cls-16" points="1265.2 1107.2 435.3 1123.6 505.3 1221.5 661.7 1369.3 851.1 1500.7 1185.5 1602.4 1408.1 1605.7 1296.3 1338.8 1265.2 1107.2"/>
  <g id="marker" class="startM">
    <path class="cls-17" d="M1075.5,1216.3a64,64,0,0,0-13.4-19.9A62.7,62.7,0,1,0,998,1300.2l6.8,22.4,7.1,23.4h11.9l7.1-23.4,6.8-22.4a62.7,62.7,0,0,0,39.6-79.3Z" transform="translate(0.2 -2.1)"/>
    <path class="cls-18" d="M1070.8,1227.3a54.7,54.7,0,1,0-66.4,66.4l8,26.5,5.4,17.7,5.4-17.7,8-26.5A54.7,54.7,0,0,0,1070.8,1227.3Z" transform="translate(0.2 -2.1)"/>
    <path class="cls-6" d="M1011.4,1240.5,989,1227.6l3.1-5.4,22.4,12.9v-25.9h6.3v25.9l22.4-12.9,3.1,5.4-22.4,12.9,22.4,12.9-3.1,5.4-22.4-12.9v25.9h-6.2v-25.9l-22.4,12.9-3.1-5.4Z" transform="translate(0.2 -2.1)"/>
  </g>
	
<script type="text/javascript"><![CDATA[

var svg = document.getElementById('abenteur');

svg.addEventListener("mouseover",function() {
  svg.getElementById('marker').setAttribute('class', 'openM');
  svg.getElementById('here').setAttribute('class', 'openH');
			},false);

svg.addEventListener("mouseout",function() {
  svg.getElementById('marker').setAttribute('class', 'closeM');
  svg.getElementById('here').setAttribute('class', 'closeH');
			},false);

    ]]></script>	
	
</svg>
