	<svg id="autostricht" xmlns="http://www.w3.org/2000/svg" xmlns:xlink="http://www.w3.org/1999/xlink" viewBox="0 0 2284 1119">
  <defs>
	
<style type="text/css">
	
	.st0{fill:#DDDDDD;}
	.st1{fill:#F8F8FF;}
	.st2{fill:none;stroke:#222222;stroke-width:6.2175;}
	.st3{fill:#222222;}
	.st4{fill:none;stroke:#222222;stroke-width:6.2175;stroke-dasharray:37.3054,24.8701;}
	.st5{fill:none;stroke:#222222;stroke-width:6;}
	.st6{opacity:0.8;fill:#F8F8FF;enable-background:new    ;}
	.st7{fill:#C04300;}
	.st8{fill:none;stroke:#C04300;stroke-width:13;stroke-miterlimit:10;}
	.st9{opacity:0.8;fill:#FFFFFF;enable-background:new    ;}
	
	.vis {
		transition-delay: 0.75s;
		transition-duration: 1s;
		transition-property: opacity;
		transition-timing-function: ease-out;
		opacity: 1 !important;
		}

    	.invis {
		transition-delay: 0.5s;
		transition-duration: 1s;
		transition-property: opacity;
		transition-timing-function: ease-out;
		opacity: 0 !important;
		}
	
	#text {
		opacity: 0;
		}
	
	/* Line: interaction and animation */
#here {
  fill: none;
  stroke: #c04300;
  stroke-miterlimit: 10;
  stroke-width: 13px;
  stroke-linecap: square;
  /* stroke-dasharray: 1080; */
  stroke-dasharray: 2700;
}
.startH { stroke-dashoffset: 2700; } /* 0 */
.openH {
  stroke-dashoffset: 2700;
  animation: draw 1.2s 0.2s forwards;
}
.closeH { animation: undraw 1.2s 0.2s forwards; }
@keyframes draw {
		to { stroke-dashoffset: 0; }
		}
@keyframes undraw {
		to { stroke-dashoffset: 2700; }
		}
	
	
	/* Marker: interaction and animation */
#marker, #u1, #u2, #u3 {
  transform-origin: 50% 100%;
  transform-box: fill-box;
  }
.startM { transform: scale(0); }
.openM {
  transform: scale(0);
  animation: pop .2s .7s forwards;
}
	.openU1 {
  transform: scale(0);
  animation: pop .2s 1.0s forwards;
}
	.openU2 {
  transform: scale(0);
  animation: pop .2s 1.3s forwards;
}
	.openU3 {
  transform: scale(0);
  animation: pop .2s 1.6s forwards;
}
	
.closeM { animation: unpop .2s .5s forwards; }
.closeU1 { animation: unpop .2s .7s forwards; }
	.closeU2 { animation: unpop .2s .9s forwards; }
	.closeU3 { animation: unpop .2s 1.1s forwards; }
	
@keyframes pop {
		to { transform: scale(1); }
		}
@keyframes unpop {
		to { transform: scale(0); }
		}
	
</style>
	  </defs>
		
  <title>autostricht</title>
<path id="grass" class="st0" d="M68.4,624.7l-45.1,1.7l-18-125.7l53.4-7.9l20.1,129.5l-4.6,2.4L68.4,624.7z M229.4,680.9l-3.7-93.5
	l-105.2,3.9l5.4,144.5l105.2-3.9L229.4,680.9z M902.3,252.5l23.2,0.9l0.3-8.6l-23.2-0.9L902.3,252.5z M197.1,1026.7l-87-68.2l-7.7,7
	l-0.7,0.3l-13.3-7.7l-10.4-0.7l-9.6-0.8l-8.2,0.7l-8.1,2.2l-9.5,7.5l-2.3,6.3l-1.8,9.7l1.8,39.2l4.7,20.8l54,43.6l6.6,15l20.6,16.6
	h53.3l50.6-65.4L197.1,1026.7z M488.2,1081.3l5.4,36.8h105.1l-6.5-50.6L488.2,1081.3z M977,980l-67.5,14.4l2,6.8l9.6,32.2l24.6,84.8
	h110.7l-32-148.9L977,980z M2278.7,867.9l4.3,21.9V867l-0.4,0.1L2278.7,867.9z M1144.3,1039.2l12.5,58.3l82.4-17.6l-12.5-58.3
	L1144.3,1039.2z M1351.5,1069.8l-12.6-65.3l-53.2,10.2l12.6,65.3L1351.5,1069.8z M931.6,158.3l-28.2,4.8l2.3,11.8l22.9-1.3
	L931.6,158.3z M2264.2,158.2l-1.1,0.3l-0.5,1.2l-0.7,1.1l-0.9,1l-1.1,0.7l-1.2,0.5l-1.2,0.3l-1.4,0l-1.3-0.2l-1.2-0.5l-1.1-0.7
	l-0.9-0.8l-49.6,11.6l-12.8,3.1l-65.3,15.2l-0.5,1.2l-0.7,1.1l-0.9,1l-1.1,0.7l-1.2,0.5l-1.2,0.3l-1.4,0l-1.3-0.2l-1.2-0.5l-1.1-0.7
	l-1-0.9l1.6,6.4l151.9-35.5L2264.2,158.2z M900.9,287.8l25.2-0.1l-0.2-19.2l-25.2,0.1L900.9,287.8z M1238.9,1026.8l13.4,65.7
	l41.3-8.5l-13.3-65.6L1238.9,1026.8z"/>
<path id="streetF" class="st1" d="M1599.3,1101.4c-0.5-3.3,2.1-6.4,5.4-6.9l37.8-5c3.4-0.3,6.6,2,6.9,5.2c0.4,2.8-1.1,5.4-3.6,6.5
	c-0.5,0.2-1.2,0.5-1.7,0.6l-37.8,5C1602.9,1107.3,1599.8,1104.8,1599.3,1101.4z M583.4,857.8c-6.1,0.9-11.1,4.7-13.8,9.7l-107.8,14
	c-2.8,0.3-5.3,1.8-7.1,3.9l-7.7,9.7c-0.4,0-1,0-1.4,0c-0.6,0.1-1,0-1.5,0.1l-31,3.3l-24,1.8c-1.9,0.1-4.1,0.6-5.9,1.4l-19.6,8.3
	c-2.5,1.1-4.6,2.6-6.4,4.6L335.8,938c-0.4,0.4-0.6,0.9-1,1.2l-46.9,60.8l-44.6,57.6l-47.6,60.5h47.6l29.1-37l44.6-57.8l46.4-60.2
	l18.1-19.6l13.1-5.6l21.5-1.7l13.7-1.5l26.4,183.4h38.3L465,910.8c-0.1-0.6-0.3-1.1-0.3-1.6c-0.1-0.3-0.1-0.6-0.2-0.9l5-6.1l100-13
	l30.9,229h37.2l-33-244.4C603.1,863.5,593.7,856.4,583.4,857.8z M1460.8,947.4c0.4,0,0.9-0.2,1.2-0.3c2.6-1.2,4.1-4,3.6-6.9
	l-13.8-64.4c-0.7-3.4-4-5.5-7.4-4.8c-3.4,0.7-5.5,4-4.8,7.4l13.8,64.4C1454.1,946.1,1457.4,948.1,1460.8,947.4z M68.4,1069.8
	c-4.7-3.8-11.4-3-15.2,1.6l-37.3,46.6h27.8l26.4-33C73.9,1080.4,73,1073.7,68.4,1069.8z M1646.8,1117c0.6-0.1,1.2-0.3,1.7-0.6
	c2.5-1.1,4-3.8,3.6-6.5c-0.5-3.3-3.8-5.8-7.1-5.3l-62.8,8.2l-4.3-26.6c-0.5-3.3-3.7-5.6-7.2-5.1c-3.3,0.5-5.7,3.7-5.1,7.2l4.8,29.9
	h68.1L1646.8,1117z M1846.9,1.7l4.7-1.7h-11.5C1841.8,1.9,1844.5,2.6,1846.9,1.7z M2038.6,11.7c1,0.1,2.1-0.1,2.9-0.5
	c2-0.9,3.4-2.9,3.6-5.2c0.1-2.6-1.4-4.9-3.6-6h-157L2038.6,11.7z M1845.8,108.3c1,1.3,2.6,2.2,4.2,2.3l62.7,6c1,0.1,2.1-0.1,3.1-0.6
	c2-0.9,3.5-2.7,3.6-5.2c0.5-3-2.1-6-5.4-6.5l-56.4-5.5c0.1-1.4-0.3-2.8-1-4.1L1843,75.1c-1.9-2.9-5.7-3.6-8.6-1.7
	c-2.9,1.9-3.6,5.7-1.7,8.6l12.2,17.8l-0.5,3.8C1844.2,105.3,1844.8,107,1845.8,108.3z M2106.8,40.7c1,0,1.9-0.1,2.8-0.4
	c2.1-0.9,3.6-3,3.7-5.4l1.4-34.9h-12.5l-1.3,34.3C2100.8,37.7,2103.5,40.7,2106.8,40.7z M2140.7,721.1l77.1,396.9h-38l-75.7-389.9
	l-229.4,44.1l-27,21.6c-1.3,1-2.6,1.7-4.1,2.4c-1.3,0.6-2.5,0.9-4,1.2l-107.7,21.4l53.9,299.2h-62.9l-2.3-12.9l-26.8,4.4
	c-3.3,0.5-6.7-1.8-7.2-5.1c-0.5-3.3,1.8-6.5,5.1-7.2l26.6-4.3l-0.3-1.5l-26.6,4.3c-3.3,0.5-6.5-1.8-7.2-5.1
	c-0.5-3.3,1.8-6.5,5.1-7.2l26.5-4.3l-43.6-242.6l-114.2-4.9c-1.8,0-3.5-0.2-5.2-0.6l1,34.2l7.6,14.9c0.3,0.7,0.5,1.2,0.6,1.9
	l10.2,66.4c0.3,1.6-0.1,3.4-1.1,4.6c-0.6,0.9-1.5,1.5-2.5,1.9c-0.5,0.2-1,0.4-1.7,0.6l-48.5,6.6c-3.3,0.5-6.5-1.8-7-5.2L1492.8,834
	l-1.6-17.8l-53.9-1.7l5.3,23.9c0.7,2.9-0.9,5.9-3.5,7.1c-0.3,0.1-0.8,0.4-1.2,0.3c-3.4,0.7-6.7-1.4-7.4-4.8l-6.1-27l-1.6-0.1
	l-245.6-3.1l-41.4,16.8c-4,1.6-8.2,2.4-12.6,2.2l-49.3-1.4c-0.2-0.1-0.4,0-0.6-0.1c-1.4-0.1-2.9-0.3-4.4-0.6c-0.5-0.2-1-0.1-1.5-0.3
	l-0.2-0.1l-13.3-3.4l64.9,280.6l2.7,13.4h-37.7l-1-5l-65.1-281.7c0,0,0,0-0.1-0.2l-3.7-16.9c-0.2-0.9-0.2-1.9-0.3-2.8l-187.3-11
	l-180.3,0.2l-145.1,0l-40.7,0.7l-100.1,4.7L116,816.9c-0.2,0.1-0.4,0-0.7,0.1L0,819.6v-62.3l113.9-2.5l132.1-5.8l-0.4-7.9L240.5,635
	c0-0.4,0-0.8,0.1-1.2l1.7-10.8c0-0.4,0.2-0.9,0.3-1.1l3-8.2c0.1-0.2,0.2-0.5,0.4-0.8l6.9-12.9l-2.4-34.2c-0.2-3.5,2.3-6.3,5.7-6.7
	c3.5-0.2,6.3,2.3,6.7,5.7l1.6,29.8l44.5-2.2l-2.6-32.5c-0.3-3.4,2.2-6.5,5.7-6.7c3.4-0.3,6.5,2.2,6.7,5.7l2.9,34.1
	c0.1,0.7,0.1,1.5-0.2,2.2l-0.9,2.9c-0.4,1.4-1.3,2.8-2.6,3.5l-3.1,2c-0.3,0.1-0.7,0.3-1,0.4c-0.7,0.3-1.4,0.4-2.1,0.5l-49.2,2.3
	l-5.9,11.1l-2.7,7.3l-1.4,9.7l4,82.7l7.3-7.6c0.5-0.6,1.2-0.9,1.8-1.4l11.5-5.5l0.2-0.1c0.8-0.4,1.6-0.5,2.5-0.5l154.2-7.2l29.5-5.4
	l10.9-3.4l-7.9-46.7c-0.4,0-0.4-0.4-0.5-0.6l-13.4-103l-30.4-246.5l-30.2,3c-3.4,0.3-6.5-2.2-6.8-5.6c-0.3-3.4,2.1-6.4,5.6-6.8
	l29.9-2.8l-0.7-5.6L383,0h37.5l40,292.3l12.1-0.2l17.9-6.4c0.7-0.3,1.4-0.4,2-0.3l21.8-0.2l0-0.4c0.4-2.6,2.2-4.7,4.9-5.3l10.8-2.2
	c3.4-0.7,6.5,1.4,7.3,4.8c0.7,3.4-1.4,6.7-4.8,7.3l-6.7,1.4l-1.9,14.3l0.8,7.1l11.5,1.4c3.4,0.5,5.9,3.5,5.4,6.9
	c-0.2,2.2-1.7,4.1-3.7,5c-1,0.4-2.1,0.5-3.3,0.5l-8.5-1l14.1,123.1l9.2,72.3c0.4,2.8-1.1,5.4-3.6,6.5c-0.5,0.2-1.2,0.5-1.7,0.6
	c-3.3,0.5-6.6-2-6.9-5.4l-9.3-72.5l-15-131l-0.8-7.1l-14.8,0.4c-0.6,0.1-1.4,0-1.9-0.3l-22.8-7l-10.7,0.2L490.8,543l12.1,91.1
	l11.5,67.6c0,0.4,0.2,0.9,0.2,1.3l2.8,27.5c0,0.4,0.1,0.7,0.1,1.1l0.3,6.9l127.8,0l181.3-0.1c0.6-0.1,1.2,0.1,1.8,0l197.6,11.6
	l14.7-6.3c1.6-0.7,3.4-1.3,5.3-1.8l21.1-4.8c1.1-0.3,2-0.3,3-0.3c1.1-0.1,2.2-0.4,3.2-0.4l51.6-0.8c3,0.1,6,0.3,9,1.1l41.7,11.8
	l248.3,3l92.1,2.9l29.1-14.9c4.6-2.4,9.7-3.5,14.8-3.4l101.3,2.3l22-386.3l-3.9,0.5c-1.1,0.1-2.1,0.1-3.2,0.3l-16.8-0.2
	c-0.2-0.1-0.6,0.1-0.8,0l-272.2-16.5l-16.4-0.6l-389.3-18.5c-0.2-0.1-0.4,0-0.6-0.1c-0.6-0.1-1.4-0.1-2.1-0.3
	c-0.6-0.1-1.1-0.3-1.6-0.5c-0.2-0.1-0.4,0-0.6-0.1l-3.7-1.1l-10.2,5.9l-13.9,1.5l-13.3-4.3l-10.3-9.4l-0.1-0.3l-61.4,1l-14,1.3
	l4.3,22.1l35.6,173.1c0.5,2.9-1,5.8-3.6,6.9c-0.3,0.1-0.8,0.4-1.2,0.3c-3.4,0.7-6.5-1.4-7.3-4.8L841,335.2l-4.7-24.9
	c-1.9-0.7-3.4-2.3-4.5-3.9l-6.2-0.2l0.4,17.7l38.8,179.7c0.3,1.6,0,3.5-1,4.8c-0.6,0.9-1.6,1.7-2.6,2.1c-0.5,0.2-1,0.4-1.6,0.5
	l-58.1,8.4c-0.4,0-0.8,0-1.2-0.1c-0.4,0-0.8,0-1.2-0.1c-0.4,0-0.7-0.3-1-0.5c-0.3-0.3-0.7-0.3-1-0.5c-0.3-0.3-0.5-0.6-0.8-0.8
	c-0.3-0.3-0.6-0.5-0.8-0.8c-0.1-0.3-0.3-0.7-0.4-1c-0.1-0.3-0.4-0.8-0.5-1.2l-30.3-184.5L564.7,327c-3.4-0.1-6.2-2.9-6.2-6.3
	c0.1-3.4,2.9-6.2,6.3-6.2l203.5,3.2c0.2-0.1,0.4,0,0.8,0l15.2,0.1l0.2,0.1l28.8,0.4l-0.3-18.4l-0.1-9l-49.5,1.7l-203.5-2.7
	c-3.4-0.1-6.2-2.9-6.2-6.3c0.1-3.4,2.9-6.2,6.3-6.2l202.6,2.9l55.5-2c1.7-0.2,3.2,0.6,4.5,1.7s2,2.7,2,4.4l0.2,9.4l6.6,0.2
	c1.9-2.4,4.5-4.1,7.9-4.5l21.8-2c0.4,0,0.6-0.1,1,0l56.9-0.4l0.1-4.8l5.7-12.8l8.9-7.9l-1.2-4.4c-0.1-0.7-0.3-1.5-0.4-2.2l-4.6-88.5
	l-10.9,1.1l-13.3-4.3l-10.4-9.3l-5.6-12.7l0.1-14l5.7-12.8l4.8-4.3L880.2,0h37.4l16.8,104.8l7.9,4.6l8.2,11.3l2.9,13.7l-2.8,13.7
	l-2.9,4.1c0.1,0.3,0.3,0.7,0.4,1c0.1,0.3,0.1,0.6,0.2,0.9c0,0.4,0.2,0.9,0.2,1.3l0.1,0.2l5.1,97.6l1.1,3.8l7.5,0.8l12.2,7l8.2,11.3
	l0.9,4.1l1.8,0.6l403.3,19l21.2,1.2l0.8-23.6l1.3-115.2c0.1-6,5-10.9,11-10.8c6,0.1,10.9,5,10.8,11l-1.2,115.4l-0.8,24.4l229.1,13.9
	l14.8,0.1l10.5-1.7L1708.4,0h62.5l-4.7,65.6l27.1,2.5c3.5,0.2,6,3.3,5.6,6.8c-0.2,2.2-1.6,4.3-3.6,5.2c-1,0.4-1.9,0.6-3.1,0.6
	l-26.9-2.4l-15.7,224.6l14.1-2.9l13-3l504.1-113.4l2.4-0.5v38.3l-512.1,115.2l-24.6,5l-2.2,32.9l-20.7,371.8l104.9-18.4
	c2.5-0.5,5.2-0.3,7.6,0.4l31.2,7.6l248.1-47.7l167.8-32.6v38L2140.7,721.1z M783.4,373.2l-3.2-29.3l-1.3-13.6l-2.6,0L783.4,373.2z
	 M814.3,331.1l-2-0.1l2.2,11.1l9.9,48.6c0.5,2.9-1,5.8-3.6,6.9c-0.3,0.1-0.8,0.4-1.2,0.3c-3.4,0.7-6.6-1.6-7.3-4.8l-9.9-48.6
	l-2.5-13.7l-8-0.2l1.1,11.9l5.1,47c0.3,2.8-1.2,5.3-3.7,6.4c-1.1,0.3-1.6,0.5-2.3,0.6c-2.1,0.1-4.1-0.8-5.3-2.2l18.4,112.4l45.5-6.6
	L814.3,331.1z M493.5,297.8l4.8,1.4l14-0.3l0.2-1.3l-18.9,0.1L493.5,297.8z M480.8,739.3l-0.2-5.4l-2.6-26.2l-1.6-8.5l-9.7,3.1
	c-0.2,0.1-0.5,0.2-0.7,0.1l-30.2,5.5c-0.2,0.1-0.2-0.1-0.4,0c-0.2,0.1-0.3,0.1-0.3,0.1l-153.5,7.3l-9.4,4.6l-8.2,8.6l-5.9,13.7
	l0.3,6.5l98.9-4.3l100.6-4.6c0.4,0,0.6-0.1,1,0L480.8,739.3z M1549.5,885.2l-7.7-15.5c-0.4-0.8-0.6-1.7-0.6-2.7l-1.3-40.6l-23.2-9.6
	l-13-0.4l1.4,15.9l17.4,116.8l36.1-4.8L1549.5,885.2z"/>
<path id="street" class="st2" d="M1522.6,949.4l-17.4-116.8l-1.4-15.9l13,0.4l23.2,9.6l1.1,40.7c0,1,0.2,1.9,0.6,2.7l7.8,15.4
	l9.1,59.2L1522.6,949.4z M917.3,0l16.8,104.8l7.9,4.6l8.2,11.3l2.9,13.7l-2.8,13.7l-2.9,4.1c0.1,0.3,0.3,0.7,0.4,1
	c0.1,0.3,0.1,0.6,0.2,0.9c0,0.4,0.2,0.9,0.2,1.3l0.1,0.2l5.1,97.6l1.1,3.8l7.5,0.8l12.2,7l8.2,11.3l0.9,4.1l1.8,0.6l403.3,19
	l21.2,1.2l0.8-23.6l1.3-115.2c0-6.1,5-10.9,11-10.8c6,0.1,10.9,5,10.8,11l-1.2,115.4l-0.8,24.4l229.1,13.9l14.8,0.1l10.6-1.8
	L1708.2,0 M1722.8,1118.1l-2.3-12.9l-26.8,4.4c-3.3,0.5-6.7-1.8-7.2-5.1c-0.5-3.3,1.8-6.5,5.1-7.2l26.6-4.3l-0.3-1.5l-26.6,4.3
	c-3.3,0.5-6.5-1.8-7.2-5.1c-0.5-3.3,1.8-6.5,5.1-7.2l26.5-4.3l-43.6-242.6l-114.2-4.9c-1.8,0-3.5-0.2-5.2-0.6l1,34.2l7.6,14.9
	c0.3,0.7,0.5,1.2,0.6,1.9l10.2,66.4c0.3,1.6-0.1,3.4-1.1,4.6c-0.6,0.9-1.5,1.5-2.5,1.9c-0.5,0.2-1,0.4-1.7,0.6l-48.5,6.6
	c-3.3,0.5-6.5-1.8-7-5.2L1492.8,834l-1.6-17.8l-53.9-1.7l5.3,23.9c0.7,2.9-0.9,5.9-3.5,7.1c-0.3,0.1-0.8,0.4-1.2,0.3
	c-3.4,0.7-6.7-1.4-7.4-4.8l-6.1-27l-1.6-0.1l-245.6-3.1l-41.4,16.8c-4,1.6-8.2,2.4-12.6,2.2l-49.3-1.4c-0.2-0.1-0.4,0-0.6-0.1
	c-1.4-0.1-2.9-0.3-4.4-0.6c-0.5-0.2-1-0.1-1.5-0.3l-0.2-0.1l-13.3-3.4l64.9,280.6l2.7,13.4 M1083.6,1118.1l-1-5.1l-65.1-281.7
	c0,0,0,0-0.1-0.2l-3.7-16.9c-0.2-0.9-0.2-1.9-0.3-2.8l-187.3-11l-180.3,0.2l-145.1,0l-40.7,0.7L359.8,806L116,816.7
	c-0.2,0.1-0.4,0-0.7,0.1L0,819.4 M195.6,1118.1l47.7-60.7l44.6-57.6l46.9-60.8c0.4-0.4,0.6-0.9,1-1.2l21.4-23.3c1.9-2,4-3.5,6.4-4.6
	l19.6-8.3c1.8-0.8,3.9-1.4,5.9-1.4l24-1.8l31-3.3c0.6-0.1,1,0,1.5-0.1c0.4,0,1,0,1.4,0l7.7-9.7c1.8-2.2,4.3-3.7,7.1-3.9l107.8-14
	c2.7-5,7.7-8.8,13.8-9.7c10.2-1.4,19.6,5.7,21,15.9l33,244.6 M15.8,1118.1l37.3-46.6c3.8-4.7,10.6-5.5,15.2-1.6
	c4.7,3.8,5.5,10.6,1.6,15.2l-26.4,33 M1770.3,0l-4.7,65.7l27.1,2.5c3.3,0.3,5.8,3.3,5.6,6.8c-0.1,2.4-1.6,4.3-3.6,5.2
	c-1,0.4-2,0.7-3.1,0.6l-26.9-2.4L1749,303l14.1-2.9l12.6-3.2l504.1-113.4l3.4-0.8 M420.6,0l40,292.3l12.1-0.2l17.9-6.4
	c0.7-0.3,1.4-0.4,2-0.3l21.8-0.2l0-0.4c0.4-2.6,2.2-4.7,4.9-5.3l10.8-2.2c3.4-0.7,6.5,1.4,7.3,4.8c0.7,3.4-1.4,6.7-4.8,7.3l-6.7,1.4
	l-1.9,14.3l0.8,7.1l11.5,1.4c3.4,0.5,5.9,3.5,5.4,6.9c-0.2,2.2-1.7,4.1-3.7,5c-1,0.4-2.1,0.5-3.3,0.5l-8.5-1l14.1,123.1l9.2,72.3
	c0.4,2.8-1.1,5.4-3.6,6.5c-0.5,0.2-1.2,0.5-1.7,0.6c-3.3,0.5-6.6-2-6.9-5.4l-9.3-72.5l-15-131l-0.8-7.1l-14.8,0.4
	c-0.6,0.1-1.4,0-1.9-0.3l-22.8-7l-10.7,0.2L490.8,543l12.1,91.1l11.5,67.6c0,0.4,0.2,0.9,0.2,1.3l2.8,27.5c0,0.4,0.1,0.7,0.1,1.1
	l0.3,6.9l127.8,0l181.3-0.1c0.6-0.1,1.2,0.1,1.8,0l197.4,11.7l14.7-6.3c1.6-0.7,3.4-1.3,5.3-1.8l21.1-4.8c1.1-0.3,2-0.3,3-0.3
	c1.1-0.1,2.2-0.4,3.2-0.4l51.6-0.8c3,0.1,6,0.3,9,1.1l41.7,11.8l248.3,3l92.1,2.9l29.4-14.6c4.6-2.4,9.7-3.5,14.8-3.4l101.3,2.3
	l22-386.3l-3.9,0.5c-1.1,0.1-2.1,0.1-3.2,0.3l-16.8-0.2c-0.2-0.1-0.6,0.1-0.8,0l-272.2-16.5l-16.4-0.6l-389.3-18.5
	c-0.2-0.1-0.4,0-0.6-0.1c-0.6-0.1-1.4-0.1-2.1-0.3c-0.6-0.1-1.1-0.3-1.6-0.5c-0.2-0.1-0.4,0-0.6-0.1l-3.7-1.1l-10.2,5.9l-13.9,1.5
	l-13.3-4.3l-10.3-9.4l-0.1-0.3l-61.5,0.7l-14,1.3l4.3,22.1l35.6,173.1c0.5,2.9-1,5.8-3.6,6.9c-0.3,0.1-0.8,0.4-1.2,0.3
	c-3.4,0.7-6.5-1.4-7.3-4.8L841,335.2l-4.7-24.9c-1.9-0.7-3.4-2.3-4.5-3.9l-6.2-0.2l0.4,17.7l38.8,179.7c0.3,1.6,0,3.5-1,4.8
	c-0.6,0.9-1.6,1.7-2.6,2.1c-0.5,0.2-1,0.4-1.6,0.5l-58.1,8.4c-0.4,0-0.8,0-1.2-0.1c-0.4,0-0.8,0-1.2-0.1c-0.4,0-0.7-0.3-1-0.5
	c-0.3-0.3-0.7-0.3-1-0.5c-0.3-0.3-0.5-0.6-0.8-0.8c-0.3-0.3-0.6-0.5-0.8-0.8c-0.1-0.3-0.3-0.7-0.4-1c-0.1-0.3-0.4-0.8-0.5-1.2
	l-30.3-184.5L564.7,327c-3.4-0.1-6.2-2.9-6.2-6.3c0.1-3.4,2.9-6.2,6.3-6.2l203.5,3.2c0.2-0.1,0.4,0,0.8,0l15.2,0.1l0.2,0.1l28.8,0.4
	l-0.3-18.4l-0.1-9l-49.5,1.7l-203.5-2.7c-3.4-0.1-6.2-2.9-6.2-6.3c0.1-3.4,2.9-6.2,6.3-6.2l202.6,2.9l55.5-2
	c1.7-0.2,3.2,0.6,4.5,1.7s2,2.7,2,4.4l0.2,9.4l6.6,0.2c1.9-2.4,4.5-4.1,7.9-4.5l21.8-2c0.4,0,0.6-0.1,1,0l56.9-0.4l0.1-4.8l5.7-12.8
	l8.9-7.9l-1.2-4.4c-0.1-0.7-0.3-1.5-0.4-2.2l-4.6-88.5l-10.9,1.1l-13.3-4.3l-10.4-9.3l-5.6-12.7l0.1-14l5.7-12.8l4.8-4.3L880.2,0
	 M512.3,298.9l0.2-1.3l-18.9,0.1l-0.2,0.1l4.8,1.4L512.3,298.9z M600.3,1118.1l-30.9-228.8l-100,13l-5,6.1c0.1,0.3,0.1,0.6,0.2,0.9
	c0.1,0.6,0.3,1.1,0.3,1.6l29.5,207.1 M2283.1,221.1l-512,115.2l-24.6,5l-2.2,32.9l-20.7,371.8l104.9-18.4c2.5-0.5,5.2-0.3,7.6,0.4
	l31.2,7.6l248.1-47.7l167.7-32.6 M466,702.3l-30.2,5.5c-0.2,0.1-0.2-0.1-0.4,0c-0.2,0.1-0.3,0.1-0.3,0.1l-153.5,7.3l-9.4,4.6
	l-8.2,8.6l-5.9,13.7l0.3,6.5l98.9-4.3l100.6-4.6c0.4,0,0.6-0.1,1,0l22.1-0.4l-0.2-5.4l-2.6-26.2l-1.5-8.2l-9.7,3.1
	C466.6,702.3,466.2,702.4,466,702.3z M0,757.3l113.5-2.5l132.1-5.8l-0.4-7.9L240.1,635c0-0.4,0-0.8,0.1-1.2l1.7-10.8
	c0-0.4,0.1-0.6,0.3-1.1l3-8.2c0.3-0.3,0.3-0.5,0.4-0.8l6.9-12.9l-2.4-34.2c-0.3-3.4,2.2-6.5,5.7-6.7c3.4-0.3,6.5,2.2,6.7,5.7l2,29.8
	l43.9-2.2l-2.6-32.5c-0.3-3.4,2.3-6.3,5.7-6.7c3.4-0.3,6.3,2.3,6.7,5.7l2.9,34.1c0.1,0.7,0.1,1.5-0.2,2.2l-0.9,2.9
	c-0.4,1.4-1.3,2.8-2.6,3.5l-3.1,2c-0.3,0.1-0.7,0.3-1,0.4c-0.7,0.3-1.3,0.6-2.1,0.5l-49.2,2.3l-5.9,11.1l-2.7,7.3l-1.4,9.7l4,82.7
	l7.3-7.6c0.5-0.6,1.1-1.1,1.8-1.4l11.5-5.5l0.2-0.1c0.8-0.4,1.7-0.6,2.5-0.5l154.2-7.2l29.5-5.4l10.9-3.4l-7.9-46.7
	c-0.1-0.2-0.1-0.6-0.1-0.7l-13.4-103l-30.4-246.5l-30.2,3c-3.4,0.3-6.5-2.2-6.8-5.6c-0.3-3.4,2.2-6.5,5.6-6.8l29.9-2.8l-0.7-5.6
	L382.8,0 M776.3,330.2l7,43l-3.2-29.3l-1.3-13.6L776.3,330.2z M2179.8,1118.1l-75.7-389.9l-229.4,44.1l-27,21.6
	c-1.3,1-2.6,1.7-4.1,2.4c-1.3,0.6-2.5,0.9-4,1.2l-107.7,21.4l53.9,299.2 M794.3,395.7c-0.5,0.2-1.2,0.3-2,0.5
	c-2.4,0.5-4.3-0.4-5.6-2l18.4,112.4l45.5-6.6l-36.4-169l-2-0.1l2.2,11.1l9.9,48.6c0.5,2.9-1,5.8-3.6,6.9c-0.3,0.1-0.8,0.4-1.2,0.3
	c-3.4,0.7-6.6-1.6-7.3-4.8l-9.9-48.6l-2.5-13.7l-8-0.2l1.1,11.9l5.1,47C798.3,392.2,796.8,394.6,794.3,395.7z M456.7,1118.1
	l-26.5-183.8l-13.7,1.5l-21.5,1.7l-13.1,5.6l-18.1,19.6l-46.4,60.2l-44.6,57.8l-29.4,37.4 M2283.1,693.3L2140.7,721l77.1,397.1"/>
<path id="build_1_" class="st3" d="M14.8,311.7l5.7,41.2l-12.8,1.7l0-1l-7.6,1v-41L14.8,311.7z M32.2,698.9l4.4,23.7l5.8,0.6l46.6-2
	l-2.1-28.2L83,671.4l-0.6-21.2L74,624.6l-5.7,0l-45.1,1.7l1.5,26.1l6.3,19.1L32.2,698.9z M430.3,1115.8l0.7-0.1l-0.1-0.6l2.8-3.4
	l0.6-0.5l-1.1-9.6l-0.6,0.1l-3.9-2.2l-0.1-0.6l-0.7,0.1l-3.8-28.6l0.7-0.1l-0.1-0.7l3.1-3.2l0.6-0.1l-1.3-10.1l-0.7,0.1l-3.5-2.6
	l-0.1-0.6l-1.1,0.1l-0.1-0.6l-6.1-57.7l-18.6,2L382,985.2l-20.6,25.9l11.2,8.8l5.5-6.2l6.2,4.7l0.8,7.9l-1.8,0.8l4.2,30.8l2.4-0.3
	l3.4,26.7l-2.3,0.2l0.6,4.5l-4.6,0.7l0.9,7.7l6.7-0.8l2.7,21.5h33.3l-0.2-1.1L430.3,1115.8z M483.5,944.5l4.3-0.5l2.1,15.8l-4.3,0.5
	l0.5,3.7l4.3-0.5l2.1,15.4l-4.5,0.6l0.5,3.7l4.5-0.6l2.1,15l-4.6,0.7l0.5,3.7l4.6-0.7l1.9,14.5l-4.7,0.5l0.5,4.3l4.8-0.7l2.2,15.6
	l-4.9,0.6l0.6,4.5l4.2-0.7l0.5,4.1l1,0.5l2.9,21.7l6.2,4.7l7.5-0.9l4.7-6.2l-0.7-7l7.3,5.8l-0.9,3.3l3.7,1.1l0.9-3.3l9.6-1.5
	l1.6,3.1l2.9-1.9l-1.9-3.5l6.3-7.9l1.3,8.7l5.3,4l7.2-1l5-6l-2.8-22.2l0.8-0.9l-0.6-3.7l4.1-0.6l-0.5-3.9l-4.8,0.7l-2-16l4.7-0.5
	l-0.5-3.7l-4.7,0.5l-1.9-14.9l4.6-0.7l-0.5-3.9l-4.7,0.5l-2-15.1l4.7-0.5l-0.5-3.7l-4.7,0.5l-2-15.1l4.7-0.5l-0.5-3.7l-4.6,0.7
	l-2.2-16l5.2-1.1l-0.5-3.9l-4.6,0.7l-0.5-4.3l-3.7,0.5l0.5,4.3l-8,1l-0.9-7.5l-4.7-3.4L531,922l-0.5-4.1l2.1-0.1l-0.5-3.7l-2.1,0.1
	l-0.5-2.5l-2.7,0.2l-0.2-0.9l-17.1,2.3l0.1,1.1l-3.3,0.5l0.3,2.4l-2.3,0.2l0.6,3.7l2.1-0.1l0.5,4.1l-6.2,0.8l-3.7,5.4l0.9,6.9
	l-7.6,1l-0.5-4.3l-4.1,0.5l0.6,4.5l-4.1,0.6L483.5,944.5z M974.7,342.4l-0.1,6.8l-3.1-0.2l-1.8,0l-32.7-1.4l-39.3-1.6l-0.6-1.9
	l-0.7-1.6l-1-1.3l-1.2-1l-1.3-0.6l-1.4-0.1l-1.5,0.3l-1.3,0.6l-1.3,1l-1.2,1.3l-0.7,1.9l-0.1,1.2l-24.9-0.7l-3.8-0.1l0.7,3.4
	l2.5,11.3l0.5,2.5l2.8,13.3l1.7,8.3l1.1,5.6l4.8,22.9l0.4,2.2l1.1,5.6l0.7,3.4l4.1-0.9l9.9-2l14.1-2.9l4.6,22l-1.9,0.6l0.3,1.5
	l-0.5,2.4l0.7,2.9l1.6,1.8l0.4,1.4l2-0.5l2,8.4l-9.3,2.2l2.3,10.6l-0.3,16.3l3.8,0.1l3.3,15.1l9-2l2.1,9.7l10.7-2.4l-0.1,1l23-4.9
	l-2.3-11l0.9-0.2l-10.6-50.5l-2.7,0.6l-7.4-37.9l-5.9-5.8l4.8-5.1l9.3,0.6l1.5,2.1l8,0.6l1.5-2l5.1,0.3l4.8,5.1l-4.4,5.1l10.3,48.4
	l21.1-4l-10.2-54.4l38-7l2.2,10.3l0,2.2l-0.8,2.3l-1.6,2.1l-1,1.6l-0.7,1.9l-0.9,4.1l-1,1.4l-0.9,1l-2.4,1.3l-1.8,1.6l-1.2,1.7
	l-1.2,2.3l-1.8,2.2l-1.8,1.2l-16.7,3.1l1.8,9.4l14.9-2.9l5.9,31.9l1.2,6.7l8.1-1.8l9.6-3.3l-2-5l1.2-0.5l5.7-2.7l2.6,4.6l8.3-5.3
	l6.4-5l-3.4-4l5.7-5.3l3.8,3.6l4.9-5.7l5.9-8.3l-4.5-2.7l3.7-6.8l3.6-8.7l4.9,1.8l2.5-7.8l1.8-9.7l-5.3-0.8l0.4-7.9l5.2,0.2
	l-0.7-10.3l-1.1-6.4l20.8-4.1l-1.3-6.5l-2.2-11.1l-42.6-2l-33.7-1.4l-32.1-1.3l0.1-6.8L974.7,342.4z M251.1,0h103.1l8.9,73.4
	l3.1,19.5l0.3,1.5l6.7,2.6l1.1,8.6l-5.8,4.3l2,15.2l1.3,9.7l2.1,16.6l6.7,2.6l1.2,8.5l-5.8,4.2l5,39.3l2.4,18.2l5.5,38.1l3.1,24.6
	l23.7,190.2l2.3,10.6l1.5-0.3l3.3,8l2.3,8.6l1.2,8.9l0,8.9l-1.1,8.6l-1.7,0.2l0.6,5.8l0.7,5l0.2,1.7l5.7-0.5l8.7,62.1l9.4,69.9
	l-12.9,18.5l-166.1,6.5l-7.9-8.1l-1.4-1.4l-0.2-9.8l1.8-1.6l-0.9-26.8l-0.7-22.5l-1.6-1.4l-0.2-9.8l1.4-1.6l4.4-0.2l-0.3-5l16.3-0.5
	l0.4,12l11.1-0.4l0.7,17l110.6-5l-0.3-3l-2.7-22.4l-2.4-26.3l-2.3,0.2l-1.2-10.3l2.2-0.4l-3.6-27.2l-19.9,2.3l-1.7-15l-0.9-9.5
	l-44.1-3.1l-0.8-5.8l-8.1,1.8l-0.2-0.1l-9,0.5l0.3,3l-21.6,2.7l-9.3,1.2l-0.3-2.8l-1.3,0.2l-2.7-23l1.7-0.2l-0.3-3l-4.7,0.5l-4.2-34
	l30.8-3.8l25.9-3.2l39.6-4.9l-2.2-17.3l-9.3,1.2l-4.4-34.7l10.9-1.3l-1.6-12.9l-39.6,4.9l-14.3,1.8l0.6,4.9l-31.5,3.9l-8.9-71.1
	l30.6-3.7l1.1,8.6l19.8-2.5l-0.5-3.3l27.2-3.4l-7.2-55.3l2.8-0.3l-4.8-37.1l-5.4-41.3l-2.5-20.3l-53.5,1.9l3.8,36.5l1.8,16.9
	l2.7,26.6l17.5-2.3l3.1,24.2l-0.3,0.1l-71,9.5l-103.6,13.9l-3,0.3l-6-44l-8,1l2.1,15L97.3,271l-1.7-30l-25.1,2.1l-2-35.2l-3.1,0.2
	L64,183.9l3.2-0.3l-2.1-29.6l-24,0.6l0,2.7l-41.2,1V0h85.5l1,19.3l1.3,53l-18.7,0l1.6,27.2L93,99.2l0.4,13.2l7.2,6.9l14-0.3l1,13.3
	l0.3,5.2l18.5-0.5l-1-38.6l-1.3-51.8l13,0l-0.4-28L143.5,0h42.9l0.6,17.2l0.8,53.6l-17.4,0.2l0.4,25.2l1,36.8l3.4,3.2l0.3,9.9
	l-3.2,3.4l0.5,24.2l-54.1,2.7l-0.4-4.5l-20.2,1.5l2.5,43l20.4-1.2l1.3,23.4l1.5,11.4l121.1-16.1l-0.5-4.7l-1.9-18.1l-4-38.8l3.9-0.1
	l-10.5,0.3l-8.3,0.3l-38.4,1.3l-0.6-16.5l38.3-4.2l8.3-0.9l9-0.2l-0.3-8.7l21.4-0.6l0.1,2.1l45.8-1.6l0.3,10.3l7.8-0.3l5.1-5.4
	l-0.4-13l-0.3-8.6l-0.4-11.5l-5.4-5.1l-7.6,0.2l0.3,8.7l-45.8,1.6l0.1,2.1l-21.4,0.6l-0.3-9.9l-8.7,0.3l-0.8-18.2l9.3,0L237,61.2
	l15.6,0L251.1,0z M50.6,123.1L50,100.3l-5.6,0.1L43.4,55L6.7,55.7l1.4,45.8l9-0.5l0.6,22.8L50.6,123.1z M316.3,489.3l-33.2,4.1
	l18.7-2.2L316.3,489.3z M681.1,1039.8l9.7-1.3l-3.8-30.8l1.3-0.2l-1.2-10.3l-1.3,0.2l-4-31.7l8.9-1.2l-3.7-28.9l8.4-1.1l-3.9-33.5
	l-8.8,1.1l-3.5-27l6.1-9.2l47.7,0.5l0.8-49.6l-89.6-1.8l-1,53.2l-16.2,2.1L640.4,971l9.6,72.7l9.9,74.3h30.7L681.1,1039.8z
	 M1954.8,947.8l-9.2,1.5l2.1,14l9.5-1.7L1954.8,947.8z M2147,1030.7l-13.3-66.8l-12.7-63.7l-13.2-66.2l-14.1-70.8l-5.1-3.5
	l-70.5,14.2l-14.5,2.9l-4.7-4l-9.5,2.1l-2.8,5.6l-19.2,3.8l-20.6,4.2l-4.1-3.9l-10.3,2l-2.7,5.4l-13.6,2.7l-58.7,12l-16.8,2.9
	l5.2,30l-14.1,2.5l-8.9,1.6l-0.9-4.7l-5.3,1l-2-11.1L1812,816l-41.7,7.3l17.2,98.1l4.8,27.8l11.7,68.1l2.6,14.8l0.3,1.5l13.6,78.1
	l1.1,6.5h50.2l-1.2-6.7l-13.3,2.4l-13.1-75.7l-1.8-10.2l-0.3-1.5l6-1.1l-2.6-14.8l4.4-0.8l-2.2-12l-14.1,2.5l-9.7-56.1l10.6-1.8
	l-12.8-73.7l5-0.8l28.9-3.7l-2.8-16.1l11-1.9l2.6,9.5l23.6-4.6l0.2,1.3l9-1.8l-0.2-1.3l25.4-5l2.6-1.3l11-2.3l0.5,1.6l8.1-1.6
	l-0.5-1.6l1.9-1.4l0.6-1.7l-0.5-2.5l7-1.5l2.6,13l-4,0.8l-1.2,2.1l1.3,6.5l-7.2,1.4l-1.4,2.2l2.6,14.2l-17.6,2.9l3.8,21.4l18.5-3.7
	l7.1-1.4l1.8,9l18.5-3.5l-1.7-9.3l8.9-1.8l-5.9-30.5l25.5-5l-2.2-10.8l-1.5-1.5l-4.7,0.9l-2.8-14.7l6.1-1.3l0.3,1.2l1.3,1.6l2.7,0.4
	l0.2,0.9l20.9-4l-0.2-1.9l29.2-5.3l5.3,3l4.5,24.4l-1.4,0.4l1.3,6.9l-2.4,4l-1.6,0.5l6.9,37.7l5.8,4.3l2.5,12.7l6.9-1.3l12.6,63.9
	l-88.8,17.8l4,22.3l73.4-14.4l3.1-3.6l5.7-1.3l4.8,26.4l-5.4,1.2l-3.5-1.8l-74.1,14.6l0.5,2.4l-16.5,3.2l3.3,20.4l89.3-17.2
	l3.5,19.9l5.3-1l1.7-6.3l4.6-0.8l6.7,34.6l5.8,29.5h44.6l-7.6-38.3L2147,1030.7z M2030.7,972.8l-20.6,3.6l2,10.2l20.2-3.7
	L2030.7,972.8z M96.4,1104.1l-10.4,14h36.2l-9.4-7.1l-2.8,3.8L96.4,1104.1z M477.6,244.4L446,0h74.4l2.4,19.1l51.4-6.7l7.2,54.5
	l-70.8,10l5.4,39.6l18.8-2.4l9.9,77.3l2.3-0.2l1.3,7.3l5.2-0.3l-0.7-8.7l66,1l0.5-11.8l40.6,0.5l0,4.5l12.7,0.3l-0.2,15.6l9.9,0.1
	l0.2-7.6l139.8,2.6l-4.4-38.4l17.9-3.2l-2.1-13.6l1.6-0.3l-5.9-42.7l-15.8,2.5l-2-10.3l1.5-1.9l1.4-0.4l-0.5-3.7l-1.3-7.9l-1.9-12.3
	l-8.1,1.2l-25.1,3.8l0,1.8l-2,2.6l-6.4,0.7l-2.4-1.1l-0.4-2.2l-31.5,4.9l4,26.2l1.2,7.5l0.4,2.6l-41,6.6l-0.5-2.9l-1.2-7.5l-4.8-25
	l-31.8,4.7l-3-21.9l1.1-0.3l-4.5-29.7l76.1-11.9l4.4,29.8l63.4-9.8l18.4-2.9L810.5,0h41l5.5,34.4l4.9,31.5l1.4,7.6l2.5,16.6
	l8.9,55.9l6.6,42l-1.7,28.1l-5.9,0.5l-0.7,37L665,249.5l-106.4-3.2l-3.1,0l4.6,37.4l4,37l5.4,33.9l29.4-3.8l0.2,2.3l134.3-17.3
	l19.9,153.6l-134,17.1l-18.5,2.3l-0.3-3l-36.3,5.1l-2.6-19.5l-2.8,0.4l-17.2-133.4l-5.9-38.6l-4.2-36.5l-4.5-37.6l-10.6-0.4
	l-2.2-3.6L477.6,244.4z M721.3,63.4l-1.3-8.7l-31.2,4.8l13.1-1.9l1.2,8.5L721.3,63.4z M375.7,828.3l-5.4-8.1l-7.7-4.1l-7.5-0.4
	L331,821l-224.5,3.5l1.1,15.4l-57.3,3.6l-0.4-4.5l4.4-0.2l-0.5-10.4l-26.9,0.5l0.7,10.5l5.1-0.1l0.1,3.9L0,844.3v44l110.4-2.9
	l-0.4-11.5l170.4-8.8l8.1,13.7L264,910.2l-7.2-5.1l-11.9,14.5l7.1,7.1l-17.2,23.4l-3.6-1.9l-8.6,7.6l-35.4-27.8l-6.5,7.6l-5.9-2.1
	l-12.5,15l4.5,5.7l-4.4,6.5l33.7,30.2l-5.7,10.2l38,29.6l100.1-127.7l50-61.4L375.7,828.3z M1748.1,645.8l3.2-0.3l0-1l-0.2-3.1
	l3.1-31.7l2.1-20.6l3.9-62.8l2.3-38.7l1.2-14.7l3-39.4l0.3-4.3l4-54.4l0.5-7.3l-2.8-0.5l1.3-14l15.3,0.7l-0.4,5.9l1.4,0l1.3-0.2
	l1.2-0.3l1.2-0.5l1-0.8l1-0.8l1,0.5l1.6,0.5l1.8,0.2l2.8-0.4l3.2-3l2.1-0.1l2.1,0.7l1.4,1.8l2.7-3.2l1.7-1.1l1.9-0.2l1.3,0.2
	l3.5,1.8l3.2-0.8l-0.5-2.1l11.2-2.4l0.5,2.1l4.1-1l4.6-1.1l56.2-13.1L2130,282l0.1,0.3l6.5,33l-27.3,5.8l6.7,24l-3.5,1.5l2,14.7
	l-35.2,8.1l-4.5-15l-4.1,1.4l-6.4-24.6l-5.8,1.2l-0.7-2l-68.1,15.6l0.1,3.9l-4,1.2l5.3,24.3l-4.1,0.9l3.1,15l-34.8,7.6l-3.2-15.1
	l-4.9,0.6l-6.3-26.2l-36.5,8.3l3,14.4l-14.6,3.5l-0.8-3.2l-6,1.5l0.2,1.7l-0.5,1l-0.9,1l-9.2,2.3l-0.9-0.2l-0.5-0.6l-0.4-2.2
	l-7.3,1.8l0.8,3.2l-14.6,3.5l-1.2-5.4l-9.9,3l-7.9,6.1l-5.3-8.5l-1-1.7l-1.6-1.4l-1.8-1l-1.9-0.7l-2.2-0.2l-5.8,0.6l0.1,0.7l0.1,0.7
	l-0.1,0.6l-0.3,0.7l-0.3,0.5l-0.6,0.5l-0.6,0.5l-0.7,0.3l-0.7,0.1l-0.7,0.1l-0.6-0.1l-0.7-0.3l-0.5-0.3l-0.5-0.3l-0.5-0.6l-0.3-0.7
	l-0.3-0.7l-2.9,2.4l-1.6,2.3l-1.1,2l-0.9,3.3l0,3.1l0.2,1.3l0.8,6.3l2,0.9l1.7,1.2l1.5,1.5l1.2,1.8l0.9,2l0.5,2.1l0.1,2.1l11.9,0.2
	l1,5.4l10.1-1.5l1.8,7.1l-0.2,7.6l1.3,0.2l43.6,1l25.3,0.6l16.2,0.5l4.6,23.3l-22.3-1.5l-0.8,14.5l1.9,0.3l-1.1,19.8l55.6,3.7
	l1,18.3l-16.9-1.7l-0.4,8.8l-14.7-0.8l-2.1,33.4l-1.9,0.1l-0.9,9.9l15.4,0.1l0.1-1.6l17.5-0.1l0.4,17.7l-61.3,1.6l10.4,59.4
	l-4.7,0.9l0.8,5.4l4.4,3.7l4.6-0.8l-0.1-1.1l11.9-2.1l0.1,1.1l5-0.8l3-4.7l-1.2-5.4l-5.7,0.5l-3-17l21.6-4.1l4.3,24.7l16.8-3.3
	l-0.8-4l17.2-3.5l14.3-2.8l0.9,4.3l16.1-3.2l-4.4-25.8l23.8-4.5l3.6,19.7l-4.9,1l0.9,6.1l45.5-9.4l-0.7-6.6l-4.1,0.9l-3-17.8l-2,0.3
	l-1.7-10.9l1.8-0.4l-3-15.6l2.9-0.5l-1-6.3l-23.7,4.4l-9.1-48.4l41.1-7.6l-2.4-12.5l21.2-4.5l7.4,37.5l10.6-1.9l1.8,1.4l3.2,17.1
	l-1.8,3l-5.1,1.3l8.3,43.2l-1.5,2.4l-3.9,0.9l1.9,9.6l5.8,3.7l10.7-2.4l-0.3-1.5l13.4-3.2l0.3,1.2l10-2.3l3.4-4.7l-1.7-9.5l-3.4,0.7
	l-1.7-1.2l-4.2-23.2l-1.6,0.3l-2-10.7l1.6-0.3l-2-11.1l-7.6,1.6l-2-1.3l-3.4-17.4l1-1.8l13.4-3l4.1-7.1l-2.2-12.6l-30.5,5.9
	l-10.4-52.7l68.1-15.1l25.6-15.1l12.6,28.5l-6.2,4.1l-16.3,12.1l-36.8,30.7l8.7-1.7l13.5-2.8l2.5,13.3l6.1,4.4l12.4-2.3l2.4,1.5
	l3.1,16.3l-0.9,2.8l-7.2,1.6l2.4,11.6l1.5-0.3l2,10.3l-1.5,0.3l4.5,22.2l-1.5,2.4l-3.3,0.7l1.4,9.4l5.8,4.1l11.2-2.2l-0.3-1.5
	l13-2.6l0.2,1.3l9.9-2l4.5-6.3l-2.7-1.7l-1.4-6.3l-3.1,0.6l-2.2-2l-4.8-22.5l1.2-0.3l-2.2-10.3l-1.1,0.3l-0.3-1.1l26.6-6.1
	l11.5,51.2l10.8-2.2l-0.5-2.5l7.2-1.6l0.5,2.5l2.9-0.6v48.2l-4.1,0.8l-7.6,1.6l-42.2,8.3l-42.4,8.4l-42.4,8.4l-42.2,8.3l-16.3,3.1
	l-53.6,10.6l-13.4,2.6l-8.7,1.7l0.7,3.4l-48.2,9.6l-0.7-3.4l-7.6,1.4l-30.2,6.1l-17.7,3.7l-11.7,2l-2.9,0.5l0.9,4.1l-28.7,5.9
	l-0.9-4.1l-1.1,0.3l-2.4,0.5l-2.5,0.5l-0.9,0.2l-1.1,0.3l0.8,4l-14.2,3l-0.8-4l-1.1,0.3l-13.3,2.8l-1.1,0.3l0.9,4.1l-48.2,9.8
	l-0.9-4.1l-1.1,0.3l-3.5,0.6l-7.9,1.3l0.5,4.1l-12.9,2.8l-0.7-13.1l3.8-0.3l-0.4-8.9l-0.2-3.6l-0.3-1.5l-3.6,0.2l-1.6-35.9l3.7-0.1
	l-0.3-1.2l-1-18.3l-3.2,0.3L1748.1,645.8z M1822.9,470.4l2.5,0.3L1824,492l1.4,0.1l47,3l1.4-19.9l2.9-2.4l0.7-13.1l-43.5-0.4
	l-10.5-0.1L1822.9,470.4z M1810.7,562.3l10.9,0.3l57.1,1.3l2.5-44l-56.6-6.8l-11-1.2l-1.6,28.3l2.2,0.2l-0.3,4.1l-2.2-0.2
	L1810.7,562.3z M1794.7,624l4.8-0.2l1.5-5.6l14.8-2.1l2.6,17.4l-0.3,0.1l1.3,15.8l-24.2,4.8l5.3,24.8l2.5,11.5l11.6-2.4l3.8-4.7
	l14.6-3l3.6,3.1l26-5.2l12.4-2.6l2.5-6.4l10.6-1.9l-7.4-40.6l-7.8-39.7l-52.3,1l-22.5,0.3L1794.7,624z M334.7,1108.6l-1.7-1.6
	l1.4-1.8L315,1090l-2.4,0.9l-7.8,9.6l-13.7,1.1l-12.3,15.9l0.7,0.7h56.7l-3.1-2.5l2.1-2.7L334.7,1108.6z M0,494.3l35.7-4.5
	l-3.2-24.2l121.8-15.8l3.2,24.2l38.4-5l-8.2-62.5l-73,9.5l-0.3-2.4l-52.7,6.8l0.3,2.4L0,430.9V494.3z M16.9,984.1l-0.7-20.7L0,964.2
	v20.6l12.7-0.3l4.4,9.1l1.6,29.4l19.5-1l-1.9-38.5L16.9,984.1z M808.7,1053.8l8.8-2.7l-13.9-45.4l-9.1,2.6L808.7,1053.8z
	 M1692.7,1103.3l-1.2-6.7l-1.1-7l-8.1-48.4l-10.8-64.7l-3.3,0.5L1648,856.5l-3.1-0.2l-2.7-16.7l-39.3-6.6l-43.3-0.5l-0.2,28l8,11
	l19.9,116.6l-31.9,4.9l5.1,30.1l5.4-0.8l1.1,7l-5.5,0.9l4.6,27.3l16.3-2.3l5.5,33.6l53-8l2.3,14.1l1.2,7.1l1.3,7.9l1.1,7l-6.8,1.1
	h55.2l-1.3-7.8L1692.7,1103.3z M2130.1,282.3l5.7,26.4l8.9-0.8l0.8,4.6l10.1-1.7l0.3,3.8l5-1.1l3.5,15.8l21.9-5.2l-1.1-3.4l21.1-5.2
	l-2.3-9.2l-1.3-5.9l3.3-1.1l0.9,4.3l10.9-2.5l-2.1-9.1l-1.6-8.5l10.3-2.4l10.8-2.6l1.3,6.9l1.8,7.7l9.9-2.4l10.8-2.6l0.9,3.9
	l15.5-3.7l-0.9-3.9l5.2-1.1l3.1-0.8v-36.9l-14.5,3.3l-7.2,1.6l-11.1,2.6l-9.5,2.2l-7.1-3.5l-4.6,6.4l-9.6,2.3l-10.3,2.4l-7.2-3.7
	l-4.6,6.4l-11.2,2.6l-12.9,3l-5.7,1.3l-8.6,2l-9.3,2.2l-6.9-3.6l-4.6,6.4l-8.4,2l0.2,0.9l0,0L2130.1,282.3z M846.5,1112.5l-0.2-1.3
	l-12.3,0.7l0.1,1.5l-10.1,0.7l-15.8,1.3l-1,1.6l-5,0.7l-1.8-4.5l-13.6,1.3l-0.6-3.1l-17.4,1.2l-3.7,2.4l-2,3h166.1l-1-12.3
	L846.5,1112.5z M961.8,123.8l10.4,64.7l11.5,71.1l80.5,3.5l39.5,1.6l49.1,2.3l35.4,1.6l0.3,2l9.9-1.6l9,0.3l0.2,1.9l9.4-1.4
	l10.2,0.4l75.6,3.5l61.3,2.7l-2-47.2l-27.5-1.6l0-3.9l-3.8-2.8l-7.5-0.4l-3,2.5l-0.5,4.2l-22-1.7l-1.1-9.6l-14.1-2.8l-1.9,5.4
	l-42.3,0.1l-3.2-6.8l-16,4.3l0.1,2.1l-38.5,5.5l-0.3-1.6l-16.2,3l-5.5-5.7l3.4-3.1l-2.5-13.1l1.6-0.5l-2-9.9l-1.2,0.3l-6.3-36.8
	l-21.7,4.3l-11.5-54.4l-19.9,4.3l24.7,101.5l2.8,0.1l-0.3,6.4l-20-1.6l-54.4-2.7l0.4,1.8l-6.5,1.3l-15.1-1.6l0.1-3.2l-8.3-1l-5-30.9
	l-6.5-32.9l18.1-1.9l4.3,0.4l2,7.2l2-0.7l-0.1-1.5l5.2-2.1l-0.5-2.1l10.3-2.6l1.6,0.9l3.6-0.4l5.2-2.1l1.3-2l7.3-1.3l0.7,2.4l4.4,0
	l1.7,4.2l11-1.9l-7.6-30.3l-39.4,8.4l-2.4-18.2l-1.4,0l-2.8-16.9l-13.7,1.9l0.1,1.1l-2.4,0.7l-2.4,1.7l-1.8,2.2l-1.4,3.6l-6-1.6
	l-1.5-9.6l2.7-0.6l1.3-1.6l-1.8-9.4l-1.9-1.7l-2.4,0.5l-1.6-8.9l4.6-4.2l2.7,2.9l2,1.1l2.3,0.8l2.4,0.1l2.4-0.5l0.3,1.2l20.4-2.4
	l1.6,1.8l8.8-1.1l1.5-2.4l30.6-3.7l-2.9-23.5l4.2-0.7l-3.4-23.5l-21.1,2.7l-0.4-1.8l-11.4,1.5l0.4,1.8l-43.5,5.7l-1.3,1.2l0.4,4
	l-3.2,0.4l-3.2,3.4l-4.6-3.7l2.9-3.3l-3.3-22.6l-1-0.8h-48l8.5,54.4L961.8,123.8z M2283.1,1099.1l-0.3-1.6l0.3-0.1v-16.6l-4.5-0.8
	l-2-9.8l1.8-0.4l-2-9.9l-2-9.9l8.8-1.8v-48.9l-3.1-15l-0.7,0.1l-12.8-62.1l-21.8,4.6l-8.5-41.3l10.1-2.1l-9.2-44.6l-9.4,2l-9.2-44.6
	l17.7-3.7l0.3,1.1l3.6-0.8l-0.7-3.4l-1.5,0.3l-0.3-1.6l14.1-2.9l2.8,13.7l-3.3,0.7l2,9.8l4,19.1l16.2-3.4l-4-19.1l-4.4-21.5l16-3.5
	l-1.1-5l-5.6-2.4l3.7-4.6l5.2-1v-46.3l-30.9,6.1l1.1,4.6l-3.3,0.7l0.3,1.6l-23.4,4.9l-0.7-3.8l1.5-0.3l-0.6-2.7l-34.1,7.1l0.5,2.5
	l1.2-0.3l0.8,3.6l-23.6,5l-0.3-1.5l-3.6,0.8l38.2,184.5l2.5-0.5l12.9,62.8l-3.4,0.7l3.2,15.5l3.1,15l0.5,2.9l6.9,34.6l0.7,3.8l1,4.9
	l6.4,32.2l2.4,11.8h40.7V1099.1z M2232.2,448.9l13.4,60.8l37.4-8.9v-64.2l-8.8,2.3L2232.2,448.9z M2278.7,867.9l4.3,21.9V867
	l-0.4,0.1L2278.7,867.9z M1233.3,1115.5l-11.7,2.5h12.3L1233.3,1115.5z M1099,511l46.8-3.6l-6.2-35.3l20.3-2.3l1.9,2.1l7.5-1.2
	l-0.1-2.9l11.5-1.6l-0.1,1.2l28.1-3.6l0.4,2.2l7.9-1.3l2,12.1l-7.9,1.3l8.2,49.5l0.5,2l68.5-11.1l3.6,23.2l-68.1,11.3l0.1,0.6
	l-37.4,3.6l-1.1-7.4l-9.3,0.4l-1.6-0.9l-0.6-4.1l-6.4,1.1l5.8,32.7l4.2,20.6l-16.4,1.7l7.4,42.4l8.4,47.7l18.3,0.4l0-3.1l14.1,0.2
	l0,3.1l13.7,0.2l0-3.1l15.7,0.3l0,3.1l14.1,0.2l0.2-0.9l-8.4-54l-4.6-18.3l-5.8-23.6l19.9-4.5l5.9,23.6l5.4,29.9l1.5-0.3l1.7,1.6
	l1.6,8.9l-1,2.2l-1.3,0.2l4.6,25l-7.5,4.5l3.3,5.2l31.3,0.9l1.8-6.1l-8.8-4.8l-4-24l-3.2-19.2l23-3.7l-3.7-20.2l19.5-3.1l2.1,13.6
	l0.9,0.2l9.7,52l-4.6,6.2l-4.4,0.8l0.7,5.6l17,0.1l1.7,1.6l0.2,2.7l16.4,0.6l-1.2-11.7l-4.2,0.3l-3.6-2.3l-4.7-34.1l-1.9-1.5
	l-0.9-6.9l1.5-2l-1.9-13.5l1-0.4l-2-15.1l21.5-3.4l-1.8-13.4l55.7-8.2l-3.3-28.8l17.4,0.6l3.8,30.8l5.3,36.4l-54.7,7.2l0.9,4.1
	l7.7,56.4l-2.4,3l3.4,5l37,0.7l-4.2-30.7l-3-23.1l17.9-2.6l3.1,23.4l4.7,36.3l6,0.1l11.4,0.3l14.9,0.3l0.1-4.8l8.8,0.2l1.4-50.1
	l-3.1,0l-15.6-0.2l-0.1-5.9l16.1-0.1l-24.2,0.1l-0.4-56l15.6,0l0.8-32.3l-3.9-2l-3.9,0l-2.9-3.4l-29.2-0.6l-11.6,2.2l-2.6-19.1
	l-0.7-5.2l-73.6,6.7l-5.9-43.5l24.5-2l1.6-2.1l9.4-0.6l1.9,1.7l14.8-1.7l-0.6-6.6l-1.7-18.1l-2.3,0.2L1399,449l2.3-0.2l-1.7-16.8
	l4.4-0.4l-3.6-18.9l-14.1-1.2l-0.1,2l-25.2-1.4l0.4-1l-19.1-1l-12.7-9.9l-11.9,16.7l3.8,2.8l-32.7,43.1l-8,1.2l3,20.1l4.1,27.5
	l-18.7,2.8l-3.8-28.1l-2.8-20.4l-3.7,0.5l-8-50.8l6.8-1.6l0.3-8.6l-20.7-0.9l-0.3,2.9l-1.9,2l-15.9-0.8l-1.8-1.8l0.1-3.2l-18-0.1
	l-7.5-44.9l73.3,3.1l70.7,3.1l75,3.1l45.8,1.9l50.8,2.1l34.8,1.7l42.3,2.1l60.5,2.3l5.2,6l-4.3,55.5l-2.5,34.8l-4.2,60.7l-3.6,52.6
	l-3.6,53l-2.3,0.1l0,9.7l-0.1,8.1l-1,0l-0.1,9.1l-0.1,8.3l3.4,0.1l-0.5,50.8l-0.2,19.2l-19.1-0.4l-62.1-1.6l0.1-3l-13.1-0.3l-0.1,3
	l-4-0.2l0.1-2.4l-45.4-1.1l-0.1,2.4l-11.8-0.3l0.1-2.4l-12.2-0.3l-2.6,0l0.3,2.4l-36.3-0.6l-37.8-0.8l-8.9-0.2l-5.7,4.5l0,1.4
	l-8-0.2l0-1.4l-5.2-4.6l-6.9-0.1l-5.7,0l-5.9,4l0,1.8l-8.4-0.2l0-1.8l-4.6-4.2l-8.5-0.2l-32.6-0.7l-33.7-0.6l-32.6-0.7l-7.3-0.1
	l-0.1,3.8l-13-0.4l0.1-3.8l-14.1-0.2l-23.4-0.4l-23.4-0.4l-6.8-0.1l-40.3-0.8l-47.1-1l-64.4-1.4l-38.2-0.8l-1.7-44.8l1.6-35.8
	l20.3-3.5l18.6-3.7l9.3,44.5l8,0.2l-0.1-2.9l5,0.1l0,2.7l16.7,0.3l12.7,0.3l3.1,0l-0.1-1.1l13.5,0.7l0.1,2.5l17.3,0l0.2-4l-2.2-0.2
	l-3.9-5.6l-1.8,0l-6.6-32.5l2.4-3.8l20.3-3.1l-12-59.9l-10.4,1.1l-3.5-40.2l5.3-0.6l-2.3-24.8l3.1-3.3L1099,511z M1593.2,578.1
	l-8.1-0.1l0.8-16.9l1.7-6.5l-7.9-2.6l-3.2-0.1l-12.3-0.2l-7.2,6l-7.4-5.6l-22.2-0.4l-1.7,6.5l-2.3,28.2l-9.3,0l0.2,24.3l2.3-0.1
	l0.1,9.6l-2.3,0.1l0.1,9.6l5.7,0l0-7.1l7.4-0.7l0-2.6l2.4-2.1l44.6,0.3l2.3,1.6l0.1,2.3l6.5-0.1l-1-34.2l10.6,0L1593.2,578.1z
	 M1581.6,414.4l4.4,0.2l-0.2,3.6l17.8,1.1l1.3-21.5l-22.3-1.3L1581.6,414.4z M1579.9,454.2l22.3,1.3l1.4-0.8l1.5-17.6l-21.1-1.5
	l-0.8,9.4l-2.2,0L1579.9,454.2z M1537.9,435l22.3,1.3l0.6-15.4l-3-3.2L1539,417L1537.9,435z M1452.4,470.4l71.7-0.9l0.1-0.2
	l-22.1,0.4l0.8-21.2l12.4,1.4l-0.3,2.1l2.5,2l6.5-0.1l0.2-5.2l-2.5-0.3l-1.4-1.8l0.6-23.5l6.2-4.3l0.4-4.3l-23.4-0.8l-2.4-0.1
	l-0.2,5.4l-12.8-0.4l0.1-5.6l-19.4-0.7l-0.2,5.4l-15-0.4l-1.2,31.9L1452.4,470.4z M1425.8,443.6l0.8,6.3l18.4-0.7l0.6-8.5l-2.9-2.6
	l0.7-17.5l-2.1-8.3l-25.4-0.8l4.7,32.4L1425.8,443.6z M1510.4,532.3l0.9-27.8l22.4,0.3l0,3.1l39.9,1.2l-0.4,5.7l9.7,0.6l0.5-9.1
	l13.8,1l1.4-19.5l-13.2-1.4l-0.4,2.6l-17.5-1.3l0,1.4l-44-0.2l0.2-5.4l-20.4,0.2l-0.4,5.3l-76.2,0l3.2,23.2l22.4,0.3l-0.7,7.8
	l18,0.7l3,10.7L1510.4,532.3z M1101.9,555.4l-18.5,1.9l1.5,22.4l2.1-0.1l3.6,20.1l2.1,0.8l1.4,7.6l-1.6,1.7l5.3,30.1l6.2,35.7
	l-4.8,0.7l2.8,16.1l27.1-5.1l0.3,1.6l11.8,0.9l0.1,2.3l16.6,0.9l-1.9-11l-3.6,0.4l-1.3-2.4l-4-22.7l3.3-0.7l-1.7-10.1l-26.1,4.3
	l-9.7-53.4l30.3-2.6l-3.8-21.4l16.4-1.7l-3.8-21.5L1101.9,555.4z M1795.6,30l2.1-29.9h46.3l-0.1,1.6l49.5,3.6l30.8,2.3l56.3,4.4
	l0.2-3.5l20.6,1.7l42.5,3.4l4.3-4.5l0.2-9.1h26l-1.1,45.4l-73.4-5.6l-19.1-1.4l-58.3-4.5l-14.6-1l0.1-1l-21-1.5l-0.9,1l-8.8-0.6
	l0.1-1l-21.1-1.5l-1.6-1.3l0-2.6l-14.8-1.5l-0.5,6.5l5.1,0.5l-0.3,3.3l-0.6,8l-0.1,2.8l-5.1-0.5L1838,50l15.4,1.4l-0.1-2.5l1.3-1
	l21.5,1.9l0.1-1l8.5,0.6l0.7,1.2l21,1.7l0.4-1l16.1,1.3l-0.4,4.3l13.8,1.4l-1.4,19.1l9.5,1.1l-1.5,19.8l-1.6,21.2l-0.9,0.2
	l-1.5,20.6l1,0l-3,39.9l-6.8,5.6l1.9,7l7.7-1.8l0.3,1.6l19.4-5.5l11.2-2.8l0.3-1.1l0.5-1.2l0.8-0.9l0.8-0.8l1.1-0.7l1.2-0.5l1.3-0.2
	l1.2,0.1l1.1,0.3l1,0.5l0.9,0.8l0.8,0.8l3.6-3.9l-2.8-12.1l-2.4,0.7l-1-0.9l1.1-17l-1.2-0.1l0.7-11.3l1.4,0l1.3-21.9l-1.4-0.1
	l0.9-15.8l10.7,0.6l0.6-13.3l14.1,0.8l0.6-8.1l18.3,1.7l-0.9,8.1l8.9,1l-1.5,17.6l-1.3-0.2l-1.5,41.8l-3.2,2l-0.6,5.4l-2.6,2.1
	l2.4,8.4l6.8-1.6l-0.5-2.1l9.6-2.7l-0.1-0.7l0.1-0.6l0.3-0.7l0.3-0.5l0.6-0.5l0.6-0.5l0.7-0.3l0.7-0.3l0.7-0.1l0.6,0.1l0.6,0.1
	l1.1-0.7l3.8,3.2l-1.4,2.6l21.5-4.8l0.2-5.2l2.5-0.5l24-5.7l8.1-11.5l-9.6-46.9l176.2-41l0.6,2.7l9.4,0v106.1l-12.8,2.9l-3.6,0.8
	l-2.4,0.5l-1.1,0.3l-0.5,1.2l-0.7,1.1l-0.9,1l-1.1,0.7l-1.2,0.5l-1.2,0.3l-1.4,0l-1.3-0.2l-1.2-0.5l-1.1-0.7l-0.9-0.8l-49.6,11.6
	l-0.2,1.3l-0.5,1.2l-0.5,1.2l-0.8,0.9l-1,0.8l-1.1,0.7l-1.2,0.3l-1.3,0.2l-1.3-0.2l-1.3-0.2l-1.3-0.6l-1.1-0.7l-0.8-1l-0.8-1
	l-65.3,15.2l-0.5,1.2l-0.7,1.1l-0.9,1l-1.1,0.7l-1.2,0.5l-1.2,0.3l-1.4,0l-1.3-0.2l-1.2-0.5l-1.1-0.7l-1-0.9l-5.7,1.3l-0.2,1.3
	l-0.5,1.2l-0.6,1.3l-0.8,0.9l-1,0.8l-1.1,0.7l-1.2,0.3l-1.3,0.2l-1.3-0.2l-1.3-0.2l-1.2-0.5l-1.1-0.7l-0.8-1l-0.8-1l-4.3,0.9
	l-3.2,0.8l-1.1,0.3l-5.9,1.4l-6.4,1.5l-2.5,0.5l-39.1,9.1l0.5,2l-0.2,0.9l-0.7,1.5l-1.6,1.7l-8.4,2l-1.4-0.1l-1.3-0.6l-1.2-1.3
	l-0.6-2.3l-1.8,0.4l-45.3,10.6l-58.7,13.8l4.9-76l1.6-26.1l2.5-41.9l1.2-20.4l-82-5.9l-0.2,3.1l-0.2,5.4l-0.3,6.4l-0.1,2l-3.5-0.2
	l-0.6,8.8l4.7,0.3l-1.6,20.4l-3.9-0.3l-0.8,10.2l16.8,1.8l7.1,0.6l5.6,6.9l-2.6,40.3l-1.9,33.9l6.6,41.4l-61.8,14.6l0.6,2.7
	l-16.5,3.8l-0.6-2.7l-4.4,3.5l-0.3,0.3l-0.3-0.3l-6.3-7.6l-0.3-0.3l0.3-0.3l4.3-3.7l-2.4-0.1l1.4-16.4l2.3,0.3l0.3-3.3l0.2-3.5
	l-4.9-0.4l1.9-24.1l4.7,0.5l0.7-9.6l2.4-33.7l2.2-29.7l-3.8-0.1l1-8.3l3.7-4l0.4-4.3l0.7-10.8l0.3-4.3l-3.7-3.1l0.5-9.9l4.1,0.3
	l1.1-13.9l0.7-8.2l0.4-5.3l0.1-2.4l2.1-29.5L1795.6,30z M2003.7,137.7l3.1-45l-0.5,7.3L2003.7,137.7z M1823.7,189.6l-0.1,5.6
	l-1.2,1.3l-0.7,10.9l8.2,0.7l-0.2,4.4l-6.7-0.4l-0.7,10.4l3.8,4.2l14.1,1.2l0.7-18.8l1.4-23.5l-6,3.3l-8.6-0.3l-2.7-3.5l-2.9,2.7
	L1823.7,189.6z M1626.4,21.1l-10.2-0.4l-0.2,1.8l-34.8-2.5L1583,0h-141.3l0,38.3l64.4,2.6l-1,26.6l21.8,1.2l1.3-31.7l-0.9,24.2
	L1559,64l0.1,1.9l1.3,1.2l8.2,0.7l1.3-1.2l0.3-1.5l38,2.6l1.4-0.8l0.2-3.1l9.3,0.2l-0.6,8.5l-1.2-0.1l-1.3,1.2l-0.6,12.1l0.6,0.9
	l1.2,0.5l-0.6,7.5l-8.7-0.9l-0.3-2l-1.2-1.4l-38-2.2l-0.3-1.6l-1.6-1.3l-7.2-0.3l-1.7,1.1l-0.1,1.6l-31.2-1.5l-0.4,9.7l-0.5,14
	l90,5.8l9.9,0.9l-0.1,2l-0.6,10.3l-4.5,76.8l-1.1,18.4l-73.3-4.1l-0.2,4l-23.9-1.4l-0.1-5.6l3.4-98l-81-2.7l-2,59l20.6,0.7l0.7-18
	l37.6,1.2l-2.1,57l-1,17.4l-8.3-0.5l0.1-1.6l-24.2-0.3l-0.5,11.8l-7.9-0.4l-0.2,4.8l-3.9-0.3l-0.5,13l3.9,0l-0.1,5l7.8,0.3
	l-0.5,10.5l-0.6,0.1l-0.3,4.7l52.8,2.4l2.4-2.2l1-2.2l-0.3-2.8l-2-2.3l-2.5-0.8l0.5-10.5l4.8,0.2l-0.2-0.5l12.9,0.8l-0.2,4.4
	l20.3,0.9l1.8-1.6l0.7-1.5l0.3-0.7l14.9-0.1l-0.2,4.8l13.9,0.7l0.3-4.7l21,1.1l0.2,4.4l20,0.8l1.8-1.4l0.9-1.2l0.2-1.3l24,0.8
	l1.2,0.1l1.9-0.6l1.6-0.9l1.5-1.5l1.2-1.7l0.7-2.1l2.5-35.2l-2.6-0.4l1-15.6l2-0.9l0.7-1.1l0.3-1.1l3.5-44.1l-2.5-0.3l0.9-16.2
	l0.4,0l1.6-1.3l0.8-1.7l0.6-10.5l-2.5-0.8l0.6-10.3l0.1-2l2.5-36.2l2.3-35.1l3.5-48.6H1628L1626.4,21.1z M749.5,817l-1.3,48.5
	l3.1,10.1l65.7,1.6l0.1,3.9l9.5,0.1l0.1,5.9l-4.5,0l0.2,47l4.5,0l0,5.7l-56-0.6l18.3,59.4l122.6,2.5l-2-6.8l-16-53.8l-18.5,0l0-3.5
	l-5.4-0.2l0.7-31.2l13.1,0.3l-10.2-34.1l-14.5-0.3l0.3-21.4l12.9,0.2l0.6-31l-29-0.5L749.5,817z M977.2,979.9l47.4-10.8l-18-79.6
	l-47.4,10.8L977.2,979.9z M1295.8,82l-3.9,0.5l-3.3,0.7l-3.7,0.6l4.5,47.8l1.6,17l3.6-0.4l3-0.3l3.6-0.4l58.2-6.5l-3.1-78l-22,1.9
	l-3.9-40.8l4.5-0.6l-0.7-7.8l-4.8,0.2L1327.9,0h-40.3L1295.8,82z M1254,829.7l-84,18.8l-19.4,4.3l-5.8-24.2l-51,11l32.6,147.6
	l6.5,31.4l112.5-23.9l-2.9-13.7l11-2.3l7.4-4.7l6-8.8l2-7l-0.8-4l12.1-2.4l-13.2-62.1l75.2-16.4l3.1,15l5.1-0.9l3.4,17.4l-4.6,1.2
	l5.5,25.7l4.7-0.9l3.5,16.8l-4.7,0.9l3,14.4l22.6-4.9l2.8,13.5l-4.5,1l3.1,14l4.5-1l3.6,16.1l-4.5,1l5.7,26l4.6-1.1l3.7,16.9
	l-4.6,1.1l3.1,14.6l24.1-5.2l-2.7-12.8l34.1-7.5l-19.7-90.1l-28.5,6.7l-2.1-9.1l9.8-2.4l-12.4-56.3l5.9-1.3l0.7,2.9l27.4-6.2
	l7.7-1.8l5.7-1.3l13.3-2.9l-1.3-5.5l11.6-2.6l-4.1-31.9l-4.2-0.1l-22.8,5.4l-6.9,1.7l-6.6,1.6l-28.5,6.7l0.5,2.4l-5.8,1.2l-4.3-19.4
	l-27.3,6.4l-0.6-2.7l-29.1,6.2l0.2,1.7l-74.9,15.7L1254,829.7z M1155.5,777.7l-90.6-5.6l-1,15.8l90.6,5.6L1155.5,777.7z
	 M1655.6,777.8h-90.8v15.8h90.8V777.8z M1821.3,758.9l-89.7,14.1l2.4,15.6l89.7-14.1L1821.3,758.9z"/>
<path id="train" class="st4" d="M655.4,765.6l-13.9-0.3l-21.7,1.3l-20.8,2.7l-20.3,4.5l-20.1,6.2l-20.3,7.6l-31.4,13.9l-20.1,10.1
	l-31.7,19.2l-39.8,29.7l-39.7,42.3l-38.4,38.5L208,1111 M1156,758.1l-483.9-12.5l-41.5-0.3l-19.4,2.1l-19.9,4.1L512.6,775l-19.4,8.2
	l-19.7,10.1l-14.8,9.7l-14.5,11.2L405,845.8l-38.3,43.4l-43.1,42.7l-135.9,179.3 M1623.2,767.8l142.8,1.2l21.6-2.3l20.2-4.2
	l13.6-3.9l13.4-4.9l19.2-9.1l18.2-10.8 M1155.3,795.5l-499.9-29.9 M2281.1,398.3l-68.2,34l-51.5,26l-16.6,12.3l-16,13.2l-68.8,67
	l-18.4,20.6l-20.8,27.2l-17.1,21.8l-13.6,15.9l-19.1,20.1l-20.4,19.3l-21.7,18.1l-30.3,22.7l-26.6,17.3 M1156,758.1l57.1,1.3
	l320.5,7.7l89.7,0.7 M1617.1,807.4l34.2-2l123.7-14.1l26.8-5.2l26.1-6.9l25.9-8.7l25.5-10.5l24.7-12.3l23.2-13.8l16.5-11.7
	l21.6-17.1 M2283.3,405l-31.3,15.6l-28.8,22l-20.6,12.3l-23.1,16.2l-16.6,13.1l-20.9,18.5l-19.3,20l-13.9,15.8l-13.2,16.3
	l-16.9,21.5l-80.6,94.5l-13.9,15.2l-19.3,18.6 M1617.1,807.4l-34-0.3l-49.5-3.2l-55.1-1.2l-323.2-7.2"/>
<g id="label_2_">
	<rect id="XMLID_686_" x="1748.1" y="965.9" class="st1" width="515.1" height="127.6"/>
	<path id="line_1_" class="st5" d="M2228.6,1009.4v38.7h-290.7v-38.7"/>
	<path id="_x31_00" class="st3" d="M1761,1018.1c4.8,0.1,9.4-1.6,10.2-5.8h4.7v35h-6.3v-24.7h-8.6V1018.1z M1812.7,1029.8
		c0,8-2.1,18.2-12.1,18.2c-10,0-12.1-10.3-12.1-18.2s2.1-18.2,12.1-18.2C1810.6,1011.6,1812.7,1021.8,1812.7,1029.8z M1807,1029.8
		c0-7.3-1.4-13.5-6.4-13.5c-5,0-6.4,6.2-6.4,13.5s1.4,13.5,6.4,13.5C1805.6,1043.2,1807,1037.1,1807,1029.8z M1841,1029.8
		c0,8-2.1,18.2-12.1,18.2c-10,0-12.1-10.3-12.1-18.2s2.1-18.2,12.1-18.2C1838.9,1011.6,1841,1021.8,1841,1029.8z M1835.3,1029.8
		c0-7.3-1.4-13.5-6.4-13.5c-5,0-6.4,6.2-6.4,13.5s1.4,13.5,6.4,13.5C1833.9,1043.2,1835.3,1037.1,1835.3,1029.8z M1860.7,1021.4h5.4
		v3.6h0.2c1.7-2.6,3.8-4.3,8-4.3c3.2,0,6.1,1.4,7.3,4.3c1.9-2.7,4.4-4.3,8.1-4.3c5.5,0,8.7,2.4,8.7,8.7v17.9h-5.7v-15.1
		c0-4.1-0.3-7-4.7-7c-3.8,0-5.5,2.6-5.5,6.9v15.2h-5.7v-16.6c0-3.6-1.1-5.5-4.6-5.5c-3,0-5.7,2.4-5.7,6.7v15.4h-5.7V1021.4z"/>
</g>
<g id="text">
	<g id="po">
		<polygon id="capB_1_" class="st6" points="1474.2,108 1474.2,216.2 1690,216.2 1719.2,266.9 1748.5,216.2 1963.5,216.2 
			1963.5,108 		"/>
		<polygon id="capR_1_" class="st7" points="1959.5,112.1 1478.2,112.1 1478.2,212.1 1692.3,212.1 1719.2,258.7 1746.1,212.1 
			1959.5,212.1 		"/>
		<path id="pots" class="st1" d="M1522.4,138.4h18c11.6,0,13.9,7.5,13.9,12.6c0,5-2.2,12.5-13.9,12.5h-10.8v15.6h-7.1V138.4z
			 M1529.5,157.7h10.4c3.2,0,7.1-1.6,7.1-6.7c0-5.4-3.2-6.7-7-6.7h-10.5V157.7z M1559.3,164.4c0-9,5.4-15.5,14.9-15.5
			c9.5,0,14.9,6.5,14.9,15.5c0,9.1-5.4,15.6-14.9,15.6C1564.7,179.9,1559.3,173.4,1559.3,164.4z M1582.5,164.4
			c0-5.1-2.6-10.4-8.4-10.4c-5.8,0-8.4,5.3-8.4,10.4c0,5.1,2.6,10.4,8.4,10.4C1580,174.8,1582.5,169.5,1582.5,164.4z M1592.6,149.7
			h4.9v-8.8h6.5v8.8h5.9v4.8h-5.9v15.7c0,2.7,0.2,4,3.1,4c0.9,0,1.8,0,2.7-0.2v5c-1.4,0.1-2.8,0.3-4.2,0.3c-6.8,0-8-2.6-8.2-7.5
			v-17.4h-4.9V149.7z M1620.6,169.7c0.3,3.8,3.2,5.1,6.7,5.1c2.5,0,6.7-0.5,6.6-3.9c-0.2-3.4-4.9-3.8-9.6-4.9
			c-4.8-1-9.5-2.7-9.5-8.7c0-6.4,7-8.4,12.3-8.4c6,0,11.5,2.5,12.3,9.1h-6.8c-0.6-3.1-3.1-3.9-6-3.9c-1.9,0-5.4,0.5-5.4,3
			c0,3.2,4.8,3.6,9.6,4.7c4.7,1.1,9.5,2.8,9.5,8.6c0,7-7.1,9.6-13.2,9.6c-7.4,0-12.9-3.3-13.1-10.3H1620.6z M1674.2,179.1h-6.2v-4
			h-0.1c-1.7,3.4-5.4,4.8-9.1,4.8c-9.3,0-13.8-6.9-13.8-15.7c0-10.7,6.3-15.3,12.8-15.3c3.7,0,7.8,1.4,9.8,4.6h0.1v-15h6.5V179.1z
			 M1659.6,174.8c5.8,0,8.3-5.3,8.3-10.4c0-6.5-3.1-10.4-8.2-10.4c-6.1,0-8.3,5.4-8.3,10.7C1651.5,169.8,1654,174.8,1659.6,174.8z
			 M1707.1,172.6c0,1.6,0.3,2.2,1.5,2.2c0.4,0,0.9,0,1.6-0.1v4.5c-1,0.3-3,0.7-4.1,0.7c-2.6,0-4.5-0.9-5-3.6
			c-2.6,2.5-6.7,3.6-10.2,3.6c-5.3,0-10.1-2.9-10.1-8.6c0-7.4,5.9-8.6,11.3-9.2c4.7-0.9,8.8-0.3,8.8-4.2c0-3.4-3.5-4-6.1-4
			c-3.6,0-6.2,1.5-6.5,4.7h-6.5c0.5-7.6,6.9-9.8,13.4-9.8c5.8,0,11.8,2.3,11.8,8.6V172.6z M1700.6,164.4c-2,1.3-5.1,1.3-8,1.8
			c-2.8,0.5-5.3,1.5-5.3,4.9c0,2.9,3.7,3.8,6,3.8c2.9,0,7.3-1.5,7.3-5.6V164.4z M1715.2,149.7h6.2v4.1h0.2c1.9-2.9,4.4-4.9,9.1-4.9
			c3.6,0,7,1.5,8.3,4.9c2.2-3,5-4.9,9.2-4.9c6.2,0,9.9,2.7,9.9,9.9v20.4h-6.5v-17.2c0-4.7-0.3-7.9-5.4-7.9c-4.4,0-6.3,2.9-6.3,7.9
			v17.3h-6.5v-18.9c0-4-1.3-6.2-5.2-6.2c-3.4,0-6.4,2.7-6.4,7.6v17.5h-6.5V149.7z M1771,166.1c0,4.6,2.5,8.7,7.9,8.7
			c3.8,0,6-1.7,7.2-4.9h6.2c-1.4,6.4-6.9,10-13.3,10c-9.2,0-14.4-6.4-14.4-15.5c0-8.4,5.5-15.6,14.3-15.6c9.3,0,15,8.4,13.9,17.2
			H1771z M1786.2,161.8c-0.2-4.1-3-7.8-7.4-7.8c-4.5,0-7.6,3.4-7.8,7.8H1786.2z M1798.8,149.7h6.1v5.7h0.1c0.7-3.1,4.6-6.5,8.6-6.5
			c1.5,0,1.9,0.1,2.5,0.2v6.3c-0.9-0.1-1.9-0.3-2.8-0.3c-4.4,0-8,3.6-8,10.1v14h-6.5V149.7z M1842.5,165.6c0,6.3,4.6,8.7,10.3,8.7
			c6.3,0,8.6-3.1,8.6-6.2c0-3.1-1.7-4.4-3.4-5c-2.9-1.1-6.6-1.8-12.1-3.4c-7-1.9-9-6.1-9-10.3c0-8.2,7.5-12,14.9-12
			c8.5,0,15.6,4.5,15.6,13h-7.1c-0.3-5.2-3.9-7.2-8.8-7.2c-3.3,0-7.5,1.2-7.5,5.3c0,2.9,1.9,4.4,4.8,5.2c0.6,0.2,9.6,2.5,11.7,3.1
			c5.4,1.6,7.9,6.2,7.9,10.4c0,9.1-8.1,12.8-16.2,12.8c-9.3,0-16.8-4.4-17-14.5H1842.5z M1872.1,149.7h4.9v-8.8h6.5v8.8h5.9v4.8
			h-5.9v15.7c0,2.7,0.2,4,3.1,4c0.9,0,1.8,0,2.7-0.2v5c-1.4,0.1-2.8,0.3-4.2,0.3c-6.8,0-8-2.6-8.2-7.5v-17.4h-4.9V149.7z
			 M1895.2,149.7h6.1v5.7h0.1c0.7-3.1,4.6-6.5,8.6-6.5c1.5,0,1.9,0.1,2.5,0.2v6.3c-0.9-0.1-1.9-0.3-2.8-0.3c-4.4,0-8,3.6-8,10.1v14
			h-6.5V149.7z M1911.6,171.4h7.9v7.7h-7.9V171.4z"/>
	</g>
	<g id="ge">
		<polygon id="capB_2_" class="st6" points="199.8,60.6 199.8,168.8 400.6,168.8 429.8,219.5 459.1,168.8 659.1,168.8 659.1,60.6 		
			"/>
		<polygon id="capR_2_" class="st7" points="655.1,64.7 203.8,64.7 203.8,164.7 402.9,164.7 429.8,211.3 456.7,164.7 655.1,164.7 		
			"/>
		<path id="gent" class="st1" d="M282.4,131.8h-4.6l-1.1-4.8c-3.8,4.3-7.3,5.8-12.3,5.8c-12.2,0-19.5-9.7-19.5-21.3
			s7.3-21.3,19.5-21.3c8.9,0,16.4,4.7,17.4,13.9h-7c-0.7-5.4-5.4-8.1-10.5-8.1c-8.7,0-12.4,7.7-12.4,15.5s3.6,15.5,12.4,15.5
			c7.3,0.1,11.3-4.3,11.4-11.2h-10.8v-5.4h17.3V131.8z M295.5,118.7c0,4.6,2.5,8.7,7.9,8.7c3.8,0,6-1.7,7.2-4.9h6.2
			c-1.4,6.4-6.9,10-13.3,10c-9.2,0-14.4-6.4-14.4-15.5c0-8.4,5.5-15.6,14.3-15.6c9.3,0,15,8.4,13.9,17.2H295.5z M310.6,114.4
			c-0.2-4.1-3-7.8-7.4-7.8c-4.5,0-7.6,3.4-7.8,7.8H310.6z M323.2,102.3h6.2v4.3l0.1,0.1c1.9-3.2,5.3-5.2,9.2-5.2
			c6.4,0,10.4,3.4,10.4,10v20.2h-6.5v-18.5c-0.1-4.6-1.9-6.6-5.8-6.6c-4.3,0-7.1,3.4-7.1,7.8v17.4h-6.5V102.3z M354.1,102.3h4.9
			v-8.8h6.5v8.8h5.9v4.8h-5.9v15.7c0,2.7,0.2,4,3.1,4c0.9,0,1.8,0,2.7-0.2v5c-1.4,0.1-2.8,0.3-4.2,0.3c-6.8,0-8-2.6-8.2-7.5v-17.4
			h-4.9V102.3z M377.2,91h6.5v15.1h0.1c1.6-2.7,5-4.7,8.8-4.7c6.4,0,10.4,3.4,10.4,10v20.2h-6.5v-18.5c-0.1-4.6-1.9-6.6-5.8-6.6
			c-4.3,0-7.1,3.4-7.1,7.8v17.4h-6.5V91z M411.2,91h6.5v6.2h-6.5V91z M411.2,102.3h6.5v29.5h-6.5V102.3z M426,102.3h6.2v4.3l0.1,0.1
			c1.9-3.2,5.3-5.2,9.2-5.2c6.4,0,10.4,3.4,10.4,10v20.2h-6.5v-18.5c-0.1-4.6-1.9-6.6-5.8-6.6c-4.3,0-7.1,3.4-7.1,7.8v17.4H426
			V102.3z M464.9,118.7c0,4.6,2.5,8.7,7.9,8.7c3.8,0,6-1.7,7.2-4.9h6.2c-1.4,6.4-6.9,10-13.3,10c-9.2,0-14.4-6.4-14.4-15.5
			c0-8.4,5.5-15.6,14.3-15.6c9.3,0,15,8.4,13.9,17.2H464.9z M480,114.4c-0.2-4.1-3-7.8-7.4-7.8c-4.5,0-7.6,3.4-7.8,7.8H480z
			 M492.6,102.3h6.1v5.7h0.1c0.7-3.1,4.6-6.5,8.6-6.5c1.5,0,1.9,0.1,2.5,0.2v6.3c-0.9-0.1-1.9-0.3-2.8-0.3c-4.4,0-8,3.6-8,10.1v14
			h-6.5V102.3z M536.4,118.2c0,6.3,4.6,8.7,10.3,8.7c6.3,0,8.6-3.1,8.6-6.2c0-3.1-1.7-4.4-3.4-5c-2.9-1.1-6.6-1.8-12.1-3.4
			c-7-1.9-9-6.1-9-10.3c0-8.2,7.5-12,14.9-12c8.5,0,15.6,4.5,15.6,13h-7.1c-0.3-5.2-3.9-7.2-8.8-7.2c-3.3,0-7.5,1.2-7.5,5.3
			c0,2.9,1.9,4.4,4.8,5.2c0.6,0.2,9.6,2.5,11.7,3.1c5.4,1.6,7.9,6.2,7.9,10.4c0,9.1-8.1,12.8-16.2,12.8c-9.3,0-16.8-4.4-17-14.5
			H536.4z M565.9,102.3h4.9v-8.8h6.5v8.8h5.9v4.8h-5.9v15.7c0,2.7,0.2,4,3.1,4c0.9,0,1.8,0,2.7-0.2v5c-1.4,0.1-2.8,0.3-4.2,0.3
			c-6.8,0-8-2.6-8.2-7.5v-17.4h-4.9V102.3z M589,102.3h6.1v5.7h0.1c0.7-3.1,4.6-6.5,8.6-6.5c1.5,0,1.9,0.1,2.5,0.2v6.3
			c-0.9-0.1-1.9-0.3-2.8-0.3c-4.4,0-8,3.6-8,10.1v14H589V102.3z M605.5,124.1h7.9v7.7h-7.9V124.1z"/>
	</g>
</g>
<polygon id="here" class="startH st8" points="918,483.5 475.5,504.6 416.9,689.6 215.6,687.2 271.8,841.8 1213,848.8 1156.8,720 
	913.3,708.3 "/>
<g id="marker" class="startM">
	<path id="XMLID_12_" class="st9" d="M879.9,383.3c-3.2-7.4-7.7-14.2-13.4-19.9c-18-18-45.2-23.3-68.7-13.4
		c-31.9,13.5-46.8,50.3-33.3,82.2c7,16.6,20.8,29.3,37.9,35l6.8,22.4l7.1,23.4h11.9l7.1-23.4l6.8-22.4c32.8-11,50.6-46.5,39.6-79.3
		C881.1,386.3,880.5,384.8,879.9,383.3z"/>
	<path id="XMLID_11_" class="st7" d="M875.2,394.3c-7.4-29.3-37.1-47-66.4-39.6c-29.3,7.4-47,37.1-39.6,66.4
		c4.9,19.5,20.1,34.7,39.6,39.6l8,26.5l5.4,17.7l5.4-17.7l8-26.5C864.9,453.3,882.6,423.5,875.2,394.3z"/>
	<path id="XMLID_1_" class="st1" d="M815.8,407.6l-22.4-12.9l3.1-5.4l22.4,12.9v-25.9h6.3v25.9l22.4-12.9l3.1,5.4l-22.4,12.9
		l22.4,12.9l-3.1,5.4L825.2,413v25.9H819V413l-22.4,12.9l-3.1-5.4L815.8,407.6z"/>
</g>
<g id="u1" class="startM">
	<path id="XMLID_57_" class="st9" d="M1165.9,661.5c-3.1-7.2-7.5-13.8-13-19.3c-11.4-11.4-26.8-17.8-42.9-17.8
		c-8.1,0-16.2,1.6-23.7,4.8c-7.2,3.1-13.8,7.5-19.3,13c-23.7,23.7-23.7,62.2,0,86c6.7,6.7,14.8,11.7,23.7,14.7l6.6,21.7l6.9,22.6
		h11.5l6.9-22.6l6.6-21.7c17.5-5.8,31.3-19.3,37.7-36.5C1172.2,691.8,1171.8,675.7,1165.9,661.5z"/>
	<path id="XMLID_55_" class="st7" d="M1161.3,672.1c-2.3-9.3-7.2-17.7-13.9-24.5c-9.9-9.9-23.4-15.5-37.5-15.5
		c-29.3,0-53,23.7-53,53c0,24.2,16.5,45.4,40,51.4l7.8,25.7l5.2,17.1l5.2-17.1l7.8-25.7C1151.3,729.3,1168.5,700.5,1161.3,672.1z"/>
	<g id="XMLID_4_">
		<path id="XMLID_5_" class="st1" d="M1098.9,655.2c-0.5,0-0.8,0-1.1,0c-4.4,0-8.9,0-13.3,0c-1.1,0-1.1,0-1.1,1.1
			c0,13.3,0,26.7,0,40c0,1.8,0.1,3.5,0.3,5.3c1,7.6,4.8,13.4,11.6,17c8,4.2,16.4,4.5,24.9,1.7c5.4-1.8,9.8-4.9,12.8-9.9
			c2.4-4,3.3-8.4,3.3-13c0-13.8,0-27.6,0-41.4c0-0.8-0.3-0.9-1-0.9c-4.6,0-9.2,0-13.7,0c-1.1,0-1.1,0-1.1,1.2c0,13.1,0,26.2,0,39.2
			c0,1.9-0.2,3.9-0.5,5.8c-0.7,3.5-2.7,6.1-6.3,7.1c-1.8,0.5-3.6,0.6-5.5,0.4c-4.3-0.4-7.2-2.6-8.3-6.8c-0.5-2-0.8-4.2-0.8-6.3
			c-0.1-13.2,0-26.3,0-39.5C1098.9,656,1098.9,655.7,1098.9,655.2z"/>
	</g>
</g>
<g id="u2" class="startM">
	<path id="XMLID_17_" class="st9" d="M1665.9,662.6c-3.1-7.2-7.5-13.8-13-19.3c-11.4-11.4-26.8-17.8-42.9-17.8
		c-8.1,0-16.2,1.6-23.7,4.8c-7.2,3.1-13.8,7.5-19.3,13c-23.7,23.7-23.7,62.2,0,86c6.7,6.7,14.8,11.7,23.7,14.7l6.6,21.7l6.9,22.6
		h11.5l6.9-22.6l6.6-21.7c17.5-5.8,31.3-19.3,37.7-36.5C1672.2,692.9,1671.9,676.9,1665.9,662.6z"/>
	<path id="XMLID_9_" class="st7" d="M1661.4,673.3c-2.3-9.3-7.2-17.7-13.9-24.5c-9.9-9.9-23.4-15.5-37.5-15.5c-29.3,0-53,23.7-53,53
		c0,24.2,16.5,45.4,40,51.4l7.8,25.7l5.2,17.1l5.2-17.1l7.8-25.7C1651.4,730.5,1668.6,701.6,1661.4,673.3z"/>
	<g id="XMLID_6_">
		<path id="XMLID_7_" class="st1" d="M1599,656.4c-0.5,0-0.8,0-1.1,0c-4.4,0-8.9,0-13.3,0c-1.1,0-1.1,0-1.1,1.1c0,13.3,0,26.7,0,40
			c0,1.8,0.1,3.5,0.3,5.3c1,7.6,4.8,13.4,11.6,17c8,4.2,16.4,4.5,24.9,1.7c5.4-1.8,9.8-4.9,12.8-9.9c2.4-4,3.3-8.4,3.3-13
			c0-13.8,0-27.6,0-41.4c0-0.8-0.3-0.9-1-0.9c-4.6,0-9.2,0-13.7,0c-1.1,0-1.1,0-1.1,1.2c0,13.1,0,26.2,0,39.2c0,1.9-0.2,3.9-0.5,5.8
			c-0.7,3.5-2.7,6.1-6.3,7.1c-1.8,0.5-3.6,0.6-5.5,0.4c-4.3-0.4-7.2-2.6-8.3-6.8c-0.5-2-0.8-4.2-0.8-6.3c-0.1-13.2,0-26.3,0-39.5
			C1599,657.2,1599,656.8,1599,656.4z"/>
	</g>
</g>
<g id="u3" class="startM">
	<path id="XMLID_39_" class="st9" d="M1843.5,649.5c-3.1-7.2-7.5-13.8-13-19.3c-11.4-11.4-26.8-17.8-42.9-17.8
		c-8.1,0-16.2,1.6-23.7,4.8c-7.2,3.1-13.8,7.5-19.3,13c-23.7,23.7-23.7,62.2,0,86c6.7,6.7,14.8,11.7,23.7,14.7l6.6,21.7l6.9,22.6
		h11.5l6.9-22.6l6.6-21.7c17.5-5.8,31.3-19.3,37.7-36.5C1849.9,679.8,1849.5,663.8,1843.5,649.5z"/>
	<path id="XMLID_34_" class="st7" d="M1839,660.2c-2.3-9.3-7.2-17.7-13.9-24.5c-9.9-9.9-23.4-15.5-37.5-15.5c-29.3,0-53,23.7-53,53
		c0,24.2,16.5,45.4,40,51.4l7.8,25.7l5.2,17.1l5.2-17.1l7.8-25.7C1829,717.4,1846.2,688.6,1839,660.2z"/>
	<g id="XMLID_31_">
		<path id="XMLID_32_" class="st1" d="M1776.6,643.3c-0.5,0-0.8,0-1.1,0c-4.4,0-8.9,0-13.3,0c-1.1,0-1.1,0-1.1,1.1
			c0,13.3,0,26.7,0,40c0,1.8,0.1,3.5,0.3,5.3c1,7.6,4.8,13.4,11.6,17c8,4.2,16.4,4.5,24.9,1.7c5.4-1.8,9.8-4.9,12.8-9.9
			c2.4-4,3.3-8.4,3.3-13c0-13.8,0-27.6,0-41.4c0-0.8-0.3-0.9-1-0.9c-4.6,0-9.2,0-13.7,0c-1.1,0-1.1,0-1.1,1.2c0,13.1,0,26.2,0,39.2
			c0,1.9-0.2,3.9-0.5,5.8c-0.7,3.5-2.7,6.1-6.3,7.1c-1.8,0.5-3.6,0.6-5.5,0.4c-4.3-0.4-7.2-2.6-8.3-6.8c-0.5-2-0.8-4.2-0.8-6.3
			c-0.1-13.2,0-26.3,0-39.5C1776.6,644.1,1776.6,643.8,1776.6,643.3z"/>
	</g>
</g>
		
<script type="text/javascript"><![CDATA[

var svg = document.getElementById('autostricht');

svg.addEventListener("mouseover",function() {
  svg.getElementById('marker').setAttribute('class', 'openM');
svg.getElementById('u1').setAttribute('class', 'openU1');
svg.getElementById('u2').setAttribute('class', 'openU2');
svg.getElementById('u3').setAttribute('class', 'openU3');
  svg.getElementById('here').setAttribute('class', 'openH');
  svg.getElementById('text').setAttribute('class', 'vis');
			},false);

svg.addEventListener("mouseout",function() {
  svg.getElementById('marker').setAttribute('class', 'closeM');
svg.getElementById('u1').setAttribute('class', 'closeU1');
svg.getElementById('u2').setAttribute('class', 'closeU2');
svg.getElementById('u3').setAttribute('class', 'closeU3');
  svg.getElementById('here').setAttribute('class', 'closeH');
  svg.getElementById('text').setAttribute('class', 'invis');
			},false);

    ]]></script>		
		
</svg>
