<svg version="1.1" id="bahnhofzoo2" xmlns="http://www.w3.org/2000/svg" xmlns:xlink="http://www.w3.org/1999/xlink" x="0px" y="0px"
	 viewBox="0 0 2284 2284" style="enable-background:new 0 0 2284 2284;" xml:space="preserve">
	
  <defs>
    <style>
      .cls-1, .cls-2 {
        fill: #f8f8ff;
      }

      .cls-14, .cls-2 {
        stroke: #222;
      }

      .cls-2 {
        stroke-width: 2.19px;
      }

      .cls-3 {
        fill: #ddd;
      }

      .cls-4 {
        fill: #aad3df;
      }

      .cls-10, .cls-5 {
        fill: #222;
      }

      .cls-11, .cls-14, .cls-6, .cls-7, .cls-8, .cls-9 {
        fill: none;
      }

      .cls-6, .cls-7, .cls-8, .cls-9 {
        stroke: #fff;
        stroke-width: 14px;
      }

      .cls-10, .cls-11, .cls-6, .cls-7, .cls-8, .cls-9 {
        stroke-miterlimit: 10;
      }

      .cls-7 {
        stroke-dasharray: 31.91 31.91;
      }

      .cls-8 {
        stroke-dasharray: 31.9 31.9;
      }

      .cls-9 {
        stroke-dasharray: 31.55 31.55;
      }

      .cls-10 {
        stroke: #f8f8ff;
        stroke-width: 2px;
      }

      .cls-11 {
        stroke: #c04300;
        stroke-width: 47px;
      }

      .cls-12 {
        fill: #fff;
        opacity: 0.8;
        isolation: isolate;
      }

      .cls-13 {
        fill: #c04300;
      }

      .cls-14 {
        stroke-width: 6px;
      }
		
		
	/* Line: interaction and animation */
#jede {
  stroke-width: 47 !important;
  fill: none;
  stroke: #c04300;
  stroke-miterlimit: 10;
  stroke-linecap: square;
  stroke-dasharray: 750;
	mix-blend-mode: multiply;
}
.startH { stroke-dashoffset: 750; }
		
.openH {
  stroke-dashoffset: 750;
  animation: draw 1.3s 0.2s forwards;
}
.closeH { animation: undraw 1s .7s forwards; }
	
@keyframes draw {
		to { stroke-dashoffset: 0; }
		}
@keyframes undraw {
		to { stroke-dashoffset: 750; }
		}	
	
	
	/* Marker: interaction and animation */
#marker {
  transform-origin: 50% 100%;
  transform-box: fill-box;
  }
.startM { transform: scale(0); }
.openM {
  transform: scale(0);
  animation: pop .2s .7s forwards;
}
.closeM { animation: unpop .2s .5s forwards; }
@keyframes pop {
		to { transform: scale(1); }
		}
@keyframes unpop {
		to { transform: scale(0); }
		}	
		
		
    </style>
  </defs>
  <title>Bahnhofzoo2</title>
  <path id="blocks" class="cls-1" d="M1183.9,335.2l-56.7-29.7,23.2-44.3,56.7,29.7Zm-79.1,271.9,37.9-78.7,29.1-76.8,14.2-33.7,6-7.8,9.1-3.7,10.6-.7,5.8,2.8,165,84.8,16.6,8.9,7.3,8.4-.7,8.3-6.2,12.7-55.3,118.9-74.4,161.9L1168,1029l-35.8,76.4,3.4,8.9-5.7,16-3.3,10.8-3.6,21.2-3.6,21.6-11.9,23-40.9,51.9-6.3,5.7-5.7,2.4-17.3-4.8-6.1-2.1-6.2-2.7L989.2,1230,845.4,1119.7l-3-5.1-2.8-5.3-3.3-8.8,1.6-9.1,4.6-9.1,31.3-54.4,93.7-163.1,107.9-235.1,8-10.9,8.9-8,8.1-1.8Zm-38.2,606.6,6.2-8.2-14.8-11-6.1,8.2Zm23.9-1-8.9-6.6-13.2,17.6,8.8,6.7ZM1229,891.1l-7.9-3.8L1209.7,911l7.8,3.8Zm31.5-65.4-7.9-3.8-11.7,24.4,7.8,3.8Zm-247.9,5.2-11.8,22.8-2.1,4.1-6.7,12-2.6,5.6-.6,1.2-2,4.4-.2.3-3.6,6.8-.2.3-14.1,26.8-36.8,71.1h-.1l-3.9,7.7-2.3,4.3-22.5,43.5-2.7,5.1-6.3,12.3-16,30.7-10.5,21.5,50.6,38.3,81.9,62.8,1.8-2.5,15.3-21.3,12.5-18,19.4,13.6,3.7,1.3h3.2l3.5-2,10.2-15.7,9.7-15,5-7.8,1.7-2.6,10.6-16.6,3.1-4.8,8.2-13.1,10.8-19.7,5.4-9.9,50.9-106.3,13.3-28,27.5-57.7.2-5.2-1.3-4.1-2.5-3.4-21.6-9.5,12.2-26.1,31.1-65.9,3.2-6.4-4-1.7,125.6-264.5-138.3-69.7ZM395.9,2284H51.4l36.4-384.8,1.6-15,7.6-69.5.7-25.5,12.8-155.4,2-7,8.4-5.9,10.7-.9,319.1,26.7,368.5,35.1,16.4,8.5,5.6,12.5-12.4,126.3-27.7,268.6-1.7,31.5-2.9,6.2-4.5,7.7-7.6,4.2-30.7,9.9ZM276.6,1859.7l-106.9,34.6,63-19.2Zm37.7-139,18.8-9.4,104.3-50.4-154.9,74.2,7.2-3Zm-274,115.6,13.3-2.7,13.6-4.1,10.3-197.8-2.9-9-3.4-5.2-9-3.4L0,1608.4v232l32-3Zm19.2,47.8-9.9,1.1H44.4l-44.4,4V2284H24.4l27.2-301Zm1274.4-283.4-11.7-8.9L1144.6,1459l-47.8-35.6-27.1-1.4-60.3,89.5-45.3,95.9,18.9,26.2,117.4,13.5,194.1,14.3,28.2-13.8,17.2-23.5.3-7.2-.6-6.9ZM1008.2,0l122.6,209.8-4.7,8.6-5.8,10.7,93.8,48.5,25.8,13.1,19.8,9.7L1324,181.8,1397.3,0Zm590.4,558.2,35.2,36.6h45.6l28.3-21.4,17.3-2.1,49,38,38.7-2.8,70.4-24.8,67.7-56-68.4-111.8-53.8-69-89.8-91.3-69-33.8-116.7-31-68.4,254.8,66.3,57.3Zm508.7,1190.5-5.7,29.9,30.5,5.5,151.9-18.9v409.3L2017.1,1992l17.2-120.5,11.3-78-15.8-1.8-29.7,220.6-42.6-28.7-6.1-2.7-41.3-18.6-55.7-18.3-50.3-8.8-29.6-5.1-64.4-11.4-38.7-6.8-45.3-6-36.7-1.3h-37.3l-25,2-27.4,3.3-36.8,6.2-59.5,15.1-16,5.1L934.9,2093.6l-8.8,3.1-3.4,1.2-6-.7-9.2-1.1-12.2-7.5-3.6-5.2-3.3-4.9-2.4-11.1,30.8-307.9,8.4-46.7,6.2-15.8,9.9-5,284.2,25.9,14.3-4.2,35.9,3,9.8,1.5,6.3-.6,11.3-2.1,21.9-6.3,30.6-14.8,17.4-13.6,3.8-3.9,15.3-15.3,4-4.1,6.7-3.8,7.9-4.4,9.5-1.9h13.6l9.9,2,5.6,1.1,11.2,3.1,396.5,62.9,200.7,33.6,8.9-5.8,20.2,1.3,17.4,2.5ZM1628,1872.8l-18.5-3-.8,4.6,18.5,3Zm180.3-84.6-37.4-6,3.5-23.4-306.7-50-6.9,42.5-46.3-7.6-5.8,35.6,46.2,7.5-9.9,60.9,155.2,25.4.8-4.7-147.4-24.1,9.2-56.2,2.7-16.4,16,2.6-4.7,27.9,27.2,36.6,22.1,3.9,22.1,3.9,36.8-25.5,2-12.3,27.4,4.8,3.6-20.7-27.7-4.7,2.1-12.7-26.5-36.9-42.8-7.3-38.6,26.3-2.1,11.6-16.1-2.6,2.3-14,6.1-37.2,292.9,47.8-2.4,18.1-9-1.5-2.3,14-8.9-1.4-1.6,9.5,9.2,1.5-1.9,11.5,18.3,3-11.9,76-86.3-14.1,1.5-9.5,5.4.8,1.9-12,2-13.3,3-20,2.1-13.4,1.5-9.9-4.1-.7,1.3-8.7-3.4-.5-1.5-.2v-2.8l-.5-2.6-1-2.6-1.4-2.3-1.9-2-2.2-1.6-2.5-1.2-2.6-.7-2.8-.2-2.6.4-2.7.9-2.3,1.3-2.1,1.8-1.7,2.2-1.2,2.2-1,2.8h-1.2l-3.8-.6-.3,2-2.7-.4.3-1.7-4.2-.7-.3,1.7-5.7-.8-1.3,8.2-1.3,8.4,1.7.2-2.4,15.6-4.8,31.2-2.3-.4-2.5,16.7,5.3.8-.2,1.9,2.4.4,2.3.3.3-1.9,2.5.4-.6,3.4,4,.6-.2,1.1v4.1l.9,3.7,1.8,3.4,2.7,2.7,3.2,2,3.7,1.1h3.8l3.8-1,3.3-1.8,2.8-2.6,1.5-2.5,96.9,15.9,13.1-80.6,28.1,4.5Zm-81.7,84.4,17.5-7.7,2.5-18.5-15-11.9-17.4,7.6-2.9,17.8Zm277-11.4-15.5-2.1-11.5-1.5-18.4,13.1-4.8-6.8,1.5-8.8-7.4-5.1-6.5-2.9-8.7-1.4-.4-8h-6.8l-10.9,2.9-6,3.5-5.2,3.9,4.9,10,1.7,3.7-4.2,5.2-2.8,6.2-1.2,6.6.4,6.7,2,6.5,3.6,5.7,4.9,4.7,5.9,3.4,6.6,1.8,6.2,9,7.4,11.5,6.8,9.8,38.7-28.9,11.3,1.6Zm60.4-362.5-25.8,5.5-20.3,2.4-10.3.4-24.5,1.1-6,.2-25-1.5-79.3-10.9-81.3-12.1-18.7-4.1-34-9.8-38.1-18.2-30-20.3-2.4-1.7-68.6-53.1-38.9-30-15.7,17.8-9.7-16.7-17.3-18-20.7-17.3-28.1-18.4-31.8-10.1-62.8-49.3,10.8-14.3,5.9-7.8,11.4-15-37.4-28.2-6,8-11.5-9,20-44.6,8.5-19.8-43-19.2-14.3,31.7-22.1,46.5-18.1,29.9-14.1,18.6-33.9,29.4-17.2,9.2-15.7,5.1-13,3.7-8.9,5.5-37.8,48-2.4,3.8-.8,4.4.5,3.6,1.9,3.5,26.6,18.8-5.2,7.6,65.6,48.8,17.4,12.5,45.3,42.6,39,35.9,18.2,20.4,28.1,20.4,1.6,1,21.8,13.5,30.6,15.8,38.4,12.8,7.7,2.5,4.2,1.1,27.1,6.8,364.4,55.7,232.9,35.5,21.3,3.5,8.3,1.3,44.4.6,36.7-1.6,34.1-3.1,38-6.5V1456l-134.5,24.8ZM64.7,1540.3l15.3.2,8.5-4.7,3.9-4.3.9-6.5,48.9-612.5,23.2-184.6-3.7-14.6L0,590.7v943.6ZM1354.9,105.5,1324,181.8l26.9,6.2,12.8-24.5,10.8-21.1,55-104.3L1444.8,0h-47.5ZM571.1,13.4,577.4,0H542.6L557,6.8ZM1609.3,2163.1l22-6,19.9-29.8,1.1-6.9,64.4-102.2,1.7-8.5-1.4-4.4-1.7-5.8-5.2-8.7-9.4-3.2-98.6-15.5H1600l-11.1-1.7L1542,1973l-38.5,8.6-12,3-106.1,37.1L925.3,2185.1l-13.3,4.7-30.5,10.9-4.5,4.8-3.4,5.8-1.3,15.2-1.3,14.8-.6,7.1-3.1,35.6h664.8ZM796.1,2263.5l-.4-4.8-2.1-7.1-3.3-6.5-4.9-3.5-5.8-3-9.4-1.1L765,2239l-11.2,3-114,42H794l.8-7.9ZM2124.5,2284l22.4-33.4,3.4-4.9,2.1-5.8-.3-10-2.8-9.2-5.5-6.1-7-3.9-196.9-128.2-52.7-34.1-33.4-18.8-31.3-13.5-31.4-10.5-5-1.3-10.6.6-9.5,8.8-84.1,128.4-13,19.8-7.8,6.6-5.4,8.1-4.7,8.4.2,1.9.9,1.2,11,7.1L1606,2284Zm-1221-953.6-48.5,61-23,28.7-23.1,27.5-29.7,33.7-20,21.2-76.5,78.4,193.8,30.4,111.2-230.6Zm1283.9,915.5-4.5-1.1-6.1,1.2-4.3,2.3-6,5.1-4.6,7.6-14.6,23h97.3ZM506,468.5l-21.7,40.7-63.4-36.4-75-43.2-5.6,12.5L254,605.9l-16.3,30.6,32,24.3,15.2,10.8L454.7,800.3l9.8,7.3,35.8,27.9,11.3,8.2,69.8,49.7,25-46.7,39.9-75.5,70.8-133.3-44.7-24.7-38.7-20.3-20.4-11.1,23.1-43.9ZM200.7,755.7l-6.8,10.2-74.2,766.3,2.9,10.2,9.6,5.2,226.4,21.8,211.5,19.7,18.1-15.5,68.2-82.6,20.5-30,23.2-35.6,24-41.4,65.1-128,6.6-12.7,11.2-21-16.1-19.1-25.5-33.5L214.3,754.6Z"/>
  <path id="streetF" class="cls-1" d="M17.2,960l-4.5,54.2,49.7,4.3a11.2,11.2,0,0,1-.9,22.4h-1L0,1035.6v-86a11.8,11.8,0,0,1,7-1.7A11.2,11.2,0,0,1,17.2,960ZM706,873.1l33.3,25a11.4,11.4,0,0,0,6.7,2.2,11.2,11.2,0,0,0,6.8-20.1l-33.3-25.1a11.3,11.3,0,0,0-13.5,18ZM1410.7,3.3l-65.5,134.4a11.1,11.1,0,0,0,3.1,13.6l13.6,11a10.7,10.7,0,0,0,7,2.5,11.2,11.2,0,0,0,7-19.9l-6.6-5.4L1433,8.5a10.9,10.9,0,0,0,.5-8.5h-24.3Zm103.5,155.8a11.7,11.7,0,0,0-7.4.6l-38.2,17.2a11.1,11.1,0,0,0-5.6,14.8,11.2,11.2,0,0,0,14.8,5.6l34.6-15.5,50,13.1a11.2,11.2,0,0,0,5.7-21.7ZM774.7,924.6l50.1,38.2a11.1,11.1,0,0,0,15.7-2.2,11.1,11.1,0,0,0-2.1-15.6l-50.2-38.2a11.2,11.2,0,0,0-13.5,17.8Zm636.6,303.7-9.7-20.6a11.2,11.2,0,1,0-20.3,9.5l10.8,22.9a10.5,10.5,0,0,0,3,3.9l54.5,44.8a11.2,11.2,0,0,0,7.1,2.5,11.2,11.2,0,0,0,7.1-19.8ZM901.3,2284H760.4l.4-6.9-19.3,6.9h-454l485.9-173.6,18.1-189.1h0l6.9-71.6c0-.5.1-.9.1-1.3L814.7,1716a11.3,11.3,0,0,1,.3-1.8l-8.3-.8-196.5-18.6h0l-26.6-2.3-68.5,52.9-1.5.9L436,1788.9l-1.1.6-43.7,17.9-49.3,19.3a11.2,11.2,0,1,1-8.1-20.9l49.1-19.1,42.9-17.7,76.3-41.9,48.6-37.5-73.7-6.5-2.3,5.2a27.5,27.5,0,0,1-9.6,11.8L422,1730.3a26.5,26.5,0,0,1-4,2.4l-120.2,56.8-2.3,1-59.8,21.7-1.2.4-63.4,19.9-1.2.4-60.1,16-3.1.7-4.2,48.3H116l32.8,3.8a11.1,11.1,0,0,1,9.8,12.1l-5.6,64.3a11.3,11.3,0,0,1-11.2,10.2h-1a11.2,11.2,0,0,1-10.1-12.2l4.7-53.4-21.4-2.5-13.6-.2L65.4,2284H9.2l37.5-389.9h0l7-82.9,12.6-162-37.9-3.3L0,1642.9V1500.3l79.6,8.1,3.1-29h0L107,1218.8h0l16.2-171.9-3.2-.3a11.2,11.2,0,0,1-10.3-12,11.3,11.3,0,0,1,12.1-10.3l3.5.3,10.8-113.4h0l11.7-115.8h0l5.8-56.2h0l.2-2.4-71.6-54a11,11,0,0,1-1,11.3,11.2,11.2,0,0,1-9,4.6,10.9,10.9,0,0,1-6.6-2.2L0,648V441.4l24.8,18.5,5.7-3.9,26.2-25.3a11.2,11.2,0,1,1,15.6,16L55.1,463.4a11.1,11.1,0,0,1,1.8,14.3,11.7,11.7,0,0,1-3.6,3.4l123.6,92,4.9-13a13.4,13.4,0,0,0,.7-1.8l8.5-20.1-4-2a11.2,11.2,0,0,1,10.4-19.9l2.4,1.3,54.4-117.4,18.9-38.9,34.2-74.2L336,222.9,434.4,11.4,412.6,0H557.4l3.2,1.7L698.7,74.6h0c.1-.4.3-.8.4-1.1l19.2-41.2L733.7,0h24.9L719.7,82.2l-1,2.9,5.9,3.1h.1l14.9,8.2,1-2.2h0L780.8,0h48.3L880,89.9h0l42.5,75.2,10.3,5.3-41-69.8h0L832.9,0h25.9l52.3,89.2h.1l58.7,100.2,9,4.6-58-99.5L865.9,0h25.9l48.5,83.3L1015.8,213l10.7,5.2L948.6,86.9,897,0h26.1l44.7,75.4,95.3,160.7,2,1L978,85.8h0L929.6,0h25.7l42.1,74.6h0L1086.3,229v-.2l-6.3-27L1008,80.7,960.1,0h26l41.2,69.3,72.8,122.6a10.4,10.4,0,0,1,.6,1.6l.7,1.5,6.8,29.6a4.7,4.7,0,0,1,.3,1.7l3.1,42.6c0,.4-.1.7-.1,1.1a5.5,5.5,0,0,1-.2,1.8c0,.2.1.4,0,.6l-4.4,17.7a9,9,0,0,1-.8,2.3l-1.8,3.6,87.1,47,4.5-8a11.1,11.1,0,1,1,19.5,10.8l-4.3,7.8,112.7,60.5h.4l33.7,18.7,43.3,22.7,38,21.3,23.4,11.9,14.8-35.1,24.1-60.9a11.1,11.1,0,0,1,14.5-6.3,11.3,11.3,0,0,1,6.3,14.5l-33.3,83-6.5,15.2,11.8,6.4,19.7,9.4a26.5,26.5,0,0,1,6,3.8l15.8,13.3a27.9,27.9,0,0,1,6.3,7.4l9.9,17.1a31.6,31.6,0,0,1,2.2,5l5.9,17.2a28.2,28.2,0,0,1,1.4,6.4l1.7,18.1a24.1,24.1,0,0,1-.1,6l-1.6,13.6-.3,1.3a22.7,22.7,0,0,1-.6,2.5,17.6,17.6,0,0,1-1,3,6.5,6.5,0,0,1-.4,1.3L1425.3,929l-18.6,39.9a.1.1,0,0,0-.1.1h0L1343.1,1101l29.1,12.3a11.7,11.7,0,0,1,3,1.9l79.2,68.7,85.5,16a11.2,11.2,0,0,1-2,22.2,7.5,7.5,0,0,1-2.1-.2l-88.5-16.5a12,12,0,0,1-5.3-2.6l-80.1-69.5-28.5-12.1-15.6,32.4,41.3,20.8a11.2,11.2,0,0,1-5.1,21.2,11.1,11.1,0,0,1-5-1.2l-42-21.2-16.2,25a23.8,23.8,0,0,1-3.4,4.3l-23.6,24.4-1.8,1.5c-.7.6-1.2,1.2-1.9,1.7l-19.1,13.7a15.8,15.8,0,0,1-2.4,1.5l-.9.6-20.6,10.9-1.5.8-14.6,6.6-2.3,1-3.8,1.3-42.5,52.8-1.5,2,10.1,8.4,17.4,12.9,74.9,57.2c.1,0,.1.1.2.2l.3.2,118.6,93.2,1.2.9,3.2,2.7,27.3,20.7,46.2,26.5,1.7.6,54.1,15.1,1.7.5,12.7,3.9,12.3,2.2,135.9,18.7h.7l203.1,30.9,61.7,10.7,189.3,25.9,39.8,1.9h28.3l53.2-3.7,39.2-7.4v138.2l-9.4,1.9-4.5.7-58.9,6.2-3.9.2-30,.8h-4.2l-34.9-2.1-3-.2-53-6.6-2.5-.4-20.1-3.7-60-8.4-436.4-66.4-56.8-7.7-3.3-.6-64.2-13.1-3.3-.8-12.3-3.2-.7.8-1.8,2.1-5.5,6.1-4,3.9-16.3,14.2a49.7,49.7,0,0,1-10.5,7.1l-25,12.6a50.8,50.8,0,0,1-10.7,3.9l-18.7,4.6-32.7,8.7a51.5,51.5,0,0,1-13,1.7h-.2l-49-.2-4.6-.3-116.7-11.2h-.9l-94.8-10.8-60.4,4.8-4.1.2h-1.9l-3.4,10.4-1.6,11.4-12,104-2.1,46.4a6.6,6.6,0,0,1-.1,1.4L921,2060.1l135.7-46.6,125.7-43.2h0l182.7-62.7,1.5-.4,26.7-8.3a9,9,0,0,1,1.6-.3l1.7-.6,59.6-14.1,4.1-.8,36.3-5.4,3.9-.5,29.4-2.1h3.1l64.7-.6h3.4l62.7,3.6h2.3l47.4,4.9,1.9.2,54.6,7.7h.6l38.4,5.9,32.1,5.5,1.8.3,22.9,4.9,2.8.6,24.6,6.7,4,1.2,25.8,9.4,1.9.7,19.2,7.8,4.2,2,20.3,10.5,1.5,1c.5.4,1.1.5,1.7.9l94.3,58.2,1.1.7,34.5,22.5,1,.7,29.3,20.2,152,101.6V2284H2177.3l-6.3-4-2.5,4h-65.7l21.4-34.7-139.9-96.1-99.2-61.9-20.8-12.2-23.5-12.6-28-12.9-34.5-11.7-17.2-4.9-11,16.8L1602.7,2284h-66.3l167.5-261.5-11.3-2.8-35.6-7.1-31.5-3.7-26.8-1.5H1574l-26.9,1.8-25.1,4.1-26.2,6.9-55.8,19.2-102.9,38.4-1.2.4L906.5,2226.4Zm177.6-828.9-7.2,9.4-29.3,40.3-10.9,18.6-19.8,36.8-16.5,35.6-4.5,12,39.6,13.8,93.4,10.6,114.3,11,40,.2,9.6-2.6,7.4-9.6,7.5-10.4-18.4-13.6h0Zm27.9-168.3,1.4-1.8,23.8-29.5-.4-.3-3.2-4.2-24.6,33.3v.2Zm86.8-80.8-8.3,3.5-9,4.2,2.5-.9,12.8-5.8Zm78.1-266.7,25-52.4-3.2-15.2a.9.9,0,0,0-.1-.5c-.2-1.1-.2-2.2-.3-3.3a16.4,16.4,0,0,1-.2-2.2,26.6,26.6,0,0,1,.3-2.8,24.8,24.8,0,0,1,.3-2.7,9.4,9.4,0,0,1,.7-2.2,18.6,18.6,0,0,1,1-3.1.6.6,0,0,1,.1-.4l3.1-6.9-1.8-3.4-6.5-13.5-67.5,144.4-75.2,163.5-2.5,7.1-.3,21.1.9-.4h.1l7.2-3.4,15.6-16.5,16.9-28,5.7-12.3Zm28.9-8.2v-.6l-57.4,120-37.7,77.9-.6,1.1-5.4,8.9,1.6-1.4,5.8-6.8,8.2-14,30.2-64.8h0L1299.9,934Zm53.3-70.7-3.8,8.6,4.9,23.3a20.7,20.7,0,0,1,.6,5l1,35.6a29.5,29.5,0,0,1-.6,6.6l-2,9.2c-.1.6-.4,1.1-.5,1.6l2.6-5.5h0l18.3-39.1,132-293.7.8-6.4-1.1-11.7-4-11.5-6-10.5-2.4-2ZM1425.7,533l-38.2,96.3-56.6,120.8-.5.9h0l-21.9,42.3,2.1,28.2,134.1-278.9Zm-39.1-21.3L1302.3,702l16.2,21.7L1367,620.4l38.7-97.9ZM989.9,874.9c0,.1-.1.2-.1.3s-.1.3-.2.4l-15.4,31.6-1,1.8-78,131.5-32.6,54.1,3.5,2.9,48.3,37,32,24.9.6.6.7.4,13.9,11.6,97.7,78.3,11.1-15.3,32.3-43.3h.1a27,27,0,0,1,2.8-3.1l1-1c.5-.5,1.2-.8,1.8-1.3a22.2,22.2,0,0,1,2.7-1.9h.2l10.4-6,.4-1.6.4-33.1a15.1,15.1,0,0,1,.7-3.7l3.6-9.7,96.7-209.8,47.3-101,16.3-33.3h.1l20.4-39.3-27.2-36.4a11,11,0,0,1-1.2-11.2l87.7-198-35.6-18.7-34.2-18.9-96.3-51.7ZM759.3,107.3,977.9,228h.1l43.1,23.2h.1l63.4,34.1.9-1.7,2.1-8.5-37.7-20.8L1003,231.7h-.3l-45.9-23.7h-.1l-47.5-24.4h-.1a10.7,10.7,0,0,1-3.1-2.5l-.5-.7a5.4,5.4,0,0,1-.9-1.2l-44.1-78.1h0l-56.1-99L761.2,103h-.1ZM261.4,635.6l18.8,13.8,1.1.8,2.5,1.9,6.1-2.2a11.2,11.2,0,0,1,10.6,1.6l79.8,60.7,80.2,57.7,15.5,8.5,26.7,13.1,1.3.7,69.6,47.5h.1a.1.1,0,0,1,.1.1c.7.4,1,1.1,1.6,1.6a17.4,17.4,0,0,1,1.3,1.5,18.9,18.9,0,0,1,.9,2.1l.7,1.9a8.1,8.1,0,0,1-.1,2.2,14.7,14.7,0,0,1,0,2.1,18.9,18.9,0,0,1-.9,2.1,15.4,15.4,0,0,1-.8,1.9c-.1,0-.1,0-.1.1h-.1l-9.4,12.9L685,957.6l100.1,76,33.2,26,42.9-71.3-12.3-7.1A11.2,11.2,0,1,1,860,961.8l12.8,7.3,2.3-3.9,29.2-49.5h-.1c-.2,0-.3-.2-.5-.3l-.9-.5L876,896.6,755.7,807.4a11.2,11.2,0,1,1,13.4-18l119.9,89,25.7,17.5,1,.5,3-5.2-1.7-.9a11.2,11.2,0,0,1,10.6-19.7l1.7.9,9.9-20.3L1051,605.8l-45-20.4a11.2,11.2,0,0,1,9.2-20.5l-96-49-4.4,8.4a11.8,11.8,0,0,1-4.7,4.7l-10.6,5.5-34.9,63a11.1,11.1,0,0,1-14.8,4.6L699.3,527.3a11.2,11.2,0,0,1,10-20.1l140.9,70.1,31.3-56.6a11.7,11.7,0,0,1,4.6-4.5l10.5-5.5,13-25.1a11.2,11.2,0,0,1,20.1,10l-.2.4,139.1,71.1L1151.4,385l-82.7-44.7h-.1l-73.9-39.8h-.1l-43.4-23.4h-.3L724.7,152.2h0l-26.9-14.8h0l-1.4-.8-7,13.2-6.5,29.4a14.5,14.5,0,0,1-1.1,2.9l-37.3,69.4L868.1,369.4l58.5-3.8a12.4,12.4,0,0,1,5.7,1.1l112,55.5a11.9,11.9,0,0,1,4.9,4.8l9.5,17.9a10.5,10.5,0,0,1,1.2,6.3l-1.4,15.5a11.5,11.5,0,0,1-3,6.6l-10.4,11.1a10.9,10.9,0,0,1-5.7,3.2l-15.8,3.6-2.5.3a11.7,11.7,0,0,1-4.9-1.1l-67.5-33-5.9,11.7A11.2,11.2,0,1,1,922.9,459l5.7-11.4-30.3-14.9a10.7,10.7,0,0,1-3.4-2.5l-36.2-40.5L633.6,271l-18.3,31.7a11.2,11.2,0,0,1-9.7,5.6,10.6,10.6,0,0,1-5.6-1.6,11,11,0,0,1-4.1-15.2l14.8-25.6-35.1-17a11.3,11.3,0,0,1-5.8-6.5,11.4,11.4,0,0,1,.7-8.7l45.1-86a11.3,11.3,0,0,1,14.7-5l19.9,9.4,20-13.9,6.4-12.1L528.5,48.4,506.6,96.2l-79,168.6-25.5,57.3,4.6,2.5A11.2,11.2,0,0,1,396,344.3l-3.3-1.8-25.1,54.4,94,49.4L511.2,433l45.7-86.8a10.4,10.4,0,0,1,4-4.3l14-8.8,5.1-7.8a11.2,11.2,0,0,1,18.7,12.2l-6.4,9.8a11,11,0,0,1-3.4,3.4l-13.6,8.5-41.6,79,26.4,15.2,38.6-72.7a11.2,11.2,0,0,1,15.1-4.6l69.7,36.6a.1.1,0,0,0,.1.1h0l21.3,11.4a11.4,11.4,0,0,1,4.6,15.2l-21.3,39.2-4.2,9.9.6,2.7,4.7,5.7a11.3,11.3,0,0,1-8.7,18.4,11.1,11.1,0,0,1-8.6-4.1l-6.5-7.9a12.2,12.2,0,0,1-2.4-5l-1.7-8.8a10.8,10.8,0,0,1,.7-6.4l5.6-13.6.5-1.1,16.2-29.8-1.5-.8-38.7,73.4a10.8,10.8,0,0,1-6.6,5.4,9.5,9.5,0,0,1-3.3.5,10.6,10.6,0,0,1-5.2-1.3l-69.9-37.1-.6-.4-41.4-23.7-54.1,14.5a13.3,13.3,0,0,1-2.8.3,10.6,10.6,0,0,1-5.2-1.3l-97.2-51-12.7,26.2L286.7,570.7l-11,25.9ZM629.7,490.8l33.5-63.5-50-26.2-33.6,63.1Zm28-316.6a11.5,11.5,0,0,1-11.2.9l-16.1-7.6-34.7,66.3,26.2,12.6,39.4-73.5.4-1.5ZM910.1,413.6l38.7,18.9h0l73.7,36,8.6-1.9,5.4-5.8.8-8.4-6.2-11.7-106-52.6-35.7,2.3ZM494.6,812.9l30.1,23.7L549.1,855l2.3-3.3Zm-93.1,863.4-17.7-1.5-248.1-20.6-13.6-.9-10.7,137.2,43.5-11.6,62.3-19.5,58-21.1,53.3-24.9,63.3-30.2Zm228.7-218,48.3-78.3,85.9-146.8,12.9-21.6h0l-13.4,18.2a11.2,11.2,0,0,1-9,4.5,11.5,11.5,0,0,1-6.6-2.1,11.2,11.2,0,0,1-2.4-15.7l15-20.4L600.6,1073h0l-71.1-53.5-15.8,19.7h0l-26.3,33.2,41.4,31.3a11.2,11.2,0,0,1-6.7,20.1,11.5,11.5,0,0,1-6.8-2.2l-50.5-38.2a11.2,11.2,0,0,1-4.4-7.5,11.6,11.6,0,0,1,2.4-8.4l33.4-42.2h0l15.4-19.2-73.1-55-1-.7-29.6-23.5L291.8,838.6l-85.7-63.4-2.6,25.6h0L191.8,916.3h0l-29.1,307.5h0l-24.3,260.6v.2l-3.3,29.2,99,10.1,35.3,2.9,146.1,13.3,51.6,3.3,2.1.2,90.6,9.7h0Zm227,113.5,6.4-13.4,39.6-78.9a4.3,4.3,0,0,0,.4-.7c.2-.2.2-.5.4-.8l56.2-103.3,4.6-10.4-87.5-64-1.2-1.1-1.6-1.1-47.7-40.3-1.5-1.3-6.2-5.7-6.5,10.9-86.1,147.1-49.2,79.9-1.4,1.9L623.1,1562l34.1,4.6,11.3,1L852.2,1583l4.4-9.9Z"/>
  <polygon id="walk" class="cls-1" points="1207.4 476 1344.6 553.3 1344.6 581.3 1321.1 605.4 1222.2 821.6 1218.3 848.7 1189.3 914.9 1096.7 1101.7 1086.6 1156.9 1086.6 1185.4 1096.7 1224 1096.3 1233 1052.9 1278.2 1038.2 1278.2 854.3 1139.3 881.1 1089.8 1052.9 774.6 1123.1 632.7 1207.4 476"/>
  <path id="parking" class="cls-2" d="M657.9,1332.3l54.7-73.2,28.7-40,17.5,12,26.7,22.2-.8,1.2-76.5,115.3ZM853.5,947.4l-51.3-37.7-31.1,41.7,3.1,2.4,1.6,1.8,1.2,2,.7,2.2.4,2.4-.2,2.3-.6,2.3-1,2.1-1.4,1.9-1.8,1.5-4.5,2.6,4.5,3.1-2.6,3.6,37.2,27ZM611.7,1252.5,548.2,1205,521,1241.3l63.6,47.5Zm107-317.2,1.1-4.5,1-2.1,1.2-1.8,1.7-1.6,2-1.2,2.1-.8,2.3-.4h2.2l2.2.5,2.2,1.1,3.4,2,31-39.3-36.5-29-45.3,60.5,23,16.8,2.3-3.1ZM480.1,532.2l7.7-14.2L377.9,456.6l-1.4-.8-7.7,14.6,109.9,61Zm56.8,593.9-51-38.5-43.3,57.2-.9,1.3,51,38.5,43.3-57.2Zm-97.6,308.6,56.6-21.8,6.3-77.9-53.9-5ZM658.2,676.4l-36.8-29.6-44.7,58.8-29.9,39.9-37,48.9,39.7,29.4L616,874,723,672.2l.8-1.4-45.6-25.2ZM61.4,984.9l-16-1.1-3.7,56.4,16,1.1ZM17.9,971.3l-6.7,75.4,14.2,1.3,6.8-75.4ZM799.4,734.8,762,806.3l-.6,1.2,9.3,7-7,9.8-8.6,11.4-3.5,4.4,102.7,76.5,2-3.2,14.3,11.3,2.5-3.1L900.2,942l12-23.2,7.5-14.1,7.1-14-42.4-20.5,21.3-44.9-86.9-40.9L835.5,749ZM225.6,555.2,100,493l-1-.5L78.8,510.7,65.6,522.5l122.8,93.7L216,571.9ZM41.9,1390.9,0,1387.2v54.9l36.5,3.2ZM731.3,144.7l18.5-40.9,11.4-23.5L769,64.2h0l17.2-36.9-18.8-8.8-2,4.2h0l-1.7,3.7-17.5,37L730.3,96.1l.3.2L712,135.6ZM165.6,1898.1l-23.2-2.2-5.5,58.1,23.3,2.2Zm15.8,60.6L200,1960l1.4-16.7,7.1.7,3.2-40.7-25.9-1.5Zm114.4-111.9-7.1,75.3,60.7,5.4,8.6-103.3-61.3,22.2Zm1303.5,281.7,2.1-3.4-25.6,6.9-97.3,152H1502Zm-339.4,149.1-7.5-22-80.9,28.4H1255l1.3-2ZM1197.3,323.9,1166.9,382l69.4,35.3,29.5-58.2-23.3-12.6Zm25.3,846,9.1,30.7,11.8-13.7,7.7-13.4,96.9-201.9.3-.6-1.6-4.5-3.2-3.8-6-2.9-3.5-.8-5.3.2-4.4,1.2-93.3,196.1Zm408,993.8-11.6-7.5-.4-.6-.7-5.8L1532,2284h21.3l76.4-119ZM53.1,841.9h.8l20.5-25.5-24.2-25L33.8,810.4,6.7,809.3l7-76.3L0,731.8V837.2ZM276.3,640l-.7,1.2,43.6,33.4,48.2-64.1,42.9-55.7,6.8-8.3L440,512.7l-75-43.2L359,483ZM394.5,429.4l-7.8,14.5,94.6,50.2,7.7-14.6-93.1-49.3ZM506.1,552.6l-10.6,13.7-26,34.8L518,637.4l21.7-28.9,44.9,33.8,17.6-23h.1l14.6-22.8-90.4-69.7Zm26.8-394.8,35.6,20.3L579,158.4l-35.7-19.1Zm868.6,418.5L1283.3,822.4l-.3.6,9.1,24.7,16.8-5.6,123.6-245-25.9,8-1-3.5,5.5-2.7Zm-74.7,291.8,29.8,83.4,131.1-282,2.9-10.9.6-8.8-.7-18.4-2.2-13.8-3.8-15-2.4-7.4-5.2-6.4-8.3-2.3-10,.8-8.1,5.7L1327.7,853.1l-2.3,6.8ZM601.3,383.4,574,437.8l18.6,9.3-13,25.9-12.9,23.1,30.9,16.8,27.8,15.3L653.3,544l57.1-102.9L602.7,384.2ZM366.8,5.6l-4.8,10,92.3,44.2,1.4.7,4.8-10L368.2,6.3Z"/>
  <path id="grass" class="cls-3" d="M871.6,997l-14.9-8.8L873,966.6l4.7,3.9,5.7,2Zm174.7,1070.7-100.9,35.5,2.5,7.2,100.9-35.6Zm88.1-38-56.8,20.2,4.6,12.8,56.8-20.2ZM830.1,1023.5l5,3.6-5.2,6.5,1.1,1-11.5,15.1-.9-.9-5.8,8.9-62.7-48-5.6,5-6.3,7.4,1,9.1,71.4,51.7,12-7.9,44.5-68.8-16-10.2ZM731.9,654.7l-9.7,18.2L654.3,800.5l-38.1,72.2-24,44.8,7.5,5.6,71.4,53.5,10.1,1.8,5.8-5.3,5.9-7.9-63.1-47.3,5.6-7.5-1-1,11.9-15.5,1.2.7,4.5-6.2,5.1,4,10.2-14.1-13-10.2L642.7,859l11-14.3-2.4-1.3,7.1-9.7-1-.7,15.3-20.4,2.9-3.9,1.2.8,7.1-10.2,2.6,1.9,10.4-14.4,47.7,35.3-2.4,3.3,3.8,3.2,10.9,9.4,8.6-11.5,7.8-10.9-9.3-7.3,36.7-70.2,33,13,2.8-5.8,2.4,1L852,717.8l-5.8-3.4ZM436.7,1656.3l-68.9-6.7-3.8,41.7ZM525.1,1018l-19.8-15.1-9.6,12.5,19.8,15.1Zm10.5,336.5,12,1.5,4.7-36-38.1-5-4.1,30.7-6.4-.8-7.6,57.7,32.6,4.2ZM524.1,119.1l-7,11.9L435.5,305.9l58.3,30.4,5.8-9.2L516.8,295l2.1,1.4,58.2-112.5-51.3-29L541,128.8ZM368.8,930.6l-1.8,2.5,43.9,33,17.4-21.3-44.7-33.9Zm222,137.2-43.2-34.4-7.6,9.5,43.2,34.5Zm1576.6-17.5,10,1.3h4.9l4.7-2.1,18.4-34.9L2120.5,960l-15.4,8.4,4.1,12.2,1.2,16.5-3.4,19-10.9,15.7-13.9,12.1L2069,1048l-.9,8.5,4.5,30.3,4.8,10.9,7.1,9.8,6.8,8.6,3.1,1h2.6l2-1.1,58.7-40.5,2.7-3.5.8-3.9-1.5-3.8-6.4-7.9,4.7-8.9Zm114.9-257.8-29.8-20.9-116,23.3L2120,838l2.5,20.5,8.2,2.4,8.9,24.7-4.2,6.4,7.5,14.7,10,8.5,81.1,44.2,11.4-21.6-23.2-14.2,5.8-8.7-5.3-2.9,44.6-83Zm-254.2,515.2-.6,21.7,6.8,22.2,4.7,21,17.5-10.7,18.3-7.9,21.2-8.6,20.4-8,9.3-28.9-28.8-25.7-14.8,4.3.5,3.9-56.5-2Zm54.9,63.1-4.6.9-5.5,1.8-5,2.8-4.2,3.6-5.2,8.2-1.7,9.3.7,6.9.5,2.1,1,1.6,2.9,7.3,5.6,4.9,8.7,4.1,10.9.4,39.3-7.9,7.5-4,5.5-5,4.3-8.3,1.2-9.4-2-9.6-5.8-8-8.9-5.9-1.2-.7-10-1.7-8.7,1.7Zm172.4-286.2-5.9,10.8-6.3,8.9,3.2,2.5,19.3,21.8,3.8,5.7,3.7-14.9,8.5-18,2.3-3.1v-39l-12.2-7.5-9.4-8,.7,14.4-3.4,13.3ZM1202.3,2005.1l-56.8,20.8,4.7,12.8,56.8-20.8Zm146.5-51.5-42.8,14.6,4.5,13.4,42.8-14.6Zm246.3-994.3-3.1,15.1,29.8,12.7,9.6,1.2,19.5.3,16.1,3.3,13.4,5.4,9.3,6.4,14.3,3.6,1.2-4.8,4-19.9,2.5-.4,5.4-2.7,2.4-4.1,11.6-1.4-.8-9.1,10.8-21.6,18.3-9.8,4.3-4.5,2.3-5.5,3.9-12.1,5.3-7.4,8.1-11,3.8-9.5,1.3-8.7-3.2-5.9-4.7-3-5.7-1.1-9.7-3.7-16.5-7.2-31.3-16.1-12-8.3-5.7-5.8-4.4-6.1-4.8-11.1-3.5-17.8-3.5-6.1-6.6-3.9-9.5-3-7-2h-4.2l-5.8,3.6-4.3,5.6-3.4,6-4.7,9.3-4.1,15.4-4.7,15,8.2,2.3L1603,961.3ZM1269.4,1981.4l-55.7,19.5,4.9,14,55.7-19.5Zm226.5-982.7-1.3,7.1v9.6l4.4,16.1,2.5,12.4.3,12.7,2.1,7.9,13.3,12.9,5,5.3,5.7-.4,8.8-5.3,5.8-8.1,3.9-11.9,4.4-18.9.9-13.4.3-8.2-1-4.2-4.7-3.7-2.7-3.8.6-5.1,17.7-33-27.8-7.4,6.6-25.1-22.5-6.8-2.7.2-7.9,2.4-3.9,5.5-3.8,9.6-2.5,11.4-1.7,15.1.2,9.5,2.5,8,4.9,5-4.5,1.2Zm-9.4,132.4,16.7,43,25.4,53.9,42.7,13.3-10.6-55.3,11.2-10.8,10.5-7.8,13.3-5.9,12.9-7.4,4.6-5.7.4-11.3,4.9-22.2-2.7-.9-.3,4.5-14.7-1.3,1.3-34.4,15,.4-.5-6.3,3.5-15.5,11.3-4.5,8.7,1.4,7.6,11.1v22.9l-2,14.8,5.7,8.1,5.3,5,10.8,3.6,11.2,1.4,14.8-1.1,21.3-11.9,9.7-9.6,6.9-12.8.9-15.2,4.8-11.9,18.8,2.6,27.8,24.7,9.1-30-20.8-12.8-21.9-16.6-24.4,11.5-28.8-2.6-21.6-12.3-14.2-4.4-26.5-5.6-16.3,2.1-20,6.2-16.6,12.9-5.6,12.3-16.8,40-22.5,15.7-36.7,3.7-9.7,4.8ZM0,621.5V623l.7-1ZM404.5,395.3v-5l-5.7-5.9-11.5,25.4,10.2,5.1,7.9-15.6,22.1,10.6-9.7,17.4,38.6,19.4,36.6-65,16,9.4,11.7-19-37.3-20.3,2.7-5.2-56.6-28.9-19.3,40,6.9,3.6,10.5-2.1,2.9,1.3-.7,1.5,35.7,18.1-19.1,37ZM163.7,109.7,120.9,80.4l-15.4,27.3,52.3,27Zm-62.2,87.6,10.7,39.2,18.6-22.6,4.4-7.5,21-62.2-55.9-28.6L76.1,166ZM358.9,896.1,232.5,800.9l-6.8,66.2L238.4,851l10,7.3L261,845.7l25.5,26.2,59.8,45.2ZM101.7,372.4l30.1,54,17.6,9,8.2-5.9L273.3,204l13.3-28.2L238.5,150l-33.2,34.4-21.8,36.1,9.9-29.6,15.9-29.3,6.3-17.4-27.7-27.8-14.7-5.5-11.5,48.7-15.4,44.8L132,230.6l-14.6,15.8-6,2,.8,35.7-2.4,38.4,9.9-6.1-12.5,16.2Zm186,605.1,3.2,2.7,15.4-20.8-18.8-15.8-3.6,32.3ZM39.6,458.4l-8.3-.8L18.4,477.9l51.9,28.9L84,482.5Zm1871,841.8,3,5.8,1.1,12,.3,9.5,9.2,52.1,45.2-19.5,15.6,9.8,38.2.4,8.5-19.1-14.1-37.4v-15.1l-50.3-1.1-56.5-5.9-33.7-4.5-3.1-.4,1-13.5-24.4-29.3,9.7-41.7,7.5,1.1,3-.7,1.7-2.4,1.8-2,1.6-1.2,3.3-.3h2.8l2.4-1.3,4.2-6,6.4.6,3.5-1,2.5-2.5,1.7-3.4,10.8,1.7,1.5,5.3,9,4.3,12.9-13.9-10-23.4-54.3-7.1-25.5,28.7,1.7,3.8,1.7,5.7-4.5,2.9-6.1.3-5.7,1.6-4.5,5.1-6.2,4.5-6.4,2.9-7.4,1.8h-4.9l-5.6-.9-9.5-3.5-16.2-14.6-6.6-9.3-16.8-4.9-13.1,4.3-44.4,5.2-13.2,11.2,3.2,18.7,11.3,2.3,11,7.3,39.4,9.1,22.8,1.8,18,2,14.4,7.6,6.5,9.4,2.8,10.8-2.7,2.5-.8,5.1.5,33.5,11.6,5.4,16.4,3.1,10.4,4.2,10.7-.4,2.5,8.6-2.2,20.7,9.6,22.8,13.7,16.9,15.3,11.7,12.9-.6,10.3-7.3,2-10.1-4-15.8-6.9-12.3-3.5-9.8.2-8.1-.7-14.7,1.5-13.2ZM1.1,1098.8H0v11.4l.7-.2ZM184.2,678.6,0,541.3v14.1L178.6,692.8ZM17.1,635,6.4,627.4,0,636.3v4.4l8.6,6.2ZM25.8,63.7l71.7,38.5,11.9-25.4-68.1-38Zm30.4,598L32.4,643.5l-6.2,8.2,23.7,18.2Zm77.6,81.4V726.3l-8.7-7.6-7.5-6.3-8.8,10.4,7.4,6.3Zm-23.1-39.3L62.3,666l-6.5,8.1L104.3,712ZM60.5,1066.7l-18.8-2.3-3,30.3,14.9-3.3,4.6-.4Zm-6,38.8L33,1111.3l-.8,6.3,21.3-5.4Zm129.9,264.2-10.3-2.2-5.8,65.3,9.3-1.7,14.6-3.5,7.5-3.2,7.8-6,2.4-35.2-4.3-3.5-7-4.8ZM69.7,1087.3l14.5-3.7,1.1-13.6-18.4-1.6-2,24h4.6Zm51.7-17.3,2.9-2.5,3.6-1.5,3.9-.2,3.7.9,3.3,2.1,2.5,3,1.3,3.7,7.2-1.2.7-9.3-41.9-2.9-2.2,21.6,12.4-2.8-.4-3.8,1-3.8Zm97.9,241.7-16-13-23.6-.5-4.6,40.9,41.7,16.4ZM90.7,1096.1l-22.5,6.7-.3,4.8,22.4-5.4ZM551.2,62l144.7,67.8,45.3,21.7L803.3,19.7,850.5,0H578.2L551.8,60.6ZM1799,1372.4l-10.9,7.6-8.3,9.8-5.2,24.2,9.5,14,7.1,6.9,10.2,5.4,25.8,6.2,11.7-1.5,8.8-4.3,8.6-7.3,6.3-8.8,2.1-10.4-1.3-11.6-4.1-8L1847,1382l-10.9-8.4-11.2-3.8-14.8-.8Zm-17.2-601.3,7.2,10.4,9.2,7.1,8,4.2,9.9,2.3,9.5.8,8.4-2.1,6.4-7.4,4.4-20.7,2.5-14.8.8-10.6-2.1-14.7-3.6-14.3-6.2-7.6-6.3-4.4-9.2-1.6h-15.8l-9.5,3.1-8.6,5.9-5.4,9.3-3,9.7-2.3,11.3-.8,10.3,2.8,13ZM2277.4,28.9,2226.3,0h-18.9l66.7,36.7ZM2001.1,170.3l-12.3,9.4-17.1,30,30,6.7,14.7-7.2,21.6,4.9,4.9-38.4-28.2-4ZM2284,0h-5.7l5.7,3.2Zm0,668.8-10.3,4.7-7.6-16.4-9.6,4.4-14.9,17.3-33.3,15-3-6.7-7.6,3.4-13.6,19.4,3.1,31.5,10.6,14.6,86.2-23.3ZM1946.8,264.4l-1.8,17.5,6.4,15.6,11.1,6.6,14.8,5.2,17.6-3.3,37-60.8,3.4-14.1-17.6-3.2-4.8-3.4-9.5-4.1-33.7-5.6Zm-34,326.7h-6.6l-4,2.4-48.8,40.1-2.9,4.8-.8,4.5,5,13.8,3.6,6.3,3,1.6,87.6.8,5.3-.4,2.2-2.2-1.4-3.7-39-64.2Zm-25.3-346.9-5-7.6-6.7-4.9-8.6-3.7-24.4-3.1-10.3,22.9,6.2,3.3,5,3.4,1.7,1.7,1.7,2.3-1.1,2.8-.9,5.1.3,5.2,1.1,4.9.9,9.1.3,5.9,1.6-.4,13.2-1.8.9-6.7,2.2-2.8,3-1.1,3.8.2,8.9,2.2,2.6-5.6,4.5-12.7,1.7-5.3-.4-8ZM1756,661.2l-13.3.9-13.4.8-8.6-3.7-12.6-7.6-7.8-5.5-4.6-4.8-6.6-6.6-6.3-3.9-6.1-1-3.3.4-4,1.3-3.8,3.1-3.7,8.5-1.2,9.3-.8,13.2v11.6l.9,11,3.9,16.5,4.6,11.4,5.8,10.7,8.3,11.8,13.1,12.4,3.7,3.1,4.8.8,5.2-3.5,3.8-9,2.8-11,2.1-11.1,3.2-18.5,3.5-12.1,6.2-6.2,6.4-4.5,13.4-2.3,9.5-1.7,5.1-1.4,3.3-1.9,1.1-3.9v-3.2l-1.2-3-4.9-.9Zm70.9-408.3-7-2.3-7.1-2.7-6.6-2h-4.9l-4.8,1.7-2.6,3.5-1,3.6-1,5.4-2.1,4.5-4.1,4-5.5,2.5-4.5,3.2-1.3,3.5-.7,9.7-.3,6.9-.4,4.9-7.6,4,3.7,9,6.6,7.7,15.7,4.9,13,.7,12.2-3.7,9.5-10.6-6.2-5.8,9.8-7.1-1.9-2.4-2.2-3.1-3.2-2.7-4-1.7-1.3-1.5-1.5-3.3,1.2-4.4,2.7-3.7,5.8-4.1,5.1-5.2,2.6-3.3,1.8-1,2.7-.3,2.4.8,1.1-1.3-3.4-3.1-5.5-3.3ZM1620.5,0h-10.9l10.3,2.4ZM60.2,0H53.1l5.5,3ZM5.6,116.4,0,122v55.2l63.9-6.9,28.5-59L15.5,68.9l-14.2.4L0,70.1v43.4ZM1478.9,238.2l-36.9,14-16.6,39.3L1384,412.7l47.2,18.9,28.9-78.4L1487.5,240l-2.8-.9ZM73.1,9.2l149,76.7,19-39.8,12.3,10.1L234.9,93.1l33.6,15.7,20.8-40.9L291.5,45l19-3.9,5.1-11.2L259.6,0H77.8ZM.5,207.6l78.8,43.2L61.5,288.4l-10.7-2L34.1,297.9l56.7,33.7,8.3-.4V320.5l4.4-31.7-1.2-47.1L95.2,204l-9.9-17.4-9.9-8.3L0,186.7v21.4ZM57.1,1574.3l1.3-10.3L0,1558.7v10.4Zm2205-627.2-11.9,21.1,33.8,18.4V958Zm10.7,196.3-16.1,11.5,3.3,5.8-18.3,10.4-15.9,9-17.9,10.2-10.9,6.2-7.4-5.9-29.5,13.2,2.3,11.1-18.5,3.1-16.9,2.3-32.7,4-20,2.9,1.2,9.6,15.4,13.4,8.4-3.9,31.6-2.9,16.9-2.3,19.2-3.1,3.2,16.6,6.8,11.9,13.4,5.1h11.2l8-1.4,6.9-4.4,7.5-6.7,2.7-8.1.9-9.8-1.4-8.1-2-5.2-4.3-7.4-4.1-2.9,7.2-9.7,11-8.4,10.3-2,10.3-.7v11.9l2.8,9.9,5.9,7.2,8.9,6.6,6.6,2,5.3.6v-79.4ZM318.4,11.4,304.4,0H297ZM1477.9,145.5l-18.4,57.2,32.1,8.9,6.7,3.5,26.1,5,3.4-11.5,67.8,17,18.8-43.8,15.2-35.4,14.5-33.7-42.6-20.3-39.7-5.8L1585.2,0h-67.9l-5,19ZM1818.8,678l-6.2-12.5-42.8,21.1,6.2,12.6Zm281-642.8-3.1,7.2-27.6-5.9-2.9,4.5-3.5,27.8-8.5,8.3-3.4,8.2,7.5,8.9-2,18.7,30.2,3.5,44.3-2.7-6.5-25.1,16.1-15.7-29.7-23.6,2.1-10Zm-78.7,91.2-3,2.7-1.3,5.4,1,3.6,4.2,4.3,6.5.7h14.1l4.5.2,1.1,1.3,2.9.4,3.4,1,.6,2.3h6l-.6-15.5-20.7-.9-3-10.4,3.5-6.8-1.4-2.5-5.5.6-4.1,5.3-1.3,2.9.7,5.5-4.7-.4Zm179.7,493.7-5.1,2.8,4.9,20.8,12.2,1.8,14.7-8.8,11.3-17.3,6.2-24.2-3.3-18.7-8.7-16.3-11.7-16.5-9.8-10.6-5.1-4-6.5,11.7,10.5,69.4-6,6.5ZM2155.9,78.9l-2.6,4.5,1.2,3.5,6.8-.4,8.4-3.6,1.3-2.7-2.2-3.9-2.7-2.4-5.4-6.6-1.9-3-2-2.1-2.1,1.3.3,3.7,1.6,2.4,2,3.9-2.4,2.4ZM1941.1,473l-5.9,6.8-4,10.2-.6,8,2.1,4.7,6.7,2.5,5.2-1.1,4.1-4,4.5-4.3,7.7-1.9,2.9-2.8,4.5-7.8,5.2-13.6,4.3-9.1,7.9-11.3-1-15.4-3.1-18.9,19.1,8.2,7,2.3,7.2,1.4,6.4-3.4,6.3-9.7,9.9-12.1,5.7-5,.4-3.2.3-4.4,1.2-2.9,1.7-3.8.5-5.1-.9-3.6-3.4-4.5-3.6-1.6-9.9-7.6-5.4-1.9-4.6.3-5.7,1.4-6.2,4.1-4.6,2.2-2.4,8-7,8.6-17.1.3,5.7,14.3-10.7,4.4-14.5,5.8,1.3,14.3-6.1,13.7-4.7,8-4.1,4.1,5.7,8.4-1.3,10.3Zm-283.4,908.2,13.1-19.6-30-23.5-21.4,25.7,22.3,13.9Zm68.2-18.9-8.5-.7-7.7,1.9-8.5,4-4.4,5.5-3.8,7.5-.3,9,4.5,12.9,7.4,6.8,13.9,5.8h11.3l7.6-1.1,3-7.3,5.3-24.2-.5-12.7-6.9-4Zm122.3-16.7-3.4-12.6-9.5-2.6-15.8,7.5,7.5,15.5Zm-163.1-17.5-28.2-19.4-4.8,8.4-9.3,16.4,29.3,20.6Zm584.2-801.4-1.8-24.1,9-.7,3.3-44.7V443.3l-4.2-8.7-10.8-7.3-18.8,1.9-18.1,4.4-7.3,3.5-3.1,4.8-3.3,4-7.7.5-13.9-1.5-7.3,3.4-10.3,9.5-5.5,9.1,2.1,11.6,52.6,43.4,21.3,3.1ZM1615,1311.8l-24.2,28.3,23.7,18,22-26.3-12.4-11.5Zm511.4-630.9-10-15.9-32.9,2.5-57.2,18.2-6.6,13-12.7-2.5,17-45.6-38.3-14.2,6.6-17.6,94.6,35.2,29.5,11,3.6-29.9-18.3-43.8-55.3-124.1-97.8,98.4-11.1,29.5,17.9,31.2,17.9,5.1,9.3,19-1.7,10.1-2.2,11.9,29.6,59.9,18.6-9.7,1.7,5.9,5.8,20.1,98.5-44.7Zm136.5-86.4,6.7,6.4,8.2,4,6.2.8V548.4h-2.2l-9.4,3.1-7.8,6.1-5.3,8.5-2.1,9.6,1.2,9.9Zm-83-71.8,3.1-5-4.7-7.2-6.3-4.1-12.7-9.8-7.8-5.8-10.4-4.5-12.3-4-8.4-1.6-10.6.5L2101,485l-7.4,6.5-5.2,6.4-3.2,6.7-2.1,6.5-2.8,10.2-.2,8.4,1.7,5.9,6.4,14.8,6.6,4.3,3.8,2.5,7.9,2.1,26.7-7.5,26.2-14.6-1.5-9.8,5.6-7.3,10.7-1.6ZM2229.6,73l-6.8,8.3-2.4,8.7-2.3,6.8-5.3,5.1-7,5.3-8.7,5.3-14.5,6-7.6,2.3-3.6,2.8-1.2,5.5-.3,5.7,4.5,6.4,5.5,4.2,4.9,4.3,16.1,5.5,17.8,8.3,9.2,7,25.8-11.6,14.1,13.9,2.8-2.2,5.8.9,7.6-2.6V78.1l-40.4-22.9Zm-85.9,69.5-7.6,3-17.6,12.6-11.6,9.6-4.9,14.6-1.4,17.2,27.9,17.4,1.9-4.4,4.6-4.3,10.1-2.1h10.2l6.2,2.8,5.3,5.1,4.4,7.3,3,8.8,1.2,5.5.2,5.1v4.5l2.7,4,5.6,2.1,8.8-.3,15.8-1.5,9-2,8.6-2.3,7.2-6.7,3.4-6.5,4.4-4.9,5.7-2.5,6-1.3h5.4l3.1,1.5,3.1,2.3,3.5,3.6,1.8,3.5v3.7l3.1,2.3,4.8-.4,6.5-1.2V179.3l-.9.5-7.7,3.6-65.1,29.5L2188.5,167l-10.3-8.6-11.9-7.3-8.3-6-7-2.6Zm13.8,478.2,8-7.4,5.9,1.1-3.8-24.8-12.4-1-7.6.4-8.4.5-7.1,3.4-6.7,4.6-4.6,4.4-4.1,7-.2,6.9,2.7,4.4,4.4,3.6,6.2,3.9,10.3.7ZM2137.8,42.3l-4.5-4-3.6-1.7-1.1,1.2-.6,6.1v3.6l.8,3.1,4.1,1.2,3.7-.2,6.4-1.5V48.7l-2.4-3.4ZM1858.7,801.2l8,9.1,13,6.3L1898,818h17.3l3.2-.3,1-.5.6-1,.2-1-.5-2.6-1.3-2.2-.5-2.4v-1.3l.4-.9,1-1.2,1.5-.6,3.8-.6,3.8.2,2.7.6,1.3.5,1,1,.7,1.2v1.3l-.5,2.1-.7,2v2.1l.5,1.2,1,1,1.4.3h3.2l22.7-.9,19.6-2.2,9.7-4.5,6.8-6.5,2.7-13.5.3-13.2-19.3-44.5-16.2-27L1952.1,693l-15.4-1-1.2-12.9-78,2.3-1.8,9.5.2,8.5.7,8.7,1.5,8.2,13.6-.3.2,7.6,52.3-.9v-7.5l17.3-.4v9.1l14.6-.2.2,8.9-87.5,1.4-8.2,3.3.9,13.8-3.3,11.6.6,13.1-3.1,11.9Zm116.4,122.5,6.7-10.6,13.2-14.2,11.4-6.6,21.5-4.4,16.8,1.9,13.4,7.4,10.4,10.4,10.6,9.2,17-6.2,5.3-4.1,3.8-4.5.8-6.1-7-20.3-6.1-13.8-6-9.9-7.4-6.7-11.7-5.4-7.1-1.3-6,1.9-4.1,3.7-3.4,6.5-13.5-1.6-1-5.4-2.5-7.7-3.6-2.7h-6.7l-17.5,3.2-25.1,4.5-11.2,3.9-11.7,6-8.2,6.3-6.9,8.4-11.2,18-10.8,14h-2.2l-2.8.6-2.5,1.8-12.7,12.7-6.3,5.5-6.8,4.9-9.5,5.5-15.7,6.7-14.5,9.4-5.5,7.3-3.2,8.9-2.9,35.1,2,10.6,6.9,8.7,12.6,3.1,15.1-2.7,11.6-5.4,8.5-6,8.7.3,7.7,4.4,5.7,7.3,21.1,44.3-12.6,31.4-5.7,26.6,1.9,8.3,6.4,6.8,11,6.2,12.4,5.3,7.9,1.9,5.5-1.7,8.7-2.6,10.3-2.1,12.6-.4,19.6,3.4,12.4,3.6,11.6-2.9,11.5-11.1,11.8-15.8,7-18.6,1.5-15-3.7-13-5.9-21.2-22.6-2.4-20.8-17.1-14.4-16.5-12.3,5.4-17.3-36.5,10.5-6.6-8.7-19.4.4-17.7ZM2127.7,233l-5.2-6.1-5.3-4.2-5.4-3.8-20.5-2.9-.5,20.9-19.2-1.8-1.4,13.9-36.4-3-18.2,28.5-8.8,17.8-.9,11.3,2.8,11.8,11.7,12.4,13.1,4.5,14.4,2,29.6-15.3,13.5-3.4,7.2-5.8,11.6-12,10.7-.4,8.9-3.5,5.2-10.2.9-9.4-3.9-13.9Zm59.3,66.7-24.1,17.5-37.7,69.5-.4.6,10.1,28.8,20.7,20.4,39.1-16.9,89.3-16.7V272.3l-70.4,15.5Z"/>
  <path id="water" class="cls-4" d="M1847.7,256.7l-1.6-2.4-1.7-1.6-5-3.5-6.3-3.3-7.1-2.1,8.5-30.9-7.1-1.9-6.9-.6-7.3.9-7.6,4.8-7.9,7.5-2.6,4.9-1.1,3.6-.9,4.7L1792,240l-3.4,7.7-5,7.4-4.5,5.3-4.3,4.3-4.3,3.4-2.2,3.3-.8,8.9-1.5,21.1,7.6-4,.4-4.9.3-6.9.7-9.7,1.3-3.5,4.5-3.2,5.5-2.5,4.1-4,2.1-4.6,1-5.3,1-3.7,2.6-3.5,4.8-1.7h4.9l6.6,2,7.2,2.7,7,2.3,5.1,1.9,5.6,3.3,3.3,3.1-1,1.3-2.4-.8-2.7.3-1.8,1-2.6,3.3-5.2,5.2-5.7,4.1-2.8,3.7-1.1,4.4,1.4,3.2,1.4,1.5,4,1.8,3.1,2.7,2.2,3.1,1.9,2.4,1-.7,9.6-4.3,7.5-1.8-.4-5.9-.8-9.1-1.1-4.9-.3-5.2.9-5.2Zm-5.8,22.9-.7,1.6-1.9.6h-1.7l-2.4,1.3-2.3,1.5-3.2-.4-2.1-1.1-3.1-2.1-2-1.2v-2l1.4-1.2,2.1-1.1,2.3-1.1,2.4-1.7,2.3-2.3.8-1.8,1-2.3.7-1,1.1-.6h1l2.3,1.9.9,2.1.6,2.3.5,2.6.5,3.3ZM1524.1,993.8l-7.2-1.6-2.8-5.1,1.1-5.6,2.8-2.6,4.4-1.1,6.4,3.5,1.3,6-2.2,4.3Zm104.1,145.7,12.2-47.1-15.1-3.6-2,10.5h-6l.2-16.9-.5-6.3,3.6-15.6,11.2-4.4,8.8,1.4,7.5,11.1.2,22.8-2,14.9,5.6,8.1,5.3,5,10.9,3.6,11.2,1.4,14.8-1.1,21.3-11.9,9.7-9.6,7-12.8.8-15.2,4.9-12,18.8,2.6,27.8,24.8,6.9,5.9,16.7.2,11.2-6,7.6-10.3,8.5-9.3,15.1-9.3,7.8-4.7,9.1.6,10.7,5.8,3.1,7.4.3,12.5-4.7,18.3-19.5,25.3-22.7,11.3-11.8,1.9-8,3-11.9,11.2-12.5,15-4.2,6-.5,7.2,4.3,8.2,7.9,7.2,12.5.5,8.4-1.8,5.7-5.7,5.7-4.5,6.5-2.2,6.5-1h6.2l1.8,5.7-4.6,2.9-6,.3-5.8,1.6-4.4,5.1-6.2,4.5-6.4,2.9-7.5,1.8h-4.9l-5.6-.9-9.5-3.5-16.2-14.7-6.6-9.2-16.9-4.9-13,4.3-44.5,5.2-13.2,11.2,3.2,18.7,11.3,2.4,11,7.2,39.5,9.2,22.8,1.7,18,2.1,14.4,7.5,6.5,9.5,2.8,10.8-2.6,2.5-.8,5.1.4,33.5,11.6,5.4,16.4,3.1,10.5,4.2,10.7-.4,2.5,8.7-15.5-.3-16-3.2-27.5-9.8-1.6-59.4-14.4-9.8-10.7,2.3-16.9,4.6-13.1,4.7-28.8,1.3-44.6,5.5-24.2-13-41.4-24.8-20-1.5-15.2-5.9-7-30.7,11.2-10.9,10.5-7.8,13.3-5.9,12.9-7.3,4.6-5.8.4-11.3ZM2051.5,18.3l-10.4,19.2-4.2,20.7-3.2,14.2-2.6,12.5,1,11.9,7.3,10.5,17.8,3.6,2-18.7-7.5-9,3.4-8.1,8.5-8.4,3.6-27.7,2.8-4.6,27.6,5.9,3.1-7.2,13,4.1-2,10.1,29.7,23.5-16.1,15.7,6.5,25.2,44.8-9.5,8.6-4.3,6.4-8.9,2.1-8.6.5-9.1-4.8-12.9-9.9-11.6-60.7-44L2113,0h-36.8l-1,.2Zm106.1,49.3-1.5-2.5-.4-3.6,2.1-1.4,2,2.1,1.9,3,5.5,6.7,2.6,2.4,2.3,3.8-1.4,2.8-8.4,3.6-6.7.4-1.3-3.5,2.6-4.5.3-3.1,2.4-2.3Zm-28-31.9,1.1-1.1,3.6,1.6,4.5,4,2.9,3,2.4,3.4v1.5l-6.4,1.5H2134l-4.1-1.1-.8-3.1-.2-3.7Zm47,203.2v4.4l2.7,4.1,5.6,2.1,8.9-.4,15.7-1.4,9.1-2.1,8.6-2.3,7.2-6.7,3.4-6.4,4.4-4.9,5.7-2.5,6-1.4h5.5l3,1.5,3.1,2.4,3.6,3.5,1.8,3.5-.2,3.7,3.1,2.3,4.8-.3,5.4-1.1v9.5l-5.7.2-8.2-3.5-6.7-4.8L2256,236l-9.4,2.3-3,3.7-4,6-11.5,5.9-16.1,4.2-17.7,2.3-12.9-.3-6-3.1-5.8-4.9-4.9-7.6-2.4-12.7-10.6-8.3-9.5.2-7.8-.2h-2.1l-2.1-1-1.4-3.4.7-4.2,1.9-4.4,4.6-4.3,10.1-2.1h10.3l6.1,2.8,5.3,5.2,4.4,7.2,3.1,8.8,1.2,5.5Zm107.1,1104.6-2.2.7-2.2-.2-2.1-1.3-1.3-2.4-.3-3.1,1.2-3.2,2.3-1.2,1.7-.8,2.6.5.6.8v-40.8l-2.2-1.7-3.8-1.1-6.7.8-9.5,1.8-23.7,13.5-5,2.5-1.9,5.2-.7,5.6-1.8,15-.2,15.9,1.5,9.7,5,9,8.1,5.7,9.5,3.4,10.8.6,8.6-2,5.4-2.4,4-2.9,2.6,2.3v-30.1Zm-17.3,10.3-5,.8H2257l-1.7-3.7-4.1-4.3-2.2-5,.3-3.6,4.3-.5,3.4.2,2,1.7,2.1-1.9,4.4-2,4.3.2,2.9,6.1.4,7.9Zm6.6-30.4-2.3.3-1.7,1.4.5,2.3.8,1.4-.5,1.2-2.2.7h-3l-1.8-1.3-1.3-2.3-.5-1.9v-2.6l1.4-1.4,2.4-1.3.9-1.9v-2.6l1.2-.8,2-.4,3.8.4,1.8,1.4,1.3,2.6,1,2.3-.8,1.3-1,1ZM2127.8,918.1l4.8,3.1,2.3,5.2-.8,5.6-3.7,4.3-5.5,1.6-5.5-1.6-3.7-4.3-.8-5.6,2.4-5.2,4.8-3.1ZM2083.6,1383l1-3.9-.6-8.9,25.2-4.9v2.7l.9,1.3,1.2,1.6,1.3,3,1.6,2.8,3.3,2.9,4.6,2.1,5.5,1,6.2-.2h4.2l3.6-1.9,5.3-2.9,2.1-1.2,2.7-.8,3.6.4,3.2-.6,3.1-1.3,2.5-.3,5.3.2,4.6,1.2,3.5,1.6,4.3,1.2-.2,2.2-1,4.4-2.1,6.1-2.8,3.4-3,3.7-4.4,4.7-5.7,3.1-8,2-1.9-.9-4.5-.5-4.3-1.2-4.1-1.8-4.8-3.5-5.5-4.5-8-3.3-6.6-1.2-4.1-.4-2.6.4-2.9,1h-4.1l-3.4-.9-2.6-.2-4.2.4-3.3-.3-.6-1.2-1.2-.5-1.8-1.2-1.2-2.3Zm194-1213.4,6.4-2.2V178l-7.5,3.4-7.6-10.6,2.8-2.1Zm-441.7-32.1-2.2-5.7-2.1-4.7-3.5-4.5-5.4-2.6-8.1-2.6-6.3-1.9-11.9-1.4h-10.1l-10.8,2-8.1,2.7-12.2,5.4-17.4,9.8-10,7.3-6.3,5.4-5.6,3.2-5.9,1.1-8.9-.6h-7.6l-7.9,3.3-12.3,11-8.2,12.1-3.4,10.6-2.2,6.6-5.2,8.5-4.6,5.9-5.4,9.3-.8,9.3,2.6,4.6,2.1,5.3,2.8,3.3,4,1.8,6.9,9.7,3.6,4.2,4.4,3.2,8.4,2.6,10.1-2.4,4-.8,7.6.9,5.8-.3,6.9-2.3,7.8-5.4,10.2-3.9,8.8-1.5,9.2.3,5.2-1,4.1-2.1,4.5-6.5,1.3-7.2,2.8-10.8,1.8-6.5,3.4-3.6,4.4-1.6,4.7-1.3h3.2l1.9.8,4.9,2,1.4-2,4.1-4.4,6.5-4,6-1.8,3.6-1.1,5.8-.3,4.1.2,8.3-14.1,6.4-14.4,2.2-8.6-1.2-11.9Zm-87,87.8-2.8,4.2-6.2,3-5.1.7L1728,235l-3.2.8-2.8,2.3-4,4-4.7,3-8.2,2.2-11.9,2.1-10.8-.9-9-3.5-8.5-5.9-5.1-9.6-1.2-9.6.4-7.6,1.7-5,2.6-5.7,6.4-8.4,4.6-5.2,3.4-5.8,2.6-9.8,1.9-4.5,3-2.6,4.1-2.8,5-1.3,5.1-.3,4.8,1.2,5.1,3.5,5.4,6.6,4.3,5.1,4.3,5.5,3.4,7.4,2.2,8.1.3,3.9,1.9,3.3,4.9,2.6,6.1,1,3.6,1.5,2.5,3.1,1.7,7.5Zm69.3-43-1.1.7-19.4,1.7-9.6,2.5-9.3,3.3-10.2,5.6-6.7,4.1-5.5,4.7-9.3-11.4-8.2-9.3-18.3-22.8,18.1-12.7,15-7.9,12.4-5.1,13.4-4.2,16.6-3.3,17.4-1.4,6.4.5Zm-95.6,833-20.4.8,2.3-9.8,1.2-4.9,4-19.9,2.5-.3,5.4-2.8,2.5-4,11.6-1.4-.8-9.2,12.4,20.2,2.2,9.8-9.7,11.5Zm277.5-657,8.1-6.8,7.8-1.5,6.4-.2,8,2.4,6.2,4.2,4.2,2.1,5.2,1.1,4,2.2,4.3,5.1,1.6,6.6-.3,12.2-2.9,11.6-7.6,8.8-5.2,5.3-6.1,7.5-5.7,7.4-5.7,4.9-7.2,4.1-8.4.8-1.9-7.6,3.7-4.6,7.2,1.4,6.3-3.4,6.4-9.8,9.9-12.1,5.7-5,.4-3.2.3-4.4,1.2-2.9,1.7-3.8.5-5.1-.9-3.6-3.4-4.5-3.6-1.6-9.9-7.6-5.4-1.9-4.6.3-5.8,1.4-6.2,4.1-4.6,2.2ZM1709.3,719.6l-9.1-13.2-6-17.2,30.3-10.7,4.6,13.1,3.3,4.7,6.2,4.3,5.9,1.1-5.9,31.6L1726,731Zm320.9-603.3-1.3,2.8.7,5.5-4.8-.4-2.8.2-3,2.8-1.3,5.4,1,3.5,4.2,4.3,6.5.7h14.1l4.5.2,1.1,1.4,2.9.3,3.4,1.1.6,2.2-.4,3.3-2.9,2.7-3.9,1.7-3.7.3-5.1-1.2-10.5-2.5-6-1-4.7.3-5.1.3-5.1-2.5-3.3-5.5-1.9-4.2-.3-5.4,1.3-7.1,2.7-11.8,1.3-5.5.6-4.2.7-2.5,2.1-2.3,2.8-1.3,3.9-.2,3.5.7,2.5,1.1,1.8,1.4,1.8,2.8.2,2.2,1,2.1,1.5,1.4,3.5,1.5Z"/>
  <path id="build" class="cls-5" d="M2154.1,1355.3l-1.4,2.4,2.7,1.7-8.1,11.6-4.9-3.2-4.2,6.3-11.8-7.6,13.8-19.8Zm105.7,298.4-4.1-17.1-45.4,6.8-29.2-2.4v5.1l29.7,3.5,20.6-2.2-31.6,129.9-12.1-.7-.7,6.4,9.6,1.9-.5,3.5,12.5.7,9.1-.5,1.2-9-9.1-.3.3-4.7,12.7,1.3-.5-5.4-10.3-3.2,28-109.4ZM1974.4,921.6l-3.7,16-.5,17.6,8.3,18.9-10.5,6.6,18.6,39.3,12.5-5.7,13.8,16,21.3,17.4,23.3,2.5,6.6-.3,6.2-1.5,13.2-4.1,14.5-12.5,11.3-16,3.6-19.8-1.2-16.7-4.2-12.8-3.2-7.1,10.1-4.7L2094,916.5l-9.8,4.4-3.2-5.6-10.7-9.6L2060,895.1l-13.8-7.6-17.6-2.2-21.9,4.5-11.7,6.6-13.8,14.7Zm-210.2,887.9,5.9-37.3-53.8-8.6-2.2,13.7-8.5-1.4-2,12.5,8.8,1.5-1.7,11Zm94.9-1096.1h-4.7l.3,16.4,13.5-.2v4.7l90.7-1.5-.2-12.3-14.8.3-.2-9.1-20.6.5.2,7.6-49.3.7.3-7.3Zm127.5,1065.2-31.4,187.1,96.9,15.5,12-77.5-21.8-1.3,18.6-112.8ZM2284,1885.2V1777.1l-55.6-8.6-5.3,25.8-150.9-23.8-10.5,52.2,152,26.5,1.7-12,15,2.7-5.4,35.3ZM2279.2,28.9l4.7-8.1h.1V0h-56Zm-82.1,1880.4,7.8-42.4-43.2-7.1-9.3,42.4ZM1951.8,947.4l15.7-2,2.4-16.9-13.7-6.1-11,10.8Zm323.7,191-7.6-11.5-10.5-12.5-9.1-9.6-2.4-1.9.2-4.2-16.2-8.1-3.4,2.7-15-.2-12.7,1.9-12,4.5-15.3,10-8,12.5-4.5,8.4-3.4-.3-1.7,8.6-.7,10.3,3.9,1.7,1.7,16.9,1,6.7-3.7,1.4-2.9-9.3-103.5,14h-.5l-16.7,18.1.5,29.2-82.2-5.6-.5-6.4-22.5-.5-1-22.6-9.3-4.4-1.5-5.6-13-2-2.2,4.2-2,2-2.7.7-7.1-.5-4.4,6.4-1.7,1-6.4.2-2.2,1.7-2,2.2-1.4,2-2.2.5-8.6-1.2-10.3,43.9,24.5,29.4-1,14.2,38.3,5.2,56.6,5.9,51.8,1.2,1.7-9.8,64,2.2-3.2-28,12-14.7-16.2-14-.9-7.3,18.4-2.7,32.6-4,16.9-2.2,20.1-3.4-2.4-11.5,27.4-12.3,7.4,6.1,65.5-37.2-3.5-5.9,15.7-11.1ZM2186,539.3l-3.4-19.2-6.9-4.9-12,1.8-6.4,8.3,9.8,63,4.4,29,5.9,4.9,9.4,2.2,10.5-1.2,5.6-3,4-3.7,6.3-7.1-10.7-71.8ZM2013.4,212.8l-1,5.7-.5,5.1,5.6,4,16.7,3.1-1.5,15.3,39.8,3.1,1.4-13.9,19.4,1.7.5-22.6,1.7-25.3,3.2-28.2-16.7-1.9-2.2,26.7-18.4-.2-1.9,15.7-4-.8,4.9-32.6-15.7-2.7-5.8,45.9-12.8-1.7-6.1.2ZM1811.3,327.9l-4,13.5v.2l.8,16.7,5.4,19.1,16.9,1.2,11,3.5,6.4.5,6.1,12.5,28.5,15.7,10.8,15.7,9.8,24.7,10.5,2.5,13.8.5,6.1-1,6.1-2,2.7-1.7,6.7-6.4,4.9-8.1,6.1-13.7.2-.5-1.2-13.5,25.5-10.3-6.4-15.9-14.2-17.7-15.7-10.5-10.3-3-8.3-1.2-.3-8.6-1.7-13.7-6.4-16.2-7.8-10.5-7.1-7.9,1.9-6.9-24.7-13-2.7,5.9-7.9-1.9-4.1-.3-3.7,1.5-2.7,3.4-.8,5.9-12.2,1.7-9.3,2.2-9.9,4.5-12.2,8.8,6.6,6.1-8.3,9.3Zm173.6,308,38.3,14.2L2006,696l15.7,3.2,6.9-13.5,57.4-18.4,3.9-15.7-97.6-36.3Zm75.5-518.7-20.1-6.1-4.4,8.5,3.5,12.3,20.3.7.7,15.5,8.4.5,1.5-7.4,51.2-2.4-3.9-23.6-40.5,3.5ZM2198,691.1l7.6-3.4,3,6.8,36.3-16.4-10.8-23.8-43.9,19.6Zm86,142.8-15.8-8.4-45.4,84.6-.7,1.5,61.9,33.3Zm-43.5-671.1,2.9,7.1-34.6,16.9,12,18.4,43-19.6-12.1-26.7ZM2273.6,618,2250,628.8l4.7,10.1-16.7,7.6,9.3,20.1,18.9-8.9,7.6,16.5,10.2-4.7V628.3l-4.8,2.2ZM695.1,128l1.5.7,54.2-116L756.7,0H613.9L579.3,73.8Zm127.3,6.6-3-5.6-4.4-4.7-5.6-3.4-6.1-2-6.7-.2-6.1,1.4-5.6,3.2-4.7,4.4-3.4,5.7-2,6.1-.2,6.6,1.4,6.4,3.2,5.6,4.4,4.7,5.7,3.4,95.6,49.6-7.6-16.7-6.6-9.1-15-15.7-4.9-3.6-4.9-3.5-3.4-1.4,2.7-3.5-5.7-1.5,2.5-3.9-4.4-1.2,3.4-8.6-16.9-1.7v-4.7ZM364.7,608.4l-47.3,62.8-1,1.3,60.3,45.3-7.6,10.1,2.2,1.5-.9,1.2L388,743.8l1.3-1.4,12.5,9.3-1.5,1.9,17.4,13,1-1.4,2.2,1.4,7.6-10L488.8,802l47.1-62.8,9.6,7.3-36.1,47.6,41,30.2,109.4-145,1-1.2-23.6-18.9L659,675.4l11.1-14.7-24.6-18.2-10.7,14.7-13.5-10.7-43.7,57.6L568,697l34.4-45.6-63.3-47.6-21.6,28.9-43.4-32.4,25.3-33.6L427,526.5l-6.4,9.3,17.2,9.4-5.6,7.3-16.7-9.1-7.6,9.4ZM321.8,144.2l-23.3,44.4,92.7,51.5-15.9,31.6-4.4-2-15.2,30.5V306l-5.2,13.8,2.5,1.9-5.9,14h-7.4l-3.9,8.6h-3.2L297,416.2l-4.4,1.2L218.8,556.9,82.7,482.4l17.6-32.1,48.8,25,46.6-84.4-6.1-4.7,30.2-52.7,6.1,2,21.8-43.4-4.6-1.5L259,257l7.9.7,18.6-40.2-5.1-2.5,10.8-23.7L245,167.2l-5.8,7.4-2.7-2.7L144.5,345l4.6,5.2-10.5,14.9-12.5-6.6v-4.4l-8.1-.7-2,4.6,47.4,25.5-29.2,51.8-13.7-8.6,3.4-5.9L70.4,393.6,50.1,429.9l7.3,5.1L41.7,465.2l-5.9-2.7-7.3,4.4-4.7-5.1-7.1-2,.7-5.4L0,445.4V404.2l5.2,3.4,9.5-12.5-3.9-4.9,3-4.5,5.4,1,2.7-1.9-3.2-4.9.2-4.5,5.9,1.3,5.9-11.8L8.6,351.4,0,353.3V259.2l55.5,28-2.5,8,52.5,29.5,92.7-171.5-8.6-5.4,7.1-11-34.3-19.9-2.7,3.2-11.3-4.6,2.5-4.4-26.3-15-3.4,3.2L95.7,85.6V80.9L70.2,67.6l-3.5,2.7L53.5,63.2V57.8L10.3,33.3.5,50.2,0,49.9V0H23l93.5,50,2.5-6.1,23.5,13-1.4,5.8L264.7,128l3.2-3.9,15.6,6.1,4.7-5.2ZM298.5,355.8l-34.1-20.6-7.6,10.1,34.6,20.3ZM309.8,242l36,19.2,5.4-9.4-37-20.1Zm-13,32.6-4.2,1.8-16.4,24,.2,3.9,23.1,15.2,4.4-6.1-10.3-8.3.7-7.2,8.6-8,5.4.9,5.9,4.4,4.2-6.6ZM1063.2,13.9,1071.6,0h21.3l-3.4,5.6,15.2,8.8,17.4-3.9,18.1,5.6,13,14v.5l4,17.2,12.5,8.1,9-14.7-7.1-4.2,10.8-17.7,1.5,1,9.8-16.2,15.2,9.3-9.6,15.7,18.2,11.1-11,18.1-12.3-7.6-8.8,15.2,24.2,15.5L1189,113.8l-31.1-19.9-8.1,13.2,24.5,14.7-11,18.4-6.1-3.6-9.1,15.4-20.9-12.5,9.8-16.4-18.8-11.3,10.5-17.4,12.3,7.3,7.8-13.5-12.2-7.8-17.5,3.9L1101,78.7l-.3-.3L1088,64.7l-4.2-18.6.8-2.2-14-8.6-21.1,34.8-8.6-5.2,9.3-15.2-7.1-3.9ZM1076,26.4l11.8,7.2,1.2-4.5-4.7-2.7,4.4-7.3-6.1-3.7ZM484.7,451l53.4-102.8-41.9-22.5,18.9-35.1,2.2,1.5L581,168.9l33.9,18.2-.7,1.5L551.4,309.7l64,33.6,4.9,3.2,4.2-7.8,13.4,7.8L637,349l123.1,65.4,2.2-3.9,24.5,13-2.2,4.2,125.3,66.2,1-2.9,14.2,7.8-.9,2.5,3.6,1.7,99.9,53,38.5-81.5-98.1-51-1.3,2.7-14.7-7.3,1.2-3-101.7-53-7.4,13.8-8.8-4.7-3.2,5.9-51.5-26,3.4-6.4-7.8-4.4,7.3-14-89.7-48.3,3.9-6.6-19.1-9.6,13-24.3,18.4,9.6,2.6-5.9,48.1,25.8-3.2,7.3,49.6,25.8,1.2-2.2,51.7,27.2-1.2,2,50.1,26,2.9-6.2,31.4,16.5-.5.7,28.5,15.2,4.9-8.8,154,79.9-72.4,155.3-1.4-.8L910.2,529.5l-8.1,16.6-1.5-.7L792.5,487.5l7.8-16.4-21.6-11.5-21.3,40.2,2.4,1.2L752,516l-2.2-1.2-21.1,39.9-14.5-7.6-10,19.2,155,80.9,1.2-2.2,16.9,8.8-4.4,8.4,14.5,7.3,25.7-52-15.9-8.1,13.7-26,15.2-27,39.5,19.4-13.7,27.7-11.6,21.9,34.6,16.2,6.2-11.8,12.2,5.6,10.1-19.1,42.4,19.6-18.9,40.7,2.5,1.3-15.2,31.6-10.6,22.8-2.2-1.2L983,770.8l-1.4-.5-5.7,10.8-16.2,34.3,1.5.8-7.4,15.9-1.4-.7-14.3,30.4,1.5.5-14.5,30.9-45.3-21.8.7-1.5,20.6-43.4-86.8-41,20.6-44.1,2.4,1,13.3-28.7,18.4,9.5,6.6-15.2L855,698l-8.8,16.9-1.5-.8L728.9,653.6l14.5-27.5L714,610.6l-13.8,26.5L689,631.3l-9.6,18.3-40-20.8,24.3-46.4-4.9-2.7,8.3-15.9,5.4,2.7,17.9-34.1L740.2,438l-22.1-11.8-9,17.2-1.5-.8L599.9,385.7l2.5-4.6-3.9-2.5-24.8-11.7-47.1,91,3.4,1.9-7.1,12.8-3.2-2-1,1.5L506.2,465l-1.2,1.7-8.6-5.2.8-1.7-12.8-7.1ZM878.3,761l43.9,20.8,1-2.4,6.1-1.5,2.2.8,7.4-14.8-3.7-2.2,13.2-28.9-12.2-6.4,5.6-12.3-34.6-15.6ZM464.5,378.4,428,359.8,409.4,396l36.5,18.7ZM1023,2280.9l-23.8-68.2-13.7-40-94.9,33.6-2.2,1.5-3,2.9-1.5,3.2-.5,2-7,68.1h151.3ZM49.1,2189.6l1.9-23.5,6.4-66.7,4.2-44.2,8.3-95.6,6.2-66.2-30-2.7-.7,8.5L0,1894.7v22.2l29.9,2.9-3.4,34.4L0,1951.5V2284H40.3l.2-.7ZM469.7,61,347.4,0h-12L471.7,67.9l29.1-51.8L507.9,0h-5.6l-6.1,13.9ZM1675.6,1824.2l-3.2,19.1,16.5,13.5,18.6-8.3,2.7-19.9-15.9-12.7Zm69.4-444.4-5.8,27.4,37.2,8.1,5.9-27.4Zm-132.9-242.1,17.2,3.9,13-50.2-18.4-4.5-2.2,10.8h-3l.3-16.9-18.2-.5-1.4,37.5,16.6,1.5Zm-50-170.4,31.6,8,3-15.2,7.8,2,34.8-132.2.5-1.5-8.1-2.2,4.7-14.9-51.3-13.5.5-2.5-26-7.3-11.5,43.4,12.8,3.7-1.8,7.6-3.6-1-3.5,11.8,3.5,1.4-19.4,49.8-.3,2.5-5.8.9,1.4,10.6,5.9-.5.3,3.2,4.6,1.5-9.6,36.5Zm85.3,381.1,15.7-28.5-11.3-5.6-9.3,16.7-4.6-1.3-13.3-12.2-12.7,11.5,23,24Zm-80.7-746.6-4.4,1.2-5.1-20.1-6.2,1.3-1.9-5.7-16.9,7.1,7.8,20.6,3.9,17.9,8.1-.9,1.3,17.6,16.6-.7-1.7-18.7-8.8,1-.3-3.7,11.1-2.4Zm-28.2,128.3,9.4-22.1,5.6-19.4,11,2.7,3.7-18.6-16.4-2.7-3.5,17.2-7.3-2-6.9,19.6-8.3,17.7Zm89.8-39-52.5,9.6-20.3-6.9-13.8,33.3,9.3,3.5-6.6,32.1,59.6,13,2.5-10.5,22.3,4.9,6.6-14.5,21.3-9.6-7.8-16.6-4.4-10.8-3.2-6.7.7-16.4.5-6.6,1.5-54.2-34.6-2-.7,13.5,22.5,1.2-2.4,40Zm-215.8,501.5,17.6-18.1-2.7-2.5,6.7-7.1,2.7-10.3,2.4.8,29.7-92.2-5.2-1.8,8.1-25.5-8.8-2.9,1.5-6.6-8.9-2.7-1.7,6.3-9.5-2.9,4.1-15.7-9.5-3.2-12.1,38.5,3,1-23.8,76.5-8.8-2.7-10.1,31.2,3,2.7-8.4,7.8ZM1656,50.5,1594.9,34l-9.3,35.1,61.1,16.5ZM1340.9,1173.3l-146.2,192.3L1232,1396l12.2-20.1,5.2,3.9,66.9-88.8-4.4-4.2,19.9-24,5.6,2.2-1.7,5.9,54,43.9-42.2,69.6-4.4-3.1-21.9,36.5,92.3,68.9,27.9-29.7-2.4-4.4,55.4-60.3,26,23.3-11.5,71.1-16.5-2.4-11.7,77,638.4,106.4,47.3-80.4-15-9.4,1-14.7,71.1,11.3,2.3,15.2,5.8,2.2,12.1,43.9,40.3.7V1453.8l-112,22.6,10.1,36.3-75.3-12.5-.7,3.9-7.6-1.7-7.4,49.6,1.5,4.1-22.3,43.9-85.4-15.2v-13.5l-28-8.6-7.3,6.9,4.4,9.3-96.9-13.5,1.7-13.4-30.9-8.4-2.7,14.7-92.9-14.2,1-14.7-29.7-4.4-5.6,4.1,2.7,9.1L1606,1523l1-10.8-30-9.3-5.1,5.2,2.4,11-25.5-5.2,16.7-108.6-46.6-33.4-15.2-27.2-26.5-26-34.1-20.6-33.1-12.3-53-41.4,2.5-3.9-6.9-5.9,25.8-32.4ZM772.8,16.1l14,6.4,5.7-12.2-14-6.4ZM776.3,2249l-1-.5,1.2-2-8.6-4.6-.7,1.4-11.8-7.3-33.1,36.3,12,9.8,2.8,1.9h24.2l14.5-33.8Zm79.2-647.3,2.9-.2,2.5-.5,2.2-1,2.2-1.4,2.2-2.5,45.9-97.4,29.2-56.1L969,1395l2.7-5.2.5-2.9-.2-3-.7-2.6-1.5-2.7-1.2-1.5-59.9-38.3-69.2,87.8L789.3,1486l-84.4,85.8-.5,5.9L851.8,1601Zm663.7,588.7-60.1,93.6h-161l3-21.3,3-3.9-13-7.1-4.2-14-36.3,12.7,9.3,27.3-3.7,4.4-1.2,1.9H1093.5l-.8-2.4-45.2-131.5,11.3-4.4-1-2.7,16-5.6-1.5-4.2,27.2-9.8,2.5,6.9,4.9-1.7-2.5-6.7,27.7-9.8,2.5,6.6,4.2-1.4-2.5-6.6,27.5-9.6,2.2,6.6,5.1-2-2.7-6.6,28-9.8,2.2,6.9,4.9-1.7-2.2-6.7,26.7-9.3,1.3,3.5,16.2-5.9,2.2,6.1,10.7-3.7-1.2-3.7,29.5-9.8.9-5.1,12.1-4.2,4.4,3.4,27.9-9.3,70.7-24.7,48.8-17.9,59.8-21.1,10.8-3,10.3-.5,10.8.8,11.5,2.9,6.9,2.9,7.8,4.5,2.5,1.9,7.3,6.2,7.2,8.8,6.8,12,3.7,15,1.2,11.7-.9,9.8-2.7,11.3-6.4,12.3-2.5,3.9-47.1,72.4Zm-141.8,26.7,2.9-5.2-16.9-11.2-1.9,1.4-10.6-26-35.3,12.3,7.1,23.3-6.4,2.2,12,14-11.5,9.1,22.8,14.9,8.9-13,9.3,5.7,11.8-17.5,6.3-11Zm53.5,28.7-3.5-2.2-1.4,1.9-8.4-5.4,1-1.9-20.8-13.3-8.6,13.3-10.3,16.4,20.8,13.3,1.2-2.2,8.6,5.8-.5,2.2,3.5,2.3,2.9-4.9Zm63.2-110.4-33.6-22.5,13.5-23.3-1.9-1-4.9,1.9-1.5,2.7-2.5,3-2.9,2.4-3.2,2-3.7,1.2-3.6.5-4-.2-3.7-1-2.9-1.2-9.3,3.4,2.7,8.1-19.4,6.6-2.2-6.9-15.5,5.2-6.1-18.6-6.1,1.9,6.1,18.4-15.7,5.4,2.5,7.4-17.4,5.8-9.4-27.9-9.3,2.9,3.9,11.3-39.7,13.5,5.9,17.7-2,.7,5.4,3.4,26.8-9.3-.5-1.5,12.2-4.4.3,1.7,10.5-3.6,14.7,44.4,17-13.3,5.4,8.3,1.7-.9,4.4,7.6,8.8,5.1,3.5-3.7,9.5,6.9-1,2.2,21.6,14,20.4-29.9-23.6-15.2-1.2,1.7-10-6.9,2.4-4.6-12.3-8.4,14.8-11.5,39.2,25.5Zm20.4-32.8,10.5-16.5,1.5,1.3,8.6-13.5-17.2-39.8-2.9,1-9.8-2.9-1.5-4.4-22.6,8.3,18.2,52.2-1.7,2.7Zm478.5,50.2-3.7,5.4-2.7-1.7.3-1.2,2.9-4.7-111.1-72.1-9.1-5.9-18.1-7.6-26-7.8-17.9-1.5-14,.3-26.5,3.1-16.9,4.7-13.3,5.6-20.8,11.6-11.3,7.8-1,.8-13.7,14.2-3.4,3.2-6.9,9-7.4,11.1L1572,2284h134.4l7.2-11.5-6.6-4.1,12.3-18.9-46.6-30,2.4-3.9,6.9,4.2,2.5-3.7,8.1,5.4,2.9,1,2.7-.7,2-1.5,9.5-15,52.3,34.1,4.1-7.8-7.3-4.7,4.6-7.4-1.9-1.7,8.3-12.7-13.5-9.1,9.3-16.2-15.2-10-4.1-2.2-12,21.3,1.7,1.2-3.2,5.7-4.7-3,.3-1-24.3-15.9-.8,1.2-4.6-2.9,6.6-11.6,1.2.8,5.4-9.8,3,2.2,4.4-1.2,3.2-2.7,2.9-2.3,16.2-4.1,56.7,36.3,27.2,17.6,2.7-3.4,14.5,9.3-4.2,6.4,8.8,5.6-14,22.4,68.3,44.3h4.3l9.8-16.1,23.7,16.1h98.9l46.4-71.8Zm-943-921.2-14.2-10.7-7.2,9.3,14.3,10.8ZM919,2017.9l14-147.4-7.4-.9,1.3-15.2,8.5,1.4,2.7-24.3-6.1-1.2.5-14.4,8.1.7,11.8-123.1,134.1,11-5.9,63.8-28.9-3.2,2-16.9-48.6-3.2v15.7l-15.9-1.3-2.7,23.6,9,.5.8-4.7,25.7,2.7.8-17.9,19.6.7-1.5,24.6,38,4.6-.5,18.7-39.5-4.4-1.2-7.9-10.5-1.2-.5,18.6,10.5.5-2.7,21.1-31.1-2.4-.8-7.9-18.3-1.5-4,43.7,20.4,1.2.7-5.9,30.4,2-1.4,12.5,29.6,3.2-2.4,14.9-7.1-1.2-1.3,42.2,53.5-15.9,3.2-29.5-3.4-1.4v-11.1l25.5,3.2,1.9-20.3,23.8,1.9-1.4,11.8-5.2.5-3.2,14-4.6-2.5-.8,15,3.5,5.1,11.7-1.9.5-5.4,26.3-4.7-13-6.1-13.8-39,17.2-5.9-3.2-6.1,50-17.2,5.4,5.4,50.8-19.1,9.8,26.9-7.1,2.7,3.2,7.4,6.1-2.7,6.2,14.5,15.9-5.4-9.1-29.7,11.3-3.9-18.6-53.5-72.4-5.9,12.5-146.2-240.1-23.8,2-20.3,48-87.1,21.9-32.1,7.1,5.4,10.5-14.7L1216,1545.3l4.2-1,15.2,14,6.4-4.6,6.8,6.8,31.9,1.5-1.9,28.7,11,5.2,2,9.3-5.7,8.3-8.3,4.2-8.4,116.7,44.4,4.9,48.6,137.1-264.1,92.2v6.2l-25.1,8.3-1.9-2.7-137.6,47.8Zm202.4-462-1.3-3.9-29.2-20.2,8.9-16.9-10.6-8.1-36.8,66.7.5,3.5,55,2.4ZM1016.1,1899l13.8,1,.5-11.1h-.8l-13,.3Zm-59.6,72.1,12.1.7,12-5.4,2.4-22.3,26-8.8.3-16.9-.3-.8-30.1-4.1-.8-4.9-9.3-1-5.9,52.7-4.4.7ZM213.9,1632.2l-5.2,54.2-6.3,75,35.5-11.3,41.2-14.4,33.4-13.8,23.5-11,23.1-11.5-93.2-8.9,4.9-53Zm-26.2-371.1,167.5,15.7,13.7-18.7,8.1-19.8,3.4-17.7-.7-24-5.7-18.2-8.5-21.1-10.8-24-10.1-22.1-9.3-21.6-9.1-23.8-4.9-21.3-.2-2,4.4-.4.2,5.6,10.3-1.2-1.9-16-1.7-4.1-3.7-2.5,1.9-.2,22.4-29,6.8-8.6-9.3-7.6-6.1,9.1L328.9,1007l-10-.5v-3.4l1.4-17.2-24-2.5-5.6-5.4-3.2-2.7-4.2-1.9-10.1-.5-6.8,2-5.9,5.4-46.4-4.5ZM626.9,917.5l5.6-7.9-.9-1L645.1,891l1.2.7,4.6-6.4,5.2,4,8.3-11.6-24.7-19.3,10.8-14.3-2.5-1.2,7.1-9.8-1-.7,20.4-27,1.2.7,7.1-10.3,2.7,2,10.6-14.5,50.2,37.3-2.4,3.4,14.7,12.5-2.4,3,97.3,72.3,2-3.2L870,920.2l2.4-3,29.2,22.1-5.4,6.4,1.7.7-14.2,18.9-1-.7-5.1,7.3-4.9-3.9-18.4,24.3-2.5,3.7-20.1,26.2,4.9,3.7-5.4,6.6,1.2,1-13.7,17.9-.7-.8-5.7,8.6-63-48.3-4.7,4.2-1.9,1-2.7.7-3.5-1-14.2-11.3-.5,2.5-6.4-1.7,1.3-4.4-2-.3-2-.7-1.7-1.3-1.7-1.4-1.2-1.7-1-2.2-4.7,1.9-1.9-5.6,1.5-.8-16.7-12.2-1-2.5.7-2.7,4.9-6.6Zm154.3,44.4-.3,2.9-.7,2.9-1.2,2.7-1.7,2.5-2.5,2.2,2.9,2-2.7,3.6,31.9,23.3,41.7-56.1L802.5,914l-27.2,36.6,1,.7,1.9,2.2,1.5,2.5,1,2.9ZM735.1,863l-41.2,55.2,17.6,13,2.2-3.2,3,2v-.3l1.2-2.7,1.7-2.4,2.2-2,2.5-1.5,2.7-.9,2.9-.5h3l2.9.7,3.7,2,27-34.4Zm-52-19.8,2.9,1.9,1-.7,1.7-1,2.7-.5,1.7-.7,1.5.5,1.5.7,1.2,1,1,1.2.7,1.5,1,3.2-1.5,4.1,2.2,2,15.7-21.1-17.9-12.7ZM431.4,1345.4l.5-9.5,5.2-.5,3.4-1.2,6.1-61.1-14.2-1.2v-4.4l-35.5-2.5-4,40.2-30.9-2.9-1,8.6-23-2-1.2,21.6,22,2.4-1.7,16.5-14.2-1-.2,2.4-16.7-.9-1.5,17.4-7.1-.5-2.5,33.3-5.1-.2-19.4-2.2,2-20.9,1-11.5,9.8.7,3.4-42.6-9.3-.3-1.2,10.1.7-13.5-13.7-1.5.4-3.4-35.8-3.4-5.6,65.7-10.3-.8-2.9,32.2-2.7,33.3,9.5.5-1.9,20.9,3.6.2-.7,11.1,44.1,4.1.3-3.4,9.8,1,1-8.6h1.9l4.7-44.2,8.3.3-.2,1.7,5.9.5-.3,3.2,11.1,1-3,34.3-15.9-.7-1.7,19.3-2-.2-3.9,40h1.7l-2,18.4,124.9,11.2,6.8-78.9-15.2-1.7,2-22.4h1.5l1-13h-1.3l1-10.5,7.9.5,4.1-41.7,1.7-26-27.2-3.2,1.5-13.5Zm677-59.1,22.5-28.2-15.9-13.5-14.7,18.2,2.4,2-8.3,10.5ZM246.5,2277.4,227,2284H104.4l7.2-77.5.5-7.6L117,2146l-2.7-.3.8-10.5h3.1l.8-8.1.7-3,1.7-3.4.8-.7-2-1.5,3.2-3.4,2.4-2,2.7-1.5,2.7-.9,4.5-.8,3.6-.2.3,2.9,1.5.3,3.1,1.2,2.7,1.7,2,2,1.7,1.9,1-6.6,15.4,1-1.4,15.4h-2l-.5,9.6,10.6.7-.3-6.8,1-4.2,3-5.4,4.4-4.4-2.5-2.5,9.1-10,1.9,1.9,6.4-6.3,2.7-1.7,3.7-1.3,2-.5h3.4l6.9,1.5,6.1,3.4,3.4,4.2,2.2,4.4.8,3,.5,3.9-1,10.5h8.8l-8.3,11.8,3.9,2.5,4.2-1.5-.8-3.2,7.6-.2,43.7-15-3-8.3,35.4-11.8-13.8-40.2,16.5-5.9-8.1-23.8.5-.8,30.1-41.2,20.1-6.6,17,51.3.9-.5,2-.5,15.7-5.6,1.5-15.5,1.7.3,105.7,12.5-16.4,154.5-1,.2L441,2199.9l-12.3,4.7,1.5,4.2-16.7,5.8-1.2-4.1-8.6,2.7-10.8,4.1,1.5,4-16.7,6.1-1.4-4.2-14,4.4-35.8,13.3,1.9,5.4-17.6,6.1-1.7-4.7-4.5,1.8,1.5,4.6-17.6,6.2-2-5.4-9.6,3.6-16.7,5.9,1.8,7.4Zm146.7-220.2,30.1,86.1,24.3-8.4,8.1-76.2-55.4-6.2-.7,3Zm-41.5,66.2,1.5,4.7,1.5-.3,3.9,11.8-1.2.5,10.3,28.9,24.7-8.3,1,3.2,9.8-3.2-2.9-8.8,2.4-.8-3.9-10.8-2.4-.5-4-11.5-2.7.7-3.6-11.5,2.4-1-1.7-4.9ZM271,2166.3l10.1,29.9,33.6-11-10.1-29.9Zm-55.9,35.6,15.5-5.7-3.2-10.3-7.4-4.6-.7,1.9-16.4-12-17.2-1.4-2.2,2.4-13.5-.5.5-5.6-10.3-1L156,2209v11.3h-1.9l-.5,7.1h1.7l-1.7,21.3h-1.8v2.5l-1.4,1.9,2.7,2.3.5-1,13.7-4.7-.7-2.2,1.9-.7-.5-1.3,13-4.9-.7-2.4,21.6-7.9.5,1.5,20.1-7.8ZM1112.5,353.6l57.2,29.9,23.8-45.3-57.2-30ZM581.8,476,597,445.8,575.4,435l-15.2,30.2Zm583,833.1,25,18.4,9.5-13.7-25-18.4ZM115.1,7.8,119.5.4l61,30.7-1.4,7.6,29.2,15.7,5.8-12L284,78.2l19.9-34.6.5.3,16.7-31.4L316.4,10,300.7,39.4,225.6,0H99.6ZM1203.3,469.6,1003.4,855.4l-11.3,21.8-8.6,15.5-2.4,5.4L874.4,1103.9l-10.1,20.6-44.1,79.9-13.8,25.3-43.6,83.9-36.1,72.1-23,39.7-22.1,34.1L662,1487.9l-65.3,79.3-1.9,2.4,48.8,4.7,40,3.2h.2l5.2-1,73.5-75.6,19.4-20.3,28.5-32.4,22-26.2,69.7-87.3-54.2-37.1,66.7-133.4,78.2,60.1,17.4-24.3,11.1-15.9,16.7,11.5v.2l2.7,1-8.9,11.8,27,20.3-2.9,4,11,8.3,2.9-3.9,6.9,5.1,10.1-13.2-6.9-5.2,1.7-2.4-11-8.4-1.7,2.5-24.1-18.1h1.5l4.4-2.3L1089,1136l2.4.2-2.7,1,11.3,7.1,7.1-11.3-9.8-6.1-.2.5-2-1.2,2.2-3.7,15.7-28.4,86.1-179.8,1.7-4.2.3-5.1.2-.3-1.5-4.9-2.9-4.2-19.6-8.5,40.7-86.6,3.9-7.6-3.7-1.7,119.7-251.9.7-1.5-133.9-67.4Zm11,444.2-10.5-5.2-12.3,25.5,10.5,5Zm-59.8,407.4,16.9,13,6.1-8.1-16.9-13Zm-6.4-17.7,11.8,8.6,14.9-20.4-11.8-8.6Zm86.1-457.9-12.8,26.2L1232,877l12.7-26.2ZM11.6,1082.3,0,1081.1v18.6l9.8,1ZM1826.2,39.2l-4.1-7.4-7.2-3.1-49.5.9-13,3.2-16.2,12.8-8.3,18.1,2.9,19.2,9.1,13.9,12.5,7.4,11.3,4.4,51-4.9,48.1,21.1.2.2h15l10.5-4.9,8.4-9.8,2.9-6.8,12-.3,4.9,12.8,16.2,7.8,9.1,1,28.9-3.2,14.5-3.9,9.6-9.8,20.1-39.5.5-13.5-5.9-14.7-5.4-3.5-10.1-5.8-14.4-.8V25.2l.2-4.6,13.5.4,14.7-2.9,9.1-8.1,4.6-10H1832.3l-.2,38.7ZM316.7,1949l1.2-11.7-24.1-1.8-.7,11.8-21.6-1.5,6.4-71.1-67.4,6.9-2.2,23.3-3,35.8-7.1-.7-5.2,63.2,6.7.8-1,12,66.2,5.4,1-11.8,21.1,1.5-.5,12.5L311,2026l.8-13.2,6.1.2,2.2-25.7h2.4l1.3-16.7-2-.2,2.2-20.6ZM1402.4,95.6l-52.7,100.1-5.4,10.8-17.2,32.8L1261.6,359l-28.7,56.7,123.2,64.2,4.1,1.3,25-69.7,41.5-121.2,16.7-39.4,4.1-11.1,13.5-38.5,18.4-57.4L1514,17.1,1518.5,0h-77.3L1422,46.8ZM30.9,113.8,3.2,100,0,106.3v36l11.1,6ZM74.3,1781.5l-.7,8.8,2.2.3-.5,4.9-.7,10.8H72.1l-.7,9.1h1.7l-.2,5.6,13-6.4-4.2,53.7H75.3L0,1875.2H0v-66.6H1.3v-2l32.3-2.7,1.3-2.4.7-.5.2-2.7,4-36.6-15.2-1.2-.5,7.4L0,1765.4v-85.1l2-22.6-2-.2v-45.2l99.1,9.1-3.9,41.9-10.6,119Zm-30.4-50.8,4-3.4,2.9-28.7.7-11.5h-.7l.5-8.6-1-2.9.3-3.7.9-2.2,1.3-1.5,1.7-1.5h1l.4-4.4-42.4-3.7-.2,3.7,1.9.3L14,1675.8l3.2.3-1,11.7,7.4.8-.8,9.3-4.6-.5-3,28.2,4.7.2-.3,3.2ZM14,1827.6l51-3.4,7.9-2.5Zm1442.1-81.2-5.9,42.5,26.5,34.8,42.5,6.6,39-27.7,4.1-40.7-26-38.5-45.3-4.7ZM370.9,1996.1l59.8-20.3,1-.3,1.5-13,58.3-20.3,1.5-.5-45.9-141.8-32.8,11.8-1.5,15.4-31.9-2.7,1.2-12.7-25.2,7.6-3,65.5-1.7-.3-2.2,31.7,21.8,1.7-5.8,63.7Zm1014.8-231.8,51.5,8.9,6.4-35.3-52.5-8.9ZM91,718.8l-91-66v74.3l7.6.8,48.3,36.8.5.2,4.7.3,2.2-3,35.6,27.2,3.2.3,24.7,18.9,1.3,4.4-2,14.9-1.2,13.8,6.3.7-.9,9.8-23.1-2.7-6.1,57.2-6.2-.5-4.6,52.7-55-4.4-1.7,21.8,29,2.2,34.3,3L91,1053.6l60.1,5.6,6.4-76.2-12.5-.8,6.8-71.1,1.5-19.9,16,1.3,1.2-19.9,3.7-40.2,1.2-23.1v-.2L171,791.2l-6.6-12.3-9.9-10.3-45.8-36.1-5.2-3.4-4.4.7L95.2,735l-7.6-5.4,3.7-5.2Zm729.7,982.5-10.3,109.9,9.8,3.2-4.2,42.4-1,15.5-3.9,41.9-13.5,144.5-36.8,4.9-1.7,18.8-52,15-35.8,5.4.2,11.5-27.7,6.7-.7-3.7-8.6,2.2,1,3.9-18.9,4.7-.7,9.3-21.6,7.8-52.7,18.4L557,2001.3l8.1-3.2-9.6-28-2.4-.2-1.5-1-1.5-1.2-.4-2.5.2-2,.5-1.2,1-1.7.2-.2-35.8-104.3h-.2l-2.7-.2-2-1.7-1-1.8-.2-1.9.7-2.2,1.7-2.2-9.3-26.8-14-38,16-5.4-5.7-14.9,47.1-17,92.7-32.1,2.5-28.4h1.5l88.2,2.4Zm-85.1,127.3-105.3-19.4,1.8-22.5-42.2,13.7-19.4,7.4L628.6,1976l2.5.2-4.2,40.5,7.6.3,4.9-46.9,81.9,8.1ZM100.3,1512.5l-2.4,1.4-3.2,1H91.5L26.8,1513l.2-2.5-9.1-.7-.2,3.6L0,1512.1v-48.6l33.9,2.6-.5,6.1,29.2.5v2.7l7.3.3,5.7-36.8H74.1l2.9-27.7-11.7-1L67,1394l1.5-18.4-9.4-.5v4.4l-3.4-.2-1.2,15.2-13-.7L36.3,1445,0,1441.9v-54.8l27,2.2,1.2-16.4-6.3-.5L1.3,1354l25-28.2,16.4,15.5,17.7,1.7,4.1-3.4.3-4-2.2-.2.5-9.1,2.4.3,1-14,13.5,1.2,4.2-62.3-36.8-3.2,4.6-53.2,22.8,2,2.7-30.4,31.4,2.6,3-34.8,2.2-22.8-6.2-.7,2.2-20.6,21.4-5.2,1.5,6.2,3.4,10.7,11.8,2-1,33.1L133,1282.9l-4.7,36.8-2.9,44.4-4.5,35.1-2.9,27.7-2.9,14.7-7.9,61.3-1.5,3.4-2.2,3.2ZM99.6,1319l-8.6-.8-.2,8.4,8.3.5Zm305.8,448.3,41.7-21.6,41.5-23.3,39.2-24.5,46.6-33.1-92.9-7.6,1.2,6.6-57.6,35.8-41,20.4-46.6,22-49.8,18.7L228.9,1781l-22.6,7.6L182,1795l-49.5,12-4.9,53.7,64.7-14.2,53.2-15.4,62.3-21.9,48.8-20.3Zm-47-847.6-11.3-7.6-2,1.7L285,868.4l-28.4,36.8,38.2,28.2,2.2,2,55.5,40.4,35,27,2,1.5-6.4,8.8-3.7-2.4-34.5,47.8,13.9,11-5.6,6.9,12.8,29.9,11-15.4-3-2.7,6.4-8.4,1.5,1,30.7-40.5.2-.4-.2-3.7,2.7-3.2-1.3-2.5,3.5-4.6,4.9,3.7-1.5,1.9,1.5,4.2,6.3,4.9h4.5l1.2-2,4.6,3.7-2.2,2.5-6.1,1.9-33.6,44.4-3.9.7-10.3,13.5,6.8,5.9-2.2,3,5.7,5.1-7.4,7.6,8.1,6.9-10.8,14,45.9,34.3-26.5,34.8,47.6,37.1,8.6-11.6,4.4,3.5,1.4,1.4,111.2,86.4-12.8,21.6-12.8-6.9-17.9,32.4,7.4,3.9-15.9,30.9,35.5,19.6,34.6-64.7-2.2-.5,12.3-15.5,6.1,4.4,23-29.9-116.7-87.8,18.6-24.8-38.5-29.6-17.6,23.5-4.2-3.2,3.2-4.4-32.1-24.5,8.3-11.5-21.3-17,65.2-87,11,8.1-16.6,22.5,51,37.5,28.7-39-51-37.5-7.2,9.8-11.2-8.3,7.1-9.3-3.5-3,5.2-6.1L485.1,1018l2.7-3.7-30.4-23-3.2,4.9L442,987.1l3.7-4.4-4.5-3.4-8.5-7.4-4.9,6.6-1.3-.9-1.9,2.7-8.1-6.4,2.9-3.5-51.2-39,1.7-2.4Zm217.3,251.6-22.9,31.6,62.3,46.9,10.3-14.2,4.5,3.2L596,1284.4l41.2,31.9,52.3-72.4,22.5,16.7-52.7,70.6L558.7,1465.1l-44.9-4.6-23-47.1-48.1,23.3,6.9,26.7,23.5,93,.3.9,50.5,5,54.2,4.6L709.3,1368l75.6-113.8.7-1.2-26.7-22.1-16.2-11-24.3-18.7,4.9-5.6-39.5-28.9-3.4,4.9-38.8-28.2L622,1128.9l-11,14.5-8.4-6.2-19.1,25.5,8.6,6.6-.8,1.3,59.6,44.1-6.1,7.6Zm1701.6,822.9-1,12.7-42.5-6.1-12,73.3-7.1-1-3.4,30.2,28.7,7.1,4.4-30.4-6.1-1.7,8.8-54,16.4,1-5.6,41.7,8.8,1-17.7,93.4,35,22.4V1994.9ZM177.1,2066l9.3,1,1.3,1.5,26.4,2.2,1-13.8h5.2l2.2-1.2,1.9-2.4v-2.7l-.2-1.5-1.5-3-2.4-1.2-4-.2,1.3-13.8-28-2.7v1.5l-8.1-.7-.2-1.5-4.7-.2,1.2-17.2-22.5-2.2-1.2,14-25.1-2.2-4.4,45.6,52.3,4.1Zm1424.7-200.9,2,3.7,2.9,3,3.5,2.2,3.9,1.2,4.4.2,3.9-.9,3.9-2.2,2.7-2.5,2.5-3.9.7-2.2,4.9.7,1.5-9.3,5.2.7,10.5-69.6-3.9-.8.5-8.3-4.9-.7v-1.5l-.5-3-1-2.6-1.5-2.5-1.9-2.2-2.5-1.7-2.7-1.3-2.9-.7-3-.2-2.9.5-3,.9-2.4,1.5-2.2,2-1.7,2.2-1.3,2.4-.5,1.5-5.1-.7v.2l-6.6-1-.3,1.7-5.6-.7-3,19.4,1.8.2-6.4,42.2-2.2-.2-3,19.3,5.2.8-.3,1.7,6.9,1-.2,1.5,3.9.4-.3,3.7ZM2267.2,499.5l4.2,56.2,12.6-1V498.3l-6.5.5ZM2105.3,2254.1l9.6-14,47.3-145.4,33.6,5.2,22.6-142-20.9-3.2,3.2-26.5-118.9-19.9-20.9,122.6,90.8,16-5.7,45.6,4,.5-48.1,147.6-31,43.4h24l17.8-23.7ZM21.9,855.4l-5.4,65.5-.3,1.7L77,927.5l1.8-21.6-38.3-3.1,3.7-45.4Z"/>
  <path id="ist-floor" class="cls-5" d="M1321.1,576.6l-249.8,513.2-35.5,56.4-27.1,38.7-132.1-80.4,330-629.9,127.5,68.8ZM907.4,1342l-113.1-88L740,1358.1l94.2,68.3Z"/>
  <path id="streetT" class="cls-1" d="M.1,1903.4l3.2-.3,78.4-10.8,72.8-11.3,2.7-.5,46.4-11,2.2-.6,52.1-15.9,1.8-.6,54.6-20,51.1-19.6,1.7-.7,48.1-21.5,2.2-1.1,41.4-22,1.1-.6,41.2-23.8,2-1.2,40-26.9,37.2-26.5a7.1,7.1,0,0,0,1.4-1l94.9-74.8,1.5-1.3,29.1-25.8-12-13.5.6-.6,12.7,13,87.5-85.3c.5-.5,1.1-1,1.6-1.6l35-39a6,6,0,0,0,.8-.8l87.9-104.4L900.7,1336l.2-.3,21.6,16.3,87.8-116.1,44.5-55.8a18.4,18.4,0,0,0,1.7-2.2l26.7-39.4c.6-.9,1.2-1.8,1.7-2.7l22.9-41.2,1.2-2.2,47.7-102.3,201.8-440c.4-.8.7-1.6,1-2.3l49.9-133.1,62.5-174.9a4.9,4.9,0,0,0,.4-1.1l31.2-97.2-18.3-5.9-8.8-3.2,27.6,7.4L1540.7,0h0L1425.9-5.6l-21.7,53.2-20.9,45.5-45.9,90.3L1187.8,462.9,1053.4,718.4l-96.5,187a5.4,5.4,0,0,0-.5,1.1l-4.7,10L855,1108.2,723.8,1352.6h0l-12.2,22.5-58.3,94.8-57.4,68.9-24.5,26.6-28,25.9L492,1630.5l-40.6,28.1-37.9,22.5-39.4,20.4-45.4,21.1L280.6,1741l-60.2,21-38.9,11.4-39.3,9.5-69.8,12.7L-8.3,1806ZM984.2,932.2v.2l-5.8-3ZM752.3,1368.1h0l-2.5-1.4Z"/>
  <path id="trainB" class="cls-5" d="M-6.1,1824.7l81.7-10.6,70.7-12.9,40.3-9.7,39.8-11.7,60.3-21,49.6-19.1,46.3-21.4,40.3-20.9,39-23.2,41.4-28.7,52.6-40.2,29.1-26.9,25.2-27.4,58.4-70.1,59.5-96.6,12.2-22.7h0l131.2-244.5,97.1-192.2,4.8-10.5L1070.1,727l134.3-255.3,149.5-279.5,46.4-91.1,21.2-46.2,22-53.9L1522-.9l-36.2,135.8-.2.8L1454.4,233l-62.7,175.3-49.8,132.9-.4,1L1139.7,982.3,1092,1084.4l-.6,1.1-22.9,41.2-.8,1.2-26.8,39.5-.7,1-44.6,55.8-88.1,116.4L819,1445.7,783.6,1485l-88.2,86-29.7,26.3-95.6,75.4-37.9,27-39.6,26.6-.9.6-41.2,23.8-42,22.2-.9.5-48.2,21.5-51.9,20-54.3,19.9L200.3,1851l-47.5,11.2-1.2.2-72.8,11.3L.7,1884.5l-1.5.2ZM1412,217.2l1.1.5h0ZM816.6,1324.1l-.6-.4.6.5Zm38.2-20-4.2-2.6,4.1,2.7Z"/>
  <g id="train">
    <g>
      <g>
        <line class="cls-6" x1="1481.4" y1="-3.5" x2="1477.1" y2="11.8"/>
        <path class="cls-7" d="M1468.4,42.5l-11.6,41.2S1400,350,1254,620.4C1208,704.8,943.8,1198,943.8,1198L808.9,1398.8"/>
        <path class="cls-6" d="M800,1412l-8.9,13.1s12.3-12.8-.7-.9"/>
        <path class="cls-8" d="M767.1,1446.1c-21.3,20.3-57.2,55.1-116.6,113.2-169.4,176.4-429.4,282.4-634.1,297.5"/>
        <path class="cls-6" d="M.4,1857.8l-15.8.7"/>
      </g>
      <g>
        <line class="cls-6" x1="650.5" y1="1559.3" x2="658.6" y2="1545.7"/>
        <polyline class="cls-9" points="674.7 1518.5 877.4 1177.9 1168.3 617.5 1448.4 90"/>
        <line class="cls-6" x1="1455.8" y1="76" x2="1463.2" y2="62"/>
      </g>
    </g>
  </g>
  <polygon id="terasse" class="cls-5" points="1189.3 914.9 1109.9 1079.6 1060.6 1162.2 1028.3 1204 1004.1 1189.9 1163.3 903 1189.3 914.9"/>
  <path id="roof" class="cls-10" d="M1093,1049.4l-82.9,136-70.3-41.5,76-163.5,154.6-315.2,62-96.7,73.9,36.6Zm-174.3,136,97.1-205-59.6-28.2-97.4,178.6L717.4,1401.3l46.3,26.3Z"/>
  <line id="jede" class="cls-11 startH" x1="1171.8" y1="451.6" x2="839.6" y2="1109.3"/>
  <g id="marker" class="startM">
    <path class="cls-12" d="M980.4,810.5A64,64,0,0,0,967,790.6a62.7,62.7,0,1,0-64.1,103.8l6.8,22.4,7.1,23.4h11.9l7.1-23.4,6.8-22.4a62.7,62.7,0,0,0,39.6-79.3Z"/>
    <path class="cls-13" d="M975.7,821.5a54.7,54.7,0,1,0-66.4,66.4l8,26.5,5.4,17.7,5.4-17.7,8-26.5A54.7,54.7,0,0,0,975.7,821.5Z"/>
    <path class="cls-1" d="M916.3,834.8l-22.4-12.9,3.1-5.4,22.4,12.9V803.5h6.3v25.9l22.4-12.9,3.1,5.4-22.4,12.9,22.4,12.9-3.1,5.4-22.4-12.9v25.9h-6.2V840.2l-22.4,12.9-3.1-5.4Z"/>
  </g>
  <g id="label">
    <rect class="cls-1" y="2156.8" width="574.3" height="127.6"/>
    <path id="line" class="cls-14" d="M213.6,2200.3V2237H519.5v-36.7"/>
    <path id="_100" data-name="100" class="cls-5" d="M141.6,2212.4H147v3.6h.2a8.6,8.6,0,0,1,8-4.3c3.2,0,6.1,1.4,7.3,4.3a9.2,9.2,0,0,1,8.1-4.3c5.4,0,8.7,2.4,8.7,8.7v17.9h-5.7v-15.1c0-4.1-.3-7-4.7-7s-5.5,2.6-5.5,6.9v15.2h-5.7v-16.6c0-3.6-1.1-5.5-4.6-5.5s-5.7,2.4-5.7,6.7v15.4h-5.7Zm-95.8-4.2c4.9.1,9.5-1.6,10.4-5.9h4.7V2238H54.6v-25.2H45.8ZM98,2220.1c0,8.1-2.1,18.6-12.4,18.6s-12.3-10.5-12.3-18.6,2.1-18.5,12.3-18.5S98,2212,98,2220.1Zm-5.9,0c0-7.4-1.4-13.7-6.5-13.7s-6.5,6.3-6.5,13.7,1.4,13.8,6.5,13.8S92.1,2227.6,92.1,2220.1Zm34.2,0c0,8.1-2.1,18.6-12.3,18.6s-12.4-10.5-12.4-18.6,2.1-18.5,12.4-18.5S126.3,2212,126.3,2220.1Zm-5.8,0c0-7.4-1.4-13.7-6.5-13.7s-6.6,6.3-6.6,13.7,1.5,13.8,6.6,13.8S120.5,2227.6,120.5,2220.1Z"/>
  </g>
	
<script type="text/javascript"><![CDATA[

var svg = document.getElementById('bahnhofzoo2');

svg.addEventListener("mouseover",function() {
  svg.getElementById('marker').setAttribute('class', 'openM');
  svg.getElementById('jede').setAttribute('class', 'openH');
			},false);

svg.addEventListener("mouseout",function() {
  svg.getElementById('marker').setAttribute('class', 'closeM');
  svg.getElementById('jede').setAttribute('class', 'closeH');
			},false);

    ]]></script>	
	
</svg>
