<svg id="bilka" xmlns="http://www.w3.org/2000/svg" viewBox="0 0 2284 1493.6">
	
<defs>	
	
<style type="text/css">
	.st0{fill:#F8F8FF;}
	.st1{fill:#DDDDDD;}
	.st2{fill:#F8F8FF;stroke:#222222;stroke-width:2.1875;}
	.st3{fill:#AAD3DF;}
	.st4{fill:#222222;}
	.st5{fill:#FFFFFF;}
	.st6{opacity:0.8;fill:#FFFFFF;enable-background:new    ;}
	.st7{fill:#C04300;}
	.st8{opacity:0.8;fill:#F8F8FF;enable-background:new    ;}
	.st9{fill:none;stroke:#222222;stroke-width:6;}
	
/* Marker: interaction and animation */
#marker {
  transform-origin: 50% 100%;
  transform-box: fill-box;
  }
.startM { transform: scale(0); }
.openHome {
  transform: scale(0);
  animation: pop .2s .7s forwards;
}
	.openM {
  transform: scale(0);
  animation: pop .2s .8s forwards;
}
	
.closeM { animation: unpop .2s .5s forwards; }
.closeHome { animation: unpop .2s .7s forwards; }
	
@keyframes pop {
		to { transform: scale(1); }
		}
@keyframes unpop {
		to { transform: scale(0); }
		}
	
	#text {
		opacity: 0;
		}
	
		.vis {
		transition-delay: 0.75s;
		transition-duration: 1s;
		transition-property: opacity;
		transition-timing-function: ease-out;
		opacity: 1 !important;
		}

    	.invis {
		transition-delay: 0.5s;
		transition-duration: 1s;
		transition-property: opacity;
		transition-timing-function: ease-out;
		opacity: 0 !important;
		}	
	
</style>
	
</defs>
	
  <title>bilka</title>	
	
<path id="bloks" class="st0" d="M442,1358l1.6,3.8l-1.2,25.5l-3.4,43.2L425,1440l-5.1,54.5H153.8l0.5-5.7l1.8-19.5l0.4-11l3.2-5.2
	l3-2l267.3-95.6h7.6L442,1358z M127.3,1465.3l-3.8-0.2l-82.9,29.4h89.6l2.1-22.6l-1.2-4L127.3,1465.3z M822.6,1430.1l-3.2,5.6
	l-5.9,58.9H953l-8.9-5.9l-94.6-60.7l-5.2-2.2l-9.6-0.6l-8.4,1.2L822.6,1430.1z M1523.1,1045.7l-4.2-7l-7.6-2.6l-80.1-12.5h-1.8
	l-9-1.4l-38,2.2l-31.3,7l-9.8,2.4l-86.2,30.1l-373.7,132.7l-10.8,3.8l-24.9,8.8l-3.6,4l-2.8,4.6l-1,12.3l-1,12l-0.4,5.8l-10.6,121.7
	l0.4,4.8l2,3.8l7.2,5.2l169.6,111.4h228.9l62.4-97.3l26.7-41.6l42.4-65.9l70.9-110.9l17.7-4.8l16.1-24.3l0.8-5.6l52.4-83.1l1.4-7
	l-1.2-3.6L1523.1,1045.7z M2229.2,1340.9l-1.2,7.2l1.6,6.8l2.6,6l3.8,4.4l48.1,31.2V1257l-52,77.5L2229.2,1340.9z M772.2,1469.3
	l0.4-34.5l-2-64.1l-0.6-46l1-9.4l2.2-21.7l2.4-23.1l1-10.4l-0.4-3.8l-1.8-5.8l-2.6-5.2l-4-2.8l-4.8-2.4l-7.6-0.8l-4.2,1.2l-9.2,2.4
	l-141.2,52l-120.5,44l-12.3,4.4l-3.4,6.8l-2.4,42.6l10,11.6l-8.8,89.8l0,0.3h306.5L772.2,1469.3z M1875.4,1225.3l-4.4-5l-5.8-3.2
	L1705.3,1113l-42.8-27.7l-27.1-15.3l-25.5-11l-25.5-8.6l-4.2-1.2l-8.6,0.6l-7.8,7.2l-68.1,104.4l-10.6,16.1l-6.4,5.4l-4.4,6.6
	l-3.8,6.8l0.2,1.4l0.6,1l9,5.8l-82.5,128.5l-21.7,33.3l-60.7,95.2l-11.4,17.3l-10.2,15.8h419.8l31-46.7l34.9-53.2l1-2.8l3.6-3
	l6.2-1.8l4.4-1.4l1.6-2.2l2.8-3.4l8-16.1l3.4-9.8l1-5.8l6-13.7l4-6.4l8.4-12.9l44-65.7l2.8-4l1.6-4.8l-0.2-8.2L1875.4,1225.3z
	 M178.2,952.1l-8,1h-4.2l-63.9,5.8l-27.1,1.4L42.6,963l-30.3-0.2L-2,962.3v476.8l27.1-9.4l105-39l7.4-3l3-7.4l31.5-348L178.2,952.1z
	 M2126.6,1392.6l-220.3-146.8l-3.6-0.8l-5,1l-3.6,1.8l-4.8,4.2l-3.8,6.2l-31.9,50.2l-5,10.4l-0.8,4.6l2,4.8l-0.2,5l-5.6,14.9l-1,2.6
	l-11,25.1l-10,18.1l-65.4,100.7h329.9l13.1-23.2l33.9-50.8l3.2-9.2l-2.4-11.8L2126.6,1392.6z M2187.9,1429.7l-5.2-0.8l-7,1.6
	l-3.8,2.8l-5.8,7.6l-29.1,45.2l-6.4,5.6l-2,2.9H2284v-4.1l-91.3-59L2187.9,1429.7z M1248,318.3l-34.9-15.5l-11.6,25.9l-17.9,37.6
	l-14.7,24.3l-11.4,15.1l-27.5,23.9l-13.9,7.4l-12.7,4.2l-10.6,3l-7.2,4.4l-30.7,39l-2,3l-0.6,3.6l0.4,3l1.6,2.8l21.5,15.3l-4.2,6.2
	l53.4,39.6l14.1,10.2l36.8,34.7l31.7,29.1l14.7,16.5l22.7,16.5l1.4,0.8l17.7,11l24.9,12.7l31.3,10.4l6.2,2l3.4,0.8l21.9,5.6
	l296,45.2l189,28.9l17.3,2.8l6.8,1l36.1,0.6l29.9-1.4l27.7-2.6l37.4-6.4l124.9-31.9l-7-19.7l-7.6-21.1l-10.2-33.7l-25.9-85.6
	l-2.6,0.8l-2.4,0.6l-5.6,1.8l-39,7.6l-15.7,3l-4.2,0.8l-8.2,1.6l-113.1,20.9l-69.3,14.5l-20.9,4.4l-16.5,2l-8.4,0.4l-19.9,0.8
	l-4.8,0.2l-20.3-1.2l-64.3-9l-66.1-9.8l-15.1-3.4l-27.7-8l-30.9-14.7l-24.3-16.5l-2-1.4l-55.8-43.2l-31.5-24.3l-12.7,14.5l-7.8-13.5
	l-14.1-14.5l-16.9-13.9l-22.7-14.9l-25.9-8.2l-51-40l8.8-11.6l4.8-6.4l9.2-12.1l-30.3-22.9l-4.8,6.4l-9.4-7.4l16.1-36.3L1248,318.3z
	 M2270.6,688.6l13.4,39.6v-44.2l-2.4,0.8L2270.6,688.6z M1151.5,0h47.5l-37.4,81.5l-82.7,175.9l-29.1,61.9l2.8,7.2l-4.6,12.9
	l-2.8,8.8l-3,17.1l-3,17.5l-9.6,18.7l-33.3,42.2l-5.2,4.6l-4.6,2l-13.9-4l-5-1.8l-5-2.2l-29.1-22.1L817,330.6l-2.4-4.2l-2.4-4.4
	l-2.6-7.2l1.4-7.4l3.8-7.4l25.5-44.2l76.1-132.5L973.1,0h29.3l-50,96.6l-9.6,18.5l-1.8,3.4l-5.6,9.8l-2.2,4.6l-0.4,1l-1.6,3.6
	l-0.2,0.2l-3,5.6l-0.2,0.2l-11.4,21.7l-29.9,57.8l-0.2,0.2l-3.2,6.2l-1.8,3.4l-18.3,35.5l-2.2,4.2l-5.2,10l-12.9,24.9l-8.6,17.5
	l41,31.1l66.5,51l1.6-2l12.3-17.3l10.2-14.5l15.7,11l3,1.2l2.6-0.2l2.8-1.6l8.4-12.7l7.8-12.1l4.2-6.4l1.4-2.2l8.6-13.5l2.4-4
	l6.8-10.8l8.8-15.9l4.4-8l41.2-86.2l10.8-22.7l22.3-46.8l0.2-4.2l-1-3.4l-2-2.8l-17.5-7.8l10-21.1l25.3-53.6l2.6-5.2l-3.2-1.4
	L1151.5,0z M1001.2,400.9l-12-9l-5,6.8l12,8.8L1001.2,400.9z M1015.6,406.7l-7.2-5.4l-10.8,14.3l7.2,5.4L1015.6,406.7z
	 M1128.1,145.6l-6.4-3.2l-9.4,19.3l6.4,3L1128.1,145.6z M1153.6,92.4l-6.4-3.2l-9.6,19.7l6.4,3.2L1153.6,92.4z M187.8,735.4
	l-7.4-2.8L-2,715.9v206.9l20.1,0.7l28.7-1.2l18.5-0.8l27.1-1.4l63.5-6l6.8-1l11-2.2l11-3.4l8.4-160.5l-2.4-7.4L187.8,735.4z
	 M-2,655.9L182.4,673l12.3,0.2l7.2-4.2l3.2-3.4l0.6-5.4l39.6-497.3l18.9-150l-3-12L260,0H-2V655.9z M507.3,77.9l29.1,22.7l9.2,6.6
	l56.8,40.4l20.3-37.8l32.5-61.3L680.8,0H404.5l94.8,71.9L507.3,77.9z M293,35.5l-5.6,8.4L227.2,666l2.4,8.4l7.8,4.2l183.8,17.7
	l171.7,15.9l14.7-12.5l55.4-67.1l16.7-24.3l18.7-28.9l19.5-33.7l53-104l5.4-10.4l9.2-17.1l-13.1-15.5l-20.7-27.1l-447.6-337
	L293,35.5z M221.3,743.1l6.8-4.8l8.8-0.6l259.1,21.3l299.2,28.5l13.3,7l4.6,10.2l-10.2,102.6l-22.5,218.1l-1.4,25.5l-2.4,5l-3.6,6.2
	l-6.2,3.4l-24.7,8.4l-326.8,115.9l-219.9,77.7l-15.1,6l-8.4-0.4l-6-6.4l-1.8-8.8l37.2-393.4l1.2-12.1l6.2-56.4l0.6-20.7l10.4-126.3
	L221.3,743.1z M359.3,831l6-2.4l19.9-9.4l15.3-7.6l84.7-41L359.3,831z M267.9,960.2l51.2-15.5l35.7-12.5L267.9,960.2z M824.2,551.7
	L805.5,575l-18.5,22.3l-24.1,27.3l-16.3,17.1l-62.1,63.7l157.3,24.7L931.9,543l-68.3-40.8L824.2,551.7z M998.5,576.8l-49,72.7
	l-36.8,77.9l15.3,21.3l95.4,11l157.9,11.4l22.9-11.2l13.9-19.1l0.2-5.8l-0.6-5.6l-4.6-7.6l-9.6-7.2l-144.2-107.8l-38.8-28.9
	L998.5,576.8z M2243.5,791.3l40.5-1.7V1167l-99.1,150.5l-134.2-84.8l-283-193.4l13.9-97.8l9.2-63.3l-12.9-1.4l-24.1,179.1
	l-34.7-23.3l-5-2.2l-33.5-15.1l-45.2-14.9l-40.8-7.2l-24.1-4.2l-52.4-9.2l-31.5-5.6l-36.8-5l-29.9-1h-30.3l-20.3,1.6l-22.3,2.6
	l-29.9,5l-48.2,12.3l-12.9,4.2l-367.5,127.7l-7.2,2.6l-2.8,1l-5-0.6l-7.4-0.8l-10-6l-3-4.4l-2.6-4l-2-9l25.1-250.2l6.8-37.8
	l5.2-12.7l8-4.2l230.8,21.1l11.6-3.4l29.1,2.4l8,1.2l5.2-0.4l9.2-1.8l17.7-5.2l24.9-12l14.1-11.2l3.2-3.2l12.3-12.3l3.2-3.4l5.4-3
	l6.4-3.6l7.8-1.6l11,0.2l8.2,1.6l4.6,0.8l9.2,2.6l322.1,51.2l163.1,27.3l7.2-4.8l16.3,1l14.1,2l2.4,0.4l-4.6,24.3l24.9,4.4
	l127.1-15.7l109.3-17.5l85.4-5.6l5.2-35.1L2243.5,791.3z M1452.2,942.7l-14.9-2.4l-0.6,3.8l14.9,2.4L1452.2,942.7z M1598.6,874
	l-30.3-5l2.8-18.9l-249.2-40.6l-5.6,34.5l-37.4-6.2l-4.8,28.9l37.4,6.2l-8.2,49.4l126.1,20.7l0.6-3.8l-119.7-19.5l7.4-45.6l2.2-13.3
	l12.9,2.2l-3.8,22.7l22.1,29.7l17.9,3.2l17.9,3.2l29.9-20.7l1.6-10l22.3,4l3-16.9l-22.5-3.8l1.6-10.4l-21.5-29.9l-34.7-6l-31.3,21.3
	l-1.8,9.4l-12.9-2.2l1.8-11.4l5-30.3l237.8,38.8l-2,14.7l-7.4-1.2l-1.8,11.4l-7.4-1.2l-1.2,7.8l7.4,1.2l-1.6,9.4l14.9,2.4l-9.8,61.7
	l-70.1-11.4l1.2-7.8l4.4,0.6l1.4-9.8l1.6-10.8l2.4-16.1l1.6-11l1.2-8l-3.4-0.6l1-7l-2.8-0.4l-1.2-0.2v-2.2l-0.4-2.2l-0.8-2.2
	l-1.2-1.8l-1.6-1.6l-1.8-1.4l-2-1l-2.2-0.6l-2.2-0.2l-2.2,0.2l-2.2,0.8l-2,1.2l-1.8,1.4l-1.4,1.8l-1,1.8l-0.8,2.2l-1-0.2l-3.2-0.4
	l-0.2,1.6l-2.2-0.4l0.2-1.4l-3.4-0.6l-0.2,1.4l-4.8-0.6l-1,6.8l-1,6.8l1.4,0.2l-2,12.5l-4,25.3l-1.8-0.2l-2,13.5l4.4,0.8l-0.2,1.4
	l2,0.4l1.8,0.2l0.2-1.6l2,0.4l-0.4,2.8l3.2,0.4l-0.2,1l-0.2,3.4l0.8,3l1.4,2.8l2.2,2.2l2.6,1.6l3,0.8h3.2l3-0.8l2.8-1.4l2.2-2.2
	l1.2-2l78.7,12.9l10.6-65.5l22.9,3.6L1598.6,874z M1532.2,942.7l14.1-6.2l2-14.9l-12.1-9.8l-14.1,6.2l-2.4,14.5L1532.2,942.7z
	 M1757.1,933.3l-12.5-1.8l-9.4-1.2l-14.9,10.8l-4-5.6l1.2-7.2l-6-4.2l-5.4-2.4l-7-1.2l-0.4-6.4l-5.6-0.2l-8.8,2.4l-4.8,2.8l-4.2,3.2
	l4,8.2l1.4,3l-3.4,4.2l-2.4,5l-1,5.4l0.4,5.4l1.6,5.2l3,4.8l4,3.8l4.8,2.8l5.4,1.4l5,7.4l6,9.4l5.6,8l31.5-23.5l9.2,1.2
	L1757.1,933.3z"/>
<path id="streetB" class="st0" d="M15.1,205.4L-2,196.7v-20.4l23.9,12.1l55,6c5,0.6,8.6,5,8,10c-0.6,4.6-4.4,8.2-9,8.2
	c-0.4,0-0.6,0-1,0l-56.6-6.2C17.3,206.1,16.1,205.9,15.1,205.4z M701.7,118.1c-3.2,4-2.4,9.8,1.8,12.7l27.1,20.3
	c1.6,1.2,3.6,1.8,5.4,1.8c2.8,0,5.6-1.2,7.4-3.6c3-4,2.2-9.8-1.8-12.7l-27.1-20.3C710.4,113.3,704.7,114.1,701.7,118.1z
	 M135.4,191.8c-5.2-0.4-9.4,3.4-9.8,8.4l-4.4,53.2c-0.4,5,3.2,9.4,8.4,9.8l49.4,4.2c0.2,0,0.6,0,0.8,0c4.6,0,8.6-3.6,9-8.4
	c0.6-5.2-3-9.6-8.2-10l-40.4-3.4l3.6-44C144.2,196.6,140.4,192.2,135.4,191.8z M65.3,425.6L60.5,480l22.1,50
	c0.6,1.4,0.8,2.8,0.8,4.4l-6,78.1c-0.4,4.8-4.4,8.4-9,8.4c-0.2,0-0.4,0-0.8,0c-5-0.4-8.8-4.8-8.4-9.8l5.8-75.7l-19.9-45.2l-12.5-1
	L-2,486.9v-18.4l45.4,3l4.2-48l6.2-54.2l-11-0.4c-5-0.2-9-4.4-8.8-9.4c0.2-5,4.8-9,9.4-8.8l12.1,0.6l1.8-16.7l-0.8-0.4
	c-0.8-0.4-1.6-1-2.2-1.8l-2.2-2.4c-0.6-0.8-1.2-1.6-1.6-2.4l-1.4-3c-0.4-0.8-0.6-1.8-0.8-2.8l-0.4-3.2c-0.2-1,0-2,0.2-2.8l0.6-3.2
	c0.2-1,0.6-1.8,1-2.6l1.6-2.8c0.4-0.8,1-1.6,1.8-2.2l2.4-2.2c0.8-0.6,1.6-1.2,2.4-1.6l3-1.4c0.8-0.4,1.8-0.6,2.6-0.8l3.2-0.4
	c1-0.2,2,0,3,0.2l3.6,0.8c1,0.2,2,0.6,3,1.2l3,2c1,0.6,1.6,1.4,2.4,2.2l2.2,3c0.6,0.8,1.2,1.8,1.4,2.8l1,3.4c0.4,1,0.4,2,0.4,3.2
	l-0.2,3.6c0,1-0.2,2-0.6,3l-1.4,3.4c-0.4,1-1,2-1.8,2.8l-2.4,2.6c-0.8,0.8-1.6,1.4-2.4,1.8l-2.6,1.4l-2.6,25.9L65.3,425.6z
	 M67.1,317.9l0.2,1l0.6,0.4h0.2l1.4-1.4l-1.2-1.2L67.1,317.9z M7.9,93l-10-0.9v18.2l8.6,0.7c0.2,0,0.6,0,0.8,0c4.6,0,8.6-3.6,9-8.4
	C16.7,97.8,12.9,93.4,7.9,93z M2209.6,1076c-4.2-2.8-9.8-1.6-12.5,2.6c-3,4.4-1.8,10,2.6,12.7l57.4,37.4c1.6,1,3.2,1.4,5,1.4
	c3,0,6-1.4,7.6-4.2c2.8-4.2,1.6-9.8-2.6-12.5L2209.6,1076z M2226,972.6c4.4,0,8.2-3.2,9-7.8l12.1-76.7c0.8-5-2.6-9.6-7.6-10.4
	c-5-0.8-9.6,2.6-10.4,7.6L2217,962c-0.8,4.8,2.6,9.6,7.6,10.4C2225,972.4,2225.6,972.6,2226,972.6z M2280,1110.8c3-4,2.2-9.8-2-12.7
	l-56.6-41.8l7.2-53.2c0.6-5-2.8-9.6-7.8-10.2c-5-0.6-9.6,2.8-10.2,7.8l-7.8,58.4c-0.6,3.2,0.8,6.6,3.4,8.6l60.9,45
	c1.6,1.2,3.6,1.8,5.4,1.8C2275.4,1114.4,2278.2,1113.2,2280,1110.8z M1276.1,419.1l-7.8-16.5c-2.2-4.6-7.6-6.6-12.1-4.4
	c-4.6,2.2-6.6,7.6-4.4,12.1l8.8,18.5c0.6,1.2,1.4,2.4,2.4,3.2l44.2,36.3c1.8,1.4,3.8,2,5.8,2c2.6,0,5.2-1.2,7-3.4
	c3.2-3.8,2.6-9.6-1.2-12.7L1276.1,419.1z M834.2,1494.5h-84.8l-7.5-112c-0.2-1.6-0.2-3.4,0-5l6-106.4l-122.7,43.6l-150.6,55.6
	l-5.2,66.7l-5.2,57.5h-45.5l5.5-61l3.6-46.2l-33.3,11.8l-230.6,82.5l-1.1,13H-2v-88.1l131.3-46.4L167.9,960l5.8-67.3L184,761.1
	l-30.9-2.8L-2,742.9V626.6l78.7,8.8c0.4,0,0.8,0,1.2,0.2l115.5,11.8l2.4-23.5l21.1-212.3L230,271.9l-2.6-0.2c-5-0.4-8.8-4.8-8.4-9.8
	s4.8-8.8,9.8-8.4l2.8,0.2l8.8-92l9.6-94l4.6-45.6l0.2-2L228,0h210l0.5,0.4l65.1,46.8l12.5,7L538,64.7c0.4,0.2,0.8,0.4,1,0.6
	l56.6,38.6c0,0,0,0,0.2,0c0.6,0.4,0.8,1,1.2,1.4c0.4,0.4,0.8,0.8,1.2,1.2c0.4,0.6,0.4,1.2,0.6,1.6c0.2,0.6,0.4,1,0.6,1.6
	c0,0.6,0,1.2,0,1.8c0,0.6,0,1.2,0,1.8c-0.2,0.6-0.4,1.2-0.8,1.6c-0.2,0.6-0.4,1-0.6,1.6c0,0,0,0,0,0.2l-7.6,10.6l95.8,72.5
	l81.3,61.7l26.9,21.1l34.9-58l-10-5.8c-4.4-2.6-5.8-8-3.4-12.3c2.6-4.4,8-5.8,12.3-3.4l10.4,6l1.8-3.2l24.1-40.4
	c-0.2,0-0.2-0.2-0.4-0.4s-0.4-0.2-0.8-0.4L841.5,150l-97.6-72.5c-4-3-4.8-8.8-1.8-12.7c3-4,8.8-4.8,12.7-1.8l97.4,72.3l20.9,14.1
	l0.8,0.4l2.4-4.2l-1.4-0.8c-4.4-2.4-6-8-3.6-12.3c2.4-4.4,8-6,12.3-3.6l1.4,0.8l8-16.5L944.6,0h49.7l-60.4,132.5
	c-0.2,0.4-0.2,0.4-0.2,0.6l-12.5,25.7c-0.2,0.6-0.6,1-0.8,1.6L857,267.1l-26.5,44l2.8,2.4l39.2,30.1l26.1,20.3
	c0.2,0.2,0.4,0.4,0.4,0.4c0.2,0.2,0.4,0.2,0.6,0.4l11.4,9.4l79.3,63.5l9-12.3l26.3-35.1c0.6-1,1.4-1.8,2.4-2.6
	c0.2-0.2,0.4-0.6,0.8-0.8c0.4-0.4,1-0.8,1.4-1c0.8-0.6,1.4-1.2,2.2-1.6c0,0,0,0,0.2,0l8.4-4.8l0.4-1.4l0.4-26.9c0-1,0.2-2,0.6-3
	l2.8-8l78.5-170.3l38.4-82.1l13.1-27.1l16.5-31.9L1170,0h23.4l7.2,9.8l4.6-9.8h20.2l-14.6,31.1l-0.4,0.8l-17.7,34.3l1.6,22.9
	l42.8-89h50.5l-58.1,120.7l-3,7l4,18.9c0.2,1.4,0.4,2.8,0.4,4l0.8,28.9c0,1.8-0.2,3.6-0.4,5.4l-1.6,7.6c0,0.4-0.4,0.8-0.4,1.2
	l2.2-4.4l14.9-31.7L1317.2,0h48.9l-78.6,174.9l-15.1,32.3c0,0,0,0,0,0.2l-51.6,107.2l23.7,10c0.8,0.4,1.8,0.8,2.4,1.6l64.3,55.8
	l69.5,12.9c5,1,8.2,5.6,7.2,10.6c-0.8,4.4-4.6,7.4-9,7.4c-0.6,0-1.2,0-1.6-0.2l-71.9-13.5c-1.6-0.2-3-1-4.2-2l-65.1-56.6l-23.1-9.8
	l-12.7,26.3l33.5,16.9c4.4,2.2,6.4,7.8,4,12.1c-1.6,3.2-4.8,5-8.2,5c-1.4,0-2.8-0.4-4.2-1l-34.1-17.1l-13.1,20.3
	c-0.8,1.2-1.8,2.4-2.8,3.6l-19.1,19.7c-0.4,0.4-1,0.8-1.4,1.2c-0.6,0.4-1,1-1.6,1.4l-15.5,11.2c-0.6,0.4-1.4,0.8-2,1.2
	c-0.2,0.2-0.4,0.4-0.6,0.4l-16.7,9c-0.4,0.2-0.8,0.4-1.2,0.6l-12,5.4c-0.6,0.2-1.2,0.6-1.8,0.8l-3,1l-34.5,42.8l-1.2,1.6l8.2,6.8
	l14.1,10.6l60.7,46.4l0.2,0.2c0,0,0.2,0,0.2,0.2l96.4,75.7c0.4,0.2,0.6,0.4,1,0.8l2.6,2.2l22.1,16.9l37.4,21.5l1.4,0.6l43.8,12.3
	c0.4,0.2,1,0.2,1.4,0.4l10.4,3.2l10,1.8l110.3,15.1c0.2,0,0.2,0,0.4,0h0.2l164.9,25.1l50.2,8.8l153.8,21.1l32.3,1.4l23.1,0.2l43.2-3
	l38.2-7.2l45.6-11l57.2-14.9c0.2-3.8,2.6-7,6.4-8.2c4-1.2,8,0.6,10,3.8l56.8-14.9l-0.6-3.6c-0.6-5,2.8-9.6,7.8-10.2
	c5-0.8,9.6,2.8,10.2,7.8l0.2,2l0.8-0.2c1.2-0.2,2.6-0.4,3.8-0.6l44.2-5.6c1.2-0.2,2.6-0.2,3.8-0.4l29.1-1c0.2,0,0.4,0,0.4,0
	c0.2,0,0.2,0,0.4,0l16.8-0.2v119.4l-15.4-0.3l-35.1,1.8L2215,819l-16.5,2.2c-0.2,0.6-0.2,1-0.4,1.6l-10.4,23.9
	c-0.8,1.8-2.2,3.4-4,4.4l-26.1,14.5c-1.4,0.8-3,1.2-4.4,1.2c-3.2,0-6.4-1.6-8-4.6c-2.4-4.4-0.8-10,3.6-12.3l23.3-12.9l5.2-12
	l-31.1,6.4l-33.1,8.6l5.8,6.2c3.4,3.6,3.4,9.4-0.2,12.7c-1.8,1.6-4,2.6-6.4,2.6s-4.8-1-6.6-2.8l-12.9-13.5l-12.3,3.2h-0.2
	c0,0,0,0-0.2,0l-42.6,10.2c-0.4,0-0.8,0.2-1,0.2s-0.4,0.2-0.4,0.2l-58.6,11.8c-1.2,0.2-2.4,0.4-3.8,0.6l-47.8,5
	c-1,0.2-2.2,0.2-3.2,0.2l-24.3,0.6c-0.4,0-0.8,0-1,0c-0.8,0-1.6,0-2.4,0l-28.3-1.6c-0.8,0-1.6-0.2-2.4-0.2l-43-5.4
	c-0.6,0-1.4-0.2-2-0.4l-16.3-3l-48.8-6.8l-354.3-54l-46.2-6.2c-1-0.2-1.8-0.2-2.8-0.4l-52.2-10.8c-0.8-0.2-1.8-0.4-2.6-0.6l-10-2.6
	l-0.6,0.8c-0.4,0.6-1,1.2-1.4,1.6l-4.6,5c-1,1.2-2.2,2.2-3.2,3.2l-13.1,11.6c-2.6,2.2-5.6,4.2-8.6,5.8l-20.3,10.2
	c-2.8,1.4-5.8,2.4-8.8,3.2l-15.5,3.4l-26.5,7c-3.4,1-7,1.4-10.6,1.4h-0.2l-39.8-0.2c-1.2,0-2.6,0-3.8-0.2l-94.8-9.2h-0.2
	c-0.2,0-0.2,0-0.4,0l-77.1-8.8l-49,4c-1,0-2.2,0.2-3.2,0.2c-0.4,0-0.8,0-1.2,0H903l-2.8,8.4l-1.2,9.4l-9.8,84.5l-1.8,37.6
	c0,0.4,0,0.8,0,1.2l-9.4,129.9l110.1-37.8l102.2-35.1l148.4-51c0.4-0.2,0.8-0.2,1.2-0.4l21.7-6.8c0.4-0.2,0.8-0.2,1.4-0.2
	c0.4-0.2,0.8-0.4,1.4-0.4l48.4-11.6c1.2-0.2,2.2-0.4,3.4-0.6l29.5-4.4c1-0.2,2-0.2,3.2-0.4l23.9-1.8c0.8,0,1.6,0,2.6-0.2l52.6-0.4
	c1,0,1.8,0,2.8,0l51,3c0.6,0,1.2,0,1.8,0.2l38.4,4c0.6,0,1,0.2,1.6,0.2l44.4,6.2h0.2h0.2l31.1,4.8l26.1,4.6c0.4,0,1,0.2,1.4,0.2
	l18.5,4c0.8,0.2,1.6,0.4,2.2,0.6l19.9,5.4c1.2,0.2,2.2,0.6,3.2,1l20.9,7.6c0.6,0.2,1,0.4,1.6,0.6l15.5,6.4c1.2,0.4,2.4,1,3.4,1.6
	l16.5,8.6c0.4,0.2,0.8,0.6,1.2,0.8c0.4,0.2,1,0.4,1.4,0.6l76.7,47.2c0.4,0.2,0.6,0.4,1,0.6l27.9,18.3c0.4,0.2,0.6,0.4,0.8,0.6
	l23.7,16.3l127.7,85.2l191.4,122.7c0.2,0.2,0.6,0.4,0.8,0.6l5.6,3.8l4.2-6.4l92.8-147.4c-2.8-3-3.4-7.6-1.2-11.2
	c0.4-0.6,0.8-1.1,1.3-1.5v166l-28.1,44.7l28.1,18.7v132.2h-41.8l-12.2-8.1l-46.4-29.7l-5.2,7.8l-19.7,30h-97.8l53.2-81l-20.5-12.5
	l-143.2-90c-0.4-0.2-0.8-0.4-1.2-0.8l-23.3-15.7l-32.7-20.7l-34.1,55.4l-22.1,50.6l-10.6,21.7c-0.4,1-1,1.8-1.4,2.6l-59.7,90.5h-55
	l75.5-114.4l9.6-19.7l22.5-51c0.4-1,1-2,1.4-2.8l35.7-58l-113.7-78.1l-80.5-50.2l-16.9-10l-19.1-10.2l-22.7-10.6l-28.1-9.6l-13.9-4
	l-9,13.7L1316.1,1457l29.1,22.1l23.4,15.4h-33.2l-0.8-0.5l-28.5-21.5l-14.1,22h-53.9l275.7-430.3l-9.2-2.2l-28.9-5.8l-25.7-3
	l-21.7-1.2h-20.1l-21.9,1.4l-20.5,3.4l-21.3,5.6l-45.4,15.5l-83.5,31.1c-0.4,0.2-0.6,0.2-1,0.4L866,1229.7l-13.5,150.6l171.2,114.2
	H942l-97.1-64.8L834.2,1494.5z M1087.1,406.5l7.5-3.5l-2.2,0.9l-7.4,3.4L1087.1,406.5z M1186.3,177.7l-46.6,97.4l-30.7,63.1
	c-0.2,0.4-0.2,0.6-0.4,0.8l-4.4,7.2l1.2-1.2l4.6-5.6l6.6-11.4l24.5-52.8l44.4-95.2l0.8-2V177.7z M1060,369.3l0.8-0.4l5.8-2.8
	l12.7-13.3l13.7-22.7l4.6-10l65.1-135.4l20.3-42.6l-2.6-12.3c0-0.2,0-0.2,0-0.4c-0.2-0.8-0.2-1.8-0.2-2.8c0-0.6-0.2-1.2-0.2-1.8
	c0-0.8,0.2-1.6,0.2-2.2c0-0.8,0.2-1.4,0.2-2.2c0.2-0.6,0.4-1.2,0.6-1.8c0.2-0.8,0.4-1.6,0.8-2.4c0-0.2,0-0.2,0.2-0.4l2.6-5.6
	l-1.4-2.8l-5.2-11l-54.8,117.3l-61.1,132.7l-2,5.8L1060,369.3z M1026.5,465.1l2.4,1.8l1.2-1.4l19.3-23.9l-0.2-0.2l-2.6-3.4
	l-19.9,26.9L1026.5,465.1z M934.7,727.4l32.1,11.2l75.9,8.6l92.8,9l32.5,0.2l7.8-2l6-7.8l6.2-8.4l-14.9-11l-166.7-123.7l-6,7.6
	l-23.7,32.7l-8.8,15.1l-16.1,29.9l-13.3,28.9L934.7,727.4z M531.8,82.1l24.3,19.1l19.7,14.9l2-2.6L531.8,82.1z M239.6,651.5
	l80.5,8.2l28.7,2.4l118.7,10.6l41.8,2.8c0.6,0,1.2,0,1.8,0.2l73.5,8l57.2-77.3l39.2-63.5l69.7-119.3l10.6-17.5l-10.8,14.7
	c-1.8,2.4-4.6,3.8-7.4,3.8c-1.8,0-3.8-0.6-5.4-1.8c-4-3-5-8.8-2-12.7l12.1-16.5l-130.3-100L559.9,250l-12.9,15.9l-21.3,26.9
	l33.7,25.5c4,3,4.8,8.8,1.8,12.7c-1.8,2.4-4.6,3.6-7.2,3.6c-2,0-3.8-0.6-5.4-1.8l-41-31.1c-2-1.4-3.2-3.6-3.6-6.2
	c-0.4-2.4,0.4-4.8,1.8-6.8l27.1-34.3l12.5-15.5L486,194.4c-0.2-0.2-0.6-0.4-0.8-0.6l-24.1-19.1l-94.2-71.5l-69.5-51.4l-2.2,20.7
	l-9.6,93.8l-23.7,249.8l-19.7,211.7L239.6,651.5z M220.5,876l35.3-9.4l50.6-15.9l47.2-17.1l43.2-20.1l51.4-24.5l8-5.6l-14.3-1.2
	l-201.6-16.7l-11.2-0.6L220.5,876z M791.9,814.2l-6.8-0.8l-159.5-15.1l-21.5-2l-55.8,43c-0.4,0.2-0.8,0.6-1.2,0.8l-62.9,34.7
	c-0.4,0.2-0.6,0.4-1,0.4l-35.5,14.5l-40,15.5c-1,0.4-2.2,0.6-3.4,0.6c-3.6,0-7-2.2-8.6-5.8c-1.8-4.6,0.4-10,5.2-11.8l39.8-15.5
	l34.9-14.3l61.9-34.1l39.4-30.5l-60-5.2l-1.8,4.2c-1.6,3.8-4.4,7.2-7.8,9.6L472.4,827c-1,0.8-2.2,1.4-3.2,2l-97.6,46.2
	c-0.6,0.2-1.2,0.6-1.8,0.8l-48.6,17.7c-0.4,0.2-0.6,0.2-1,0.4l-51.6,16.1c-0.4,0-0.6,0.2-1,0.2l-48.8,12.9l-2.6,0.6l-3.4,39.2
	l10,0.2c0.4,0,0.6,0,1,0l26.7,3.2c5,0.6,8.4,5,8,9.8l-4.6,52.2c-0.4,4.8-4.4,8.4-9,8.4c-0.2,0-0.6,0-0.8,0c-5-0.4-8.8-4.8-8.2-9.8
	l3.8-43.4l-17.3-2l-11.2-0.2l-34.9,362.1l9.4-3.4l572-204.4l14.9-153.8l5.6-58.2c0-0.4,0-0.8,0.2-1l13.1-107.4
	C791.7,815.2,791.9,814.6,791.9,814.2z M826,698.5l5.2-11l32.1-64.1c0.2-0.2,0.2-0.4,0.4-0.6c0.2-0.2,0.2-0.4,0.2-0.6l45.6-83.9
	l3.8-8.4l-71.1-52c-0.4-0.2-0.6-0.6-1-0.8c-0.4-0.4-0.8-0.6-1.2-0.8l-38.8-32.7c-0.4-0.4-0.8-0.8-1.2-1l-5-4.6l-5.2,8.8l-69.9,119.5
	l-40,64.9c-0.4,0.6-0.6,1-1,1.6L636,690.3l27.7,3.8l9.2,0.8L822,707.5l3.6-8C825.8,699.1,826,698.9,826,698.5z M799.9,203.6
	c1.6,1.2,3.6,1.8,5.6,1.8c2.8,0,5.4-1.2,7.2-3.6c3-4,2.2-9.8-1.8-12.7l-40.6-30.9c-4-3-9.8-2.2-12.7,1.8c-3,4-2.2,9.8,1.8,12.7
	L799.9,203.6z"/>
<path id="grass" class="st1" d="M360.5,214.5l3-26.3l15.3,12.7l-12.5,16.9l-2.6-2.2L360.5,214.5z M421.4,149.6L318.9,72.3l-5.6,53.8
	l10.4-12.9l8.2,6l10.2-10.2l20.7,21.3l48.6,36.6L421.4,149.6z M308.1,487.2l-12.9-10.6l-19.1-0.4l-3.8,33.1l33.9,13.3L308.1,487.2z
	 M484.8,767l-56-5.4l-3.2,33.9L484.8,767z M478,189l-36.4-27.5l-12,15.9l-1.4,2l35.7,26.9L478,189z M609.9,289l-35.1-27.9l-6.2,7.8
	l35.1,27.9L609.9,289z M279.8,534.2l-8.4-1.8l-4.8,53l7.6-1.4l11.8-2.8l6.2-2.6l6.4-4.8l2-28.7l-3.4-2.8l-5.8-4L279.8,534.2z
	 M179.2,288l-15.3-1.8l-2.4,24.5l12.1-2.6l3.8-0.4L179.2,288z M156.1,329.6l17.3-4.4l0.8-5.6l-17.5,4.8L156.1,329.6z M556.5,248.6
	l-15.9-12.3l-7.8,10.2l15.9,12.3L556.5,248.6z M124.5,393.2l-13.7-0.8h-3v0l-1.6,25.5l-2.2,1.4l-0.4,5.2l18.3,1.2L124.5,393.2z
	 M238.8,11.6l-7.2-6.2l-6-5.2l-7.2,8.4l6,5.2l14.3,11.6V11.6z M186.6,304.7l11.8-3l0.8-11l-14.9-1.4l-1.6,19.5l3.8,0.2L186.6,304.7z
	 M228.6,290.8l2.4-2l3-1.2l3.2-0.2l3,0.8l2.6,1.8l2,2.4l1.2,3l5.8-1l0.6-7.6l-34.1-2.4l-1.8,17.5l10.2-2.2l-0.2-3.2l0.8-3
	L228.6,290.8z M203.7,311.9l-18.3,5.6l-0.2,3.8l18.1-4.4L203.7,311.9z M1681.6,477.4l2.4,4.8l1,9.8l0.2,7.8l7.6,42.2l36.6-15.7
	l12.5,8l31.1,0.4l6.8-15.5l-11.6-30.5v-12.1l-40.8-1l-45.8-4.8l-27.3-3.8l-2.4-0.4l0.8-11l-19.7-23.7l7.8-33.9l6.2,1l2.4-0.6l1.4-2
	l1.4-1.6l1.4-1l2.6-0.2h2.4l2-1l3.4-5l5.2,0.4l2.8-0.8l2-2l1.4-2.8l8.8,1.4l1.2,4.4l7.4,3.6l10.4-11.4l-8.2-19.1l-44-5.8l-20.7,23.3
	l1.4,3.2l1.4,4.6l-3.6,2.4l-5,0.2l-4.6,1.2l-3.6,4.2l-5,3.6l-5.2,2.4l-6,1.4h-4l-4.6-0.8l-7.8-2.8l-13.1-12l-5.4-7.6l-13.5-4
	l-10.6,3.4l-36.1,4.2l-10.8,9.2l2.6,15.1l9.2,2l8.6,6.4l32.1,7.4l18.5,1.4l14.5,1.6l11.8,6.2l5.2,7.8l2.2,8.8l-2.2,2l-0.6,4.2
	l0.4,27.1l9.4,4.4l13.3,2.6l8.6,3.4l8.8-0.4l2,7l-1.8,16.7l7.8,18.5l11.2,13.7l12.3,9.6l10.4-0.6l8.4-6l1.6-8.2l-3.2-12.7l-5.6-10
	l-2.8-8l0.2-6.6l-0.6-12l1.2-10.8L1681.6,477.4z M565,521.8l9.8,1.2l3.8-29.3l-31.1-4.2l-3.2,25.1l-5.2-0.6l-6.2,46.8l26.5,3.4
	L565,521.8z M1414.5,370.1l10.8-4.8l10.4-6l3.8-4.6l0.4-9.2l4-17.9l-2.2-0.8l-0.2,3.6l-12-1l1-27.9l12.1,0.4l-0.4-5.2l3-12.7
	l9.2-3.6l7.2,1.2l6.2,9l0.2,18.5l-1.6,12.1l4.8,6.2l4.4,4.2l8.8,3l9.2,1.2l12-1l17.3-9.6l7.8-7.8l5.6-10.4l0.8-12.3l4-9.8l15.3,2.2
	l22.5,20.1l7.4-24.3l-16.9-10.4l-17.7-13.5l-19.9,9.4l-23.3-2.2l-17.5-10l-11.6-3.6l-21.5-4.6l-13.1,1.8l-16.3,5l-13.5,10.6l-4.6,10
	l-13.7,32.5l-18.3,12.7l-29.9,3l-8,4l-3.4,13.1l13.5,34.9l20.5,43.8l34.7,10.8l-8.6-45l9.2-8.8L1414.5,370.1z M1631,514.7l-2.8-10.2
	l-7.8-2.2l-12.7,6l6,12.5L1631,514.7z M2055.5,657.9l15.5-4.8l3.4,11.4l52.8-16.5l12-23.5l19.9-7.4l-23.5-90l-97.4,33.1l8.6,28.3
	l-11.6,3.6l6.2,20.5l12.1-3.6l8.4,27.7l-12.1,3.6L2055.5,657.9z M1194.4,1030.9l34.7-11.8l-3.8-10.8l-34.7,11.8L1194.4,1030.9z
	 M1591,536.4l-9,6.2l-6.8,8l-4.2,19.7l7.8,11.4l5.8,5.6l8.2,4.4l20.9,5l9.6-1.2l7.2-3.6l7-6l5.2-7.2l1.8-8.6l-1.2-9.4l-3.4-6.6
	l-10-10.2l-9-6.8l-9-3.2l-12-0.6L1591,536.4z M95.8,470.7l-2.2,23.5l7.8,1l0.8-13.3l14.9,1l3.2-39l-22.1-1.4L95.8,470.7z
	 M1531.6,528.2l-7-0.6l-6.2,1.6l-7,3.2l-3.6,4.4l-3.2,6.2l-0.2,7.4l3.6,10.6l6.2,5.4l11.4,4.8h9.2l6.2-0.8l2.4-6l4.4-19.7l-0.4-10.4
	l-5.6-3.2L1531.6,528.2z M794.9,273.3l-4.8,7.2l-51-39l-4.6,4l-5.2,6l0.8,7.4l58.2,42.4l9.8-6.4l36.1-56l-12.9-8.4l-17.1,22.3l4,3
	l-4.2,5.2l1,0.8l-9.4,12.3L794.9,273.3z M847.5,211.5l-4.6-1.6l-3.8-3.2l-13.3,17.5l12.1,7.2L847.5,211.5z M661.4,71.5l-31.1,58.8
	l-19.5,36.3l6.2,4.6l58,43.4l8.2,1.4l4.8-4.4l4.8-6.4l-51.2-38.4l4.6-6.2l-0.8-0.8l9.6-12.5l1,0.6l3.6-5l4.2,3.2l8.4-11.6l-10.6-8.4
	l-9.4-7.4l9-11.6l-2-1l5.8-7.8l-0.8-0.6l12.3-16.5l2.4-3.2l1,0.6l5.8-8.4l2.2,1.6l8.6-11.8l38.6,28.7l-2.2,3.4l3,2.6l9,7.6l7-9.4
	l6.4-9l-7.6-6l29.9-57l26.9,10.6l2.2-4.8l2,0.8l10.8-23.3l-4.8-2.8L814.3,0H699.5L661.4,71.5z M1008.8,1096.9l46-16.3l-3.8-10.4
	l-46,16.3L1008.8,1096.9z M899.7,1135.7l82.1-28.9l-2-5.8l-82.1,28.9L899.7,1135.7z M1064.2,1077.5l46.2-16.9l-3.8-10.4l-46.2,16.9
	L1064.2,1077.5z M1119.8,1058.2l45.2-15.9l-4-11.4l-45.2,15.9L1119.8,1058.2z M1963.3,411.5l4.8,6l7.2,5.4l5.4,1.6l6.2,0.8l8.8-1
	l4.6-3.2l5.2-4.8l3.4-5.6l3-10l-2-9.4l-7.8-11.2l-16.3-18.9l-9.8-10.8l-13.1,9.4l2.8,4.8l-14.9,8.6l-12.9,7.4l-14.5,8.2l-9,5l-6-4.8
	l-23.9,10.8l1.8,9l-15.1,2.6l-13.7,1.8l-26.5,3.2l-16.1,2.4l1,7.8l12.5,11l6.8-3.2l25.7-2.4l13.7-2l15.5-2.4l2.6,13.3l5.4,9.6
	l11,4.2h9.2l6.6-1.2l5.6-3.6l6.2-5.4l2.2-6.6l0.8-8l-1.2-6.6l-1.6-4.2l-3.4-6l-3.4-2.4l5.8-7.8l9-6.8l8.4-1.6l8.4-0.6v9.6
	L1963.3,411.5z M2025.1,0h-120.8l2.4,23.7l8.6,12l74.9-20.3L2025.1,0z M1498.4,500.3l-22.7-15.7l-4,6.8l-7.6,13.3l23.7,16.7
	L1498.4,500.3z M1476.3,543.6l10.8-15.9l-24.5-19.1l-17.3,20.9l18.1,11.4L1476.3,543.6z M1785.8,536.6l14.3-8.8l14.9-6.4l17.1-7
	l16.5-6.6l7.6-23.5l-23.3-20.9l-12,3.6l0.4,3.2l-45.8-1.6l1.6,15.1l-0.6,17.7l5.4,17.9L1785.8,536.6z M1801.3,564.1l0.8,1.2l2.4,6
	l4.6,4l7.2,3.4l8.8,0.4l31.9-6.4l6.2-3.4l4.4-4.2l3.6-6.8l1-7.6l-1.6-7.8l-4.8-6.6l-7.2-4.8l-1-0.6l-8.2-1.4l-7.2,1.4l-20.5,4
	l-3.8,0.8l-4.6,1.4l-4,2.4l-3.4,3l-4.2,6.6l-1.4,7.6l0.6,5.6L1801.3,564.1z M2170,216.9l4.8,6.2l6.8,5l7.2,2.8l6.6,0.8l8.8-1.2
	l7.4-3.2l5.2-4l4-4.6l3.4-6.4l1.8-7l0.2-6.8l-1.2-5.8l-2.4-5.6l-3.2-4.4l-4.4-4.6l-5.2-3.4l-6-2.4l-8.6-1l-6.8,1l-5,1.8l-4.6,2.6
	l-4.6,3.8l-3,3.8l-3.2,5.8l-1.6,5.4l-0.6,6.4l1.2,8.2L2170,216.9z M1398.4,206.9l-22.5-6l5.4-20.3l-18.3-5.6l-2.2,0.2l-6.4,2
	l-3.2,4.4l-3.2,7.8l-2,9.2l-1.4,12.3l0.2,7.8l2,6.6l4,4l-3.6,1l-2.4,2.6l-1,5.8v7.8l3.6,13.1l2,10.2l0.2,10.4l1.6,6.4l10.8,10.4
	l4,4.4l4.6-0.4l7.2-4.4l4.8-6.6l3.2-9.6l3.6-15.3l0.8-11l0.2-6.6l-0.8-3.4l-3.8-3l-2.2-3.2l0.6-4L1398.4,206.9z M1490.4,12l6.8,9.6
	l10.6,10.2l3,2.4l3.8,0.8l4.2-3l3-7.4l2.4-9l1.6-9l1.1-6.6h-42.3l1.3,3.2L1490.4,12z M115.1,361.9l0.4-4.8l-6.8-11.2l-5.8,2
	l4.2,13.5L115.1,361.9z M2080,251.2l15.7-4.4l13.9,7.6l6,21.3l10.2,0.8l48.4-24.7l-18.3-28.5l-1.6-36.1l6-32.7l-47-10.2l-67.9-41.8
	l-24.3,69.1l-9-4.4l-15.3,28.5l-5.2-2.8l-4,8.4l-20.5-10.2l-9.6,17.1l111.5,60.7L2080,251.2z M2231.2,680.2l46.6,20.3l6.2-1.9v-36.1
	L2231.2,680.2z M177.4,691.9L-2,675.8v8.4l178.5,16.1L177.4,691.9z M1292.3,1494.5h43.6l-30.9-19.8L1292.3,1494.5z M2024.6,358.5
	l1.6,3.6l1.6,5.2l3.6,5.2l3,4.6l2.8,1.6l3,1.8l6,0.6l5-1.4l3.6-4.8l1.6-5.4l1.4-5.4l0.4-2.6l0.2-3.8l-0.2-2.4l-1.2-2l-3-1.6l-1.2-2
	l1.6-2.4l2.2-3.6l0.6-3.4l-0.2-1.8l-2-4.2l-3.4-2.6l-4.6-0.4h-5l-5.4,0.4l-3.8,1l-2.6,2.2l-2.4,3.4l-0.8,1.8l-0.8,1.8l-1,3l-1.6,4.4
	l0.4,4.2L2024.6,358.5z M2185.5,442l21.1,30.1l13.7,5.6l47.2,0.8l10.2-3.6l6.2-10.1v-36.5l-37.3-30.1l-8.6-1l-8.4-2.6l-43.6-18.3
	l-12-2l1.8,25.7L2185.5,442z M2164,717.6l10.6-18.1l-51.6,16.1l4.6,7L2164,717.6z M1459.1,503.5l-10.2-9.4l-7.4-7l-19.7,22.9
	l19.3,14.7L1459.1,503.5z M1983.4,65.3l-24.1-16.9l-94.2,18.9l-13.5,35.1l2,16.5l6.8,2l7.2,20.1l-3.4,5.2l6,12l8.2,7l65.9,35.9
	l9.4-17.5l-18.7-11.6l4.8-7.2l-4.4-2.4l36.3-67.5L1983.4,65.3z M1961.7,302.7l-4.8,8.8l-5.2,7.2l2.6,2l15.7,17.7l3.2,4.8l3-12.1
	l6.8-14.7l9.6-12.7l11-10l6.6-2.8l-9.4-1.6l-14.1-6.2l-11.6-7.2l-7.8-6.4l0.6,11.8l-2.8,10.8L1961.7,302.7z M2207.3,323.7l2.4,12.3
	l14.7,9.2l1.2,18.5l19.5,7l-6.6-28.9l-4.8-23.5L2207.3,323.7z M2100.1,117.1l6.2-0.8l2.8,3.6l41.6,17.7l10.4-2.2l8.6-7l9.4,15.1
	l12.3,4.6l9.4-5l21.3,10l12,8.4l9.2,5.4l-4,10l8.8,13.3l19.5-0.2l11.8,5.8l4.8-2.5V67.2l-16.8-1.5l-8.8-0.8l-0.8,10.2l-3,39.4
	l-0.2,7.4l-0.2,8.4l-32.1-0.6l0.4-15.9l18.7,0.4l1.8-40.2l0.8-11.6l-66.7-2.6l7-21.7l-2.6-12l-3.4-11L2170.7,0h-74.9l0.9,8.6
	l-3.8,1.6l-5-7.4L2074.6,7l-3.8-3.2L1998.5,37l-4.8,4.8l-0.4,8.6l9.8,10.2l41,25.1l6.6-17.3l4-11.8l1.2-15.3l9.8,0.8l0.4-5.2l14.3,1
	l-0.4,5.4l12.5,1l0.6-8.2l25.3,2l-1.2,15.7l-0.4,5.4l-10.4-0.8l-13.1-1l-0.4,5.6l-11-0.8l0.2-3.6l-22.7,12.3l6.6,3.2l3.8,3.4
	l0.2,4.6l0.6,5l0.4,3.8l3.6,2.4l4.8,2.2l7.4,3.4l3.8,3.6l-0.2,10L2100.1,117.1z M129.6,332.6l-11.6-1l-0.6,3.2l-1.2,3l-3,4.6l10,8.2
	l4.8,0.2L129.6,332.6z M131,314.3l-5.6-0.6l-10.2,6.2l1.6,3l1,3.2l12.7-2.8L131,314.3z M2267,322.3l7.4,33.5l9.6-2.2v-15.3
	l-8.6-17.9l2.6-15.7l6-1.8l0.1,0.1v-49.2l-9,8.1l-22.7-0.8l-42.4,23.3l-56,26.3l5.8,37l39.2-11l0.2-7l-23.3,6l-4.6-21.1l42.4-12.9
	l-2.2-10.4l45.2-10.2L2267,322.3z M1890.2,274.9l8.2,1l4,0.2l3.8-1.8L1921,246l-68.9-44.4l-12.5,6.8l3.4,10l1,13.5l-2.8,15.3
	l-8.8,12.7l-11.4,9.8l-10.8,3.4l-0.8,6.8l3.6,24.7l3.8,8.8l5.8,8l5.6,7l2.6,0.8h2.2l1.6-1l47.6-32.9l2.2-3l0.6-3.2l-1.2-3.2
	l-5.2-6.4l3.8-7.2L1890.2,274.9z M1776,8.6l1.4,4.8l4.6,16.3L1847.6,0h-94.5l8,16.1L1776,8.6z M2189.9,25.1l7.2,2.2l15.3,0.8
	l14.3-0.2l8.4-5l9.8-7.8l1.4-14.1l12.9,1.2l0.3-2.2h-72.7l0.2,20.1L2189.9,25.1z M1590.2,62.7l6.6,3l8,1.8l7.8,0.6l6.8-1.8l5.2-6
	l3.6-16.7l2-12l0.6-8.6l-1.6-12L1626.2,0h-47.4l-2.1,3.6l-2.4,8l-2,9.2l-0.6,8.4l2.2,10.6l3,8.8l5.8,8.6L1590.2,62.7z M2284,0h-12.5
	l-1.1,22.3l13.6,1.2V0z M1734,171.9l5.6-8.6l10.8-11.6l9.2-5.4l17.5-3.6l13.5,1.6l11,6l8.4,8.6l8.6,7.6l13.7-5l4.2-3.4l3.2-3.6
	l0.6-5l-5.8-16.5l-5-11.4l-5-8l-6-5.4l-9.6-4.4l-5.8-1l-4.8,1.6l-3.4,3l-2.8,5.2l-11-1.2l-0.8-4.4l-2-6.2l-3-2.2h-5.4l-14.1,2.6
	l-20.3,3.8l-9.2,3.2l-9.6,5l-6.6,5.2l-5.6,6.8l-9.2,14.5l-8.8,11.4h-1.8l-2.2,0.6l-2,1.4l-10.4,10.4l-5.2,4.4l-5.6,4l-7.8,4.4
	l-12.7,5.4l-11.8,7.6l-4.4,6l-2.6,7.2l-2.4,28.5l1.6,8.6l5.6,7l10.2,2.6l12.3-2.2l9.4-4.4l6.8-5l7.2,0.2l6.2,3.6l4.6,6L1699,283
	l-10.2,25.5l-4.2,21.5l1.6,6.8l5.2,5.6l9,5l10,4.4l6.4,1.6l4.6-1.4l7.2-2l8.4-1.8l10.4-0.4l15.9,2.8l10,3l9.4-2.4l9.4-9l9.6-12.9
	l5.6-15.1l1.2-12.1l-3-10.6l-4.8-17.3l-18.3-2l-16.9-13.9l-11.8-13.3l-10,4.4l-14.1-29.7l8.6-5.4l-7-15.7l0.4-14.3L1734,171.9z
	 M1700.4,79.9l-0.6,1.6v1.8l0.4,1l0.8,0.8l1.2,0.2l2.6,0.2l18.5-0.8l15.9-1.8l8-3.8l5.6-5.2l2.2-11l0.2-10.8l-15.7-36.3L1729.8,0
	h-91.2l0.6,3.4l11.2-0.2l0.2,6.2l42.6-0.6l-0.2-6.2l13.9-0.2l0.2,7.4l12-0.2l0.2,7.2l-71.1,1.2l-6.6,2.8l0.8,11.2l-2.6,9.4l0.6,10.6
	l-2.6,9.6l2.4,11l6.6,7.4l10.6,5.2l14.9,1.2l14.1-0.2l2.6-0.2l0.8-0.4l0.4-0.8l0.2-0.8l-0.4-2l-1-1.8l-0.4-2v-1l0.4-0.8l0.8-1
	l1.2-0.6l3.2-0.6l3,0.2l2.2,0.6l1,0.4l0.8,0.8l0.6,1v1.2L1700.4,79.9z M1558.7,179.9l3.4-3.6l1.8-4.4l3.2-9.8l4.4-6l6.6-9l3-7.8
	l1-7.2l-2.6-4.8l-3.8-2.4l-4.6-0.8l-8-3l-13.5-6l-25.3-13.1l-9.8-6.8l-4.6-4.6l-3.6-5l-3.8-9l-2.8-14.5l-2.8-5l-5.4-3.2l-7.8-2.4
	l-5.8-1.6l-3.4-0.2l-4.8,3l-3.6,4.6l-2.8,4.8l-3.8,7.6l-3.4,12.5l-3.8,12.1l6.6,1.8l-27.9,106l-6-1.4l-2.4,12.1l24.1,10.4l7.8,1
	l15.7,0.2l13.1,2.6l11,4.4l7.6,5.2l11.6,3l1-4l3.2-16.1l2-0.2l4.4-2.2l2-3.4l9.4-1.2l-0.6-7.4l8.8-17.5L1558.7,179.9z"/>
<path id="parking" class="st2" d="M156.1,211.5l-5.4,61.3l-11.6-1l5.4-61.3L156.1,211.5z M179.8,221.7l-12.9-1l-3,46l12.9,0.8
	L179.8,221.7z M121.1,223.1l-70.7-6.8L48.6,231l71.3,6.8L121.1,223.1z M159.7,595.3l4.4-44.2l-54.8-4.8l-2.6,31.1l14.3,1.4l-1,13.1
	L159.7,595.3z M170.7,64.5l-13.3,15.3l-22.1-0.8l5.8-61.9l-44-3.8l-2,14.9L89.8,97l-0.2,1.2l83.3,7.4h0.8l16.5-20.7L170.7,64.5z
	 M743.1,100.6l-3,3.6l83.5,62.1l1.6-2.6l11.6,9.2l2-2.6l22.1,16.5l9.8-18.9l6.2-11.6l5.8-11.4l-34.5-16.7l17.3-36.4L794.9,59
	l13.5-28.9l-29.3-11.6l-30.5,58l-0.6,1l7.6,5.8l-5.6,8L743.1,100.6z M487,587.2l45.8-17.7l5.2-63.3l-43.8-4L487,587.2z
	 M260.1,1010.4l4.4-47.2l-18.9-1.8l-4.4,47.2L260.1,1010.4z M604.7,468.5l22.1-29.5l-51.6-38.6l-22.1,29.5L604.7,468.5z
	 M489.6,351.5l-0.8,1l41.4,31.3l35.1-46.4l0.8-1l-41.4-31.3L489.6,351.5z M785.9,241l37.2-49.8l-41.6-30.7l-25.1,33.9l2.6,2l1.2,1.4
	l1,1.6l0.6,1.8l0.2,1.8l-0.2,2l-0.4,1.8l-0.8,1.8l-1.2,1.6l-1.4,1.2l-3.6,2.2l3.6,2.4l-2.2,3L785.9,241z M292.6,1013.6l1.2-13.5
	l5.8,0.6l2.6-33.1l-21.3-1.4l-3.4,46.4L292.6,1013.6z M364.5,982.7l49.2,4.4l7.2-83.9L371,921.4l-0.8,0.2L364.5,982.7z M1171.9,90.2
	l7.4,20.1l13.5-4.6L1246.2,0h-30.9l-43.1,89.8L1171.9,90.2z M2258.4,1261.4l25.6,17.1v-55.9L2258.4,1261.4z M1285.3,1441.8l-12-8
	l-38.7,60.6h16.5l33.4-51.7L1285.3,1441.8z M1430.7,1147.7l-20.7,5.6L1301,1323.1l-0.8,1.2l13.7,9.6l114.9-183.4L1430.7,1147.7z
	 M1207.8,114.5l-1.8,5.6l1.2,6.6l24.3,67.7L1321.9,0h-60.1L1207.8,114.5z M689.9,168.3l18.5,13.3l1.8-2.6l3.4,2.4l1-3.6l0.8-1.8
	l1-1.4l1.4-1.2l1.6-1l1.8-0.6l1.8-0.2h1.8l1.8,0.4l1.8,0.8l2.8,1.6l25.1-31.9l-29.7-23.5L689.9,168.3z M1282.5,1419.7l12,8l59-92.4
	l20.7-32.1l79.1-123.1l1-1.2l-9.4-6l-0.4-0.4l-0.6-4.8l-160.5,251L1282.5,1419.7z M574.2,27.3l-30.1,39.6l32.3,23.9l54,40.8L700.1,0
	H594.6L574.2,27.3z M1006.2,1317l-5.2,8.8l1.8,0.4l4.4,1.2l4,2l3.6,2.8l2.8,3.2l0.8,1.4l1,2.2l0.6,1.8l1,3.6l5,2.6l17.3-26.1
	l-6.8-21.9l-24.7,8.2l-0.4,0.2l-2.4,4.2l4.2,3.2l-3.2,4.2L1006.2,1317z M1289.5,1371.3l-13.5-9.4l-85,132.6h18.5l79.5-122.2
	L1289.5,1371.3z M705.3,534.2l62.1-93.6l0.6-1l-21.7-17.9l-14.1-9.8l-23.3,32.5l-44.4,59.4L705.3,534.2z M1146.2,374.7l78.7-163.9
	l0.2-0.4l-1.2-3.6l-2.6-3.2l-5-2.4l-2.8-0.6l-4.4,0.2l-3.6,1l-75.9,159.3l-7,10.8l7.4,24.9l9.8-11.2L1146.2,374.7z M1075.3,1391.2
	l74.9-116.1l3-3.6l-6.2-17.9l-91.8,32.3l-0.4,0.2l-9,10.6l12.3,33.9l-24.9,33.9L1075.3,1391.2z"/>
<path id="water" class="st3" d="M1451.8,347.2l10-38.2l-12.1-3l-1.6,8.6h-4.8l0.2-13.7l-0.4-5.2l3-12.7l9.2-3.6l7.2,1.2l6.2,9
	l0.2,18.5l-1.6,12.1l4.6,6.6l4.4,4.2l8.8,3l9.2,1.2l12-1l17.3-9.6l7.8-7.8l5.6-10.4l0.8-12.3l4-9.8l15.3,2.2l22.5,20.1l5.6,4.8
	l13.5,0.2l9.2-5l6.2-8.4l7-7.6l12.3-7.6l6.4-3.8l7.4,0.6l8.6,4.8l2.6,6l0.2,10.2l-3.8,14.9l-15.7,20.5l-18.5,9.2l-9.6,1.6l-6.4,2.4
	l-9.8,9.2l-10.2,12.1l-3.4,4.8l-0.4,5.8l3.4,6.6l6.4,5.8l10.2,0.4l6.8-1.4l4.6-4.6l4.6-3.6l5.2-1.8l5.2-0.8h5l1.4,4.6l-3.6,2.4
	l-5,0.2l-4.6,1.2l-3.6,4.2l-5,3.6l-5.2,2.4l-6,1.4h-4l-4.6-0.8l-7.8-2.8l-13.1-12l-5.4-7.6l-13.7-4L1541,378l-36.1,4.2l-10.8,9.2
	l2.6,15.1l9.2,2l9,5.8l32.1,7.4l18.5,1.4l14.5,1.6l11.8,6.2l5.2,7.8l2.2,8.8l-2.2,2l-0.6,4.2l0.4,27.3l9.6,4.4l13.3,2.6l8.6,3.4
	l8.8-0.4l2,7l-12.5-0.2l-12.9-2.6l-22.3-8l-1.4-48.2l-11.8-8l-8.8,1.8l-13.7,3.8l-10.6,3.8l-23.5,1l-36.3,4.6l-19.5-10.6l-33.7-20.1
	l-16.3-1.2l-12.3-4.8l-5.8-24.9l9.2-8.8l8.6-6.4l11-4.8l10.4-6l3.8-4.6l0.4-9.2L1451.8,347.2z M1524.9,216.3l-4.4,2.2l-2,0.2
	l-3.2,16.1l-1,4l-1.8,8l16.5-0.6l10.6-8l7.8-9.4l-1.8-8l-10-16.5l0.6,7.4l-9.4,1.2L1524.9,216.3z M1370.9,227.1l1.8-3.4l-1-5l-5.2-3
	l-3.6,1l-2.2,2.2l-1,4.6l2.4,4.2l5.8,1.2L1370.9,227.1z M1855.7,183.4l4.4-1.2l3-3.6l0.6-4.6l-2-4.2l-4-2.4h-4.6l-3.8,2.4l-2,4.2
	l0.6,4.6l3,3.6L1855.7,183.4z M1821.7,547.1l1,1.8l1.6,1l1,0.4l0.4,1l2.8,0.2l3.4-0.2l2,0.2l2.8,0.6h3.4l2.4-0.8l2.2-0.4l3.4,0.4
	l5.4,1l6.6,2.6l4.6,3.6l3.8,2.8l3.4,1.4l3.4,1l3.6,0.4l1.6,0.8l6.6-1.6l4.6-2.6l3.6-3.8l2.4-3l2.2-2.8l1.6-5l0.8-3.6l0.2-1.8l-3.4-1
	l-3-1.4l-3.6-1l-4.4-0.2l-2,0.2l-2.4,1l-2.6,0.4l-3-0.4l-2.2,0.6l-1.8,1l-4.4,2.4l-3,1.6h-3.4l-5.2,0.2l-4.4-0.8l-3.8-1.8l-2.8-2.4
	l-1.2-2.2l-1-2.4l-1-1.2l-0.8-1v-2.2l-20.5,4l0.4,7.2l-0.8,3.2L1821.7,547.1z M2089.5,432.4l-1.6,5.8l0.2,2.6l1.8,2.8l-1,3.4
	l-0.4,11l0.8,2.4l-4.6,3.4l-8.4,8.2l1,2.6l2.6,2.6l1.8,3.8l0.4,4.8l-1.8,7.2l-4,7.4l-3.2,0.8l-3.4,1.2l-3.2,2.4l-2.4,2.8l-0.8,3.6
	l-3.2,5.4l-5.4,5l-4.8,2l-5,0.8l-5.4-0.2l-5.4-2.6l-4.8-4.4l-3.4-2.4l-6.6-1.6h-5.8l-4.4,1.8l-4.2,2.8l-3.2,3l-5,1.8l-2.6,0.4
	l-5.8,6.8l2.6,1.8l-5.2,6.2l-2.6-2.4l-3.2,2.4l-4.4,2l-7,1.6l-8.8-0.6l-7.8-2.8l-6.6-4.6l-4.2-7.4l-1.2-7.8l0.2-12.9l1.4-12.1
	l0.6-4.6l1.6-4.2l4-2l19.3-11l7.8-1.4l5.4-0.6l3.2,0.8l3.8,3.2l0.2,5.8l-0.8,9.6l0.8,3.6l3.2,3l3.8,1.4l4.8-1.6l7.6-6l11-11l6-6.8
	l8.6-6.4l3.6-3.4l5-3.4l7-3.4l3.4-0.2l4,0.4l3,1.6l2.4,1.2l8-7.6l1-3l-1.8-4.6l1.8-18.7l-1.4-9.4l-2.6-7l-4.8-4l-5.8-1.4l-5.6-0.8
	l-8.6-3.8l-6.8-4l-5.4-3.4l-6.8-3.2l-7.2-2.4l-4-2.4l-4.2-5l-0.4-10l-0.2-8.2l-1-2.8l-5.2-1.6l-2.4-3l0.6-7.8l-0.2-6l-1.6-5.6
	l-2.6-4l-3.4-1.8l4.2-7.4l-5.2-5.2l2.8-5.4l6-5l6.8-5.4l1.2-4.6l0.6-1.2l1.2-1l2-0.2l2,0.6l1.4,1.4l2.4,0.4h5.6l2.8,1.2l1.2,2.6
	l-0.2,3.8l0.2,3.6l3.2,4.2l2.2,2.6l2.2,1l3.4-0.6l-0.2-3.6l0.6-2.6l6.4,0.6l5.4,1.2l5.6,2.6l5.6,3.2l8,4.4l6.2,3.8l1.8,2.6l2,7.4
	l3.8,14.5l1.6,7.8l1.2,7.4l0.4,7.8l0.4,5.6l0.4,7l1.8,6.4l5,11.2l1.4,6.6l-1.4,8.4L2089.5,432.4z M2059.1,356.5l-0.2-2.4l-1.2-2
	l-3-1.6l-1.2-2l1.6-2.4l2.2-3.6l0.6-3.4l-0.2-1.8l-2-4.2l-3.4-2.6l-4.6-0.4h-5l-5.4,0.4l-3.8,1l-2.6,2.2l-2.4,3.4l-0.8,1.8l-0.8,1.8
	l-1,3l-2,4.8l0.4,4.2l1,4.8l1.6,3.6l1.6,5.2l3.6,5.2l3,4.6l2.8,1.6l3,1.8l6,0.6l5-1.4l3.6-4.8l1.6-5.4l1.4-5.6l0.4-2.6L2059.1,356.5
	z M1976,517.9l-0.4-6.4l-2.4-5l-3.4-0.2l-3.6,1.6l-1.6,1.6l-1.6-1.4l-2.8-0.2l-3.4,0.4l-0.2,3l1.8,4l3.4,3.4l1.4,3h3.6l4-0.8
	L1976,517.9z M1977.6,496.3l0.8-0.8l0.6-1l-0.8-1.8l-1-2.2l-1.6-1.2l-3-0.4l-1.6,0.4l-1,0.6v2.2l-0.8,1.6l-2,1l-1.2,1.2v2.2l0.4,1.6
	l1,1.8l1.4,1h2.4l1.8-0.6l0.4-1l-0.6-1.2l-0.4-1.8l1.4-1.2l1.8-0.2L1977.6,496.3z M1987,508.3l-1.2-2.4l-1.4-2l-2.2-0.4l-1.4,0.6
	l-1.8,1l-1,2.6l0.4,2.6l1,2l1.8,1l1.8,0.2l1.8-0.6l1.2-0.8l0.8-2L1987,508.3z M2052.9,480l-1-1.2l-3.6-2l-4.6,1.6l-2.6,1l-4.8,2.8
	l-1.8,2.4l-1.6,2.6l-0.8,2.8l0.4,2.4l0.6,1.2l1.6,1.6l3.4,0.4l4.6-1.2l4.2-2.6l4.8-6l1-3.2L2052.9,480z M2278.8,474.4l-10.2,3.6
	l-47.2-0.8l-13.9-5.6l-21.1-30.1l-9.6-42l-1.8-25.7l12,2l43.6,18.3l6.4-15.1l-53.2-27.3l-8,0.2l-7.8,3l-2.4,13.9l9.8,58.4l15.3,56.2
	l19.9,4.4l67.7,1.4l5.6-1.7V466L2278.8,474.4z M1531.6,15.5l10.2,2l3.3-17.5h-31.5l4.5,6.6L1531.6,15.5z"/>
<path id="build" class="st4" d="M1329.3,902.9l-21.5-28.3l4.8-34.5l28.3-22.5l36.8,3.8l21.1,31.3l-3.4,33.1l-31.7,22.5L1329.3,902.9
	z M1302.4,833.2l-42.6-7.2l-4.4,28.7l41.8,7.2L1302.4,833.2z M1547.2,542.4l-4.8,22.3l30.3,6.6l4.8-22.3L1547.2,542.4z
	 M1420.1,910.2l-2.4,15.7l4.2,0.6l-0.2,1.4l5.6,0.8l-0.2,1.2l3.2,0.4l-0.2,3l0.8,3.2l1.6,3l2.4,2.4l2.8,1.8l3.2,1l3.6,0.2l3.2-0.8
	l3.2-1.8l2.2-2l2-3.2l0.6-1.8l4,0.6l1.2-7.6l4.2,0.6l8.6-56.6l-3.2-0.6l0.4-6.8l-4-0.6v-1.2l-0.4-2.4l-0.8-2.2l-1.2-2l-1.6-1.8
	l-2-1.4l-2.2-1l-2.4-0.6l-2.4-0.2l-2.4,0.4l-2.4,0.8l-2,1.2l-1.8,1.6l-1.4,1.8l-1,2l-0.4,1.2l-4.2-0.6v0.2l-5.4-0.8l-0.2,1.4
	l-4.6-0.6l-2.4,15.7l1.4,0.2l-5.2,34.3L1420.1,910.2z M1995.5,104.8L1972,92.2l-36.8,68.7l-0.6,1.2l64.1,34.5l16.5-30.9l-4.8-2.6
	l28.9-54l0.6-1.2l-36.1-19.3L1995.5,104.8z M1894,620.8l8.2,29.5l-61.1-10.2l-0.6,3.2l-6.2-1.4l-6,40.2l1.2,3.4l-18.1,35.7
	l-69.3-12.3v-11l-22.7-7l-6,5.6l3.6,7.6l-78.7-11l1.4-11l-25.1-6.8l-2.2,12l-75.5-11.6l0.8-12l-24.1-3.6l-4.6,3.4l2.2,7.4
	l-76.9-12.3l0.8-8.8l-24.3-7.6l-4.2,4.2l2,9l-20.7-4.2l13.5-88.2l-37.8-27.1l-12.3-22.1l-21.5-21.1L1302,476l-26.9-10l-43-33.7
	l2-3.2l-5.6-4.8l20.9-26.3l-30.5-23.5l-118.7,156.2l30.3,24.7l10-16.3l4.2,3.2l54.4-72.1l-3.6-3.4l16.1-19.5l4.6,1.8l-1.4,4.8
	l43.8,35.7l-34.3,56.6l-3.6-2.6l-17.7,29.7l74.9,56l22.7-24.1l-2-3.6l45-49l21.1,18.9l-9.4,57.8l-13.3-2l-9.6,62.5l518.5,86.4
	l38.4-65.3l-12.1-7.6l0.8-12l57.8,9.2l1.8,12.3l4.8,1.8l9.8,35.7l51,0.8l23.7-2.4l45.8-13.1L2028,593.7L1894,620.8z M1211.8,1086.5
	l57.4-20.1l39.6-14.5l48.6-17.1l8.8-2.4l8.4-0.4l8.8,0.6l9.4,2.4l5.6,2.4l6.4,3.6l2,1.6l6,5l5.8,7.2l5.6,9.8l3,12.1l1,9.6l-0.8,8
	l-2.2,9.2l-5.2,10l-2,3.2l-38.2,58.8l-15.7,25.5l-80.3,125.1l-4.2,7l-14.5,23.5l-71.1,109.5l-0.6,1.4l-17.5,27.4h-91.6l-148.4-97.3
	l0.4-0.6l-95.6-62.9l-1.6-2l-1.2-2.4l-0.6-2.4l-0.2-1.2l10.8-104.4l0.4-1.6l1.2-2.6l2.4-2.4l1.8-1.2l77.1-27.3l11.2,32.5l19.3,55.4
	l42.4,28.5l21.5-7.6l-7.4-20.3L980.7,1168l9.2-3.6l-0.8-2.2l12.9-4.6l-1.2-3.4l22.1-8l2,5.6l4-1.4l-2-5.4l22.5-8l2,5.4l3.4-1.2
	l-2-5.4l22.3-7.8l1.8,5.4l4.2-1.6l-2.2-5.4l22.7-8l1.8,5.6l4-1.4l-1.8-5.4l21.7-7.6l1,2.8l13.1-4.8l1.8,5l8.8-3l-1-3l23.9-8l0.8-4.2
	l9.8-3.4l3.6,2.8L1211.8,1086.5z M1252.6,1298.8l-34.7-21.3l-10.4,16.9l-23.7-15.1l2.8-19.9l2.4-3.2l-10.6-5.8l-3.4-11.4l-29.5,10.4
	l7.6,22.1l-3,3.6l-73.3,113.7l37.4,24.5l-1.6-3.8l-0.8-4.2v-4.2l0.8-4.2l1.6-4l1.6-2.6l49-76.3l2.4-2.8l2.8-2.4l3.2-1.8l3.6-1
	l3.6-0.4l3.6,0.2l3.6,0.8l3.4,1.6l10.2,6.6l0.8-1.2l29.1,18.9L1252.6,1298.8z M1208.8,1231.1l-9.4,7.4l18.5,12.1l7.2-10.6l7.6,4.6
	l9.6-14.1l5.2-9l1.2,0.8l2.4-4.2l-13.7-9.2l-1.6,1.2l-8.6-21.1l-28.7,10l5.8,18.9l-5.2,1.8L1208.8,1231.1z M1292,1245.7l-2.8-1.8
	l-1.2,1.6l-6.8-4.4l0.8-1.6l-16.9-10.8l-7,10.8l-8.4,13.3l16.9,10.8l1-1.8l7,4.8l-0.4,1.8l2.8,1.8l2.4-4L1292,1245.7z
	 M1332.9,1075.4l14.7,42.4l-1.4,2.2l13.7,9.4l8.6-13.3l1.2,1l7-11l-13.9-32.3l-2.4,0.8l-8-2.4l-1.2-3.6L1332.9,1075.4z
	 M1218.3,1136.7l3.2,9.2l-32.3,11l4.8,14.3l-1.6,0.6l4.4,2.8l21.7-7.6l-0.4-1.2l10-3.6l0.2,1.4l8.6-3l12,36.1l13.7-10.8l4.4,6.8
	l1.4-0.8l3.6,6.2l7.2,4.2l2.8-3l7.8,5.6l-0.8,1.8l17.5,11.4l16.5-24.3l-19.1-12.3l-1,1.4l-8.2-5.6l2-3.8l-10-6.8l12-9.4l31.9,20.7
	l12.9-21.9l-27.3-18.3l11-18.9l-1.6-0.8l-4,1.6l-1.2,2.2l-2,2.4l-2.4,2l-2.6,1.6l-3,1l-3,0.4l-3.2-0.2l-3-0.8l-2.4-1l-7.6,2.8
	l2.2,6.6l-15.7,5.4l-1.8-5.6l-12.5,4.2l-5-15.1l-5,1.6l5,14.9l-12.7,4.4l2,6l-14.1,4.8l-7.6-22.7L1218.3,1136.7z M1868.1,515.5
	l-11.2,16.1l9.6,6.2l3.4-5.2l4,2.6l6.6-9.4l-2.2-1.4l1.2-2L1868.1,515.5z M2078.6,195.2l20.9,5.2l9.8-40l-20.9-5L2078.6,195.2z
	 M2099.1,250l-12.5,2l-7.6,10.2l2,12.5l10,7.6l12.5-2l7.6-10.2l-1.8-12.5L2099.1,250z M2121,952.9l21.5-132.5l-4.4-0.4l3.6-26.5
	l24.7,4.6l1,3.2l89.4,12.1l1.4-5.4l25.8,4.5v236.3l-159.2,237.3l-73.7-48.2l26.5-38.8l43,29.9l2.2-3.6l5.8,2.8l10.8-16.1l2.6-0.8
	l22.3-32.7l8,1.8l8.2-14.3l-36.6-26.9l10.8-16.9l21.9,16.1l19.1-28.3l4.4,4.6l30.1-43l-37.6-6.8l-27.7-19.1l13.7-77.7l-88.4-15.1
	l-2.8,17.3L1937,944.7l4.4-28.7l-12.1-2.2l-1.4,9.8l-123.5-21.5l8.6-42.4l122.5,19.3l4.4-20.9l60.4,9.4l3.2-17.3l88.6,14.7
	l-2.2,16.1l13.9,0.8l-10,67.5L2121,952.9z M2153.3,954.3l26.5,4.6l15.7-91.8l-28.3-5L2153.3,954.3z M1743.4,866.2l-25.5,152
	l78.7,12.5l9.8-62.9l-17.7-1l15.1-91.6L1743.4,866.2z M1488.2,1149.2l6-9l5.6-7.4l2.8-2.6l11.2-11.6l0.8-0.6l9.2-6.4l16.9-9.4
	l10.8-4.6l13.7-3.8l21.5-2.6l11.4-0.2l14.5,1.2l21.1,6.4l14.7,6.2l7.4,4.8l90.2,58.6l-2.4,3.8l-0.2,1l2.2,1.4l3-4.4l74.5,48.2
	l-48,74.3l-5-3.2l-3.2,4.8l4.4,3.6l-0.6,1l-37.4,56.8l-34.3,52.6l-35.7,53.4l-12.5,19.5l1.4,1.2l-8.2,12.2h-50.4l0.2-0.3l-80.1-53.8
	l34.9-53.8l-4.2-2.8l37-55.6l5.2,3.4l6.8-11.2l7.2,5l20.5-31.3l-7.2-4.6l7.6-12.3l1.2,0.8l36.1,24.3l8.4-13.3l24.7,16.1l1-0.6
	l1.8,0.8l7.4,6.2l-0.8,1.4l3.6,2.2l-0.8,1.2l7.2,4.6h4.8l4.4-6.8l-0.6-1l0.6-1.6l4.6-7l2-0.8l0.6,0.2l4.2-6.6l-1.4-5.8l-9.4-5.6
	l-0.8,1l-4.2-2.8l-0.4,1l-6.6-4v-2l-23.1-15.7l-9,14.7l-58-37.6l11.4-18.1l-7.2-4.6l3.4-5.2l-11.8-7.6l-2.2,2.8l-22.1-14.3l-46-29.5
	l-13.1,3.4l-2.4,1.8l-2.6,2.2l-3.6,1l-2.4-1.8l-4.4,8l-1-0.6l-5.4,9.4l3.8,2.4l0.6-1l19.7,12.9l-0.2,0.8l3.8,2.4l2.6-4.6l-1.4-1
	l9.8-17.3l3.4,1.8l12.3,8.2l-7.6,13.1l11,7.4l-6.8,10.4l1.6,1.4l-3.8,6l6,3.8l-3.4,6.4l-42.4-27.7l-7.8,12.1l-1.6,1.2l-2.2,0.6
	l-2.4-0.8l-6.6-4.4l-2,3l-5.6-3.4l-2,3.2l37.8,24.3l-10,15.3l5.4,3.4l-20.5,32.3l-5-3.4l-9.8,14.9l-32.1-20.5l-0.2,0.4l0.6,0.4
	l-4.2,7.8l6.2,4.4l1,1.8l0.2,1v1l-0.2,1l-0.4,1l-0.8,1.2l-1.4,1l-0.8,0.4l-1,0.2h-1l-1.6-0.4l-3.2,5.4l65.7,42.8l-9.2,12.9l-5.2-3.4
	l-18.9,29.1l6,4l-8.4,13.7l-76.9-49.8l-32.1,49.8l41.8,27.1l28.3-43.8l26.1,16.7l-14.7,22.9l6.4,4.2l-6.6,10.2l45.2,29.3l4.8-7.2
	l5.6,3.6l16.1-24.9l25.9,16.7l-15.1,23.4h-97.6l-111.4-73.6l5.4-7.4l-6.4-4.4l42.2-66.9l34.1-53.2l5.4-8.6L1488.2,1149.2z
	 M1423.7,1323.5l-17.5,25.5l28.1,18.1l1.2-2l8.4,5.6l-1.2,1.8l4.4,3l6.6,1.2l14.1-21.3l-3.2-3.8l-5.6-4l-0.8,1.6l-8.6-5.4l1.4-1.6
	L1423.7,1323.5z M1620.7,1451.2l-3-1.8l-0.8,1.4l-23.3-15.7l-1,1.2l-8.2-6l0.8-1l-14.3-9.8l-16.9,25.3l14.3,9.8l1-1.6l8.8,6l-1,1.6
	l23.3,15.7l-0.8,1l2.8,1.8L1620.7,1451.2z M1650.4,1403.4l-41.8-28.5l-11.8,17.3l41.8,28.5L1650.4,1403.4z M1692.4,1348l-27.9-19.3
	l-1.2,2l-9.4-6.6l1.2-1.8l-7.2-5l-17.3,25.1l7.4,4.8l0.8-1.6l9.2,6.4l-0.8,1.4l28.9,19.3l5.6-8.4l-2.2-1.6l5.4-8.2l2.2,1.4
	L1692.4,1348z M1803.7,1071.2l73.7,12.9l-4.6,37l3.2,0.4l-39,119.9l-36.1,50.4l12,9.4l32.9-43.8l-6-5l7.8-11.4L1886,1123l27.3,4.2
	l18.3-115.3l-16.9-2.6l2.6-21.5l-96.6-16.1L1803.7,1071.2z M1490.8,903.3l-2.6,15.5l13.3,11l15.1-6.8l2.2-16.1l-12.9-10.4
	L1490.8,903.3z M1562.7,891.3l4.8-30.3l-43.6-7l-1.8,11.2l-7-1.2l-1.6,10.2l7.2,1.2l-1.4,9L1562.7,891.3z M2085.2,671l12.9,38.4
	l16.1-5.4l-12.9-38.4L2085.2,671z M1965.3,764.8l-3.4-13.9l-36.8,5.6l-23.7-2v4.2l24.1,2.8l16.7-1.8l-25.7,105.6l-9.8-0.6l-0.6,5.2
	l7.8,1.6l-0.4,2.8l10.2,0.6l7.4-0.4l1-7.4l-7.4-0.2l0.2-3.8l10.4,1l-0.4-4.4l-8.4-2.6l22.7-88.8L1965.3,764.8z M1169.9,690.3
	l-1.6,23.3l9,4.2l1.6,7.6l-4.6,6.8l-6.8,3.4l-6.8,94.8l36.1,4l39.4,111.3l-214.5,74.9v5l-20.3,6.8l-1.6-2.2L888.1,1069l-11.8-8.4
	l11.4-119.7l-6-0.8l1-12.3l7,1.2l2.2-19.7l-5-1l0.4-11.8l6.6,0.6l9.6-100l108.9,9l-4.8,51.8l-23.5-2.6l1.6-13.7l-39.4-2.6v12.7
	l-12.9-1l-2.2,19.1l7.4,0.4l0.6-3.8l20.9,2.2l0.6-14.5l15.9,0.6l-1.2,19.9l30.9,3.8l-0.4,15.1l-32.1-3.6l-1-6.4l-8.6-1l-0.4,15.1
	l8.6,0.4l-2.2,17.1l-25.3-2l-0.6-6.4l-14.9-1.2l-3.2,35.5l16.5,1l0.6-4.8l24.7,1.6l-1.2,10.2l24.1,2.6l-2,12.1l-5.8-1l-1,34.3
	l43.4-12.9l2.6-23.9l-2.8-1.2v-9l20.7,2.6l1.6-16.5l19.3,1.6l-1.2,9.6l-4.2,0.4L1059,959l-3.8-2l-0.6,12.1l2.8,4.2l9.6-1.6l0.4-4.4
	l21.3-3.8l-10.6-5L1067,927l13.9-4.8l-2.6-5l40.6-13.9l4.4,4.4l41.2-15.5l8,21.9l-5.8,2.2l2.6,6l5-2.2l5,11.8l12.9-4.4l-7.4-24.1
	l9.2-3.2l-15.1-43.4l-58.8-4.8l10.2-118.7l-195-19.3l1.6-16.5l39-70.7l17.7-26.1l5.8,4.4l8.6-12l109.5,83.9l3.4-0.8l12.3,11.4
	l5.2-3.8l5.6,5.6L1169.9,690.3z M1040.7,685.4l-1-3.2l-23.7-16.3l7.2-13.7l-8.6-6.6l-29.9,54.2l0.4,2.8l44.6,2L1040.7,685.4z
	 M949.7,979.8l-0.2-0.6l-24.5-3.4l-0.6-4l-7.6-0.8l-4.8,42.8l-3.6,0.6l-1.6,8.2l9.8,0.6l9.8-4.4l2-18.1l21.1-7.2L949.7,979.8z
	 M966.8,955.8h-0.6l-10.6,0.2l-0.4,8l11.2,0.8L966.8,955.8z M2066.2,34.5l-0.4,5.2l-9.8-0.8l-1.4,17.9l27.1,2.2l-0.2,3.6l13.7,1
	l0.4-5.6l23.7,1.8l1.8-23.9l-28.1-2.2l-0.4,8.2l-10-0.8l0.4-5.4L2066.2,34.5z M2221.8,130.1l34.7,0.6l0.4-18.5l-34.7-0.8
	L2221.8,130.1z M429.6,443.6l6.6-16.1l2.8-14.3l-0.6-19.5l-4.6-14.7l-7-17.1l-8.8-19.5l-8.2-17.9l-7.6-17.5l-7.4-19.3l-4-17.3
	l-0.2-1.6l3.6-0.4l0.2,4.6l8.4-1l-1.6-12.9l-1.4-3.4l-3-2l1.6-0.2l18.1-23.5l5.6-7l-7.6-6.2l-5,7.4l-12.5,15.7l-8.2-0.4v-2.8
	l1.2-13.9l-19.5-2l-4.6-4.4l-2.6-2.2l-3.4-1.6l-8.2-0.4l-5.6,1.6l-4.8,4.4l-37.6-3.6L282.4,446l136,12.7L429.6,443.6z M1691.8,0.2
	l0.2,6.2L1652,7l0.2-6l-12.3,0.2h-3.8l0.2,13.3l11-0.2v3.8l73.7-1.2l-0.2-10l-12,0.2l-0.2-7.2h-8.4L1691.8,0.2z M1382.1,12.3
	l7.6,2.8l-5.4,26.1l48.4,10.6l2-8.6l18.1,4l5.4-11.8l17.3-7.8l-6.4-13.5l-3.6-8.8l-2.6-5.4h-75.8L1382.1,12.3z M2262.2,40.2
	l-17.1-1.2l-1.4,22.3l-1,12.7l17.1,1.2L2262.2,40.2z M1709.7,179.7l5.4,11.6l12.7-1.6l2-13.7l-11.2-5L1709.7,179.7z M1743.4,250.2
	l10.2-4.6l11.2,12.9l17.3,14.1l18.9,2l5.4-0.2l5-1.2l10.8-3.4l11.8-10.2l9.2-12.9l3-16.1l-1-13.5l-3.4-10.4l-2.6-5.8l8.2-3.8
	l-16.5-31.1l-8,3.6l-2.6-4.6l-8.8-7.8l-8.4-8.6l-11.2-6.2l-14.3-1.8l-17.7,3.6l-9.6,5.4l-11.2,12l-5.6,8.6l-3,12.9l-0.4,14.3
	l6.8,15.3l-8.6,5.4L1743.4,250.2z M761.6,1494.5H643.1l5-34.8l10.4,1.4v-1.4l4.6,0.8l-0.2,1.6l4.2,0.6l0.2-1.2l4.6,0.6l-0.2,1
	l1.6,0.2l2-8.2l2.6-44l-7-0.8l-0.4,13.1l-51-4.6l-1,12l-1.8-0.4l-3.4,8.2l-3.6,7.4l2,1.4l-7.4,9.6l-1.6,1.2l-1.4,0.6l-2.2,0.4
	l-19.1-1.8l-2-1.6l-2-2.2l-1.2-1.6l-4.6-7.6l2.4-1.6l-1.8-5l-1.8-6.6l-1-5.2l-3-0.6l5.2-56.4l-4.8-13.5l-15.1,5.6l1,2.8l-22.7,7.4
	l2,6.8l2.2,3l-1.4,10l5.6,0.4l1,0.4l1.4,1l0.6,0.6l0.8,1.6l0.4,1.8l-1,2.8l-1.2,1.2l-1.2,0.8l-1.6,0.4l-12.5-1.2l-0.6,7.6l14.1,1.4
	l-2.4,25.3l-5.2-0.4l-0.2,2.2l5.2,0.4l-0.2,2.4l32.1,2.6l-1.8,20.1l31.9,2.6l-1.8,14.9l-6.2-0.4l-1.1,15h-31.1l1-12.6l-21.5-2
	l0.2-2.2l-15.5-1.4l-0.8,10l1.4,0.2l-0.7,8.1h-37.2l14.6-155.7l129.7-45.8l38.2,1l0.4,0.2l32.1,21.1l2.4-3l19.9,12.1l5.4,5.8
	l2.2,4.8l2.6,7v0.2l-6.6,111.9l34.1,11.4l5,3.8l0.6,5.8L761.6,1494.5z M605.1,1369.5l3.4-28.1l-9-2.6l-4.8,4.2l-1.4,2.2l-6.4,1.2
	l0.4,2l-7,3.2l2.6,4.8l-1,15.7l14.1,2h1.2l1.8,0.6l1,0.8l1,1.4l0.4,1l0.2,1l-0.2,1.8v1.4h4l1-12.7L605.1,1369.5z M684.9,1348.2
	l-3.6-2.6l-4.2,6.2l-22.7-15.3l0.2-2.2l-7.6-0.2l0.2-1.4h-3.8l-2.4,19.1l4.4,2.6l-1,11l-2.4,1.6l-0.4,6.4l-2.6,0.8l-0.4,4.8
	l-1.4,0.2l-0.8,9.6l41.6,4.4l1.4-14.9l0.2-4.4l0.4-5.6l0.8-5.8l1.6-6.8L684.9,1348.2z M1885.6,932.1l-7.6,34.5l36.3,5.8l6.4-34.5
	L1885.6,932.1z M1694.8,390.4l-7.6-3.6l-1.2-4.6l-10.6-1.6l-1.8,3.4l-1.6,1.6l-2.2,0.6l-5.8-0.4l-3.6,5.2l-1.4,0.8l-5.2,0.2
	l-1.8,1.4l-1.6,1.8l-1.2,1.6l-1.8,0.4l-7-1l-8.4,35.7l19.9,23.9l-0.8,11.6l31.1,4.2l46,4.8l42,1l1.4-8l52,1.8l-2.6-22.7l9.8-12
	l-13.1-11.4l-0.8-6l14.9-2.2l26.5-3.2l13.7-1.8l16.3-2.8l-2-9.4l22.3-10l6,5l53.2-30.3l-2.8-4.8l12.7-9v-4.4l-6.2-9.4l-8.6-10.2
	l-7.4-7.8l-2-1.6l0.2-3.4l-13.1-6.6l-2.8,2.2l-12.1-0.2l-10.4,1.6l-9.8,3.6l-12.3,8.2L1887,333l-3.6,6.8l-2.8-0.2l-1.4,7l-0.6,8.4
	l3.2,1.4l1.4,13.7l0.8,5.4l-3,1.2l-2.4-7.6l-84.1,11.4h-0.4l-13.5,14.7l0.4,23.7l-66.7-4.6l-0.4-5.2l-18.3-0.4L1694.8,390.4z
	 M2191.5,212.9l2.8-2l3.2,4.4l11.8-8.6l-2.2-3l6.4-4.6l-9.4-12.9l-7.8,5.6l-1.4-1.8l-10.8,7.8l1.8,2.4l-2.4,1.8L2191.5,212.9z
	 M1130.5,134l10.4-21.3l-8.6-4.2l-10.4,21.3L1130.5,134z M2262,16.9l1.6-16.7l-1.9-0.2h-15.7l-1.4,15.1L2262,16.9z M1005.2,0
	l-60.4,116.5l-9.2,17.7l-7,12.5l-2,4.4l-86.6,167.1l-8.2,16.7l-35.9,64.9l-11.2,20.5l-35.5,68.1l-29.3,58.6l-18.7,32.3l-17.9,27.7
	l-15.9,23.1l-53,64.3l-1.6,2l39.6,3.8l32.5,2.6h0.2l4.2-0.8l59.8-61.3l15.7-16.5l23.1-26.3l17.9-21.3l56.6-70.9l-44-30.1l54.2-108.4
	l63.5,48.8l14.1-19.7l9-12.9l13.5,9.4v0.2l2.2,0.8l-7.2,9.6l21.9,16.5l-2.4,3.2l9,6.8l2.4-3.2l5.6,4.2l8.2-10.8l-5.6-4.2l1.4-2
	l-9-6.8l-1.4,2l-19.5-14.7h1.2l3.6-1.8l31.1-48.2l2,0.2l-2.2,0.8l9.2,5.8l5.8-9.2l-8-5l-0.2,0.4l-1.6-1l1.8-3l12.7-23.1l69.9-146
	l1.4-3.4l0.2-4.2l0.2-0.2l-1.2-4l-2.4-3.4l-15.9-7l33.1-70.3l3.2-6.2l-3-1.4L1149.9,0H1005.2z M2266.8,65.9l17.2,1.5V20.8l-13.8-1.3
	L2266.8,65.9z M1318.1,260.7l1.2-5.4l-7.2-2.2l-1.4,5.2l-7.8-2.4l3.4-12.7l-7.8-2.6l-9.8,31.3l2.4,0.8l-19.3,62.1l-7.2-2.2
	l-8.2,25.3l2.4,2.2l-6.8,6.4l24.9,23.9l14.3-14.7l-2.2-2l5.4-5.8l2.2-8.4l2,0.6l24.1-74.9l-4.2-1.4l6.6-20.7L1318.1,260.7z
	 M1377.3,158.5l-4.8,0.8l1.2,8.6l4.8-0.4l0.2,2.6l3.8,1.2l-7.8,29.7l23.9,6.4l25.7,6.6l2.4-12.3l6.4,1.6l28.3-107.4l0.4-1.2
	l-6.6-1.8l3.8-12.1l-41.6-11l0.4-2l-21.1-6l-9.4,35.3l10.4,3l-1.4,6.2l-3-0.8l-2.8,9.6l2.8,1.2l-15.7,40.4L1377.3,158.5z
	 M1439,501.1l18.7,19.5l10.2-3.8l12.7-23.1l-9.2-4.6l-7.6,13.5l-3.8-1l-10.8-10L1439,501.1z M1447,313.3h-2.4l0.2-13.7l-14.7-0.4
	l-1.2,30.5l13.5,1.2l-3.2,14.9l13.9,3.2l10.6-40.8l-14.9-3.6L1447,313.3z M1373.2,0l-4,8.6l10.4,6.2l6.2-14.7H1373.2z M2176,336.6
	l26.1-7.2l-0.6-4.4l33.1-6.6l4.6,22.3l6.8,29.3l15.7,10.6l-15.1,16.3l37.5,30.3V352l-7.4,1.7l-7.2-32.3l-10.6-42.6l-47.8,10.8
	l2.2,10.4l-42.4,12.9L2176,336.6z M273.8,1099.7l7.6,0.8l1,1.2l21.5,1.8l0.8-11.2h4.2l1.8-1l1.6-2v-2.2l-0.2-1.2l-1.2-2.4l-2-1
	l-3.2-0.2l1-11.2L284,1069v1.2l-6.6-0.6l-0.2-1.2l-3.8-0.2l1-13.9l-18.3-1.8l-1,11.4l-20.3-1.8l-3.6,37l42.4,3.4L273.8,1099.7z
	 M387.2,1004.6l1-9.6l-19.5-1.4l-0.6,9.6l-17.5-1.2l5.2-57.8l-54.8,5.6l-1.8,18.9l-2.4,29.1l-5.8-0.6l-4.2,51.4l5.4,0.6l-0.8,9.8
	l53.8,4.4l0.8-9.6l17.1,1.2l-0.4,10.2l19.9,2l0.6-10.8l5,0.2l1.8-20.9h2l1-13.5l-1.6-0.2l1.8-16.7L387.2,1004.6z M211.5,650.1
	l-2,1.2l-2.6,0.8h-2.6l-52.6-1.6l0.2-2l-7.4-0.6l-0.2,3L97,647.3l-83.7-6.8l0.2-8.4L8.9,632v1.8l-11-0.7v-38.6l12.7,1l-0.4,3.8
	l7,0.6l1-1.6l0.8-0.8l-1.8-1.8l14.3-12.3l2.2,2.6l2.4-2l0.4-6.4l-3.2-0.2l1.6-21.7l4.2-0.2l0.8-6l-2.4-2.4l-1.8,1.4l-11.6-14.1l2-2
	l-3-3.4v-5l2.8,0.8l5-5l-4.2-4.8l-2.4-0.2l2.6-24.9l12.1,1l0.4-2.4l14.7,1.6l-0.2,2L85,495L82.4,526l1.8,0.2l-1,14.9H81l-0.4,3.4
	l2.2-0.2l-4.4,50.8l-2.8,0.2l-0.8,9l12.7,0.6l9.4,0.8v3l27.3,2.2l0.2-1l33.1,2.6l-0.4,5l23.7,0.4v2.2l6,0.2l4.6-29.9h-1.2l2.4-22.5
	l-9.6-0.8l1.4-13.1l1.2-14.9l-7.6-0.4v3.6l-2.8-0.2l-1,12.3l-10.6-0.6l-4.2,41.6l-39.6-3.4l1-13.1l-14.3-1.4l2.6-30.9l42.8,3.6
	l1-13.3l-5.2-0.4L131,521.4l20.3-22.9l13.3,12.5l14.3,1.4l3.4-2.8l0.2-3.2l-1.8-0.2l0.4-7.4l2,0.2l0.8-11.4l11,1l3.4-50.6l-29.9-2.6
	l3.8-43.2l18.5,1.6l2.2-24.7l25.5,2.2l2.4-28.3l1.8-18.5l-5-0.6l1.8-16.7l17.3-4.2l1.2,5l2.8,8.8l9.6,1.6l-0.8,26.9L238,463.7
	l-3.8,29.9l-2.4,36.1l-3.6,28.5l-2.4,22.5l-2.4,12l-6.4,49.8l-1.2,2.8l-1.8,2.6L211.5,650.1z M210.9,493l-7-0.6l-0.2,6.8l6.8,0.4
	L210.9,493z M927.1,47.4l1.2,0.4l14.9-32.3l1.8,1L952.7,0h-61.8l3.9,1.8l-4.6,10l10,5.2l-10.8,23.5l3,1.8l-6,12l-1.8-0.6l-5,1.2
	l-0.8,2l-35.7-16.9L861.7,0h-22l-4,9.2l-14.9-7.8L810,24.7l-2-0.8l-16.7,35.9L861.8,93l-16.7,35.3l-0.6,1.2l36.8,17.7l11.8-25.1
	l-1.2-0.4L903.4,97l1.2,0.6l6-12.9l-1.2-0.6l13.1-27.9L927.1,47.4z M817.2,2.4l1.2-2.4h-5.9l3.4,1.8L817.2,2.4z M596.5,773.8
	l-75.5-6.2l1,5.4l-46.8,29.1L442,818.6l-37.8,17.9l-40.4,15.1l-47.8,16.5l-18.3,6.2l-19.7,5.2l-40.2,9.8l-4,43.6l52.6-11.6
	l43.2-12.5l50.6-17.7l39.6-16.5l39.6-17.5l33.9-17.5l33.7-18.9l31.9-19.9L596.5,773.8z M423.6,1479.7l-1.4,14.8H378l3-40.1l1-6.4
	l10,0.4l1.2-7.4l6.2,0.2l1.2-7.2l-1-4h-1.8l-2.4-7.6l1.2-2l-2.4-7l-9.8,4.2l-1.6-1.6l-5.8,1.6l-0.2,2l-17.1,5.8l-1.4-1.4l-2.6,0.8
	l-1.8,4.4l7.2,20.7l-4.4,1.4l3,7.2l-11,3.6l11.3,32.4h-95.6l-8.1-24.8l2-0.6l-1-2.8l-8.4,2.8l-0.6-1.8l-15.9,5.6l1.4,4.2l-5.2,1.6
	l1.6,4.8l0.2,4.2l3.6,0l-0.7,6.9h-47.8l3-33l8-10l7.6-9.4l11.2-4.2l11-3.6l14.3-5.4l20.5-7l6.2-2.6l5.8-2l-1.2-4.6l12-4.2l1.6,4.6
	l15.3-5.4l-1.4-4.6l11.6-4.2l1.6,4.6l25.5-9l-1.6-4.8l17.3-6l1.4,4.8l2-0.8l26.9-9.4l38.2-13.7l11.2,9.4l-0.2,2l-8.4,89.6l3,0.2
	l-0.8,7l-0.4,7L423.6,1479.7z M338.8,1470.5l-3.6-10.2l1-0.6l-2.4-6.4l1.2-0.4l-1.2-2.6l-3.2,1.2l-5.8-4l-16.9,6l-4.8,1.4l-12.5,4
	l-1.4,4.4l-3.2,1.2l0.8,3.4h1.2l2.4,6.6l1.4-1l4.4,12l4.6,2.4l16.9-5.8l19.3-7.2L338.8,1470.5z M706.1,532.8l61.3-92.4l0.6-1
	l-21.7-17.9l-13.1-9l-19.7-15.1l4-4.6l-32.1-23.5l-2.8,4l-31.5-22.9l-15.9-11.8l-9,11.8l-6.8-5l-15.5,20.7l7,5.4l-0.6,1l48.4,35.9
	l-5,6.2l-56.2-41.4L579,398.8l50.6,38l8.4-11.6l3.6,2.6l-27.5,37l33.5,25.9l42.4-58.8l18.3,13.5l-42.8,57.4l-81.7,108.8l-36.4-3.8
	l-18.7-38.2l-39,18.9l5.6,21.7l19.1,75.5l0.2,0.8l41,4l44,3.8L706.1,532.8z M862.2,184.6l-4.4,5.2l1.4,0.6l-11.6,15.3l-0.8-0.6
	l-4.2,6l-4-3.2l-14.9,19.7l-2,3L805.5,252l4,3l-4.4,5.4l1,0.8l-11.2,14.5l-0.6-0.6l-4.6,7l-51.2-39.2l-3.8,3.4l-1.6,0.8l-2.2,0.6
	l-2.8-0.8l-11.6-9.2l-0.4,2l-5.2-1.4l1-3.6l-1.6-0.2l-1.6-0.6l-1.4-1l-1.4-1.2l-1-1.4l-0.8-1.8l-3.8,1.6l-1.6-4.6l1.2-0.6l-13.5-10
	l-0.8-2l0.6-2.2l4-5.4l-51.2-38.4l4.6-6.4l-0.8-0.8l11-14.3l1,0.6l3.8-5.2l4.2,3.2l6.8-9.4l-20.1-15.7l8.8-11.6l-2-1l5.8-8l-0.8-0.6
	l16.5-21.9l1,0.6l5.8-8.4l2.2,1.6l8.6-11.8l40.8,30.3l-2,2.8l12,10.2l-2,2.4l79.1,58.8l1.6-2.6l11.8,9.4l2-2.4L862.2,184.6z
	 M692.9,105.8l1.2,0.4l1.2,0.6l1,0.8l0.8,1l0.6,1.2l0.8,2.6l-1.2,3.4l1.8,1.6l12.7-17.1l-14.5-10.4l-12.5,16.7l2.4,1.6l0.8-0.6
	l1.4-0.8l2.2-0.4L692.9,105.8z M752.5,143L727,122.7l-33.5,44.8l14.3,10.6l1.8-2.6l2.4,1.6v-0.2l1-2.2l1.4-2l1.8-1.6l2-1.2l2.2-0.8
	l2.4-0.4h2.4l2.4,0.6l3,1.6L752.5,143z M819.2,191.6l-37.4-27.5l-22.1,29.7l0.8,0.6l1.6,1.8l1.2,2l0.8,2.4l0.4,2.4l-0.2,2.4
	l-0.6,2.4l-1,2.2l-1.4,2l-2,1.8l2.4,1.6l-2.2,3l25.9,18.9L819.2,191.6z M431.2,1042.9l48.6-16.5l0.8-0.2l1.2-10.6l47.4-16.5l1.2-0.4
	l-37.2-115.1l-26.7,9.6l-1.2,12.5l-25.9-2.2l1-10.4l-20.5,6.2l-2.4,53.2l-1.4-0.2l-1.8,25.7l17.7,1.4l-4.8,51.8L431.2,1042.9z
	 M190.4,868.6l-0.6,7.2l1.8,0.2l-0.4,4l-0.6,8.8h-2l-0.6,7.4h1.4l-0.2,4.6l10.6-5.2l-3.4,43.6h-5.2l-61.1,5.6l-26.1,1.4l-30.1,2.6
	l-4,49.2l-27.3-2.2l-1.4,15.7l5,0.4l-1.4,14.7l-5.2-0.4l-4,46.2l5,0.2l-0.6,14.3l-5.4-0.4l-2,33.1l-1.2,13.3l25.1,2.4l-0.8,12.1
	l-11.6-1v-4.8l-2.4-0.2l-2.4,25.7l-41.4-3.7v-61.6l2.2,0.2l2.6-33.1l-4.8-0.3v-18l1-11.8l6,0.6l3-32.3l-6-0.6l1.4-14.5l-5.4-0.4
	v-86.4l21.5,2l28.9,0.8l26.1-1l1-12.5l16.3-0.4l7.4-0.4l-0.2-4l18.5-1l0.2,3.2h0.8l12.5-1.4v-1.6l26.3-2.2l1-2l0.6-0.4l0.2-2.2
	l3.2-29.7l-12.3-1l-0.4,6l-28.1-2.8l0.6-7.8l-8.4-0.8l-0.2,3.8l-10.4-0.6l-5.4-0.4L95,880.6L77.3,879l0.4-2.2l-18.3-1.4l2-24.3h1
	l0.8-12.9L34,835.7l-1.2,17.9l-2,32.1l-8.6-0.8l-0.8,11.6L-2,894.4v-44.8l12,1.1l1.4-13.7L-2,835.7V795l21.1,2.1l3.2-33.9l0.2-0.6
	l-2.2-2.4l-7-0.2l-0.8,0.8l-13.1-1l0.2-1.4l-1.6-0.1V719l32.1,3.2l62.7,5.6l117.7,10.8l-3.2,34.1l-8.6,96.6L190.4,868.6z M89,770.8
	L58.7,768l-4,3.2l-0.6,6.4l3.8,0.4l-1.6,16.3l2.6,0.2v1.2h3.4l-0.4,8.8l-3.8-0.2l-0.2,1.6l-2.6-0.2l-0.6,6.2l11.6,0.8l0.2-2.2
	l15.1,0.6l0.4-1l1.4-1.4l1.6-0.8h0.8L89,770.8z M131.6,768l-24.5-1.8l-1,8.4l-1.8,21.1l2.2,0.2l-0.8,10l-2.4-0.2l-1,13.7l4.8,0.4v1
	l19.5,1.6l0.4-5.4l2-19.5L131.6,768z M165.7,827.4l3.2-2.8l2.4-23.3l0.6-9.4h-0.6l0.4-7l-0.8-2.4l0.2-3l0.8-1.8l1-1.2l1.4-1.2h0.8
	l0.4-3.6l-34.5-3l-0.2,3l1.6,0.2l-1,10.8l2.6,0.2l-0.8,9.6l6,0.6l-0.6,7.6l-3.8-0.4l-2.4,22.9l3.8,0.2L146,826L165.7,827.4z
	 M141.4,906.1l41.4-2.8l6.4-2L141.4,906.1z M124.9,384.6l-16.3-0.8l-0.4,9.2l16.3,0.8L124.9,384.6z M1979.4,1041.3l-0.8,10.4
	l-34.5-5l-9.8,59.6l-5.8-0.8l-2.8,24.5l23.3,5.8l3.6-24.7l-5-1.4l7.2-43.8l13.3,0.8l-4.6,33.9l7.2,0.8l-14.3,75.9l39.2,25.1
	l86.6-134l-13.7-1.4l14.3-91.6l-44.2-5.8l-2.6,7.2l-5.8,0.4l-2.8,23.7h4.6l-7.6,45.6L1979.4,1041.3z M128.4,314.7l9.6,1l1.4-14.9
	l-9.6-1L128.4,314.7z M571.2,340.2l23.3-31.7l-41.4-30.5l-5.8,8l-9.2-6.8l5.8-7.6l-2.8-2.4l4.2-5L524,248.6l2.2-3l-24.7-18.7l-2.6,4
	l-10-7.4l3-3.6l-3.6-2.8l-7-6l-4,5.4l-1-0.8l-1.6,2.2l-6.6-5.2l2.4-2.8L429,178.3l1.4-2l-9.4-7.6l-9.2-6.2l-1.6,1.4l-48.8-36.8
	L338.4,157l31.1,22.9l1.8,1.6l45,32.9l28.5,21.9l1.6,1.2l-5.2,7.2l-3-2l-28.1,38.8l11.4,9l-4.6,5.6l10.4,24.3l9-12.5l-2.4-2.2
	l5.2-6.8l1.2,0.8l24.9-32.9l0.2-0.4l-0.2-3l2.2-2.6l-1-2l2.8-3.8l4,3l-1.2,1.6l1.2,3.4l5.2,4h3.6l1-1.6l3.8,3l-1.8,2l-5,1.6
	l-27.3,36.1l-3.2,0.6l-8.4,11l5.6,4.8l-1.8,2.4l4.6,4.2l-6,6.2l6.6,5.6l-8.8,11.4l37.2,27.9l-21.5,28.3l38.6,30.1l7-9.4l3.6,2.8
	l1.2,1.2l90.2,70.1l-10.4,17.5l-10.4-5.6l-14.5,26.3l6,3.2l-12.9,25.1l28.9,15.9l28.1-52.6l-1.8-0.4l10-12.5l5,3.6l18.7-24.3
	l-94.8-71.3l15.1-20.1l-31.3-24.1l-14.3,19.1l-3.4-2.6l2.6-3.6l-26.1-19.9l6.8-9.4l-17.3-13.7l53-70.7l9,6.6l-13.5,18.3L571.2,340.2
	z M98.8,495.8l17.5,1.2l1.2-15.9l-17.5-1.2L98.8,495.8z M480.4,514.5l0.4-7.8l4.2-0.4l2.8-1l5-49.6l-11.6-1v-3.6l-28.9-2l-3.2,32.7
	l-25.1-2.4l-0.8,7l-18.7-1.6l-1,17.5l17.9,2l-1.4,13.3l-11.6-0.8l-0.2,2l-13.5-0.8l-1.2,14.1l-5.8-0.4l-2,27.1l-4.2-0.2l-15.7-1.8
	l1.6-16.9l0.8-9.4l8,0.6l2.8-34.7l-7.6-0.2l-1,8.2l0.6-11l-11.2-1.2l0.4-2.8l-29.1-2.8l-4.6,53.4l-8.4-0.6l-2.4,26.1l-2.2,27.1
	l7.8,0.4l-1.6,16.9l3,0.2l-0.6,9l35.9,3.4l0.2-2.8l8,0.8l0.8-7h1.6l3.8-35.9l6.8,0.2l-0.2,1.4l4.8,0.4l-0.2,2.6l9,0.8l-2.4,27.9
	l-12.9-0.6l-1.4,15.7l-1.6-0.2l-3.2,32.5h1.4l-1.6,14.9l101.4,9.2l5.6-64.1l-12.3-1.4l1.6-18.1h1.2l0.8-10.6h-1l0.8-8.6l6.4,0.4
	l3.4-33.9l1.4-21.1l-22.1-2.6l1.2-11L480.4,514.5z M429.6,0l6.4,4.8l-6.2,8.2l1.8,1.2l-0.8,1l14.3,10.8l1-1.2l10.2,7.6l-1.2,1.6
	l14.1,10.6l0.8-1.2l1.8,1.2l6.2-8.2l49,36.8l38.2-51l7.8,6l-29.3,38.6L577,91.2L645.8,0H429.6z M356.7,831.4l27.1-11.2l19.1-9
	l18.7-9.4l-75.7-7.2l4-43l-46.2-4.4l-4.2,44l-5.2,60.9l28.9-9.2L356.7,831.4z M64.4,0h131.9l7.7,5.6l0.2,4.6l-3,4.2l6.2,4.4l3.2-4.2
	l3.6-0.6l4.2,2.8L255.5,46l8,8.4l5.4,10l3.6,14.5v0.2l-1,18.7l-3,32.7l-1,16.1l-12.9-1l-1.2,16.1l-5.6,57.8l10.2,0.6l-5.2,61.9
	l-48.8-4.6l4.8-58.6l-27.9-2.4l-23.5-1.8l1.4-17.7l44.6,3.6l3.8-42.8l5,0.4l5-46.4l18.7,2.2l0.8-8l-5.2-0.6l1-11.2l1.6-12.1l-1-3.6
	l-20.1-15.3l-2.6-0.2l-28.9-22.1l-1.8,2.4l-3.8-0.2l-0.4-0.2l-39.2-29.9l-35.7-3.8L92,20.3l-6,58.8l-5.8-1.2l-19.7-1l-0.6,6.4
	l-3.8,0.2l-2.6,0.2L52,84.3l-2.2,1.6l-1.6,1.8L47,90.8L46.4,94l-10.2-0.8V94h6.2l2.8,3.2v4.4l-2.6,2h-4.2l16.1,1.6l3.4,4.8
	l-2.8,36.4l1,1.2L55,159.1h-1.4l1.4,2v4.6l-2.2,1.4h-3v0.2l4.6-0.2L54,177.7l-2.4,2.6L49,217.9l-3.4,2.4l-13.3-0.8l1.8,2.2l-0.2,5
	l-2.6,1.8l-7.4-0.2v0.4l97.2,9l-0.2,1.2l-5.2,59l-3.8-0.4l-0.2,1.4l9.2,0.4l-0.4,8l-10,11l-2.8-2.4l-1.4-1l-1.8-0.8l-3.2-1l-4-0.4
	l-4,0.8l-3.8,1.6l-3.4,2.6l-2,2.8l-1.4,3.2l-0.8,3.2v2.2v2.4l0.8,3.2l2.8,4.8l1.4,1.4l2.4,1.8l4,2.4L87,359.9l-33.9-3l0.4,0.4l1,2.8
	v2l-1.2,1.6l-1.2,1l-1.8,0.8l-1,0.2l-2.2-0.4l-1.6-1.2l-1.2-1.4l-0.2-2l0.2-2l0.6-1.2l1.2-1.4l-7.6-0.8l-2.8,4.6l-2.8,2.6l-3.2,2.8
	l-3.2,1.8l-4.8,1.6l-3.8,0.6l-3.8,0.2l-6.6-1l-3.6-1.6l-2.6-1.4l-3.6-2.4v-94l58.8,5.2l0.2-2.2l9.8,0.8l-0.2,2.8l7.4,0.6l-0.2,1.6
	l5.2,0.4l2.4-28.3l-4.8-0.4l-0.2,1.8l-7.2-0.6l-0.2,2.6l-10.6-1l0.2-2.6l-58.8-5.2l-0.6,6.6h1.2l-1,11.2l-1.2-0.2l-0.2,7V167.9
	l0.8-9.4l2.8-30.3l-3.6-4.5V0h33.8l0.5,0.4L33.4,1l1,0.2l1.8,0.2l1.2-0.2l1.4-0.6L39.7,0H58l0.2,1.8l-2.8,3.6l8,6v-1l5.6-6.6L64.4,0
	z M46,21.3l-0.8-1.2l-4.4-0.2v1l-26.5-2l-0.8-1.4h-1.6l-2.2,1.4L6,68.7l3.4,2.4l27.3,2.2l0.6-1.8l1.4-2.4l1.8-1.8l1.6-1L46,21.3z
	 M147.8,116.5l-4.4,53.2l-0.2,1.4l49.4,4l1.4-17.5l-31.1-2.6l3-36.8L147.8,116.5z M2070.4,1378.9l0.8,5l-0.2,0.4l-72.4,110.2h-82.7
	l0.6-0.9l-3.6-2.4l-2.2,3.3h-41.9l24.5-36.9l5.4,3l34.7-52.8l28.7,18.9l7.6-11.6l9.2,6.2l-1.2,1.4l18.5,12.1l14.5-22.3l-1.6-1
	l13.7-20.9l-14.5-9.4l-0.6,1.4l-12-7.8l-7.2,11.2l-16.1-10.2l-13.1,20.5l-13.7-8.8l-4,6.2l-13.7-8.8l2-3.2l-6.8-4.4l2-3l-6.6-4.2
	l2-3l-19.7-12.7l10.8-16.7l-11-7.2l8.2-12.7l-5.8-3.8l-1,1.6l-23.1-15.3l-20.7,31.9l18.7,11.8l-11.4,16.9l-19.5-12.7l-15.3,23.3
	l26.9,17.9l-0.8,1.2l4.6,2.8l17.7-26.5l2.4,1.4l4.8-8l11.6,7.8l-1,1.4l11.8,7.6l-4.4,6.2l3.6,2.6l-25.5,38.2l12,8l-13.3,20.3
	l-12.7-10.2l2.6-3.2l-25.5-16.9l-0.8,1.2l-9.8-6l1-1.4l-12.7-9l1.4-1.8l-10.6-7.2l-1.4,0.4l-10,14.9l2,1.6l-3.2,5.4l-2.2-1.4
	l-5.2,7.6l-0.2,2l10.6,6.8l1.2-1.8l12.9,8.4l1-1.8l10,6.6l-1.2,1.6l24.7,16.7l2.2-3l13.3,8.8l-12,17.9l-3.8,5.9H1832l-25.2-16.8
	l-0.6,0.8l-7.4-5.2l0.4-0.8l-19.3-12.7l1.2-1.6l-3.6-2.6l-2-0.2l-16.9,25.7l1.4,3.2l3,1.6l1-1.8l15.9,10.5h-74.3l159.9-243.3l7-0.8
	l0.4,0.2l87.6,57l38.4,24.7L2070.4,1378.9z M1977.6,1458.8l-4.2-2.8l-0.8,1.2l-22.5-15.3l0.8-0.8l-3.8-2.6l-17.1,25.9l3.8,2.6
	l0.8-1.2l22.5,15.5l-0.6,0.8l4,2.6L1977.6,1458.8z M2210.4,1267l-28.7,43.8l-0.8,1l60.7,40l-0.4,0.8l42.7,27.7v-91.1l-0.9-0.6
	l-4,5.4l-27.3-17.9l32.1-48.8v-71.4l-55.6,84.6L2210.4,1267z M2159.9,651.5l-32.3,10.2l10.4,33.5l29.9-9.4l2,6.6l15.1-4.8l-7.4-23.3
	l5.4-1.8l-3.4-10.8l-17.9,5.6L2159.9,651.5z M753.7,1242.5l-0.6,1.2l-9.6-6l-26.9,29.5l9.8,8l8.2,5.6l10.2,4.4l15.3-35.9l0.4-1
	l-0.8-0.4l1-1.6L753.7,1242.5z M796.5,803.5l-8.4,89.2l8,2.6l-3.4,34.5l-0.8,12.5l-3.2,34.1l-11,117.3l-29.9,4l-1.4,15.3l-42.2,12.1
	l-29.1,4.4l0.2,9.4l-22.5,5.4l-0.6-3l-7,1.8l0.8,3.2l-15.3,3.8l-0.6,7.6l-17.5,6.4l-42.8,14.9l12.5-131.9l6.6-2.6l-7.8-22.7l-2-0.2
	l-1.2-0.8l-1.2-1l-0.4-2l0.2-1.6l0.4-1l0.8-1.4l0.2-0.2L548.9,929h-0.2l-2.2-0.2l-1.6-1.4l-0.8-1.4l-0.2-1.6l0.6-1.8l1.4-1.8
	l-7.6-21.7L527,868.2l12.9-4.4l-4.6-12.1l38.2-13.7l75.3-26.1l2-23.1h1.2l71.7,2L796.5,803.5z M727.4,906.9l-85.4-15.7l1.4-18.3
	l-34.3,11.2l-15.7,6l47.2,136.6l2,0.2l-3.4,32.9l6.2,0.2l4-38l66.5,6.6L727.4,906.9z M2186.5,681.8l29.5-9.2l-3.4-11l-29.5,9.2
	L2186.5,681.8z M2232.4,615.5l-22.7,7l5.8,18.3l-11.2,3.4l3.2,10.6l4.6-1.4l7.2,23.3l16.1-5l-1.8-6l13.3-4.2L2232.4,615.5z
	 M2254.5,599.3l7.6-1l2.6,1.6l19.4-5.8v-37l-6.4,2l0.8,2.6l-33.7,10.2l2.8,7.6l-2,4.6l4,1L2254.5,599.3z M2067.2,1485.1l-2.4,3.8
	l1.6,1l-3,4.7h186.2l-2.4-1.5l-3.4-2.4l-1.2,1.6l-8.6-5.6l1-1.6l-3.8-2.4l-1.2,1.6l-8.6-5.6l1-1.6l-3.8-2.4l-1,1.6l-9-5.8l1-1.6
	l-3.8-2.4l-1,1.6l-9-5.8l1-1.6l-3.8-2.4l-1,1.6l-9-5.8l1-1.6l-3.8-2.6l-1,1.6l-9-5.8l1-1.6l-3.8-2.4l-1,1.6l-9-5.8l1-1.6l-3.8-2.4
	l-1,1.6l-9-5.8l1-1.6l-3.6-2.4l-1.2,1.6l-9-5.8l1-1.6l-3.8-2.4l-1.4,2.2l-4,0.8l-5.6-3.6l-3.6,5.4l-4.2,0.8l-2.2-1.6l-2.4,3.8l1.6,1
	l-6,9l-1.6-1l-2.4,3.8l1.6,1l-5.8,9l-1.6-1l-2.4,3.6l1.6,1.2l-5.8,9l-1.6-1l-2.6,3.8l1.6,1.2l-5.8,9l-1.6-1.2l-2.4,3.8l1.6,1l-6,9
	L2067.2,1485.1z M868,1422.9l-12-4.2l-12.3-1l-7.4,2.4l-11.6,7.4l-5.4,13.1l-1.8,8.6l-3.5,45.3h162.2L868,1422.9z M1083.7,473.8
	l-7.8,11.2l20.3,14.9l7.8-11.2L1083.7,473.8z M1030.1,466.5l18.3-22.9l-12.9-11l-12,14.7l2,1.6l-6.8,8.6L1030.1,466.5z
	 M1074.5,463.9l-12.1,16.5l9.6,7l12.1-16.5L1074.5,463.9z M982.7,422.1l-11.6-8.8l-5.8,7.6l11.6,8.8L982.7,422.1z M824.8,722.6
	l2.4-0.2l2-0.4l1.8-0.8l1.8-1.2l1.8-2l37.2-79.1l23.7-45.6l21.5-38.6l2.2-4.2l0.4-2.4l-0.2-2.4l-0.6-2.2l-1.2-2.2l-1-1.2L868,509.1
	l-56.2,71.3L771,628.6l-68.5,69.7l-0.4,4.8L821.8,722L824.8,722.6z M1081.3,505.3l5-6.6l-13.7-10.6l-5,6.6L1081.3,505.3z
	 M1116.2,163.9l-8.6-4.2l-10,20.7l8.6,4L1116.2,163.9z M101.4,1343.6l-11.2,4l1.2,3.8l-10.6,3.8l-1.4-3.8l-13.7,4.8l1.4,3.8
	l-10.4,3.6l-1.4-3.8l-12.9,4.6L37,1366l-8.4,3l1.4,4.4l-13.7,4.6l-1.6-3.8l-13.3,4.8l1.4,4.2l-4.8,1.7v-46.1h0v-4.4l8.4-2.4l3.6,3.4
	l6.2-1.6l4.4-8l0.6-3l-2.2-0.2l1.8-18.5h2.2l0.8-8l-12.9-1l-1.2,1.6l-8.8-1l-1-2l-1.8-0.2v-36.6l5.6,0.3l0.2-3.4l16.3,1.4l-0.2,3.6
	l9.2,0.8l0.4-5.6l13.9,1.2l1.4-19.1l4.6-45.6l6,0.6l0.6-9.6l4.2,0.4l0.8-4.6l4,0.4l0.4-3.8l8,0.6l6-60.7l-11.4-1l4.8-47.8l12.7,1.2
	l0.4-1.4l-12-29.1l0.4-0.6l16.3-25.3l34.7,3l0.2-3.2l4.2,0.4l0.2-3.4l21.7,2.2l2.8-27.9l-28.5-2.8l0.2-1.4l-9.4-0.8l-0.6,6l1.4,0.2
	l-1.2,11.4l1.2,0.2l-1.6,14.1l-34.3-3.2l5-48.4l80.3,8l0.6-7l24.3,2.2l-5,53.8l-6.8,77.7l-3.4,35.9l-5.2,54.2l-1.6,19.1l-7,76.1
	l-6.2,25.3l-7.8,23.7l-5.6,7.8l-7.2,8l-8.8,8l-7.8,4.4l-11.4,4.8L101.4,1343.6z M113.5,1151.6h-1l-1.4,15.7l1,0.2L113.5,1151.6z
	 M120.3,1081.7l-1.2-0.2l-5.2,53l1.4,0.2L120.3,1081.7z M103.6,1067.6l17.9,1.8l0.2-1.2l-17.9-1.6L103.6,1067.6z M84,1277.1h-0.2
	v-3.6l-0.8-3l-1.6-3l-1.2-1.4l-4-1.2l-3.2-0.4l-2.6,0.6l-2,1l-2.4,2.4l-1.6,3.4l-0.6,6l3.4,0.2l-0.6,10l-5.4-0.4l-2,18.7l21.9,2
	L84,1277.1z M99,1302.8l-2.6-0.2l-0.6,7.6l2.8-1.2L99,1302.8z M488.2,1208.4l-10,3.8l1.2,3.4l-13.5,4.8l-1-3.4l-7,2.2l-8.8,3.4
	l1.2,3.2l-13.5,5l-1.2-3.4l-11.4,3.6l-29.1,10.8l1.6,4.4l-14.3,5l-1.4-3.8l-3.6,1.4l1.2,3.8l-14.3,5l-1.6-4.4l-7.8,3l-13.5,4.8
	l1.4,6l-12.5,4.6l-17.1,5.8l-15.7,5l-28.9,10.2l0.2,0.8l-27.7,9.6l-2-6l-9,3l-5-2.4l-3.4-2.4l-5-4.4l-2.8-3.6v-0.6l6.8-72.5l0.4-6.2
	l4-43l-2.2-0.2l0.6-8.6h2.6l0.6-6.6l0.6-2.4l1.4-2.8l0.6-0.6l-1.6-1.2l2.6-2.8l2-1.6l2.2-1.2l2.2-0.8l3.6-0.6l3-0.2l0.2,2.4l1.2,0.2
	l2.6,1l2.2,1.4l1.6,1.6l1.4,1.6l0.8-5.4l12.5,0.8l-1.2,12.5h-1.6l-0.4,7.8l8.6,0.6l-0.2-5.6l0.8-3.4l2.4-4.4l3.6-3.6l-2-2l7.4-8.2
	l1.6,1.6l5.2-5.2l2.2-1.4l3-1l1.6-0.4h2.8l5.6,1.2l5,2.8l2.8,3.4l1.8,3.6l0.6,2.4l0.4,3.2l-0.8,8.6h7.2l-6.8,9.6l3.2,2l3.4-1.2
	l-0.6-2.6l6.2-0.2l35.5-12.1l-2.4-6.8l28.7-9.6l-11.2-32.7l13.3-4.8l-6.6-19.3l0.4-0.6l24.5-33.5l16.3-5.4l13.7,41.6l0.8-0.4
	l1.6-0.4l12.7-4.6l1.2-12.5l1.4,0.2l85.8,10.2l-13.3,125.5l-0.8,0.2L488.2,1208.4z M317.3,1205.4l-2.6-8.4l-6-3.8l-0.6,1.6
	l-13.3-9.8l-13.9-1.2l-1.8,2l-11-0.4l0.4-4.6l-8.4-0.8l-3.4,35.7v9.2h-1.6l-0.4,5.8h1.4l-1.4,17.3h-1.4v2l-1.2,1.6l2.2,1.8l0.4-0.8
	l11.2-3.8l-0.6-1.8l1.6-0.6l-0.4-1l10.6-4l-0.6-2l17.5-6.4l0.4,1.2l16.3-6.4l-6-17.9L317.3,1205.4z M385.6,1196.5l-8.2-24.3l-27.3,9
	l8.2,24.3L385.6,1196.5z M457.5,1176.5l-2.4-7.2l2-0.6l-3.2-8.8l-2-0.4l-3.2-9.4l-2.2,0.6l-3-9.4l2-0.8l-1.4-4l-28.5,9.6l1.2,3.8
	l1.2-0.2l3.2,9.6l-1,0.4l8.4,23.5l20.1-6.8l0.8,2.6L457.5,1176.5z M493.5,1155.6l6.6-61.9l-45-5l-0.6,2.4l-5.2,1.4l24.5,69.9
	L493.5,1155.6z M145.8,1479.1l-6.4-5.4l-6.6-5.4l-7.4,2.4l-1.8-5l-18.7,6.8l2.2,5l-11.8,4L59.7,1494l-1.4,0.5h86.1L145.8,1479.1z"/>
<path id="streetT" class="st0" d="M21.5,968c0.4,0,0.8,0,1.2,0l53.4,1.8c0.2,0,0.6,0,1,0s0.8,0,1.2,0l51.8-2.4
	c0.8,0,1.8-0.2,2.6-0.2l63.7-8.8l59.2-9.2c0.8-0.2,1.4-0.2,2.2-0.4l37.6-9c0.6-0.2,1.2-0.2,1.8-0.4l42.4-12.9c0.4-0.2,1-0.4,1.4-0.4
	l44.4-16.1l41.4-15.9c0.4-0.2,1-0.4,1.4-0.6l39-17.5c0.6-0.2,1.2-0.6,1.8-0.8l33.7-17.9c0.4-0.2,0.6-0.4,0.8-0.4l33.5-19.3
	c0.6-0.4,1.2-0.6,1.6-1l32.5-21.9l30.3-21.5c0.4-0.2,0.8-0.6,1.2-0.8l77.1-60.7c0.4-0.4,0.8-0.6,1.2-1l23.7-20.9l-9.8-11l0.4-0.4
	l10.4,10.6l71.1-69.3c0.4-0.4,0.8-0.8,1.2-1.4l28.5-31.7c0.2-0.2,0.4-0.4,0.6-0.6l71.5-84.8l-16.7-14.1l0.2-0.2l17.5,13.1l71.3-94.2
	l36.3-45.2c0.4-0.6,1-1.2,1.4-1.8l21.7-32.1c0.4-0.6,1-1.4,1.4-2.2l18.7-33.5c0.4-0.6,0.6-1.2,1-1.8l38.8-83.1L1173.7,0H988.3
	l-2.6,5l-78.3,151.8c-0.2,0.4-0.4,0.6-0.4,1l-3.8,8.2l-78.7,155.8L718,520.2l-10,18.3l-47.4,76.9l-46.6,56l-19.9,21.5L571.4,714
	l-41.6,31.9l-33.1,22.9l-30.9,18.3L434,803.7l-36.8,17.1l-39,14.9l-49,17.1l-31.7,9.2l-31.9,7.8L189,880.2l-65.5,8.6l-48,3.2
	l-49-0.4L-2,889.2v77.1L21.5,968z"/>
<path id="trainB" class="st4" d="M23.1,952.9l53.4,1.8c0.2,0,0.2,0,0.4,0c0.2,0,0.4,0,0.6,0l51.8-2.4c0.4-0.2,0.8-0.2,1.2-0.2
	l63.5-8.8l59.2-9.2c0.4,0,0.6-0.2,1-0.2l38.4-9.2l43-13.1l44-16.1l42.2-16.3l39-17.5c0.2-0.2,0.6-0.2,0.8-0.4l34.1-18.1l33.5-19.3
	c0.4,0,0.6-0.2,0.8-0.4l32.1-21.5l30.9-21.9l77.7-61.1l24.1-21.3l71.7-69.9l28.7-31.9l71.9-85.2l71.5-94.6l36.3-45.2
	c0.2-0.2,0.4-0.6,0.6-0.8l21.7-32.1c0.2-0.4,0.4-0.6,0.6-1l18.7-33.5c0.2-0.2,0.2-0.6,0.4-0.8l38.8-83.1L1156.3,0h-29.2l-95.6,208.3
	l-38.4,82.5L975,323.5l-21.1,31.1l-36.1,45.2l-39.2,52l67.9-102.4l19.3-31.9l15.9-31.3l37.6-82.7L1115.3,0h-31.3l-20.6,44.4
	l-68.7,147.4l-37.4,84.5l-14.5,28.1l-18.9,29.3l-32.3,47l-4.8,7.4l31.7-58.4l69.5-144l69.5-154.4L1072.5,0h-67.7l-6,11.4
	l-78.5,152.2l-4,8.6l-78.9,156.2L731,526.8l-10,18.3l-48.2,78.5l-47.4,57l-20.5,22.3l-23.7,21.9l-42.6,32.7l-33.7,23.3l-31.7,18.9
	l-32.7,16.9L402.9,834l-40.2,15.5l-49,17.1l-32.3,9.6l-32.7,8l-57.6,10.6l-66.3,8.6l-49,3.2l-50.2-0.4L-2,903.8V951L23.1,952.9z
	 M736.5,554.5l116.9-217.7l79.1-156.6l0.2-0.2l5.6-11l30.7-47.2l-16.3,44l-68.9,143.6l-98.4,182.8L752.7,543l-9.4,13.5l-40.6,52.8
	L736.5,554.5z"/>
<path id="trainW" class="st5" d="M603.7,746.5l7.6-6l-1.2-1.6l-4-4.8c0-0.2,0-0.2,0-0.2l10.8-9l5.6,6.8l27.1-21.5l-8.4-9
	c0-0.2,0-0.2,0-0.2l9-8.4l38-42.4c0.2,0,0.2,0,0.2,0l5.4,5l10.6-10.2l18.7-21.5l6.4,5.6l17.5-19.5l25.3-30.5c0.2,0,0.2,0,0.2,0
	l10,8.4l-0.8,0.4l6.2,5.6v0.2L760.6,624l-21.1,20.5l-6.2-6.4l-3.2-3l-16.9,19.3L684,683l-4-4l-20.9,23.3l-3.8,3.6l2.8-2.2l8.6,9.6
	l-1,0.8l-54,42.6L603.7,746.5z M788.1,540.6l-10.8-7c0,0,0,0-0.2,0L758,562.9l-20.3,27.9c0,0,0,0,0,0.2l10.6,7.4l20.5-28.1
	L788.1,540.6z M817.2,515.9l-3.4,4.8c0,0,0,0,0,0.2l10.6,7.4l18.3-25.9l21.1-31.9c0,0,0,0,0-0.2l-9.8-6.2l3.4-5v-0.2l-10.6-7.2h-0.2
	L830.9,475l10.6-16.9l15.1-28.1l-11.4-6.2l-14.9,27.7l-14.9,24.1v0.2l5.4,3.2l5.4,3.4l-18.5,27.1L817.2,515.9z M893.3,443.2
	l10.2,7.8l29.7-39.2l12.7-15.9v-0.2l-9.8-7.8l-12.9,15.9L893.3,443.2z M929.3,329.2h-0.2l-3.8,5.8l-32.1,46.8l-3.4,5c0,0,0,0,0,0.2
	l9.2,6.2l-3,4.8l10.8,7.2l37.6-56.6l1-1.8l-8.8-5.2l3.4-5.4L929.3,329.2z M482.2,828.8c0,0,0,0,0,0.2l6,11.4c0,0,0,0,0.2,0l4-2.2
	l33.7-19.5l22.3-14.9l-4.8-7l10.2-6.6l4.6-3.4l-7.4-10.8l-4.4,3l-31.5,20.5l-22.7,12.9c0,0,0,0,0,0.2l4.4,7.8l-10.6,6.2L482.2,828.8
	z M207.1,934.9l45.2-7l23.9-5.6c0,0,0,0,0-0.2l-2-8.8l13.9-3.2c0,0,0,0,0-0.2l-3-12.5l-35.7,8.2l-32.5,6c0,0,0,0,0,0.2l1.6,8.2
	l-13.5,2.2L207.1,934.9z M140,922.4l-13.1,1.6l-50.6,2.8h-5l-0.2,8.2l-12.1-0.4l-0.4,12.9l18.3,0.6l51.8-2.2l-0.4-9l13.1-1.6
	L140,922.4z M351.5,898.9c0,0,0,0,0.2,0l25.7-9.4l39.6-15.1c0,0,0,0,0-0.2l-3.2-8l1.8-0.6l12.9-5.8c0,0,0,0,0-0.2l-5.4-11.8
	l-12.3,5.6l-41.2,15.9l-10.8,3.8l2.8,8.2l-14.5,5.4L351.5,898.9z M861.6,506.3l-5-3.8l-5-4.2h-0.2L829,525l10,8.4l22.5-26.7l-2-1.8
	l2.2,1.6C861.6,506.5,861.6,506.5,861.6,506.3z M1038.9,24.5L1010.2,88v0.2l11.8,5.2l28.9-63.5l-11.8-5.4H1038.9z M970.2,177.5
	l-21.7,45l11.6,5.6l21.7-45l8.2-18.1l-11.8-5.4L970.2,177.5z M981.5,325.5l11.2,6.2l17.5-31.7l14.3-30.9l-11.2-5.4L999.1,294
	L981.5,325.5z M1108.6,9l4.2-9h-14.4l-1.6,3.4L1108.6,9z M1107.8,58l11.8,5.4L1148.6,0h-14L1107.8,58z M1058,198.2l29.1-63.3
	c0,0,0,0,0-0.2l-11.8-5.4l-29.1,63.5L1058,198.2z M1006.6,202.4l-11.8-5.2l-28.3,63.7l8.4,3.8l-3.2,7c0,0,0,0,0,0.2l11.6,5.6
	l29.1-63.5c0,0,0,0,0-0.2l-9-4.2l3.2-7V202.4z M914.4,293l-13.3,27.9l-18.3,33.9c0,0,0,0,0,0.2l11.2,6.2l18.5-34.1l13.7-28.3v-0.2
	l-11.6-5.6H914.4z M983.3,277.5C983.5,277.5,983.5,277.3,983.3,277.5L983.3,277.5z M1057.2,63.1h-0.2l-29.5,63.1l9.4,4.4l-3.2,6.8
	l11.8,5.6l29.9-63.1l-9.6-4.6l3.2-6.8L1057.2,63.1z"/>

	<g id="marker" class="startM">
	<path id="XMLID_53536_" class="st6" d="M785,724.9c-3.2-7.4-7.7-14.2-13.4-19.9c-18-18-45.2-23.3-68.7-13.4
		c-31.9,13.5-46.8,50.3-33.3,82.2c7,16.6,20.8,29.3,37.9,35l6.8,22.4l7.1,23.4h11.9l7.1-23.4l6.8-22.4c32.8-11,50.6-46.5,39.6-79.3
		C786.2,727.9,785.6,726.4,785,724.9z"/>
	<path id="XMLID_53513_" class="st7" d="M780.3,735.9c-7.4-29.3-37.1-47-66.4-39.6c-29.3,7.4-47,37.1-39.6,66.4
		c4.9,19.5,20.1,34.7,39.6,39.6l8,26.5l5.4,17.7l5.4-17.7l8-26.5C770,794.9,787.7,765.1,780.3,735.9z"/>
	<path id="XMLID_53498_" class="st0" d="M720.9,749.2l-22.4-12.9l3.1-5.4l22.4,12.9v-25.9h6.3v25.9l22.4-12.9l3.1,5.4l-22.4,12.9
		l22.4,12.9l-3.1,5.4l-22.4-12.9v25.9h-6.2v-25.9l-22.4,12.9l-3.1-5.4L720.9,749.2z"/>
</g>

	<g id="text">
	<g id="BZ">
		<polygon id="XMLID_3_" class="st8" points="774.6,132.1 774.6,234.6 944.5,234.6 972.3,282.4 999.7,234.6 1169.6,234.6 
			1169.6,132.1 		"/>
		<polygon id="XMLID_2_" class="st7" points="1165.8,135.9 778.4,135.9 778.4,230.8 946.5,230.8 972.3,274.7 997.7,230.8 
			1165.8,230.8 		"/>
		<path class="st0" d="M814.6,159.1h18.7c6.9,0,11.4,3.1,11.4,9.6c0,3.9-2,6.7-5.5,8.2v0.1c4.7,1,7.2,4.7,7.2,9.9
			c0,6-4.2,10.7-14.2,10.7h-17.7V159.1z M821.4,175.2h11c3.2,0,5.7-1.9,5.7-5.3c0-3.9-2-5.3-5.7-5.3h-11V175.2z M821.4,192.1h11.9
			c4.1,0,6.5-2.2,6.5-6.1c0-3.8-2.4-5.9-6.5-5.9h-11.9V192.1z M875.2,191.4c0,1.5,0.3,2.1,1.5,2.1c0.4,0,0.9,0,1.5-0.1v4.3
			c-0.9,0.3-2.9,0.7-3.9,0.7c-2.5,0-4.3-0.9-4.8-3.4c-2.4,2.4-6.4,3.4-9.7,3.4c-5,0-9.6-2.7-9.6-8.2c0-7,5.6-8.1,10.7-8.7
			c4.4-0.8,8.4-0.3,8.4-3.9c0-3.2-3.3-3.8-5.8-3.8c-3.5,0-5.9,1.4-6.2,4.4h-6.2c0.4-7.2,6.5-9.3,12.7-9.3c5.5,0,11.2,2.2,11.2,8.1
			V191.4z M869,183.6c-1.9,1.2-4.9,1.2-7.6,1.7c-2.6,0.4-5,1.4-5,4.6c0,2.8,3.5,3.6,5.7,3.6c2.7,0,6.9-1.4,6.9-5.3V183.6z
			 M881.8,159.1h6.2v14.3h0.1c1.5-2.5,4.7-4.4,8.4-4.4c6,0,9.9,3.2,9.9,9.5v19.2h-6.2v-17.5c-0.1-4.4-1.8-6.3-5.5-6.3
			c-4.1,0-6.8,3.2-6.8,7.3v16.5h-6.2V159.1z M912.8,169.7h5.8v4.1l0.1,0.1c1.8-3.1,5-5,8.7-5c6,0,9.9,3.2,9.9,9.5v19.2h-6.2v-17.5
			c-0.1-4.4-1.8-6.3-5.5-6.3c-4.1,0-6.8,3.2-6.8,7.3v16.5h-6.2V169.7z M943.8,159.1h6.2v14.3h0.1c1.5-2.5,4.7-4.4,8.4-4.4
			c6,0,9.9,3.2,9.9,9.5v19.2h-6.2v-17.5c-0.1-4.4-1.8-6.3-5.5-6.3c-4.1,0-6.8,3.2-6.8,7.3v16.5h-6.2V159.1z M973.5,183.6
			c0-8.5,5.1-14.7,14.1-14.7c9,0,14.1,6.2,14.1,14.7c0,8.6-5.1,14.7-14.1,14.7C978.6,198.4,973.5,192.2,973.5,183.6z M995.5,183.6
			c0-4.8-2.4-9.8-7.9-9.8c-5.5,0-7.9,5-7.9,9.8c0,4.9,2.4,9.9,7.9,9.9C993.1,193.5,995.5,188.5,995.5,183.6z M1004.1,169.7h4.6v-2.3
			c0-7.1,3.7-8.3,7.7-8.3c1.9,0,3.3,0.1,4.3,0.4v4.8c-0.8-0.2-1.6-0.3-2.9-0.3c-1.7,0-3,0.6-3,2.9v2.9h5.2v4.6h-5.2v23.3h-6.2v-23.3
			h-4.6V169.7z M1038.6,159.1h29.3v5.1l-22.5,27.6h23v5.8h-31.6v-5.5l22.5-27.2h-20.7V159.1z M1071.6,183.6
			c0-8.5,5.1-14.7,14.1-14.7c9,0,14.1,6.2,14.1,14.7c0,8.6-5.1,14.7-14.1,14.7C1076.7,198.4,1071.6,192.2,1071.6,183.6z
			 M1093.6,183.6c0-4.8-2.4-9.8-7.9-9.8c-5.5,0-7.9,5-7.9,9.8c0,4.9,2.4,9.9,7.9,9.9C1091.2,193.5,1093.6,188.5,1093.6,183.6z
			 M1103.6,183.6c0-8.5,5.1-14.7,14.1-14.7c9,0,14.1,6.2,14.1,14.7c0,8.6-5.1,14.7-14.1,14.7
			C1108.7,198.4,1103.6,192.2,1103.6,183.6z M1125.6,183.6c0-4.8-2.4-9.8-7.9-9.8c-5.5,0-7.9,5-7.9,9.8c0,4.9,2.4,9.9,7.9,9.9
			C1123.2,193.5,1125.6,188.5,1125.6,183.6z"/>
	</g>
	<g id="wert">
		<polygon id="XMLID_6_" class="st8" points="956.4,1016.1 956.4,1118.7 1096.4,1118.7 1124.2,1166.5 1151.5,1118.7 1291.5,1118.7 
			1291.5,1016.1 		"/>
		<polygon id="XMLID_5_" class="st7" points="1287.6,1020 960.3,1020 960.3,1114.8 1098.3,1114.8 1124.2,1158.8 1149.6,1114.8 
			1287.6,1114.8 		"/>
		<path class="st0" d="M1003.4,1043.1h7l7.1,30h0.1l7.9-30h7l7.7,30h0.1l7.3-30h7l-10.8,39.3h-7l-7.9-30h-0.1l-8,30h-7.1
			L1003.4,1043.1z M1062.2,1069.8c0,4.5,2.4,8.4,7.6,8.4c3.6,0,5.8-1.6,6.9-4.7h5.9c-1.4,6.2-6.7,9.7-12.9,9.7
			c-8.9,0-13.9-6.2-13.9-15c0-8.1,5.3-15,13.7-15c9,0,14.5,8.1,13.4,16.6H1062.2z M1076.9,1065.7c-0.2-4-2.9-7.5-7.1-7.5
			c-4.3,0-7.3,3.3-7.5,7.5H1076.9z M1087.9,1053.9h5.9v5.5h0.1c0.7-3,4.5-6.3,8.3-6.3c1.4,0,1.8,0.1,2.4,0.2v6
			c-0.9-0.1-1.8-0.3-2.7-0.3c-4.3,0-7.7,3.5-7.7,9.7v13.5h-6.3V1053.9z M1104.4,1053.9h4.7v-8.5h6.3v8.5h5.7v4.7h-5.7v15.2
			c0,2.6,0.2,3.9,3,3.9c0.9,0,1.8,0,2.6-0.2v4.8c-1.4,0.1-2.7,0.3-4.1,0.3c-6.5,0-7.8-2.5-7.9-7.3v-16.8h-4.7V1053.9z
			 M1125.6,1043.1h6.3v14.6h0.1c1.5-2.6,4.8-4.5,8.5-4.5c6.2,0,10.1,3.3,10.1,9.7v19.5h-6.3v-17.9c-0.1-4.5-1.9-6.4-5.6-6.4
			c-4.2,0-6.9,3.3-6.9,7.5v16.8h-6.3V1043.1z M1162,1069.8c0,4.5,2.4,8.4,7.6,8.4c3.6,0,5.8-1.6,6.9-4.7h5.9
			c-1.4,6.2-6.7,9.7-12.9,9.7c-8.9,0-13.9-6.2-13.9-15c0-8.1,5.3-15,13.7-15c9,0,14.5,8.1,13.4,16.6H1162z M1176.7,1065.7
			c-0.2-4-2.9-7.5-7.1-7.5c-4.3,0-7.3,3.3-7.5,7.5H1176.7z M1187.9,1043.1h6.3v5.9h-6.3V1043.1z M1187.9,1053.9h6.3v28.4h-6.3
			V1053.9z M1201,1053.9h5.9v4h0.2c1.9-2.8,4.2-4.7,8.7-4.7c3.5,0,6.7,1.5,8,4.7c2.1-2.9,4.8-4.7,8.9-4.7c6,0,9.5,2.6,9.5,9.6v19.6
			h-6.3v-16.6c0-4.5-0.3-7.6-5.2-7.6c-4.2,0-6,2.8-6,7.6v16.7h-6.3v-18.3c0-3.9-1.2-6-5-6c-3.2,0-6.2,2.6-6.2,7.4v16.9h-6.3V1053.9z
			"/>
	</g>
	<g id="kranz">
		<polygon id="XMLID_1609_" class="st8" points="660.4,1079.7 660.4,1057 242.9,1057 242.9,1159.2 660.4,1159.2 660.4,1136.6 
			709.6,1108.1 		"/>
		<polygon id="XMLID_1608_" class="st7" points="701.9,1108.1 656.5,1082 656.5,1060.8 246.8,1060.8 246.8,1155.4 656.5,1155.4 
			656.5,1134.3 		"/>
		<path class="st0" d="M304.8,1099.8c-1.2-4.5-4.1-7.8-9.8-7.8c-8.4,0-11.9,7.4-11.9,15s3.5,15,11.9,15c6.1,0,9.5-4.6,10-10.3h6.7
			c-0.5,9.4-7.2,15.9-16.7,15.9c-11.8,0-18.8-9.3-18.8-20.6c0-11.2,7-20.6,18.8-20.6c8.9,0.1,15.8,4.9,16.7,13.4H304.8z
			 M340.9,1120.3c0,1.5,0.3,2.1,1.5,2.1c0.4,0,0.9,0,1.5-0.1v4.3c-0.9,0.3-2.9,0.7-4,0.7c-2.5,0-4.3-0.9-4.8-3.5
			c-2.5,2.4-6.5,3.5-9.8,3.5c-5.1,0-9.7-2.8-9.7-8.3c0-7.1,5.7-8.2,10.9-8.9c4.5-0.8,8.5-0.3,8.5-4c0-3.2-3.4-3.8-5.9-3.8
			c-3.5,0-6,1.4-6.3,4.5h-6.3c0.4-7.3,6.7-9.5,12.9-9.5c5.6,0,11.4,2.3,11.4,8.2V1120.3z M334.7,1112.3c-1.9,1.3-4.9,1.2-7.7,1.7
			c-2.7,0.4-5.1,1.4-5.1,4.7c0,2.8,3.6,3.6,5.8,3.6c2.7,0,7-1.4,7-5.4V1112.3z M344.9,1098.1h4.7v-2.4c0-7.3,3.8-8.5,7.9-8.5
			c2,0,3.4,0.1,4.4,0.4v4.9c-0.8-0.2-1.6-0.3-2.9-0.3c-1.7,0-3.1,0.6-3.1,3v2.9h5.3v4.7h-5.3v23.8h-6.3v-23.8h-4.7V1098.1z
			 M369.9,1114c0,4.5,2.4,8.4,7.6,8.4c3.6,0,5.8-1.6,6.9-4.7h5.9c-1.4,6.2-6.7,9.7-12.9,9.7c-8.9,0-13.9-6.2-13.9-15
			c0-8.1,5.3-15,13.7-15c9,0,14.5,8.1,13.4,16.6H369.9z M384.5,1109.9c-0.2-4-2.9-7.5-7.1-7.5c-4.3,0-7.3,3.3-7.5,7.5H384.5z
			 M377.8,1086.4h7.4l-7.8,7.9h-4.6L377.8,1086.4z M411.8,1087.3h6.9v17.9l17.5-17.9h8.5l-15.7,15.7l16.8,23.6h-8.6l-12.9-18.8
			l-5.6,5.6v13.2h-6.9V1087.3z M448.6,1098.1h5.9v5.5h0.1c0.7-3,4.5-6.3,8.3-6.3c1.4,0,1.8,0.1,2.4,0.2v6c-0.9-0.1-1.8-0.3-2.7-0.3
			c-4.3,0-7.7,3.5-7.7,9.7v13.5h-6.3V1098.1z M491.7,1120.3c0,1.5,0.3,2.1,1.5,2.1c0.4,0,0.9,0,1.5-0.1v4.3c-0.9,0.3-2.9,0.7-4,0.7
			c-2.5,0-4.3-0.9-4.8-3.5c-2.5,2.4-6.5,3.5-9.8,3.5c-5.1,0-9.7-2.8-9.7-8.3c0-7.1,5.7-8.2,10.9-8.9c4.5-0.8,8.5-0.3,8.5-4
			c0-3.2-3.4-3.8-5.9-3.8c-3.5,0-6,1.4-6.3,4.5h-6.3c0.4-7.3,6.7-9.5,12.9-9.5c5.6,0,11.4,2.3,11.4,8.2V1120.3z M485.5,1112.3
			c-1.9,1.3-4.9,1.2-7.7,1.7c-2.7,0.4-5.1,1.4-5.1,4.7c0,2.8,3.6,3.6,5.8,3.6c2.7,0,7-1.4,7-5.4V1112.3z M498.5,1098.1h5.9v4.2
			l0.1,0.1c1.9-3.1,5.1-5.1,8.9-5.1c6.2,0,10.1,3.3,10.1,9.7v19.5h-6.3v-17.9c-0.1-4.5-1.9-6.4-5.6-6.4c-4.2,0-6.9,3.3-6.9,7.5v16.8
			h-6.3V1098.1z M529.1,1098.1h23.1v4.4l-16.3,19.1H553v4.9h-25v-4.4l15.7-19.1h-14.6V1098.1z M557.7,1087.3h6.3v39.3h-6.3V1087.3z
			 M575.7,1114c0,4.5,2.4,8.4,7.6,8.4c3.6,0,5.8-1.6,6.9-4.7h5.9c-1.4,6.2-6.7,9.7-12.9,9.7c-8.9,0-13.9-6.2-13.9-15
			c0-8.1,5.3-15,13.7-15c9,0,14.5,8.1,13.4,16.6H575.7z M590.4,1109.9c-0.2-4-2.9-7.5-7.1-7.5c-4.3,0-7.3,3.3-7.5,7.5H590.4z
			 M601.4,1098.1h5.9v5.5h0.1c0.7-3,4.5-6.3,8.3-6.3c1.4,0,1.8,0.1,2.4,0.2v6c-0.9-0.1-1.8-0.3-2.7-0.3c-4.3,0-7.7,3.5-7.7,9.7v13.5
			h-6.3V1098.1z"/>
	</g>
</g>

	<g id="label_1_">
	<rect id="XMLID_799_" x="1785.5" y="1371.3" class="st0" width="498.5" height="122.2"/>
	<path id="line" class="st9" d="M1991.6,1413v37.1h239.8V1413"/>
	<path id="_x31_00" class="st4" d="M1823.1,1421.2c4.6,0,9-1.5,9.8-5.6h4.5v33.6h-6v-23.7h-8.3V1421.2z M1872.2,1432.5
		c0,7.6-2,17.5-11.6,17.5c-9.6,0-11.6-9.8-11.6-17.5s2-17.5,11.6-17.5C1870.2,1415,1872.2,1424.8,1872.2,1432.5z M1866.7,1432.5
		c0-7-1.3-12.9-6.1-12.9c-4.8,0-6.1,5.9-6.1,12.9s1.3,12.9,6.1,12.9C1865.4,1445.4,1866.7,1439.5,1866.7,1432.5z M1898.9,1432.5
		c0,7.6-2,17.5-11.6,17.5c-9.6,0-11.6-9.8-11.6-17.5s2-17.5,11.6-17.5C1896.9,1415,1898.9,1424.8,1898.9,1432.5z M1893.4,1432.5
		c0-7-1.3-12.9-6.1-12.9c-4.8,0-6.1,5.9-6.1,12.9s1.3,12.9,6.1,12.9C1892.1,1445.4,1893.4,1439.5,1893.4,1432.5z M1917.6,1424.6h5.2
		v3.4h0.2c1.5-2.7,4.5-4.3,7.7-4.1c3.1,0,5.8,1.3,7,4.1c1.7-2.7,4.6-4.2,7.8-4.1c5.2,0,8.3,2.3,8.3,8.3v17.1h-5.5v-14.5
		c0-3.9-0.3-6.7-4.5-6.7c-3.7,0-5.3,2.5-5.3,6.6v14.6h-5.5v-15.9c0-3.4-1.1-5.3-4.4-5.3c-2.8,0-5.5,2.3-5.5,6.4v14.8h-5.5
		L1917.6,1424.6z"/>
</g>

<script type="text/javascript"><![CDATA[

var svg = document.getElementById('bilka');

svg.addEventListener("mouseover",function() {
		svg.getElementById('marker').setAttribute('class', 'openM');
		svg.getElementById('text').setAttribute('class', 'vis');
	},false);

svg.addEventListener("mouseout",function() {
		svg.getElementById('marker').setAttribute('class', 'closeM');
		svg.getElementById('text').setAttribute('class', 'invis');
	},false);

]]></script>	
	
	</svg>
