<svg id="blick" xmlns="http://www.w3.org/2000/svg" viewBox="0 0 631 620.8">
	
<defs>
	<style>
	/* In HTML: .startM added to #home and .start to #mask */

/* Text animation*/
svg:hover #text  {
  transition-delay: 1.5s;
		transition-duration: 1s;
		transition-property: opacity;
		transition-timing-function: ease-out;
		opacity: 1 !important;
}
#text {
  transition-delay: 0.5s;
		transition-duration: 1s;
		transition-property: opacity;
		transition-timing-function: ease-out;
		opacity: 0 !important;
}

/* Trail and mask animation */
.mask {
  stroke-width: 10px;
  stroke: white;
  fill: black;
  stroke-linecap: square;
  stroke-linejoin: miter;
  stroke-dasharray: 370;
}
@keyframes draw {
		to { stroke-dashoffset: 0; }
		}
@keyframes undraw {
		to { stroke-dashoffset: 370; }
		}
.open {
  stroke-dashoffset: 370; /* qui sì! */
  animation: draw 1.5s .6s forwards;
}
.close {
  animation: undraw 1s 0.2s ease-in forwards;
}
.start {
  stroke-dashoffset: 370;
}

/* Home: interaction and animation */
#home {
  transform-origin: 50% 100%;
  transform-box: fill-box;
  }
.startM { transform: scale(0); }
.openM {
  transform: scale(0);
  animation: pop .2s .2s forwards;
}
.closeM { animation: unpop .2s .5s forwards; }
@keyframes pop {
		to { transform: scale(1); }
		}
@keyframes unpop {
		to { transform: scale(0); }
		}

/* Presentation attributes */
.cls-1 { fill: #ddd; }
.cls-1, .cls-2 {
        stroke: #f8f8ff;
        stroke-width: 0.5px;
      }
.cls-1, .cls-10, .cls-5 { stroke-linejoin: round; }
.cls-2 { fill: #bbb; }
.cls-2, .cls-6 { stroke-miterlimit: 10; }
.cls-3 { fill: #c7eafb; }
.cls-10, .cls-4, .cls-5, .cls-6 { fill: none; }
.cls-4 {
        stroke: #888;
        stroke-linejoin: bevel;
        stroke-width: 7px;
      }
.cls-5 { stroke: #222; }
.cls-6 {
        stroke: #c04300;
        stroke-width: 5px;
      }
.cls-7 {
        fill: #fff;
        opacity: 0.8;
        isolation: isolate;
      }
.cls-8 { fill: #c04300; }
.cls-11, .cls-9 { fill: #f8f8ff; }
.cls-10 {
  stroke: #222222;
  stroke-width: 5px;
  stroke-linecap: round;
  stroke-dasharray: 0.001 10;}
.cls-11 { opacity: 0.8; }
	</style>
    <polyline id="track" class="" points="201.2 151.8 184.3 151.8 184.3 165.1 163.8 165.1 141.2 185.6 230.9 452.6"/>
  <mask id="mask" class="start">
      <polyline id="track" class="mask" points="201.2 151.8 184.3 151.8 184.3 165.1 163.8 165.1 141.2 185.6 230.9 452.6"/>
  </mask>
  </defs>
	
  <title>doerferblick</title>
	
  <g id="map">
    <path id="east" class="cls-1" d="M312.9,606.2a126.7,126.7,0,0,1,5.9-55.9l-10.9-3.8c-4,10-6.4,25.9-7.3,36.8h-2.8a137.8,137.8,0,0,0,2.6,35l14.3-2.5C314.2,614.3,313.3,608.3,312.9,606.2ZM59.9,428.1l3.4,8.4,6.4-2.2-4.3-11.4ZM315.7,565l20.3,4.4,4-11.7-19.7-7.2ZM72.9,415.3l3,8.4,4.2-1.7L77,411.3ZM132,362.6a77.6,77.6,0,0,0-11.5,8.1L138.3,424a73.5,73.5,0,0,0,12.6.8C150.1,423.1,133.4,364.2,132,362.6ZM514.3,69.5c21.4.9,31.9,7.5,45.7,16.8-.6-3.5-1.4-7.9-2.4-11.9C547.2,72,517,60.1,506.1,60.3l-2.2,7.8A100.8,100.8,0,0,0,514.3,69.5ZM449.4,24.4l-13,13.3V38l4.3,3.7c.3-.4,12.5-12.3,13.1-13.2l-4.1-4.1ZM447.6,560l5.5-4.6-6.3-8.3-4.6.6C441.9,551.5,444.8,557.1,447.6,560Zm4.4,35.1-6.1,3.8a20.4,20.4,0,0,0-9.7-9,77.6,77.6,0,0,1,6.5-5.6l-5.2-3.1,2.6-2.9L428.6,571l2.7-1.5-2.4-19.8-10.7,1.4c.9,6.9,3.1,22.6,4.2,29.4-1,4.4-27.2-6.1-28.9-5.8.5,1.7-.3,6.7-.8,9l-5.7.3-.2,3c3,.4,20.4,1,23.6,1.2-1.7,7.6,2.3,14.8,7.8,21.2l4.6-3,7.5,10.3,9.7-7.6-4.2-6.1.6-.4.3-3,1.7-1.4,5.3,3.9-1.5,3.2,1.1,1.1c3-2.3,7.4-5.8,10.6-8.8A16.2,16.2,0,0,0,452,595.1Zm-69.5-93.6c-7.6,2.1-20.6,5.7-28.7,7.8L361,517l5.6-.9,1.2,7.7,17.2-2.2ZM504.8,56h.2c3-1.3,1.6-5.4-.5-9.2l-3.3,2-3.4-5.3,4.1-2.6L478.3-.5H427c20.4,17.3,45.8,52.4,66.7,53.2v.2Zm-165,484.5,7.9,2.7c1.2-2.7,7.7-22.7,9.4-25.8l-6.4-7.3Zm72.9-18.9-29.9,3.9,1.4,10.9,29.9-3.9Zm9-.5-7.1,1.3c.2.1.9,7.8,1.1,8.9l7.1-1.3ZM435.6,37.6h0c.2-.3,6-5.8,6.3-6.3S412,4.4,411.8,4.1h-.2c-.6.9-6.7,5.9-7.1,7.3C405.9,13.2,434.2,36,435.6,37.6ZM401.7,557.1l-3.9,3.2,4,4.4,6.2-5.6-3.4-3.8ZM58.6,338.4l-3.1-7.8-1.6-.9-8.8,4.2L42.7,329l-6.4,2.6L33.2,323c-2.3-.3-7.5,1.2-10.2,2.1l2.2,10.3-3.5,6.5c1.5,4,1.5,9,3.4,13.4l34.2-13.8-1-3.1Zm444-298.3c13.2,21.1.5,15.6,21.9,21.3,1.7-6.6,6.9-24.8,8.7-31.3L510.6,4.8l-.5-5.3H479.2ZM413.7,546.4l2.2-.4-1.4-11.5-10.4,1.4,1.7,13.1A43,43,0,0,1,413.7,546.4Zm9.9-10.4-.4-2.9-7,1.3.4,3ZM8.9,279.6l1.1,5.6c3.5-.1,9.8-2.3,13.1-4.2l-.5-3,15.5-2c-5.9-20-14.9-44.3-20.3-64.1l1.9-1-3.4-10.6-1-.5-1.7,1,1.7,4.9-3.5,2-2.1-4.5L.6,208.1c.4,2.1-.8,70.3.4,72.3ZM401.3,519.3l11-1.2c-.7-4.9-2.2-18.7-2.7-24-5.3,1.3-18.1,4.9-23.6,6.5.6,5.2,1.7,15.2,2.5,20.6l8.2-1-.2-3.3,4.5-.6ZM43.4,410.4l-2.1-5.2-10.9,4.4c-.6-2.1-2.1-7.1-3-9.8l-11.5,3.7.2.7c-2.5.9-13.6,4.3-15.6,5.3-.6,14.4-.5,35.9,12,45.8L7,461l-3.9-3.7L.5,459.5v15.3c9.4-8.9,18.3-19.3,30.4-25.9l-.4-.7c3.8-2.8,16.4-11.8,19.7-14.6C49.9,429.8,44.6,414.2,43.4,410.4ZM31.3,450.3l-.3-.5C18.8,456.3,10.3,466.5.5,476.4v15.1l5.6,5,.6-.5v-.9l3.9-4.2-.6-.5,6.2-7.3.8.5c2.4-7.4,8.1-10.7,12.5-16.9l-2.8-3.8c1.6-.9,6.4-5.3,8.9-4.7C35.4,456.5,32.6,452.2,31.3,450.3Zm-12.7,16-4.1-3.7h0a13.3,13.3,0,0,1,2.4-2.3c1.7,2.1,1.6,1.7,3.8,4.4ZM442.5,30.8c.2-.3,6.5-6.4,6.7-6.8S424.8-.2,424.6-.5h-8.5c-.3.5-3.6,3.3-4.1,4.3s28.9,26.5,30,27.1ZM39.9,321l-6.2,2.2,3.2,7.1,6.2-2,2.1,4.8,9.5-4.3L49,310.2l-10.9,5ZM612-.5c-1.6,1.5-4.5,4.6-6.3,6,4.2,5.5,9.3,10,14.5,15.7l9.3-8.5V-.5Zm8.1,20.3-12-12.5V5.8l5.7-5,12.5,13.3ZM600.9,168.1a60.6,60.6,0,0,0,3.5-7.2c-3.9-1.4-18.8-4.7-23.2-5.7,0,3-.6,10.8.1,13.9l17.1,4.1ZM568.5,455.6l.8-3,8.2,3.1,1.6-4.4-10.9-3.7-1.8,7.4Zm61,20.8v-7.8l-4.8,3.6Zm-24.9,67.3-8.8,1,10.7,17.7-1.5.8,3.1,4.2,1.6-1.1,6.8,8.6,6.9-2.2,6.1,9.3V494.6l-39.2,25.9Zm11.3-91.8L613.7,463l8.1,6.8,7.7-6V415.4c-1.9,2.8-6.8,4.5-8.3,8.8h.3C619.9,431.7,617.5,444.3,615.9,451.9Zm-89.2,8.6c-1,.3-10.2-17-10.7-17.5l-5.2,1.4,1.5,4.5-5.4,3.3c1.4,2.8,4.5,9.1,5.6,12.3l-1.4.6,1.8,5.8-2.1.5v5.4c5.6,1.2,15.6.2,20.8-2.9ZM626.4,37.6l-4.1-7.9c-1.6,1-5.2,2.7-7.6,3.9-.8-1.6-2.3-4.4-3.6-6.4-2.9,1.3-8.2,4.1-10.9,6.4l2.4,5.2-4.8-7,19.6-10.3v-.2c-1.2-1.6-19-20.1-20.4-21.8H579l-4.5,4.1-2.2-2.2L560,12.5l12,12.8,6-5.6,5.4,5.8-5.9,5.6-5.4-5.8,6.2,6.6c.6,6,2.9,31.3,3.4,36.4,11.8-.9,25.2-2.2,36.8-6.1,1.8,2.7,0,16.7,0,19.4,3.4.2,6.6.9,10.6,1.2l.7.8C629.3,78.3,632,40.1,626.4,37.6ZM615.8,71.9l-.3-4-.7-.5c-6,1.4-12.3,3-18.9,3.6l.6,6.9,19.1-1.8Zm9.1,215.5-2.2,5.4c1.8.5,4,1.1,6.4,2l-6.2,15.7a29.5,29.5,0,0,0-4-1.5l-.4,1.2,1.3.3c-11.2,42.6-34.3,89.3-49.3,130.5l.4.8c11.8,7.5,31.1,13.4,42.6,21.1l6.3-30.4-3.3-1.4c1.9-6.5,6.3-15.1,12.9-18.5V331.1l-13.5-3.5,1.8-4.5,11.7,3.1V286.6l-.9,2.4Zm3.6-179.2h-.3a11.8,11.8,0,0,0-1.4-3.4c-9.1-.1-27.8-4-37-2.2,0,.6-1.8,12-1.9,12.8l2.9,1L588.2,129l-4.9-1-1.9,6.9,29.9,7.1c-5.4,29.1-13.4,30.6-10.9,36.6-.2.1-11.3,22.6-11.5,23l3.4,5.6c5.9,2.1,21.8,6.3,28,8l-2.9,7.8,5.2,1.9c.1.2-1.2,2.1-1.3,3.3s-1.9,3.7-2.4,4.9l5.6,6.9-3.6-1-3.5,8.9-6.8-1.8,3.5-8.7-19-5.3c0,6.3,1.2,19.3,3.2,25.4l2.3.9-1.6,4.1,2.4,1-2.6,6.2,1.7.6-1,3.1,3,1-.2,1,27.5,7.9V106.9l-.6,1.3Zm-18.4,27.6c-.4,1-.2,3.6-1.7,4.7s-6.5-1.1-8-1.4a81.7,81.7,0,0,0,3.8-17.7l8.3.5A71.1,71.1,0,0,1,610.1,135.8Zm3.1,12.2-2.3,4.7-2-.5c.7-2.4,1-5.7,2.4-8.1.7-.2,1.9.1,3.6.5Zm12.5-7.1a35.2,35.2,0,0,1-4.3-.5c.4-2.1,3.4-13.1,3.9-15.1l3.4,1.1Zm3.8-46.4h0Zm-66.2-5.7,18-1.8-1.4-14.7-19.5,1.8Zm13.8-48.1-.6-6.4-7.9-.2c0,.2.6,6.1.7,7.2Zm17.6,439.1,2.9-1.2,3.2,4.1,9.4-7.5c-11.7-6.7-32.3-12-45-16.2-.5,2-7.2,26.3-7.2,27,3.3,5,6.5,11.7,10,17.1l1.7-1.1,3.2,4.6,2.7-2,.6,1,8.3-6.2-8.7-10.7,10.4-.2,1.9-7.7A22,22,0,0,0,594.7,479.8Zm-43.9-45.5L536,427.5l-3.4,5.2c-.6-.1-12.6,6.5-13.3,6.9.9,1.4,5.6,9.9,6.4,11.3l31.6-8.2,1.8-5.4Zm-20.1,70.9,6.6,8.7,13.4-10.2v-.4L544,495ZM577,363.6Z" transform="translate(0.8 2.3)"/>
    <path id="west" class="cls-2" d="M298.2,97.2l2.8,2.3h.6c.5-1.1,8.9-10,8.2-11.1S289,70.9,287.6,71.3s-7.8,10.2-8.2,10.7.1-.1-.1.4,4,3.2,4.9,3.9h.4c.5.4,5.7,4.5,6.5,5v.3a7.5,7.5,0,0,0,1.6,1.2h.2c.3.1,4.4,3.4,5.5,4.2V97Zm74.3-23.9c-.3,0-15.7-11.6-16.5-11.6s4.4,28,4,27.9.1.3.6.3,12-15,12.3-16S372.7,73.8,372.5,73.3Zm-104.1.4c.3.1,9.7,8.1,10,8.1l.4-.2A14.1,14.1,0,0,1,280,80v-.5c.3-.1,5.5-7.6,6.2-7.4s2.5-2.6,2.9-4.1l6.4-8.2h.5c.1-.3,1-.8,1-1.8l-2.1-1.7V56l-.2-.2-.2.2-7-5.7v-.2l-.2-.2h-.2l-.9-.6H286c-.8.4-17.6,22.1-18.4,23s.1,0,.1.4Zm161.4,33.8c-5.5-6.6-16-15-23.3-20-.5-.5-9.3,8-8.5,8.4s19.7,22.1,20.9,22.4,11.1-9.8,11.2-10.6v-.2Zm-56-33.2c-.7-.6-11.9,15.4-12.6,15.9s-.1.2-.7.2l-.2.2c3.7,17.5-1.8,11.1,12.4,12.9C374,98.2,383,90.6,387,87,386.3,82.8,377.5,77.9,373.8,74.3Zm22.1,3.1c-14-11.2-14.1-15.7-21.3-4.3,7.9,5.6,15.6,14.9,22.4,21.6l7.7-7.9C405.2,86,396.5,78.4,395.9,77.4Zm35.2,31.5-.2-.2h-.5c-.7.9-11.2,9.8-11.1,10.8s16.3,18.7,17.6,18.8c3.6-3.3,7.4-7.3,12.2-10.1C449.4,127.6,431.3,109.5,431.1,108.9ZM272.5,38.6h-.2c-.5-.2-5.8-5.2-6.7-5.1s-8.9,10.4-8.9,11.5c25.5,21.1,17.5,16.8,28.8,4.6.1,0-.1.1.1-.4a.4.4,0,0,1-.1-.3l-3.1-2.5v-.2l-.2-.2h-.2L276.8,42v-.2l-.2-.2h-.2l-3.9-3.1v-.2ZM244.8,15.1v.2h-.1c.2.6,7.4,6.8,8.4,6.6L270.1.6H256.5L245.1,15Zm-6.9,16.4c18.6,26.3,9.2,20,26.2,1.9h.5l.2-.3c-.1-.7-.4-.7-1.5-1.7v-.2l-.2-.2h-.2l-5.4-4.2v-.2h-.3c-.6-.1-3.6-3.7-4.7-3.3-2.9,2.4-1.2,8.1-7.4,2.8-2.1-.9-5.4,2.9-7.3,4.5-.1,0,.1-.1-.1.4s.1,0,.1.4Zm16.5,27.2c1.5,4.7,8.1,10.2,12.5,13.6.6.4,8.7-10.6,8.9-10.7S257,46.4,256,45.7C248.6,52.8,252.5,52.9,254.4,58.7Zm-.7-36.5c-1.2.8,11.9,10,11.8,10.1l.5-.2c5.1-8.2,15.5-19.1,19.3-27.3-.4.1-4.7-3.6-5.6-4.3H271C270.7.8,254.3,21.7,253.7,22.2Zm25.8-6.6-.3-.2c-.1,0-.2-.1-.6.2l-.6,1c.1.6-2.4,3.6-3.2,4.7s-.3-.2-.6.4V22c-.6.6-3,4.6-4.1,5.1v.5a41.8,41.8,0,0,1-3.9,4.9v.2c2.3,2.1,7.8,6.1,10.3,8.4h.4l9.1,7.1h0l.2.3v.2c.1.1,10.6,8.3,11.2,8.9h.3c.1-.1,0-.1.3-.2s12.4-15.7,13-16.4v-.3l-.2-.2h0Zm84.4,196.6.6.3c.6-.6,16.4-13.1,16.8-14.3-7.4-10.4-16.3-22.3-25.3-31.7-.7-.2-17.7,12.8-18.6,13.4S363.8,211.8,363.9,212.2ZM310.4,87.9c.8.2,8.1-10.2,9.1-11s.4-.4-.4-1.1v-.2l-.2-.2h-.2c-.5-.3-2.7-2.2-4.1-3.3V72h-.4l-9-7.2v-.2l-.2-.2h-.2l-5.4-4.3V60H299c-.4,0-.6-1.2-1.8-1.1s-7.8,10.8-8.4,11.3v.2C288.9,70.9,309.9,87.3,310.4,87.9Zm71.7,109.4h.2c9.6-6.7,32.6-22.6,42.2-29.4v-.4c-14.7-15.6-7.2-14.5-6.5-25.7l-.4-.4c-2,1.2-26.2-6.5-23.8.1-.7,3.8.2,4.7-2.7,8.1-23,22.4-14.6,1.2-30.8-5.6l-.4.4c.1,1.1-4.1,21.5-3,21.5C364.3,173.2,376.1,188.6,382.1,197.3Zm-47.3-20c1.2,5.4,18.4-11.6,20.2-11.8l.2-.4c-1.6-1.5-8.1-10.2-9.6-12h-.4c-2,.1-13.9,19.4-15,20.5v.2C330.3,174.3,333.6,176.3,334.8,177.3Zm-9.5-34c.1.1-4.1,12.2-4,12.7s1.8.7,3.3,1.2l.5-.3c-1-1.8,14.2-10.7,14.5-11.4s-.1.1.1-.4c-1.8-3.2-8.4-9.5-8.2-13.4l-3.6-.5s0,.1-.4.1l-.3.3C327,133.1,325.4,141.9,325.3,143.3Zm99.6,23.6.3.2c24.3-17.7,35.4-6.7,10.8-27.3-.2.2-2.3,2.2-3.3,3s-15.4-3.3-14.3-.3C413.3,158.8,419.8,158.9,424.9,166.9Zm-104-9.7c0,.4-2.8,7.3-2.7,8.5s9.7,6.7,10.9,7.6,6.1-8.1,5.7-8.8c-3.3-2.3-9.3-6.9-13.8-7.5Zm-18.1-29.4c-7.3,19.5,11.7,11.2,20.9,15.2,0-.1.1.1.4-.3s2-10.7,1.9-11.2l-.4-.5c-.5,0-21.7-3.6-22.6-3.5Zm-4,19.7c12.4,18.2.7,6.2,18.2,17.4.9-.7,6.6-19.1,6.7-20.7s-21.7-3.3-22.4-3.7l-5,3.8Zm163.8-24.8c-.1,0,.2-.1-.5-.3-8,3.8-19.1,8.9-24.7,16.5,3.9,4.7,10.2,8,14.6,13.8,31.3-12.6,18.1-8.3,10.7-30.2ZM388.3,87.2s0-.1-.4-.1c-4,5-14.2,9.8-14,17.2,10.8,6.3,23,21,20.3,32.8,3.1,1,42.9,8.6,41.6,1.6C435.4,138.5,388.9,87.2,388.3,87.2Zm7.5,8.9,2.8,2.9-4.8,4.3c9.1,9.1,19.7,21.3,16.4,35.6l-6-.7c4-15.5-13.2-27.5-19.6-36l9-8.4Zm41.5,92.5c0,.9,13.9-4.1,14-4.3v-.2l-.2-.2c-.9-.1-18-3-18.3-2.9s-.1,0-.3.4S436.8,187.8,437.3,188.6ZM368.8,104c-.9.2-4.7-.8-6.2.8a58.4,58.4,0,0,1,1,13.5l.3.5c20.2-2.6,15.8,19.7,29.3,18.6C397.3,125.4,378.4,104.1,368.8,104Zm-44.2,4.2V108c-15.3-2.1-22.3,13-20.7,18.6.1-.1,21.2,3.3,21.7,3.3v-.2l.9.2.2-.2C326.5,128.4,325.1,109.4,324.6,108.2ZM243,235.9c-2.2,2.1-5.6,3.9-9,5.8.1.7,4.5,12.4,5.3,12.9a49.9,49.9,0,0,0,10.9-7.2l-5-13.7Zm-11.4,3.2A44.7,44.7,0,0,0,215.1,224h-.3c-.3.1-5.4,8.7-6,9.5v.4c9,4.4,15.3,16,18.1,25.9l.4.3c.3.2,9.9-4.3,10.8-4.6l.2-.3C236.4,250.4,233.9,244.2,231.6,239.1Zm3.6,40.9c.4-.1,10.5-4.8,10.9-5.5l-7.4-18.2-.3-.2-10.7,4.7-.2.4C227.8,261.5,234.5,279.4,235.2,280Zm9.1,22.6,10.4-5.7.2-.5c-.4-.2-7.7-21-8.7-21s-10.3,5.1-10.5,5.5S243.8,301.8,244.3,302.6Zm5-53.2a45.4,45.4,0,0,1-9.3,6.1c0,.1-.1,0-.4.7s6.7,17.7,7.5,18.2,10.2-4.9,10.8-5.9c-1.7-5.5-4.9-13.4-7.3-19.2C250.1,249.2,250.3,249.1,249.3,249.4Zm6.4,46.7c.3.3,9.3-5,10.2-5.4v-.3c-2.1-5.1-5.6-15.8-8-20.8-.7,0-10,4.8-10.7,5.5S255.2,295.2,255.7,296.1ZM232.2,195l-.5.2c0,.6-10.2,15.6-10,16.8,50.3,29.7,33.9,25.9,50.6,7.2v-.3c-.1-.6-39.6-23.7-39.6-23.9Zm130.3-75.2c-.2-.3-35,0-35.4-.1-.8,1.9.8,7.4.3,10,.2.1.1.2.7.2v.2c4,.3,27.7,3.5,32.4,3.6a93.7,93.7,0,0,0,2.3-13.9Zm-141.2,93c-.2,0-.2-.1-.7.2s-5.7,9.3-5.4,9.8c22.6,12.3,13.2,26.1,29.4,10l-2.9-7.9C241.3,224.8,222.1,212.9,221.3,212.8Zm53.4,59.9c0-.1.1.2.3-.5s-2.9-8-3.2-9l-.3-.2c-.8-.1-12.4,4.6-13,4.9v.4l3.3,8.7.5.3C262.5,277.3,273.7,273,274.7,272.7Zm-51.4,13.6c.4-.1,10.4-5.1,10.8-5.7s-6.8-18.4-7.3-19.1-10.2,4.4-11.2,4.8S222.6,285.5,223.3,286.3Zm-14.7-80.9h-.3c-13.8,20.8-15.7,18.4-2.5,26.6.1-.5,12.8-19.4,12.8-20.4S209.3,205.9,208.6,205.4Zm-6.9,40.2c6.8,3.1,10.6,12.8,13.5,19.7.3,0,10.1-4.3,11.1-4.7v-.4c-3.5-9.6-7.9-20.4-18.1-25.4H208c-.3.1-5.9,9.7-6.4,10.4v.4Zm66.1,7.4-.4-.2-12.2,4.6s0,.1-.4.5,2.8,8.8,3.6,9.3C276.9,261.6,270.1,262.3,267.8,253Zm-17.6-62.5h-.3c-.5.7-5.3,8.7-6.1,9.9v.4c1.1.4,27.6,17.3,29.3,17.1s4.8-5.8,5.2-7.1v-.3a138.9,138.9,0,0,0-27.5-20.1Zm-.4-117.4c.6.3,20.3,17.4,21.3,17.6a3.3,3.3,0,0,0,1.2-1.7l4-4.8a2.2,2.2,0,0,0,1.5-1.7c-3.4-3.6-18.3-14.2-20.9-18.3-.3,0-.1-.2-.7-.1a73.2,73.2,0,0,0-6.5,8.3c.1,0-.1.3.1.7ZM220.1,10.8v.4l16.7,19c3.9-1.3,5.5-8,11.1-3.1.3,0,.1.2.8.1s2.3-2.8,3.5-4.1-3.5-3.3-4.4-4.1v-.2h-.4l-4.5-3.5v-.2l-.2-.2-.2.2-4.2-3.4v-.2l-.2-.2H238l-4.9-3.9V7.3l-.2-.2h-.2l-4.2-3.4V3.6h-.3l-1.3-.9h-.3c-.2.1-5.9,7.2-6.6,8Zm28.2,61.1v.2c.1,0,.1.3.9,0s5.4-7,6.8-8.5c-1.1-2.3-3.5-7-4.8-10.4,0-.1-.1.1-.4-.3h-.6c-.9.8-8.8,11.3-9.7,12.1v.4C240.7,65.6,247.5,71.2,248.3,71.9Zm-20.8-70c1.4.7,15,12.8,16.7,12.9S255,1.3,255.8.5H226Zm-7.7,10h-.5c-2.1,2.2-4.6,5.5-6.7,8-.2.6,14,17.9,14.3,18.8,2-.1,7.2-6.1,9.3-7.6v-.6c-.4-.3-15.6-17.9-16.2-18.5ZM340.6,49c-.2-.4-54.1-42.7-54.3-43.3s-.2-.1-.6.1V6c-.4,1-6.4,8-6.2,8.9S332.4,57.4,334,58.3s6.3-8,6.8-8.3A1.6,1.6,0,0,0,340.6,49ZM279.5,211.4c-.3.4-5.1,6.3-5.4,7s29.3,17.3,30,18,4.4-9.8,2.3-9.6c-10.3-5.2-16.6-11.2-23.6-18.1C282.4,208.8,280.7,210.5,279.5,211.4Zm59.9-181C339,28.7,301.8,1.8,300.8.5H290c-.3.2-1.4,2.4-2.4,3.2s-.5-.2-1.2,1.3h.1v.2c.9,0,43.9,36.5,45,35.1h.1C332,39.7,339.2,31,339.4,30.4ZM276.7,158.9h-.5c-.3.4-15.4,17.5-15.7,18.4,7.4,7.1,19.9,17.7,26.5,25.7a23.3,23.3,0,0,0,5.3-3.8C291,197.3,277.5,160.8,276.7,158.9Zm43.2-83.3a.7.7,0,0,0,.7,0c.6-1,13.5-16.4,13-16.8s-20.7-16.4-21.7-17.3h-.6c-.5.9-13.5,16.2-13.1,17s13.6,10.9,14.1,11.3h.7c2.9,1.8,4.1,3.8,6.9,5.9Zm-34.3,76c-.3-.1-7.9,5.5-8.3,6.4,1.7,3.9,14,37.8,16,40.3h.7c.4-.5,10-6.2,9.8-6.8-8.2-8.1-12.2-31-17.7-39.9Zm-25.8,26.5c-2.8,2.4-6.8,8-9,11.4,9.5,5.8,19.7,12.7,28.1,20.5a82,82,0,0,0,7.1-6.4v-.3c-4.6-6.3-20.3-20.2-26-25.3Zm26.5-27.4v.2c3.4,2.5,10.1,28,12.5,31.3.5-.3,11.8-8.4,11.5-9.5-4.5-8.9-9-18.6-15.9-26.6l-.2.2c0,.1-.1-.3-.7-.7S287.7,150.3,286.3,150.7Zm2.3-30.5v.2c.4.4,13,5.8,13.6,5.5-.1-5.9,6.4-13,9.5-17-1.5-1.7-4.5-3.4-6.5-4.8l1-1.4,1.3,1v.6c.3.2,4.2,3.6,4.9,4s10.6-.9,11.5-1.1.1,0,.3-.4-1.4-29.4-3.7-27.1l-32,40.3v.2ZM484,189.6c-11.4-2-35.4-8.1-45.8.2.4.5,7.3,11.6,7.9,11.9s0,.1.9-.2l.2.2,34.2-9.5V192l2.4-.6c.1-.2.4-.1.1-.8h.2ZM257.8,101.7c-3.5-6.3-33.5-41.6-38.4-46.3h-.3c-.1.1-.3-.2-1.3,1C213,96,224.6,84.1,235,106.5c.1,0-.2.1.5.5,6.4-.8,19.2,3.4,24.9-1.3-.1-.1.2-.2-.3-.8l.3-.2ZM191.5,255.3,205.3,233v-.2c-11.9-5.5-19.1-22.3-21-34.9-.6,0-12.7-2.1-13.1-.6s-1,8.4,0,9h1.6c-1.2,5.3,7.5,23.9,9,28.7.1,0-.2.1.7.3a24.4,24.4,0,0,0,6.5-3.2l1,1-2.6,2.2-.9-.9a26.9,26.9,0,0,0-4,1.6v.4c2.6,5.6,4.2,14.5,9.2,19.1Zm-25.6-15,.2.2c1-.3,14.9-4.5,14.9-5.5-2-5.8-9.1-21.3-9-27.4-.6-.8-12.6-.5-13.6-.6C155,213.6,164.3,233.8,165.9,240.3Zm4.8,18.8c1.8,5.4,3.4,11.7,8.9,15.5l11.5-18.7c-4.7-3.2-7.2-15-9.6-19.7-.4.3-4.3.7-5,2,1.9,5,4,11.4,7.4,16.4l-1,1-1.4-1.7.9-.6c-1.8-3.1-4.9-12.2-6.4-15.2a104.9,104.9,0,0,0-10.6,3.8C165.5,242,170.5,258.5,170.7,259.1Zm-2.3-63.5c1.5-1.7,14.8,1.7,16.1.3s.3-6.3.4-7.4c-2.8-.6-10.9-1-13.9-1.4l-.4-1.1c-1.6-.6-4.3-2.2-6.8-2l-.9,10.7A17.3,17.3,0,0,1,168.4,195.6ZM37.6,6.7c.3,1,14.5,8.3,15.8,8.9S59,6.2,59.7,5.2,57.2,2.3,55,.5H40.5C40.3.9,37.9,5.9,37.6,6.7ZM339.2,28.9c-.2.1,1,.3.8,1.8s-7.8,9.6-8.1,10.2,8.9,7.1,9.3,7.8c6.2-5.4,11.8-14.8,17.7-21.5.1,0-.1.1.1-.4C348.5,17.6,335.7,9.3,324.2.7H302.5Zm21.6,1-6.9,8.7c3,1.7,11.8,6.6,14.5,8.3l-2,4.2L357.5,55l-1.8-4.2,3.3-1.5-1-2.2.7-.3-8.3-4.7c-2.9,12.7,13.5,24.3,23.3,30.5,8.4-18.6,22.8,7.9,32.1,13.1.4.1,3.7-3.8,4.7-4.7l1,.7c-.3.4-4.3,4.1-4.8,4.9,33.7,24.4,16.7,25.8,40.4,5.7v-.4c-26.7-18.2-59.5-43.4-85.5-62.5ZM150.6,195l-.2.2c.3.7-.9,10.6.2,11.2s19,.3,19.3-.6.5-8.1.5-9.1.1-.1-.5-.6c-2.7-.4-16-1.4-19-1.3ZM25.2,159.8c-.6.2-13,1-12.9,2.5s6.9,32.6,7.1,33.1c3.1-2.1,8.9-4.5,12.2-7C31.1,187.7,26.3,160.5,25.2,159.8Zm6.4-2.2c4.9-8-18.6-12.2-22-14.7H9c-1.3.2,2.7,16.9,3.1,17.4s17.8-2.5,19.1-2.4ZM476.2,342v-.2c-.7-.6-18.1-29-19.4-29.4s-11.5,5.3-12.2,6.1v.5l.3.5h-.2c3.9,6.3,14,23.7,17.6,29.4,3.2-.9,10.4-5.1,13.7-6.8Zm1,49.5,3-1.9v-.3l-3.6-5.8-4.2,2.6,3.8,5.9ZM443,320.7s-.1-.2-.7-.5-18.6,11.5-19.3,12.2c1,1.1,22.3,36.5,23.8,37.3l18.6-11.6ZM421.6,70.1l7.4,5.5L441.3,59c-16.5-14.4-47.1-35.5-62.1-50.3-5.4,3.6-11.2,13.2-15.8,18.1C374.6,35.2,411.3,62.1,421.6,70.1Zm95,210.6-.8-1-24.6,15.8,20.4,29.6c5.7-4,17.6-11.8,23.6-15.6l-6.6-10,.5-.3Zm17.5-98.9.5.2c.5-.1,17.8-12.6,18.4-13s-5.3-10.5-7.2-10.6c-2.9,4-14.6,9.8-18.1,13.3,0,0,0,.2.4.8l.6-.3,5.8,9.1-.6.3ZM468,307.2V307c-.4-.3-9.5,4.2-10.3,5.1l19.1,29.4,5-2.6-3.7-6,4.5-2.8Zm-18.1,73.5,1.8-1-1-1.5-2.4-.3ZM327.3,292.4a89.6,89.6,0,0,0,10.2,15.7c-1.4-13.5-10.4-29.3-14.1-37.1l-5.9.6-.4.6,8.9,19.5v1Zm-123.9,7.9c-3.4.3-13.3,1-16.6,2.6,1,3,3.3,10.6,5.2,13.4l11.1-5.9-.2-.5,2.1-1Zm204.4,95.1c.4-.3,6.4-4.1,7.4-5s-8.6-14.4-9.3-14.9h-.3v.2C406,378.4,405.7,394.2,407.8,395.4ZM212.2,297.8h.2c0-.4-7.3-20.5-7.8-21.1-2.8.8-7.9,2.4-10,5.2,0,.5,6.7,16.8,7.1,17.7l.4.2A49.5,49.5,0,0,0,212.2,297.8Zm-11.6,2.1.2-.3c-.1-.4-6.3-16.8-6.9-16.8s-8.4,9.9-9,10.4l2.5,8.3,13.1-1.4Zm215.1,90h.3c7.5-4.8,6.5-2.9,3.5-8.1-23.6-35.3-17.8-35.6-23.8-33.5,1.9,7.8,3.8,17.9,4.9,26a13.8,13.8,0,0,0,3.9-.5c.1-.4-.9-6.9-1-8.3h.6l.9,6.2h1.2C405.1,375,414.4,387.2,415.7,389.9ZM404.8,375c-.1,0,.1-.1-.3-.5s-3.1-.3-4,.8,1.1,22.7,2.1,22.8,3.2-1.3,4.5-2.5C405.5,395.6,405,375.5,404.8,375ZM401,306.7l.2.2a40.5,40.5,0,0,0,11.8-4.5s.1,0,.1-.4-15.3-25-16.1-25.5h-.2c-3.7,2.7-8.3,4.2-13.1,5.5C385.4,306.1,394.9,276,401,306.7Zm-24.2-73,.2-.5a157.8,157.8,0,0,0-17.8-25.5c-.8,0-10.1,8.8-11.3,9.5s-.1,0-.1.7A108,108,0,0,0,360.9,231h.6c2.2,1.7,5.6,5.1,8.7,6.5a1.8,1.8,0,0,0,1-.5l.3.2,5-3-.2-.3Zm22.3-9.8h-.2c-1.4.5-9.4,6.4-11.1,6.4-.1,0-.1-.3-.6-.6s-4.1,3.9-5.8,5.2v.2c.1.1-.5.2-.5.8,2.2,2,5.4,5.6,2.9,9.7.2.2,0,.3.8.6l-.2.3a110.4,110.4,0,0,1,25.6,19.6l.2-.2a1.1,1.1,0,0,0,.9.7l11.4-7.4V259c0-.1-22.6-34.7-22.8-35Zm-70.5-9.8-1.6,8.2,2.6.6v-.6l2.6.7.5-1.9,3,.7c0-.1.4-1.8.6-3.2l-3.2-.6.5-2.8Zm14.7-2,3.5,4.3.2-.2s0,.1.4.3,10.8-8.1,10.7-9.6c-6.8-7-20.3-28-28.5-32.1-3.3,1.7-6,4.6-9.8,7.3v.4l.4.5-.2.2C327.3,192.4,335.9,202.6,343.3,212.1Zm62.5,53.2c-35-31.8-25.2-11.2-21.7,15.7,7.6-.9,17.7-8.5,23.8-12.8V268l-.2-.2.2-.2ZM440,284.8h.5c.4-.3,8.3-5.3,8.7-5.9s-30.1-46.2-31.5-48.6c.7-1.8-9.5,3.4-10.2,3.7S439.6,283.7,440,284.8ZM360.8,143.3c4.7.4,11.4,13.3,15.4,15.7,7.1-2,18-10.9,17.2-20.1l-.4-.5c-14.4-.7-11.2-22.7-28.9-18.7C363.3,125.4,360.5,137.4,360.8,143.3Zm67.1,149.1.3.2h.2c.5-.5,10.9-6.6,10.7-7.1s-16.2-24.7-16.4-25.4,0-.1-.4-.1-11.3,7.1-11.2,7.4v.4l.4.5-.3.2c4,4.2,13.1,19,16.3,23.9ZM347,105c.6-.3,14.2-.7,14.3-1.6s-2-11.3-2.1-12.1l-.4-.4c-.4,0-12.7,2.1-13.1,2.3s.5,10.6,1.2,11.8ZM316.2,248.6c.1-.1.2.5,1,.5s1.3-2.9,2-4.4c16.4-43.1,7.9-40.2-5.9-58-.8.4-18.3,11.9-18.6,12.8a33.1,33.1,0,0,0,5.8,7.2h.8a4.2,4.2,0,0,1,1.2,2.4l-.5.6a47.5,47.5,0,0,1-7.9-9.5c-2.9.6-7.8,5-10.5,7.3a86.5,86.5,0,0,0,24.7,19.1c.1.2-3.1,9.6-3.3,10.4l9.1,5.2-.2.4c-.3-.1-39.5-23.4-40.1-23.4s-3.4,5-4.2,5.9c11.4,7.5,35.7,18.9,44.1,29.9l1.3-2.2v-.6c.3-.7,1.5-2.5,1.1-4.6h.4Zm24.5-102.4H340c-1.6,1.8-15.2,8.9-14.4,11.5,1.2.4,9.3,7.3,10.5,6.2,2.3-3.1,5.6-9.8,8.8-11.6V152C344.5,151.6,341.5,147.4,340.7,146.2Zm-23,33.5c-.1-.3.4.8,1,.8,2.3-2,6.8-3.6,9.6-6.2v-.2l-.3-.4c-4.8-2.9-10.7-7.3-15.9-10.7l.2-.2a15.4,15.4,0,0,0-4.6-2.1l-.2.2c0,.2-.1.1.2.7h-.3A140.7,140.7,0,0,0,317.7,180Zm-4.1-1.2-2.4-4.2c-.6-1-12.4,8.7-12.2,9.1s4.1,6.8,5.2,7.5c3.5-2.6,13.1-8,10.9-9.4l.2-.2ZM326,107.7a1.3,1.3,0,0,0-.6.6c.4.5.2,10.5,1.6,10.5l35.2.2c1.4-3.7.2-10.3-.8-14.7-.5-.1-34.7,3.1-35.1,3.1Zm26.9,53.6,2,2.3h.6c1.5-5.9,5-23.3,4.4-28.7C310.8,125.8,341.5,140,352.9,161.3ZM165.9,2.4c17.6,13.5,37.2,25.3,50.1,43.9l.3-.2.3.5h.2c.2-.1,9.6-6.5,9.7-7.7C216.1,26.4,207.6,13.1,196,.6H163Zm83.6,49.7h.5l.4-.5c-3.6-5.8-8-14.6-13.3-19.7h-.3c-5.3,4.8-11.1,9.9-17.4,14.6a3.4,3.4,0,0,0-1.8,1.3V48l.5.6-.2.2c4.4,6.4,11.6,14.7,16.9,21.3l.2-.2.2.4h.3c.1-.1.4,0,.9-.5v-.6C238.7,66.3,246.9,55.5,249.5,52.1ZM354,58.6c1.1.1-5.3-15.2-5.9-13.5l-25,31.3c-1.4-1.9,2.2,29.4,2.7,30.7s18.9-1.6,19.9-1.9.1,0,.3-.4c.5-18.4-8-17.2-14.4-23.4,0-.2-.9.4-1.9-.1a1.3,1.3,0,0,1,.9-2c1.4,2,14.8,10.3,15.3,13.1.4,0,12.6-1.9,13-2.1s0,.1.2-.4-1-9.2-1.8-9.6C353.2,82.7,341.9,68.7,338,69c0-.3-.5-.2-.2-1.6l.3-.3a1.4,1.4,0,0,1,1.6.4l.2.8c.2.4,14.4,10.8,15.1,11.5a3.8,3.8,0,0,0,2.2-.6L357,79C356.8,76.3,353.2,61.3,354,58.6ZM271.8,92.5c27.9,22.8,19.5,17.9,29.1,7.7-3.4-3.5-17.8-14-21.9-17.4h-.4c-.8.7-6.6,7.8-7,8.2s.1.1-.1.5S271.5,91.7,271.8,92.5Zm219,58.8c0,.1-.4,0-.6.7s1.2,9.3,2.6,9.6l19.9-4.4-2.4-10.4ZM418.4,281a67.8,67.8,0,0,0-8.8-11.5l-.3.2a1.1,1.1,0,0,0-.9-.7c-.2.2-10.6,6.9-10.8,7.2s15.6,25.1,16.1,25.8h.5c.5-.5,11.4-7.1,11.7-7.7v-.5l-.2-.3.3-.2ZM302.6,250.4l-35.9-21.3,3.3,11.7c11.9,7.8,28.3,12.7,32.9,28.2,1.6-.9,3.9-.7,5.7-3a21.6,21.6,0,0,0-2-4.9l3.3-2.1ZM232,308.8c.1,1,10.1-5.1,10.9-5.3s-8.1-20.6-8.1-21.6l-.3-.2c-.5.1-10.3,4.7-11.1,5.7l8.2,21.1ZM481.7,164.9h-.5c-.1.1-.2.1-.6.8a26.8,26.8,0,0,0,1.3,10.2l.5.3c.1-.2,32.6-7.7,33-7.8l-2.1-9.1-1.7.4-1.9-1.3ZM444.9,202c.1,0-.1.1.1-.4-18.7-28.6-9-18.1-30.1-21.1-2.4-8.9-30.3,18-33.8,19-25.7,18.9-12.5,13.3-2.8,33.2.3,0,0,.1.9-.4l.2.2c34.2-31.9,30.1-23.4,64.9-30.1v-.2ZM475,144.7c-19.3,5.8-46.5,18.9-61.9,32.4,2.1,3.1,3,3.4,7.3,3.1,23.7-1.1,42.1,7.1,63.3,8.4-3.2-12.3-5-31-8.4-43.6Zm11.8-4h-.3c-.1.2-9.9,2.9-10.3,3.4s4,19.7,4.7,20.1,9.6-2.2,10.3-2.3l.2-.2C491.5,161.1,487.1,141.6,486.8,140.7Zm1.2-.7-.5.4c.2.3,1.7,9.4,2.6,10.2s19.3-4.8,20-4.9l-2.6-11.1ZM429.5,326.9c.8.2,12.9-7.3,12.2-8S428.1,296.3,427,295s-12.5,6.9-12.6,8S428.8,326.3,429.5,326.9Zm8.4,48.1.2.2a76.3,76.3,0,0,0,7.4-4.6v-.4c-.3-.5-22.9-37-23.4-37.4H422c-.3.3-6.8,4.3-7.1,4.9S437.1,373.8,437.9,375Zm-56.3-28.2a37.2,37.2,0,0,1,3.3-2.7c-4.1-9.5-13.8-20.4-12.9-32.4-3.9-.9-9-.8-13.6-2.6l-.2.9C363.6,319.5,375.3,337.9,381.6,346.8Zm48.7,33h.4c.3-.3,6.1-3.9,6.6-4.4v-.3c-.8-.8-40.6-66.2-41.7-66.5-12.8-.3-5.2,7.5-5.5,12.9,2.1.2,4.9.5,4.6,1.5C399.5,330.5,429.5,379.2,430.3,379.8Zm-34.5-32.2c2.6-.1,8.5-2.6,10.5-5.3C384.7,305.3,391.1,325.6,395.8,347.6Zm-4.9,11,2,6.6,5.4-1.4s-10.9-52.7-11-52.9c-3.6-1.3-9.7,1.4-14.4.7.3,22.2,9.3,19.6,12.6,32.9l-1.1.8C386.2,347.9,389.5,355.4,390.9,358.6Zm111.2-71s.1,0,.3-.4-8.5-13.6-9.1-13.8-11.4,5.6-12.2,5.9,9.5,15,10,15.7Zm-79.6,97.7h.2a81.2,81.2,0,0,0,7-4.8V380c-.8-1-22-35.8-23.2-36.6h-.2c-1.5,1.2-3.3,2.4-5.7,4C403.9,358.8,417,375.1,422.5,385.3ZM490.4,340h.4l4.7-3.3c-.1,0-21.4-32.5-21.6-32.7s-4.8,2.2-5.4,2.7,21.4,32.8,21.5,33.2ZM524.3,96.1c-18-2.4-26.9-9.1-35.1-7.8l-.7-.2-1-1.4-10.2,19.1L521,129.3l14.8-3.7,1.8-9.5,5.6,1L546.6,99C541,98.6,529.9,97.1,524.3,96.1ZM570,123.4l-11.4-4.3c1.6-3.1,3.7-11.6,4.1-15.5l-1.8-2.9-14.4-1.4-4.8,27.4-7.8,1.8c1.4,6.1,5.9,24.9,7.4,31,9.2-4.5,11.9-23.4,13.2-31.9l5.3.7c1,2.9,9.6,3.8,11.9,4.5ZM335.3,5.5l.6.5c-.2-.1.2.3-1.1.9l-2.3-1.7L335.9.5h-6.2l-1,1.3c.1.3-.3,0,.2,1.2h.1c2.6,2.1,16.8,12.3,19.5,14.3h.6L336,7.7V7l.5-.6,13.1,9.5.7-.9a22.8,22.8,0,0,1,2.3,2.3l-.5.6,8.4,6.7c1.5-2,5.9-6.6,5.6-9.8l1.8.5a118,118,0,0,0,7.4-10c-1.9-1.1-5.2-2.2-7.5-4.6H338.9ZM500.5,258l-5.3-8.1c-.1,0,.1-.1-.8-.3-6.3,4.6-19.3,13.9-25.9,18.2.2.2,3.1,5,3.8,6.1l3.7-2.3c.2.4,4.2,6.1,4.5,6.8s12.5-6.1,13.1-6.1,8.5,14.3,9.8,14.2l11.1-7.2.2-.5C514.5,278.7,500.8,258.4,500.5,258ZM567,180.1l-1.2-8.4a21.7,21.7,0,0,1-4.8-7l-3.5-1c-1.9-3.1-4.2-7.7-6.8-11.1l-1-.2c-.1.3-2.5,3.7-2.9,4.8,4.7,7,9.7,14.6,9.7,24.3a2.2,2.2,0,0,1-.6.9l-1,.2V181c-.1,0,.2.1.7-.4-.1-2.2-.3-8.4-2.2-10.4-.8-.5-12.2,8.7-13.3,9.2l5.3,8.8Zm-67,21.7c10.8-4.7,24.1-11.2,33.5-18.8v-.3a2.8,2.8,0,0,0-.3-.7l-.5.3-5.8-9.1.5-.3-.4-.5c-12.8,7.4-26,16-41.1,20.6-.4,2.4.5,5.9,2.6,8.7.2-.3,8.8-3.1,9.9-3.5ZM214.4,319.7c5.2,16.2,8.3,6.3,13.9,5,14.3-6.1,5.4-7.8,3.7-14.1-.8-.8-16.4,8.8-17.6,9.1Zm-4.5,44.8a82.7,82.7,0,0,0,14.6,18.4c.9-.3,7.9-8.3,8.6-9-10.6-9.2-18.8-25.6-25.2-37.4-.5-.1-9.1,4.4-10,5.2S209.7,363.6,209.9,364.5Zm33-1.3c.6.8,6.8-8.3,7.6-8.9-8.4-7.5-16.9-17.8-22.2-28.7-.2-.2-7.1,3.8-8.1,4.2C225,341.1,233.1,355,242.9,363.2Zm-9.3,10c.5.2,8.7-8.7,8.9-9.2-10.5-7.3-17.5-22.5-23.1-33.1-.3-.3-9.9,4.7-10.4,5.6v.3c6.7,12.1,13.5,27.1,24.6,36.4Zm-20-52.8c-.6-.2-20.5,10.5-21,11.4s4.1,8.1,4.8,9.1,20.2-10.6,21.2-11.5-4.2-8-4.6-8.9ZM.5,206.6c15.7-.9-.8-33.7,0-40.9ZM219.7,314.7l.5.3c.1,0,11.3-5.3,11.1-5.7s-8.2-20.8-8.3-21.3-10.3,4.9-11,5.1S219.2,313.2,219.7,314.7Zm31.5,38.6h.3c.4-.9,7.7-9,7.3-9.8-8.1-5.9-15.1-14.7-21.6-22.8C218,325.2,246.2,348,251.2,353.3Zm27.9-29.4-3.8-10.2-5.8,6.6,6.2,5.4.4-.5,1.4,1.1Zm22.7,2.4,9.1-12,13.6,11.9-1.8-4.5,1.7-2-1.7-1.5-1,.6-16-41c-1.6,1.1-4.8,9.7-5.5,11.3l7.6,4.9-11.9,18.2c.1.6.6,1.7,1.2,3.5a6.5,6.5,0,0,0-3,1.4l.6,2-2.8.5,1.3,4.3-4.1,1.5.6,1.2-1.8.7.4,1.4-1,.4.5,1.4-2.9,1,.3,1.3L282,334c.4,1.1,1.2,3.2,1.8,5.1l-5.8,2.5,2.5,6.8Zm39.9-43.2c1.5,2.4,7.9,12.5,9.1,14.6.1-.3,7.4-15.6,7.5-16.4a36.4,36.4,0,0,1-17.8-16.7l-.9-.2a26.9,26.9,0,0,1-7,4.1C334.8,272,339.3,279.4,341.7,283.1Zm-65.1,44.7-7.6-6.6c-.3-.1-6.3,7.5-6.9,8.1s8.2,7.1,8.7,7.7ZM350,305.1c6.5,2.8,13.2,5.3,21.1,5.7l.4-.4c-2.1-7.9-2.4-19.4-3.8-27.1-2.4.2-5.3-1.7-8.6-1.3C356.7,287.8,350.9,298.9,350,305.1Zm-85.8,41.2,5.9-8.5-8.7-7.6h-.3c-.5.9-6.2,7.4-6.4,8.8A91.3,91.3,0,0,0,264.2,346.3ZM29,195l2.1,6.4c-.8.7-11.6,5.2-11.7,6.3l.9,2.8c1.8-.8,13-6.7,14.7-7.6l-3.5-9.5ZM316.1,405.5l-6.9,22.4c4,10.9,9.6,26.8,13.8,37.7,4.6-3,10.1-1.8,14.7-3.5l1.8,4.9,11.3-3.2-22.8-63Zm3.6-16.7,16.7-50.7-25.2-21.7c-7.1,8.3-49.8,53.4-54.6,60.6-9.6,2.2-17,10.5-22.7,18.6,4.5,13,11.9,33.4,16.1,46.6l15.7-4.6-1.8-5.3,2.2-.8,1.5,4.2,7,4.2c2.7,7.9,8.7,24.9,11.4,32.6l5.8,1.9C300.6,447.5,311.5,416,319.7,388.8Zm84.2,63-6,.9c-.7-15.4-.7-34.2-4.6-49.4l1.1-2.2-.5-1.7,5-1.5a10.8,10.8,0,0,0,.7,2.1l1.4-.4-.3-4-1.8,1.2-30.1-1.4,9.9,68.2,26.3-6.3C404.7,456.3,405.2,453.2,403.9,451.8ZM357.2,349.7l-6.4-13.5c-2.3,1.6-6.6,5-9.4,7l3.2,3.2-5.2,3.4A87.9,87.9,0,0,1,350.8,381l5.4-1,.3,1.8,8.6-1.3C365.3,372.1,360.8,356.9,357.2,349.7ZM18.9,195.7c-.2-1-6.6-32.6-7.3-33.8h-.2c-.6.3-10,.9-10.6,1.7a4.5,4.5,0,0,0,.1.8h.2c.7.8,6.8,36.6,8.5,37.2S17.7,196.4,18.9,195.7ZM223.6,384.1c-.1,0,.2-.1.2-.6-13.1-11.3-23.7-38.4-32.1-51.3l-3.7,1.9c6.4,14.3,14.2,35.7,25.4,47.2l-4.8,1.8c.9,2.8,1.7,8.7,3.6,11.1C214.7,392.3,221,386.5,223.6,384.1Zm-4.7-67.8c0-.1.1.1.3-.8s-6.1-16.7-6.6-17.2l-8.1,2.1-.3.5,1.7,8.8-15.8,8.6-1.4-2.9,1.5-.8-4.6-13.8.8-.2-2.2-7.8c4.8-5.6,12.2-15.1,20.1-16.6-2-5.8-4.2-14.2-10.3-17.9-.3.1-19.4,31.4-19.6,31.7l5.9,17.4h0l8.4,25.1Zm44.7,30.9c-.4,0-2.6-2.9-4.1-3-13.4,17.1-30.2,36.6-47,50.6l3,4.4C231.9,386.1,251.1,363.6,263.6,347.2Zm325-56.2-.9-1.4-3-.6,1-4.5-1.5-.7c1.6-5.1,4.8-15.5,3.6-21.1-.8-.5.3-.5-1.9-1.5l1.3-3.4-2.3-1.3,1.4-3.1-2.9-1.4c1.3-3.3,2.8-8.1,1.9-12.4l-1.7-.6-.6,1.2c-2.4.8-21.5,7.4-23.1,7.8s-6.1-21.1-8-22.1l-.3.4c-3.7,1.7-13.4,4.6-17.4,6l-2.3-7.4,7.3-2.3c-2.9-6-6.5-13.7-9.7-20.1a18,18,0,0,1-4.3,1.5l-1-2.2L505.6,208l1.2,3.8-4.1,1.5-3-4.5-3.6,2.7c13.1,19.1,45.1,66,57.5,84.4L568,286c2.1,1.9,15.1,24.2,17.8,23.7Zm-105,114.2L475.9,393l-10.8,7.3L452.5,380c-8.2,5.3-41.2,26.7-48.3,31l1.5,24.5.8.4,13.9-8.8,8.4,13.2c3.9-2.5,13.8-8.7,17.9-11a7.5,7.5,0,0,1,0,3.1c19.6,4.5,39.5,2.3,49.7-19l-7.3-11.8Zm54.4-4-42.2-63.8c-.2.2-4,2.5-4.9,3.3v.5l2.2,3.4c-.2.6-12.7,7.5-13.6,8.2s-1.3,5.7-.4,8.2l-4.1,8.6c5.7,10.4,15.3,25,21.6,35.1a45.2,45.2,0,0,0,7.7-5.6l7.3,3.6a25.5,25.5,0,0,0,8.2,10.4l.6,4.2c.2.2.7,1.2,1.4,2.3a17.7,17.7,0,0,1-2,1.5l-2.2-3.3c-2.9-.8-9-1-11-3l-2.6,1.8,9.7,15.6L528,426c.1-4.4,5-10.6,8.5-14C536.3,409,534.3,404.5,538,401.2ZM299.6,454.8c-1.5,4.5-3.3,10.4-5,15.5l11.8,3.8C305.9,472.8,300.5,456.4,299.6,454.8ZM39.5,158l-.4-.4c-.9.3-11.5,1-12.5,2.2s5.1,28.2,6.2,28.5S44.2,183.8,45,183,39.9,159,39.5,158ZM211.3,292.5h.3l10.7-5.8c.2-.3-7.3-18.9-7.4-19.5l-.3-.2-10.8,4.6-.2.4,7.5,20.3ZM41.1,157.4l-.2-.2h-.5l-.2.2c.7,1.2,4,25.2,6,24.9L51,180l-4.7-22.7Zm-10,35.5-.9-2.6c-3.3,1.6-10.5,5.8-13.9,7.9a15.3,15.3,0,0,0,.7,2.1l.3.2C17.7,200.9,30.3,193.2,31.1,192.9Zm-1.4,8.4c0-.1-.1.1.4-.6l-1.5-4.9-.4-.2C11.1,202.5,17.1,210.8,29.7,201.3Zm16.7-46.5a5.2,5.2,0,0,0,3.5-4l-6.7-2.6c-.8,2.2-1,2.9-2.1,5.6C43.1,154.4,43.8,155.5,46.4,154.8Zm103.1,51.5.2-.3c0-.3.1-10.6.1-11.1s-5.7-.4-7-.6l3.1,12.1A24.4,24.4,0,0,0,149.5,206.3Zm27.7,66.8c-7.8-8.1-12.2-32.6-15.8-42.3l.9-.4a71.2,71.2,0,0,1-5.3-23.3l-10.4.2c7.4,23.4,17.7,56.2,26.2,79.1l6.7-11.1Zm97.7,39.4c-2.3-6.1-5.6-14.4-7.9-20.8l-10.5,5.8a57.7,57.7,0,0,0,14.4,19.2Zm198.4-94.2-3.5-6.2-.4-.2c-.1.2-13.5,3.4-13.6,3.9s6,8.8,6.6,10Zm-30,99.1.3-.2c0-.1-.1.2.4.7s11.3-5.6,12.6-6.2v-.2c-.8-.5-15.6-25.3-17.1-25.4s-10.4,6.6-10.7,7.1v.4l.3.4-.2.2C433.2,301,439.1,310.4,443.3,317.4Zm47.2-111.1c-.8-.2-18.8,4.7-19.9,5.5s2.9,4.9,3.5,5.9l17.9-9.5A11.2,11.2,0,0,0,490.5,206.3Zm-22.6,99.6s0,.1.4.1l4.8-2.8-17.7-27.3c-.4.5-4.2,2.2-4.7,3.3s17.1,26,17.2,26.4Zm-10.8,5.3c.3.3,10.2-4.4,10.4-5s-16.5-26-17.9-26.5-8.9,5.2-8.7,6.3S456.8,310.6,457.1,311.2Zm29.7-110.7c-1.6-1.1-.6-7.4-3.7-7-.6.8-35.6,8.5-35.5,10.5s6.3,10.7,7.8,11,34.8-8,34.2-10.6A22.2,22.2,0,0,1,486.8,200.5Zm-14.1,63.6a62.3,62.3,0,0,0,9.2-7v-.6c-11.8-16.7-23.8-36.2-36-52.7l-.5.2-.2-.3c-65.1,8.3-46.8,16.5-39,29.5.5.4,15.2-7.1,16.1-7.3l.6.8-4.9,2.2s-.1,0-.1.4,30.9,48.5,32.1,48.6C457.1,273.9,464.9,268.2,472.7,264.1ZM197.7,1v.2c1.4,1.7,3.8,4.3,5.7,6.8a16.9,16.9,0,0,0,4.7-3.7V4c-.1-1.2,3.1-1.1,1.3,1-10.7,2-.1,11.2,3.2,14,.6-.6,13.2-16,13.7-16.7s-.4-.7-1.6-1.7H198ZM449.1,94.4a4.6,4.6,0,0,0-.4-1.3l-.5-.3a174.2,174.2,0,0,0-16.8,15.5c.4.3,18,19.4,19,19.4s10.1-5.2,10.9-5.7l.3-.5c.2-.1-12.6-26.2-12.7-26.6Zm1.5-.5h-.3s-.1,0-.3.4,13.8,28.6,14.4,29.6c5.3.3,9.7-12.5,12-15.6v-.6ZM363.9,44.5,359,41.7l-1.2,1.8-5.4-3L351,42.1l7.9,4.6Zm151.7,84.7c-25.6-15.9-18-10.7-25.7.3-.9.9-18-10-19-9.4s-3.6,3.4-6,4.8c.9,1,8.7,21,9.8,18.8,4-2.3,45-10.8,41.4-14.1Zm-20.9-11.6c-.3-.2-16.3-8.6-17-9.1s-.2-.1-.8.2-5.4,9.8-5.5,10.3C491.4,131.3,490,130.5,494.7,117.6Zm-8.3,73.1v.2a115,115,0,0,0,31-14.5c-.4,0-1.7-5.9-1.9-7-.5.5-33.2,6.8-33.6,8s2.6,13.8,3.4,13.6Zm-3.8,65.6h.3c.6-.5,10.7-6.9,11.1-7.6s-17.2-25-17.4-25.4l-11.1,7.4,16.7,25.5Zm-161.5-11,5.2,1.5,1.1-4.6-1.3-.4,2-6.2,1,.3,3.3-11.2-5.6-1.4C326.4,226,320.6,243.6,321.1,245.3Zm-45.5,28.2-.6-.2-12.2,4.6-.2.7,2,5.3c-.1.2,12.1-6.7,12.4-6.9Zm12.5,5h.2a85.1,85.1,0,0,1,14.5-7.1c-1.6-11-13.9-19.4-23.4-24-4.4.2,8.8,29.8,8.4,30.9Zm-8.3,4.3h.4l7.2-3.8v-.2c-.2-3.7-13.4-29.1-9-31.7-.2-.4-3.7-2.1-4.7-2.7l-1.6,3.1,1.3,2.5-5.4,1.9C268.3,252.2,279.3,282.5,279.8,282.8Zm-41.8,37c.4.1,1.8,3.5,3.3,3.9,6.7-3.2,15.4-10.1,20.4-15.9-1.8-2.4-4.4-7.3-6.2-10.1C227.4,312.1,232.3,308.1,238,319.8Zm3.8,5.3c3.2,4.3,7.4,9.5,12.1,13h.5c3.8-5.1,12-15.3,16.3-20.3a103.1,103.1,0,0,1-8.4-8.9H262a80.7,80.7,0,0,1-20.2,15.6c.1,0-.1.1.1.5ZM369.2,290c2.9,25.9,1.1,21.4,17.3,19.5l.4-.4c-5.2-36.5-.8-25.1-17.7-25.6a1,1,0,0,0-.5.6C368.9,284.5,369.1,288.5,369.2,290Zm18.6,19c.8.6,11.9-1.5,12.4-1.8.9-7.1-6.1-19-14.5-13.6-.1.2,2.1,14.6,2.2,15.4Zm26.4,28h.2c.5-.3,6.5-4.2,7.4-5v-.2c-21.4-32.2-11.3-24.7-25.1-23.3l-.2.2v.4C396.7,309.3,413.9,336.7,414.2,337Zm8.2-5.4h.2c10.9-5.4,3.7-5.6-2.3-17.7-8.5-13.3-4.4-11.3-13.6-7.5-.1.6,15.5,24.6,15.7,25.1ZM327,268.3c14.6-4.1,28.8-18.2,40.6-27.6l-.2-.2c-.1,0,.3-.3.3-.8a128,128,0,0,1-18.2-15.9c-12,8.5-19.2,27.5-26.3,38.9C323.9,263.5,325.8,267.3,327,268.3Zm13.9-4.6c4.1,6.6,9.3,14.4,17.9,16.6,8.5-20.5,13.1-22.1,4.4-33.4l-.5-.2c-1.6.9-21.6,15.1-22.1,16.3S340.4,263,340.9,263.7ZM360,281.1c6.3,2.6,15.4,1.8,22.5.3,0,0,.2-.1.4-.7-1.2-9.7-4.2-25.4-2.7-33.3l.2-.3c-2.1-1.2-6.2-3.6-8.5-5.2l-.4.3c.1.2-.4-.6-1-.6l-.4.3-.3-.3c-1.4,1.3-4.1,2-5.6,4.4,11.6,12.5-1.7,23.5-4,34.6ZM188.5,104.7l.3.2c.9-.1,44.3,2.2,45.2,1.9,2.7-1.1-17.1-22.2-17.2-23.1h-.2l-.2.2c-.6.1-26.2-1.2-27.1-.9C189.1,88,188.2,99.4,188.5,104.7Zm.4-25.4c.2.4-.1,1.4.5,2.8s25.4,1,26.5,1.2,2.4-27.3.3-26.1c-.6.7-27.7,16.5-28,17.8S188.9,77,188.9,79.3Zm75.7,26,16.2,19.2.2-.2.2.3h.3c1-1,10.9-13.1,11.2-14.2h-.1v-.2c-.2,0-12.7-10.2-13.2-10.6h-.6c-.4.2-6.2,7.9-7,8.8s.6,1.9-.7,2.6,0,.2-.9-.2-.2-.1-.4-.8,8.6-10.1,8.3-11.1c-10-9.2-26.8-24-37.8-32.6-.9-.1-3.3,3.9-4.4,5a.4.4,0,0,1,.1.3l.5.6-.2.2C245,83.4,255,94.1,264.6,105.3Zm-254,55.5.5-.2c-.7-6.2-1.1-21-10.7-20.5v22.2C1.3,162.1,9.8,161.2,10.6,160.8Zm262.3-21.1c1.2,2.1,10.7,9,12.7,10.7.3-1.1,8.9-4.8,6.2-6.7l.2-.2-10.2-12.9-.2.2c-.1.1,0-.2-.6-.4S273.5,139.5,272.9,139.7ZM33.5,151l1.8.7a55.1,55.1,0,0,0,2.6-7.5c-8.3-3-22.7-8.3-30.8-12.1l-1,1.6L.5,130.8v8.6c6.6,1.8,25.4,8.8,31.8,11.7Zm216.6,18.6h-.3c-6.5,6.7-12.5,16-17.5,24.5a89.5,89.5,0,0,0,10.6,6.2c4.3-7.1,10.3-16.1,16.1-22.7C258.8,176.9,251.2,170.3,250.1,169.6Zm-49.2,21.6c-2.6-1.2-11.6-2.3-14.4-2.7.5,2.2-2.9,9,1.8,8.1,10.9.2,21.8,9.7,31.1,13.9a9.6,9.6,0,0,0,1.2-1.8c.1-.2-2.5-7.1-2.9-8.2C215.7,199.4,202.1,191.2,200.9,191.2ZM226,187c-3.9,1.3-9.9,1.4-14.5,1.1v3.1l8.5,5.1-.4.7,5.8,3.8,12.3-19.9A55.6,55.6,0,0,1,226,187Zm-40.5,10.7c-1.7,1.8,8.4,27.9,10.3,25.4.6-.6,10.8-17.4,11.4-18.2v-.3c-6-4.1-13.3-7.2-21.4-7.1Zm80.3-48.3c-1-.1-14.4,18.1-15.4,18.8v.4c0,.3,8.6,8.1,9.3,8.2s16.1-18.1,16.3-19.1l-10.2-8.3ZM4.9,107.4c6.1-2.8-.6-15.9-4.4-21v22Zm267.5,33.3c-.4,0-5.7,7.2-6.2,7.6s10.2,9.1,10.9,8.8C292.6,148.4,276.8,146.9,272.4,140.7ZM119.3,49.4c.4-.4,9-10.1,9.5-10.8v-.3A76,76,0,0,1,108.7,9.4c-.2,0-.1-.1-.7.2l-.2-.3c-3.8,1.3-9,3.1-13.6,5.1v.3c.1,0-.7.3-.9.9A71.8,71.8,0,0,0,119.3,49.4Zm10.2-11.8c1.8-1.6,8.5-9.9,10.2-11.6v-.6a53.5,53.5,0,0,1-13-21.6l-.3-.2c-.2,0-.2-.1-.8.2l-.2-.3a140.2,140.2,0,0,0-15.1,5v.3a1.9,1.9,0,0,1-.8.2C113.5,19.2,120.2,29.9,129.5,37.6Zm-11,12.8c-10.4-9.1-21.1-20.3-25.9-34.8-.2,0-.1-.1-.7.2l-.2-.3c-2.9,1.4-11.3,6.6-14,8.4l.2.3c-.2.3-.9.1-.3,1.2l-.3.2c8,13.4,25.9,18.2,38,28l.2-.2.3.2ZM31.3,21.5C51,32,44.6,28,52.8,16.9v-.5c-.6-.4-14.9-8.7-15.6-8.7S31.3,19.5,30.9,21,30.9,21.1,31.3,21.5ZM196.9,259.6c2.6,1.4,5.1,7.3,6.2,11l11.2-4.9.2-.3c-2.3-6.4-6.5-15.7-13.1-19.2,0,.1-.1-.1-.7.1L194.3,257v.3A27.1,27.1,0,0,0,196.9,259.6Z" transform="translate(0.8 2.3)"/>
    <path id="grop" class="cls-2" d="M184.4,67.7l-.4.2,3.5,5.4c.5-.3,30.2-18.2,30.9-18.5v-.6c-7.7-13-21.1-25.4-33-33.7l-.2.2-.6-.5h-.4c-.1.1,0-.1-.7.3-4,8.7-9.2,20-14.6,28.3v.7l1.3,1.1,1.4.7a40.6,40.6,0,0,1,2.7-4.7l1.1-.6,1.1-.2,5.3,3c2.8-2.9,9.7-9,12.9-11.8l14,15.7C204.2,55.8,189.3,64.7,184.4,67.7ZM138.2,79.5l-.4-.4.2-.2c-4.4-4.6-9-10.3-14.1-15l-.2.2-.5-.4h-.4c-.7.8-22.5,21.2-23.2,22.2l-.2.5v.4c2.1,2.4,6.9,6.9,9.3,9.5l-1,1-.5-.5-.5.6-.2-.2-.5.5-.7-.7V94.7C95.6,82.9,95.7,89,84.7,81.8h-.5c-.6.7-2.8,2.4-3.3,4.2V96.2H79.1V95.2l.7-.8.4-.7V86a15.6,15.6,0,0,1,.6-1.8L81,84c.4-.8,1.2-1.3,2.6-2.8v-.7c-1.8-1.8-5.7-5.6-7.3-7.5l-.7-.2H66.8l-.3.3V84.3l.7,1.2.4.3h.2l.2.2v.8l-.3.2H65.9l-.2-.2V73H57l-.6-.4c0-.1.1.1-.4-.6V70h2.1c.4.2.7.8,1.8,1.6H74.6l.5-.4.2-.5a10.7,10.7,0,0,1-.2-2.1h-.7V62.2H75V62c.2-3.2-.5-9,.7-12A12.6,12.6,0,0,1,78,47.2l-.4-.5,4.1-4.2.5.6a22.7,22.7,0,0,0,3.3-5v-.3l-.5-.3.2-.2a33.8,33.8,0,0,1-9.8-10.6l-.2.2-.2-.4-.2-.2h-.3l-.8.4v-.2A190.5,190.5,0,0,1,55.1,36.9l.2.2-.6.2h-.1V38a14.7,14.7,0,0,1,2.2,6.9c.1,0,0,.3.7.7l1,.4c0,.1.1-.1.4.5l.2.6v.6l-.2.6-.4.4-.6.3H56c0-3.4.2-6.2-2.2-10.2l-.2-.2v-.2l-.2-.2-1.3.6v-.2A226.1,226.1,0,0,0,28.6,52.8l.2.2-.5.4-.3-.3c-3.3,2.5-9,5.7-12.7,8.5l.2.2-.5.4h0a1.6,1.6,0,0,0,.2.5l1.3,1.6c.5.9,1.4,2.3,2.6,4.1h.2c1.2,1.8,3.2,3.3,3.8,6.4H23l.2,1.3.2.2c-.1.9-.3,3.7-.5,5.5l-.2.2L22.5,84h.1c0,2-.4,4.9,2.2,7.5l.2.4c1.3,1.3,3.8,2,6.6,2.2h1.8v-.2h6.2c0,.1.3,0,.7.7v.6L40,96h-.8l-.5-.2-1.5-1h-.5c-3-.1-6.4.4-10.2-.9-.3-.3-.4-.1-2.2-1.3L22.5,90c-1.7-7.9,2.6-17.2-8.5-26.8h-.4l-.6.3v-.2L.5,71.5V85.2c3.2,6.1,11.5,15.1,5.3,22.7-.7.3-3.5.9-5.2,1.3v14.2c11,6.1,26.5,10.9,38.4,15.7l.2-.2.6.2H40l.4-.4.8-2.2-.6-.2,3.3-8.5.6.2c1.3-3,2.3-7.3,6.3-9.7,15.5-3.6,29.1,13.7,43.8,17.5h.8l.2-.6h.2c1.2-3.1,3-7.8,4.6-11.3h-.2l.2-.6.2-.2h.2a63.7,63.7,0,0,1,6.1-10.2l-.2-.2.4-.7.3.2c8.4-10.5,21.7-21.9,30.6-31.7l-.2-.2.4-.4Zm-36.9,46.7c-2.3,5.4-7,17.3-9.1,23.1v.2l.2.2c10.3,4.3,24.8-2,35.4-3l-2-9.1c-3.9-2.3-10.6-3.4-14.5-7.6l-9.8-3.8Zm33.6-3.6v.3a2.3,2.3,0,0,1-.7.6h-.3c-2.5-.2-11.5.5-13.8-.4l-.2.4-.2,3.7,3.8.6.6,2c1.9.7,12,.5,13.9.6l.7-8.2h-3.8v.2Zm10,9.5c-.1,8.6-1.7,21.6-2.5,30,10.1,6.3,16.9,18.2,29.8,20.6,24.8,3.3,52.5,9.2,66.5-3.6,10.8-15.1,28-35.9,39.6-50.6l-.4-1.5-15.2-18H262l-1.3.9a13.3,13.3,0,0,1-4.5,1.2c-25.3-2.7-60.8-2.1-86-5.4-11.4-3-21.7-15-29-22.5l-1.3-.8c-9.7,9.3-22.1,19.3-30.6,30l.2.2-.6.6c3.3,3,7,7.7,12,9.6a62.4,62.4,0,0,0,10.7.1,3.7,3.7,0,0,0,1.4-1.3l.5-.2-1.4-3.4,3.8-3.1,1-4.8v-6.5l9.1.3.5,17.3-1.7.2v10.8ZM65.3,162.5l-2.2,5.7,1.8,6.6a76.6,76.6,0,0,0,14.2-3.7l2.1-1.4,1.4-2L85,162l-17.3-6Zm29.2-25.3.2-.5v-.2l-.4-.4c-16.5-4.2-30.4-22.2-44.1-16.8-3.7,2.4-7.5,15.3-9.3,19.4l-.2.3v.4l.4.5c1.8.7,43.8,16.7,45.3,17.4l.8-.2.3-.3c.3-.4,7.1-18.8,7.4-19.5Zm30.8,11.2c-10.7,1.5-22.3,6.3-33.4,2.7h-.2l-.2.2c-.1.4-2.1,4.9-2.4,6.1v.7l.2.3a37.8,37.8,0,0,1,7.2,3.9c10.6,1.6,20.3-6.1,32-5.1l-.6-9.5ZM3.2,20c5,9.7,12.7,24.6,19.5,33.3A303.1,303.1,0,0,1,51.4,35.6l.2-.3v-.4a3.7,3.7,0,0,1-.4-.9c-.9-3.2-17.8-10.1-20.5-11.8h-.6c-1.6,2.9-1.4,5.9-5.3,8.3l-1.3.4a35.2,35.2,0,0,1-7.2-.1,7.8,7.8,0,0,1-2-1c-.1-.2-.1.2-1.4-1.6C10.4,21.8,10.6,7.8,10.7.5H.5V13.3ZM139.9,77.1l.4.4h.2l.5-.4.2.2c14.1-12.6,26.7-27.1,34.4-45.1l.4-.3v-.6l-.3-.5c-2.4-1.2-4.8-1.7-7.4-4.1h-.8c-.8,1.1-8.5,7.6-8.8,9.3v3.4h-2.1v-3c.1-.1-.1,0,.3-.7l9.8-9.9s0,.1.2-.4a1.6,1.6,0,0,0-.2-.5c-2.9-2.6-4.5-5.2-8.4-7.2-.5-.5-11.5-.2-12.4-.2l-.5.3-.2.3c-4.8,13.2-20.2,23.9-28,35.9v.4l.5.5-.2.2,6.8,5.5h.3l.3-.2c3.2-3.7,9.3-9.4,12.5-13.5v-.4a1.8,1.8,0,0,1,.6-.7,2.4,2.4,0,0,1,.8-.3h.9v2.4h-1.3l-.7.2L125.6,61.3v.2h-.1v.2l.5.5-.2.2c3.5,3.1,11.1,11.5,14.2,14.8ZM141.4,1h0v.3c-2.9,3.4-6.4,7.9-9.6,11.9v.2l.2.8a60.4,60.4,0,0,0,8,10.4h.6a12.7,12.7,0,0,0,3.3-5.3c0-.5,0-.8.1-2.6h.3c2,.3,12.7-.6,14.9.5,5.5,3.2,9.5,10.5,16.7,12.6h.3l.5-.2.2-.2c1.1-3.3,3.3-8.1,3.9-11.9V17l-.2-.4C174.4,11.7,167.3,6.2,160,1.9l-.2-.2-.4-.7-.9-.5H141Zm-5.8.4c-1.9.3-4.8.8-7.4,1.4v.3h-.6l-.3.3v.3a64.7,64.7,0,0,0,3.5,8.2l.2.2h.5l.3-.2c1.8-2.2,4.5-5.5,6.6-8.4a1.6,1.6,0,0,1,.2-.5V2.1l.3-.6,1.7-.8h-1.9l-2,.6ZM92.3,12l.2.2h.6c4-2.1,9.2-3.7,14-5.6l.4-.4V6.1h0A51.6,51.6,0,0,0,104.7.5h-22c3.2,2.6,7.6,6,9.3,11.2Zm25,46c-6.4-5.5-21.7-14.4-29-18.8l-.2.2-.4-.2h-.4c-2.4,2.5-7,7.1-9.9,10.2a8,8,0,0,0-1.2,3.2c.3,2.5-.5,16.2.4,18.7l.2.3c4,7,12,12.7,20.7,14.4h.6c.1-.1-.2.2,1-.5l23-22.1V63l-.5-.5.2-.2ZM13.2,25.8l.4,1.5.7,1.1.8.7,1.3.6a27.6,27.6,0,0,0,7.7.1l1-.5c1,.1,13.5-27.9,14.1-28.8H11.7C11.5,6.8,11.6,19.6,13.2,25.8ZM1,32.1l-.5-1V37H3.7A46.6,46.6,0,0,1,1,32.1ZM62.2,3v.7c3.1,2.8,9.7,13.4,12,17.2l.2-.2.3.5h.6l.4-.3.2.2c2.6-1.9,11.4-6.2,14.5-7.6.1,0-.1-.1.5-.4v-.6c-.4-1.4-1.2-2.6-2.8-5.5A43.9,43.9,0,0,0,81,.5H63.7ZM72.4,23.3a3.7,3.7,0,0,0-.4-.9l.2-.2c-3.5-5-6-10.6-10.4-15.7l-.5-.4h-.6l-.3.2c-.1.3-13.2,21.7-13.5,22.3v.3l.2.2A16.2,16.2,0,0,1,52,33l.7,1.3.4.2h.4c4.2-2.3,14.7-7.7,18.6-10.6v-.2l.3-.3v-.2ZM106.8,2.6l1.5,3.1.4.4h.4C113.4,4.6,120,2.4,124.8.9l.2-.2V.5H105.5Z" transform="translate(0.8 2.3)"/>
    <polygon id="wasser" class="cls-3" points="617.6 102.2 615.6 102.1 597.9 100.5 596.8 99.9 595.9 99.9 595.4 100 579.8 98.6 578.4 98.7 577.9 98.6 575.3 98.6 570.8 97.9 569 98.1 567.7 97.8 566.9 97.4 558.9 96.6 554.2 95.1 546.5 94.2 546.2 94.6 545.4 94.6 532.8 93.1 522.5 91.5 511.8 89.1 495.1 84 493.1 82.6 490.4 82.2 476.7 75.7 455.3 63 438.5 49.8 388.2 9.9 386.3 8.9 377.7 2.3 368.1 2.3 372.2 5.6 375.3 6.7 382.1 12.1 383.8 14.8 452.9 69.4 461.5 74.6 462.6 79.6 463.7 80.2 469.9 79.5 478.1 83.5 487.6 87.8 488.4 89.1 489.3 90.4 490 90.6 492 90 492.9 90 506.1 94 517.4 96.9 525.1 98.4 535.8 100.1 547.3 101.5 562 102.5 563.3 102.2 572.3 102.9 575 103.5 579 103.8 581.2 104.2 590.6 105 591.7 104.8 594.5 104.2 617.3 106.3 627.7 107.2 628.3 108.2 628.5 108.5 629 110.6 629.3 110.5 629.7 110.5 630.7 108.4 630.8 108.3 630.8 103.3 617.6 102.2"/>
    <path id="mauer" class="cls-4" d="M.5,223.5l41.3-16.1L103,177l27.8,11.1L235.5,504.8l273-57,27.8-11.1,5.6-5.6,38.9-50,27.8-38.9V281.1l-11.1-27.8L591.9,220,564,147.8l16.7-38.9L558.5,97.8,497.4,81.1,390.5.5" transform="translate(0.8 2.3)"/>
  </g>
  <g id="label">
    <polyline id="line" class="cls-5" points="189.3 602.6 189.3 612.7 73.6 612.7 73.6 602.6"/>
    <path id="mille" d="M18.4,610.2H17.2v-7.3H14.5v-1c1.4,0,2.7-.4,2.9-1.9h.9v10.2ZM25.3,600c3.2,0,3.4,2.9,3.4,5.2s-.2,5.2-3.4,5.2-3.4-2.9-3.4-5.2S22.1,600,25.3,600Zm0,9.3c2.1,0,2.1-2.6,2.1-4.1s0-4.1-2.1-4.1-2.1,2.6-2.1,4.1S23.2,609.3,25.3,609.3Zm8-9.3c3.2,0,3.4,2.9,3.4,5.2s-.2,5.2-3.4,5.2-3.4-2.9-3.4-5.2S30.1,600,33.3,600Zm0,9.3c2.1,0,2.1-2.6,2.1-4.1s0-4.1-2.1-4.1-2.1,2.6-2.1,4.1S31.2,609.3,33.3,609.3Zm8-9.3c3.2,0,3.4,2.9,3.4,5.2s-.2,5.2-3.4,5.2-3.4-2.9-3.4-5.2S38.1,600,41.3,600Zm0,9.3c2.1,0,2.1-2.6,2.1-4.1s0-4.1-2.1-4.1-2.1,2.6-2.1,4.1S39.2,609.3,41.3,609.3Zm9-6.5h1.2v1.1h0a2.8,2.8,0,0,1,2.4-1.3,2,2,0,0,1,2.1,1.3,2.8,2.8,0,0,1,2.3-1.3c1.5,0,2.5.6,2.5,2.2v5.5H59.6v-4.9c0-.9-.2-1.7-1.4-1.7a1.7,1.7,0,0,0-1.9,1.7v4.9H55.1v-4.9c0-1-.3-1.7-1.4-1.7a2,2,0,0,0-2,1.9v4.7H50.5v-7.5Z" transform="translate(0.8 2.3)"/>
  </g>
  <polygon id="place" class="cls-6" points="232.8 466.3 241.8 496.3 295.8 486.3 293.8 480.3 232.8 466.3"/>
  <g id="home" class="startM">
    <path class="cls-7" d="M220.4,111.3a17.5,17.5,0,0,0-3.4-5.1,16.1,16.1,0,0,0-11.3-4.7,15.5,15.5,0,0,0-6.3,1.3,17.5,17.5,0,0,0-5.1,3.4,16.1,16.1,0,0,0,6.3,26.6l1.7,5.7,1.8,6h3l1.8-6,1.7-5.7a16.1,16.1,0,0,0,10-9.6A15.8,15.8,0,0,0,220.4,111.3Z" transform="translate(0.8 2.3)"/>
    <path class="cls-8" d="M219.2,114.1a13.7,13.7,0,0,0-3.7-6.5,14,14,0,1,0-13.3,23.5l2.1,6.8,1.4,4.5,1.4-4.5,2.1-6.8A14.1,14.1,0,0,0,219.2,114.1Z" transform="translate(0.8 2.3)"/>
    <path class="cls-9" d="M205.6,112.3l6.2,6.2v6.1h-4.5v-4.3h-3.4v4.3h-4.5v-6.1Zm0-3.8-3.9,3.8v-2h-2.1v4l-2.9,2.8,2.2,1.1,6.6-7,6.7,7,2.2-1.1Z" transform="translate(0.8 2.3)"/>
  </g>
  <g id="marker">
    <path class="cls-7" d="M279.8,443.4a18.4,18.4,0,0,0-3.7-5.5,17.3,17.3,0,0,0-24.4,24.4,17.7,17.7,0,0,0,6.8,4.2l1.9,6.2,2,6.5h3.3l2-6.5,1.9-6.2a17.3,17.3,0,0,0,10.9-21.9A3.7,3.7,0,0,1,279.8,443.4Z" transform="translate(0.8 2.3)"/>
    <path class="cls-8" d="M278.5,446.4a15.1,15.1,0,1,0-18.3,18.3l2.2,7.3,1.5,4.9,1.5-4.9,2.2-7.3a15.1,15.1,0,0,0,10.9-18.3Z" transform="translate(0.8 2.3)"/>
    <path class="cls-9" d="M262.1,450.1l-6.2-3.6.9-1.5,6.2,3.6v-7.1h1.7v7.1l6.2-3.6.9,1.5-6.2,3.6,6.2,3.6-.9,1.5-6.2-3.6v7.1H263v-7.1l-6.2,3.6-.9-1.5Z" transform="translate(0.8 2.3)"/>
  </g>
	
<polyline id="trail" class="cls-10" points="201.2 151.8 184.3 151.8 184.3 165.1 163.8 165.1 141.2 185.6 230.9 452.6"  mask="url(#mask)"/>
	
  <g id="text">
    <g id="westT">
      <rect class="cls-11" x="40.3" y="52.4" width="92" height="26.6"/>
      <rect class="cls-8" x="41.3" y="53.4" width="90" height="24.6"/>
      <path class="cls-9" d="M49.1,57.2h1.8l1.8,7.6h0l2-7.6h1.8l2,7.6h0l1.9-7.6h1.7l-2.7,10H57.6l-2-7.7h0l-2.1,7.7H51.7ZM64,64a2,2,0,0,0,2,2.1,1.7,1.7,0,0,0,1.8-1.2h1.5A3.2,3.2,0,0,1,66,67.4a3.5,3.5,0,0,1-3.6-3.8,3.6,3.6,0,0,1,3.5-3.8A3.6,3.6,0,0,1,69.4,64Zm3.8-1.1a1.9,1.9,0,1,0-3.8,0Zm4,2c.1.9.8,1.2,1.6,1.2s1.7-.1,1.6-.9-1.2-1-2.3-1.2-2.4-.7-2.4-2.2,1.8-2,3.1-2,2.8.6,3,2.2H74.7c-.1-.8-.7-1-1.4-1s-1.4.1-1.4.8,1.2.9,2.4,1.1,2.3.7,2.3,2.1-1.7,2.4-3.2,2.4-3.2-.8-3.2-2.5ZM77.1,60h1.2V57.8h1.6V60h1.5v1.1H79.9V65c0,.7.1,1,.8,1h.7v1.3H80.3c-1.6,0-2-.7-2-1.9V61.1H77.1Zm9.5-2.8h4.9c1.8,0,3,.8,3,2.5A2.3,2.3,0,0,1,93,61.8h0a2.4,2.4,0,0,1,1.9,2.6c0,1.6-1.1,2.8-3.7,2.8H86.6Zm1.8,4.2h2.8A1.3,1.3,0,0,0,92.7,60c0-1-.5-1.4-1.5-1.4H88.4Zm0,4.4h3.1a1.6,1.6,0,1,0,0-3.2H88.4ZM97.5,64a1.9,1.9,0,0,0,1.9,2.1,1.7,1.7,0,0,0,1.8-1.2h1.5a3.2,3.2,0,0,1-3.3,2.5c-2.2,0-3.5-1.6-3.5-3.8a3.5,3.5,0,1,1,6.9.4Zm3.7-1.1A1.8,1.8,0,0,0,99.4,61a1.9,1.9,0,0,0-1.9,1.9ZM104,60h1.5v1.4h.1a2.2,2.2,0,0,1,2.1-1.6h.6v1.5h-.7a2.1,2.1,0,0,0-2,2.4v3.5H104Zm5-2.8h1.6v10H109Zm3.4,0H114v1.5h-1.6Zm0,2.8H114v7.2h-1.6Zm3.3,0h1.5v1h.1a2.4,2.4,0,0,1,2.2-1.2c1.6,0,2.6.8,2.6,2.4v5h-1.6V62.6c-.1-1.1-.5-1.6-1.4-1.6a1.8,1.8,0,0,0-1.8,1.9v4.3h-1.6Z" transform="translate(0.8 2.3)"/>
    </g>
    <g id="eastT">
      <rect class="cls-11" x="40.3" y="507.7" width="92" height="26.6"/>
      <rect class="cls-8" x="41.3" y="508.7" width="90" height="24.6"/>
      <path class="cls-9" d="M51.6,512.4h7.2v1.5H53.4v2.7h5V518h-5v2.9h5.5v1.5H51.6Zm14.7,8.4c0,.4.1.6.4.6h.4v1.1l-1,.2a1.1,1.1,0,0,1-1.3-.9,3.2,3.2,0,0,1-2.5.9,2.2,2.2,0,0,1-2.5-2.1c0-1.8,1.5-2.1,2.8-2.2s2.2-.1,2.2-1.1-.9-1-1.5-1-1.5.4-1.6,1.2H60.1c.1-1.9,1.7-2.4,3.3-2.4s2.9.6,2.9,2.1Zm-1.6-2a5.9,5.9,0,0,1-2,.4c-.6.1-1.3.4-1.3,1.2s.9,1,1.5,1,1.8-.4,1.8-1.4Zm4.5,1.3a1.5,1.5,0,0,0,1.7,1.3c.6,0,1.6-.2,1.6-1s-1.2-.9-2.4-1.2-2.3-.7-2.3-2.1,1.7-2.1,3-2.1,2.8.6,3,2.2H72.2a1.4,1.4,0,0,0-1.5-1c-.5,0-1.3.2-1.3.8s1.2.9,2.3,1.2,2.4.6,2.4,2.1-1.8,2.3-3.3,2.3-3.1-.8-3.2-2.5Zm5.4-4.9h1.2V513h1.6v2.2h1.4v1.2H77.4v3.8c0,.7,0,1,.7,1h.7v1.2h-1c-1.7,0-2-.6-2-1.9v-4.2H74.6Zm9.5-2.8h4.8c1.8,0,3,.8,3,2.5a2.2,2.2,0,0,1-1.4,2.1h0a2.3,2.3,0,0,1,1.8,2.5c0,1.6-1.1,2.8-3.6,2.8H84.1Zm1.7,4.2h2.9a1.3,1.3,0,0,0,1.4-1.4c0-1-.5-1.3-1.4-1.3H85.8Zm0,4.4h3.1a1.5,1.5,0,0,0,1.7-1.6c0-1-.6-1.5-1.7-1.5H85.8Zm9.1-1.8a2,2,0,0,0,2,2.2,1.7,1.7,0,0,0,1.8-1.2h1.5a3.3,3.3,0,0,1-3.3,2.4,3.5,3.5,0,0,1-3.6-3.8,3.5,3.5,0,1,1,7,.4Zm3.8-1a2.1,2.1,0,0,0-1.9-2,2,2,0,0,0-1.9,2Zm2.8-3H103v1.4h0a2.3,2.3,0,0,1,2.1-1.6h.6v1.6H105c-1.1,0-1.9.9-1.9,2.5v3.4h-1.6Zm4.9-2.8H108v10h-1.6Zm3.4,0h1.6v1.5h-1.6Zm0,2.8h1.6v7.2h-1.6Zm3.4,0h1.5v1h0a2.6,2.6,0,0,1,2.2-1.3,2.3,2.3,0,0,1,2.6,2.5v4.9h-1.6v-4.5c0-1.2-.5-1.7-1.4-1.7a1.8,1.8,0,0,0-1.8,2v4.2h-1.5Z" transform="translate(0.8 2.3)"/>
    </g>
    <g id="rudowT">
      <polygon class="cls-11" points="333.3 204.4 333.3 231 372.1 231 379.3 243.4 386.5 231 425.3 231 425.3 204.4 333.3 204.4"/>
      <polygon class="cls-8" points="424.3 205.4 334.3 205.4 334.3 230 372.7 230 379.3 241.4 385.9 230 424.3 230 424.3 205.4"/>
      <path class="cls-9" d="M356.3,209.1h4.8c2.2,0,3.3,1,3.3,2.7a2.4,2.4,0,0,1-1.7,2.5h0c.6.1,1.5.5,1.5,2.1a4.3,4.3,0,0,0,.6,2.6h-1.9a2.5,2.5,0,0,1-.3-1.5c0-1.8-.4-2.6-2-2.6H358v4.1h-1.7Zm1.7,4.6h2.9a1.5,1.5,0,0,0,1.7-1.6c0-1.3-.8-1.6-1.7-1.6H358Zm14.3,5.4h-1.6v-1h0a2.6,2.6,0,0,1-2.1,1.2c-1.9,0-2.7-.9-2.7-2.8v-4.6h1.6v4.4c0,1.3.5,1.8,1.4,1.8s1.8-.9,1.8-2v-4.2h1.6Zm8.5,0h-1.5v-1h-.1a2.2,2.2,0,0,1-2.2,1.2c-2.3,0-3.4-1.7-3.4-3.9s1.6-3.7,3.2-3.7a2.8,2.8,0,0,1,2.4,1.1h0v-3.7h1.6Zm-3.6-1c1.4,0,2-1.4,2-2.6s-.7-2.6-2-2.6-2,1.4-2,2.7S375.8,218.1,377.2,218.1Zm5-2.6a3.7,3.7,0,1,1,3.6,3.8A3.5,3.5,0,0,1,382.2,215.5Zm5.7,0c0-1.3-.6-2.6-2.1-2.6s-2,1.3-2,2.6.6,2.6,2,2.6S387.9,216.7,387.9,215.5Zm2.3-3.6h1.7l1.4,5.4h0l1.4-5.4h1.6l1.3,5.4h0l1.5-5.4h1.6l-2.3,7.2h-1.6l-1.4-5.4h0l-1.3,5.4h-1.7Z" transform="translate(0.8 2.3)"/>
    </g>
    <g id="grop-2" data-name="grop">
      <polygon class="cls-11" points="267.4 108.4 260.2 121 252.9 108.4 241.2 108.4 241.2 81.8 347 81.8 347 108.4 267.4 108.4"/>
      <polygon class="cls-8" points="266.8 107.4 260.2 119 253.5 107.4 242.2 107.4 242.2 82.8 346 82.8 346 107.4 266.8 107.4"/>
      <path class="cls-9" d="M261.1,97H260l-.3-1.2a3.6,3.6,0,0,1-3,1.5c-3,0-4.8-2.4-4.8-5.3s1.8-5.2,4.8-5.2,4,1.1,4.3,3.4h-1.7a2.4,2.4,0,0,0-2.6-2c-2.1,0-3,1.9-3,3.8s.9,3.8,3,3.8a2.5,2.5,0,0,0,2.8-2.7h-2.6V91.8h4.2Zm1.7-7.2h1.5v1.4h0a2.4,2.4,0,0,1,2.1-1.6h.6v1.6h-.6c-1.1,0-2,.9-2,2.5V97h-1.6Zm4.3,3.6a3.5,3.5,0,0,1,3.7-3.8,3.8,3.8,0,0,1,0,7.6A3.5,3.5,0,0,1,267.1,93.4Zm5.7,0c0-1.2-.6-2.6-2-2.6s-2.1,1.4-2.1,2.6.7,2.6,2.1,2.6S272.8,94.7,272.8,93.4Zm3-3.6h1.5v1h.1a2.2,2.2,0,0,1,2.2-1.2c2.3,0,3.4,1.7,3.4,3.8s-1,3.8-3.1,3.8a2.8,2.8,0,0,1-2.5-1.1h0v3.6h-1.6Zm3.6,1c-1.4,0-2,1.1-2,2.6s.7,2.6,2,2.6,2-1.3,2-2.6S280.7,90.8,279.4,90.8Zm5-3.8H286v1.5h-1.6Zm0,2.8H286V97h-1.6Zm9.7,7.2h-1.6V96h0a2.6,2.6,0,0,1-2.1,1.2c-1.9,0-2.7-.9-2.7-2.8V89.8h1.6v4.4c0,1.3.5,1.8,1.4,1.8s1.8-.9,1.8-2V89.8h1.6Zm2.8-2.3a1.5,1.5,0,0,0,1.7,1.3c.6,0,1.6-.2,1.6-1s-1.2-.9-2.4-1.2-2.3-.7-2.3-2.1,1.7-2.1,3-2.1,2.9.6,3,2.2h-1.6a1.4,1.4,0,0,0-1.5-1c-.5,0-1.3.2-1.3.8s1.2.9,2.3,1.2,2.4.6,2.4,2.1-1.8,2.3-3.3,2.3-3.1-.8-3.2-2.5Zm7.3,0a1.5,1.5,0,0,0,1.6,1.3c.6,0,1.7-.2,1.7-1s-1.2-.9-2.4-1.2-2.3-.7-2.3-2.1,1.7-2.1,3-2.1,2.8.6,3,2.2h-1.7a1.2,1.2,0,0,0-1.4-1c-.5,0-1.3.2-1.3.8s1.1.9,2.3,1.2,2.4.6,2.4,2.1-1.8,2.3-3.3,2.3-3.2-.8-3.2-2.5Zm5.3-4.9h1.2V87.6h1.6v2.2h1.5V91h-1.5v3.8c0,.7.1,1,.8,1h.7V97h-1.1c-1.6,0-1.9-.6-2-1.9V91h-1.2ZM321,95.4c0,.4.1.6.4.6h.4V97l-1,.2c-.7,0-1.2-.2-1.3-.9a3.2,3.2,0,0,1-2.5.9,2.2,2.2,0,0,1-2.5-2.1c0-1.8,1.5-2.1,2.8-2.2s2.2-.1,2.2-1.1-.9-1-1.5-1-1.5.4-1.6,1.2h-1.6c.1-1.9,1.7-2.4,3.3-2.4s2.9.6,2.9,2.1Zm-1.6-2a5.9,5.9,0,0,1-2,.4c-.7.1-1.3.4-1.3,1.2s.9,1,1.5,1,1.8-.4,1.8-1.4ZM329.5,97H328V96h0a2.2,2.2,0,0,1-2.2,1.2c-2.3,0-3.4-1.7-3.4-3.8s1.5-3.8,3.1-3.8a2.8,2.8,0,0,1,2.4,1.1h0V87h1.6ZM326,96c1.4,0,2-1.3,2-2.6s-.8-2.6-2-2.6-2,1.4-2,2.7S324.6,96,326,96Zm4.5-6.2h1.2V87.6h1.6v2.2h1.5V91h-1.5v3.8c0,.7.1,1,.8,1h.7V97h-1.1c-1.6,0-1.9-.6-2-1.9V91h-1.2Z" transform="translate(0.8 2.3)"/>
    </g>
    <g id="mauer-2" data-name="mauer">
      <polygon class="cls-11" points="458.2 473.9 450.9 461.3 443.7 473.9 432 473.9 432 500.5 518.8 500.5 518.8 473.9 458.2 473.9"/>
      <polygon class="cls-8" points="457.6 474.9 450.9 463.3 444.2 474.9 433 474.9 433 499.5 517.8 499.5 517.8 474.9 457.6 474.9"/>
      <path id="wal" class="cls-9" d="M441.6,479.7h4.9c1.8,0,3,.8,3,2.5a2.3,2.3,0,0,1-1.5,2.1h0a2.4,2.4,0,0,1,1.9,2.6c0,1.6-1.1,2.8-3.7,2.8h-4.6Zm1.8,4.2h2.8a1.3,1.3,0,0,0,1.5-1.4c0-1-.5-1.4-1.5-1.4h-2.8Zm0,4.4h3.1a1.6,1.6,0,0,0,1.7-1.6c0-1-.7-1.5-1.7-1.5h-3.1Zm9.1-1.8a1.9,1.9,0,0,0,2,2.1,1.6,1.6,0,0,0,1.7-1.2h1.5a3.1,3.1,0,0,1-3.2,2.5,3.5,3.5,0,0,1-3.6-3.8,3.6,3.6,0,0,1,3.5-3.8,3.5,3.5,0,0,1,3.4,4.2Zm3.7-1a1.8,1.8,0,0,0-1.8-2,2,2,0,0,0-1.9,2Zm2.9-3h1.5v1.4h0a2.3,2.3,0,0,1,2.1-1.6h.6v1.6h-.7c-1.1,0-2,.9-2,2.5v3.4h-1.5Zm4.9-2.8h1.6v10H464Zm3.4,0H469v1.5h-1.6Zm0,2.8H469v7.2h-1.6Zm3.3,0h1.5v1h.1a2.5,2.5,0,0,1,2.2-1.3c1.6,0,2.6.8,2.6,2.4v5h-1.6v-4.5c0-1.2-.5-1.7-1.4-1.7a1.8,1.8,0,0,0-1.8,1.9v4.3h-1.6Zm11.2-2.8h1.8l1.8,7.7h0l2-7.7h1.8l2,7.7h0l1.9-7.7H495l-2.8,10h-1.8l-2-7.6h0l-2.1,7.6h-1.8Zm19.5,8.4c0,.4.1.5.4.5h.4v1.1l-1,.2a1.1,1.1,0,0,1-1.3-.9,3.7,3.7,0,0,1-2.5.9,2.1,2.1,0,0,1-2.4-2.1c0-1.8,1.4-2.1,2.7-2.3s2.2,0,2.2-1-.8-1-1.5-1-1.5.4-1.6,1.2h-1.6c.1-1.9,1.7-2.4,3.3-2.4s2.9.6,2.9,2.1Zm-1.6-2a5.3,5.3,0,0,1-1.9.4c-.7.1-1.3.4-1.3,1.2s.9.9,1.4.9,1.8-.3,1.8-1.3Zm3.4-6.4h1.6v10h-1.6Zm3.4,0h1.6v10h-1.6Z" transform="translate(0.8 2.3)"/>
    </g>
  </g>
	
<script type="text/javascript"><![CDATA[

var svg = document.getElementById('blick');

svg.addEventListener("mouseover",function() {
  svg.getElementById('home').setAttribute('class', 'openM');
  svg.getElementById('mask').setAttribute('class', 'open');
			},false);

svg.addEventListener("mouseout",function() {
  svg.getElementById('home').setAttribute('class', 'closeM');
  svg.getElementById('mask').setAttribute('class', 'close');
			},false);

    ]]></script>

</svg>