<svg id="gymn" xmlns="http://www.w3.org/2000/svg" viewBox="0 0 2284.7 1486.8">
  <defs>
    <style>
      .cls-1, .cls-3 {
        fill: #f8f8ff;
      }

      .cls-1, .cls-4, .cls-5, .cls-7 {
        stroke: #222;
      }

      .cls-1, .cls-4 {
        stroke-width: 2.68px;
      }

      .cls-1, .cls-2, .cls-6 {
        fill-rule: evenodd;
      }

      .cls-2 {
        fill: #ddd;
      }

      .cls-4, .cls-5, .cls-7, .cls-9 {
        fill: none;
      }

      .cls-5 {
        stroke-width: 8.04px;
      }

      .cls-6, .cls-8 {
        fill: #222;
      }

      .cls-7 {
        stroke-width: 6px;
      }

      .cls-9 {
        stroke: #c04300;
        stroke-miterlimit: 10;
        stroke-width: 13px;
      }

      .cls-10 {
        fill: #fff;
        opacity: 0.8;
        isolation: isolate;
      }

      .cls-11 {
        fill: #c04300;
      }
		
		#rail {
  stroke-dasharray: 10 10;
}
		
/* .startH to #here and .startM to #marker added in HTML */
/* Line: interaction and animation */
#here {
  fill: none;
  stroke: #c04300;
  stroke-miterlimit: 10;
  stroke-width: 13px;
  stroke-linecap: square;
  stroke-dasharray: 1950;
}
.startH { stroke-dashoffset: 1950; }
.openH {
  stroke-dashoffset: 1950;
  animation: draw 1.8s 0.2s forwards;
}
.closeH { animation: undraw 1.2s 0.2s forwards; }
@keyframes draw {
		to { stroke-dashoffset: 0; }
		}
@keyframes undraw {
		to { stroke-dashoffset: 1950; }
		}

/* Marker: interaction and animation */
#marker {
  transform-origin: 50% 100%;
  transform-box: fill-box;
  }
.startM { transform: scale(0); }
.openM {
  transform: scale(0);
  animation: pop .2s 1.2s forwards;
}
.closeM { animation: unpop .2s .5s forwards; }
@keyframes pop {
		to { transform: scale(1); }
		}
@keyframes unpop {
		to { transform: scale(0); }
		}		

    </style>
  </defs>
  <title>gymnasium</title>
  <path id="parking" class="cls-1" d="M1377.4,633.9l1.2,96.9-241.8,1.9-.4-99.6Zm446.2,577,.5,55.4,314,.5V1215ZM591.8,820.8l263.4-2.5-.5-58.1-248.9-1.3Zm1496.1,87.4,52.6,28.5,64,36.7,32.9-90.4-61.2-24-66.9-11.4ZM1003.3,1371l57.1-.4-.4-186.2h-56.1Zm693.9-422.4,2.7,136.6,45,4.9,11.5-139.7ZM329.4,1159l175.6,2,.4-35-175.6-2Zm125.2-158.4h54.8V902H454.6Zm530-190.2,81.1-.7-.8-55.2-80.4-.4Zm988.9-583.3,56.9-.7.7-78.8-56.7.9ZM515.1,209.7l30.2.4.5-13.1-.5-102.2-29.9,1.1ZM1291.9,162v21.1l139.6-.8V161.2Zm191.4,38,1.1,56.4h49.9l-2.1-56.9ZM619.5,385.9l67.5.2-.5-28.5-67-1.1Z" transform="translate(0.4 0.4)"/>
  <path id="grass" class="cls-2" d="M570.5,963.2l125.1-7.1.8,15,74.5-1.2.3,44,80.5,11.1,14.6-100.2,30.4.3,1.3,83.4-26,74.8,32.7,191.8-156.9-1,3.8,46.3-39.3,1.9-14.9-8.6,1.3-120.5-14-23.8-.3-98.6-20.9-21.9L610.2,1080l.6,191.1L639,1430.6l34.9,33.6-61.2,22.2-22.5-9.8-20.9-59.3-11.4-88.5Zm1284,105,81.2-4.1,47.6,43.7-3.5,28.2,172.5,59.3,49.1-157.3-13.3-4.5-17.8,37.8-19.3,10.5-198.5-85-17.4-23.1,4.1-16.5-8.6-100.8-50.1,12.7-31.4,35.8-23.5,59.3-16.2,116.7,40.6,13Zm-386.1-15.6.3-157.6-202.3,2.6.9,74.2,58.3,92.6,122.4,2.5ZM321.2,1159.2H296.3l.9-75.5-148.8.4,1.3,112.5,171.6-.4Zm1313-745.4-8.9,8.6.3,32.7,154.7,1.9.6,59.6-8.9,85.6-136-.4V683l-74.5,141.7,299.3-1.3,39-20.6,74.5-12.4,92.2-3.5,115.1,5.7L2263.7,377Zm-140.8,620.3,21.9-.2.2,36.8,51.8-.3-.7-117.2-73.7.5Zm-584.6-30,67.3-1.6-1.5-62.9-67.3,1.6ZM73.9,453l113.4,11.1,97.5,5.3,233.1,8,18.3-17.6,2.1-56.5-143.8.2-49.1-1.2-63.1-4.1-72.9-8.8-59.6-9.7Z" transform="translate(0.4 0.4)"/>
  <path id="streetF" class="cls-3" d="M905.5,1387.3l-51.9-318.4a5.7,5.7,0,1,1,11.2-1.8L917,1387.4ZM2165.8,117.7l-105.6,7.5-55.2-7.4-7.9-8.8,9.4-5.5a9.9,9.9,0,0,0,2.9-2.5l25.4-30.6a11.3,11.3,0,0,0,1.6-2.6l12.9-29.1,15.9,6.1.7.2,47.5,11h.8l40.7,3.5h.5a5.7,5.7,0,0,0,.5-11.4l-34.9-3,2.1-18.1,8.2-17.5a5.9,5.9,0,0,0,.5-3.2l-1-6.5h-11.5l1,6.5-7.8,16.7a5.3,5.3,0,0,0-.5,1.8l-2.2,18.6L2068.9,34l-15.7-6,8-28.1h-22.8l-7.3,25.9L2017,57.5l-23.2,28-35.9,21.2-21.9,7.5-28.9,4.5V77.5a5.6,5.6,0,0,0,3.7-5.2V66.6L1912.5.1h-11.4l-1.6,66.3v3.8l-112.8-.7a2,2,0,0,0,0,4l113.2.7a5.7,5.7,0,0,0,3.3,3.3v41.9l-185.6.3-2.3-91.5a5.7,5.7,0,0,0,3.3-6.9L1712.1,0h-11.9l7.1,24.5a5.7,5.7,0,0,0,3.6,3.8l2.3,91.4-38.5.3.5-30a7,7,0,0,0-.5-2.5L1665.6,68a5.5,5.5,0,0,0-2.7-2.7L1649.7,59a5.8,5.8,0,0,0-2.6-.6L1469.3,64a5.7,5.7,0,0,0,.3,11.4L1646,69.9l10.1,4.8,7.7,16.5-.5,29.1L1550.5,122h-50l-60.6-6.3-43.4-14.5-26.9-15.7-29.2-30.8-17.9-25.3L1312.5,0h-23.3L1300,30.7,1263.6,38a5.7,5.7,0,0,0,2.2,11.2h0l38.7-7.8,18.4,26.1,1,1.2,15.8,16.7-36.3,28.2-19.3,12.6L1267.4,137l-53.2,7.5a5.6,5.6,0,0,0-4.8,6.4,5.7,5.7,0,0,0,5.6,4.9h.8l54.4-7.7a5,5,0,0,0,2.3-.9l17.8-11.5,19.5-12.8.4-.3,37.4-29,7.1,7.5a10,10,0,0,0,2.5,2l29.3,17h.1l1.7.8h.2l45.6,15.3a9.5,9.5,0,0,0,2.3.5l62.4,6.5h.4l4.1,35.6-29.1,2.6-203.4,9.9L1163,200.5a5.7,5.7,0,0,0,.5,11.4h.5l107.6-9.1L1475,193h.2l29.7-2.6,1.6,9.7.9,55.3a2,2,0,0,0,2,2h0a2,2,0,0,0,2-2l-.9-55.4h0l-1.6-10.1a5.6,5.6,0,0,0,2.1-7.7,5.8,5.8,0,0,0-3.6-2.7l-4.1-35.5h47.4L1669,142l46.6-.4,189.3-.3h1.7l33.6-5.3,1.9-.5,23.9-8.2a12.1,12.1,0,0,0,2-.9l25.6-15.1,8.4,9.4.2,38.8v66a2,2,0,0,0,2,2h0a2,2,0,0,0,2-2v-66h0L2006,122l48.2,6.5,5.6.8h.4l106.1-7.6h.5m-5.1,690.7-99.6-10h-1.3l-78.1,1.2h-1.6l-35.8,5.7-1.7.4-72.7,23.6a11.1,11.1,0,0,0-4.5,2.8l-44.3,46.1a9.9,9.9,0,0,0-2.1,3.2l-24,54.8a10.9,10.9,0,0,0-.7,2.4l-29.2,158.1-44.8-10.2,7.8-128.9a1.9,1.9,0,0,0-1.9-2.1h0a2,2,0,0,0-2.1,1.9l-7.9,130.6a2,2,0,0,0,1.6,2.1l46.7,10.6-38,205.9-10.4,15.5h26.5l3.5-5.2a12.3,12.3,0,0,0,1.7-4.1l13.8-74.7,59.1.6h0l139.8.5,174.7.6h0a2,2,0,0,0,2-2,2.1,2.1,0,0,0-2-2l-174.7-.6-139.8-.5h0l-58.4-.6,53.5-290.2,22.7-51.9,41-42.7,69.3-22.5,34.1-5.4,71.3-1.1v6.1l-9.6,59a5.7,5.7,0,0,0,4.7,6.5h.9a5.6,5.6,0,0,0,5.6-4.8l9.6-59.4c0-.3.1-.5.1-.8v-6.2l92,9.3,60.2,18.9v-23l-54.6-17.2a10.9,10.9,0,0,0-2.4-.4ZM715,472.9h0a11,11,0,0,0-11.1,10.8l-.3,21.3a10.9,10.9,0,0,0,10.6,11.1l36.6,1.3h.4a11,11,0,0,0,.4-22l-25.9-.9V483.9a10.7,10.7,0,0,0-10.8-11Zm913.7,166.5-21.2.8-157.3,2.4h-.7l-.3.2-.3.2c-.1.1-.2.2-.2.3l-.2.2-9.4,19.9h-28.7l-24.3.2a1.7,1.7,0,0,0-1,.3l-28,16.9-5.7-7.8,29.8-20.4,22.3.2h0a1.7,1.7,0,0,0,1.2-.4l21-15.9a2.3,2.3,0,0,0,.7-1l7-23.3a1.3,1.3,0,0,0,.1-.6V595a.7.7,0,0,0-.1-.5l-18.3-65.7a2,2,0,0,0-3.9.9v.2l18.2,65.5v16.3l-6.7,22.4-19.9,15h-16.5l10.4-8.1a2,2,0,1,0-2.4-3.2h-.1l-14.8,11.6-31.5,21.5-192.8-3.1h0a2,2,0,0,0-2,2l-1,35.5.2,9.9-44.7.2-141.8-2.3-97.1-.7L798,710.5l-37.9-.6-197.4-.8,6.5-193.7,7.3-30.4,81.4-2.2,39.3-.2a5.7,5.7,0,0,0,0-11.4h0l-39.4.2L578,473.6l3.3-57.3,116-.8a11,11,0,0,0-.1-21.9H697l-114.7.8,1.8-36.4,34.9,2,11.2,6.5a1.9,1.9,0,0,0,1,.3h54.3a2,2,0,0,0,2-2,2.1,2.1,0,0,0-2-2H631.7l-11.2-6.5h-1l-35.3-2,7.9-72.4,5.4-32,66.2-1.6a5.8,5.8,0,0,0,5.6-5.8,5.7,5.7,0,0,0-5.7-5.6h-.1l-63.9,1.6,7.2-38.3,17.8-93,79.8.3c0,.1,0,.1.1.2s.1.4.2.5a.8.8,0,0,1,.2.4l.3.5.3.4.4.4.4.3.5.3.4.2.6.2h.2l66.8,18.9v36.8a5.8,5.8,0,0,0,5.7,5.7h0a5.8,5.8,0,0,0,5.7-5.7V125.4a5.8,5.8,0,0,0-4.1-5.5L738,107.4h10.1L802,88.6a1.8,1.8,0,0,0,.9-.6l17.2-20.5,129.1-1.1,1.2,37.8,8.2,275.5a5.7,5.7,0,0,0,5.7,5.5h.2a5.7,5.7,0,0,0,5.5-5.9l-8.2-275.5-1.2-37.6,93.5-.8a2,2,0,0,0,0-4h0l-94,.8a5.7,5.7,0,0,0-7.3-3.3,5.3,5.3,0,0,0-3.3,3.4L819.2,63.4h-.1l-.8.2-.3.2-.3.3h-.1L800.2,85l-52.8,17.8H723.9l-8.7-2.5L706,0H694.6L704,102.7l-78.6-.3L643.3,0H621L606.8,81.3,585,80.1h-.2l-63.4,3.7h-.3a1.6,1.6,0,0,0-1.2.9l-.2.3c0,.1-.1.3-.1.4v.3l.4,121.3a2,2,0,0,0,2,2h0a2,2,0,0,0,2-2l-.4-119.4,61.4-3.6,21.2,1.2-3,16.9-17.8,93-8.7,46.6-4.5,26.9-243.4,4.8-87.2.6-3.4-53.4a11,11,0,0,0-8.8-10.1l-69.6-13.8v22.4l57,11.3,3.5,55.3a11,11,0,0,0,11,10.3h.1l97.8-.7,240.2-4.8-6.9,62.9a2,2,0,0,1-.1.7l-2.4,50.1h0l-4.2,73.2-5.9,24.6-390-17.8v22L547.1,524l-6.5,195.2L536,837.8l-3.6,70.7-52.5-.5a1.8,1.8,0,0,0-1.4.6,2,2,0,0,0-.6,1.4l1.3,82.1a2,2,0,0,0,2,2h0a2,2,0,0,0,2-2l-1.2-80,50.4.5-.4,43-3.9,102-3.2,87.2-182.4-.6h0a2,2,0,0,0-2,2,2.1,2.1,0,0,0,2,2l182.2.6-2.2,58.4-362.7,2.1v4l362.5-2.1L518,1328.4v1.1l2.7,40.5a11.1,11.1,0,0,0,.5,2.5l4.5,14.7h23l-6.1-20-2.6-38.7,10-270.3,4-102.1v-.3l.5-45,3.4-66.8,18.1.2,98.5.9,2.1,24.3a5.8,5.8,0,0,0,5.7,5.2l64.2.3h0a5.8,5.8,0,0,0,.1-11.5l-59-.3-2.1-24.2a5.7,5.7,0,0,0-5.6-5.2l-103.6-1-17.7-.2,1.5-39.4,214.4,1h61.3a2,2,0,0,0,0-4H774l-214.3-1,2.2-58.5,197.9.8,37.7.6,70.7,1.9h.2l95.5.7,1,39.8a5.6,5.6,0,0,0-3.5,6l5,37.9a5.8,5.8,0,0,0,5.6,5h.7a5.7,5.7,0,0,0,4.9-6.4h0L973,782h90.6a2,2,0,0,0,2-2,2.1,2.1,0,0,0-2-2H972.4a5.9,5.9,0,0,0-3.5-3.6l-1-39.7,123.1,1.9,16.3.3h.2l163.7-.7,70.4-.6.8,17.6a5.6,5.6,0,0,0,2,4l15.9,13.8a5.4,5.4,0,0,0,3.6,1.4l89,1.9,22.1.2.5,113.8,1.8,48.5,1.3,135.6-127.7-1.2h-1.3l-47.5,11-54.2,13.8-44.4,9h-.1l-.6.2-.5.2-.5.3-.5.3-.3.3c-.2.1-.3.3-.5.5h-.1l-22.7,24.8a5.6,5.6,0,0,0-1.5,3.9l.5,101.1a5.8,5.8,0,0,0,2.8,4.9l30.8,17.9a6,6,0,0,0,2.9.8h.9l359.6-56.8h.2l.6-.2.5-.2.5-.3.5-.3.4-.3c.1-.1.3-.2.4-.4l.4-.4.3-.4.3-.5c.1-.2.2-.3.2-.5l.2-.5a1.1,1.1,0,0,0,.1-.5,4.3,4.3,0,0,1,.1-.5v-.8l-5.2-118.7a5.8,5.8,0,0,0-5.6-5.5l-77.8-.9-1.2-130.1,79.5.9,14.3,10.1,22.6,209.5-9.6,99.5a5.7,5.7,0,0,0,5.1,6.2h.6a5.7,5.7,0,0,0,5.7-5.2l9.7-100v-1.2l-23-212.6a5.9,5.9,0,0,0-2.4-4.1l-17.9-12.6h0a6.7,6.7,0,0,0-2.1-.9H1570l-81.7-.9-1.6-43-.5-106.7,64,54.8a5.7,5.7,0,1,0,7.4-8.6h0l-73.5-62.9-.3-.2-.4-.3-.5-.3-.4-.2-.6-.2h-1.4l-27.7-.3-86.9-1.9-12.5-10.8-.8-16.5,8.4-4.6a10.9,10.9,0,0,0-1.7-19.9l1.6-10.6v-.7l-2.7-13.3,27.9-16.9,23.7-.2h30a2,2,0,0,0,1.8-1.2l9.4-19.9,156.1-2.4,21.2-.8a1.9,1.9,0,0,0,1.9-2.1c.5-.9-.4-1.8-1.5-1.7Zm-170.8,444.4v29.6a5.7,5.7,0,1,1-11.4,0h0v-29.7l-89.8-.9v50.5a5.7,5.7,0,0,1-11.4,0v-49l-40.4,9.4-49.8,12.7,1.5,45.2a5.8,5.8,0,0,1-5.5,5.9h-.2a5.7,5.7,0,0,1-5.7-5.5l-1.5-43-36.1,7.3-19.9,21.8.4,95.6,26.2,15.2,352.6-55.7-4.7-108.2-78-.9h0ZM1357.4,698.4l-2.8-13.9-7.1-9.8L1157,671.6l-.9,33.4.2,9.9,114.8-.5,72.9-.7,6.9-3.8a10.5,10.5,0,0,1,4.9-1.3Z" transform="translate(0.4 0.4)"/>
  <path id="street" class="cls-4" d="M905.5,1387.3l-51.9-318.4a5.7,5.7,0,1,1,11.2-1.8L917,1387.4M1312.5,0l10.1,28.9,17.9,25.3L1369.7,85l26.9,15.7,43.4,14.5,60.6,6.3h50l112.8-1.7.5-29.1-7.7-16.5-10.1-4.8L1469.7,75a5.7,5.7,0,0,1-.3-11.4L1647.2,58a5.8,5.8,0,0,1,2.6.6l13.2,6.3a5.5,5.5,0,0,1,2.7,2.7l9.1,19.5a5.3,5.3,0,0,1,.5,2.5l-.5,30,38.5-.3L1711,27.9a5.7,5.7,0,0,1-3.6-3.8L1700.3,0m11.8,0,6.2,21.3a5.7,5.7,0,0,1-3.3,6.9l2.3,91.5,185.6-.3v-42a5.7,5.7,0,0,1-3.3-3.3l-113.2-.7a2,2,0,0,1,0-4l112.8.7V66.3L1900.8,0m11.5,0-1.6,66.5v5.7a5.6,5.6,0,0,1-3.7,5.2v41.4l28.9-4.5,21.9-7.5,35.9-21.2,23.2-28,14.1-31.7L2038.2,0m23,0-8,28.1,15.7,6,40.9,9.5L2112,25a6.1,6.1,0,0,1,.5-1.8l7.8-16.7-1-6.5m11.6,0,1,6.5a5.1,5.1,0,0,1-.5,3.2l-8.2,17.5-2.1,18.1,34.9,3a5.7,5.7,0,0,1-.5,11.4h-.5l-40.7-3.5h-.8l-47.5-11-.7-.2-15.9-6.1-12.9,29.1a10.1,10.1,0,0,1-1.6,2.6l-25.4,30.6a11.6,11.6,0,0,1-2.9,2.5l-9.4,5.5,7.9,8.8,55.2,7.4,105.6-7.5M1289.3,0l10.8,30.7L1263.7,38a5.7,5.7,0,0,0,2.2,11.2h0l38.7-7.8L1323,67.5l1,1.2,15.8,16.7-36.3,28.2-19.3,12.6L1267.5,137l-53.2,7.5a5.6,5.6,0,0,0-4.8,6.4,5.7,5.7,0,0,0,5.6,4.9h.8l54.4-7.7a5,5,0,0,0,2.3-.9l17.8-11.5,19.5-12.8.4-.3,37.4-29,7.1,7.5a10,10,0,0,0,2.5,2l29.3,17h.1l1.7.8h.2l45.6,15.3a9.5,9.5,0,0,0,2.3.5l62.4,6.5h.4l4.1,35.6-29.1,2.6-203.4,9.9-107.8,9.1a5.7,5.7,0,0,0,.5,11.4h.5l107.6-9.1,203.4-9.8h.2l29.7-2.6,1.6,9.7.9,55.3a2,2,0,0,0,2,2h0a2,2,0,0,0,2-2l-.9-55.4h0l-1.6-10.1a5.6,5.6,0,0,0,2.1-7.7,5.8,5.8,0,0,0-3.6-2.7l-4.1-35.5h47.4L1669,142l46.6-.4,189.3-.3h1.7l33.6-5.3,1.9-.5,23.9-8.2a12.1,12.1,0,0,0,2-.9l25.6-15.1,8.4,9.4.2,38.8v66a2,2,0,0,0,2,2h0a2,2,0,0,0,2-2v-66h0L2006,122l48.2,6.5,5.6.8h.4l106.1-7.6h.5m51.8,731.3L2158.4,834l-92-9.3v6.2a2.2,2.2,0,0,1-.1.8l-9.6,59.4a5.6,5.6,0,0,1-5.6,4.8h-.9a5.7,5.7,0,0,1-4.7-6.5l9.6-59v-6.1l-71.3,1.1-34.1,5.4-69.3,22.5-41,42.7-22.7,51.9L1763.2,1238l58.4.6h0l139.8.5,174.7.6a2,2,0,0,1,2,2,2.1,2.1,0,0,1-2,2h0l-174.7-.6-139.8-.5h0l-59.1-.6-13.8,74.7a9.9,9.9,0,0,1-1.7,4.1l-3.5,5.2m475.1-496.1L2164,812.7a7.8,7.8,0,0,0-2.2-.4l-99.6-10h-1.3l-78.1,1.2h-1.6l-35.8,5.7-1.7.4L1871,833.2a11.1,11.1,0,0,0-4.5,2.8l-44.3,46.1a9.9,9.9,0,0,0-2.1,3.2l-24,54.8a10.9,10.9,0,0,0-.7,2.4l-29.2,158.1-44.9-10.2,7.8-128.9a1.9,1.9,0,0,0-1.9-2.1h0a2,2,0,0,0-2.1,1.9l-7.9,130.6a2,2,0,0,0,1.6,2.1l46.7,10.6-38,205.9-10.4,15.5M715,472.9h0a11,11,0,0,0-11.1,10.8l-.3,21.3a10.9,10.9,0,0,0,10.6,11.1l36.6,1.3h.4a11,11,0,0,0,.4-22l-25.9-.9V483.9a10.7,10.7,0,0,0-10.8-11ZM525.5,1387.3l-4.5-14.7a18.4,18.4,0,0,1-.5-2.5l-2.7-40.5v-1.1l4.3-117.2-362.5,2.1m0-4.2,362.7-2.1,2.2-58.4-182.2-.6a2,2,0,0,1-2-2,2.1,2.1,0,0,1,2-2h0l182.4.6,3.2-87.2,3.9-102,.4-43-50.4-.5,1.2,80a2,2,0,0,1-2,2h0a2,2,0,0,1-2-2l-1.3-82.1a1.8,1.8,0,0,1,.6-1.4,2,2,0,0,1,1.4-.6l52.5.5,3.6-70.7,4.4-118.4,6.5-195.2L159.4,506.4m.2-22,390.1,17.8,5.9-24.6,4.2-73.2h0l2.4-50.1a2,2,0,0,1,.1-.7l6.9-62.9L329,295.4l-97.8.7h-.1a11,11,0,0,1-11-10.3l-3.5-55.3-57-11.3m0-22.3,69.6,13.8a11,11,0,0,1,8.8,10.1l3.4,53.4,87.2-.6L572,268.8l4.5-26.9,8.7-46.6,17.8-93,3-16.9-21.2-1.2-61.4,3.6.4,119.4a2,2,0,0,1-2,2h0a2,2,0,0,1-2-2l-.4-121.3a.4.4,0,0,1,.1-.3.6.6,0,0,1,.1-.4l.2-.3A1.6,1.6,0,0,1,521,84h.3l63.4-3.7h.2l21.8,1.2L621,0m22.3,0L625.4,102.3l78.6.3L694.6,0M548.4,1387.3l-6.1-20-2.6-38.7,10-270.3,4-102.1v-.3l.5-45,3.4-66.8,18.1.2,98.5.9,2.1,24.3a5.8,5.8,0,0,0,5.7,5.2l64.2.3h0a5.8,5.8,0,0,0,.1-11.5l-59-.3L685.2,839a5.7,5.7,0,0,0-5.6-5.2l-103.6-1-17.7-.2,1.5-39.4,214.4,1h61.3a2,2,0,0,0,0-4H774l-214.3-1,2.2-58.5,197.9.8,37.7.6,70.7,1.9h.2l95.5.7,1,39.8a5.6,5.6,0,0,0-3.5,6l5,37.9a5.8,5.8,0,0,0,5.6,5h.7a5.7,5.7,0,0,0,4.9-6.4h0L973,782.1h90.6a2,2,0,0,0,2-2,2.1,2.1,0,0,0-2-2H972.4a5.9,5.9,0,0,0-3.5-3.6l-1-39.7,123.1,1.9,16.3.3h.2l163.7-.7,70.4-.6.8,17.6a5.6,5.6,0,0,0,2,4l15.9,13.8a5.4,5.4,0,0,0,3.6,1.4l89,1.9,22.1.2.5,113.8,1.8,48.5,1.3,135.6-127.7-1.2h-1.3l-47.5,11-54.2,13.8-44.4,9h-.1l-.6.2-.5.2-.5.3-.5.3-.3.3c-.2.1-.3.3-.5.5h-.1l-22.7,24.8a5.6,5.6,0,0,0-1.5,3.9l.5,101.1a5.8,5.8,0,0,0,2.8,4.9l30.8,17.9a6,6,0,0,0,2.9.8h.9l359.6-56.8h.2l.6-.2.5-.2.5-.3.5-.3.4-.3c.1-.1.3-.2.4-.4l.4-.4.3-.4.3-.5c.1-.2.2-.3.2-.5l.2-.5a1.1,1.1,0,0,0,.1-.5,4.3,4.3,0,0,1,.1-.5v-.8l-5.2-118.7a5.8,5.8,0,0,0-5.6-5.5l-77.8-.9-1.2-130.1,79.5.9,14.3,10.1L1605,1163l-9.6,99.5a5.7,5.7,0,0,0,5.1,6.2h.6a5.7,5.7,0,0,0,5.7-5.2l9.7-100v-1.2l-23-212.6a5.9,5.9,0,0,0-2.4-4.1L1573.2,933h0a6.7,6.7,0,0,0-2.1-.9H1570l-81.7-.9-1.6-43-.5-106.7,64,54.8a5.7,5.7,0,1,0,7.4-8.6h0l-73.5-62.9-.3-.2-.4-.3-.5-.3-.4-.2-.6-.2h-1.4l-27.7-.3-86.9-1.9-12.5-10.8-.8-16.5,8.4-4.6a10.9,10.9,0,0,0-1.7-19.9l1.6-10.6V698l-2.7-13.3,27.9-16.9,23.7-.2h30a2,2,0,0,0,1.8-1.2l9.4-19.9,156.1-2.4,21.2-.8a2,2,0,1,0-.2-4l-21.2.8-157.3,2.4h-.7l-.3.2-.3.2c-.1.1-.2.2-.2.3s-.1.2-.2.2l-9.4,19.9h-28.7l-24.3.2a1.7,1.7,0,0,0-1,.3l-28,16.9-5.7-7.8,29.8-20.4,22.3.2h0a1.7,1.7,0,0,0,1.2-.4l21-15.9a2.3,2.3,0,0,0,.7-1l7-23.3a1.3,1.3,0,0,0,.1-.6V594.9a.7.7,0,0,0-.1-.5l-18.3-65.7a2,2,0,1,0-3.9.9v.2l18.2,65.5v16.3l-6.7,22.4-19.9,15h-16.5l10.4-8.1a2,2,0,1,0-2.4-3.2h-.1l-14.8,11.6-31.5,21.5-192.8-3.1h0a2,2,0,0,0-2,2l-1,35.5.2,9.9-44.7.2L965.2,713l-97.1-.7-70.7-1.9-37.9-.6L562.1,709l6.5-193.7,7.3-30.4,81.4-2.2,39.3-.2a5.7,5.7,0,0,0,0-11.4h0l-39.4.2-79.8,2.2,3.3-57.3,116-.8a11,11,0,0,0-.1-21.9h.4l-114.7.8,1.8-36.4,34.9,2,11.2,6.5a1.9,1.9,0,0,0,1,.3h54.3a2,2,0,0,0,2-2,2.1,2.1,0,0,0-2-2H631.7l-11.2-6.5h-1l-35.3-2,7.9-72.4,5.4-32,66.2-1.6a5.8,5.8,0,0,0,5.6-5.8,5.7,5.7,0,0,0-5.7-5.6h-.1l-63.9,1.6,7.2-38.3,17.8-93,79.8.3v.2c.1.2.1.4.2.5l.2.4.3.5.3.4.4.4.4.3.5.3.4.2.6.2h.2l66.8,18.9v36.8a5.8,5.8,0,0,0,5.7,5.7h0a5.8,5.8,0,0,0,5.7-5.7V125.3a5.8,5.8,0,0,0-4.1-5.5L738,107.3h10.1L802,88.6a1.8,1.8,0,0,0,.9-.6l17.2-20.5,129.1-1.1,1.2,37.8,8.2,275.5a5.7,5.7,0,0,0,5.7,5.5h.2a5.7,5.7,0,0,0,5.5-5.9l-8.2-275.5-1.2-37.6,93.5-.8a2,2,0,0,0,0-4h0l-94,.8a5.7,5.7,0,0,0-7.3-3.3,5.3,5.3,0,0,0-3.3,3.4L819.2,63.4h-.1l-.8.2-.3.2-.3.3h-.1L800.2,85l-52.8,17.8H723.9l-8.7-2.5L706,0m751.9,1083.8v29.6a5.7,5.7,0,1,1-11.4,0h0v-29.7l-89.8-.9v50.5a5.7,5.7,0,0,1-11.4,0v-49l-40.4,9.4-49.8,12.7,1.5,45.2a5.8,5.8,0,0,1-5.5,5.9h-.2a5.7,5.7,0,0,1-5.7-5.5l-1.5-43-36.1,7.3-19.9,21.8.4,95.6,26.2,15.2,352.6-55.7-4.7-108.2-78-.9h0ZM1357.4,698.4l-2.8-13.9-7.1-9.8L1157,671.6l-.9,33.4.2,9.9,114.8-.5,72.9-.7,6.9-3.8a10.5,10.5,0,0,1,4.9-1.3Z" transform="translate(0.4 0.4)"/>
  <path id="rail" class="cls-5" d="M2271.9,313.3,1135.4,398.6,837.6,411.3l-122.9.9-362,2.6L0,379.5m2,51.7,340.3,21.6,618.9,1,361.7-36.3,513.7-44.8,447.5-26.6" transform="translate(0.4 0.4)"/>
  <path id="u-bahn" class="cls-1" d="M984.3,402.7v6.4l112.5,1.6h5.3l39.4.5V453l-1.1,36.8v.6l-32.2-.5-115.1-1.6-.2,16-57.4-.3-.6-21.4V421.2l-.9-17.2ZM697.1,483.9h75.4l34.5-.8-1.3-61.4,75.9-.3,53.5-.2-.9-17.2L882.4,403l-72.9.3-99.8.8H697.2Zm36.8,161.7,26.7-1.8,7.8-10.3,13.6-1.4-.9-33.6,25.2-91.7h-33l-22-.4.8,8.5-.3,68-17.5.5ZM1078,403.8l23.8-.8h9.7l-.8-96.8v-6.5h-26.5l-6.3.2V403.8Z" transform="translate(0.4 0.4)"/>
  <path id="berg" class="cls-4" d="M1763.7,794.5l-122.1,9.2a38.5,38.5,0,0,1-38.4-38.4h0a38.5,38.5,0,0,1,38.4-38.4l122.1,9.2m-.2,5.9H1642.6a23.3,23.3,0,0,0-23.3,23.3h0a23.3,23.3,0,0,0,23.3,23.3h120.9m-104.9-6.4h101.1m-.1-34H1658.5" transform="translate(0.4 0.4)"/>
  <path id="build" class="cls-6" d="M148.1,808.8l.2,31.2,48.7-.3.2,32.1,29.3-.2.2,22.8-27.5.2.3,43-50.6.3.2,30.6,49.2-.4.2,28.4h9.9v13h20.1l-.3-43,62.9-.4-.2-24.7,25.7-.2.2,28.8,30.3-.2.3,37.7,32.3-.2-.3-40,28.9-.2-.2-30.1-29.3.2-.2-24.7-16.8.2-.3-42.3,74.1-.5-1.3-188.2-69.8.5-.5-69.9,123.1-.9-.2-33.5h6.9l-.2-29.6-141.6,1,.3,35.7-50.5.4-.2-33.9-27.8.2.2,27.3-50.4.3.2,34.1,50.7-.4.5,67.2-51.4.4.2,31.7,50.9-.4.2,27.7,28.4-.2-.2-35.2,49.4-.3.8,122.1-99.7.7V809.1H230.3l-.3-42.1-31.5.2.3,40.9Zm91.5,31.4,42.9-.4.8,86.2-42.9.4Zm63.3-158V612.7h47.8v69.5Zm15.9,157.3,29.5-.2.7,87.2-29.5.2ZM1264.5,335l-.7-11.9,21.6-.2V328h13.9l-.7-5.6,12.7,1.1v5.7h13.3V323l41.9-.2.6,6.5,13.4.5V323l11.4-.2.6,5.1,12.7,1.9V323h30.4l-.6-11.4h2.6l22.1-.5v5.5H1473l.6-5.5,10.8-.2.6,7.6,13.9-1.3v-5.6h41.9l.6,7.6,15.2-.5V311l8.9.5.6,6.5,15.9-.2V311l21.2-.6,9.9-.2.6-10,23.5-.8v5l13.9.7v-6.2l9.5-.6v6.2h13.9v-7.4l43.8.5.6,5.1h13.3l.6-6.2h12v7.6l13.4,1.7-.7-7.4,21.6-.2.6,12.7,10.7.2v11.2l-12.1.2v15.7l-30.5-1.1-.6,5.5-18.4.2-1.3-5.9-64.7-1.1-.6,10.6-22.2-.5-.6-6.4-36.3-1.3-1.1,10.9h-22.9l-1.3,7.5-41.9-.5-.6-5.1h-45.6v7l-34.9-.6-.6-6.4-16.7-1.6-10.6-1-.6,14.6-31.1-1.2-.6,7.6-36.8-1.3-.6-7-37.4-1.3-7,7.6-17.8,1.2v-8.2l-30.4-.7-.6-12h-10.1l-.6-12.1ZM1129.3,788.9V776.4h57.8v-5.9l88.9.4V754.6l35.1.2v10.9h-17v6.2l38.7.2v14.5l47.3.2v5.8l75.8.4v25h-13.6v13.5h-5.7v20.8h-17.5v9.5l-52.5-.2V837.1h-17V810.6l-70.5-.3L1209,810v20.2h-6v19.5H1187v10.2l-43.2-.2V831.9h-6.5v-26H1129ZM297.1,1083.8l-.9,75.5h24.9v37l-171.6.4-1.3-112.5Zm326.9-8.3v-13.3l18.6-.2v-3.3h12.8v12.2h5.2v19h4.6v18.7h-2.8l.4,52.4h6.3l.2,19.8h-1.4l.3,41.7h-3.1v15.3h3v18.6h4.1v7.8h9.1l.3,39.1h-1v9.9h2.4v16.8h2.8v9h8.8l.3,36.2h-2.9v14.3h3.6v7.9h15.7v-2.5h20.3v14h-3.2v16.2H719.4v7.8l-16.3.2v4.5h-11v5.5l-24.7.2-.2-20.5-22.4.2-.2-23.5h7.5v-12.4h5.1l-.2-26h-4.4v-9.5h3.6v-4.5l-23.3.2-.2-25.8h5.5v-12.8h4.8l-.2-25.1h-4.2v-8.7h3.8v-5.5l-21.7.2-.2-25.3h5.1v-12.1h6.5l-.3-38.5h-5.7l-.2-21.6h-3.1l-.2-23.3h7.2v-13.6h-4v-13.4h-4l-.2-21.7h-2.9l-.2-23.9ZM593.6,849.9l21.6-1.3,8.9,4.5h18.4l3.2,40.6h8.2v7h22.8l29.9,14,38.4,2.8,16.6.5,27.4.8,1.2,32.7,23.5.6,16.4-19.7,27.9-.7v20.4l-8.3,1.2-1.9,62.8H813v-6.9l-36.2,1.2V964.1l-20.1.7-55.4,1.9-1.2-23.5-44.4,2.5-19.6,1.4-11.4,6.4-20.4-1.4-2.5-79.8H593ZM1663.1,973.5l-.3,26.3h4.9v36.8l3.7.2.2,20.3h11.9v19h-6.4l-.4,24.2,4.2.2.3,20.4,11,.2-.2,17.9-6.6.4-.4,25.3-8.3.2v19.4h12.6v18.4h-6.9l-.2,25.2-4.6.3-.3,19.5h11.8v7.4h16.5v39.1h-16.1l-.2,5.2-12.3-.2v3.5l-18.3-.2-.5-17h-12v9.2h-17.5l-.6-13.3h-7.8v-14l8.1-.3-.2-9.2,9.9-.2-.3-15.1h-4.4v-14.4h7.6l.3-31.9h-3.3v-18.2l-4.6.3v-13.3h11.9v-33.6l-3.9.2-.6-17.3H1636v-46.2h-4.3l-.4-16.7-4.1-.2-.2-39.4h-3.5l-.5-16.7H1619V973.6Zm-454.3,163.9,26.8.2-.2,23.6,24.7.2v-1.8l47.4.4.4-41.4,25.8.2-.2,23.6,25.2.2v-2.2l49.5.5.4-42.3,26.7.3-.2,23.5,24.7.2V1121l51,.5-.4,37-17-.2v9.9l-98.5-.9-.2,20.5-100.2-.9-.2,21.4-85.9-.8Zm-324.7-47.7,13.3-13.3-1.9-23.5,22.7-.7-.5-6.2,15.1,2.4,6.3,59,11.4,1.3,1.9,78,8.9.6,7,76.7h6.3l3.8,75.5,9.6-.5,1.3,12.1-1.9,12.7-17.2,1.2v5.1h-9.5l-1.2-7.5h-9.6l-2.4-15.8-22.3.5-1.2-24,12.1-14-.7-22.9-5.6-1.8-.6-13.3-17.8-1.3L910,1245h7.6v-10.7h5.6l-2.5-39.2-23.2-1.4-.4-24.7,13.4-13.9-1.9-22.8-6.5-.7-1.2-15.8H883.3Zm693.7-898.2v-6.2l41.3-.3v6.4h16.5v-6l41-.3v6.2h16.2v-6.2l41.3-.3v6.5h15.3v-6.1l41.7-.3v6.3h16.5v-5.7l41.2-.3v6h15.9v-6.4l41.3-.3v6.9h21.3v17.9h-13.3v17.1h-14.8v6.7h-10.5v-6.5h-7.3v6.5h-9.8v-6.8l-29.9.2v6.2h-10.2v-6.2H1824v6.2h-9.9v-6.5l-29.6.2v6.2h-10.2v-6.5h-7.9v6.5h-9.3v-6.5l-30.3.2v6.4h-9.9v-6.8h-7.6v6.9h-9.8v-6.6l-30.1.2v6.3h-10.2v-6.5h-7.1v6.7H1642v-6.7l-29.7.2v6.2h-9.9v-6.5h-7.7v6.7H1585V227h-15.4V209.6h-12.7V192.1Zm-426,38.1h17v-9.2l38.7.2v6.1h18.4v-7.7l39.3.2V225h9.1V208.5h23.4v-6.5l40.4.3v7h16.7v-5.7l40.6.2v3.5H1412v-6.7l42.8.2v5.1l21.7.2v19.4h-13.2L1463,251l-188.2-1.2v19.4l-123-.8ZM1018.3,81l1.4,76.3,8.3-.2.5,87.7-7.8.6,1.4,61.5,10.6-.2,1.5,78.9-41.9.8-1.5-76.6-6.5.2-1.5-78h4.3L985.7,157h-6.5L978,81.7ZM862.4,321.6l20.1-.3-.4-24-60.6.9-.8-52.1,22,.3-1.6-30.7-8.6-.6-2-55.8-28.6.3.4,26.2L757,183.4l-17.6-.2.2-23.1-45.6-.4.3-32.9-41.5-.3-.4,41.1h-6.2l-.5,51.8,31.5.3-.3,29.3-42.9-.4V282l39.7.3-.2,24.2H666l-.5,49.7,61.6.6.2-23,21,.2v-8.5l40.4.4.8,6.6h2.9l.4,24.3,10.1-.2.3,19.7,27.4-.4-.6-41,10-.2v-5.7l22.6-.4ZM714,259.6l.4-45.1,42.3.4,31.2,4.7,1.4,40.7ZM1943.8,958.2l3.8-16-6.4-4.8,6.4-14.6-5.1-7.9,5.7-12.5-5.7-4.7,5.8-14.4,3.7-14.5,27.9,1.3v8.1l15.4,2.8-5.4,16.4-4.9,19V938l16.1,4.9,33.4-1.2,4.7,19.6,4.2,6.1-9.5,8.9-15.8,4.1,5.7,20.9-24.7,5.1-2.5-7-12.6-.2-11.4,1.4-3-11.7-25-7.2,3.3-7-9.8-7.3Zm151.6,56.4-7.3-8.2,7.3-8.9,5.1-7.5-6.8-8.6,6.3-6.8,8.2-11.7,25.7,7.7-.6,13.3,16,8.2,3.1-7,12.9,1,1.6,6.7,24.5-1.2-1,25.6-10.1,2.8.6,19.3-9.5,2.2v10.2l-6.3,1.9.7,15.6-15.9-.7-10.3,2.1-2.6-8.6-17.1,1.4-2.8-10-8.7-2.3h-7l-2.1-6.5,1.6-5.4-16.4-11.5Zm-977.5-97.8,45.3.2-.3,54.5,35.6.2-.3,55.7,35.9.2-.3,48.5-46-.2.3-55-35.5-.2.3-53.7-35.3-.2Zm382-75.6h61.8v11.2h46.7v28.8h-15.9v13.2h-8.2V917h-35.1v9.7h-35.1V897.8h-7.2V870.1h-7ZM905.9,793v3.5l32.4-.7.4,19h-2.9l.4,21.7,17.7-.4-.2-7.5,26.3-.5.5,25.2h-6.7l.2,11.5-14.3.3.3,14.7H953l.4,20.9-16,.3v-5.8l-37.2.7-.8-41.5h-7.1l-.8-40.4-6.8.2-.4-21.2ZM2135.2,270.1V255.5h22v-5.2h23.5v-7.5h18.9V248H2221v14.3h5.2v19.4h-5.2v14.6h-22v4.3h-22.5V309h-19.5v-5.3h-22V289.3h-4.8V270ZM1964,281.9V267.2h22V262h23.5v-7.6h18.9v5.5h21.5V274h5.2v19.5H2050v14.6h-22v4.3h-22.5v8.2h-19.5v-5.4h-22V301.1h-4.8V281.8ZM470.1,98.9h37.8V218H470Zm10.4,907.9v42.8h16.2v56.9H449.9v-57.1h13.4v-12.1H444.9v-30.5ZM413.4,248.4h14.2V239l117.5-.2v20.7l-131.7.2V248.4Zm70.4,916.5v20l-75.3.4v-20.1ZM311.1,249.8H288.2v-24l-21.4.2V206.7l21.3-.2-.2-25.6H266.2V162.2h21.8l-.2-24.7-21.4.2V118.2h20.9l-.2-24-21.4.2L265.2,75l44.7-.3.3,43.3.3,44.1.3,44.4Zm80.5-.5-22.8.2-.2-24-21.4.2V206.3l21.3-.2-.2-25.6-21.5.2V161.8h21.8l-.2-24.7-21.4.2V117.8l20.9-.2-.2-24-21.4.2V74.5l44.6-.3.3,43.3.3,44.1.3,44.4Zm132,124.2-20.1.2-.3-40.9-30.8.2.3,40.3-19.6.2-.3-40.7-30.6.2.3,39.9-19.6.2-.3-40.5-30.8.2v10.4H357.8l-40,.3v-7.5l-38.6.3v6.9l-39.3.3V336l-40.3.3-.2-29.5,41.4-.3v7.7l37.3-.3v-7l40.9-.3v7.1l38.7-.3h14l24.5-.2v3.1l26-.2v-2.6l24.5-.2v3.1l25.7-.2v-2.9L497,313v3l26.5-.2ZM733.1,541.2v12.7h10.6v22H717.8v62.2H700.1v21.7h2.6v26.4H664.8V666H650.4v5.7H623V638.8h14.8V624.1h-6V603.3h29.5v3.4H679v-3.5h11.4V576H660.6V538.6h23.9V521.8H671.7V505.9h32.9v17h18V520h21.2v21.2Zm702.1,59.2a32.7,32.7,0,1,1-65.4,0c0-.5.1-1,.1-1.5H1261.4v9.3H1116.7V599h-251l-54.9-38.6-1.8-1.3-1.6-1.1h.1A33,33,0,1,1,860.4,538H923v9.6h451.7l37.8,21.9a32.3,32.3,0,0,1,12.3,7.1l.3.2h0a32.4,32.4,0,0,1,10.1,23.5Zm-246-78h-33.9v-31h30.1v-8.1h217.2v39h-29.7v-4.9H1189.3Zm-170.3,91h28.7v52H840.8v-52h29.6v7.2h148.5Zm609.9-39v47.2H1515.1V601.8h26.3V565h32.7v9.4Zm48,67h-30.3V606h30.3ZM944.2,483.9H800.8V417.5H944.2v66.4Zm308.1,346.2h11.3v11.3h-11.3Zm-14.4,11.3V830.1h11.3v11.3Zm25.7,3.1v11.3h-11.3V844.5Zm-14.3,11.3H1238V844.5h11.3Z" transform="translate(0.4 0.4)"/>
  <g id="label">
    <polyline class="cls-7" points="2190.9 1387.7 2190.9 1418.4 1832.4 1418.4 1832.4 1387.7"/>
    <path class="cls-8" d="M1700.6,1394.5c3.8,0,7.4-1.3,8-4.6h3.7v27.6h-4.9V1398h-6.8Zm40.3,9.2c0,6.3-1.6,14.3-9.5,14.3s-9.5-8.1-9.5-14.3,1.6-14.3,9.5-14.3,9.5,8,9.5,14.3Zm-4.4,0c0-5.8-1.1-10.6-5-10.6s-5,4.8-5,10.6,1.1,10.6,5,10.6,4.9-4.9,5-10.6Zm26.3,0c0,6.3-1.6,14.3-9.5,14.3s-9.5-8.1-9.5-14.3,1.6-14.3,9.5-14.3,9.5,8,9.5,14.3Zm-4.4,0c0-5.8-1.1-10.6-5-10.6s-5,4.8-5,10.6,1.1,10.6,5,10.6,5-4.9,5-10.6Zm19.2-6.6h4.3v2.8h.1a7,7,0,0,1,6.3-3.4c2.5,0,4.8,1.1,5.7,3.4a7.2,7.2,0,0,1,6.4-3.4c4.3,0,6.8,1.9,6.8,6.9v14.1h-4.5v-11.9c0-3.2-.2-5.5-3.7-5.5s-4.3,2-4.3,5.4v11.9h-4.5v-13.1c0-2.8-.9-4.3-3.6-4.3s-4.5,1.9-4.5,5.3v12.1h-4.5Z" transform="translate(0.4 0.4)"/>
  </g>
  <polygon id="here" class="startH cls-9" points="441.4 1089.9 112.3 1034.6 91.1 519.4 578.2 496.6 441.4 1089.9"/>
  <g id="marker" class="startM">
    <path class="cls-10" d="M570.5,431.3a64,64,0,0,0-13.4-19.9A62.7,62.7,0,1,0,493,515.2l6.8,22.4,7.1,23.4h11.9l7.1-23.4,6.8-22.4a62.7,62.7,0,0,0,39.6-79.3Z" transform="translate(0.4 0.4)"/>
    <path class="cls-11" d="M565.8,442.3a54.7,54.7,0,1,0-66.4,66.4l8,26.5,5.4,17.7,5.4-17.7,8-26.5A54.6,54.6,0,0,0,565.8,442.3Z" transform="translate(0.4 0.4)"/>
    <path class="cls-3" d="M506.4,455.6,484,442.7l3.1-5.4,22.4,12.9V424.3h6.3v25.9l22.4-12.9,3.1,5.4-22.4,12.9,22.4,12.9-3.1,5.4L515.8,461v25.9h-6.2V461l-22.4,12.9-3.1-5.4Z" transform="translate(0.4 0.4)"/>
  </g>
	
<script type="text/javascript"><![CDATA[

var svg = document.getElementById('gymn');

svg.addEventListener("mouseover",function() {
  svg.getElementById('marker').setAttribute('class', 'openM');
  svg.getElementById('here').setAttribute('class', 'openH');
			},false);

svg.addEventListener("mouseout",function() {
  svg.getElementById('marker').setAttribute('class', 'closeM');
  svg.getElementById('here').setAttribute('class', 'closeH');
			},false);

    ]]></script>	
	
</svg>
