	<svg id="sound" xmlns="http://www.w3.org/2000/svg" xmlns:xlink="http://www.w3.org/1999/xlink" viewBox="0 0 2284 1424">
  <defs>
	  
<style type="text/css">
	.st0{fill:#F8F8FF;stroke:#222222;stroke-width:0.7349;}
	.st1{fill:#DDDDDD;}
	.st2{fill:#222222;}
	.st3{opacity:0.6;fill:none;stroke:#888888;stroke-width:25;stroke-linejoin:bevel;}
	.st4{opacity:0.8;fill:#F8F8FF;}
	.st5{fill:#C04300;}
	.st6{fill:#F8F8FF;}
	.st7{opacity:0.8;fill:#F8F8FF;enable-background:new    ;}
	.st8{fill:none;stroke:#222222;stroke-width:6;}
	.st9{fill:none;stroke:#C04300;stroke-width:13;stroke-miterlimit:10;}
	.st10{opacity:0.8;fill:#FFFFFF;enable-background:new    ;}
	
.vis {
		transition-delay: 0.75s;
		transition-duration: 1s;
		transition-property: opacity;
		transition-timing-function: ease-out;
		opacity: 1 !important;
		}

    	.invis {
		transition-delay: 0.5s;
		transition-duration: 1s;
		transition-property: opacity;
		transition-timing-function: ease-out;
		opacity: 0 !important;
		}
	
	#text {
		opacity: 0;
		}
	
	/* Line: interaction and animation */
#here {
  fill: none;
  stroke: #c04300;
  stroke-miterlimit: 10;
  stroke-width: 13px;
  stroke-linecap: square;
  stroke-dasharray: 1000;
}
.startH { stroke-dashoffset: 1000; }
.openH {
  stroke-dashoffset: 1000;
  animation: draw 1.2s 0.2s forwards;
}
.closeH { animation: undraw 1.2s 0.2s forwards; }
@keyframes draw {
		to { stroke-dashoffset: 0; }
		}
@keyframes undraw {
		to { stroke-dashoffset: 1000; }
		}
	
	/* Marker: interaction and animation */
#marker {
  transform-origin: 50% 100%;
  transform-box: fill-box;
  }
.startM { transform: scale(0); }
.openM {
  transform: scale(0);
  animation: pop .2s .7s forwards;
}
.closeM { animation: unpop .2s .5s forwards; }
@keyframes pop {
		to { transform: scale(1); }
		}
@keyframes unpop {
		to { transform: scale(0); }
		}
	
</style>
	  </defs>
		
  <title>Kommandantenstrasse</title>
		
<path id="blocks" class="st0" d="M1975,474.3l0.3,3l-0.9,3.2l-71.4,148.3l-14.9,33.3l-71.4,147.4l-9.7,20.2l-85.1,178.8l-2.4,2.1
	l-3.3,0.3l-13.6-7.2l-1.7-2.5l-162.4-361.5l-43.9-94.2l-53.9-114.9l-13-25.3l-12.8-23l-134.3-217.8l-0.4-1.6l0.4-1.7l1-1.4
	l57.8-60.1l28.7-22l6.7-3.9l154.3-54.4l4.3-0.5l3.9,0.5l5.9,2.7l4,3.9l115.8,169.1l310.7,276.9L1975,474.3z M397,1077.1l438.8,208.4
	l2.9,1.4l2.4,0.5h2.4l1.8-1l2.9-6.4l2.5,1.3l89.8-165.8l59.7-116l0.6-3.4l-0.1-2.8l-1.5-2.5l-2.2-2L633.4,826.2l-2.8-1.1l-2.3-0.1
	l-2,0.9l-63.1,58l-42.6,39.2l-59.9,55.6l-13.9,12.3l-12,11.7l-11.3,14l-10.7,15.9l-9.1,22l-3.3-1.3l-5,14.3l-0.7,3.4l0.5,3.4
	L397,1077.1z M1470.9,1172.8l16.4,7.3l2.2,0.3l2.2-0.7l2.2-2.2l3-5.8l7.9-18.2l-3.8-1.8l25.5-69.5l3.3,1l1.2-2.6l1.3-6.8l-0.2-6.6
	l-1.5-5.6l-2.7-4.6l-202.8-254.5l-2.9-2.9l-1.8-1l-2.4,0.2l-1.5,0.7l-93.6,60.5l-39.3,23.8l-16.3,10.6l-40.9,26.4l-47.7,29.8
	l-23.7,18.7l-2.6,2.7l-1.3,2.2l-1,2.7l-0.2,3.4l1,2.9l1.8,2.2l2.1,0.6l-1.7,2.3l416.3,187.5L1470.9,1172.8z M1031.5,1372l35-75.7
	l119.8,55.9l109.7-209.9l4.2-11.9l-3.2-6.7l-234-105.6l-5.1,11.6l-111.3,212.9l-35.6,71.5l52.6,25.3L1031.5,1372z M1824.1,1424
	l-65.6-77.6l-9.1-11.7l-69.5-34l-4.7-4.7l-3.9-1.7l-4.7-0.8h-4.4l-3.9,1l-50.8,18.1l-4.1,2l-2.5,3.4l-2.9-1.2l-38.7,81l9.2,3.9
	l0,0.1l-9.2-4l-11.7,26.3 M2016.4,1177.5l46.1,25.2l1.7-0.2l6-4.4l0-1.2l-19.1-69.3l-0.9-1.4l-8-1.6l-0.9,0.5l-25.5,49.8l-0.2,1.3
	l0.3,0.7L2016.4,1177.5z M2018.2,1118.6l3.7,2l21.2-41.8l3.8,2l0.6,0.1l0.3-0.3l-0.1-1.4l-0.7-10.3l-1.8,0.1l-5.1-64.2l-1.5-10.8
	l-20.2-78.5l-12.3-24L1909,715.6l-2.6-2.3l-4.4-2.3h-5.3l-5,1.5L1743.3,1022l0.3,5.3l1.8,2.9l144.5,78.4l3.4-6.6l4.1,1.9l100.1,55.5
	L2018.2,1118.6z M1988.2,1196.9l2.1-4.5l0.9-2.9l0.3-2.4l-0.2-2.4l-1.4-2.1l-4.6-2.7l-1.5,2.8l-245-134.9l-2.1-1l-2.8-0.1l-2.3,0.4
	l-2.6,3.8l-74.2,153.6l-0.6,12.8l15.6,47.8l4.6,7.1l4.7,4.3l7.3,3.3l201.7,93.1l4.5-0.6l2.3-2.1l89-175.5L1988.2,1196.9z
	 M1954.3,1424l-138.2-59.8l-8.5,11.7l38.6,48.1 M878,423.5l-4.2,6.7l-0.4,3l0.4,3.2l1.9,3.5l52.6,39.8l3.4,2.5l3.6,1.5l4.1,0.4
	l4.1-1.2l4.1-3.7l-1.9-2.2l36.7-32.7l1.6,2l25.7-22.3l1.9-2.8l1.2-3.4v-2.3l-0.3-2.5l-0.9-2.6l-4.8-6.3l-1.9,1.5l-55-75.5l2.3-2.3
	l-2.2-2.3l-2.8-1.3l-3.2-0.1l-2.9,1l-2.8,2.5l-5.4,8.9l2.6,2l-54,84.4L878,423.5z M1196.9,334.3l-17.3,8.9l-6.7,17.1l-31.5-48.8
	l-11,8l-2.8,0.8l-92.7,94.4l-3.2,4l0.2,4.6l144.8,177.2L1314,780.4l87.7-56.4l-30.9-45.4l21.2,17.1l4-4.9l93.6-117.1L1459,511
	l-35.4,14.4l-15.6-13l-59-48.9l-102.4-81L1196.9,334.3z M2248,1115l-147-66.6l-1.7,3.7l-19.1-8.5l-10-4.5l-4-2.5l-2.4-3.2l-2.3-3.8
	l-1.7-5l-0.7-5.6l-0.4-8.9l-2.4-23.8l-18.4-71.7l-13.2-25.8l-116.2-210.6l-0.6-1.6l-0.1-0.9l0.4-1.5l23.6-49.2l50.4-104.7l7.6-14.1
	l5.3-2l5.9,2.6l135.5,102l19.2,12.3l-2.6,6.7l31.6,17.6l3.8-6.7l36.3,16.7l2.1,5.3v5.3l-14.9,30.7l0.3,6.1l7,8.5L2248,725
	 M942.8,292.6l3.5,0.4l2.8-0.6l1.8-1.1l87.3-135.3l-0.5-1.3l-5-2.2h-1.3l-1,0.7l-2,5.8l-46.9-11.2L939,136.5l-35.3-12.2l-32-12
	l-20.1-10l-51-29.4l-3.4-1.6l-3.3-0.2l-2.1,1l-1.9,1.7l-0.5,3.1L938.1,289l1.9,2.3L942.8,292.6z M466.2,229.3l-21,47.7l-7.5-3.7
	L280.8,625.1l-1.2,4l-0.1,2.5l0.6,2l1.9,1.7l5.4,2.1l118.4,54.8l11.1-24.4l134.3,60.6l11.3,5.4l26.2,11.7l25.7,11.7l5-11.1l-1.2-0.6
	l2.2-5.1l39.2,16.9l58-54.5l22.5-22.4l1.2,1.3l14.8-13.8l0.7-5.1l21.6-21.5l62.7-64.3l0.9-1.6l-72.3-67.9l45.1-56.4l7.6-10.3
	l4.1-6.2l-42.8-24.1l0.9-0.5l-12-6.8L744,418l-1.8-1l-3.9-2.1L706.7,398l-19.4-39.1l1.5-2.7l-12.3-7.1l0.5-0.7l-91.2-55.6l-17.1-8.3
	l-1.4,2.2l-8.6-5l0.6-3l-10.4-4.5l-78.3-45.6L466.2,229.3z M262.8,1424l111.9-327.8l0.4-4.4l-0.8-3.6l-3-2.6L139.5,972.6l-4.2-1.6
	l-4.9-0.6l-4.2,1l-3.2,3.2L0,1248.1 M0,1361.5l147.1,62.5 M481.8,186.2l27.1-38.1l-1.7-1.6l24.2-33.4l2.4,1.3L568,68l-0.3-4.4
	l2.4-3.2l3-2.8l3.1-1.8l3.7,0l3.6,0.9l9.2,5.8l2.4,2.4l1.1,4.8l2.9,1.5l30.7,66.9l92.4,192.1l0.1,3l-1.6,3.7l-2.3,2.2l-4.4,1.5
	l-4.1-1.1L499.8,214l-8.1-5.7l-4.5,1.6l-8.8-5.5l-2.4-2.4l-1.4-3.6l-0.4-3.9l1.2-4.3l3.7-5.6L481.8,186.2z M0,1147.8l32.9-69.3
	l60.8-114.9l22.7-41.4l55.5-128.3l-13.5-11.5l-10.6-107l-3.8-32.8L0,657.3 M120.3,1424L0,1373.3 M407,1005.4l12.9-15.5l16.1-16.5
	l163.5-150.3l3.5-3.8l0.8-3.4l-0.3-2.6l-1.6-1.7l-7.7-4.2l1.6-2.2L272.5,662.7l-3.9-1.2l-3,0.6l-2.6,2.1L138.4,939.8l-0.8,2.8
	l0.1,2.5l0.9,3.2l2.7,2.5l234,115.1l3.7,1.3l3.6-0.9l2.2-3l4.5-13l-2.6-1.3l9.3-25.8L407,1005.4z M1557.2,1215.7l1.5-3.3l20,8.8
	l2.6,0.4l38.5-14.7l3-1.3l2.7-1.9l5.1-6.3l3.7-5.8l2.2-4.8l0.8-3.8l-1.9-5l-2.9-3.8l-4.8-2.8l-9.5-4.1l2.2-6.5l2.2-0.3l1.7-1.1
	l66.8-139.8l2.1-4.5l1.1-3.6l0.5-2.9l-0.2-4.3l-159-342.5l-3.7-2.1l-5.1,0.6l-111.6,71.1l-80.2,51.1l-2.7,2.5l-1.8,3l-0.9,2.5l1,3.8
	l8.8,11l1.5,1.9l193.6,241.2l7.1,7.6l3.1,5.6l1.4,6.3l-0.3,5.8l-3.5,9.5l-38.2,96.5l0.3,2.8l0.9,3.4l1,1.9l8.9,4l-1.4,3.3
	L1557.2,1215.7z M0,140l28.1-2.9l58-5.7L139,126l1.7-0.3l1.7-0.8l0.9-1.4l-0.4-5.6l11.5-0.9l0.5,3.8l0.4,1.2l1.2,1l1.6,0.4l60.3-6.5
	l2-0.3l2.6-1.1l2.2-1.4l2-2l1.9-2.7l0.5-2.9L218.6,0 M1839.3,0l20.8,14.6l3.8,0.2l2.6-1.5L1883.9,0 M1896.9,0l-21.8,16.9l-1.9,2.4
	l-0.4,2.5l1.3,1.9l3.2,2.1L2033,133.1l-4.2,6.7l11.2,6.8l4.4,0.2l3.6-2.6l58.6-117.8l0.9-2.7l0.6-1.6l-0.4-5.5l-2.5-4.6l-3.8-3.9
	l-4.3-3l-3.4-2.4L2089,0 M2105.3,0l4.1,2.3l4.9,5.1l3.8,11.6l-0.9,6.6l-186.6,373.7l-1,3.3v4l1.2,4l2.2,2.8l37.8,32l6.9,4.9l3.2,1.2
	l3-0.4l2.5-0.9l2.9-3.3l2.3-3.6L2200.7,0 M2227.8,0l-198.5,423.3l-26.1,55.6l-0.6,1.8l0,1.9l0.8,1.9l1,1.2l59.4,47.9l6,6.3
	l36.9,28.1l23.4,14.5l19.6,12.1l28.4,15.7l3.2-0.3l3.3-4.9l48.6-103l14.8-34.1v-3.1l-0.6-3l-1.3-2.6l-2.5-2.1l-88-42.1l-5-3
	l-3.2-3.4l-1.9-4.1l-0.1-4.3l1.7-5L2248,183.4 M2248,299.6l-24.2-16.3l-3.6-2l-2.7-0.3l-2.9,0.4l-1.8,1.7l-55.4,111.1l-1.8,4.2
	l0.4,3.7l1.7,3.5l2.7,2.4l87.7,41.1 M429.2,0l8.7,87.8l64-6.1L525.5,49l12.8-17.7L560.6,0 M604.5,0l-1.8,4.9l-8.6,17.8l-7.1,11.9
	l-1,5.1l0.4,4.2l1.7,3.4l12.2,9l5.4-0.3l6,5.9l63.2,131.3L751,353.1l3.1,3.5l100.2,68.3l4.1,1l3.8-0.3l3.2-1.9l4.1-6l65.2-100.9
	l1.6-3.5l0.4-3.2l-0.7-3.2l-1.5-3.2l-3.4-4.5l-2,1.5L806.1,131.1L711.2,0 M1748,0l-48,27.6l-5,1.5l-5.4,0.5l-99.4,0.1l-4.7,0.8
	l-3.1,2l-2.1,2.8l-0.9,3.4l0.7,3.2l92.7,136.1l6.5,7.4l228.6,206.6l3.9,1.7l4.4,0.4l4.1-0.9l2.9-1.9l2.1-3l112.7-222.8l0.5-2.6
	l-0.4-1.8l-1.2-2.6l-1.8-1.7L1856.3,34.3l-4.9-4.1l-3.6-4.7l-3.2-5.5l-3.7-5.2l-4.4-4.5L1821.8,0 M2248,206.7l-16.5,34.6l-0.5,3.3
	l0.8,2.4l16.3,20.7 M1095.6,0v3.6l-0.5,39.2l-2.7,49.2l-1.1,6.1l-2.3,4.9l-47,70.1l-79.2,123.2l-2.2-1.4l-2.7,4.1l-2.2,4l-0.9,3.5
	l0.1,3.9l1.4,3.1l3.4,5.2l2.6-2.5l56,79.6l-2.2,1.6l2.7,3.1l3.2,1.9l3.7,0.5h3.8l4-2l7.4-6.7l-1.8-1.8l149.5-156.6l2.2,2.3
	l23.9-25.4l-2.5-2.2l33.4-36.3l1.9,1.6l14.2-15.2l-2-2l10.3-11.3l17-18.9l11.9-12.6l21.1-20.6L1334,83l15.7-12.6l3.9-3.5l6.3-4.8
	l6.6-3.9l16-5.4l33-11.6l31.2-11.1l32.3-12.5l41-12.3l3-1.4l2.4-2.3l0.5-1.6 M732.7,0l43.1,57l2.3,1.7l2.5,0.8l3.9-1.3l5.5-1.7
	l5.6-0.7h6l7.3,1.9l16.1,8.9l38.4,21l43.6,18.8l34.5,11.9l100.1,25l3.1,0.8l1.7-0.5l9.8-14.7l19.3-35.4l1.9-45.1l2.3-14.1L1079.3,0
	 M0,461.4L124.8,449l1.5-0.5l0.7-0.7l0.1-1.8l-14-133.5l-0.3-0.9l-0.5-0.6l-1.1-0.7l-1.8-0.2L0,321.4 M1000.6,447.1l-2.7,1.4
	l-49.2,45.6l-2.1,1.7l-1,3.1l0.4,3.1l227.3,362.1l2.1,1.6l3.2,0.3l3.9-2.3l108.2-68.4l1-1.6l0.4-1.3l-1-2.6l-208-264.1l-4-3.4
	l-5.4-1.9l-8.1-3.2l-6.3-5.6l-55.3-62.9L1000.6,447.1z M0,635.1l196.1-19.7l18.6-0.4l15.3,3.5l14.8,4l4.3-1.1l3.2-2.8l71.7-158.4
	l80.2-185.4l-7.3-1.7l-272.8,26.3l18.5,166.9L0,480.9 M244.9,144.7l-42.2,3.9l-23,2.3L158,153l-2.6,0.3l-14.6,1.4l8.7,89.1l3.1,32.8
	l39.8-3.1l7.4-0.5l48-4.4l68.3-6.5l72.3-6.6l36.5-81.9l36.7-50.5l-145.8,14.5L244.9,144.7z M0,299.7l91.9-9.3l0.3,3.3l18.1-1.8
	l2.1-0.9l1.1-1.5l-12.8-136.7L100,151l-1.5-1.9l-1.1-0.1L0,158.8 M734.1,707.9L710.9,729l-20.7,20.5l-12.7,14.1l-22.3,30.3l-1.7,3
	l-0.6,2.4l0.4,2.8l1,2.1l2.1,1.6l3.7,1.4l-2.7,3.2L1015.2,969l0.3-1.3l6.6,2.5l2.5,0.8l2.7-0.3l3.1-2.2l3.9-4.2l5.4-6.3l5.6-5.3
	l6.2-4.8l11.3-7.6l48.5-32.8l44.8-27.4l1.7-2l0.6-2.1l0.1-2l-0.7-2l-58.6-93l-60.1-95.2l-7.5-11.8l-54.4-87.1l-17.1-26.2L934,516.3
	l-2.4-2.4l-2.3-0.4l-3.4,1.3l-46.1,51l-66.5,67.7L734.1,707.9z M2248,486.8l-55.7,122.1l-0.9,3.6l0.1,3.1l1.7,2.6L2248,647
	 M2248,1136.4l-160.5-73l1.7-3.7l-7.8-3.4l-3.8-1.4l-3.1-0.7l-3.8-0.1l-3.2,0.5l-3.3,1.4l-2.7,2.4l-2.1,3.2l-1.8,4.2l-0.6,6l0.2,5.4
	l74.1,270.9l4.8,12.6l3.1,2.4l27.9,11.9h4.1l3.8-2l3.1-3.7l70.1-162.7 M2086,1424l28.3-64.6l-33.3-124l-64.1-35.7l3.1-5.9l-9.6-5.2
	l-2.1-0.7l-3.3-0.2l-2.9,1.1l-2.5,2.3l-4.6,8.7l6.5,3.3l-77.4,152.4l-6.9,13.8l-3.8,7.6l-0.6,2.3l0.3,2.1l1.2,1.9l2.2,2.1l85.2,38.7
	 M774.4,1424l57.7-103.9l-2.4-1.4l1.6-3l0.4-3l-1.1-2.3l-2.2-1.8l-417.9-202.7l1-3l-16.4-7.5l-3.5-0.6l-2.9,0.3l-2.2,2.2L277.4,1424
	 M1521.9,1424l56.4-113.9l-3.7-1.8l2.8-6.2l0.7-3.4l-20.2-55.3l-1.8-2.5l-1.2-1.7l-225.5-101.8l-9.5,3.2L1180.1,1424"/>

<path id="grass" class="st1" d="M1935.1,162.8l19.8,14.3l-1.9,3l-5.2,3.3l-0.4-0.9c-0.3-0.7-0.9-1.2-1.6-1.4l-8.5-2.2
	c-0.3-0.1-0.6-0.1-0.9-0.1l-6.6,0.7c-0.5,0.1-0.9,0.2-1.3,0.6l-5.7,4.8c-0.3,0.3-0.6,0.6-0.7,1.1l-3.5,10.1l-8.2-3.5L1935.1,162.8z
	 M1956.9,183.2c-0.2,0.3-0.5,0.6-0.8,0.8l-7.1,4.5l-0.7,5.9l13.6-3.8l0.1,0c0,0,0,0,0,0l0,0l8.3-2.2l-11.4-8.2L1956.9,183.2z
	 M1899.4,185.4l6.8,4.9l25.1-30.3l-3.1-2.3L1899.4,185.4z M1987,632.8l5.2,1.3l3.2,0.3l10.8-12.3l-2.9-13.3l-13,4.5l-5.7,4.4
	l-2.9,6.2l0.7,5L1987,632.8z M1910.5,197.9l9.3,6.5l-1.5-3.2L1910.5,197.9z M1888.2,1291.4c-0.3-0.1-0.6-0.4-0.8-0.6l-0.3-0.3
	l-3-1.6l-1-1.9l-1.3-0.5l-3.7,2.3l-6.2,10.1l17.3,8.4l25.6,12.5l6-11.9l-16.7-8.6L1888.2,1291.4z M2061.7,1195.9l-8.6-31.7l-0.1,0
	c-0.2,0-0.3,0.1-0.5,0.1c-0.1,0-0.2,0-0.3,0l-6.7-0.8l0.7,6c0,0.1,0,0.1,0,0.2l0.7,16.7c0,0.4-0.1,0.9-0.3,1.3L2061.7,1195.9z
	 M2030.6,1158.6l-0.1,0l-8.3,15.5l19.8,11.1l-0.6-15.1l-0.9-7.5l-9.7-3.8C2030.7,1158.6,2030.7,1158.6,2030.6,1158.6z
	 M2045.4,1158.6l6.3,0.7l-5.3-17.5l-1.5-4.9l-3.1,0.9l4.1,15.5c0.1,0.3,0.1,0.6,0.1,0.9L2045.4,1158.6z M2041.1,1154.1l-3-11.2
	l-5.4,11.3l8,3.1L2041.1,1154.1z M1987.2,263.3l1.5-2.8l-13.6-9.2c0,0,0,0-0.1-0.1c0,0-0.1-0.1-0.1-0.1c-0.2-0.2-0.3-0.3-0.5-0.5
	c0,0,0,0,0,0c-0.1-0.2-0.2-0.4-0.3-0.7c0,0,0,0,0-0.1l-13.2-54.1l-13.7,3.8l-5,8.9c-0.2,0.3-0.4,0.6-0.7,0.8l-7.3,5.3l11.7,8.2
	l4.2,7.3l13.1,9.2l-3.1,6L1987.2,263.3z M1975.4,191.8l-9.9,2.6l13.1,53.3l5.2,3.5l20.7-39.2l-12.3-8.8l-1.2,1.5l-16-9l1.4-3.3
	L1975.4,191.8z M1944.3,187.3l-0.8-1.8l-6.9-1.8l-5.4,0.6l-4.6,3.9l-2.9,8.5l19.8-1.4L1944.3,187.3z M1930.1,211.7l8.2-6l3-5.4
	l-17.5,1.2l3.8,8.4L1930.1,211.7z M1585.2,1270.8l1.5,4l6.4,8.9l7.4,5.5l9.9,3.5l1.2,0l7.2-1.7l4.7-1.7l11.4-4.1l5.9-3l3-2.5
	l2.1-2.5l1.9-2.7l1.9-3.4l1.5-5.1l0-4.6l-0.5-4.9l-1.8-6l-2.3-6.9l-1.7-4.2l-0.5-1c0,0,0,0,0,0l-1.3-2.5l-8.7-7.1l-9.7-3.9l-1.6-0.1
	l-2.9,0.3l-3.2,0.6l-20.5,7.5l-3.6,2.2l-3.3,2.7l-1.8,1.6l-2.3,2.9l-2.8,8.9l-0.2,10.2l0.8,2.5L1585.2,1270.8z M1740,142.3l-3.1,1.3
	l-1.2,3.8l1.7,2.9l3.9,0.3l8.1,9.8l13.4-10.6l-11.6-15.3L1740,142.3z M1508.6,1177.5l0.4,3.5l0.7,0.7l11,5.8l45.2,20.3l2.5-5.8
	c0,0,0,0,0,0c0-0.1,0.1-0.2,0.1-0.2c0-0.1,0.1-0.1,0.1-0.2c0-0.1,0.1-0.1,0.2-0.2c0.1-0.1,0.1-0.1,0.2-0.2c0,0,0,0,0,0l1.2-1
	l-17.6-42.5l-33.3-6.4L1508.6,1177.5z M1687,288.8l-0.3,0.3l0.5,0.8l17.9,29l0.7-0.9l35.8-43.2l-16.2-15.2L1687,288.8z M2084.4,44.5
	l8.1-26.9l15,6l0.6-1.6l-0.4-5.5l-2.5-4.6l-3.8-3.9l-3.6-2.5l-5.5,7.6c-0.1,0.1-0.1,0.2-0.2,0.2l-10.4,11.4
	c-0.2,0.2-0.4,0.4-0.7,0.5l-20.2,10.8c-0.2,0.1-0.3,0.2-0.5,0.2l-3.1,0.8l1.3,0.3c0.1,0,0.1,0,0.2,0L2084.4,44.5z M1470.3,80.9
	l-0.4,22.8l20.2-35.2h-10.1L1470.3,80.9z M1682.8,292l-0.2,0.1l-99.4,74.3l8.3,15.5c0.1,0.1,0.1,0.2,0.1,0.3l5.6,15.4
	c0,0.1,0.1,0.2,0.1,0.3l5.1,24l5.6-3.3l72.4-73.6l19.3-19.8l2.1-2.5l-18.8-30.5L1682.8,292z M1786.5,997.5l126.3,67.3l-4.1,7.8
	l-15.5,29.5l-140.6-76.6l13.7-29.5l14.6,7.3c0.3,0.2,0.7,0.3,1.1,0.3c0.9,0,1.7-0.5,2.1-1.3L1786.5,997.5z M1902.6,1069.2
	l-118.5-65.3l-7.7,14l119,65.4L1902.6,1069.2z M1495,435.6l27.8,27.2l20.3,19.4l51.8-54.7l0.8-0.5l1.9-1.2l0.6-0.6l-5.5-25.8
	l-5.5-15.1l-7.3-13.6L1495,435.6z M1673.2,430.5l-55.7,59l20.5,20l-19.9,20.6l41.1,37.1l6.8-8.1l8.3-10.2l-18.6-14.5l56.2-71.8
	L1673.2,430.5z M1658.3,1364.9l19.2-4.1l1.6-5.1l-5-12.7c0-0.1-0.1-0.2-0.1-0.3l-1.4-5.6c-0.1-0.2-0.1-0.4-0.1-0.6l0-13.9l-4.8-1.4
	l-28.1,10.6l4.8,14c0.1,0.3,0.1,0.5,0.1,0.8l-0.1,18.9L1658.3,1364.9z M1770.4,379.4l-26.9-21.6l-4.6,0.7l-3.3,3.4l-10.7,11.2
	l-33.9,38.4l0,0.2l3.4,1.8l7-8.4l24.3,19.1l-6.2,8.6l16.7,12l67.5,48.4l2.4-4.6l-26.3-81.8L1770.4,379.4z M1572.7,1204.4l-2,4.6
	l4.2,0.2l32.1-12.2l8.9-15.6l10.6,4.2l5.4-10.1l-20-9.5l-0.2-0.5l-53.3-7.1l17.1,41.5c0.4,1,0.1,2.1-0.6,2.8L1572.7,1204.4z
	 M1616.6,1341.8l-7.7,8.9l1.3,4.3l6.1,6.2c0.7,0.7,0.9,1.7,0.6,2.5l-5,13.6l11.9,9l9.5-10.6l6.1-8.4l0.1-20.3l-4.5-13.3
	L1616.6,1341.8z M1521.2,1146.5l30,5.8l-12.2-49.4L1521.2,1146.5z M1609.3,1160.2l-27.5-60.7l-37-11.1l-2.8,6.8l14.3,58
	L1609.3,1160.2z M90.2,922.7L78,915.8l-2.1,4l12.3,7.1L90.2,922.7z M119.8,480L79,484.1l1.8,19.3l40.7-4.2L119.8,480z M60.6,911
	l2.2-3.8l-6.4-3.6l-2.2,3.8L60.6,911z M43.4,901.1l6.6,3.8l2.2-3.8l-6.7-3.8L43.4,901.1z M1525,24.7l-33.4,11.8l-10.3,3.6l-12,4.2
	l-30.9,10.9l-46.1,16.3l-12,4.3l-6.8,3.3l-5.8,3.7l-10.4,7.5l-14.5,12.3l-33.9,34.6l-17.3,18.2l-6,6.5l21.7,33.6l148.6-72l8.8-11.4
	l0.6-32.3c0-0.5,0.2-1,0.5-1.4l10.8-13.9c0.5-0.6,1.2-0.9,1.9-0.9h14.5l37.5-40.1l-0.1-0.4L1525,24.7z M2035.6,120.3
	c0,0.1-0.1,0.1-0.1,0.2l-4,9.4l0.2,0.2l6.4,2.1l6.9-0.8l15.2-30.4l4.7-9.4l6.3-12.7l11.8-29.7l-23.2-6.5L2043.6,95L2035.6,120.3z
	 M144.1,1255.7l11.2,4.6l27.8-63.9l-55.4-28.6l-20.9,51l44,18.3L144.1,1255.7z M222.9,665l5.3-12.3l-26-7l1.4,17.4l15.4-1.5
	l-0.9,3.8L222.9,665z M139,85.8l-2.9-9.6l-5.8-3.7l-5.2-1.6l-80.9,8.3l4.6,48.2l93.2-9.6L139,85.8z M2142.3,1393.5l11.7,30.5h1
	l30.2-11.3L2142.3,1393.5z M1756.8,1347.4l-6.2-7.7l-2.7-3.4l-71.4-34.2l-41.7,15.8l0,0.2l3.1,9.1l28.7-10.8c0.5-0.2,1-0.2,1.5-0.1
	l14,4.1c0.1,0,0.2,0.1,0.3,0.1l55.5,24.8c1.2,0.5,1.8,2,1.2,3.2c-0.5,1.2-2,1.8-3.2,1.2l-55.3-24.8l-3.5-1l0,12.2l1.3,5.1l5.3,13.3
	c0.2,0.5,0.2,1.1,0.1,1.6l-1.4,4.7l17.6,3l13.2-1.5c1.3-0.1,2.5,0.8,2.7,2.1c0.2,1.3-0.8,2.5-2.1,2.7l-13.5,1.5c-0.2,0-0.5,0-0.7,0
	l-20.3-3.5l-20.3,4.4c-0.1,0-0.3,0-0.4,0.1l-15.5,0.7l-4.5,6.2l9.1,6.4l22.8,11.7l15.3-7.4c1.2-0.6,2.7-0.1,3.2,1.1
	c0.6,1.2,0.1,2.7-1.1,3.2l-16.4,7.9c-0.3,0.2-0.7,0.2-1.1,0.2c-0.4,0-0.8-0.1-1.1-0.3l-24-12.3c-0.1-0.1-0.2-0.1-0.3-0.2l-9.5-6.7
	l-9.4,10.5l-5.3,10.9c-0.4,0.9-1.3,1.4-2.2,1.4c-0.4,0-0.7-0.1-1.1-0.2c-1.2-0.6-1.7-2-1.1-3.2l4.6-9.4l-13.6-10.2
	c-0.9-0.6-1.2-1.8-0.8-2.8l5.1-13.9l-5.4-5.5c-0.3-0.3-0.5-0.6-0.6-1l-1.9-6.1c-0.2-0.8-0.1-1.7,0.5-2.3l8.9-10.3
	c0.2-0.3,0.5-0.5,0.9-0.6l19.3-8.5l-3.2-9.4l-28.4,10.8l-33.4,71.1l51.8,22.4h44.1l43.2-35.8L1756.8,1347.4z M288.1,12.9
	c1-0.1,2,0.4,2.4,1.3l3.6,7c0.1,0.1,0.1,0.2,0.1,0.3l3.5,10.1l12.1-17.3l-6.9-7.9c-0.2-0.2-0.3-0.4-0.4-0.6L300,0h-50.7l1.7,17
	L288.1,12.9z M49.8,1313.6l1.2-0.1l6.5-3.4l5.1-6.7l3.1-10l-1-7.8l-2.5-3.1l-5.1-1.3l-5.3,1l-5.4,6.2l-4.3,10l-0.6,8.8l1.3,4.3
	l3.4,1.8L49.8,1313.6z M1073.8,1299.6l-35.2,76.1l91.4,48.3h19.8l36.6-71.8L1073.8,1299.6z M250.3,1343.4l-93.2-40.1l-30.2,69.9
	l97.1,41.1L250.3,1343.4z M71.7,917.4l2.1-3.9l-6.7-3.8l-2.3,3.8L71.7,917.4z M191.2,1276.8l50.1,21.1l1.8-4l-49.8-22L191.2,1276.8z
	 M258.1,90.9l1.3,13.2l0.5,0l-1.1-13.2L258.1,90.9z M286.9,17.9l-35.5,4l6.2,64.2l2-0.2l26.4-38l8.2-11.5l-4.6-13.2L286.9,17.9z
	 M1049.2,195.4c-0.4,0-0.9-0.1-1.3-0.4l-9.4-6l-1.5,2.3l43.5,28l16-24.9l-43.5-28l-11.9,18.4l9.4,6c1.1,0.7,1.5,2.2,0.7,3.3
	C1050.8,195,1050,195.4,1049.2,195.4z M293.2,46.4l7.2-0.7L297,41L293.2,46.4z M1496.1,67.6l-26.8,46.8c0,0,0,0.1-0.1,0.1
	c0,0,0,0.1-0.1,0.1c0,0,0,0,0,0.1l-3.3,4.3l102-49.5l-29.5-48.4l-3.2,0.9l0.5,1.4c0.3,0.9,0.1,1.8-0.5,2.5L1496.1,67.6z
	 M2035.9,32.7C2035.8,32.7,2035.8,32.7,2035.9,32.7L2016.3,0h-8.8l-5.1,9.9l-10.9,18.8L2035.9,32.7z M137.5,1292.5l-25.4,62.5
	l14.5,6.5l0.4-0.8l24.8-61.9L137.5,1292.5z M1977.9,75.5c-0.3,0-0.5,0-0.8-0.1l-10.1-3.6l-3.5,6.2l1.2,0.8l21.1,14l1.5,6.9
	l40.3,27.4l3.6-8.4l7.3-23.1l-1.5-0.7c-1.2-0.6-1.7-2.1-1.1-3.3c0.6-1.2,2.1-1.7,3.2-1.1l0.8,0.4l15.2-49.3l-9.1-1.8c0,0,0,0,0,0
	c0,0,0,0,0,0l-9.8-2.2l-47.2-4.3l-19.5,34.2l9.3,3.3c1.3,0.4,1.9,1.8,1.5,3.1C1979.8,74.9,1978.9,75.5,1977.9,75.5z M189.4,645.5
	l-38.7,3.5l2.8,22.8l43-4.3l-2.8-22L189.4,645.5z M154.1,677.7l6.2,57.8l32.9-3.7l8.8-18.8l-3.9-39.7L154.1,677.7z M372.7,39
	l8.8-0.3l-6.8-6.6L372.7,39z M392.8,655.5l17.6-32.7L378,604.8l-15.5,34.8L392.8,655.5z M352.9,15.6c0,0-0.1,0.1-0.1,0.1l-5.3,4.1
	c-0.2,0.2-0.5,0.3-0.8,0.4l-8.5,2.4c-0.1,0-0.2,0.1-0.3,0.1l-7,0.9c-0.1,0-0.2,0-0.3,0c-0.1,0-0.3,0-0.4,0l-7.9-1.5
	c-0.2,0-0.4-0.1-0.6-0.2l-7.3-3.5c-0.2-0.1-0.4-0.2-0.5-0.3l-0.4-0.3l-13.4,19.2l6.1,8.3l2.8-0.3l58.8-5.5l3.2-11L355,13.8
	L352.9,15.6z M389.1,39.1l44.2,39.8l-5.7-75.3l-28.2,3.2L385.7,8l-5.6,9.5l-3.8,9.5L389.1,39.1C389,39.1,389,39.1,389.1,39.1z
	 M311.7,49.4l0.2,1.4c0.2,1.3-0.8,2.5-2.1,2.7c-0.1,0-0.2,0-0.3,0c-1.2,0-2.2-0.9-2.4-2.1l-0.2-1.6l-1.8,0.2l-15.6,1.5l-25.9,37.3
	l1.2,14.8l169.5-15.5l-0.4-2.1l-47.4-42.7L369.6,44L311.7,49.4z M1443.2,471.9l-29.1-64.9l-4.3-6.9l-35.5,19.7l12.1,10.5
	c0,0,0,0,0,0l45.8,39.8l10.4,8.1L1443.2,471.9z M907.6,547l31.7,91l62.1,154l3.4-1.6l-92.8-248L907.6,547z M1069.1,1297.5l-2.5-1.2
	l-35,75.7l2.5,1.3L1069.1,1297.5z M1003.2,796.5l50.9,142.2l5-3.4l-52.6-140.5L1003.2,796.5z M896.5,559l4.4,22.5
	c0,0.2,0.1,0.4,0,0.6l-1.6,31l13.4,32.7l21.4-8.3L903.9,551L896.5,559z M661.9,792.6l3,11.7l11.2,5.3l5.9-12.2
	c0.1-0.2,0.2-0.4,0.4-0.6l25.2-27.4c0,0,0,0,0.1-0.1l26.4-28.8l-6.3-15.4L661.9,792.6z M870.1,1335.1l-16.9-8.2l-51.2,97.1h19.3
	L870.1,1335.1z M789.5,699.7L804,733l5.5-2.4c1.2-0.5,2.7,0,3.2,1.3c0.5,1.2,0,2.7-1.3,3.2l-5.5,2.4l17.7,40.8
	c0.1,0.2,0.1,0.4,0.2,0.5l11.1,61.7l28.5,9.9L997,794l-61.3-152l-23.5,9.2c-0.3,0.1-0.6,0.2-0.9,0.2c-1,0-1.9-0.6-2.2-1.5
	l-13.3-32.5L789.5,699.7z M878.2,578.6l-79.7,74l-67,68.6l6.4,15.6l47-39.9l0.2-0.1c0,0,0,0,0,0l109.4-84.6l1.6-30.1l-3.6-18.8
	L878.2,578.6z M1037.6,1068.6l-2.2-1.4l-26.9,49.6l2.8,2L1037.6,1068.6z M875.7,1297.5l24.9,11.6l40.4-75.3c0.1-0.2,0.2-0.3,0.4-0.5
	l1.1-1.2l-33.4-14.8l-36.3,70.5l0.4,4L875.7,1297.5z M1009.7,929.4l9.8,31.4l20.8-13.1L1009.7,929.4z M1031.2,1064.8l-34.5-17.7
	l-25.5,49.6l33.2,17.6L1031.2,1064.8z M1008.9,1123.5l-2.8-2l-22.4,43.7l2.8,1.2L1008.9,1123.5z M984.1,1170.9l-2.7-1.2l-31.5,60.5
	l2.6,1.2L984.1,1170.9z M946.7,1242.5l3.6-6.8l-3.1-1.5l-2,2.2l-40.2,74.8l6.1,2.8L946.7,1242.5z M869.2,853.1l113.2,56.7l12.6-20.7
	c0.7-1.1,2.2-1.5,3.3-0.8c1.1,0.7,1.5,2.2,0.8,3.3L986.8,912l19.8,9.9c0.1,0,0.1,0.1,0.2,0.1l38.1,22.9l3.6-2.3l1.5-1l-51.2-143
	L869.2,853.1z M2039.7,29.7l7.2,5.1l12-3.2l19.5-10.4l10-11l0.9-1.3L2073.5,0H2022L2039.7,29.7z M23,748.1l-8.7,8.1L8.8,767l0.7,9.8
	l16.1,4.3l5.1-13.6l2.8-18.2L23,748.1z M1910.4,41.9l49,33.3l26-45.8c0,0,0,0,0,0c0,0,0,0,0,0l12.7-21.9l3.9-7.5h-51.8l-47.8,36.5
	L1910.4,41.9z M22.3,888.9l6.5,3.7l2.1-3.7l-6.6-3.7L22.3,888.9z M23.6,1156.2l75-168.2l0.7-2.8l-9.5,12.2l-22.1,45.8l-21.5,47.5
	l-16.2,35L0,1193.4v14.3L23.6,1156.2z M25.3,743.5l9,1l1.7-10.8l-1.6-33.9L13,701.2l2.5,3.3c0.2,0.3,0.4,0.6,0.4,0.9l1.1,4.6
	c0.1,0.3,0.1,0.7,0,1l-0.6,3.4l5.9,6c0.2,0.2,0.4,0.4,0.5,0.7l1.8,4c0.1,0.2,0.1,0.4,0.2,0.6l2,11.8c0.1,0.4,0,0.7-0.1,1.1
	L25.3,743.5z M41.3,894.9l-6.3-3.6l-2.1,3.7l6.3,3.6L41.3,894.9z M2201.4,1388.5l13.4-0.7l33.3-75.4v-43l-52,117.6L2201.4,1388.5z
	 M2122.1,1424h26.7l-12.5-32.5L2122.1,1424z M2190,1394.5l-7.1,6.3l-8.5,0l-33.2-13.8l-0.8,0.4l49.9,22.3l7.4-17.1l-4.9-1.3
	L2190,1394.5z M2129.3,1392.8l-13.8,31.2h1.3l14-32L2129.3,1392.8z M2238.5,265.4l-4-4.4l-5.3-1.3l-4.8,0.3l-1.7,3.7l-0.3,3.1
	l1.6,3.9l1.4,1.2l22.6,14.5v-7.8l-4.5-6.1L2238.5,265.4z M2204,1415.8l8.7,3.9l7.8-18.6l-5.5-8.4l-12.3,0.6l-8,18.4L2204,1415.8
	C2204,1415.8,2204,1415.8,2204,1415.8z M997.3,1406.9l-112.8-49.1l6.6-12.5l-16.7-8.1l-47.7,86.8h177.6l6.8-10.7L997.3,1406.9z
	 M2219.1,1389.9l5.9,9l4.7,2.3l0.2-1.6l18.1-40v-35.2L2219.1,1389.9z M1442.1,483.9l-13-10.1l-44.2-38.4l-33.7,29.3
	c-0.1,0.1-0.2,0.2-0.3,0.4l57,47.3l33.5-20.3L1442.1,483.9z M1326.2,364l-10.5,6.1l54.6,46.2l36.9-20.4l-36.2-58.5L1326.2,364
	C1326.2,364,1326.2,364,1326.2,364C1326.2,364,1326.2,364,1326.2,364z M1347.1,461.7c0.3-0.3,0.6-0.5,0.9-0.6l33.2-28.9l-11.5-10
	l-41.2,23.5c-0.4,0.2-0.8,0.3-1.2,0.3c-0.1,0-0.3,0-0.4-0.1l20,15.9L1347.1,461.7z M1280.1,214.2l-10.1,32.4
	c-0.1,0.3-0.2,0.6-0.4,0.8l-37.2,46.9l30.1,27l23.5,22.1l51.3-60.4l-45.5-73.6L1280.1,214.2z M1365.8,418.9l-54.5-46.2L1273,396
	l54.6,44.6L1365.8,418.9z M1210.9,336.5l42.8,41l29.1-30.6l-23.5-22.1l-29.4-26.4L1210.9,336.5z M1329.6,1091l0.6-2.4l-16.5-8.9
	l-11.7-6.1l-13.2-5.7l-8.7-2.2l-4.5-0.7l-14-4.5l-1.7,3.5l-1.3,4.8l60.8,26.5L1329.6,1091z M1307.5,369.4l-21.1-19.1l-29.2,30.7
	l12,11.8L1307.5,369.4z M1317.6,349.7l44.3-27.1l-21.8-35.3l-50.4,59.3l22.2,20.1l11.9-6.9c0,0,0,0,0,0l44.7-26.6l-4-6.5l-44.3,27.1
	c-0.4,0.2-0.8,0.4-1.3,0.4c-0.8,0-1.6-0.4-2.1-1.2C1316.1,351.9,1316.4,350.4,1317.6,349.7z M1262.4,959.1l2.6-2.6c0,0,0,0-0.1,0
	c0,0,0,0,0,0l-14.7,0c-0.4,0-0.7-0.1-1-0.2l-0.4-0.2l-0.5,0.7l8.2,2.9L1262.4,959.1z M1213.3,906.9l79.6-52.4l-13-21.1l-83,49.7
	l14.3,23.6L1213.3,906.9z M1408.9,1038.2l0.1,0.6l21.7-0.9l-0.7-15.1l-21.8,1.4L1408.9,1038.2z M1184,890.7l18.6,23.2l5-3.3
	c-0.1-0.1-0.2-0.2-0.3-0.3l-14.9-24.6L1184,890.7z M1252,951.6l11.4,0l-0.7-1.1l-9.1-1.2L1252,951.6z M1297.6,851.4l-2-2.5l1.7,2.8
	L1297.6,851.4z M1268.9,440.1l-9.7,8l26.6,36.5l17-16.5L1268.9,440.1z M1141.4,311.5l31.5,48.8l6.7-17.1l17.3-8.9l49.7,48.1
	l63.6,50.3l-42.9-35.1c0,0-0.1-0.1-0.1-0.1c0,0-0.1,0-0.1-0.1l-15-14.8l-45.8-43.9c0,0-0.1-0.1-0.1-0.1c-0.1-0.1-0.1-0.1-0.1-0.2
	c0,0-0.1-0.1-0.1-0.1l-38.3-54.1L1141.4,311.5z M1015.2,963.4l-11.7-37.7l-139-69.6l-18.1,33.2l168,74.6L1015.2,963.4z M686.2,799.8
	l-5.7,11.9l104.1,49.4l57.3,26.3l18-33.1l-28-9.7c0,0,0,0,0,0c0,0,0,0-0.1,0c-0.1,0-0.2-0.1-0.3-0.2L709.9,774L686.2,799.8z
	 M795.3,738.3l4.8-2l-14.5-33.5l-47,39.9l-25.4,27.7l116.1,67.2L819,779.9l-17-39.1l-4.9,2c-0.3,0.1-0.6,0.2-0.9,0.2
	c-1,0-1.9-0.6-2.2-1.5C793.5,740.2,794.1,738.8,795.3,738.3z M1057.9,1029.6l-0.3-0.2l-19.7,33.3l2,1.3L1057.9,1029.6z
	 M999.1,1042.6l34.7,17.8l19.5-33.1l-36.7-18.7L999.1,1042.6z M1355.4,639.4l-12.6-18.5l-4.9,3.3l13.2,18.4L1355.4,639.4z
	 M1174.4,1112.3l13.1-29.4l-30.4-14l-13.3,29.7L1174.4,1112.3z M1002,1118.8l-33.2-17.5l-23.8,46.3l34.3,15.5L1002,1118.8z
	 M1401.8,1119.1l-55-24.6l-0.2,0.6l2.4,3l53.1,24.5L1401.8,1119.1z M1190.9,260.3l37.9,30.8l36.8-46.4l10.3-33
	c0.2-0.7,0.7-1.2,1.4-1.5l12-5l-17.6-28.4L1190.9,260.3z M1401.1,1127.4l-54.7-25.2c-0.4-0.2-0.7-0.4-0.9-0.7l-0.8-1l-1.9,5.3
	l56.7,25.9L1401.1,1127.4z M1171.1,280.7l36.5,51.6l18.5-37.1l-38.6-31.4L1171.1,280.7z M1060,972.6l1.6,6.8l27.8,10.7l48.6-29.5
	l50.8-31.3l-19.5-28.5l-104.3,67.6L1060,972.6z M911.3,1213l34.1,15.2l31.5-60.5l-34.3-15.5L911.3,1213z"/>

<path id="sport" class="st0" d="M968.4,1424l-6.4-5.1l-8.7-5.3l-9.1-3.4l-9.5-1.7l-9.7-0.3l-9.4,1.3l-8,2.3l-7.5,3.3l-5.9,3.9
	l-5.3,4.4l-0.6,0.6 M870.9,1424l12.4-23.6l11.3,6.1l3.5-1.8l8.1-4.1l7.1-2l7.5-1.2l8.6-0.3l8.5,0.4l7.9,1.9l7.5,2.5l6.4,2.9l6.1,3.3
	l5.6,4.1l5,4.6l5.9,7 M966.6,1424l-1.5-1.3l-4.6-3.4l-4.9-2.9l-5.1-2.4l-5.4-1.9l-5.5-1.3l-5.6-0.8l-5.7-0.2l-5.7,0.4l-5.6,0.9
	l-5.5,1.5l-5.3,2l-5.1,2.5l-4.8,3l-5.2,3.7l0.6,0.3 M1357.6,427.3l-4.2-4.7l-4.2,2.3l4.6,5.2L1357.6,427.3z M852.3,837.2l21.3-7.8
	L858,794.6l-20.9,7.1L852.3,837.2z M806.7,766.3l-6.4,1.8l4.6,10.3l6.9-2.3L806.7,766.3z M968.6,797.6l-1.1-2.5l-55.7-131.7
	l-88.6,37.5l56.8,134.3L968.6,797.6z M370,44.9l-19.8,2.2l4.2,38.4l19.8-2.2L370,44.9z M335.6,48.4l-26.1,2.8l-4.2,0.4l4,38.3
	l30.3-3.2L335.6,48.4z M1342.3,427.9l5.9,6.5l3.9-2.9l-5.9-6L1342.3,427.9z M1364,424.2l-4.4-4.6l-4,2.5l4.3,4.3L1364,424.2z
	 M1571.4,880.4l-2.2,4.5l5.5,4.6l4.4-5.2L1571.4,880.4z M1884.7,1205.3l-13.4-7.4l-17.1,31.2l13.4,7.4l15.1-27.4L1884.7,1205.3z
	 M1397.7,394.1l-30.9-51.9l-26.7,16l30.9,51.9L1397.7,394.1z M2048.8,61.2l-59.7-20.6l-11.2,32.4l-0.6,1.8l59.7,20.6l1-2.8
	L2048.8,61.2z M1208.3,369.2l108.3,84.3l4.1-5.2L1212.4,364L1208.3,369.2z M1321,426.2l25.3,27.2l9.3-6.5l-25-27L1321,426.2z
	 M1221,388.9l-3.8,5l90,67.3l3.7-5.5L1221,388.9z M1317.6,501.6l19.9-24.2l-14.7-12.1l-20,24.2L1317.6,501.6z"/>

<path id="build" class="st2" d="M1817.6,1160.3l-5.1,9.5l2.6,1.4l-11.7,16.3l-2-1l-1.9,3.7l1.9,5.3l5.3,2.8l1.4-2.6l5.3,2.8
	l-5.1,9.6l-15.2-8l-1.5,2.8l-3.7-1.9l1.3-2.4l-2.8-1.5l4.5-8.5l-1.9-1.1l-9.9-5.2l-3.7-2l-0.8,1.5l-30.5-16l12.6-24.1l44.2,23.2
	l-1.6,3l2.2,1.1l4.9-9.2l2.2-4.2L1817.6,1160.3z M2058.8,466.5l25.9,12.7l12.7-26.6l-26.4-12.4L2058.8,466.5z M1905.2,1406.9
	l-7.8,15.3l-0.9,1.8h47l-21.1-9.5L1905.2,1406.9z M1935,1283.2l7-17.4l9.4-18.9l-35.5-18.2l-4.2,8.6l17.3,8.9l-5.1,9.9l-2.4,9.1
	l-17.3-8.7l-4.5,9l-4.2,8.3l16.5,8.3l-5,9.9l18.7,9.4L1935,1283.2z M1923,1154.8l-25.5-14l-19.1-9.9l-19.5-10.8l-22.4-12.4
	l-24.7-13.7l-3.4,6.2l-22.1-12.2l-23.3-12.9l-23.3-12.9l-9.4,16.9l23.3,12.9l23.3,12.9l22.1,12.2l1.4-2.4l17.4,9.6l-4.8,8.6l7.3,4
	l9.6,5.3l5.8-10.4l12.8,7.1l11.5,6.7l-17.1,34.3l8.1,4l9.5,4.7l17.1-34.3l10.6,4.3l-5,9.6l5.4,2.8l0.8-1l4.4-0.6l3.2-6.1l10.4,5.1
	l0.1,1.7l-3.1,0.7l-1.5,3.3l0.7,5.9l4.8,2.8l4.3,2.3l5.5-2.5l1.5-2.6l-1.7-3.3l2.1-0.9l11.9,6.5l0.1,2.3l-3.2,0.6l-1,2.3l0.9,6
	l5,2.7l15.1-27.5L1923,1154.8z M2128.6,571.5l2.7-5.4l-5.5-2.9l-2.8,5.1L2128.6,571.5z M1972.3,1205.6l9.4-18.5l-17.6-9.7l-15.1-8.3
	l-15.2,27.3l9.5,5.2l2.6-4.8l-2.1-1.2l1.3-2.8l3.4-0.9l3.7,2l-0.1,0.8l3.6,1.9l-4.8,8.9l-1.5-0.7l-1.3,0l-2.1,4.3l0.5,1l1.8,1
	l-2.4,4.6l16.9,8.9L1972.3,1205.6z M2114.9,431.8l114.9,55.8l7.7-16.9l-114.7-55.6L2114.9,431.8z M2194.6,414l-0.9,2l4.4,2l0.9-2
	L2194.6,414z M2184.3,660.6l-13.2-6.9l-2.5-1.4l-3.2,5.9l-7.4-4l0.4-0.7l-1.5-0.9l-0.4,0.8l-1.9-1.1l0.9-1.7l-1.4-0.8l-0.9,1.8
	l-1.5-0.8l-1.4-0.8l1-1.7l-1.4-0.8l-0.9,1.8l-1.8-1l0.3-0.7l-1.6-0.9l-0.3,0.6l-7.3-4l-7.2,13.5l-1.2-0.6l-0.8,1.4l1.2,0.6l-3.5,6.5
	l-1.1-0.6l-0.9,1.4l1.1,0.6l-3.4,6.4l-1.1-0.6l-0.7,1.4l1.1,0.5l-3.5,6.4l-1.2-0.5l-0.6,1.5l1.1,0.4l-3.8,7.2l-1.2-0.6l-0.7,1.4
	l1.1,0.6l-2.3,4.3l1.1,3.3l4.6,2.4l3.2-1.1l1,3.4l5,2.5l3.2-1l0.9,3.4l4.6,2.3l3.4-0.8l2.4-4.3l1.1,0.6l0.7-1.5l-1-0.4l3.9-7.1
	l1.1,0.6l0.7-1.5l-1.2-0.5l3.5-6.3l1.1,0.6l0.8-1.5l-1.1-0.5l3.7-6.4l1.1,0.5l0.6-1.4l-1-0.5l3.4-6.3l1.1,0.6l0.8-1.5l-1.1-0.6
	l2.6-4.6l4.7,3.1l-0.8,1.7l0.2,1.4l3.1,1.7l1.4-0.2l0.4-0.8l1.5,0.8l-2.5,4.4l-2.9-1.6l-6.2,11l7.2,4l8.6-15.5L2184.3,660.6z
	 M2189.3,664.6l-14,25.4l17.2,8.2l4.3-9.5l0.8,0.1l1.6-1.7l-0.3-2.4l4.2-9.1L2189.3,664.6z M2210.5,417.6l18.7,8.8l13.7-28.9
	l-18.7-8.9L2210.5,417.6z M2185.1,360.8l-12.8,26.8l-4.7,9.8l18.6,8.9l24.2-50.8l-18.6-8.8L2185.1,360.8z M2196.8,335.6l18.9,8.8
	l13.7-29.3l-18.9-8.8L2196.8,335.6z M2088.9,507.7l-4,8.4l5.7,2.7l-6.7,14.1l75.9,36.5l2.3-4.9l5.8,2.8l0.4-0.8l4.6,2.2l20.5-42.8
	l-4.6-2.2l0.3-0.6l-6.1-2.9l4.2-8.8l-4.8-2.3l4.3-9l-70.6-33.9l-21.2,44.4L2088.9,507.7z M2246.3,736l-18.6-9l-17.9-8.6l-35.6,74.6
	l36.5,17.5L2246.3,736z M1594.7,1360.1l6.9,3.4l4.6-9.4l-6.9-3.4L1594.7,1360.1z M1027,583.1l-15.2-34.2l-16.3,7.3l15.3,34.6
	l5.9-2.6l1.6,4l1.5-0.7l12.3,27.9l12.4,28.2l6-2.7l1.7,3.8l1.4-0.6l15.2,34.4l16.4-7.3l-15.3-34.4l-5.6,2.4l-1.6-3.7l-1.9,0.8
	l-6.2-14.3l0.8-0.4l-1.7-4l-0.8,0.4l-4.2-9.6l-4.3-10l0.8-0.3l-1.8-4.1l-0.8,0.3l-6.5-14.1l-5.7,2.4l-1.8-4L1027,583.1z M1037,536.6
	l-4.6-1.5l-2.6,7.3l4.9,1.6L1037,536.6z M1084.3,531.1l-0.6,0.5l-6.5-9l-7.9,5.7l-2-2.6l-4.7,3.7l1.9,2.5l-1.5,1.3l30.9,43.4
	l2.3-1.7l30.9,43.6l2.9-2.2l27.4,38l-2.4,1.9l0.2,0.6l-35,26.2l-4.7-6.5l-4.1,3.1l4.7,6.5l-10.9,8.4l-0.3-0.5l-7.3,5.3l5.4,8.1
	l1.5-1l4.3,6.1l6.8-4.4l-0.8-1.4l3.1-2.3l2.3,0.5l4.8-3.2l-1.1-1.7l3.1-2.5l2.2,0.2l4.9-3.5l-0.9-1.2l4-2.9l2,0.2l4.5-3.2l-0.8-1.4
	l3.6-2.7l1.9,0.3l4.7-3.3l-0.8-1.3l3.6-2.9l2.1,0.3l4.8-3.4l-0.9-1.3l3.1-2.2l2.1,0.1l4.6-3.3l-4.4-6.4l3.6-2.8l-1.8-2.7l6.8-5
	l-6.5-8.8l0.7-0.5l-2.7-3.8l-0.7,0.5l-12.9-18l0.7-0.5l-2.9-4.1l-0.7,0.4l-6.4-9l-2.7,1.8l-6.5-8.9l0.8-0.7l-2.6-3.4l-0.8,0.6
	l-12.9-18l0.6-0.5l-2.8-3.9l-0.7,0.4l-6.3-8.7l-2.5,1.7l-0.1,0l-6.1-8.6l0.6-0.4l-2.6-3.6l-0.8,0.5l-13-18.2l0.5-0.4L1084.3,531.1z
	 M1051.2,1189.7l2.8-3.4l2.4,1.5l2.2-4.7l5.7-7.4l-13-10.5l-25.7-20.2l-16-12.4l-5.6,6.9l-1.3-0.9l-3.5,4.7l2.4,2l-2.2,3.5
	L1051.2,1189.7z M1719.6,1212.1l10.1,5.1l8.9-17.8l5.8-11.6l-16.9-8.5l12.5-25.6l-4.7-2.3l3-6.2l-10.8-5.3l-3.1,6.4l-3.9-1.9l-4.1-2
	l-1.7,3.5l4.1,2l3.6,1.7l-17.2,35.2l-3.2-1.6l-4.5-2.2l-1.4,2.8l4.5,2.2l3,1.5l-1.7,3.5l15.9,7.8l-5.1,9.7l-2.2-7l-5.3,0.9l-5.8,1.5
	l4.5,8.9l-14.2,5l-2.7-8.9l-1.4-8.8l5.3-5.9l-19.5-9.6l-8.1,16l4.7,13.3l6.7,19l6.6,18.5l0.8,2.4l7.4,21.2l26.8,11.7l7-15.5
	l-19.4-8.6l-6.6-16.8l3.7-1.7l-3.9-9.9l12.5-3.1L1719.6,1212.1z M1207.9,704.3l-0.9,0.8l-7.4-8.7l-7.6,6.2l-2.1-2.6l-5.3,4.3
	l2.2,2.5l-1.5,1.2l17.7,22l2-1.7l59.4,72.3l1.1-1.1l1.9,2.2l5-4.4l-1.2-1.5l7.6-6.6l-7.8-9.8l1.1-0.9l-4.2-4.8l-1.1,0.9l-13.3-16.7
	l0.9-0.7l-4.1-5l-1,0.8l-17.6-21.3l1-0.9l-3.7-4.9l-1.1,1l-8.6-10.4l-1.9,1.7l-5.4-6.6l1-0.9L1207.9,704.3z M1730.8,81.4L1715,92.5
	l15.8,23.9l16.5-11.1L1730.8,81.4z M1662.7,113.6l72.2,90.7l5.7-5.1l13.9,14.5l25,30.4l17.4-15.1l-25.6-29.1l-13.5-15.5l-9.9,8.9
	l-70.8-91L1662.7,113.6z M1271.7,1119.8l-26.3-11.5l-26.4-11.6l-26.1-11.4l-5.3-2.4l-13.1,29.4l-30.6-13.7l13.3-29.7l-5.9-2.6
	l-26.4-11.9l-43.7-19.5l-9.1-4.1l-7.4,17.2l52.1,23.7l-1.2,2.7l18.2,8.3l-7.2,16.3l8.4,3.6l6.1,2.7l-21.6,46.7l-4.6-2.1l-3.7,8.5
	l4.2,2.1l-1.4,2.7l1.1,0.6l-0.2,0.9l-0.1,1.1l0.8,1.4l0.4,0.6l1,0.5l0.9,0.3l0.6,0.1l0.6-0.1l0.7-0.2l0.8-0.4l1.2-1.2l1.4,0.6
	l-0.4,1.7l-0.2,1.3l0.3,1.5l0.3,1.1l0.9,1.4l1,0.9l0.9,0.7l1.1,0.5l1.1,0.3l1,0.1l1.1-0.1l1.1-0.3l1.1-0.5l0.9-0.6l1.1-0.9l0.7-1.5
	l1.6,0.8l-0.3,1.5l0.4,1.3l0.9,1l1.1,0.7l1.1,0.2l0.9-0.2l1.2-0.3l0.9-1.1l0.9,0.5l1.4-2.5l4.4,2.1l3.7-8.4l-4.3-2.2l17.9-38.2
	l7.8,3.5l3.8-8.3l-2.8-1.3l8-17.8l12.9,6.3l0.9-1.5l5.3,2.6l-1.2,2.2l-2.9,0.8l-5.1,10.1l-2.4,0.1l-1.7,3.1l0.1,1.5l7.7,4.1l3.3,1.8
	l9.8-20.6l26.4,11.5l26.4,11.6L1271.7,1119.8z M1313.9,529.7l-0.4,0.5l17.4,13.6l0.4-0.5l-0.5-0.4l0.5-0.6l18.2,14.2l-0.8,1.1
	l0.5,0.4l0.3-0.5l75.6,58.8l-0.4,0.5l0.3,0.2l-9.9,12.9l0.3,0.3l-3.9,5.1l-4.1-3.2l-0.4,0.5l0.7,0.5l-35.8,46l-0.7-0.5l-0.4,0.5
	l21.3,16.5l0.4-0.5l-0.6-0.5l35.7-45.9l0.7,0.5l0.4-0.5l-6.3-5l3.8-4.9l0.3,0.3l17.1-22.2l-0.6-0.5l9.6-12.4l8.1,6.3l6.4-8.3
	l-4.7-3.7l5.3-6.8l-6.5-5.1l-5.2,6.8l-7.6-5.8l-10.3,12.3l-51.3-39.9l3-3.9l-10.4-8l-3,3.9l-13.9-10.8l0.4-0.5l-0.5-0.4l-3.8,4.9
	l-18.1-14.1l24.4-31.5l0.5,0.4l0.4-0.5l-17.5-13.6l-0.4,0.5l0.5,0.4l-23.4,30.2l-2.5-1.9l-4.2,5.4l2.5,2l-6.1,8L1313.9,529.7z
	 M1621.2,1120.4l15.7-7.3l-6.6-14.1l-6.1,2.9l-1.7-3.6l-1.4-3l7.6-3.5l-6.6-14.3l-1.7-3.7l-18.5,8.6l1.5,3.1l-10.5,4.9l3.5,7.5
	l4.7-2.2l1.6,3.3l1.9-0.9l2,4.4l-10.6,4.9l2.3,4.9l-6.5,3l5,10.7l6.6-3l1.2,2.7l15.7-7.3L1621.2,1120.4z M1998.3,1107.9l19.9,10.7
	l13.7-28.1l9.4-18.9l-2-20.3l-1.2-12.7l-1.7-17.8l-1.8-13.6l-1.6-19.8l-1,0.1l-8.3-32.7l-7.4-28.8l-1.9-8l-5.5-8.3l-14.2,23.8
	l13.4,52.3l0.8,0.3l3.8,35.8l3.2,31.5l1.5-0.3l1.4,14.9l-6.7,12.7L1998.3,1107.9z M1656,1029l12.8-5.8l1.5,3.4l10.6-4.8l-6.1-13.7
	l-3.4,1.5l-1.7-3.8l-1.5-3.3l4-1.8l-5-11.1l-3.3,1.5l-5.3-11.9l-6.4,2.9l2.8,6.2l-9.5,4.3l1.9,4.1l-7.3,3.3l5.4,12l-8.6,3.9
	l5.6,12.5l-6.1,2.8l1.3,2.7l-5.4,2.5l1.3,2.8l-11.8,5.5l3.9,8.4l8.2,18.9l1.5,3.1l9.4-4.4l1.6,3.4l10.2-10.5l1.9-0.9l-4.7-10.2
	l-6.8,3.2l-1.4-3.1l-1.6-3.5l6.8-3.2l-6.7-14.3l11-4.9L1656,1029z M1698.7,1390l13-9.2l-2.2-3.1l-13,9.2L1698.7,1390z M1582.9,957.7
	l3.2-6.3l2.1,0.9l1.8-3.3l1.1-0.1l5.1-11.4l-2.4-1.3l1.5-3.6l1.3,0.6l2.4-5.3l-3.4-1.8l1.1-1.9l1.5,1l2.1-4.4l1.5,0.4l5-10l1.9,0
	l-0.2-3.1l-1.4-0.5l2.8-5.9l-2.1-1.2l1.4-3.2l1.6,0.6l2.5-5.4l5.8-2.6l-5.5-11.8l-2.3,0.7l-1.1-3.4l3-1.5l-2.2-5.5l2.4-1.3l-3.9-8.8
	l-3.4,1.3l-1.1-3l1.2-0.5l-2.6-5.7l-2.2,0.8l-3.2-6.6l-1.8,0.5l-1.4-3.1l3.3-1.3l-2.7-5.5l2.4-1.1l-4.1-8.9l-2.9,1l-1.3-3l1.6-0.8
	l-2.7-5.7l-3,1.1l-5-12.2l-1.4,0.4l-1.2-2.8l4.9-2.1l-4.2-9.7l-3,1.3l-1.3-2.9l1.1-0.7l-2.7-5.7l-2.1,0.8l-3.2-6.6l-2.4,1l-1.5-3.3
	l3.4-1.5l-2.2-4.9l2.5-1.3l-4.2-8.8l-3,1.3l-1.5-3.2l1.4-0.8l-2.8-5.7l-2.2,0.9l-3.1-6.3l-2.5,1l-1.4-3.3l4.8-2.4l-3.7-7.5
	l-13.8,6.3l-5.3-1.1l1.9-7l-11.5-2.5l-1.3,6.4l-1.2-0.2l-0.8,4.3l-2.2-0.2l-0.8,2.6l-10.7-2.1l-3.9,16.4l-1.4-0.3l-0.5,2.5l-0.9,3.8
	l-10.6-2.4l-1.5,6.4l-1.7-0.2l-0.1,0.9l2.4,0.5l-0.8,3.7l-7-1.5l-0.5,2.1l-3.6-0.9l0.6-2.1l-4.4-5.5l-11.4,7.3l0.8,1.6l-2.8,1.7
	l-2.2-3.4l-4.6,3l10.3,16.5l9.8-6.1l8.6,1.8l0.2-0.6l11.3,2.6l-1.4,5.4l10.8,2.3l2-9.7l-2.8-0.6l0.6-3.2l2,0.4l1.2-5.8l1.3,0.2
	l1.3-6.1l-1.5-0.3l0.5-2.7l3.3,0.6l1.4-7.3l0.4-2.2l1.3,0.3l1.2-3.8l3.3,0.7l-0.4,1.7l6.7,1.4l0.4-2.5l5.3,1.1l0.6-2.9l4.8,0.8
	l-0.1,0.9l3.8,0.5l2.8,5.4l-0.6,0.4l1.9,4.2l1.2-0.4l2.7,5.6l1.4,0l1.8,4.6l3.1,1.1l1.1,2.7l-6.6,3l8,17.7l4.6-2.1l2.8,6.3l1.5-0.7
	l2.5,6.2l-3.5,1.6l9.2,21.3l2.9-0.8l2.5,6l1.6-0.4l2.3,5l2.1,0.1l1.2,3l-5.8,3.5l8.1,16.8l3.8-1.6l3.1,6.7h1.2l1.5,4.6l2.9,0.5
	l1.1,3.1l-6.7,2.9l3.6,8.5l-2,0.8l2.6,6.3l-2,0.7l-3.2,7.2l-3.9-1.8l-2.8,1.2l1,3.6l-1,2.4l-1-0.7l-1.9,3.6l-2.1,1.3l0.4,2l-3,6.3
	l3.1,1.7l-0.8,2l2.6,3.4l-1.8,4.5l-3.4-1.5l-2.2,4.8l-2.9-1.3l-2.7,1.8l0.7,1.8l-3.4,6.2l-2.1,1.7l1,1.5l-3.6,6.9l3.7,1.7l-4.7,9.3
	l-1-0.5l-2.8,5.8l3.4,1.9l-1.6,3.1l-1.2-0.5l-4.1,8.2l1.1,0.8l-1.2,2.5l-1.2-0.6l-0.1,0.1l-3.4,6.7l-4.5-0.7l-0.2,1.7l-3.8-0.8
	l0.2-1.6l-4.4-1l-8.7-11.7l-6.2-8.2l-1.2,0.8l-2.3-3.2l-1,0.6l-3.9-4.9l3.6-3.8l-4.5-4.8l-1.3,0.9l-5.7-6l2.9-2.9l2.6,2.7l3.9-4
	l-6.1-6.6l20.2-18.9l-5.1-25.8l-6.4-2.1l-4.7,4.1l-30-9l1.4-4.8l4.5,1.1l3.6-11.5l3.9,1.2l5.2-18.2l-14.4-4.8l0.7-2.1l2.4,0.7l0.7-3
	l-7.2-5.4l-4,1.4l-2.9-0.9l0.2-2.3l-13.6-4l-6.8,23.3l4,1.7l-3.1,11.2l-1.9-0.5l-2.6,8.7l2.8,0.7l-1.2,3.6l-4.4-1.4l-6.7-7.3
	l0.8-1.4l-4.4-4.6l-4.6,4.5l1.9,2.3l-10.1,9.7l3.5,4.5l1.6-0.2l3.7,3.9l2-0.6l2.5,3.4l2.6-0.4l3.4,4.5l2.3-0.6l3,3.5l2.3-0.2
	l3.1,3.3l2.9-0.1l2.4-2.4l3.4,3.5l-1.3,1.3l-0.3,1.7l3.1,3.4l-0.2,2.1l3.3,3.6l-0.2,1.8l3.4,3.5l-0.3,1.7l3.7,4.1l-0.3,2.2l2.8,3.1
	l0.1,2l3.3,4l-0.4,1.5l3,3.3l0.3,2.6l2.9,3.1l0.1,2.2l3,3.1l-1.1,1.5l3.6,4l0.1,2.6l3.3,3.4l-0.2,2.2l3.6,3.8l-1.6,1.1l26,32.5
	l15.8,3.2l0.9-3.2l9.7,2l0.7-3.5l7.8,1.6l0.7-0.9l3,1.4l2.9-6.5l-2.1-1.2l2.7-5h0.7l1.8-3.3l1.4-0.2l3-6l-1.5-1.5l3.9-6.4l1.3,0.1
	l5.8-11.8l-2.7-1.4l1.7-2.9l0.9,0.3l2.7-5.6l-3.4-1.7l0.8-2.3L1582.9,957.7z M1496.1,1154.2l32.1-83.2l-24.3-9.4l-23.8,61.6
	l-40-15.4l-1.5,3.9l-71.7-32.7l-46.5-84.4l-10.3,6.8l-8.6-15.3l-38,21.6l13.7,25.3l5.5-3.2l22.5-13.3l44,78.1l80.8,39.2l1.8-4.6
	l7.1,2.7l34,13.1L1496.1,1154.2z M1188,1171.3l-4.4,8.6l28.8,14.5l30.8-3.4l-0.5-5.6l-4.7,0.3l-0.3-2.9l-25.3,2.7l-2.1-1.1l0.6-1.2
	L1188,1171.3z M1354.2,1210.7l2.2-1l2.4-5.7l5,2.1l2-1.1l10.7-23.4l-0.8-2l-21-9.7l0.9-1.8l-10.1-4.6l3.7-8.3l-14.7-6.6l-18.7,41.4
	l14.8,6.7l2.6-5.8l9.6,4.3l-4,8.5L1354.2,1210.7z M1444.1,1259.8l12.3-27.9l10.7-24.1l-78.9-34.7l-21.7,45.8l-5.7,2.8l-5.3,12
	l14.3,6.4l-4.9,8.7l19.3,9.1l2.6-5.3l4.5,2.5l6.7-13.2l-4.2-3.8l-18.1-8l12.5-28.4l38.8,17.3l-13,28.2L1444.1,1259.8z
	 M1889.2,1307.3l25.6,12.5l-10.6,20.4l-14,27l-19.4-9l-22-9.9l7.6-16.5l15.6-33.1L1889.2,1307.3z M1892.9,1321.5l-8.5-4.2l-8-3.9
	l-9.1,18.7l12.5,6.1l6.7,3.1l3.7-7.5l-2.6-1.3L1892.9,1321.5z M165.9,241.7l-7.9-87L158,153l21.7-2.1l23-2.3l2.4,26.7l2.7,24.3
	l3.2,23l1.4,14.3l-15.9,1.4l-7.2,0.7l-6.5,0.6L165.9,241.7z M170.7,174l2.9,34.7l1.5-0.1l0.2,2l1.4,0.7l0.4,4l18.6-1.6l-0.4-3.7
	l1.1-1l-0.2-2.1l1.1-0.2l-3.7-34.9L170.7,174z M1049.8,53.3l3.7,4.3l-1.7,34.2l15.2,1l3.9,0.3l2.3-47.2l-36-2.2l0.1,3.7l-0.4,4.9
	L1049.8,53.3z M146.7,487.9l-8.8,2l-3.9,0.4l-9.5-0.2l1.3,12.1l-48.2,5.6l-2.6-26.6L0,488.7v134.1l88.1-8.6l-3.2-33.9l48.2-4.6
	l2.3,23.2l8.9-1.9l4.5-0.4l8.9,0.4l-2.8-27.2l-0.2-1.7l16.4-1.6l0.2,1.7l77.5-7.6l-1.7-9L244,552l-0.4-3.9l3.3-0.3l0-3.7l-0.1-4.8
	l-77.6,7l0.4,4l-16.6,1.5l-0.4-4l-1.7-19.7l-0.4-3.8l34.3-3.4l-2.2-23.9l-34.5,3.7L146.7,487.9z M964.1,519.3l9.8-8.9l-0.5-0.6
	l4.8-4.3l0.5,0.6l19.4-17.6l-4.1-4.6l4.5-4.1l3,3.4l0.3-0.3l6-5.4h0.1l-6.1,5.4l4.2,4.9l1.7,0l2.8,3l-0.8,0.7l4,4.8l1.5,0.1l2.5,2.8
	l-0.8,0.7l4.5,5.1l1.8,0.1l2.1,2.4l-0.8,0.9l4,4.3h1.7l2.8,3.4l-0.8,0.7l4.9,5.6l6.2-5.3l1.3,1.4l7.5-6.4l-6.4-7l-0.8,0.7
	l-29.9-33.5l2.5-2.3l-3.4-3.7l-2.8,2.5l-0.8-0.9l-3.1,2.8l0.8,0.9l-2.6,2.3l-0.7,0.7h-0.1l0.8-0.7l-2.4-2.5l7-6.3l-7.4-8.3
	l-52.6,47.6L964.1,519.3z M1011,76.2l1.1-9.5l7.3,0.3l0.8-12.5l-48.9-3.7l-0.8,9.3l-7.3-0.6l-0.2,2.8l-0.7,10.1l-0.9,13.9l3,0.8
	l0.9-14.5L1011,76.2z M1382.2,16.7l1.9,1.1l-3.4,6.2l-1.2-0.6L1367,28l-4.9,1.6l-0.6-1.9l-7.1,2.5l0.7,1.9l-9.3,3.2l-0.6-0.8
	l-12.1,10.4l-1.2-1.5l-1.9,1.9l-0.6,1.2l-0.2,1l1.7,1.8l-8.4,7.1l-7.9,7.2l-22.3-25.6l8.3-7.8l-3.3-3.9l29.7-25.2l3.5-1.3h-44.7
	l-2.7,2.2l1,1l-3.7,3.1l5.6,6.9l-38.9,37.2l18.6,19.4l18.5,19.3l15.7,16.6l37.3-31.8l20.3-17.1l-0.3-1.4l4.5-1.7l0.4,1.3l13.1-4.7
	l16.8-5.9l17.4-6.1l0.5,2.2l5.5-2l4.4-2.3l6.5-3.9l-8-22.6l-11.3,3.8L1402,0h-25.7L1382.2,16.7z M1211.1,39.5l5,9.9l3.7,5.7
	l10.7-14.4l8.8-11.7l-10.9-21.8l14.2-7.2h-28.3l5.5,11.3l-18.3,9.1L1211.1,39.5z M0,194.4l6-0.6l0.8,7.4l15.8-1.6l-0.8-7.6l17.1-1.7
	l0.3,2.9l15.8-1.6l-0.1-1.6l14.4-1.4l0.6,4.8l-1.4,0.1l0.3,4.1l-3.3,0.3l4.9,49.6l3.5-0.3l0.2,4.1l1.4-0.1l0.3,4.8l-24.7,2.6
	l-1-10.2l-17.6,1.9l1.1,10l-12.8,1l2.9,27.7l12.8-1.2l0,0.4l17.5-1.7l0-0.8l24.7-2.4l0.1,1.5l23.1-2.4l1.3-0.8l1.2-1.3l0.4-1l0-1.1
	l-0.3-3.7l-1.5-16.3l-1.7,0.1l-1.5-15.5l0.5-0.1l-0.3-3.6l0.8,0l-0.4-5.1l-0.9,0.1l-0.7-9.2l0.6,0l-1-10.5l-0.7,0.1l-0.9-9.1h0.6
	l-0.4-5.2l-0.9,0.1l-0.3-3.9l-0.8,0l-1.4-15.3l1.4-0.1l-1.5-14.9l-1.4,0.1l-0.4-4.2l-3.7,0.3l-0.3-3.1l-4.5,0.3l-0.1-1.3l-13.2,1.3
	l0,1.5L52,162.7l-0.2-2.3l-21.4,2.1l0.2,2.3L0,167.9V194.4z M1122.6,42.9l-0.1,24.1l19.7,0.4l-0.2,5.5l6.9,0.3l28.1,21.1l-10.6,12.8
	l19.4,17.5l10-11.1l16.2,15.2l19.1,17.8l15.4-16.6l7.5-8.1l16.7,15.3l-33,35.6l-11.7,12.8l-20.2,22.2l-0.5-0.4l-3.2,3.5l-12.9-11.9
	l2.5-2.5l-4.2-4.1l-22.3-20.2l-11.2-11l-1.1-5.8l-4.5-9.5l-5.1-3.5l-14.5-10.2l-14.2-9.9l-22.8-15.7l3.7-9l0.2-3.9l3.7-61.3
	l38.2-0.1l5.2,0.1l-0.3,11L1122.6,42.9z M1181.4,148.2l2.8,2.5l-11.3,12.6l22,20.3l13.6-14.7l3.9-4.5l-24.9-22.9l-4.4,5.1
	L1181.4,148.2z M1158.3,115l-4.8,5.4l-6.3,6.8l1.9,1.7l-1.7,1.7l4,3.6l14.5,13.3l8.1-9.3l4.4-4.8L1158.3,115z M1121.1,83.1
	l-0.5,10.2l-0.9,0l-0.1,2.3l-0.8,14.2l3.7,3l5.5,4.5l1.3-1.3l6.8,5.7l9.1-9.9l12.9-14.5l-6.6-6l0.5-0.5l-8.3-6.3L1121.1,83.1z
	 M494.8,199.6l8,10.7l15.4-12.1l-5.9-7.8l5.3-7.4l1.2,0.9l21.6-29.8l2.3,1.5l12.8-17.8l-2.1-1.5l21.3-29.5l-1.1-0.9l5.2-7.1l3.1,0.5
	l4.4,8.5l-1.5,0.7l20.2,42.4l19.1-8.5l-31.2-65l-7-0.7l0.2-2.7l-6.9-0.6l-0.2,2.7l-6.8-0.7L559,93.5L537,123.6l-2.2-1.6l-13.2,18
	l2.3,1.7l-35.7,49.1L494.8,199.6z M423.5,382.8l-3.9,8.8l6.6,3.1l1.8,3.4l8,3.5l-3.8,7.6l71,37l6.3-12.7l2.3-4.7l11.8,6l-4.2,8.5
	l112.9,57.7l14.3-21.2l41.9,27.9l-1,1.5l1.2,0.8l1.6-2.3l22,11.8l0.8-1.5l4.5,2.3l-0.6,1.7l9.3,5.1l-9.2,16.9l-1.1-0.4l-6.7,12.4
	l45.7,24.8l-7.4,14.1l-1.8-1.1l-1.5,2.7l-0.4,0.5l14.3,13.8l19-19.3l11.3-13.4l19.5-21.7l5.2-5.3l9.3,8.9l0.4-0.4l18.4,17.6
	l-62.7,64.3l-14-14.4l-4.1-3.6l18.1,18l-21.6,21.5l-0.7,5.1L741.4,682l-1.2-1.3L717.7,703l-58,54.5l-39.2-16.9l-2.2,5.1l1.2,0.6
	l-5,11.1l-25.7-11.7l-13.9-6.3l-12.3-5.4l-11.3-5.4l3.9-8.5l1.1,0.1l2.1-5.3L516.1,696l-30.1-13.9l17.1-37.9l1.7,0.7l3.7-7.1
	l12.8,6.3l-3.7,8.6l9.5,4.5l-3.5,8.6l0.9,0.4l-2,4.6l-2.9-1.3l-1.9,4.1l6.8,3.2l11.9,5.3l3.3-7.3l19.5,8.8l-3.3,7.3l15.3,6.7
	l4.8-10.3l-7.6-3.4l25.4-57l7.5,3.6l14.9-33.6l-3.7-2.1l-1,0.8l-10.1-5.2l-1,1.5l-6.2-3.3l-2.4,4.3l-33.1-18l-0.9-5.9l-8.5-4.6
	l6.9-12.7l-1.9-1l-6.6-3.6l-39.7-20.5l-20.3-10.3L481,513l2.8-6l-1.7-5.7l-5.8-2.8l-4.6,9.7l-5.5,10.4l-7-3.7l14.2-27.9l-7.8-4.1
	l-15.1,27.5l-16.8-9.1l-8.2-4.4l-0.9-0.5l-1.4,2.8l-7.9,14.6l1.8,5.2l11.5,6.2l-0.2,0.9l3.8,2.1l-1.2,2.3l-4.2,7.4l-31.1-16.4
	l-5.4,10.1l-26-13.7l-2.4,0.2l-6.4,14.5l5.4,2.6l-4.9,11l49,26.8l20.7,11.2l-1.8,3.1l2,1.1l-4.5,8.5l-2.4-1.2l-10.7,19.2l-3.1-1.8
	l8-15.8l-24.9-13.8l-4.6,9.5l-1.3,0.9l-8.3-4.8l-12,26.1l-7.2-3.5l-0.3-1.1l-8.4-3.8l13.2-27.6l-20.1-11.2l-3.4,0.3L322.3,600
	l-6.2-3l-5.1,11.9l-12.6-5.8l19.2-42.2l5.2-12.6l23.8-53l6.9-15.2l6.2-13.9l1.6-3.7l13.1-28l27.5-61.4L423.5,382.8z M622.6,701.3
	l18.3-40.3L614.1,649L593,695.4l-8.2,19.2l2.5,1.2l-2.2,5.4l-1.3-0.6l-3.3,7.6l24.6,11.4l5.9-13l0.8,0.4l8.7-19.6l-1.5-0.6l2.6-6.1
	L622.6,701.3z M681.7,711l-1.1-5.9L657,686.4l-4.2,2l-10.7,23l0.7,0.3l-2,4.6l-2.8-1.1l-2.5,6.4l-5.7-2.3l-1.5,3.5l20.4,9.3l1.5-1.6
	l1.8-1.3l2-0.6l3.2-0.1l1.4,0.3l2.8,1.3L681.7,711z M667.9,660l26.6,22.5l-2.7,3l6.8,5.4l3.8-4.3l25.1-25.4l-6.1-4.8l-1.2,1.2
	l-22.2-19l1.1-1.5l-4.4-3.5l-2.7,3.2l-2.9-2.2L667.9,660z M665.7,626.5l-26.2-13.8l0.8-1.5l-4.4-2.3l-1,2.2L633,615l-3.5-1.8
	l-13.3,31l26.9,11.9l-5.6-4.5l17.1-22.1l5.1,4L665.7,626.5z M625.6,511.2l34.2,18.7l4-6.9L631.7,502L625.6,511.2z M549.3,533.5
	l26.2,13.9l1.2-1.8l11.4-1.9l18-27.1l-20.8-10.9l-1.1,1.8l-6.5-3.6l0.5-2.2l-9.5-4.8L549.3,533.5z M493.1,494.7l0.4,1l1-0.3l2.9,9.8
	l-0.9,0.1l0.2,1l30.5,15.7l10.3-20.5l-5.7-2.9l7.6-17.2l-13.9-7.5l-1.2,2l-7-3.4l1-2.1l-10.1-5.1L493.1,494.7z M455.3,458.8
	l11.3,5.9l5.8-11.3L491,463l-8.6,17.1l-1.2-0.7l-1.2,1.9l4,2.2l15.1-29.4l-3.7-1.9l-0.8,1.8l-25.9-13.4l-4,0.2l-3.6,6.7l0.9,0.6
	l-1,1.4l0.7,1.9l-1.2,2.7l-1.5-0.1l-1,1.9l-1.2-0.2L455.3,458.8z M403.4,484.9l-6.5-3.5l-14-7.5l-1.4,3.3l-6.4,14.6l2,5.6l11.6,6.5
	l5.7-2l7.5-14.2L403.4,484.9z M442.1,470.6l-16.7-8.6l0.2-0.5l-28.3-14.8l-2.6,5l1.9,1.1l-1.6,3.3l-5.2-2.7l-1.1,2.2l1.2,1.2l0.4,1
	l0.1,1.6l-0.7,1.5l-1.4,1.3l-1.5,0.4l-1.6-0.4l-1,2.5l1.4,3.3l5.3-1.7l11,5.3l29.1,14.4l-2.4,4.8l2.6,1.4L442.1,470.6z M418.9,444.7
	l11.9,6.4l4.9-0.3l9.3-18.2l-1.5-3.1l-13-6.5l-7.4,9.6L418.9,444.7z M1372.1,1419.4l-2.1,4.6h-17.9l-11.1-5l-2.3,5h-21.7l6.9-13.9
	l4.2,2.4l13.6-25.2l-1.3-4.4l-16.1-9.5l-4.8,1.1l-23.2,41.3l14.5,8.2h-32.3l-1.5-0.7l-0.4,0.7h-21.8l-3.1-1.7l6.6-13.6l5.7-10.6
	l3.3-5.6l19.9-35.4l0.9-1.9l-35.5-17.4l-21.4,42.2l-10.5,20.4l-22.4-11.7l47.1-93.1l60.2,32l9.1,4.7l19.4,10.1l5.4-9.4l15.6,8.2
	l3.5-0.8l9.5-16.9l-17.6-9.8l11.5-20.5l18.3,10.3l10.5-20.2l11.5,6.3l12-21.9l12.5,6.2l-3.5,7.6l15.3,7.6l1.9-3.8l14,6.7l-1.6,3.9
	l19.3,9.4l3.8-7.6l11.7,6l7.2-14.5l20.4,10.2l2.9-6.2l6.1-12.9l7-14.6l23.4,12.4l9,23.4l2.6,7.2l-46.5,95.6l-1.7,3.6l-14.5-6.9
	l-30.8-14.6l-7.9-4.1l1.2-1.5l-12.7-5.9l1.7-3.4l3.3-6.4l-15-7.2l1.5-4.4l-50.6-24.3l-2.7,5.5l-11.7-5.3l-4.9,8.1l8.2,3.9l-4.6,8.8
	l0.9,3.7l19.1,8.8l-4.8,9.9l-9.4,19.6l-14.2-6.7l-12.7,22.7l1.5,4.3l3.8,1.9l0.2-0.5l5.1,2.9l-0.3,0.7L1372.1,1419.4z
	 M1354.5,1364.1l5.1-8.7l-22.1-11.3l-4.5,8.4L1354.5,1364.1z M315.6,156.2l-1.3,15.7l2.3,29.4l0-0.1l0,0.1l1.1,1.3l0.3,8.3l-7.4,0.6
	l1.1,11.6l6.8-0.2l0.4,8.5l-5.5,0.4l0.4,4.9l-0.1,2.6l2.2,22.7l-68.3,6.5l-2.3-22.9l8.9-0.8l-9.3-100.3l70.8-7l1.9,18.3L315.6,156.2
	z M300.5,240.6l-2.5-28l-33.4,2.9l2.4,28.1L300.5,240.6z M303.2,191.4l-3-29.6L260,166l2.6,29.2L303.2,191.4z M436.5,520.9l7.9-13.8
	l-10.5-5.8l-7.4,13.8L436.5,520.9z M671.4,82.5l34.8-16.8l-4.7-9.9l-2.5,1.2l-3.4-7.9l-34.7,17l3.2,7.7l2.5-1.2L671.4,82.5z
	 M941.9,561.9l-0.5,0.1l-3.4-10.7l-17.4,5.7l8.6,25.8l2.2-0.7l10.7,32l1.9-0.6l10.5,31.8l2-0.8l10.1,25.8l17.3-7l-4.3-10.4l0.6-0.3
	l-1.7-4.3l-0.5,0.3l-4.1-10.4l-2.2,0.9l-0.2-0.5l-4.5-13.3l0.4-0.2l-1.4-4.1l-0.6,0.2l-4.7-14.5l-1.7,0.6l-4.4-13.2l0.5-0.2
	l-1.5-4.2l-0.6,0.2l-4.7-14.2l-2.3,0.7l-3.3-10.4l0.4-0.2L941.9,561.9z M651.9,79.5L632.2,89l25.3,52.8l19.9-9.7l-7.8-16l15.7-7.7
	l1.1,2.3L728.7,90l-1.1-2.4l8.4-4.1l8.2,11.3l11.2,15.4l-5.4,3.9l-8.1,3.9l9.3,19.8l10-4.8l6.6-5.6l9.3,12.9l0.5-0.5l1.6,4.4
	l20.4-9.9l-38.1-52L728.7,37l-19.6,9.3l13.7,19l-4.6,2.2l-10.6,5.1l-1.2-2.5l-8.8,4.3l1.2,2.5l-3.8,1.8l-1.2-2.5l-8.5,4.1l1.2,2.5
	L675.8,88l-16,7.7L651.9,79.5z M566.6,442.9l8.9,4.3l7.3-15.2l-8.9-4.3L566.6,442.9z M1996.9,690.4l13.1-24.2l-21.2-11.6l-5.5,10.1
	l-1-0.6l-0.9,1.7l-1.2,2.3l1,0.6l-5.4,10L1996.9,690.4z M2139.9,245l2.6-4.4l-8.2-5.1l-3.9-6.2l-3.9,4.6l-0.1,3.4l-3.9,8.6l5.8,2.5
	l3.7-8.3L2139.9,245z M1733,334.8l9.2,7.4l18.4,14.8l18.5,14.8l18.5,14.8l9,7.2l1.6-2l9,7.2l18.4,14.7l18.4,14.7l9.3,7.4l11-13.7
	l-55-44.1l-1.8,2.2l-73.6-58.9L1733,334.8z M2127.4,408.4l12.1-26l5,2.4l4.3-9.3l-5-2.3l21.2-45.4l4.8,2.3l4.3-9l-4.9-2.3l12.3-26.2
	l-16.1-7.5l-54.2,115.8L2127.4,408.4z M447.6,25.3l-0.4-3.8l10.6-1.1l0.4,3.7l6.3,59.7l13.5-1.4l-0.2-4.1l10.3-0.9l0.4,3.8L502,80
	l-6-59.7L494,0h-62.2l2.7,26.6L447.6,25.3z M1943.9,614.3l5.7-12.5l-1.7-0.8l2.1-4.8l1.7,0.7l3.1-6.4l3.6-7.7l-1.8-0.8l3-6l1.7,0.8
	l20-42.1l12.6-26.3l15.4,12.4l24.9,20l9.2,7.4l4.4,3.3l1.5-2l5.1,4.1l-1.6,1.9l2.7,2.2L2076,574l9.7,7.9l5.1,4l1.5-1.8l5.1,4
	l-1.7,1.9l6.4,5.2l7.2,5.6l7.6,6.2l7,5.5l7.2,5.9l-12.7,23.4l-6.1-4.9l1.4-1.5l0.8-1.4l-3.2-3l-12.6-9.8l2.5-2.8l-3.7-3l-4.1-3.1
	l-2.5,3l-2.3,4.1l-4.3,7.7l6.4,3.4l-7.2,13.2l-12.1,22.5l-0.4-0.1l-5.6,10.6l-8.1,15.4l-5,9.4l-7.4,13.2l-4.2-2.1l-4.5,8.5l1.1,0.5
	l-1.1,2.1l-1.2,2l-1-0.5l-4.8,9l-5,9.1l1,0.4l-1,1.9l-1.1,2.1l-1-0.5l-9.9,18.2l1.1,0.6l-1,1.7l-1.3,2.3l-1-0.6l-8.5,15.7l-2.3,4.3
	l3,5.3l0.5-0.3l4.2,8l0.7,1.4l0.8-0.4l4.3,7.8l-1.5,0.8l1.6,2.9l0.7-0.3l7.8,14.8l-10.8,20l-9.1-16.8l-1.5,0.7l-2.3-4.3l1.4-0.8
	l-2.7-4.9l-1.3-2.6l-1.5,0.8l-2.2-4.3l1.5-0.7l-1-1.9l-5.9-11l-15.6-29l-14.9-25.8l-5.2-9.4l-1.4,0.7l-3-5.2l-2.9-5.2l1.4-0.7
	l-5.2-9.5l-5.2-9.3l-1.5,0.8l-3.1-5.6l-2.7-4.8l1.5-0.7l-5.4-9.3l-8.4-14.9l4.4-9.2l7.1-15.1l8.6-18.4l-1.6-0.8l1.4-2.8l1.1-2.3
	l1.8,0.9L1943.9,614.3z M1944.2,660l-6.6,14l3.5,6.4l6.9,12.4l1.7-0.9l2.5,4.1l-2,1l7.1,12.4l7.1,12.7l1.8-1.1l2.3,4l-1.9,1.1
	l7,12.6l5.8,10.5l0.8-0.4l2.3,4.1l-1.4,0.7l4.3,7.7l-3.3,2l2.2,3.9l1.2,2.3l5.9-3.3l-0.7-1.5l21.4-39.8l11.8-21.7l10-18.6l-1.1-0.6
	l2.1-4l1.1,0.5l5.5-9.9l2.5-5.4l5.8-10.5l-1.1-0.5l2.1-4.3l1.2,0.6l5.4-9.9l4.5-8l0.3-0.5l11.1-20.8l5.5-10.3l-5.4-4.2l-3.9-3.1
	l-2.3,3l-11.2-9.3l2.1-2.9l-8.2-6.5l-2.5,3.1l-14.8-8l1.6-3l1.8-3.3l-5-3.5l-2.2,2.5l-10.4-8.3l-2.1,2.3l-2.6,2.1l-3.2,1.7l-2.6,1
	l-3.3,0.7l-3,0.2l-2.7-0.1l-3.1-0.4l-3.8-1.3l-11.3,23.9l3.3,1.6l-0.4,0.8l-2.3,4.4l-1.5-1l-15.1,31.9l-17.4,36.6L1944.2,660z
	 M166.1,53.8l-0.3-4.1l10.3-0.9l0.3,3.9l3,29.1l3.1,30.3l13.8-1.3l-0.5-3.2l11-1.1l0.5,3.2l13.1-1.3l-6-59.2L209.3,0h-62.4l5.5,55.2
	L166.1,53.8z M2087.7,1111.4l5.5-10.9l8.7,4.4l11.4-22l-35.5-18.1l-11,22l8.8,4.7l-5.8,10.5L2087.7,1111.4z M2172,1108.2l-20.4-10.1
	l-1.4,2.8l-8.5-4.2l-1.1,2.3l-15.4-7.7l-7,14.1l-1.5-0.7l-1.5-0.7l-16.4,33l3,1.5l-1.3,2.6l-4.2,8.5l-3.9,7.8l-1.6,3.2l15.4,7.7
	l5.5-11.1l22.7-45.6l28.9,14.3L2172,1108.2z M2155.8,1200.2l-9.6,23l4.7,2l-4.9,10.8l8.2,30.7l-10.4,2.8l-5.4-20.3l-8.5,2.3
	l5.1,18.9l5.9,21.2l17.2-6.1l2.5,9.1l-17,4.2l2.7,10.4l2.6,10l10.9-3l2.1,7.7l-10.9,3l5,17.6l2.4,1.8l6,2.9l4.1-9l-7-2.5l3.8-8.3
	l2,0.8l7.6-17.7l6.8-18.3l-23.8-8.8l-1.7-9.3l16.9,5.7l3.5-8l-14.7-6.1l3.2-8.1l3.1-8.5l15.3,6.7l3.3-8l-13.4-5.5l3-8.7l13.7,5.7
	l10.1-22.5l19.4,8.8l-9.3,22.1l-10.7,24l-10.5,23.5l10.6,4.5l-7.5,17.5l-7.7,17.9l-13.4,32.4l-19.3-7.2l-12-5.6l-6.8-24.9l-5-18.3
	l-4.9-17.4l-6.2-20.9l-7.9-29.3l-7.5-28.5l-7.8-28.9l12.2-3.4l4.6-1.3l30.5-8.6l2,8.2l-24.7,6.5l0.9,3.7l-2.3,0.5l2.8,10l3.3,1.6
	l0.7-1.9l16.7,6.9l6-14.3L2155.8,1200.2z M2141.7,1221.4l-4.8-2l-16.2-6.9l5.9,21.2l12-4.5L2141.7,1221.4z M2022,178.8l9-13.2
	l-76.6-53.6l-9,13.1L2022,178.8z M1786.9,172.9l85.4-67l-10-12.6l-85.4,67L1786.9,172.9z M1584.8,174.8l61,90.6l13.3-9l-61-90.6
	L1584.8,174.8z M1636.6,105.9l-2.5-3.8l-3.4,2.2l2.5,3.8L1636.6,105.9z M1831.4,87.4l-7.6,5.7l3.2,3.9l7.5-5.9L1831.4,87.4z
	 M1623.5,93.8l4,5.9l4.1-2.8l-4-5.9L1623.5,93.8z M2070.3,835.1l9.7-18l-17.1-9.4l-0.5,0.8l-2.7-1.5L2078,773l2.7,1.3l-0.4,0.8
	l17.2,9.3l9.7-18l-17.2-9.3l-0.7,1.2l-2.7-1.3l0.7-1.3l-1.1-0.8l1.4-3l1.3-2.7l1.6,0.8l4.9-9.2l13.4-24.3l4.8,2.5l7.3,3.9l4.2-8
	l-7.4-3.6l-0.5,0.8l-10.6-5.9l0.9-1.9l-5.1-2.8l-0.5-1.1l-11.8-6.6l-5.3,9.7l-10.1,18.4l-3.3,5.9l3.3,1.9l-6.5,11.8l-1.5,3.1
	l-4.8,8.9l-4.5,8.2l-9.4,17.4l-9,17l-4.4,7.9l-4.5,8.8l-1.4,3.1l-3.1,5.9l-2.4,4.4l10,16.2l-1.9,1.1l8.8,15.7l1.2-1l0.8-1l0.9-1.5
	l0.6-1.5l0.2-1.7l-0.1-2l-0.4-1.8l-0.8-1.6l-1-1.3l-0.9-0.9l-1.2-1l7.7-14.2l-1.2-0.6l1.8-3l1.3-2.6l1,0.6l0.8-1.2l2.6,1.3l-0.6,1.3
	L2070.3,835.1z M1842.5,80.9l11.9-9.9l-57-71h-2.6l-10.2,8.4L1842.5,80.9z M1896.9,169.8l3.2-3.4l1.6,1.5l13.4-14.4l-1.6-1.5
	l3.2-3.4l-4.5-4.2l4-3.9l-5-5l-7.1-7.1l0.1-0.1l7.1,7.2l8.8-8.6l-1.5-1.6l3.3-3.3l1.5,1.5l4.8-4.7l0.9,0.9l4.2-4.1l-0.9-0.9
	l10.8-10.6l-21.6-14.9l-7.2,7.2l1.5,1.6l-4,3.9l-1.5-1.5l-8.5,8.4l1.5,1.6l-3.3,3.3l-1.5-1.5l-5.3,5.2l7.6,7.7l-0.8,0.8l3.3,3.4
	l-3.6,3.5l2.7,2.6l-3.2,3.4l-1.6-1.5l-13.4,14.4l1.6,1.5l-3.1,3.4L1896.9,169.8z M1365.2,284.4l7.3,13.6l102.7-55.3l-7.8-14.2
	L1365.2,284.4z M810.9,1099.4l1.9-8.5l2.1,0.5l2.1-9.7l-16.6-3.6l-32.8-7.2l-16.7-3.6l-2.1,9.5l1.9,0.4l-1.9,8.7L810.9,1099.4z
	 M736.9,1027l10,1.6l2.8-16.1l5.2-30l5.1-30l2.7-17.9l-9-1.8l0.1-0.7l-5.6-0.9l-0.6,3l-3.6-0.6l-15.9,89.5l8.8,1.8L736.9,1027z
	 M840.8,943.2l1.4,0.5l3.5-9.2l-9.5-3.5L798.9,918l-8.7-3.5l-8.1-2.9l-3.8,8.6l2.5,1.1l-3.2,7.9l60.2,22L840.8,943.2z M641.3,1013
	l-21-4.6l-3.9,18l21,4.5L641.3,1013z M657,984.2l2.2-16.5l3.5-26.2l3.4-25.6l3.5-26l-9.6-1.3l0.1-0.9l-5.7-0.8l-0.4,3l-3.5-0.5
	l-12,90.2l9.5,1.3l-0.3,2L657,984.2z M827.6,1068.5l9.5,1.6l3.1-16.9l4.3-26.4l5.7-33.7l2.7-16.6l-8.9-1.9l0-0.7l-5.4-1.1l-0.7,3.4
	l-3.9-0.8l-15.6,89.9l9.1,1.5L827.6,1068.5z M750.4,902.8l1.5,0.7l3.2-9.4l-14.9-5.9L708.5,877l-17.1-6.4l-3.3,9.1l1.8,0.8l-2.5,8.5
	l59.4,22.2L750.4,902.8z M700.2,485.3l21.4,12.4l12.4-21.5l-21.4-12.4L700.2,485.3z M522,1125.2l17.8,1.6l1.2-13l2.9-31.9l1.8-19
	l-17.8-1.6L522,1125.2z M570.6,836.7l-30.4,28.9l-77,73.1l-17.4-9.5l6.9-15.2l-5.5-2.8l-42.6-21.9l-3.1-1.6l7.5-16.6l2.3-4.8
	l60.8,30.7l24.4-23.1l-0.9-5.3l-75.3-34.2l9.5-21.5l17.5,8l16.3-36.2l-17.7-8l0.5-1l9.3-20.9l109.3,49.5l3.5,2l3,2.7l1.3,1.6l2,3.5
	l1.3,3.9l0.5,4.1l-0.1,2l-0.8,4l-1.6,3.7l-2.3,3.4L570.6,836.7z M475.9,834.2l16.4-36.6l-14-6.3l-16.4,36.6L475.9,834.2z
	 M546.4,826.6l-0.8-4.8l-39.7-18L489.6,840l28.9,13.1L546.4,826.6z M841.2,444.7l44.8,33l-37.4,47.8l3.2,3.4l-25.5,30l-7.7-6.9
	l3.5-3.9l-0.8-1l10.2-12L788.9,500l-11.7,13.8l-7.5-6l-1.8-1.5l30.3-35.3l15.1-17.8l1.5-1.8l4.3-5.2l3.4-5.1l4.1-6.2l0.2-0.5
	L841.2,444.7z M858.5,490.8l-37-27.8l-16.4,19.6l36.3,30.3L858.5,490.8z M878.9,638.6l4.8,13.6l8.5-3l2.4,6.8l12.7-4.4l-7.1-20.4
	L878.9,638.6z M900.8,1139.3l2.1-8.7l2.1,0.5l2.1-9.6l-6.3-1.4l0.1-0.4l-3.6-0.8l-0.1,0.4l-7.1-1.6l-7.2-1.6l0.1-0.4l-4.7-1.1
	l-0.1,0.5l-9.1-2.3l0.2-0.6l-4.4-1l-0.2,0.6l-7.2-1.6l-7.1-1.6l0.1-0.6l-3.4-0.8l-0.1,0.7l-6.6-1.6l-2.2,9.3l1.9,0.5l-1.9,8.8
	L900.8,1139.3z M1067.8,211.4l-11.2,17.4l21.6,13.6l12.8-16.3l-10.5-6.7L1067.8,211.4z M1471.6,171.9l3.4-2.2l-2.5-3.8l-3.4,2.2
	L1471.6,171.9z M945.7,59.3l4.1,0.4l4,0.4l0.7-8l-8.1-0.7L945.7,59.3z M1112.3,285.5l3.4,3.1l8.4,8.2l20.9-22.3l8.8-9.3l5.6-6
	l14.6-15.9l-17.9-16.4l-1.3,1.5l-28.9-27.1l-6,6.4l-1.5-1.4l-3.4,3.6l30.4,28.5l-3.5,3.9l1.8,1.8l-10.4,11l2,1.9l-4.3,4.5l-5.5-5.2
	l6.7-7.2l-21.2-19.6l-6.4,7.3l-4.9-4.3l2.4-2.9l-0.2-2.8l-3.6-3.2l-21.6,27.8L1112.3,285.5z M719.2,1058.3l1.9-8.7l2.1,0.5l2.1-9.5
	l-15.8-3.5l-31.6-7.1l-18.8-4.2l-2.3,10.1l1.9,0.4l-1.8,8.1L719.2,1058.3z M1318.2,210.5l5.9,14.9l126.2-50.8l-6.1-15.2
	L1318.2,210.5z M1159.6,11.1l12.2,24.2l21.4,44.2l5.2,5l13-18.5l-32.7-65.2L1159.6,11.1z M918.2,968.7l-27.6-10l0.3-0.7l-2.2-0.8
	l-2.2-0.8l-0.3,0.7l-13.7-5.2l-3.8,9.3l2.2,1l-3.2,8.4l60.9,22l3.5-8.9l1.3,0.4l3.3-8.8l-14.2-5.2l0.3-0.8l-2.2-0.8l-2.2-0.8
	L918.2,968.7z M616.3,1077.7l5.4-42.8l-12.1-1.5l-0.6,5.2l-6.4-0.8l1.4-11.6l-14.9-1.9l-6,47.7l14.5,1.8l0.9-6.9l-2.1-0.3l0.4-3
	l5.7,0.7l-1.2,9.9l5.1,0.6l-0.2,1.6L616.3,1077.7z M658.9,876.1l2-5.4l1.1,0.6l3.4-9.2l1.9,0.7l2.6-8.4l-42.9-15.8l-3,7.4l-1.1-0.6
	l-8.6,7.9l1.6,1l-4,4.3L658.9,876.1z M581.3,1416.8l77.1-1.7L658,1398l-77.1,1.7L581.3,1416.8z M659.5,1352.6l-2.2-0.4l-11.1,7.7
	l-1-1l-12.8,7.6l-0.9-1.2l-14,6.3l-1.1-1.3l-15.4,3.9l-0.7-1.4l-20.1-0.1l-4.3-11.2l3.9-2.9l-2.3-10.9l12.9-8.3l-0.5-1.5l20-4.6
	l1.2,2.6l4.7-1.1l11.4-4.9l-7.4-30l1-10l1,0.2l0.9-10l1.6-0.1l0.7-9.7l1.6,0l0.4-9.7l42,8.9l0.2-1.3l3.5,0.6l5.2-10.9l9.9,4.9
	l4.8,19.6l-0.7,6.6l7,6.7l4.5-4.7l7.9,4l0.9,10.4l14,9.3l-4.6,7.1l-5.5,18.4l-31.6,0.8l-0.7-3.6l-7.8,0.2l-1.6,6.9L659.5,1352.6z
	 M658.4,1322l4.9-1.2l1.8-10.6l3.1-0.8l3.4-13.5l2-0.3l1.5-5.8l-8.3-10l-0.2-1l-21.1-4.5l-5.1,6.2l4.2,4.7l-1.4,5.9l-5.5,2.5
	l2.2,9.3l5,18.4l2.7,0.9l2.2-5.6l7.8,0.4L658.4,1322z M934.6,1015.1l0.1-1l-5.5-0.8l-0.5,2.7l-3.8-0.6l-15.4,89.9l9.2,1.7l-0.2,1.6
	l9.6,1.4l2.4-14.4l0.7,0.1l0.4-2.7l0.4-2.4l-0.8-0.1l4.4-27.3l4.5-27.4l0.9,0.2l0.3-1.9l0.4-2.6l-0.8-0.2l2.5-14.8L934.6,1015.1z
	 M2234.5,1147.4l2.7-6l-46.6-21l0.8-1.8l-9.1-4.1l-10,22.1l-18.1,40.2l5.4,2.4l-3.4,7.4l11.6,5.3l5.5-12.2l16-35.4l-7.9-3.5
	l5.5-12.3l3.8,1.7l-3.9,8.7l39.9,18l1.1-2.3l2.8,1.3l-24.5,54.3l17.4,7.9l24.4-54v-10.5L2234.5,1147.4z M2208.1,235.4l4.1-8.8
	l5.9,2.8l2.1-4.6l2.2-4.6l-5.8-2.7l21.3-45.3l5.9,2.8l2-4.2l2-4.3l-5.8-2.7l6-12.7v-42.2l-55.9,119.2L2208.1,235.4z M2083.1,1409.5
	l-6,14.5h-39.7l13.3-29.3l12.3,5.6l12-26.4l-29.3-13.9l-25.4-12l-4.2-2l-5.1,10.9l9.7,4.3l-14.7,33.3l7.1,3.2l7.6-17.3l8.3,3.6
	l-8.7,19.7l10.6,4.7l4-9.1l4.7-10.8l-10.7-4.5l4.2-11.1l22.5,10l-5,11.8l-4.5,9.6l-8.9,19.7h-19.8l-5.3-2.3l-16.6-7.4l-2.5-1.1
	l-4-1.8l-4-1.8l-19-8.4l-8.1-3.9l-14.8-7l-24.8-11.4l13.8-27.1l9.6-18.8l9.2-18l15.8-31l14.8-29.1l9.6-19.9l17.2-33.4l29.6,16.5
	l19.5,10.6l18.3,10.1l5.6,19.8l9.3,32l8,30.1l9.2,32.1l-12.9,30.5L2083.1,1409.5z M2060.6,1408.6l-8.7-3.7l-4.4,10.2l1,2.8l4.8,2.2
	l2.8-1.2L2060.6,1408.6z M2079.1,1326l-19,5.1l24,10.7L2079.1,1326z M1974.5,1313.9l16.5,7.7l9.5-20l-14.6-9.9L1974.5,1313.9z
	 M2002.9,1353.4l-13.9-6.9l2.1-3.9l-26.9-12.2l-5.4,11.2l-10.2,18.6l-2.9,6.6l7.3,3.6l12.3,6.1l3.7-7.5l9.4,4.5l-3.5,7.3l13,5.8
	L2002.9,1353.4z M2034.3,1318.7l-5.8-6l-2.4-6.8l20.8-6.1l4,13.9l10.6,6.4l16.4-4l-5.4-21.2l-9.5-31l-1,0.3l-2.4-9.1l-3.7-4
	l-8.5-4.6l-6.1,11l-7.1-3.9l0-3.1l3.4-7l1.6-0.5l-0.1-2.6l-10.3-5.5l-9.8-5.4l-3,0.9l-3.2,5.9l7.2,4.2l1.6-0.5l3.3,1.8l-5,9l6.5,3.5
	l-5.2,10l-6.3-3.4l-6.3-2.1l-4.1,7.9l17.8,9.3l-6.5,12.1l-19.9-10.2l-2.6,5.1l19.9,10.2l-5.4,11.9l5.5,2.7l-9.4,19.8l8.4,4l-2,4.3
	l12.9,6.1L2034.3,1318.7z M2079.3,1364.8l4-8.3l-30-14.3l-8.3-3.9l-5.8,12.1l9,4.3l1.8-3.8L2079.3,1364.8z M1884.9,1418.2l0.7-1.2
	l-38.1-17.1l-24.5-11.3l-2.6,2.3l20.2,24.1l7.5,9h34.2L1884.9,1418.2z M1722.5,1406.7l-3.9-4.8l-11-13.7l-43.2,35.8h20.4l-1.8-2.2
	l21-16.9l4.3,5.3l11,13.8h17.8l-6.2-6.8L1722.5,1406.7z M2144.1,9.3l-1.8,3.6l-1.3-0.7l-13.6,26.9l-5-2.7l-2,4.4l-2.3,4.1l4.9,2.9
	l-22.6,44.7l-5.2-2.7l-2.1,4.1l-2.3,4.5l5.2,2.7l-17.4,34.4l-5-2.5l-2.2,4.4l-2.3,4.6l5,2.5l-22.6,44.6l-4.9-2.5l-2.1,4.3l-2.4,4.8
	l4.8,2.4l-8.8,17.5l-4.9-2.4l-2.2,4.4l-2.1,4.4l4.8,2.4l-22.4,44.3l-4.6-2.3l-2.3,4.8l-2.2,4.4l4.5,2.2l-17.2,34l-4.7-2.5l-2.4,4.6
	l-2.4,4.6l4.9,2.6l-22.6,44.7l-4.1-2.1l-2,4.2l-2.3,4.4l4.1,2.1l-13.3,26.3l16.3,8.3l157.8-311.7l38.8-76.6l-2.4-1.2l2.1-3.6
	l6.8,3.4l2.5-5.1l-1-0.4l5.3-10.6l-1-2.9h-44L2144.1,9.3z M12.7,129.7l-0.4-4l10.6-1l0.4,3.9l13.5-1.3L32.1,79l-1.2-11.9L6.1,69.6
	L0.2,9.9L0,9.9v121L12.7,129.7z M406.3,1419l-2.4,5h-34.6l7.7-15.7l7.5,3.7l1.6-3.1l4.3,2.2l8.9-18.4l-11.9-5.9l1.6-2.9l-8.7-4.4
	l-1.5,3l-8.2-3.9l8.3-16.3l8,3.9l1.5-2.8l20.9,10.1l2.4-5.5l-8.8-4.3l5.2-10.6l4.7,2.2l2.4-5.6l-12.4-5.9l1.7-2.9l-8.7-4.3l-1.4,2.9
	l-7.9-4l8.1-16.5l7.7,3.7l1.7-2.9l20.6,10.4l3-5.4l-8.3-4.3l5.1-10.5l4.1,2.2l3.1-5.7l-11.7-5.9l1.5-2.9l-8.6-4.4l-1.6,2.9l-8.3-4.1
	l8.2-16.2l7.8,3.7l1.5-3.3l20.8,10.2l2.9-5.6l-8.6-4.6l5.1-10.1l4.6,2.2l2.5-5.5l-12.2-6.1l1.6-3.1l-8.2-4l-1.5,3l-8.7-4.3l8.2-16.6
	l7.9,3.9l1.6-3.1l20.5,10.3l10.3-22l-72.4-36.2l-14.2,31.6l-1.5,1l3.8,5l0.6,5l2.1,0.1l5.1,2.4l-6.9,15.6l1,2.9l-12.6,5.2l-2.7-8.3
	l0.2-3.1l-5.2-0.9l-3.4-2.6l-2.5-2.9l-2-3.9l-1.1-6.4l1.6-4.2l1.7-3.4l3.1-1.6l-1.2-1.9l5.1-12.4l6.3,2.8l6.4-13.8l5.1-11.3
	l-5.2-2.7l8.4-18.4l14.9,7.3l3.3-8.7l5.1-14.6l10.9,4l-0.3,0.8l5.8,2.2l-1.5,5l1.2,0.4l-6,16.7l23.1,11l5.9-12.8l16,7.3l-2.5,5.2
	l6.2,2.9l11.1-22.6l25.8,12.2l-8.3,17l25.4,9.6l-4.9,14l3.4,1.3l5.1-13.9l14.8,5.5l-2.6,7.1l21,5l-0.1,3.5l55.7,13.3l2.3-7.2
	l4.8,1.4l-3.5,13.8l-3-0.6l-3.2,13.4l-6.9-1.5l0.3-2l-6-1.3l-0.4,2.1l-7.4-1.6l0.4-1.8l-5.8-1.3l-0.7,1.8l-7.2-1.6l0.3-2l-6.4-1.4
	l-0.3,1.9l-7.1-1.6l0.4-2.2l-6.2-1.6l-3.5,9.2l3.1,1.1l-2.7,7.6l-7.9-3.1l1.7-4.6l-73.6-26.6l0.6-1.2l-6.3-3l-10.6,21.9l20.8,10
	l-1.7,3.4l8.5,4.2l-8.2,16.6l-7.5-3.7l1.5-3.1l-8.8-4.4l-1.4,2.9l-12.5-6l-2.8,5.6l4.6,2.4l-7.5,15.6l20.8,10.5l-1.6,3.3l7.6,3.9
	l-8.5,16.4l-8.1-4.1l1.5-2.8l-8.5-4.3l-1.5,2.9l-11.5-5.6l-2.7,6.1l3.3,2l-7.6,15.4l21.5,10.7l-1.6,3.2l7.7,4l-7.8,16.2l-8.6-4.1
	l1.2-3l-8.5-4.1l-1.4,2.9l-11.5-5.8l-2.7,5.5l3.9,1.9l-7.8,16.1l21.1,10.2l-1.6,3l8.1,4.1l-8.1,16.2l-8.4-4.1l1.5-2.8l-8.4-4.2
	l-1.5,3l-12.2-6.1l-8.9,18.4L406.3,1419z M531.4,1243.9l20,6.8l3.2-8.6l-20.7-4.6L531.4,1243.9z M862,32.6l-1.1,10.9h2.1l-0.2,1
	l-0.4,8.1l0.3,0.3l-6.3,23.4l5.7,1.5l1.5-5.5l31.7,8.5l-1.6,6l11,2.9l1.6-5.8L944,94.1l3.2-11.8l1.7-6.3l-76.7-20.6l0.9-2l0.3-8
	l-0.1-0.5l2-31.8l0.7-0.1l0.1-2.9h-0.6l0.1-2.5l9,0.7l16,1.2l-0.2,2.6l-1.3-0.1l-0.3,2.5l1.4,0.1l-1.4,20.5l15.2,1.3l0.9-0.8
	l0.3-3.9l-0.7-0.1L916,11l22.2,1.5l3.6,0.2l-0.1,2.5l-1,15.7l-0.8,0.3l-0.4,3.2l1.7,1l13.9,1.2l1.8-22.5l25.2,1.8l0.7-10L981,5.7
	l0.5-5.7H864.2l-1.4,21L862,32.6z M1419.9,2.6l9.9,17.5L1465.4,0h-40.9L1419.9,2.6z M1196.4,0h-5.4l1.1,2.2L1196.4,0z M1891.3,22.2
	l9.8,12.4l44-34.7h-25.5l-17,13.3L1891.3,22.2z M302.2,758l-2.2,8.3l6.2,1.6l2.2-8.3L302.2,758z M204.4,1145.5l-8.4-4.5l-11.7,27.8
	l8.2,4.2L204.4,1145.5z M84.8,1083.7l-3.6,8.5l-8.3,19.6l21.6,11l85.2,43.7l1.8-3.8l-5-4.5l10.9-21.5l-20.4-10.7l-7,13.8l-5.1,1.6
	l-12.6-6.5l-1.7-5.7l7.3-13.6l-21-10.5l-6.5,13.6l-5.6,2l-13-6.5l-1.5-5.8l5.6-13.8L84.8,1083.7z M309.5,1217.8l4.9,1.7l8.3-23.7
	l-15.3-4.7l-0.7,2.2l-6.3-2.7l6.7-15.5l-87.6-38.4l-8.1,18.6l-2.9-1.3l-21,48.2l3.1,1.4l-9.6,22.4l7.3,3l-6.7,15.6l59.4,25.7
	l-3.2,7.3l7.8,3.4l6.2,2.7l6.5,2.8l6.4-14.8l26.3,11.4l1.8-4.1l1.6-3.7l-2-0.9l9.7-22.3l0.8,0.2l1.5-3.8l0-0.7l-0.1-0.5l-0.4-0.6
	l-0.8-0.6l-5.2-2.2l6.1-12.9L309.5,1217.8z M285.5,808l-0.2-0.8l-0.4-0.7l-0.6-0.6l-0.7-0.4l-0.8-0.3l-0.8-0.1l-0.8,0.1l-0.8,0.3
	l-0.7,0.4l-0.6,0.6l-14.6-7l0.2-0.8l0-0.8l-0.2-0.8l-0.4-0.7l-0.5-0.6l-0.6-0.4l-0.7-0.3l-0.8-0.1l-0.8,0.1l-0.7,0.3l-0.7,0.4
	l-0.5,0.6l-7.3-3.6l-8,16.6l19.7,9.4l0.3,0.2l21.1,10.4l7.8-16.3l-7-3.5l0.1-0.8L285.5,808z M570.3,976.6l2.8-25.5l3.3-23.3
	l1.7-19.3l-18.1-2.2l-10.1,82.4l18.5,2.5L570.3,976.6z M451.5,1089.5l17.8,0.9l1.6-17.8l2.1-23.3l2.1-23.4l1.7-19.4l-17.8-2.8
	L451.5,1089.5z M240.3,729.5l-8,18.4l-8,18.4l-9.3,21.3l-9.3,21.3l20.6,9.2l6.7-14.5l4.4,2.1l2.5-5.2l4.2-5.7l0.4-0.8l0.2-0.9l0-0.9
	l-0.2-0.9l-0.4-0.8l-0.6-0.7l-0.7-0.5l-0.8-0.4l-0.9-0.1l-0.9,0.1l-0.8,0.3l5.9-13.5l4.3,2l16-37.4l-9.1-3.9L240.3,729.5z
	 M70.4,1345l-16-7.4l-3.1,7.3l-5.4-2.5l-0.1-1.3l-16.9-7.3l-2.1,0.4l-7.1-3.5l-4.7-9.2l2.3-5.6l-1.3-0.5l13-28.2l12.4-28.2l8.5-2.6
	l33.3,14l-1.2,2.5l1.9,0.8l2,4.6l12.1,5.2l6.4-16.6l29.4,11.4l4.4-11.4l-6.9-2.7l0.6-1.5l-3.5-1.3l-13.4-5.2l-0.3,0.7l-5.7-2.2
	l1.6-3.6l-20.5-8.7l-3.3,0.8l-1,1.8l-26.7-11.5l-0.2-1.1l-3.9-6.1l-1.4-0.7l3.7-8.7l3.9-9.8l2.1,0.5l3-1.3l0.6-1.6l29.7,12.4
	l8.3-19.5l-29.9-12.2l0.8-2l-1.2-2.7l-2-0.8l2.6-6.1l4.7-11.8l1.7,0.3l3.6-1.4l5.8-13.8l-6.6-3l-19.4-8.9L34,1212.2l-1,0.3l-1.5,3.8
	l-2.6-1.1l-12.4,30.1l2.6,1.1l-9.5,22.9l-3.1-1.4l-2.6,5.7l3.1,1.4l-1,2.5l-1.5,3.3l-3.1-1.1L0,1283v2.5l2.1,0.9l-2.1,4.9v42.1
	l64.2,27.3L70.4,1345z M41.3,9.3L47,63.7l78.6-8.3L120,1.1L41.3,9.3z M59.9,965.9L38.8,968l0.4,3.7l-7.6,0.8L29.2,948l11.4-1.1
	l-2.4-24.6l-20.9,2.1l1.3,12.6l-11.1,1.1l2.4,24.4l8.9-0.9l1.2,12l-8.2,0.8L13,989l8.4-0.8l0.3,2.9l9.2-0.9l0.3,2.9l8.4-0.8l0.3,2.9
	l5.5-0.5l-0.3-3.1l8.6-0.8l-1.5-15.1l8.6-0.8L59.9,965.9z M102.9,1374.5l-5.7,13.4l7.8,3.1l6.9,2.9l4.6-10.8l-0.9-3.1l-4.8-1.9
	L102.9,1374.5z M1570.9,598l7.3,5l15.7-21.8l29.5-30l-12.5-12.5l-25.5,26.5l-1.9-1.9l-3.6,3.6l-3,3l-15.6-11.4l4.6-6.3l-4-2.8
	l-5.7,8l3.9,2.8l-6.7,9.1l18.2,13.3l-7.5,10L1570.9,598z M1464.1,441.8l92.8-70.7l-9.7-12.4l-92.9,70.6L1464.1,441.8z M1716.9,460.7
	l-60,73.7l13.6,11l7.6-9.3l14.9-18.3l14.9-18.3l14.9-18.3l7.6-9.4L1716.9,460.7z M1844.3,323.1l11.2-13.1l-12.2-10.4l-15.4-13.1
	l-11.5-9.9l-11.2,13.1l19,16.3L1844.3,323.1z M1705.4,601.2l14.3-19.4l-8.5-6.3l1.4-2l-3.7-2.7l-3.3-2.4l-1.3,1.8l-8.7-6.4
	l-14.4,19.4l4.3,3.2l0.9-1.2l16,11.8l-1,1.4L1705.4,601.2z M1978.7,866.6l-102.2-54.7l-7.9,14.4l102.4,55.1L1978.7,866.6z
	 M1559,493.4l-10.5,10.8l19.8,19.3l-1.5,1.5l17.9,17.5l10.9-11.1l-9.5-9.3l-5.6-5.5l1.1-1.2L1559,493.4z M1533.6,596.3l11.6,24.7
	l14.5-6.8l-11.6-24.7L1533.6,596.3z M1528.9,258.1l31.3,46.4l15.1-11.1l-30.3-46.8L1528.9,258.1z M1570,340.4l10.9,13.1l86.3-65.8
	l-10.2-13.4L1570,340.4z M1940.9,927.9l-95.8-51.1l-7.4,13.7l95.2,51.4L1940.9,927.9z M1702.6,452.1l6.7-7.8l-23.9-20.5l-6.7,7.8
	L1702.6,452.1z M1648.5,442.5l16.3-17l8-8.4l-1.9-1.8l8.2-8.6l32.6-34l8.3-8.6l-12.7-12.2l-49.1,51.2l1.8,1.7l-65.1,68l12.8,12.3
	l8.3-8.7l16.3-17L1648.5,442.5z M1748.8,1135.1l1.9,0.9l2.2-4.7l8.5,3.9l2.1-4.6l-8.5-3.9l-37.3-17.3l-4.3,9.3l12,5.5L1748.8,1135.1
	z M1929.8,1026l-9.1-7.2l-5.6,7.1l-3.6-3.1l-5.4,6.3l-0.7-0.6l-5.7,6.6l13,11.3L1929.8,1026z M1745.9,471.6l-6.3,9.1l30.6,21.3
	l6.3-9.1L1745.9,471.6z M1914,382.8l10.9-12.7l-11-9.4l-18.3-15.7l-9.9-8.5l-10.9,12.7l20.2,17.3L1914,382.8z M1469.1,140.8
	l7.1,14.5l96.6-47.7l-7.1-14.4L1469.1,140.8z M1874.1,525l-6.1-2.9l-1.7,3.5l-1.7,3.6l6.2,3l-12.5,26l-6-2.9l-1.7,3.5l-1.7,3.6
	l6.3,3l-5,10.4l16.4,7.9l29.4-61.1l29.4-61.1l-16.6-8l-5.4,11.3l-6.6-3.2l-1.7,3.6l-1.7,3.6l6.4,3.1l-12.3,25.4l-6.3-3l-1.8,3.8
	l-1.8,3.8l6.3,3l-4.6,9.6L1874.1,525z M1748.2,602.2l6.7-10.6l12.1-18.2l15.5-23.7l11.7-17.9l5.6-8.6l-15.3-10l-51.6,78.8
	L1748.2,602.2z M1902.6,1069.2l-118.5-65.3l-7.7,14l119,65.4L1902.6,1069.2z M1804.7,960.1l81.9,45.1l7.4-14l-81.4-45.2
	L1804.7,960.1z M1887.8,1006.7l-15,28.4l11.3,6.2l11.2-21.7l-3.7-1.8l3.2-7.2L1887.8,1006.7z M1847.2,475.6l8.1-12.5l-16.8-10.9
	l-20,30.9l16.8,10.9L1847.2,475.6z M1907.8,1006.5l12.3-25.7l-18.6-9.2l-6.4,13.1l3.5,1.7l-6.1,11.8L1907.8,1006.5z M1806,620.1
	l16.5-8.5l21.3,41.7l24.4-12.5l-5-9.8l-5.9-11.4l-3.4,1.7l-4.3-8.4l-9.6-18.7l-9.6-18.8l-12.7,6.5l0.9,1.8l-24.9,12.8L1806,620.1z
	 M1942.4,144.3l-7.5-7.8l-4.7,5.3l-0.6,4.7l5.4,5.7L1942.4,144.3z M1932.1,224l-60.2,90.9l13.4,9.1l60.1-91.1L1932.1,224z
	 M1770.8,96.5l15.8,20.2l16.8-11.4L1788,84.4L1770.8,96.5z M1799.8,253.2l11.8,11.3l75.8-77.8l-11.6-11.6L1799.8,253.2z
	 M1983.7,998.6l2-3.4l2.6-6.2l1.3-2.8l-1-3.7l-2.5-3.1l-14.9-6.4l-0.4,1.7l-18.6-9.3l4.2-9.4l2.5,0.5l2.4,0l2.7-1.3l6.5-7.5l-1.1-1
	l2.2-3.2l-3.9-2.3l-3-0.9l-2.6-0.3l-4.1-0.1l-0.4,1l2.4,0l0,2.9l-3.6,0.6l-2.9,1.4l-2.4,1.4l-3.3,4.5l-13.8,25.3l29.2,14.2l5.8,2.5
	l2.3,1.8l0.6,2.2l1.8,3.2l2.3,1.6l3.5-0.4l2-0.6L1983.7,998.6z M1462.9,1051.8l9.3-4.1l0.7,1.6l8.2-3.7l-6.4-14.1l1-0.4l-1.8-3.8
	l-1,0.5l-13.2-28.5l1-0.5l-1.8-3.7l-0.9,0.5l-6.6-13.3l-7.9,3.6l-0.6-1.4l-5.2,2.6l1.4,2.6l-4.2,2.1L1462.9,1051.8z M1576.2,207.9
	l9.1-5.7l-3.4-5.5l-9.1,5.7L1576.2,207.9z M1495.5,212.3l8.4,14l69.4-42.9l-8-13.4L1495.5,212.3z M1279.9,1158l9.7-20.8l-20.1-9.4
	l-9.8,20.8l-9.7,20.8l20.1,9.4L1279.9,1158z M1643.8,66.7l7.4,14.1L1771.6,18l-7.3-14.2L1643.8,66.7z M1580.1,150.9l2.5,3.8l3.4-2.2
	l-2.5-3.8L1580.1,150.9z M1766.5,39.1l2.3,4.6l13-6.7l-2.3-4.5L1766.5,39.1z M1419.6,959l-0.9,0.5l-14.7-27.8l0.8-0.4l-1.8-3.7
	l-0.9,0.5l-7-13.3l-8,4l-0.7-1.4l-5.5,2.9l1.7,3l-3.4,1.8l31.2,58.7l8.5-4.5l1,1.8l8-4.3l-7.1-13.3l0.8-0.5L1419.6,959z
	 M1224.6,1032.6l18.1-10.6l-19.4-34l-1.5,1l-13.6,8.5l-2.7,1.7L1224.6,1032.6z M1514.7,501.2l14.3-15.2l-30.2-28.3l-14.3,15.2
	L1514.7,501.2z M1407.4,360l8.9,13.1l96.7-65.2l-9.3-13.2L1407.4,360z M1442.2,783.3l-28.5,18l-2.1-3.3l-24.6,15.6l11.4,18.1
	l18.2-11.5l1.3,2l14.5-9.2l2.6,4.1l15.9-10.1l-4-6.4l4.5-2.9L1442.2,783.3z M1310.3,870.4l-9.9,8.9l-3.1,2l-2.9,1.9l-5.1-7.9
	l-12.5,8.1l-0.7-1l-6.6,4.2l0.6,0.8l-17.2,10.9l-0.5-0.8l-6.8,4.4l0.5,0.7l-16.9,10.9l-0.4-0.8l-6.5,4.2l0.4,0.8l-19,12l-10,6.2
	l-0.3-0.5l-5.1,3.3l3.1,5.1l-11.9,7.3l28.6,46.6l17.5-11l-5.3-8.4l-2.9,1.7l-16.3-26.4l12-7.7l85.1-54.2l-1.1-2.4l3.3-2l3.5-2.1
	l42.6,44.9l13.4-12.8l-4.5-5l-1.5,1.3l-26.3-28l5.5-5.2l-3.5-3.8l-5.5,5.3l-7.3-7.9l1.3-1.3l-4.7-5.1L1310.3,870.4z M1105.9,899.8
	l31.7-23.5l-12.6-16l-28.2-46.5l-13.2,8l-7.2,4.4l3,5l7.2-4.4l25.9,42.7l-18.8,14L1105.9,899.8z M1007.4,715l2.1-0.8l17.7,45.9
	l17.9-6.3l-4.6-12.8l0.6-0.2l-1.4-3.9l-0.6,0.2l-5.9-15.7l0.7-0.3l-1.5-4.1l-0.9,0.3l-4-10.3l-2.7,1l-4-9.8l0.8-0.3l-1.4-3.7
	l-0.9,0.3l-4.7-12.6l-10.3,3.6l-1-3l-5.6,2.2l1.1,2.9l-1.5,0.6L1007.4,715z M1209.2,829.9l34.5-21.6l-9.9-15.8l-1.8-2.8l-12.8,8
	l-18.6-29.8l-15.5,9.7l20.4,32.6l-6.2,3.9L1209.2,829.9z M1009,798.8l59.6,123.7l17.4-8.4l-59.6-123.7L1009,798.8z M1084.3,1125.5
	l2.4,1.1l1.9-4.4l4.5-8l-14.8-9.1l-28.1-17.2l-14.2-8.8l-5.2,7.9l-1.2-0.8l-2.6,4.6l2.4,1.8l-1.9,3.6l54.5,33.3L1084.3,1125.5z
	 M1175,807.4l-3.7-5.7l-1.1,0.8l-15.6-23.9l1.1-0.8l-2.6-4l-1.2,0.7l-7.8-12l-2,1.2l-5.3-8.3l1.1-0.8l-2.4-3.8l-1.4,0.8l-7-10.8
	l-8.1,5.1l-1.8-2.6l-6.2,3.8l1.9,2.7l-1.4,0.9l15.1,23.1l1.8-1.2l52.3,80.2l1.6-1l1.6,2.4l5.7-3.6l-1.7-2.3l8.4-5.6l-7.3-10.9
	l1.4-0.9l-2.6-3.9l-1.2,0.7l-12.7-19.6L1175,807.4z"/>
<path id="wall" class="st3" d="M2241.3,1106.2l-168.4-77.1l-9.8,6.5l-22.9,15.1l-1.6,1.1l1.9,20.1l-24,47.1l-34.7,68.2l-17.6-9.7
	l-15.1-8.3L1703.7,1034l-68.9-149.7l-100.9-215.7l-211.7,133.6l-19.7-25.7l-49.1-62l-4.5,4.4l-104.2-132.3l-50.9-61.8l-15.5-18.8
	l-19.1-22.8l-36.9-44.6l-70.9,51.6l-6.1,6.7l-14.8,20.4l-13.8-18.8l-30.5-21.1l-44.9-32.7l-94.3-64l-72.1-35l-91.4-55.5l-37.8-17.9
	l-75.2-43.7l-4.3,1.1l-17.8,40.3l-9.5,22L420,332.8l-58.6,129.6l-47.6-2.5l-2.5-3.9l-63.7,6.2L7.8,487.1"/>
<g id="text">
	<g id="westT">
		<polygon id="XMLID_1179_" class="st4" points="157.8,820.6 157.8,929.8 317.3,929.8 346.8,980.9 376.3,929.8 535.8,929.8 
			535.8,820.6 		"/>
		<polygon id="XMLID_1178_" class="st5" points="531.7,824.7 161.9,824.7 161.9,925.7 319.7,925.7 346.8,972.7 374,925.7 
			531.7,925.7 		"/>
		<path id="XMLID_626_" class="st6" d="M196.9,849.5h7.3l7.4,31.4h0.1l8.3-31.4h7.4l8.1,31.4h0.1l7.7-31.4h7.3l-11.3,41.1h-7.3
			l-8.2-31.4h-0.1l-8.4,31.4h-7.4L196.9,849.5z M258.4,877.4c0,4.7,2.5,8.8,8,8.8c3.8,0,6.1-1.7,7.2-4.9h6.2
			c-1.4,6.5-7,10.1-13.5,10.1c-9.3,0-14.6-6.5-14.6-15.6c0-8.5,5.5-15.7,14.4-15.7c9.4,0,15.1,8.5,14,17.4H258.4z M273.7,873.1
			c-0.2-4.1-3-7.9-7.5-7.9c-4.5,0-7.7,3.5-7.8,7.9H273.7z M290.2,881c0.3,3.8,3.2,5.2,6.7,5.2c2.5,0,6.8-0.5,6.6-3.9
			c-0.2-3.4-4.9-3.9-9.7-4.9c-4.8-1-9.5-2.8-9.5-8.8c0-6.5,7-8.5,12.4-8.5c6.1,0,11.6,2.5,12.4,9.1h-6.8c-0.6-3.1-3.2-4-6-4
			c-1.9,0-5.4,0.5-5.4,3.1c0,3.2,4.8,3.7,9.7,4.8c4.8,1.1,9.6,2.8,9.6,8.7c0,7.1-7.1,9.7-13.3,9.7c-7.5,0-13.1-3.3-13.2-10.4H290.2z
			 M312.1,860.8h4.9v-8.9h6.6v8.9h5.9v4.9h-5.9v15.9c0,2.7,0.2,4.1,3.2,4.1c0.9,0,1.8,0,2.8-0.2v5.1c-1.4,0.1-2.8,0.3-4.3,0.3
			c-6.8,0-8.1-2.6-8.2-7.6v-17.5h-4.9V860.8z M351.1,849.5h20c7.4,0,12.2,3.3,12.2,10.2c0,4.1-2.1,7.1-5.9,8.7v0.1
			c5,1.1,7.7,5,7.7,10.6c0,6.4-4.5,11.4-15.1,11.4h-18.9V849.5z M358.3,866.7H370c3.5,0,6-2,6-5.7c0-4.1-2.1-5.6-6-5.6h-11.7V866.7z
			 M358.3,884.7H371c4.4,0,6.9-2.4,6.9-6.5c0-4-2.5-6.3-6.9-6.3h-12.7V884.7z M395.8,877.4c0,4.7,2.5,8.8,8,8.8
			c3.8,0,6.1-1.7,7.2-4.9h6.2c-1.4,6.5-7,10.1-13.5,10.1c-9.3,0-14.6-6.5-14.6-15.6c0-8.5,5.5-15.7,14.4-15.7
			c9.4,0,15.1,8.5,14,17.4H395.8z M411.1,873.1c-0.2-4.1-3.1-7.9-7.5-7.9c-4.5,0-7.7,3.5-7.8,7.9H411.1z M422.6,860.8h6.2v5.8h0.1
			c0.7-3.2,4.7-6.6,8.7-6.6c1.5,0,1.9,0.1,2.5,0.2v6.3c-0.9-0.1-1.9-0.3-2.8-0.3c-4.5,0-8.1,3.6-8.1,10.2v14.2h-6.6V860.8z
			 M443,849.5h6.6v41.1H443V849.5z M456.9,849.5h6.6v6.2h-6.6V849.5z M456.9,860.8h6.6v29.7h-6.6V860.8z M470.6,860.8h6.2v4.4
			l0.1,0.1c2-3.3,5.3-5.3,9.3-5.3c6.4,0,10.5,3.5,10.5,10.1v20.4h-6.6v-18.7c-0.1-4.7-2-6.7-5.8-6.7c-4.4,0-7.2,3.5-7.2,7.8v17.5
			h-6.6V860.8z"/>
	</g>
	<g id="eastT">
		<polygon id="XMLID_1403_" class="st4" points="1242.1,154.8 1242.1,264.1 1401.5,264.1 1431,315.2 1460.5,264.1 1620,264.1 
			1620,154.8 		"/>
		<polygon id="XMLID_1402_" class="st5" points="1615.9,158.9 1246.2,158.9 1246.2,259.9 1403.9,259.9 1431,307 1458.2,259.9 
			1615.9,259.9 		"/>
		<path id="XMLID_625_" class="st6" d="M1291.6,183.7h29.6v6.2h-22.4v10.8h20.7v5.9h-20.7v12h22.8v6.2h-30V183.7z M1351.9,218.1
			c0,1.6,0.3,2.2,1.6,2.2c0.4,0,0.9,0,1.6-0.1v4.5c-1,0.3-3.1,0.7-4.1,0.7c-2.6,0-4.5-0.9-5.1-3.6c-2.6,2.5-6.8,3.6-10.3,3.6
			c-5.3,0-10.2-2.9-10.2-8.7c0-7.4,5.9-8.6,11.4-9.3c4.7-0.9,8.9-0.3,8.9-4.2c0-3.4-3.5-4-6.2-4c-3.7,0-6.3,1.5-6.6,4.7h-6.6
			c0.5-7.7,7-9.9,13.5-9.9c5.8,0,11.9,2.4,11.9,8.6V218.1z M1345.3,209.8c-2,1.3-5.2,1.3-8.1,1.8c-2.8,0.5-5.3,1.5-5.3,4.9
			c0,2.9,3.7,3.8,6,3.8c2.9,0,7.4-1.5,7.4-5.6V209.8z M1363.9,215.2c0.3,3.8,3.2,5.2,6.7,5.2c2.5,0,6.8-0.5,6.6-3.9
			c-0.2-3.4-4.9-3.9-9.7-4.9c-4.8-1-9.5-2.8-9.5-8.8c0-6.5,7-8.5,12.4-8.5c6.1,0,11.6,2.5,12.4,9.1h-6.8c-0.6-3.1-3.2-4-6-4
			c-1.9,0-5.4,0.5-5.4,3.1c0,3.2,4.8,3.7,9.7,4.8c4.8,1.1,9.6,2.8,9.6,8.7c0,7.1-7.1,9.7-13.3,9.7c-7.5,0-13.1-3.3-13.2-10.4H1363.9
			z M1385.8,195h4.9v-8.9h6.6v8.9h5.9v4.9h-5.9v15.9c0,2.7,0.2,4.1,3.2,4.1c0.9,0,1.8,0,2.8-0.2v5.1c-1.4,0.1-2.8,0.3-4.3,0.3
			c-6.8,0-8.1-2.6-8.2-7.6v-17.5h-4.9V195z M1424.8,183.7h20c7.4,0,12.2,3.3,12.2,10.2c0,4.1-2.1,7.1-5.9,8.7v0.1
			c5,1.1,7.7,5,7.7,10.6c0,6.4-4.5,11.4-15.1,11.4h-18.9V183.7z M1432,200.9h11.7c3.5,0,6-2,6-5.7c0-4.1-2.1-5.6-6-5.6H1432V200.9z
			 M1432,218.9h12.7c4.4,0,6.9-2.4,6.9-6.5c0-4-2.5-6.3-6.9-6.3H1432V218.9z M1469.5,211.6c0,4.7,2.5,8.8,8,8.8
			c3.8,0,6.1-1.7,7.2-4.9h6.2c-1.4,6.5-7,10.1-13.5,10.1c-9.3,0-14.6-6.5-14.6-15.6c0-8.5,5.5-15.7,14.4-15.7
			c9.4,0,15.1,8.5,14,17.4H1469.5z M1484.8,207.2c-0.2-4.1-3.1-7.9-7.5-7.9c-4.5,0-7.7,3.5-7.8,7.9H1484.8z M1496.3,195h6.2v5.8h0.1
			c0.8-3.2,4.7-6.6,8.7-6.6c1.5,0,1.9,0.1,2.5,0.2v6.3c-0.9-0.1-1.9-0.3-2.8-0.3c-4.5,0-8.1,3.6-8.1,10.2v14.2h-6.6V195z
			 M1516.7,183.7h6.6v41.1h-6.6V183.7z M1530.6,183.7h6.6v6.2h-6.6V183.7z M1530.6,195h6.6v29.7h-6.6V195z M1544.3,195h6.2v4.4
			l0.1,0.1c2-3.3,5.3-5.3,9.3-5.3c6.4,0,10.5,3.5,10.5,10.1v20.4h-6.6V206c-0.1-4.7-2-6.7-5.8-6.7c-4.4,0-7.2,3.5-7.2,7.8v17.5h-6.6
			V195z"/>
	</g>
	<g id="bw">
		<polygon id="XMLID_434_" class="st4" points="1616.8,716.6 1616.8,692.3 1977.4,692.3 1977.4,801.5 1616.8,801.5 1616.8,777.2 
			1564.2,746.9 		"/>
		<polygon id="XMLID_1378_" class="st5" points="1572.5,746.9 1620.9,718.9 1620.9,696.4 1973.3,696.4 1973.3,797.4 1620.9,797.4 
			1620.9,774.9 		"/>
		<path id="wal" class="st6" d="M1654.2,726h20c7.4,0,12.2,3.3,12.2,10.2c0,4.1-2.1,7.1-5.9,8.7v0.1c5,1.1,7.7,5,7.7,10.6
			c0,6.4-4.5,11.4-15.1,11.4h-18.9V726z M1661.3,743.2h11.7c3.5,0,6-2,6-5.7c0-4.1-2.1-5.6-6-5.6h-11.7V743.2z M1661.3,761.2h12.7
			c4.4,0,6.9-2.4,6.9-6.5c0-4-2.5-6.3-6.9-6.3h-12.7V761.2z M1698.8,753.9c0,4.7,2.5,8.8,8,8.8c3.8,0,6.1-1.7,7.2-4.9h6.2
			c-1.4,6.5-7,10.1-13.5,10.1c-9.3,0-14.6-6.5-14.6-15.6c0-8.5,5.5-15.7,14.4-15.7c9.4,0,15.1,8.5,14,17.4H1698.8z M1714.1,749.5
			c-0.2-4.1-3-7.9-7.5-7.9c-4.5,0-7.7,3.5-7.8,7.9H1714.1z M1725.7,737.3h6.2v5.8h0.1c0.7-3.2,4.7-6.6,8.7-6.6
			c1.5,0,1.9,0.1,2.5,0.2v6.3c-0.9-0.1-1.9-0.3-2.8-0.3c-4.5,0-8.1,3.6-8.1,10.2V767h-6.6V737.3z M1746.1,726h6.6V767h-6.6V726z
			 M1759.9,726h6.6v6.2h-6.6V726z M1759.9,737.3h6.6V767h-6.6V737.3z M1773.6,737.3h6.2v4.4l0.1,0.1c2-3.3,5.3-5.3,9.3-5.3
			c6.4,0,10.5,3.5,10.5,10.1V767h-6.6v-18.7c-0.1-4.7-2-6.7-5.8-6.7c-4.4,0-7.2,3.5-7.2,7.8V767h-6.6V737.3z M1819.5,726h7.3
			l7.4,31.4h0.1l8.3-31.4h7.4l8.1,31.4h0.1l7.7-31.4h7.3l-11.3,41.1h-7.3l-8.2-31.4h-0.1l-8.4,31.4h-7.4L1819.5,726z M1899.7,760.4
			c0,1.6,0.3,2.2,1.6,2.2c0.4,0,0.9,0,1.6-0.1v4.5c-1,0.3-3,0.7-4.1,0.7c-2.6,0-4.5-0.9-5.1-3.6c-2.6,2.5-6.8,3.6-10.3,3.6
			c-5.3,0-10.2-2.9-10.2-8.7c0-7.4,5.9-8.6,11.4-9.3c4.7-0.9,8.9-0.3,8.9-4.2c0-3.4-3.5-4-6.2-4c-3.7,0-6.3,1.5-6.6,4.7h-6.6
			c0.5-7.7,7-9.9,13.5-9.9c5.8,0,11.9,2.4,11.9,8.6V760.4z M1893.1,752.1c-2,1.3-5.2,1.3-8.1,1.8c-2.8,0.5-5.3,1.5-5.3,4.9
			c0,2.9,3.7,3.8,6,3.8c2.9,0,7.4-1.5,7.4-5.6V752.1z M1906.9,726h6.6V767h-6.6V726z M1920.8,726h6.6V767h-6.6V726z"/>
	</g>
	<g id="u-bahn">
		<polygon id="capB" class="st7" points="1398.7,1109.2 1398.7,1217.4 1587.5,1217.4 1616.7,1268.1 1646,1217.4 1836,1217.4 
			1836,1109.2 		"/>
		<polygon id="capR" class="st5" points="1832,1113.3 1402.7,1113.3 1402.7,1213.3 1589.8,1213.3 1616.7,1259.9 1643.6,1213.3 
			1832,1213.3 		"/>
		<rect id="qua" x="1413.7" y="1123.8" class="st6" width="76.7" height="76.7"/>
		<path id="u" class="st5" d="M1479.6,1167c0,18.3-8.4,27.4-27.5,27.4s-27.5-9.1-27.5-27.4v-37h16.4v38c0,8.1,3,12.3,11,12.3
			s11-4.2,11-12.3v-38h16.4v37H1479.6z"/>
		<path id="moritz" class="st6" d="M1519.1,1139.3h10.2l11.4,32.4h0.1l11.1-32.4h10.1v41.4h-6.9v-32h-0.1l-11.5,32h-6l-11.5-32h-0.1
			v32h-6.9V1139.3z M1568.4,1165.7c0-9.2,5.5-15.8,15.1-15.8s15.1,6.6,15.1,15.8c0,9.2-5.5,15.8-15.1,15.8
			S1568.4,1174.9,1568.4,1165.7z M1592.1,1165.7c0-5.2-2.6-10.6-8.5-10.6s-8.5,5.4-8.5,10.6c0,5.2,2.6,10.6,8.5,10.6
			S1592.1,1170.9,1592.1,1165.7z M1604.2,1150.7h6.2v5.8h0.1c0.8-3.2,4.7-6.6,8.8-6.6c1.5,0,1.9,0.1,2.5,0.2v6.4
			c-0.9-0.1-1.9-0.3-2.8-0.3c-4.5,0-8.1,3.7-8.1,10.3v14.3h-6.6V1150.7z M1624.8,1139.3h6.6v6.3h-6.6V1139.3z M1624.8,1150.7h6.6v30
			h-6.6V1150.7z M1635.6,1150.7h5v-9h6.6v9h6v4.9h-6v16c0,2.7,0.2,4.1,3.2,4.1c0.9,0,1.9,0,2.8-0.2v5.1c-1.4,0.1-2.8,0.3-4.3,0.3
			c-6.9,0-8.2-2.7-8.3-7.7v-17.7h-5V1150.7z M1656.9,1150.7h24.4v4.6l-17.2,20.1h18v5.2h-26.4v-4.6l16.6-20.1h-15.4V1150.7z
			 M1687.1,1150.7h6.3v4.1h0.1c1.9-3.4,5.5-4.9,9.3-4.9c9.5,0,14,7.2,14,15.9c0,8.1-4.1,15.7-12.9,15.7c-3.8,0-7.9-1.4-10-4.7h-0.1
			v15h-6.6V1150.7z M1701.9,1155.1c-5.6,0-8.4,4.2-8.4,10.6c0,6,3.1,10.6,8.4,10.6c6,0,8.3-5.3,8.3-10.6
			C1710.2,1160.3,1707.3,1155.1,1701.9,1155.1z M1722.5,1139.3h6.6v41.4h-6.6V1139.3z M1761.4,1174c0,1.6,0.3,2.3,1.6,2.3
			c0.4,0,0.9,0,1.6-0.1v4.6c-1,0.3-3.1,0.8-4.2,0.8c-2.7,0-4.6-0.9-5.1-3.7c-2.6,2.6-6.8,3.7-10.4,3.7c-5.4,0-10.3-2.9-10.3-8.8
			c0-7.5,6-8.7,11.5-9.3c4.8-0.9,9-0.3,9-4.2c0-3.4-3.5-4.1-6.2-4.1c-3.7,0-6.3,1.5-6.6,4.8h-6.6c0.5-7.7,7-10,13.6-10
			c5.9,0,12,2.4,12,8.7V1174z M1754.8,1165.7c-2,1.3-5.2,1.3-8.1,1.8c-2.8,0.5-5.4,1.5-5.4,5c0,3,3.8,3.8,6.1,3.8
			c2.9,0,7.4-1.5,7.4-5.7V1165.7z M1765.6,1150.7h5v-9h6.6v9h6v4.9h-6v16c0,2.7,0.2,4.1,3.2,4.1c0.9,0,1.9,0,2.8-0.2v5.1
			c-1.4,0.1-2.8,0.3-4.3,0.3c-6.9,0-8.2-2.7-8.3-7.7v-17.7h-5V1150.7z M1786.8,1150.7h24.4v4.6l-17.2,20.1h18v5.2h-26.4v-4.6
			l16.6-20.1h-15.4V1150.7z"/>
	</g>
</g>
<g id="label_1_">
	<rect id="XMLID_255_" x="-0.7" y="1297.4" class="st6" width="781.9" height="127.6"/>
	<path id="line" class="st8" d="M718.3,1340.9v38.7H555.7v-38.7 M393,1340.9v38.7h162.6v-38.7 M230.4,1340.9v38.7H393v-38.7"/>
	<path id="_x33_00" class="st2" d="M66.8,1358.4c3.8,0.1,7.8-1.2,7.8-5.5c0-2.9-2.3-4.9-5.5-4.9c-3.9,0-5.9,3.6-5.8,7.1h-5.7
		c0.3-6.8,4.6-11.9,11.6-11.9c5.4,0,11.1,3.1,11.1,9.4c0,3.5-1.6,6.3-4.9,7.5v0.1c3.9,0.8,6.3,4.3,6.3,8.8c0,6.6-5.7,10.7-12.4,10.7
		c-8.1,0-12.2-4.9-12.3-12.2h5.7c-0.2,4.3,2.2,7.5,6.6,7.5c3.8,0,6.7-2.3,6.7-6.3c0-5.4-4.7-6.1-9.2-5.9L66.8,1358.4z M109.2,1361.4
		c0,7.9-2.1,18.2-12.1,18.2S85,1369.3,85,1361.4s2-18.2,12.1-18.2S109.2,1353.4,109.2,1361.4L109.2,1361.4z M103.5,1361.4
		c0-7.3-1.4-13.5-6.4-13.5s-6.4,6.1-6.4,13.5s1.4,13.5,6.4,13.5S103.5,1368.7,103.5,1361.4L103.5,1361.4z M137,1361.4
		c0,7.9-2.1,18.2-12.1,18.2s-12.1-10.3-12.1-18.2s2.1-18.2,12.1-18.2S137,1353.4,137,1361.4L137,1361.4z M131.3,1361.4
		c0-7.3-1.4-13.5-6.4-13.5s-6.4,6.1-6.4,13.5s1.4,13.5,6.4,13.5S131.3,1368.7,131.3,1361.4L131.3,1361.4z M155.7,1353h5.4v3.6h0.2
		c1.6-2.8,4.7-4.5,8-4.3c3.2,0,6.1,1.4,7.3,4.3c1.8-2.8,4.8-4.4,8.1-4.3c5.4,0,8.7,2.4,8.7,8.7v17.9h-5.7v-15.1c0-4.1-0.3-7-4.7-7
		c-3.9,0-5.5,2.6-5.5,6.9v15.2h-5.7v-16.6c0-3.6-1.1-5.5-4.6-5.5c-2.9,0-5.7,2.4-5.7,6.7v15.4h-5.7L155.7,1353z"/>
</g>
<polygon id="here" class="startH st9" points="1003.8,773.4 1049.6,775.1 1110.9,917.5 1083.3,961.8 1028.5,961.8 985.9,793.7 "/>
<g id="marker" class="startM">
	<path id="XMLID_433_" class="st10" d="M1081.6,668.5c-3.2-7.4-7.7-14.2-13.4-19.9c-18-18-45.2-23.3-68.7-13.4
		c-31.9,13.5-46.8,50.3-33.3,82.2c7,16.6,20.8,29.3,37.9,35l6.8,22.4l7.1,23.4h11.9l7.1-23.4l6.8-22.4c32.8-11,50.6-46.5,39.6-79.3
		C1082.8,671.5,1082.2,670,1081.6,668.5z"/>
	<path id="XMLID_432_" class="st5" d="M1076.9,679.5c-7.4-29.3-37.1-47-66.4-39.6c-29.3,7.4-47,37.1-39.6,66.4
		c4.9,19.5,20.1,34.7,39.6,39.6l8,26.5l5.4,17.7l5.4-17.7l8-26.5C1066.6,738.5,1084.3,708.7,1076.9,679.5z"/>
	<path id="XMLID_431_" class="st6" d="M1017.5,692.8l-22.4-12.9l3.1-5.4l22.4,12.9v-25.9h6.3v25.9l22.4-12.9l3.1,5.4l-22.4,12.9
		l22.4,12.9l-3.1,5.4l-22.4-12.9v25.9h-6.2v-25.9l-22.4,12.9l-3.1-5.4L1017.5,692.8z"/>
</g>
		
			<script type="text/javascript"><![CDATA[

var svg = document.getElementById('sound');

svg.addEventListener("mouseover",function() {
  svg.getElementById('marker').setAttribute('class', 'openM');
  svg.getElementById('here').setAttribute('class', 'openH');
  svg.getElementById('text').setAttribute('class', 'vis');
			},false);

svg.addEventListener("mouseout",function() {
  svg.getElementById('marker').setAttribute('class', 'closeM');
  svg.getElementById('here').setAttribute('class', 'closeH');
  svg.getElementById('text').setAttribute('class', 'invis');
			},false);

    ]]></script>	
		
</svg>
