<svg id="ladenstrasse" xmlns="http://www.w3.org/2000/svg" viewBox="0 0 630 347">
	<defs>	
	
<style type="text/css">
	.st0{fill:#BBBBBB;}
	.st1{fill:#DDDDDD;}
	.st2{fill:#222222;}
	.st3{opacity:0.6;fill:none;stroke:#F8F8FF;stroke-width:7;stroke-miterlimit:10;}
	.st4{fill:none;stroke:#222222;stroke-width:4;stroke-miterlimit:10;}
	.st5{fill:none;stroke:#222222;stroke-width:4;stroke-miterlimit:10;stroke-dasharray:12.3668,12.3668;}
	.st6{opacity:0.8;fill:#F8F8FF;enable-background:new    ;}
	.st7{fill:#C04300;}
	.st8{fill:#F8F8FF;}
	.st9{opacity:0.8;enable-background:new    ;}
	.st10{opacity:0.8;fill:#FFFFFF;enable-background:new    ;}
	
	#text, #mapS {
		opacity: 0;
		}
	
		.black {
		transition-delay: 0.5s;
		transition-duration: 1s;
		transition-property: fill;
		transition-timing-function: ease-out;
		fill: #222222 !important;
		}
	
		.red {
		transition-delay: 0.5s;
		transition-duration: 1s;
		transition-property: fill;
		transition-timing-function: ease-out;
		fill: #C04300 !important;
		}
	
		
		.vis {
		transition-delay: 0.75s;
		transition-duration: 1s;
		transition-property: opacity;
		transition-timing-function: ease-out;
		opacity: 1 !important;
		}

    	.invis {
		transition-delay: 0.5s;
		transition-duration: 1s;
		transition-property: opacity;
		transition-timing-function: ease-out;
		opacity: 0 !important;
		}
		
		.open {
  stroke-width: 0.5px;
  stroke: #222;
  fill: #f8f8ff;
  transition-delay: 0.5s;
		transition-duration: 0.5s;
		transition-property: width;
		transition-timing-function: ease-out;
  width: 131px;
}

.close {
  stroke-width: 0.5px;
  stroke: #222;
  fill: #f8f8ff;
  transition-delay: 1s;
		transition-duration: 0.5s;
		transition-property: width;
		transition-timing-function: ease-out;
  width: 0px;
}
	
	/* Marker: interaction and animation */
#marker, #home {
  transform-origin: 50% 100%;
  transform-box: fill-box;
  }
.startM { transform: scale(0); }
.openHome {
  transform: scale(0);
  animation: pop .2s .7s forwards;
}
	.openM {
  transform: scale(0);
  animation: pop .2s 1.0s forwards;
}
	
.closeM { animation: unpop .2s .5s forwards; }
.closeHome { animation: unpop .2s .7s forwards; }
	
@keyframes pop {
		to { transform: scale(1); }
		}
@keyframes unpop {
		to { transform: scale(0); }
		}
</style>
</defs>		
	
	<title>Ladenstrasse</title>
		
<g id="build">
	<polygon id="boden" class="st0" points="494.8,124.1 494.8,93.3 135.1,93.3 135.1,124.1 91.8,124.1 91.8,215.2 135.1,215.2 
		135.1,246 494.8,246 494.8,215.2 542,215.2 542,124.1 	"/>
	<rect x="133.3" y="146" class="st1" width="363.2" height="47.2"/>
	<rect x="133.3" y="164.7" class="st0" width="367" height="9.8"/>
	<path id="shops" class="st2" d="M273.5,124.1h-24.1v-22.5h24.1V124.1z M246.7,101.6h-24.1v22.5h24.1V101.6z M166.2,101.6h-24.1
		v22.5h24.1V101.6z M193,101.6h-24.1v22.5H193V101.6z M219.8,101.6h-24.1v22.5h24.1V101.6z M300.3,101.6h-24.1v22.5h24.1V101.6z
		 M327.1,101.6H303v22.5h24.1V101.6z M353.9,101.6h-24.1v22.5h24.1V101.6z M380.7,101.6h-24.1v22.5h24.1V101.6z M434.4,101.6h-24.1
		v22.5h24.1V101.6z M461.2,101.6h-24.1v22.5h24.1V101.6z M488,101.6h-24.1v22.5H488V101.6z M273.5,216.3h-24.1v22.5h24.1V216.3z
		 M246.7,216.3h-24.1v22.5h24.1V216.3z M166.2,216.3h-24.1v22.5h24.1V216.3z M193,216.3h-24.1v22.5H193V216.3z M219.8,216.3h-24.1
		v22.5h24.1V216.3z M380.7,216.3h-24.1v22.5h24.1V216.3z M407.6,216.3h-24.1v22.5h24.1V216.3z M434.4,216.3h-24.1v22.5h24.1V216.3z
		 M461.2,216.3h-24.1v22.5h24.1V216.3z M488,216.3h-24.1v22.5H488V216.3z M137.8,144.4H96.2V195h41.6V144.4z M538.4,144.4h-44.3V195
		h44.3V144.4z M334.7,216.4h-4.8h-29.5H296h-19.8v63.4H296h4.3h29.5h4.8h19.2v-63.4H334.7z"/>
	<rect id="schreib" x="383.5" y="101.6" class="st2" width="24.1" height="22.5"/>
	<g>
		<line class="st3" x1="142.1" y1="156.9" x2="488" y2="156.9"/>
		<g>
			<g>
				<line class="st4" x1="142.1" y1="156.9" x2="148.1" y2="156.9"/>
				<line class="st5" x1="160.5" y1="156.9" x2="475.8" y2="156.9"/>
				<line class="st4" x1="482" y1="156.9" x2="488" y2="156.9"/>
			</g>
		</g>
	</g>
	<g>
		<line class="st3" x1="142.1" y1="182.5" x2="488" y2="182.5"/>
		<g>
			<g>
				<line class="st4" x1="142.1" y1="182.5" x2="148.1" y2="182.5"/>
				<line class="st5" x1="160.5" y1="182.5" x2="475.8" y2="182.5"/>
				<line class="st4" x1="482" y1="182.5" x2="488" y2="182.5"/>
			</g>
		</g>
	</g>
</g>
	
<g id="text">
	
	<g id="onk_2_">
		<polygon class="st6" points="29.9,270.9 29.9,270.9 29.9,297.5 29.9,297.5 152.9,297.5 152.9,297.5 152.9,270.9 152.9,270.9 		"/>
		<polygon class="st7" points="30.9,271.9 30.9,271.9 30.9,296.5 30.9,296.5 151.9,296.5 151.9,296.5 151.9,271.9 151.9,271.9 		"/>
		<path id="onkT_2_" class="st8" d="M48.6,284.3c0,2.9-1.8,5.2-4.8,5.2s-4.8-2.4-4.8-5.2s1.8-5.2,4.8-5.2S48.6,281.5,48.6,284.3z
			 M40.7,284.3c0,1.9,0.9,3.8,3,3.8s3-1.9,3-3.8s-0.9-3.8-3-3.8S40.7,282.4,40.7,284.3z M50.2,282.1h1.5v1.1l0,0
			c0.5-0.8,1.3-1.3,2.3-1.3c1.6,0,2.6,0.8,2.6,2.5v5H55v-4.6c0-1.1-0.5-1.6-1.4-1.6c-1.1,0-1.8,0.8-1.8,1.9v4.3h-1.6V282.1z
			 M58.6,279.3h1.6v5.7l2.9-2.9h2l-2.8,2.7l3,4.6h-1.9l-2.2-3.5l-1,0.9v2.6h-1.6V279.3z M67.6,286.1c0,1.1,0.6,2.1,1.9,2.1
			c0.9,0,1.5-0.4,1.8-1.2h1.5c-0.4,1.6-1.7,2.5-3.3,2.5c-2.3,0-3.5-1.6-3.5-3.8c0-2.1,1.3-3.8,3.5-3.8c2.3,0,3.7,2.1,3.4,4.2H67.6z
			 M71.3,285.1c-0.1-1-0.7-1.9-1.8-1.9c-1.1,0-1.9,0.8-1.9,1.9H71.3z M74.4,279.3H76v10h-1.6V279.3z M81.5,279.3h8.1v1.5h-3.2v8.5
			h-1.8v-8.5h-3.2V279.3z M88.9,285.7c0-2.2,1.3-3.8,3.7-3.8s3.7,1.6,3.7,3.8c0,2.2-1.3,3.8-3.7,3.8S88.9,287.9,88.9,285.7z
			 M94.6,285.7c0-1.2-0.6-2.5-2.1-2.5s-2.1,1.3-2.1,2.5c0,1.3,0.6,2.6,2.1,2.6S94.6,287,94.6,285.7z M97.8,282.1h1.5v1h0
			c0.5-0.7,1.1-1.2,2.2-1.2c0.9,0,1.7,0.4,2,1.2c0.5-0.7,1.2-1.2,2.3-1.2c1.5,0,2.4,0.7,2.4,2.4v5h-1.6v-4.2c0-1.1-0.1-1.9-1.3-1.9
			c-1.1,0-1.5,0.7-1.5,1.9v4.2h-1.6v-4.7c0-1-0.3-1.5-1.3-1.5c-0.8,0-1.6,0.7-1.6,1.9v4.3h-1.6V282.1z M111.5,287
			c0.1,0.9,0.8,1.3,1.6,1.3c0.6,0,1.7-0.1,1.6-1c0-0.8-1.2-0.9-2.4-1.2c-1.2-0.3-2.3-0.7-2.3-2.1c0-1.6,1.7-2.1,3-2.1
			c1.5,0,2.8,0.6,3,2.2h-1.7c-0.1-0.8-0.8-1-1.5-1c-0.5,0-1.3,0.1-1.3,0.7c0,0.8,1.2,0.9,2.4,1.2c1.2,0.3,2.3,0.7,2.3,2.1
			c0,1.7-1.7,2.4-3.2,2.4c-1.8,0-3.2-0.8-3.2-2.5H111.5z M123.4,286c0,1.5,1.1,2.1,2.5,2.1c1.5,0,2.1-0.8,2.1-1.5
			c0-0.8-0.4-1.1-0.8-1.2c-0.7-0.3-1.6-0.4-3-0.8c-1.7-0.5-2.2-1.5-2.2-2.5c0-2,1.8-2.9,3.7-2.9c2.1,0,3.8,1.1,3.8,3.2h-1.8
			c-0.1-1.3-1-1.8-2.2-1.8c-0.8,0-1.8,0.3-1.8,1.3c0,0.7,0.5,1.1,1.2,1.3c0.2,0,2.4,0.6,2.9,0.8c1.3,0.4,1.9,1.5,1.9,2.5
			c0,2.2-2,3.1-4,3.1c-2.3,0-4.1-1.1-4.2-3.6H123.4z M130.6,282.1h1.2v-2.2h1.6v2.2h1.4v1.2h-1.4v3.9c0,0.7,0.1,1,0.8,1
			c0.2,0,0.4,0,0.7-0.1v1.2c-0.4,0-0.7,0.1-1,0.1c-1.7,0-2-0.6-2-1.8v-4.3h-1.2V282.1z M136.3,282.1h1.5v1.4h0
			c0.2-0.8,1.1-1.6,2.1-1.6c0.4,0,0.5,0,0.6,0v1.5c-0.2,0-0.5-0.1-0.7-0.1c-1.1,0-2,0.9-2,2.5v3.4h-1.6V282.1z M140.3,287.4h1.9v1.9
			h-1.9V287.4z"/>
		<polygon class="st7" points="46,254.1 38.4,267.2 53.6,267.2 		"/>
		<polygon class="st7" points="46,314.3 53.6,301.2 38.4,301.2 		"/>
	</g>
	
	<g id="riemeister_2_">
		<polygon class="st6" points="463.4,271 463.4,271 463.4,297.6 463.4,297.6 602.4,297.6 602.4,297.6 602.4,271 602.4,271 		"/>
		<polygon class="st7" points="464.4,272 464.4,272 464.4,296.6 464.4,296.6 601.4,296.6 601.4,296.6 601.4,272 601.4,272 		"/>
		<path class="st8" d="M473.1,279.1h4.8c2.2,0,3.3,1,3.3,2.7c0,1.9-1.3,2.4-1.7,2.5v0c0.6,0.1,1.5,0.5,1.5,2.1
			c0,1.2,0.2,2.2,0.5,2.6h-1.9c-0.3-0.4-0.3-1-0.3-1.5c0-1.8-0.4-2.6-2-2.6h-2.6v4.1h-1.8V279.1z M474.8,283.6h2.9
			c1.1,0,1.7-0.5,1.7-1.6c0-1.3-0.8-1.5-1.7-1.5h-2.8V283.6z M483,279.1h1.6v1.5H483V279.1z M483,281.8h1.6v7.2H483V281.8z
			 M487.9,285.9c0,1.1,0.6,2.1,1.9,2.1c0.9,0,1.5-0.4,1.8-1.2h1.5c-0.4,1.6-1.7,2.5-3.3,2.5c-2.3,0-3.5-1.6-3.5-3.8
			c0-2.1,1.3-3.8,3.5-3.8c2.3,0,3.7,2.1,3.4,4.2H487.9z M491.6,284.8c-0.1-1-0.7-1.9-1.8-1.9c-1.1,0-1.9,0.8-1.9,1.9H491.6z
			 M494.7,281.8h1.5v1h0c0.5-0.7,1.1-1.2,2.2-1.2c0.9,0,1.7,0.4,2,1.2c0.5-0.7,1.2-1.2,2.3-1.2c1.5,0,2.4,0.7,2.4,2.4v5h-1.6v-4.2
			c0-1.1-0.1-1.9-1.3-1.9c-1.1,0-1.5,0.7-1.5,1.9v4.2h-1.6v-4.7c0-1-0.3-1.5-1.3-1.5c-0.8,0-1.6,0.7-1.6,1.9v4.3h-1.6V281.8z
			 M508.4,285.9c0,1.1,0.6,2.1,1.9,2.1c0.9,0,1.5-0.4,1.8-1.2h1.5c-0.4,1.6-1.7,2.5-3.3,2.5c-2.3,0-3.5-1.6-3.5-3.8
			c0-2.1,1.3-3.8,3.5-3.8c2.3,0,3.7,2.1,3.4,4.2H508.4z M512.1,284.8c-0.1-1-0.7-1.9-1.8-1.9c-1.1,0-1.9,0.8-1.9,1.9H512.1z
			 M515.3,279.1h1.6v1.5h-1.6V279.1z M515.3,281.8h1.6v7.2h-1.6V281.8z M520.1,286.8c0.1,0.9,0.8,1.3,1.6,1.3c0.6,0,1.7-0.1,1.6-1
			c0-0.8-1.2-0.9-2.4-1.2c-1.2-0.3-2.3-0.7-2.3-2.1c0-1.6,1.7-2.1,3-2.1c1.5,0,2.8,0.6,3,2.2H523c-0.1-0.8-0.8-1-1.5-1
			c-0.5,0-1.3,0.1-1.3,0.7c0,0.8,1.2,0.9,2.4,1.2c1.2,0.3,2.3,0.7,2.3,2.1c0,1.7-1.7,2.4-3.2,2.4c-1.8,0-3.2-0.8-3.2-2.5H520.1z
			 M525.7,281.8h1.2v-2.2h1.6v2.2h1.4v1.2h-1.4v3.9c0,0.7,0.1,1,0.8,1c0.2,0,0.4,0,0.7-0.1v1.2c-0.4,0-0.7,0.1-1,0.1
			c-1.7,0-2-0.6-2-1.8V283h-1.2V281.8z M532.6,285.9c0,1.1,0.6,2.1,1.9,2.1c0.9,0,1.5-0.4,1.8-1.2h1.5c-0.4,1.6-1.7,2.5-3.3,2.5
			c-2.3,0-3.5-1.6-3.5-3.8c0-2.1,1.3-3.8,3.5-3.8c2.3,0,3.7,2.1,3.4,4.2H532.6z M536.3,284.8c-0.1-1-0.7-1.9-1.8-1.9
			c-1.1,0-1.9,0.8-1.9,1.9H536.3z M539.4,281.8h1.5v1.4h0c0.2-0.8,1.1-1.6,2.1-1.6c0.4,0,0.5,0,0.6,0v1.5c-0.2,0-0.5-0.1-0.7-0.1
			c-1.1,0-2,0.9-2,2.5v3.4h-1.6V281.8z M545.8,286.8c0.1,0.9,0.8,1.3,1.6,1.3c0.6,0,1.7-0.1,1.6-1c0-0.8-1.2-0.9-2.4-1.2
			c-1.2-0.3-2.3-0.7-2.3-2.1c0-1.6,1.7-2.1,3-2.1c1.5,0,2.8,0.6,3,2.2h-1.7c-0.1-0.8-0.8-1-1.5-1c-0.5,0-1.3,0.1-1.3,0.7
			c0,0.8,1.2,0.9,2.4,1.2c1.2,0.3,2.3,0.7,2.3,2.1c0,1.7-1.7,2.4-3.2,2.4c-1.8,0-3.2-0.8-3.2-2.5H545.8z M551.4,281.8h1.2v-2.2h1.6
			v2.2h1.4v1.2h-1.4v3.9c0,0.7,0.1,1,0.8,1c0.2,0,0.4,0,0.7-0.1v1.2c-0.4,0-0.7,0.1-1,0.1c-1.7,0-2-0.6-2-1.8V283h-1.2V281.8z
			 M557.1,281.8h1.5v1.4h0c0.2-0.8,1.1-1.6,2.1-1.6c0.4,0,0.5,0,0.6,0v1.5c-0.2,0-0.5-0.1-0.7-0.1c-1.1,0-2,0.9-2,2.5v3.4h-1.6
			V281.8z M568.4,287.5c0,0.4,0.1,0.5,0.4,0.5c0.1,0,0.2,0,0.4,0v1.1c-0.2,0.1-0.7,0.2-1,0.2c-0.6,0-1.1-0.2-1.2-0.9
			c-0.6,0.6-1.7,0.9-2.5,0.9c-1.3,0-2.5-0.7-2.5-2.1c0-1.8,1.4-2.1,2.8-2.3c1.1-0.2,2.2-0.1,2.2-1c0-0.8-0.9-1-1.5-1
			c-0.9,0-1.5,0.4-1.6,1.1h-1.6c0.1-1.9,1.7-2.4,3.3-2.4c1.4,0,2.9,0.6,2.9,2.1V287.5z M566.8,285.5c-0.5,0.3-1.3,0.3-2,0.4
			c-0.7,0.1-1.3,0.4-1.3,1.2c0,0.7,0.9,0.9,1.5,0.9c0.7,0,1.8-0.4,1.8-1.4V285.5z M571.6,286.8c0.1,0.9,0.8,1.3,1.6,1.3
			c0.6,0,1.7-0.1,1.6-1c0-0.8-1.2-0.9-2.4-1.2c-1.2-0.3-2.3-0.7-2.3-2.1c0-1.6,1.7-2.1,3-2.1c1.5,0,2.8,0.6,3,2.2h-1.7
			c-0.1-0.8-0.8-1-1.5-1c-0.5,0-1.3,0.1-1.3,0.7c0,0.8,1.2,0.9,2.4,1.2c1.2,0.3,2.3,0.7,2.3,2.1c0,1.7-1.7,2.4-3.2,2.4
			c-1.8,0-3.2-0.8-3.2-2.5H571.6z M579.1,286.8c0.1,0.9,0.8,1.3,1.6,1.3c0.6,0,1.7-0.1,1.6-1c0-0.8-1.2-0.9-2.4-1.2
			c-1.2-0.3-2.3-0.7-2.3-2.1c0-1.6,1.7-2.1,3-2.1c1.5,0,2.8,0.6,3,2.2h-1.7c-0.1-0.8-0.8-1-1.5-1c-0.5,0-1.3,0.1-1.3,0.7
			c0,0.8,1.2,0.9,2.4,1.2c1.2,0.3,2.3,0.7,2.3,2.1c0,1.7-1.7,2.4-3.2,2.4c-1.8,0-3.2-0.8-3.2-2.5H579.1z M586.7,285.9
			c0,1.1,0.6,2.1,1.9,2.1c0.9,0,1.5-0.4,1.8-1.2h1.5c-0.4,1.6-1.7,2.5-3.3,2.5c-2.3,0-3.5-1.6-3.5-3.8c0-2.1,1.3-3.8,3.5-3.8
			c2.3,0,3.7,2.1,3.4,4.2H586.7z M590.5,284.8c-0.1-1-0.7-1.9-1.8-1.9c-1.1,0-1.9,0.8-1.9,1.9H590.5z"/>
		<polygon class="st7" points="585.5,314.5 593,301.4 577.9,301.4 		"/>
		<polygon class="st7" points="585.5,254.3 577.9,267.4 593,267.4 		"/>
	</g>
	
	<g id="onkel">
		<g class="st9">
			<g>
				<rect x="180.3" y="41.6" class="st8" width="158.5" height="26.5"/>
			</g>
		</g>
		<rect x="181.3" y="42.6" class="st7" width="156.5" height="24.5"/>
		<rect x="184.7" y="45.2" class="st8" width="18.8" height="18.8"/>
		<path class="st7" d="M200.9,55.8c0,4.5-2.1,6.7-6.7,6.7c-4.7,0-6.7-2.2-6.7-6.7v-9.1h4V56c0,2,0.7,3,2.7,3s2.7-1,2.7-3v-9.3h4
			L200.9,55.8L200.9,55.8z"/>
		<path class="st8" d="M220.2,54.1c0,2.9-1.8,5.2-4.8,5.2s-4.8-2.4-4.8-5.2c0-2.9,1.8-5.2,4.8-5.2S220.2,51.2,220.2,54.1z
			 M212.4,54.1c0,1.9,0.9,3.8,3,3.8s3-1.9,3-3.8c0-1.9-0.9-3.8-3-3.8S212.4,52.2,212.4,54.1z M221.9,51.8h1.5v1.1l0,0
			c0.5-0.8,1.3-1.3,2.3-1.3c1.6,0,2.6,0.8,2.6,2.5v5h-1.6v-4.6c0-1.1-0.5-1.6-1.4-1.6c-1.1,0-1.8,0.8-1.8,1.9v4.3h-1.6V51.8z
			 M230.3,49.1h1.6v5.7l2.9-2.9h2l-2.8,2.7l3,4.6H235l-2.2-3.5l-1,0.9v2.6h-1.6V49.1z M239.3,55.9c0,1.1,0.6,2.1,1.9,2.1
			c0.9,0,1.5-0.4,1.8-1.2h1.5c-0.4,1.6-1.7,2.5-3.3,2.5c-2.3,0-3.5-1.6-3.5-3.8c0-2.1,1.3-3.8,3.5-3.8c2.3,0,3.7,2.1,3.4,4.2H239.3z
			 M243.1,54.8c-0.1-1-0.7-1.9-1.8-1.9c-1.1,0-1.9,0.8-1.9,1.9H243.1z M246.2,49.1h1.6v10h-1.6V49.1z M253.4,49.1h8.1v1.5h-3.2v8.5
			h-1.8v-8.5h-3.2V49.1z M260.8,55.4c0-2.2,1.3-3.8,3.7-3.8s3.7,1.6,3.7,3.8c0,2.2-1.3,3.8-3.7,3.8S260.8,57.7,260.8,55.4z
			 M266.5,55.4c0-1.2-0.6-2.5-2.1-2.5s-2.1,1.3-2.1,2.5c0,1.3,0.6,2.6,2.1,2.6S266.5,56.7,266.5,55.4z M269.8,51.8h1.5v1h0
			c0.5-0.7,1.1-1.2,2.2-1.2c0.9,0,1.7,0.4,2,1.2c0.5-0.7,1.2-1.2,2.3-1.2c1.5,0,2.4,0.7,2.4,2.4v5h-1.6v-4.2c0-1.1-0.1-1.9-1.3-1.9
			c-1.1,0-1.5,0.7-1.5,1.9v4.2h-1.6v-4.7c0-1-0.3-1.5-1.3-1.5c-0.8,0-1.6,0.7-1.6,1.9v4.3h-1.6V51.8z M283.5,56.8
			c0.1,0.9,0.8,1.3,1.6,1.3c0.6,0,1.7-0.1,1.6-1c0-0.8-1.2-0.9-2.4-1.2c-1.2-0.3-2.3-0.7-2.3-2.1c0-1.6,1.7-2.1,3-2.1
			c1.5,0,2.8,0.6,3,2.2h-1.7c-0.1-0.8-0.8-1-1.5-1c-0.5,0-1.3,0.1-1.3,0.7c0,0.8,1.2,0.9,2.4,1.2c1.2,0.3,2.3,0.7,2.3,2.1
			c0,1.7-1.7,2.4-3.2,2.4c-1.8,0-3.2-0.8-3.2-2.5H283.5z M294.3,49.1h1.8v4h4.6v-4h1.8v10h-1.8v-4.5H296v4.5h-1.8V49.1z M310.9,59.1
			h-1.6v-1h0c-0.4,0.7-1.3,1.2-2.1,1.2c-1.9,0-2.7-1-2.7-2.8v-4.6h1.6v4.4c0,1.3,0.5,1.7,1.4,1.7c1.3,0,1.8-0.9,1.8-2v-4.2h1.6V59.1
			z M305.7,50.7v-1.5h1.6v1.5H305.7z M309.7,49.2v1.5h-1.6v-1.5H309.7z M312.2,51.8h1.2v-2.2h1.6v2.2h1.4V53H315v3.9
			c0,0.7,0.1,1,0.8,1c0.2,0,0.4,0,0.7-0.1v1.2c-0.4,0-0.7,0.1-1,0.1c-1.7,0-2-0.6-2-1.8V53h-1.2V51.8z M317.1,51.8h1.2v-2.2h1.6v2.2
			h1.4V53h-1.4v3.9c0,0.7,0.1,1,0.8,1c0.2,0,0.4,0,0.7-0.1v1.2c-0.4,0-0.7,0.1-1,0.1c-1.7,0-2-0.6-2-1.8V53h-1.2V51.8z M324.1,55.9
			c0,1.1,0.6,2.1,1.9,2.1c0.9,0,1.5-0.4,1.8-1.2h1.5c-0.4,1.6-1.7,2.5-3.3,2.5c-2.3,0-3.5-1.6-3.5-3.8c0-2.1,1.3-3.8,3.5-3.8
			c2.3,0,3.7,2.1,3.4,4.2H324.1z M327.8,54.8c-0.1-1-0.7-1.9-1.8-1.9c-1.1,0-1.9,0.8-1.9,1.9H327.8z"/>
	</g>
	
	<g id="laden">
		<path class="st8" d="M250.3,129h1.8v8.5h5.1v1.5h-6.8V129z M264.5,137.4c0,0.4,0.1,0.5,0.4,0.5c0.1,0,0.2,0,0.4,0v1.1
			c-0.2,0.1-0.7,0.2-1,0.2c-0.6,0-1.1-0.2-1.2-0.9c-0.6,0.6-1.7,0.9-2.5,0.9c-1.3,0-2.5-0.7-2.5-2.1c0-1.8,1.4-2.1,2.8-2.3
			c1.1-0.2,2.2-0.1,2.2-1c0-0.8-0.9-1-1.5-1c-0.9,0-1.5,0.4-1.6,1.1h-1.6c0.1-1.9,1.7-2.4,3.3-2.4c1.4,0,2.9,0.6,2.9,2.1V137.4z
			 M262.9,135.4c-0.5,0.3-1.3,0.3-2,0.4c-0.7,0.1-1.3,0.4-1.3,1.2c0,0.7,0.9,0.9,1.5,0.9c0.7,0,1.8-0.4,1.8-1.4V135.4z M273.3,139
			h-1.5v-1h0c-0.4,0.8-1.3,1.2-2.2,1.2c-2.3,0-3.4-1.7-3.4-3.9c0-2.6,1.6-3.8,3.1-3.8c0.9,0,1.9,0.3,2.4,1.1h0V129h1.6V139z
			 M269.7,138c1.4,0,2-1.3,2-2.6c0-1.6-0.8-2.5-2-2.5c-1.5,0-2,1.3-2,2.6C267.7,136.7,268.4,138,269.7,138z M276.6,135.8
			c0,1.1,0.6,2.1,1.9,2.1c0.9,0,1.5-0.4,1.8-1.2h1.5c-0.4,1.6-1.7,2.5-3.3,2.5c-2.3,0-3.5-1.6-3.5-3.8c0-2.1,1.3-3.8,3.5-3.8
			c2.3,0,3.7,2.1,3.4,4.2H276.6z M280.3,134.8c-0.1-1-0.7-1.9-1.8-1.9c-1.1,0-1.9,0.8-1.9,1.9H280.3z M283.4,131.8h1.5v1.1l0,0
			c0.5-0.8,1.3-1.3,2.3-1.3c1.6,0,2.6,0.8,2.6,2.5v5h-1.6v-4.6c0-1.1-0.5-1.6-1.4-1.6c-1.1,0-1.8,0.8-1.8,1.9v4.3h-1.6V131.8z
			 M292.9,136.7c0.1,0.9,0.8,1.3,1.6,1.3c0.6,0,1.7-0.1,1.6-1c0-0.8-1.2-0.9-2.4-1.2c-1.2-0.3-2.3-0.7-2.3-2.1c0-1.6,1.7-2.1,3-2.1
			c1.5,0,2.8,0.6,3,2.2h-1.7c-0.1-0.8-0.8-1-1.5-1c-0.5,0-1.3,0.1-1.3,0.7c0,0.8,1.2,0.9,2.4,1.2c1.2,0.3,2.3,0.7,2.3,2.1
			c0,1.7-1.7,2.4-3.2,2.4c-1.8,0-3.2-0.8-3.2-2.5H292.9z M298.5,131.8h1.2v-2.2h1.6v2.2h1.4v1.2h-1.4v3.9c0,0.7,0.1,1,0.8,1
			c0.2,0,0.4,0,0.7-0.1v1.2c-0.4,0-0.7,0.1-1,0.1c-1.7,0-2-0.6-2-1.8V133h-1.2V131.8z M304.2,131.8h1.5v1.4h0
			c0.2-0.8,1.1-1.6,2.1-1.6c0.4,0,0.5,0,0.6,0v1.5c-0.2,0-0.5-0.1-0.7-0.1c-1.1,0-2,0.9-2,2.5v3.4h-1.6V131.8z M315.5,137.4
			c0,0.4,0.1,0.5,0.4,0.5c0.1,0,0.2,0,0.4,0v1.1c-0.2,0.1-0.7,0.2-1,0.2c-0.6,0-1.1-0.2-1.2-0.9c-0.6,0.6-1.7,0.9-2.5,0.9
			c-1.3,0-2.5-0.7-2.5-2.1c0-1.8,1.4-2.1,2.8-2.3c1.1-0.2,2.2-0.1,2.2-1c0-0.8-0.9-1-1.5-1c-0.9,0-1.5,0.4-1.6,1.1h-1.6
			c0.1-1.9,1.7-2.4,3.3-2.4c1.4,0,2.9,0.6,2.9,2.1V137.4z M313.9,135.4c-0.5,0.3-1.3,0.3-2,0.4c-0.7,0.1-1.3,0.4-1.3,1.2
			c0,0.7,0.9,0.9,1.5,0.9c0.7,0,1.8-0.4,1.8-1.4V135.4z M318.7,136.7c0.1,0.9,0.8,1.3,1.6,1.3c0.6,0,1.7-0.1,1.6-1
			c0-0.8-1.2-0.9-2.4-1.2c-1.2-0.3-2.3-0.7-2.3-2.1c0-1.6,1.7-2.1,3-2.1c1.5,0,2.8,0.6,3,2.2h-1.7c-0.1-0.8-0.8-1-1.5-1
			c-0.5,0-1.3,0.1-1.3,0.7c0,0.8,1.2,0.9,2.4,1.2c1.2,0.3,2.3,0.7,2.3,2.1c0,1.7-1.7,2.4-3.2,2.4c-1.8,0-3.2-0.8-3.2-2.5H318.7z
			 M326.2,136.7c0.1,0.9,0.8,1.3,1.6,1.3c0.6,0,1.7-0.1,1.6-1c0-0.8-1.2-0.9-2.4-1.2c-1.2-0.3-2.3-0.7-2.3-2.1c0-1.6,1.7-2.1,3-2.1
			c1.5,0,2.8,0.6,3,2.2h-1.7c-0.1-0.8-0.8-1-1.5-1c-0.5,0-1.3,0.1-1.3,0.7c0,0.8,1.2,0.9,2.4,1.2c1.2,0.3,2.3,0.7,2.3,2.1
			c0,1.7-1.7,2.4-3.2,2.4c-1.8,0-3.2-0.8-3.2-2.5H326.2z M333.8,135.8c0,1.1,0.6,2.1,1.9,2.1c0.9,0,1.5-0.4,1.8-1.2h1.5
			c-0.4,1.6-1.7,2.5-3.3,2.5c-2.3,0-3.5-1.6-3.5-3.8c0-2.1,1.3-3.8,3.5-3.8c2.3,0,3.7,2.1,3.4,4.2H333.8z M337.5,134.8
			c-0.1-1-0.7-1.9-1.8-1.9c-1.1,0-1.9,0.8-1.9,1.9H337.5z M344.9,129h1.8l4.6,7.4h0V129h1.7v10h-1.8l-4.6-7.4h0v7.4h-1.7V129z
			 M354.8,135.4c0-2.2,1.3-3.8,3.7-3.8s3.7,1.6,3.7,3.8c0,2.2-1.3,3.8-3.7,3.8S354.8,137.6,354.8,135.4z M360.6,135.4
			c0-1.2-0.6-2.5-2.1-2.5s-2.1,1.3-2.1,2.5c0,1.3,0.6,2.6,2.1,2.6S360.6,136.7,360.6,135.4z M363.8,131.8h1.5v1.4h0
			c0.2-0.8,1.1-1.6,2.1-1.6c0.4,0,0.5,0,0.6,0v1.5c-0.2,0-0.5-0.1-0.7-0.1c-1.1,0-2,0.9-2,2.5v3.4h-1.6V131.8z M375.5,139H374v-1h0
			c-0.4,0.8-1.3,1.2-2.2,1.2c-2.3,0-3.4-1.7-3.4-3.9c0-2.6,1.6-3.8,3.1-3.8c0.9,0,1.9,0.3,2.4,1.1h0V129h1.6V139z M372,138
			c1.4,0,2-1.3,2-2.6c0-1.6-0.8-2.5-2-2.5c-1.5,0-2,1.3-2,2.6C370,136.7,370.6,138,372,138z"/>
		
		<path class="st8" d="M253.5,199.1h1.8v8.5h5.1v1.5h-6.8V199.1z M267.6,207.4c0,0.4,0.1,0.5,0.4,0.5c0.1,0,0.2,0,0.4,0v1.1
			c-0.2,0.1-0.7,0.2-1,0.2c-0.6,0-1.1-0.2-1.2-0.9c-0.6,0.6-1.7,0.9-2.5,0.9c-1.3,0-2.5-0.7-2.5-2.1c0-1.8,1.4-2.1,2.8-2.3
			c1.1-0.2,2.2-0.1,2.2-1c0-0.8-0.9-1-1.5-1c-0.9,0-1.5,0.4-1.6,1.1h-1.6c0.1-1.9,1.7-2.4,3.3-2.4c1.4,0,2.9,0.6,2.9,2.1V207.4z
			 M266,205.4c-0.5,0.3-1.3,0.3-2,0.4c-0.7,0.1-1.3,0.4-1.3,1.2c0,0.7,0.9,0.9,1.5,0.9c0.7,0,1.8-0.4,1.8-1.4V205.4z M276.4,209.1
			h-1.5v-1h0c-0.4,0.8-1.3,1.2-2.2,1.2c-2.3,0-3.4-1.7-3.4-3.9c0-2.6,1.6-3.8,3.1-3.8c0.9,0,1.9,0.3,2.4,1.1h0v-3.7h1.6V209.1z
			 M272.9,208c1.4,0,2-1.3,2-2.6c0-1.6-0.8-2.5-2-2.5c-1.5,0-2,1.3-2,2.6C270.9,206.8,271.5,208,272.9,208z M279.7,205.8
			c0,1.1,0.6,2.1,1.9,2.1c0.9,0,1.5-0.4,1.8-1.2h1.5c-0.4,1.6-1.7,2.5-3.3,2.5c-2.3,0-3.5-1.6-3.5-3.8c0-2.1,1.3-3.8,3.5-3.8
			c2.3,0,3.7,2.1,3.4,4.2H279.7z M283.4,204.8c-0.1-1-0.7-1.9-1.8-1.9c-1.1,0-1.9,0.8-1.9,1.9H283.4z M286.5,201.8h1.5v1.1l0,0
			c0.5-0.8,1.3-1.3,2.3-1.3c1.6,0,2.6,0.8,2.6,2.5v5h-1.6v-4.6c0-1.1-0.5-1.6-1.4-1.6c-1.1,0-1.8,0.8-1.8,1.9v4.3h-1.6V201.8z
			 M296,206.7c0.1,0.9,0.8,1.3,1.6,1.3c0.6,0,1.7-0.1,1.6-1c0-0.8-1.2-0.9-2.4-1.2c-1.2-0.3-2.3-0.7-2.3-2.1c0-1.6,1.7-2.1,3-2.1
			c1.5,0,2.8,0.6,3,2.2H299c-0.1-0.8-0.8-1-1.5-1c-0.5,0-1.3,0.1-1.3,0.7c0,0.8,1.2,0.9,2.4,1.2c1.2,0.3,2.3,0.7,2.3,2.1
			c0,1.7-1.7,2.4-3.2,2.4c-1.8,0-3.2-0.8-3.2-2.5H296z M301.7,201.8h1.2v-2.2h1.6v2.2h1.4v1.2h-1.4v3.9c0,0.7,0.1,1,0.8,1
			c0.2,0,0.4,0,0.7-0.1v1.2c-0.4,0-0.7,0.1-1,0.1c-1.7,0-2-0.6-2-1.8V203h-1.2V201.8z M307.3,201.8h1.5v1.4h0
			c0.2-0.8,1.1-1.6,2.1-1.6c0.4,0,0.5,0,0.6,0v1.5c-0.2,0-0.5-0.1-0.7-0.1c-1.1,0-2,0.9-2,2.5v3.4h-1.6V201.8z M318.6,207.4
			c0,0.4,0.1,0.5,0.4,0.5c0.1,0,0.2,0,0.4,0v1.1c-0.2,0.1-0.7,0.2-1,0.2c-0.6,0-1.1-0.2-1.2-0.9c-0.6,0.6-1.7,0.9-2.5,0.9
			c-1.3,0-2.5-0.7-2.5-2.1c0-1.8,1.4-2.1,2.8-2.3c1.1-0.2,2.2-0.1,2.2-1c0-0.8-0.9-1-1.5-1c-0.9,0-1.5,0.4-1.6,1.1h-1.6
			c0.1-1.9,1.7-2.4,3.3-2.4c1.4,0,2.9,0.6,2.9,2.1V207.4z M317,205.4c-0.5,0.3-1.3,0.3-2,0.4c-0.7,0.1-1.3,0.4-1.3,1.2
			c0,0.7,0.9,0.9,1.5,0.9c0.7,0,1.8-0.4,1.8-1.4V205.4z M321.8,206.7c0.1,0.9,0.8,1.3,1.6,1.3c0.6,0,1.7-0.1,1.6-1
			c0-0.8-1.2-0.9-2.4-1.2c-1.2-0.3-2.3-0.7-2.3-2.1c0-1.6,1.7-2.1,3-2.1c1.5,0,2.8,0.6,3,2.2h-1.7c-0.1-0.8-0.8-1-1.5-1
			c-0.5,0-1.3,0.1-1.3,0.7c0,0.8,1.2,0.9,2.4,1.2c1.2,0.3,2.3,0.7,2.3,2.1c0,1.7-1.7,2.4-3.2,2.4c-1.8,0-3.2-0.8-3.2-2.5H321.8z
			 M329.3,206.7c0.1,0.9,0.8,1.3,1.6,1.3c0.6,0,1.7-0.1,1.6-1c0-0.8-1.2-0.9-2.4-1.2c-1.2-0.3-2.3-0.7-2.3-2.1c0-1.6,1.7-2.1,3-2.1
			c1.5,0,2.8,0.6,3,2.2h-1.7c-0.1-0.8-0.8-1-1.5-1c-0.5,0-1.3,0.1-1.3,0.7c0,0.8,1.2,0.9,2.4,1.2c1.2,0.3,2.3,0.7,2.3,2.1
			c0,1.7-1.7,2.4-3.2,2.4c-1.8,0-3.2-0.8-3.2-2.5H329.3z M336.9,205.8c0,1.1,0.6,2.1,1.9,2.1c0.9,0,1.5-0.4,1.8-1.2h1.5
			c-0.4,1.6-1.7,2.5-3.3,2.5c-2.3,0-3.5-1.6-3.5-3.8c0-2.1,1.3-3.8,3.5-3.8c2.3,0,3.7,2.1,3.4,4.2H336.9z M340.7,204.8
			c-0.1-1-0.7-1.9-1.8-1.9c-1.1,0-1.9,0.8-1.9,1.9H340.7z M349.3,205.7c0,1.5,1.1,2.1,2.5,2.1c1.5,0,2.1-0.8,2.1-1.5
			c0-0.8-0.4-1.1-0.8-1.2c-0.7-0.3-1.6-0.4-3-0.8c-1.7-0.5-2.2-1.5-2.2-2.5c0-2,1.8-2.9,3.7-2.9c2.1,0,3.8,1.1,3.8,3.2h-1.8
			c-0.1-1.3-1-1.8-2.2-1.8c-0.8,0-1.8,0.3-1.8,1.3c0,0.7,0.5,1.1,1.2,1.3c0.2,0,2.4,0.6,2.9,0.8c1.3,0.4,1.9,1.5,1.9,2.5
			c0,2.2-2,3.1-4,3.1c-2.3,0-4.1-1.1-4.2-3.6H349.3z M363.6,209.1h-1.6v-1h0c-0.4,0.7-1.3,1.2-2.1,1.2c-1.9,0-2.7-1-2.7-2.8v-4.6
			h1.6v4.4c0,1.3,0.5,1.7,1.4,1.7c1.3,0,1.8-0.9,1.8-2v-4.2h1.6V209.1z M358.5,200.7v-1.5h1.6v1.5H358.5z M362.5,199.2v1.5h-1.6
			v-1.5H362.5z M372.4,209.1h-1.5v-1h0c-0.4,0.8-1.3,1.2-2.2,1.2c-2.3,0-3.4-1.7-3.4-3.9c0-2.6,1.6-3.8,3.1-3.8
			c0.9,0,1.9,0.3,2.4,1.1h0v-3.7h1.6V209.1z M368.8,208c1.4,0,2-1.3,2-2.6c0-1.6-0.8-2.5-2-2.5c-1.5,0-2,1.3-2,2.6
			C366.8,206.8,367.5,208,368.8,208z"/>
	</g>
</g>

<g id="marker" class="startM">
		<path id="XMLID_12520_" class="st10" d="M410.4,76.1c-0.8-1.9-2-3.6-3.4-5.1c-4.6-4.6-11.6-6-17.6-3.4c-8.2,3.5-12,12.9-8.5,21
			c1.8,4.2,5.3,7.5,9.7,9l1.7,5.7l1.8,6h3l1.8-6l1.7-5.7c8.4-2.8,12.9-11.9,10.1-20.3C410.7,76.9,410.6,76.5,410.4,76.1z"/>
		<path id="XMLID_12519_" class="st7" d="M409.2,79c-1.9-7.5-9.5-12-17-10.1s-12,9.5-10.1,17c1.3,5,5.1,8.9,10.1,10.1l2,6.8l1.4,4.5
			l1.4-4.5l2-6.8C406.6,94,411.1,86.5,409.2,79z"/>
		<path id="XMLID_11419_" class="st8" d="M394,82.4l-5.7-3.3l0.8-1.4l5.7,3.3v-6.6h1.6V81l5.7-3.3l0.8,1.4l-5.7,3.3l5.7,3.3
			l-0.8,1.4l-5.7-3.3v6.6h-1.6v-6.6l-5.7,3.3l-0.8-1.4L394,82.4z"/>
	</g>

<script type="text/javascript"><![CDATA[

var svg = document.getElementById('ladenstrasse');

svg.addEventListener("mouseover",function() {
svg.getElementById('marker').setAttribute('class', 'openM');
  svg.getElementById('text').setAttribute('class', 'vis');
  svg.getElementById('schreib').setAttribute('class', 'red');
			},false);

svg.addEventListener("mouseout",function() {
 svg.getElementById('marker').setAttribute('class', 'closeM');
  svg.getElementById('text').setAttribute('class', 'invis');
  svg.getElementById('schreib').setAttribute('class', 'black');
			},false);

    ]]></script>
	
</svg>