<svg id="eink" xmlns="http://www.w3.org/2000/svg" xmlns:xlink="http://www.w3.org/1999/xlink" viewBox="0 0 1115.3 609.4">
  <defs>
    <style>
		
		#reise {
        /*fill: #222;*/
		transition-delay: 0.2s;
		transition-duration: 1s;
		transition-property: fill;
		transition-timing-function: ease-out;
      }
		svg:hover #reise { fill: #c04300; }
		
      .cls-1, .cls-10, .cls-11, .cls-12, .cls-13, .cls-14, .cls-2, .cls-3, .cls-4, .cls-5, .cls-6, .cls-7, .cls-8, .cls-9 {
        fill: none;
      }

      .cls-2 {
        stroke: #231f20;
        stroke-width: 0.75px;
      }

      .cls-10, .cls-11, .cls-12, .cls-13, .cls-14, .cls-3, .cls-4, .cls-5, .cls-6, .cls-7, .cls-8, .cls-9 {
        stroke: #222;
        stroke-miterlimit: 10;
      }

      .cls-10, .cls-11, .cls-12, .cls-13, .cls-14, .cls-3, .cls-5, .cls-6, .cls-7, .cls-8, .cls-9 {
        stroke-width: 0.5px;
      }

      .cls-4 {
        stroke-width: 0.3px;
      }

      .cls-5 {
        stroke-dasharray: 3.98 1.99;
      }

      .cls-6 {
        stroke-dasharray: 3.85 1.93;
      }

      .cls-7 {
        stroke-dasharray: 4.01 2.01;
      }

      .cls-8 {
        stroke-dasharray: 3.53 1.77;
      }

      .cls-9 {
        stroke-dasharray: 4.01 2;
      }

      .cls-10 {
        stroke-dasharray: 4.04 2.02;
      }

      .cls-11 {
        stroke-dasharray: 4.36 2.18;
      }

      .cls-12 {
        stroke-dasharray: 4.11 2.05;
      }

      .cls-13 {
        stroke-dasharray: 4.17 2.09;
      }

      .cls-14 {
        stroke-dasharray: 3.85 1.92;
      }

      .cls-15, .cls-17 {
        fill: #222;
      }

      .cls-15 {
        fill-rule: evenodd;
      }

      .cls-16 {
        fill: #f8f8ff;
      }

      .cls-18 {
        fill: #ddd;
      }

      .cls-19 {
        fill: url(#Ripple);
      }
    </style>
    <pattern id="Ripple" data-name="Ripple" width="72" height="72" patternTransform="translate(58.3 -1948.8) scale(1.39)" patternUnits="userSpaceOnUse" viewBox="0 0 72 72">
      <rect class="cls-1" width="72" height="72"/>
      <path class="cls-2" d="M80.4,64.1s1,4.1-2.9,4-4,1.9-3.2,4.3S74.2,77,71,77"/>
      <g>
        <path class="cls-2" d="M13.3,15.5s3.8-1.7,4.5,2.1,2.7,3.5,4.9,2.2,4.5-.7,5.1,2.4"/>
        <path class="cls-2" d="M66,28.7s-2.6,3.3-4.9.2-3.9-1.9-5.3.2-3.8,2.7-5.7.2"/>
        <path class="cls-2" d="M39,29s-3.8-1.6-1.4-4.7.9-4.3-1.6-5.1-3.6-2.9-1.6-5.4"/>
        <path class="cls-2" d="M41.1,24.8s4.1-.9,2.4-4.3,0-4.4,2.5-4.7,4.1-2.2,2.7-5"/>
        <path class="cls-2" d="M55.1,14.9s4.1-.9,2.4-4.4,0-4.3,2.5-4.7S64.1,3.7,62.7.9"/>
        <path class="cls-2" d="M27.4,34.2s3.7-2,1.1-4.8-1.2-4.2,1.1-5.2S33,21,30.8,18.6"/>
        <path class="cls-2" d="M10.4,22.9s1.3,4-2.6,4.3S4,29.4,5,31.7s.3,4.6-2.9,4.8"/>
        <path class="cls-2" d="M7.6,41.2s-2.1-3.7,1.7-4.7,3.3-2.8,1.8-5-1.1-4.5,2-5.3"/>
        <path class="cls-2" d="M20.4,17s1.4-3.9,4.6-1.8,4.4.5,5-2,2.6-3.8,5.2-2.1"/>
        <path class="cls-2" d="M12.3,44.5s-1.7-3.8,2.1-4.5,3.5-2.7,2.2-4.9-.8-4.5,2.3-5.1"/>
        <path class="cls-2" d="M24,38.7s-3.4-2.4-.5-5,1.7-4-.5-5.2-3-3.6-.6-5.7"/>
        <path class="cls-2" d="M11,59.6s.3-4.1,4-2.9,4.3-.6,4.3-3.2,1.5-4.3,4.5-3.3"/>
        <path class="cls-2" d="M29.5,52.9s-.4,4.1-4,2.8-4.4.5-4.4,3.1-1.6,4.3-4.6,3.3"/>
        <path class="cls-2" d="M19.7,27.3s-4.2.2-3.4-3.6-1.1-4.2-3.6-3.9-4.5-1-3.9-4.1"/>
        <path class="cls-2" d="M32.7,28s-1.5,3.9,2.4,4.3,3.6,2.4,2.5,4.7-.4,4.6,2.7,5"/>
        <path class="cls-2" d="M3.3,45.7s1.9,3.7,4.8,1.1,4.3-1.2,5.2,1.2,3.2,3.4,5.5,1.3"/>
        <path class="cls-2" d="M51,83.4s-1.8-3.8,1.9-4.6,3.5-2.7,2.1-4.9-.9-4.5,2.2-5.2"/>
        <path class="cls-2" d="M64.6,10s2.4,3.3-1.2,4.8-2.9,3.3-1.2,5.2,1.7,4.3-1.3,5.5"/>
        <path class="cls-2" d="M59.9,14.3s-4,.8-2.4,4.3,0,4.4-2.5,4.6-4.1,2.1-2.8,5"/>
        <path class="cls-2" d="M17.1.7s4.1.2,3,3.9.7,4.3,3.3,4.2,4.4,1.5,3.4,4.5"/>
        <path class="cls-2" d="M39.4,15.7s-4-1-2.2-4.4.1-4.4-2.4-4.7-4-2.3-2.5-5.1"/>
        <path class="cls-2" d="M18,7.9s-3.9-1.3-4.2,2.6-2.2,3.8-4.5,2.8-4.6-.2-4.8,3"/>
        <path class="cls-2" d="M8.4,64.1s1,4.1-2.9,4-4,1.9-3.2,4.3S2.2,77-1,77"/>
        <path class="cls-2" d="M70.3,33.5s-2.3,3.5-4.9.6-4.1-1.5-5.3.7-3.4,3.1-5.6.8"/>
        <path class="cls-2" d="M50.4,1.6s.9,4.1-2.9,4-4,1.9-3.2,4.3-.2,4.6-3.3,4.6"/>
        <path class="cls-2" d="M43.9,31.8s-1.7-3.8,2.2-4.4,3.5-2.5,2.3-4.8-.6-4.6,2.5-5.1"/>
        <path class="cls-2" d="M74.9,33.6s-4.2-.4-2.8-4.1-.5-4.3-3-4.3-4.3-1.7-3.2-4.7"/>
        <path class="cls-2" d="M62.1,38.2s3.5-2.3,4.8,1.4S70,42.6,72,41s4.4-1.5,5.5,1.5"/>
        <path class="cls-2" d="M71.7,62.7s-.8,4.1-4.3,2.5-4.4.1-4.6,2.7-2,4.1-4.9,2.8"/>
        <path class="cls-2" d="M28.8,44s4.1.5,2.7,4.1.3,4.4,2.9,4.5,4.2,1.8,3,4.7"/>
        <path class="cls-2" d="M14.8,43.4s1.2,4,4.5,2,4.4-.3,4.9,2.2,2.4,3.9,5.2,2.3"/>
        <path class="cls-2" d="M1.8,60S3,64,6.3,62s4.4-.3,4.9,2.2,2.4,3.9,5.2,2.3"/>
        <path class="cls-2" d="M37.9,69s4.1-.3,2.9-4,.5-4.3,3.1-4.3,4.3-1.6,3.3-4.6"/>
        <path class="cls-2" d="M34.5,60.1s3.2,2.6.1,4.9-2,3.9.1,5.3,2.6,3.8.1,5.7"/>
        <path class="cls-2" d="M50.8,63.6s-3.3-2.5-.4-4.9,1.8-4-.4-5.3-2.9-3.7-.4-5.7"/>
        <path class="cls-2" d="M55.9,59.4s2.9-3,5,.2,3.8,2.2,5.3.2,3.9-2.5,5.7.2"/>
        <path class="cls-2" d="M40.2,32.5s4.1.2,3,3.9.6,4.3,3.2,4.2,4.4,1.5,3.4,4.6"/>
        <path class="cls-2" d="M31.7,40.4s-.4,4.2,3.4,3.6,4.2,1.3,3.7,3.8.8,4.5,4,4.1"/>
        <path class="cls-2" d="M19.5,42.7s1-4,4.4-2.1,4.4.2,4.8-2.4,2.3-4,5.1-2.4"/>
        <path class="cls-2" d="M1.2,13.2s4.2-.2,3-3.9.7-4.4,3.3-4.2S11.9,3.6,10.9.6"/>
        <path class="cls-2" d="M35.7,57.6s-3.8-1.6-4.5,2.2-2.5,3.5-4.8,2.3-4.5-.7-5.1,2.5"/>
        <path class="cls-2" d="M83.8,52.8s-1.6-3.8-4.7-1.5-4.3.8-5.1-1.7-2.8-3.6-5.3-1.8"/>
        <path class="cls-2" d="M67.7,48.8s-1,4.1-4.4,2.2-4.4-.1-4.8,2.4-2.2,4-5,2.5"/>
        <path class="cls-2" d="M59.6,60.8s-.1,4.2-3.8,3.1-4.3.8-4.2,3.4-1.3,4.4-4.4,3.5"/>
        <path class="cls-2" d="M51.4,47.9s2-3.6,4.8-1,4.2,1.3,5.2-1,3.2-3.3,5.5-1.2"/>
        <path class="cls-2" d="M41.3,59.1s-2-3.7,1.8-4.6,3.3-2.8,1.9-5-1-4.5,2.1-5.2"/>
        <path class="cls-2" d="M62,83.5s-1.3-3.9,2.6-4.2,3.8-2.2,2.8-4.5-.3-4.7,2.9-4.9"/>
        <path class="cls-2" d="M46.4,34s4.1-.8,3.9,3.1,1.7,4,4.2,3.3,4.6.3,4.4,3.5"/>
        <path class="cls-2" d="M66.6,12.8s4.1-.5,3.7,3.3,1.4,4.2,3.9,3.6,4.6.7,4.2,3.8"/>
        <path class="cls-2" d="M65.1,53.8s2.4,3.4,4.9.5,4-1.7,5.3.5,3.6,2.9,5.6.5"/>
        <path class="cls-2" d="M45.5,62.8s-3.8,1.9-1.2,4.8,1.1,4.3-1.3,5.2-3.4,3.1-1.3,5.5"/>
        <path class="cls-2" d="M28.2,80.3s-3.5-2.1-.8-4.9,1.4-4.1-.9-5.2-3.1-3.4-.9-5.6"/>
        <path class="cls-2" d="M20,65.7s1.2,4-2.7,4.2-3.8,2.1-2.9,4.4.1,4.6-3,4.8"/>
      </g>
      <g>
        <path class="cls-2" d="M2.9,33.6s-4.2-.4-2.8-4.1-.5-4.3-3-4.3-4.3-1.7-3.2-4.7"/>
        <path class="cls-2" d="M-9.9,38.2s3.5-2.3,4.8,1.4S-2,42.6,0,41s4.4-1.5,5.5,1.5"/>
        <path class="cls-2" d="M-.3,62.7s-.8,4.1-4.3,2.5-4.4.1-4.6,2.7-2,4.1-4.9,2.8"/>
        <path class="cls-2" d="M-16.1,59.4s2.9-3,5,.2,3.8,2.2,5.3.2,3.9-2.5,5.7.2"/>
        <path class="cls-2" d="M11.8,52.8S10.2,49,7.1,51.3s-4.3.8-5.1-1.7S-.8,46-3.3,47.8"/>
        <path class="cls-2" d="M-5.4,12.8s4.1-.5,3.7,3.3,1.4,4.2,3.9,3.6,4.6.7,4.2,3.8"/>
        <path class="cls-2" d="M-6.9,53.8s2.4,3.4,4.9.5,4-1.7,5.3.5,3.6,2.9,5.6.5"/>
      </g>
      <path class="cls-2" d="M80.4-7.9s1,4.1-2.9,4S73.5-2,74.3.4,74.2,5,71,5"/>
      <g>
        <path class="cls-2" d="M51,11.4s-1.8-3.8,1.9-4.6S56.4,4.1,55,1.9s-.9-4.5,2.2-5.2"/>
        <path class="cls-2" d="M8.4-7.9s1,4.1-2.9,4S1.5-2,2.3.4,2.2,5-1,5"/>
        <path class="cls-2" d="M34.5-11.9s3.2,2.6.1,4.9-2,3.9.1,5.3,2.6,3.8.1,5.7"/>
        <path class="cls-2" d="M62,11.5s-1.3-3.9,2.6-4.2,3.8-2.2,2.8-4.5-.3-4.7,2.9-4.9"/>
        <path class="cls-2" d="M45.5-9.2s-3.8,1.9-1.2,4.8S45.4-.1,43,.8s-3.4,3.1-1.3,5.5"/>
        <path class="cls-2" d="M28.2,8.3s-3.5-2.1-.8-4.9,1.4-4.1-.9-5.2-3.1-3.4-.9-5.6"/>
        <path class="cls-2" d="M20-6.3s1.2,4-2.7,4.2S13.5,0,14.4,2.3s.1,4.6-3,4.8"/>
      </g>
    </pattern>
  </defs>
  <title>reiseburo</title>
  <g id="area">
    <path id="platform" class="cls-3" d="M53.7,441.7v8.9H.4m0,13.1H65.2v-22m30,7.5h-11v14.5M274.3,279.4v-5l7.9-8.7V249.1m24.9,0,0,21v-21m238.1-69.3v89.1m-238.1-4.7H545.2M800.8,143.3H571.6v93m459.4-1.5V156H823.8M1031,209.7l13.5-13.8V143.3H823.8v16h-23v-2.7h-133M563.7,171.3V235m7.9-31.8h50m493.6-8.8h-70.7m51.8,271.4h18.9m-18.9-31.7h18.9m-85.3,31.7h72.3M260,273.5V241.4H219.7M480.4,404.5H569V380.2h9.6m-98.2,11.2h67V380.2H406.5M307.1,268.9H545.2M702.7,164.4h8.5m266,86.3h43V234.8m40.9,89.3,8.6,5.7,9.4-13.5-58.4-39.4H977.2m53.6-1.3-5.5-3.8-3.8,5.5,5.5,3.7ZM478.9,171.2l-2.7-4.8-4.9,2.8-4.8-2.8-2.8,4.8,4.9,2.8v5.6h5.5V174ZM48,354.2H24.2V378H48ZM46.1,356h-20v20.1h20ZM48,395.2H24.2V419H48Zm-1.9,1.9h-20v20h20ZM476.8,585.8Zm-5.5-438.9a24.5,24.5,0,1,0,24.5,24.5A24.5,24.5,0,0,0,471.3,146.9Z" transform="translate(0.1 -17.8)"/>
    <path id="stairs" class="cls-4" d="M1061.9,332.8l3.7-5.6m-5.1,4.6,3.7-5.5m-5.1,4.6,3.6-5.6m-5.1,4.7,3.7-5.6m4.8,11.2,3.7-5.6m-5.1,4.6,3.7-5.5m-5.1,4.6,3.7-5.6M1010.5,250v26.9M980.7,250v26.9m2.1-26.9v26.9m2.1-26.9v26.9m2.2-26.9v26.9m19.3-26.9v26.9m2-26.9v26.9m13.3-65.5h9.3m-9.3,10.2h9.3m-9.3-1.7h9.3m-9.3-1.7h9.3m-9.3-1.7h9.3m-9.3-1.7h9.3m-9.3-1.7h9.3m-9.3,18.8h9.3m-9.3-1.7h9.3m-9.3-1.7h9.3m-9.3-1.7h9.3m-9.3-1.8h9.3m-9.3-1.7h9.3m-9.3,10.3h9.3M703.3,182V164.4m7.2,17.6V164.4M708.1,182V164.4M705.7,182V164.4M545.2,181h18.5m-18.5,54.3h18.5m-18.5-7.7h18.5m-18.5-7.8h18.5m-18.5-7.7h18.5m-18.5-7.8h18.5m-18.5-7.8h18.5m-18.5-7.7h18.5M282.2,264.9h24.9m-24.9-2.4h24.9M282.2,260h24.9m-24.9-2.4h24.9m-24.9-2.5h24.9m-24.9-2.4h24.9m-24.9-2.5h24.9M65.2,451.8h19m-19,11h19m-19-1.8h19m-19-1.9h19m-19-1.8h19m-19-1.9h19m-19-1.8h19m323.4-46.5V380.5m11.1,26.6V380.5m-1.9,26.6V380.5M415,407.1V380.5m-1.8,26.6V380.5m-1.9,26.6V380.5m-1.8,26.6V380.5M571.6,46.3H545.2m26.4-24.7H545.2m26.4,2.7H545.2M571.6,27H545.2m26.4,2.8H545.2m26.4,5.5H545.2m26.4-2.8H545.2M571.6,38H545.2m26.4,2.8H545.2m26.4,2.7H545.2m0,4.2H316.4v4.1" transform="translate(0.1 -17.8)"/>
    <g id="cover">
      <g>
        <g>
          <polyline class="cls-3" points="393.3 387.4 393.3 389.4 391.3 389.4"/>
          <line class="cls-5" x1="389.3" y1="389.4" x2="157.2" y2="389.4"/>
          <polyline class="cls-3" points="156.2 389.4 154.2 389.4 154.2 387.4"/>
          <line class="cls-6" x1="154.2" y1="385.4" x2="154.2" y2="369.1"/>
          <polyline class="cls-3" points="154.2 368.1 154.2 366.1 156.2 366.1"/>
          <line class="cls-5" x1="158.2" y1="366.1" x2="390.3" y2="366.1"/>
          <polyline class="cls-3" points="391.3 366.1 393.3 366.1 393.3 368.1"/>
          <line class="cls-6" x1="393.3" y1="370" x2="393.3" y2="386.4"/>
        </g>
        <g>
          <polyline class="cls-3" points="963 236.5 963 234.5 961 234.5"/>
          <line class="cls-7" x1="959" y1="234.5" x2="683.1" y2="234.5"/>
          <polyline class="cls-3" points="682.1 234.5 680.1 234.5 680.1 236.5"/>
          <line class="cls-8" x1="680.1" y1="238.3" x2="680.1" y2="258.6"/>
          <polyline class="cls-3" points="680.1 259.5 680.1 261.5 682.1 261.5"/>
          <line class="cls-7" x1="684.1" y1="261.5" x2="960" y2="261.5"/>
          <polyline class="cls-3" points="961 261.5 963 261.5 963 259.5"/>
          <line class="cls-8" x1="963" y1="257.7" x2="963" y2="237.4"/>
        </g>
        <g>
          <line class="cls-3" x1="273.7" y1="261.5" x2="275.7" y2="261.5"/>
          <line class="cls-9" x1="277.7" y1="261.5" x2="667.3" y2="261.5"/>
          <polyline class="cls-3" points="668.3 261.5 670.3 261.5 670.3 259.5"/>
          <line class="cls-8" x1="670.3" y1="257.7" x2="670.3" y2="237.4"/>
          <line class="cls-3" x1="670.3" y1="236.5" x2="670.3" y2="234.5"/>
        </g>
        <g>
          <line class="cls-3" x1="578.7" y1="366.1" x2="576.7" y2="366.1"/>
          <line class="cls-10" x1="574.6" y1="366.1" x2="406" y2="366.1"/>
          <polyline class="cls-3" points="404.9 366.1 402.9 366.1 402.9 368.1"/>
          <line class="cls-6" x1="402.9" y1="370" x2="402.9" y2="386.4"/>
          <line class="cls-3" x1="402.9" y1="387.4" x2="402.9" y2="389.4"/>
        </g>
        <g>
          <polyline class="cls-3" points="976.6 232.3 972.8 232.3 972.8 234.3"/>
          <line class="cls-11" x1="972.8" y1="236.5" x2="972.8" y2="255"/>
          <polyline class="cls-3" points="972.8 256.1 972.8 258.1 974.8 258.1"/>
          <polyline class="cls-12" points="976.9 258.1 978.4 258.1 1057.9 312"/>
          <line class="cls-3" x1="1058.7" y1="312.6" x2="1060.4" y2="313.7"/>
        </g>
        <g>
          <line class="cls-3" x1="139.5" y1="391" x2="141.5" y2="391"/>
          <polyline class="cls-3" points="141.7 391 143.7 391 143.7 389"/>
          <line class="cls-13" x1="143.7" y1="386.9" x2="143.7" y2="369.1"/>
          <polyline class="cls-3" points="143.7 368.1 143.7 366.1 141.7 366.1"/>
          <polyline class="cls-14" points="139.7 366.1 139.1 366.1 117.1 350.1"/>
          <line class="cls-3" x1="116.3" y1="349.5" x2="114.7" y2="348.3"/>
        </g>
      </g>
    </g>
    <path id="street" class="cls-4" d="M0,544.6s366.9-2.9,398.9-2.9c40.1,0,68.5-30.5,83.9-51.3l46.7-62.9,410.8-3.8,44.6,38.9c22.8,15,38.2,43.8,38.2,76.7,0,48.4-33.2,87.7-74,87.7H0m508.8-58.2H930.9c16,0,29.6-12.4,30.2-28.3a29.5,29.5,0,0,0-29.5-30.7H559.7c-20.8,4.2-42.3,24.2-58.3,43A9.7,9.7,0,0,0,508.8,568.8Zm427.9-59v58.6m-14.5-58.6v58.6m-14.5-58.6v58.6m-14.4-58.6v58.6m-14.5-58.6v58.6m-14.5-58.6v58.6m-14.4-58.6v58.6m-14.5-58.6v58.6m-14.5-58.6v58.6m-14.4-58.6v58.6M792,509.8v58.6m-14.5-58.6v58.6m-14.4-58.6v58.6m-14.5-58.6v58.6m-14.5-58.6v58.6m-14.4-58.6v58.6m-14.5-58.6v58.6m-14.4-58.6v58.6m-14.5-58.6v58.6m-14.5-58.6v58.6m-14.4-58.6v58.6m-14.5-58.6v58.6m-14.5-58.6v58.6M604,509.8v58.6m-14.5-58.6v58.6M575,509.8v58.6m-14.4-58.6v58.6M929.1,442.9v28m-14.5-28v28m-14.5-28v28m-14.4-28v28m-14.5-28v28m-14.5-28v28m-14.4-28v28m-14.5-28v28m-14.4-28v28m-14.5-28v28m-14.5-28v28m-14.4-28v28m-14.5-28v28m-14.5-28v28m-14.4-28v28m-14.5-28v28m-14.5-28v28m-14.4-28v28m-14.5-28v28m-14.5-28v28m-14.4-28v28m-14.5-28v28m-14.5-28v28m-14.4-28v28m-14.5-28v28m-14.5-28v28m-14.4-28v28m-6.9,68.4v29.1m-14.5-29.1v29.1m405.1-29.3H531.6m429-70.9-31.5-25.3H553l-51.5,55.4m430.1-27.4s63.1-2.8,79.9-19,18.4-19.6,18.4-19.6m45.2-16.1-47.3,51.9s-27.7,37.2-27.7,71.2M0,607.7H931.6a68.4,68.4,0,1,0,0-136.8H556.4l-1.6.3c-25.3,4.2-47.8,19.2-77.4,50s-60,39.5-78.3,39.5H0M28.5,286.2l-9.9-12.7L.4,261.1m40-15.5s-3.9-7.2-9.5-11L.4,214.4m28.1,62.2S27.4,256,17.2,249.1L0,237.6m.6-46.1c15.2,10.4,38,25.8,44.6,30.1,10.2,6.7,35.7,4.8,35.7,4.8m-51.4,7.2s11.4,7.7,14.6,7.9m263,1.5H282.2l-.9-71.7H53.7L1.8,140.6M269.4,72V49.1H69.7V72M316.4,55.5V51.2H545.2V19.5m26.4,0V46.3h2.8v-5H784.1V27.8M571.6,38.5H764.9m0-5.6H574.4v5.6m-2.8-8.1H764.9m0-5.8H574.4v5.8m-2.8-8.8H764.9m0,19.7V17.8M571.6,46.3V52H784.1V41.3" transform="translate(0.1 -17.8)"/>
  </g>
  <g id="buildings">
    <g id="build">
      <path class="cls-15" d="M408.2,502.4V489.9H318.6V417.2h88.6v6.7h44.5v66h-5.6v2.7h-5.9v-2.7H423.9v2.7h-7v9.8Zm-134-12.5V417.2h42v72.7Zm-22.2,0V417.2h19.8v72.7Zm-22.3,0V417.2h19.9v72.7Zm-134,0V424.2h44.4V420h44.5v-2.8h42.7v72.7Zm941.9-57.7a51.9,51.9,0,1,1,51.9-51.9A52,52,0,0,1,1037.6,432.2Zm0-79.5a27.7,27.7,0,1,0,27.6,27.6A27.7,27.7,0,0,0,1037.6,352.7Zm-378,39.9v-4.1H579.1V362.1h-7V296.4h7v-5.6H715.2v-2.7h10.1v2.7h3.1v-2.7h10.1v2.7h3.1v-2.7h10.1v2.7h63.5v-4.1h11.5v4.1h60.5v18.8h29.1v6H901.1V343h1.4v11.5h-1.4v24.2H800.3v9.8H668.4v4.1Zm243.8-13.9V356.8h1.5V340.6h-1.5V318h15.3V307.2H889.6V290.8H984l48.3,34.5v1a54.1,54.1,0,0,0-49,52.4ZM272.1,369v-4.2H243.3v2.8H140.1v-2.8H114.8L63.6,330.2A52.7,52.7,0,0,0,80.9,333a54.5,54.5,0,0,0,54.3-53.3H273.9v18.1h6.9v65.7h-6.9V369Zm111.8-2.8V330.4h72.6v35.8Zm-67.4,0v-2.7h-6.9V297.8h6.9v-5.6h65v74ZM80.9,330.6a51.9,51.9,0,1,1,51.9-51.9A52,52,0,0,1,80.9,330.6Zm0-79.6a27.7,27.7,0,1,0,27.6,27.7A27.7,27.7,0,0,0,80.9,251Zm303,77V292.2h72.6V328Zm548.5-85.4V182.5h88.8v51.8H976.7v8.3Zm-89.3,0V182.5H930v60.1Zm-42.3,0V182.5h39.9v60.1Zm-44,0V182.5h41.6v60.1Zm-44.2,0V182.5h41.8v60.1Zm-46,0v-6.9H622.1V182.5h88.1v60.1ZM70.2,150.3v-8.4H59.4V77.5H70.2V68.3H269.7v9.2h9.7v64.4h-9.7v8.4Z" transform="translate(0.1 -17.8)"/>
      <path class="cls-16" d="M269.2,68.8V78h9.7v63.4h-9.7v8.4H70.7v-8.4H59.9V78H70.7V68.8H269.2M1020.7,183v50.8H976.2v8.3H932.9V183h87.8m-91.2,0v59.1H843.6V183h85.9m-89.3,0v59.1H801.3V183h38.9m-42.3,0v59.1H757.3V183h40.6m-44,0v59.1H713.1V183h40.8m-44.2,0v59.1H667.1v-6.9H622.6V183h87.1M80.9,227.3a51.4,51.4,0,1,1-51.5,51.4,51.4,51.4,0,0,1,51.5-51.4m0,79.6a28.2,28.2,0,1,0-28.2-28.2,28.2,28.2,0,0,0,28.2,28.2m192.5-26.7v18.1h6.9V363h-6.9v5.5h-.8v-4.2H242.8v2.8H140.6v-2.8H114.9L66.6,331.6a52.5,52.5,0,0,0,14.3,1.9,55,55,0,0,0,54.8-53.3H273.4m552.8,7v4.1h60.5v18.8h29.1v5H900.6v28.4H902V354h-1.4v24.2H799.8V388H667.9v4.1h-7.8V388H579.6V361.6h-7V296.9h7v-5.6H715.7v-2.7h9.1v2.7h4.1v-2.7H738v2.7h4.1v-2.7h9.1v2.7h64.5v-4.1h10.5m157.7,4.1,47.9,34.3v.2a54.6,54.6,0,0,0-49,52.4H903.9V357.3h1.5V340.1h-1.5V318.5h15.3V306.7H890.1V291.3h93.8M456,292.7v34.8H384.4V292.7H456m-75,0v73H317V363h-6.9V298.3H317v-5.6h64m656.6,36.2a51.4,51.4,0,1,1-51.5,51.4,51.4,51.4,0,0,1,51.5-51.4m0,79.6a28.2,28.2,0,1,0-28.2-28.2,28.2,28.2,0,0,0,28.2,28.2M456,330.9v34.8H384.4V330.9H456m-49.3,86.8v6.7h44.5v65h-5.6v2.7h-4.9v-2.7H423.4v2.7h-7v9.8h-7.7V489.4H319.1V417.7h87.6m-91,0v71.7h-41V417.7h41m-44.4,0v71.7H252.5V417.7h18.8m-22.2,0v71.7H230.2V417.7h18.9m-22.3,0v71.7H96.2V424.7h44.4v-4.2h44.5v-2.8h41.7M270.2,67.8H69.7V77H58.9v65.4H69.7v8.4H270.2v-8.4h9.7V77h-9.7V67.8ZM1021.7,182H931.9v61.1h45.3v-8.3h44.5V182Zm-91.2,0H842.6v61.1h87.9V182Zm-89.3,0H800.3v61.1h40.9V182Zm-42.3,0H756.3v61.1h42.6V182Zm-44,0H712.1v61.1h42.8V182Zm-44.2,0H621.6v54.2h44.5v6.9h44.6V182ZM80.9,226.3a52.4,52.4,0,1,0,52.4,52.4,52.4,52.4,0,0,0-52.4-52.4Zm0,79.6A27.2,27.2,0,1,1,108,278.7a27.2,27.2,0,0,1-27.1,27.2Zm193.5-26.7H134.7a53.8,53.8,0,0,1-53.8,53.3,53.2,53.2,0,0,1-21.2-4.3l54.9,37.1h25v2.8H243.8v-2.8h27.8v4.2h2.8V364h6.9V297.3h-6.9V279.2Zm552.8,7H814.7v4.1H752.2v-2.7H741.1v2.7H739v-2.7H727.9v2.7h-2.1v-2.7H714.7v2.7H578.6v5.6h-7v66.7h7V389h80.5v4.1h9.8V389H800.8v-9.8H901.6V355H903V342.5h-1.4V316.1h15.2v-7H887.7V290.3H827.2v-4.1Zm157,4.1H889.1v17.4h29.1v9.8H902.9v23.6h1.5v15.2h-1.5v22.9h80.9a53.9,53.9,0,0,1,49-52.5v-1.6l-48.6-34.8ZM457,291.7H383.4v36.8H457V291.7Zm-75,0H316v5.6h-6.9V364H316v2.7h66v-75Zm655.6,36.2a52.4,52.4,0,1,0,52.4,52.4,52.4,52.4,0,0,0-52.4-52.4Zm0,79.6a27.2,27.2,0,1,1,27.1-27.2,27.2,27.2,0,0,1-27.1,27.2ZM457,329.9H383.4v36.8H457V329.9Zm-49.3,86.8H318.1v73.7h89.6v12.5h9.7v-9.8h7v-2.7h15.3v2.7h6.9v-2.7h5.6v-67H407.7v-6.7Zm-91,0h-43v73.7h43V416.7Zm-44.4,0H251.5v73.7h20.8V416.7Zm-22.2,0H229.2v73.7h20.9V416.7Zm-22.3,0H184.1v2.8H139.6v4.2H95.2v66.7H227.8V416.7Z" transform="translate(0.1 -17.8)"/>
    </g>
    <path id="reise" class="cls-17" d="M544.2,330.9v30.7h-6.9v4.1H459.4V330.9h84.8" transform="translate(0.1 -17.8)"/>
    <path id="bank" class="cls-17" d="M537.3,292.7v4.2h6.9v30.6H459.4V292.7h77.9" transform="translate(0.1 -17.8)"/>
  </g>
  <g id="area_up" data-name="area up">
    <path id="walls" class="cls-17" d="M141.1,408.7l-41.8.2v17.8H97.2V406.9l43.9-.2Zm658.3-22.8v2h35v-2Zm111.9-1.2v2.1h33.3v-2.1Zm9.1-7.5v8.5h2.1v-8.5ZM405.9,405.1v2.1H449v17.3h2.1V405.1ZM624.7,250.5V231.8h-2.1v20.7h43.7v-2Zm393.9-20.9v18.6l-42.9-.2v2.1l44.9.2V229.6Zm-130.5-58v2.1h39.3v11.9h2.1v-14ZM198.6,492.5v-4.9h-2.1v7h19.1v-2.1Zm175,0v-5.4h-2v7.5h20.2v-2.1Z" transform="translate(0.1 -17.8)"/>
    <line class="cls-4" x1="214.3" y1="475.8" x2="214.3" y2="470.8"/>
    <line class="cls-4" x1="212.4" y1="475.8" x2="212.4" y2="470.8"/>
    <line class="cls-4" x1="210.6" y1="475.8" x2="210.6" y2="470.8"/>
    <line class="cls-4" x1="208.7" y1="475.8" x2="208.7" y2="470.8"/>
    <line class="cls-4" x1="206.9" y1="475.8" x2="206.9" y2="470.8"/>
    <line class="cls-4" x1="205" y1="475.8" x2="205" y2="470.8"/>
    <line class="cls-4" x1="390.4" y1="475.8" x2="390.4" y2="470.8"/>
    <line class="cls-4" x1="388.6" y1="475.8" x2="388.6" y2="470.8"/>
    <line class="cls-4" x1="386.7" y1="475.8" x2="386.7" y2="470.8"/>
    <line class="cls-4" x1="384.9" y1="475.8" x2="384.9" y2="470.8"/>
    <line class="cls-4" x1="383" y1="475.8" x2="383" y2="470.8"/>
    <line class="cls-4" x1="381.2" y1="475.8" x2="381.2" y2="470.8"/>
    <line class="cls-4" x1="822.9" y1="368.8" x2="822.9" y2="360.3"/>
    <line class="cls-4" x1="833" y1="368.8" x2="833" y2="360.3"/>
    <line class="cls-4" x1="831.3" y1="368.8" x2="831.3" y2="360.3"/>
    <line class="cls-4" x1="829.6" y1="368.8" x2="829.6" y2="360.3"/>
    <line class="cls-4" x1="827.9" y1="368.8" x2="827.9" y2="360.3"/>
    <line class="cls-4" x1="826.2" y1="368.8" x2="826.2" y2="360.3"/>
    <line class="cls-4" x1="824.6" y1="368.8" x2="824.6" y2="360.3"/>
    <line class="cls-4" x1="918.4" y1="368.8" x2="918.4" y2="360.3"/>
    <line class="cls-4" x1="916.7" y1="368.8" x2="916.7" y2="360.3"/>
    <line class="cls-4" x1="915" y1="368.8" x2="915" y2="360.3"/>
    <line class="cls-4" x1="913.4" y1="368.8" x2="913.4" y2="360.3"/>
    <line class="cls-4" x1="911.7" y1="368.8" x2="911.7" y2="360.3"/>
    <line class="cls-4" x1="932.6" y1="368.8" x2="932.6" y2="360.3"/>
    <line class="cls-4" x1="942.7" y1="368.8" x2="942.7" y2="360.3"/>
    <line class="cls-4" x1="941" y1="368.8" x2="941" y2="360.3"/>
    <line class="cls-4" x1="939.3" y1="368.8" x2="939.3" y2="360.3"/>
    <line class="cls-4" x1="937.6" y1="368.8" x2="937.6" y2="360.3"/>
    <line class="cls-4" x1="935.9" y1="368.8" x2="935.9" y2="360.3"/>
    <line class="cls-4" x1="934.3" y1="368.8" x2="934.3" y2="360.3"/>
  </g>
  <g id="green">
    <path id="grass" class="cls-18" d="M1071.1,27.8v87.8H814.6V52h-15V27.8Zm-527.7,0H72.3V46.3H543.4Zm571.5,0h-25.2v87.8h25.2Z" transform="translate(0.1 -17.8)"/>
    <path id="trees" class="cls-19" d="M554.4,115.6a19.5,19.5,0,1,1-19.5-19.5A19.6,19.6,0,0,1,554.4,115.6ZM533.7,159a19.5,19.5,0,1,0,19.5,19.5A19.5,19.5,0,0,0,533.7,159ZM521,219.8a19.5,19.5,0,1,0,19.5,19.5A19.5,19.5,0,0,0,521,219.8ZM335.9,127.4a19.6,19.6,0,1,0,19.5,19.5A19.5,19.5,0,0,0,335.9,127.4Zm0,51.1A19.5,19.5,0,1,0,355.4,198,19.5,19.5,0,0,0,335.9,178.5Zm0,51a19.6,19.6,0,1,0,19.5,19.6A19.5,19.5,0,0,0,335.9,229.5Zm487.9-86.2V156H1031v53.4l13.5-14V143.3Z" transform="translate(0.1 -17.8)"/>
  </g>
</svg>
