<svg xmlns="http://www.w3.org/2000/svg" width="33" height="33" viewBox="0 0 33 33"><defs><style>.a{fill:#222;}</style></defs><title>S8 adesivi GArtboard 1 copy 2</title><path class="a" d="M24.415,6.988a2.51,2.51,0,0,1,1.019.211,2.8,2.8,0,0,1,.84.569,2.7,2.7,0,0,1,.574.84,2.518,2.518,0,0,1,.211,1.015V18.86a2.506,2.506,0,0,1-.211,1.019,2.8,2.8,0,0,1-.57.84,2.692,2.692,0,0,1-.835.574,2.506,2.506,0,0,1-1.019.211v4.508L19.916,21.5H8.585A2.593,2.593,0,0,1,7.552,21.3a2.623,2.623,0,0,1-1.4-1.4,2.593,2.593,0,0,1-.207-1.033V9.623a2.518,2.518,0,0,1,.211-1.015,2.7,2.7,0,0,1,.574-.84A2.769,2.769,0,0,1,7.571,7.2a2.51,2.51,0,0,1,1.014-.211ZM7.369,19.378a1.368,1.368,0,0,0,.284.423,1.3,1.3,0,0,0,.932.381H20.457L23.1,22.826V20.182h1.313a1.343,1.343,0,0,0,.518-.1,1.272,1.272,0,0,0,.7-.7,1.343,1.343,0,0,0,.1-.518V9.623a1.245,1.245,0,0,0-.106-.514,1.381,1.381,0,0,0-.284-.418,1.4,1.4,0,0,0-.418-.285,1.264,1.264,0,0,0-.514-.105H8.585a1.264,1.264,0,0,0-.514.105,1.4,1.4,0,0,0-.418.285,1.381,1.381,0,0,0-.284.418,1.245,1.245,0,0,0-.106.514V18.86A1.277,1.277,0,0,0,7.369,19.378Zm14.264-6.349a1.308,1.308,0,0,1,.417.28,1.378,1.378,0,0,1,.285.418,1.3,1.3,0,0,1,0,1.028,1.364,1.364,0,0,1-.7.7,1.313,1.313,0,0,1-1.029,0,1.354,1.354,0,0,1-.7-.7,1.3,1.3,0,0,1,0-1.028,1.393,1.393,0,0,1,.284-.418,1.341,1.341,0,0,1,1.447-.28Zm-4.619,0a1.3,1.3,0,0,1,.418.28,1.4,1.4,0,0,1,.285.418,1.311,1.311,0,0,1,0,1.028,1.383,1.383,0,0,1-.285.418,1.366,1.366,0,0,1-.418.285,1.311,1.311,0,0,1-1.028,0,1.366,1.366,0,0,1-.418-.285,1.383,1.383,0,0,1-.285-.418,1.311,1.311,0,0,1,0-1.028,1.4,1.4,0,0,1,.285-.418,1.34,1.34,0,0,1,1.446-.28Zm-4.618,0a1.312,1.312,0,0,1,.418.28,1.393,1.393,0,0,1,.284.418,1.3,1.3,0,0,1,0,1.028,1.354,1.354,0,0,1-.7.7,1.313,1.313,0,0,1-1.029,0,1.364,1.364,0,0,1-.7-.7,1.3,1.3,0,0,1,0-1.028,1.378,1.378,0,0,1,.285-.418,1.34,1.34,0,0,1,1.446-.28Z"/></svg>