<svg xmlns="http://www.w3.org/2000/svg" width="33" height="33" viewBox="0 0 33 33"><defs><style>.a{fill:#222;}</style></defs><title>S8 adesivi GArtboard 1 copy</title><path class="a" d="M10.35,23.319a17.586,17.586,0,0,0,2.739-2.289A12.745,12.745,0,0,0,15.2,18.1a7.774,7.774,0,0,0,.887-3.688A8.172,8.172,0,0,0,14.954,9.9a4,4,0,0,0-3.643-1.671,3.2,3.2,0,0,0-2.56,1.067A3.4,3.4,0,0,0,7.8,11.574,3.348,3.348,0,0,0,8.827,14.2a4.2,4.2,0,0,0,2.926.946h1.785l-.02.268a7.74,7.74,0,0,1-.657,2.792,8.979,8.979,0,0,1-1.4,2.03A9.762,9.762,0,0,1,9.6,21.807c-.726.494-1.492.979-2.279,1.446l.829,1.439C8.727,24.379,9.464,23.918,10.35,23.319Z"/><path class="a" d="M20.034,23.319a17.623,17.623,0,0,0,2.739-2.289A12.728,12.728,0,0,0,24.879,18.1a7.748,7.748,0,0,0,.887-3.688A8.17,8.17,0,0,0,24.639,9.9,4,4,0,0,0,21,8.224a3.2,3.2,0,0,0-2.56,1.067,3.4,3.4,0,0,0-.949,2.283A3.345,3.345,0,0,0,18.511,14.2a4.2,4.2,0,0,0,2.926.946h1.785l-.021.268a7.733,7.733,0,0,1-.655,2.792,9.033,9.033,0,0,1-1.4,2.03,9.721,9.721,0,0,1-1.86,1.572c-.729.5-1.5.981-2.279,1.446l.829,1.439C18.411,24.379,19.148,23.918,20.034,23.319Z"/></svg>