<?xml version="1.0"?><svg fill="#222222" xmlns="http://www.w3.org/2000/svg"  viewBox="0 0 30 30" width="30px" height="30px">
<path id="XMLID_7_" class="st0" d="M25,3H5C3.9,3,3,3.9,3,5v19.9C3,26.1,3.9,27,5,27h19.9c1.1,0,2-0.9,2-2V5C27,3.9,26.1,3,25,3z M8.8,23.6c-1.4,0-2.4-1.1-2.4-2.4c0-1.4,1.1-2.4,2.4-2.4s2.4,1.1,2.4,2.4C11.2,22.5,10.1,23.6,8.8,23.6z M14.5,23.6
	c0-4.5-3.6-8.1-8.1-8.1v-3.4c6.3,0,11.5,5.1,11.5,11.5L14.5,23.6L14.5,23.6z M20.3,23.6c0-3.7-1.4-7.2-4.1-9.8s-6.1-4.1-9.8-4.1V6.4
	c4.6,0,9,1.8,12.1,5s5,7.6,5,12.1H20.3z"/></svg>