<svg xmlns="http://www.w3.org/2000/svg" viewBox="0 0 448.1 384.59">
  <defs>
    <style>
      .cls-1 {
        isolation: isolate;
      }

      .cls-2, .cls-3 {
        fill: #ddd;
      }

      .cls-2, .cls-5 {
        stroke: #f8f8ff;
        stroke-miterlimit: 10;
        stroke-width: 2px;
      }

      .cls-4 {
        fill: #bfbfbf;
        opacity: 0.8;
        mix-blend-mode: multiply;
      }

      .cls-5 {
        fill: none;
      }

      .cls-6 {
        fill: #222;
      }

      .cls-7 {
        fill: #fff;
      }

      .cls-8 {
        fill: #f8f8ff;
      }
		
		#gymnR, #_13, #g8 {
		transition-delay: 0.2s;
		transition-duration: 1s;
		transition-property: fill;
		transition-timing-function: ease-out;
      }
		svg:hover #gymnR,
		svg:hover #_13,
		svg:hover #g8
		  { fill: #c04300; }
		
    </style>
  </defs>
  <title>German_School_system_8</title>
  <g class="cls-1">
    <g id="school-system">
      <g id="geometry">
        <path id="gymn" class="cls-2" d="M113.94,270V29.06h56.69V270Z"/>
        <path id="gymnR" class="cls-3" d="M114.93,213.39V30h54.71V213.39Z"/>
        <path class="cls-2" d="M184.8,270V85.76h56.7V270Z"/>
        <path class="cls-2" d="M255.67,270V128.28h56.69V270Z"/>
        <path class="cls-2" d="M326.54,270V128.28h28.35V85.76h28.34V29.06h28.35V270Z"/>
        <path class="cls-2" d="M241.5,270V85.76l14.17,42.52V270Z"/>
        <path id="elem" class="cls-2" d="M113.94,383.59H411.58V270.21H113.94Z"/>
        <path class="cls-2" d="M418.75,383.59V28.88H447.1V383.59Z"/>
        <path class="cls-2" d="M156.46,85.76V29.06H376.14V61.68H170.63V85.76Z"/>
        <path id="orien" class="cls-4" d="M126.49,261.47V221.85H399.2v39.62Z"/>
        <line class="cls-5" x1="110.53" y1="213.38" x2="414.19" y2="213.38"/>
      </g>
      <g id="blocksG">
        <path id="g1" class="cls-2" d="M35.5,383.23h29v-28h-29Z"/>
        <path id="g2" class="cls-2" d="M35.5,355.23h29v-28h-29Z"/>
        <path id="g3" class="cls-2" d="M35.5,327.23h29v-29h-29Z"/>
        <path id="g4" class="cls-2" d="M35.5,298.23h29v-28h-29Z"/>
        <path id="g5" class="cls-2" d="M35.5,270.21h29v-29h-29Z"/>
        <path id="g6" class="cls-2" d="M35.5,241.21h29v-28h-29Z"/>
        <path id="g7" class="cls-2" d="M35.5,213.21h29v-28h-29Z"/>
        <path id="g8" class="cls-2" d="M35.5,185.21h29v-29h-29Z"/>
        <path id="g9" class="cls-2" d="M35.5,156.21h29v-28h-29Z"/>
        <path id="g10" class="cls-2" d="M35.5,114.21h29v-28h-29Z"/>
        <path id="g11" class="cls-2" d="M35.5,86.21h29v-29h-29Z"/>
        <path id="g12" class="cls-2" d="M35.5,57.21h29v-28h-29Z"/>
      </g>
      <g id="blocksA">
        <path id="_6" data-name="6" class="cls-2" d="M74.72,383.23h29v-28h-29Z"/>
        <path id="_7" data-name="7" class="cls-2" d="M74.72,355.23h29v-28h-29Z"/>
        <path id="_8" data-name="8" class="cls-2" d="M74.72,327.23h29v-29h-29Z"/>
        <path id="_9" data-name="9" class="cls-2" d="M74.72,298.23h29v-28h-29Z"/>
        <path id="_10" data-name="10" class="cls-2" d="M74.72,270.21h29v-29h-29Z"/>
        <path id="_11" data-name="11" class="cls-2" d="M74.72,241.21h29v-28h-29Z"/>
        <path id="_12" data-name="12" class="cls-2" d="M74.72,213.21h29v-28h-29Z"/>
        <path id="_13" data-name="13" class="cls-2" d="M74.72,185.21h29v-29h-29Z"/>
        <path id="_14" data-name="14" class="cls-2" d="M74.72,156.21h29v-28h-29Z"/>
        <path id="_15" data-name="15" class="cls-2" d="M74.72,114.21h29v-28h-29Z"/>
        <path id="_16" data-name="16" class="cls-2" d="M74.72,86.21h29v-29h-29Z"/>
        <path id="_17" data-name="17" class="cls-2" d="M74.72,57.21h29v-28h-29Z"/>
      </g>
      <path id="degr" class="cls-6" d="M134.81,10h269.3V22H134.81Zm71.25,68.77H376.14v-12H206.06Zm70.87,41.56H347.8v-24H276.93Z"/>
      <path id="arrows" class="cls-6" d="M283.53,128.21h-1v-4.37h1Zm-.5-7-3,3h6.07Zm57.5,2.63h-1v4.37h1Zm-.5-2.63-3,3h6.07ZM272.4,99.71H244.66v1H272.4Zm-30.37.5,3,3V97.17Zm30-3v6.08l3-3ZM212.53,81.84h-1v4.37h1Zm-.5-2.63-3,3h6.07Zm156.5,2.63h-1v4.37h1Zm-.5-2.63-3,3h6.07Zm-190.5-4.5H199.4v-1H176.53v26h-1.87v1h2.87Zm-5.5,25.5,3,3V97.17Zm27-29v6.08l3-3ZM141.53,24.84h-1v4.37h1Zm-.5-2.63-3,3h6.07Zm255.5,2.63h-1v4.37h1Zm-.5-2.63-3,3h6.07ZM21,275.86H20V378.6h1Zm-.5,105.37,3-3H17.46Zm-3-105h6.08l-3-3ZM21,133.84H20V264.58h1Zm-.5,133.37,3-3H17.46Zm-3-133h6.08l-3-3ZM7,33.84H6V264.58H7ZM6.5,267.21l3-3H3.46Zm-3-233H9.54l-3-3ZM21,33.84H20v74.74h1Zm-.5,77.37,3-3H17.46Zm-3-77h6.08l-3-3Z"/>
      <path id="white" class="cls-7" d="M29,307.44v38.92H14.45V307.44ZM15.55,185.79v26.7H27.88v-26.7Zm0-127.55V84.93H27.88V58.24ZM0,114v71.09H15.09V114Z"/>
      <path id="textW" class="cls-8" d="M260.48,12.2h1.07l2.2,5.71h-1.08l-.53-1.51h-2.28l-.54,1.51h-1Zm-.35,3.44h1.74L261,13.19h0Zm4.06-3.44h.91v2.12h0a1.49,1.49,0,0,1,1.23-.65,1.94,1.94,0,0,1,1.93,2.2c0,1.11-.56,2.16-1.78,2.16a1.48,1.48,0,0,1-1.43-.68h0v.56h-.86Zm2,2.19c-.77,0-1.16.58-1.16,1.46s.42,1.46,1.16,1.46,1.14-.74,1.14-1.46S267,14.39,266.23,14.39Zm2.85-2.19H270v.87h-.91Zm0,1.58H270v4.13h-.91Zm1.48,0h.69V12.54h.91v1.24H273v.68h-.83v2.21c0,.37,0,.56.44.56a1.71,1.71,0,0,0,.39,0v.71c-.2,0-.4,0-.6,0-.95,0-1.12-.36-1.14-1.05V14.46h-.69Zm6.71,4.13h-.89v-.57h0a1.4,1.4,0,0,1-1.17.69c-1.08,0-1.55-.55-1.55-1.63V13.78h.91v2.53c0,.73.3,1,.8,1,.76,0,1-.49,1-1.13v-2.4h.91Zm1-4.13h.86v.8h0a1.32,1.32,0,0,1,1.2-.91,2.18,2.18,0,0,1,.35,0v.88c-.13,0-.27,0-.39,0-.63,0-1.12.5-1.12,1.42v2h-.92ZM254.74,69h2.73c1.24,0,1.88.57,1.88,1.54a1.39,1.39,0,0,1-.94,1.44h0c.35,0,.85.31.85,1.21a2.6,2.6,0,0,0,.31,1.51H258.5a1.62,1.62,0,0,1-.15-.84c0-1-.22-1.52-1.14-1.52h-1.47v2.36h-1Zm1,2.6h1.64a.85.85,0,0,0,1-.92c0-.72-.47-.87-1-.87h-1.62ZM261,72.91a1.1,1.1,0,0,0,1.11,1.23,1,1,0,0,0,1-.69h.86a1.82,1.82,0,0,1-1.87,1.41,2,2,0,0,1-2-2.18,2,2,0,1,1,3.94.23Zm2.12-.6a1.06,1.06,0,1,0-2.12,0Zm5.07,1.52c0,.22.05.31.22.31a.94.94,0,0,0,.22,0v.63a2.13,2.13,0,0,1-.57.11c-.37,0-.63-.13-.7-.51a2.1,2.1,0,0,1-1.44.51,1.25,1.25,0,0,1-1.41-1.21c0-1,.82-1.2,1.59-1.29s1.24,0,1.24-.58-.49-.56-.86-.56-.87.21-.91.65h-.91c.06-1.06,1-1.37,1.88-1.37s1.65.33,1.65,1.2Zm-.91-1.16a3.08,3.08,0,0,1-1.12.25c-.39.07-.74.21-.74.69s.52.53.84.53,1-.21,1-.79ZM269.17,69h.91v5.71h-.91Zm2.59,4.38c0,.53.44.72.93.72s.94-.07.92-.55-.69-.53-1.35-.68-1.33-.39-1.33-1.23,1-1.18,1.73-1.18,1.61.35,1.73,1.27h-.95c-.08-.43-.44-.55-.84-.55s-.76.06-.76.42.68.51,1.35.67,1.33.39,1.33,1.2c0,1-1,1.35-1.84,1.35-1,0-1.82-.47-1.84-1.44ZM278,72a.87.87,0,0,0-.94-.77c-.47,0-1.14.25-1.14,1.5,0,.69.31,1.42,1.1,1.42a1,1,0,0,0,1-1h.91A1.77,1.77,0,0,1,277,74.86a2,2,0,0,1-2-2.14,2,2,0,0,1,2-2.22A1.67,1.67,0,0,1,278.92,72ZM279.67,69h.91v2.12h0a1.43,1.43,0,0,1,1.24-.66,1.31,1.31,0,0,1,1.46,1.41v2.84h-.91v-2.6c0-.65-.27-.93-.81-.93a1,1,0,0,0-1,1.09v2.44h-.91Zm8.22,5.71H287v-.58h0a1.38,1.38,0,0,1-1.18.69c-1.08,0-1.54-.55-1.54-1.63V70.61h.91v2.54c0,.72.3,1,.79,1,.76,0,1-.49,1-1.13v-2.4h.91Zm1-5.71h.91v5.71h-.91Zm5.36,4.79c0,.22.05.31.22.31a1,1,0,0,0,.22,0v.63a2.13,2.13,0,0,1-.57.11c-.37,0-.64-.13-.71-.51a2.08,2.08,0,0,1-1.43.51,1.25,1.25,0,0,1-1.41-1.21c0-1,.82-1.2,1.59-1.29s1.24,0,1.24-.58-.49-.56-.86-.56-.87.21-.91.65h-.91c.06-1.06,1-1.37,1.88-1.37s1.65.33,1.65,1.2Zm-.91-1.16a3.08,3.08,0,0,1-1.12.25c-.39.07-.74.21-.74.69s.52.53.84.53,1-.21,1-.79ZM295.25,69h.91v2.11h0a1.51,1.51,0,0,1,1.23-.65,2,2,0,0,1,1.94,2.2c0,1.11-.56,2.16-1.79,2.16a1.48,1.48,0,0,1-1.43-.68h0v.57h-.87Zm2,2.18c-.77,0-1.16.58-1.16,1.46s.43,1.46,1.16,1.46,1.14-.74,1.14-1.46S298,71.22,297.29,71.22Zm3.51,2.2c.05.53.45.72.94.72.34,0,.94-.07.92-.55s-.69-.53-1.35-.68S300,72.52,300,71.68s1-1.18,1.73-1.18,1.61.35,1.72,1.27h-.95c-.08-.43-.44-.55-.84-.55s-.75.06-.75.42.67.51,1.35.67,1.33.39,1.33,1.2c0,1-1,1.35-1.85,1.35-1,0-1.81-.47-1.83-1.44ZM307.06,72a.87.87,0,0,0-.94-.77c-.48,0-1.14.25-1.14,1.5,0,.69.3,1.42,1.1,1.42a1,1,0,0,0,1-1H308a1.78,1.78,0,0,1-1.89,1.67,2,2,0,0,1-2-2.14,2,2,0,0,1,2-2.22A1.67,1.67,0,0,1,308,72ZM308.72,69h.91v2.12h0a1.45,1.45,0,0,1,1.24-.66,1.31,1.31,0,0,1,1.47,1.41v2.84h-.91v-2.6c0-.65-.28-.93-.81-.93a1,1,0,0,0-1,1.09v2.44h-.91Zm4.61,0h.91v5.71h-.91Zm5.54,5.71H318v-.58h0a1.39,1.39,0,0,1-1.18.69c-1.08,0-1.54-.55-1.54-1.63V70.61h.91v2.54c0,.72.29,1,.79,1,.76,0,1-.49,1-1.13v-2.4h.91Zm1.65-1.33c0,.53.44.72.93.72s.94-.07.92-.55-.69-.53-1.35-.68-1.33-.39-1.33-1.23,1-1.18,1.73-1.18,1.61.35,1.73,1.27h-.95c-.08-.43-.44-.55-.84-.55s-.76.06-.76.42.68.51,1.35.67,1.33.39,1.33,1.2c0,1-1,1.35-1.84,1.35-1,0-1.82-.47-1.84-1.44Zm4.15,0c.05.53.45.72.93.72s.95-.07.92-.55-.68-.53-1.35-.68-1.33-.39-1.33-1.23,1-1.18,1.73-1.18,1.62.35,1.73,1.27h-.95c-.08-.43-.44-.55-.84-.55s-.75.06-.75.42.67.51,1.34.67,1.33.39,1.33,1.2c0,1-1,1.35-1.84,1.35-1,0-1.82-.47-1.83-1.44Zm-34.67,27h1v2.27h2.6v-2.27h1v5.71h-1v-2.57H291v2.57h-1Zm9.14,4.79c0,.22,0,.31.21.31h.23v.63a2.27,2.27,0,0,1-.58.1c-.37,0-.63-.13-.7-.5a2.14,2.14,0,0,1-1.43.5,1.26,1.26,0,0,1-1.42-1.21c0-1,.82-1.19,1.59-1.28s1.24,0,1.24-.59-.49-.56-.85-.56c-.52,0-.88.21-.92.66h-.91c.07-1.06,1-1.38,1.88-1.38s1.66.33,1.66,1.2Zm-.92-1.15a3.43,3.43,0,0,1-1.11.25c-.4.06-.75.2-.75.68s.52.53.84.53,1-.21,1-.78Zm5.53,2.07h-.89v-.58h0a1.37,1.37,0,0,1-1.17.69c-1.08,0-1.55-.54-1.55-1.62V102H301v2.53c0,.73.3,1,.8,1,.76,0,1-.49,1-1.12V102h.91Zm1-4.13h.86v.56h0a1.37,1.37,0,0,1,1.28-.68,2,2,0,0,1,1.93,2.2c0,1.11-.56,2.16-1.78,2.16a1.58,1.58,0,0,1-1.38-.65h0v2.07h-.91Zm2,.6c-.77,0-1.16.59-1.16,1.47s.42,1.45,1.16,1.45,1.14-.73,1.14-1.45S307.53,102.63,306.78,102.63Zm2.41-.6h.68v-1.24h.92V102h.82v.68h-.82v2.2c0,.38,0,.57.43.57a1.71,1.71,0,0,0,.39,0v.7a5.87,5.87,0,0,1-.59,0c-.95,0-1.13-.37-1.15-1.06v-2.43h-.68Zm3.76,2.8c.05.53.45.72.94.72s.94-.07.92-.54-.69-.54-1.35-.69-1.33-.38-1.33-1.22,1-1.19,1.73-1.19a1.53,1.53,0,0,1,1.72,1.28h-.95c-.08-.44-.44-.56-.84-.56s-.75.07-.75.43.67.51,1.34.66,1.34.39,1.34,1.21c0,1-1,1.34-1.85,1.34-1,0-1.81-.46-1.83-1.44Zm6.26-1.42a.88.88,0,0,0-.95-.78c-.47,0-1.13.25-1.13,1.51,0,.68.3,1.41,1.09,1.41a1,1,0,0,0,1-.94h.91a1.78,1.78,0,0,1-1.9,1.66,1.94,1.94,0,0,1-2-2.13,2,2,0,0,1,2-2.23,1.67,1.67,0,0,1,1.86,1.5Zm1.66-3h.91v2.12h0a1.45,1.45,0,0,1,1.24-.66,1.31,1.31,0,0,1,1.47,1.41v2.84h-.92v-2.6c0-.65-.27-.93-.8-.93a1,1,0,0,0-1,1.09v2.44h-.91Zm8.22,5.71h-.9v-.58h0a1.39,1.39,0,0,1-1.18.69c-1.08,0-1.54-.54-1.54-1.62V102h.91v2.53c0,.73.29,1,.79,1,.76,0,1-.49,1-1.12V102h.91Zm1-5.71H331v5.71h-.91Zm1.82,3.1h2.33v.87h-2.33Zm-34.61,11.69c0,.22.05.31.22.31h.22v.63a2.2,2.2,0,0,1-.58.1c-.36,0-.63-.13-.7-.5a2.12,2.12,0,0,1-1.43.5,1.26,1.26,0,0,1-1.42-1.21c0-1,.83-1.19,1.6-1.28s1.23,0,1.23-.59-.48-.56-.85-.56-.87.21-.91.66h-.91c.06-1.06,1-1.38,1.88-1.38s1.65.33,1.65,1.2Zm-.91-1.15a3.56,3.56,0,0,1-1.12.25c-.39.06-.74.2-.74.68s.52.53.83.53,1-.21,1-.78Zm1.92-3.64h.91v2.11h0a1.49,1.49,0,0,1,1.23-.65,2,2,0,0,1,1.93,2.2c0,1.11-.56,2.16-1.78,2.16a1.46,1.46,0,0,1-1.43-.68h0v.57h-.86Zm2,2.18c-.77,0-1.16.59-1.16,1.47s.42,1.45,1.16,1.45,1.14-.73,1.14-1.45S301.08,112.63,300.33,112.63Zm3.51,2.2c.05.53.45.72.94.72s.94-.07.92-.54-.69-.54-1.36-.69-1.32-.38-1.32-1.22,1-1.19,1.72-1.19a1.53,1.53,0,0,1,1.73,1.28h-1c-.08-.44-.44-.56-.84-.56s-.75.07-.75.43.67.51,1.34.66,1.34.39,1.34,1.21c0,1-1,1.34-1.85,1.34-1,0-1.81-.46-1.83-1.44Zm6.26-1.42a.89.89,0,0,0-1-.78c-.47,0-1.13.25-1.13,1.51,0,.68.3,1.41,1.09,1.41a1,1,0,0,0,1-.94H311a1.78,1.78,0,0,1-1.9,1.66,1.94,1.94,0,0,1-2-2.13,2,2,0,0,1,2-2.23,1.68,1.68,0,0,1,1.87,1.5Zm1.65-3h.91v2.12h0a1.44,1.44,0,0,1,1.24-.66,1.3,1.3,0,0,1,1.46,1.41v2.84h-.91v-2.6c0-.65-.27-.93-.81-.93a1,1,0,0,0-1,1.09v2.44h-.91Zm4.62,0h.91v5.71h-.91Zm5.53,5.71H321v-.58h0a1.37,1.37,0,0,1-1.17.69c-1.08,0-1.55-.54-1.55-1.62V112h.91v2.53c0,.73.3,1,.8,1,.76,0,1-.49,1-1.12V112h.91Zm1.65-1.33c.05.53.45.72.94.72.34,0,.94-.07.92-.54s-.69-.54-1.35-.69-1.33-.38-1.33-1.22,1-1.19,1.73-1.19a1.53,1.53,0,0,1,1.72,1.28h-.95c-.08-.44-.44-.56-.84-.56s-.75.07-.75.43.67.51,1.34.66,1.34.39,1.34,1.21c0,1-1,1.34-1.85,1.34-1,0-1.81-.46-1.83-1.44Zm4.15,0c.05.53.45.72.94.72s.94-.07.92-.54-.69-.54-1.35-.69-1.33-.38-1.33-1.22,1-1.19,1.73-1.19a1.52,1.52,0,0,1,1.72,1.28h-.95c-.08-.44-.44-.56-.84-.56s-.75.07-.75.43.67.51,1.34.66,1.34.39,1.34,1.21c0,1-1,1.34-1.85,1.34-1,0-1.81-.46-1.83-1.44Z"/>
      <path id="textB" class="cls-6" d="M231.92,47.72h-1l-2.27-6.42h.93l1.83,5.57h0l1.85-5.57h.9ZM236.28,43a2.2,2.2,0,0,1,2.25,2.44,2.26,2.26,0,1,1-4.51,0A2.21,2.21,0,0,1,236.28,43Zm0,4.2c.8,0,1.44-.63,1.44-1.76s-.64-1.76-1.44-1.76-1.45.63-1.45,1.76S235.47,47.16,236.28,47.16Zm6.31-2.6a1.08,1.08,0,0,0-1.15-.92c-1.11,0-1.45.87-1.45,1.82s.39,1.7,1.36,1.7A1.2,1.2,0,0,0,242.63,46h.78a1.93,1.93,0,0,1-2,1.81,2.12,2.12,0,0,1-2.18-2.37,2.2,2.2,0,0,1,2.2-2.5,1.79,1.79,0,0,1,2,1.6Zm5.8,3.15a1.07,1.07,0,0,1-.55.12c-.4,0-.65-.21-.65-.72a2,2,0,0,1-1.64.72c-.84,0-1.54-.38-1.54-1.3s.79-1.28,1.58-1.43,1.57-.11,1.57-.69-.55-.77-1-.77c-.65,0-1.12.2-1.16.88h-.77c.05-1.15.94-1.56,2-1.56.83,0,1.74.19,1.74,1.28v2.4c0,.36,0,.52.25.52a.6.6,0,0,0,.23,0Zm-1.24-2.39a3.9,3.9,0,0,1-1.39.32c-.5.09-.94.27-.94.83s.44.69.9.69c1,0,1.43-.63,1.43-1.06Zm3-2.25h.93v.68h-.93v2.89c0,.35.1.41.58.41h.35v.67h-.59c-.79,0-1.1-.16-1.1-1v-3h-.8v-.68h.8V41.68h.76Zm2.58-.84H252V41.3h.76Zm-.76.84h.76v4.65H252Zm4-.11a2.21,2.21,0,0,1,2.26,2.44,2.27,2.27,0,1,1-4.52,0A2.21,2.21,0,0,1,255.94,43Zm0,4.2c.8,0,1.45-.63,1.45-1.76s-.65-1.76-1.45-1.76-1.45.63-1.45,1.76S255.14,47.16,255.94,47.16Zm3.16-4.09h.72v.74h0a1.61,1.61,0,0,1,1.51-.85c1.22,0,1.6.7,1.6,1.7v3.06h-.76V44.57a.88.88,0,0,0-.95-.93,1.31,1.31,0,0,0-1.38,1.46v2.62h-.76Zm9.12,4.64a1,1,0,0,1-.54.12c-.4,0-.65-.21-.65-.72a2.06,2.06,0,0,1-1.64.72c-.85,0-1.54-.38-1.54-1.3s.78-1.28,1.57-1.43S267,45,267,44.41s-.55-.77-1-.77c-.65,0-1.13.2-1.16.88H264c0-1.15.94-1.56,2-1.56.84,0,1.75.19,1.75,1.28v2.4c0,.36,0,.52.24.52a.56.56,0,0,0,.23,0ZM267,45.32a3.79,3.79,0,0,1-1.38.32c-.51.09-.94.27-.94.83s.43.69.9.69c1,0,1.42-.63,1.42-1.06Zm2-4h.77v6.42H269Zm4.92,5c0,.68.62.9,1.25.9s1.13-.11,1.13-.7-.76-.69-1.52-.86-1.52-.42-1.52-1.31S274.16,43,275,43c1,0,1.85.33,1.91,1.46h-.76c-.06-.59-.58-.78-1.08-.78s-1,.12-1,.59.81.64,1.52.81,1.52.43,1.52,1.33c0,1.1-1,1.46-2,1.46s-1.93-.42-2-1.57Zm7.19-1.7a1.08,1.08,0,0,0-1.15-.92c-1.1,0-1.45.87-1.45,1.82s.39,1.7,1.36,1.7A1.2,1.2,0,0,0,281.13,46h.78a1.93,1.93,0,0,1-2.05,1.81,2.12,2.12,0,0,1-2.18-2.37,2.2,2.2,0,0,1,2.2-2.5,1.79,1.79,0,0,1,2,1.6Zm1.68-3.26h.76v2.45h0A1.59,1.59,0,0,1,285,43c1.22,0,1.6.7,1.6,1.7v3.06h-.76V44.57a.88.88,0,0,0-.95-.93,1.31,1.31,0,0,0-1.38,1.46v2.62h-.76Zm7,1.66A2.21,2.21,0,0,1,292,45.4a2.27,2.27,0,1,1-4.52,0A2.21,2.21,0,0,1,289.78,43Zm0,4.2c.8,0,1.45-.63,1.45-1.76s-.65-1.76-1.45-1.76-1.45.63-1.45,1.76S289,47.16,289.78,47.16ZM295,43a2.44,2.44,0,0,1,0,4.87,2.2,2.2,0,0,1-2.26-2.43A2.21,2.21,0,0,1,295,43Zm0,4.2c.8,0,1.44-.63,1.44-1.76s-.64-1.76-1.44-1.76-1.45.63-1.45,1.76S294.14,47.16,295,47.16Zm3.2-5.86h.76v6.42h-.76Zm2.42,5c0,.68.62.9,1.25.9s1.13-.11,1.13-.7-.76-.69-1.53-.86-1.52-.42-1.52-1.31.93-1.33,1.74-1.33c1,0,1.85.33,1.91,1.46h-.77c0-.59-.57-.78-1.08-.78s-1,.12-1,.59.81.64,1.53.81,1.52.43,1.52,1.33c0,1.1-1,1.46-2,1.46s-1.93-.42-2-1.57ZM224.11,241.05a2.75,2.75,0,1,1-2.74-3A2.76,2.76,0,0,1,224.11,241.05Zm-4.47,0c0,1.1.51,2.17,1.73,2.17s1.74-1.07,1.74-2.17-.52-2.18-1.74-2.18S219.64,240,219.64,241.05Zm5.25-1.28h.86v.8h0a1.34,1.34,0,0,1,1.21-.91,2,2,0,0,1,.34,0v.88c-.12,0-.26,0-.39,0-.62,0-1.12.51-1.12,1.42v2h-.91Zm2.84-1.57h.91v.86h-.91Zm0,1.57h.91v4.13h-.91Zm2.62,2.3a1.1,1.1,0,0,0,1.11,1.23,1,1,0,0,0,1-.69h.86a1.82,1.82,0,0,1-1.87,1.41,2,2,0,0,1-2-2.18,2,2,0,1,1,3.95.23Zm2.12-.6a1.06,1.06,0,1,0-2.12,0Zm1.61-1.7H235v.61h0a1.49,1.49,0,0,1,1.29-.73,1.3,1.3,0,0,1,1.46,1.41v2.83h-.91v-2.59c0-.65-.27-.93-.81-.93a1,1,0,0,0-1,1.09v2.43h-.92Zm4.18,0H239v-1.24h.91v1.24h.82v.68h-.82v2.21c0,.37,0,.56.44.56a1.63,1.63,0,0,0,.38,0v.71c-.2,0-.39,0-.59,0-1,0-1.13-.36-1.14-1.05v-2.44h-.69Zm3.1-1.57h.92v.86h-.92Zm0,1.57h.92v4.13h-.92Zm2.62,2.3a1.1,1.1,0,0,0,1.11,1.23,1,1,0,0,0,1-.69H247a1.82,1.82,0,0,1-1.87,1.41,2,2,0,0,1-2-2.18,2,2,0,1,1,4,.23Zm2.13-.6a1.07,1.07,0,1,0-2.13,0Zm1.6-1.7h.86v.8h0a1.32,1.32,0,0,1,1.2-.91,2.18,2.18,0,0,1,.35,0v.88c-.13,0-.27,0-.39,0-.63,0-1.12.51-1.12,1.42v2h-.92Zm6.45,4.13h-.89v-.57h0a1.4,1.4,0,0,1-1.18.69c-1.07,0-1.54-.55-1.54-1.63v-2.62h.91v2.54c0,.72.3,1,.79,1,.76,0,1-.49,1-1.13v-2.4h.91Zm1-4.13H256v.61h0a1.49,1.49,0,0,1,1.29-.73,1.3,1.3,0,0,1,1.46,1.41v2.83h-.91v-2.59c0-.65-.27-.93-.81-.93a1,1,0,0,0-1,1.09v2.43h-.92Zm8.42,3.92c0,1.24-.73,1.85-2,1.85-.84,0-1.77-.32-1.85-1.28h.91c.11.52.53.6,1,.6a.93.93,0,0,0,1.07-1.05v-.63h0a1.43,1.43,0,0,1-1.24.72c-1.31,0-1.85-1-1.85-2.17a1.91,1.91,0,0,1,1.87-2.07,1.28,1.28,0,0,1,1.22.68h0v-.57h.91Zm-.91-1.95c0-.71-.32-1.36-1.12-1.36s-1.08.75-1.08,1.44.33,1.36,1.08,1.36S262.63,242.45,262.63,241.74Zm2.52.84c0,.52.44.72.93.72s.95-.08.92-.55-.69-.53-1.35-.68-1.33-.39-1.33-1.23,1-1.18,1.73-1.18,1.62.35,1.73,1.27h-.95c-.08-.43-.44-.55-.84-.55s-.76.06-.76.42.68.51,1.35.67,1.33.39,1.33,1.2c0,1-1,1.35-1.84,1.35-1,0-1.82-.47-1.83-1.44Zm4.15,0c.05.52.45.72.93.72s.95-.08.92-.55-.68-.53-1.35-.68-1.32-.39-1.32-1.23,1-1.18,1.72-1.18,1.62.35,1.73,1.27H271c-.08-.43-.44-.55-.84-.55s-.75.06-.75.42.67.51,1.34.67,1.34.39,1.34,1.2c0,1-1,1.35-1.85,1.35-1,0-1.82-.47-1.83-1.44Zm3.05-2.81H273v-1.24H274v1.24h.82v.68H274v2.21c0,.37,0,.56.44.56a1.67,1.67,0,0,0,.38,0v.71c-.2,0-.39,0-.59,0-.95,0-1.13-.36-1.14-1.05v-2.44h-.69Zm6.71,4.13h-.9v-.57h0A1.41,1.41,0,0,1,277,244c-1.08,0-1.54-.55-1.54-1.63v-2.62h.91v2.54c0,.72.3,1,.79,1,.76,0,1-.49,1-1.13v-2.4h.91Zm.55-4.13h.68v-.34c0-1.06.55-1.23,1.14-1.23a2.6,2.6,0,0,1,.64.05V239a1.5,1.5,0,0,0-.42-.05c-.25,0-.45.09-.45.44v.42H282v.68h-.78v3.45h-.91v-3.45h-.68Zm3.64,2.3a1.1,1.1,0,0,0,1.11,1.23,1,1,0,0,0,1-.69h.86a1.81,1.81,0,0,1-1.87,1.41,2,2,0,0,1-2-2.18,2,2,0,1,1,4,.23Zm2.13-.6a1.07,1.07,0,1,0-2.13,0Zm4.89,4a6.62,6.62,0,0,1-1.15-3.69,6.88,6.88,0,0,1,1.15-3.68H291a7.37,7.37,0,0,0-1,3.68,7.06,7.06,0,0,0,1,3.69Zm3.21-5,.73-2.12.74,2.12h2.2l-1.75,1.38.68,2.1-1.87-1.24-1.86,1.24.68-2.1-1.75-1.38Zm6.53,0,.73-2.12.73,2.12h2.21l-1.76,1.38.69,2.1-1.87-1.24-1.87,1.24.69-2.1-1.75-1.38Zm4.68-2.36a6.48,6.48,0,0,1,0,7.37H304a7.31,7.31,0,0,0,1-3.68,7.11,7.11,0,0,0-1-3.69Zm-79,84.94h4.43v.72H226.5v2h3.34v.72H226.5v2.22h3.61v.72h-4.46Zm5.41,0h.77v6.43h-.77Zm5.93,5a1.88,1.88,0,0,1-2,1.58c-1.49,0-2.19-1-2.24-2.45a2.24,2.24,0,0,1,2.19-2.42c1.65,0,2.15,1.54,2.11,2.66h-3.49a1.39,1.39,0,0,0,1.45,1.54,1.13,1.13,0,0,0,1.21-.91Zm-.74-1.3a1.34,1.34,0,0,0-2.68,0Zm1.6-1.88h.72v.68h0a1.71,1.71,0,0,1,1.5-.79,1.24,1.24,0,0,1,1.28.79,1.72,1.72,0,0,1,1.46-.79c.93,0,1.55.39,1.55,1.35v3.41h-.77v-3.05c0-.58-.15-1-.9-1a1.12,1.12,0,0,0-1.21,1.19v2.9h-.77v-3.05c0-.6-.19-1-.87-1a1.26,1.26,0,0,0-1.25,1.19v2.9h-.76ZM249.5,328a1.88,1.88,0,0,1-2,1.58c-1.49,0-2.19-1-2.24-2.45a2.24,2.24,0,0,1,2.19-2.42c1.65,0,2.15,1.54,2.11,2.66h-3.49a1.39,1.39,0,0,0,1.45,1.54,1.13,1.13,0,0,0,1.21-.91Zm-.74-1.3a1.34,1.34,0,0,0-2.68,0Zm1.6-1.88h.72v.74h0a1.61,1.61,0,0,1,1.51-.85c1.22,0,1.6.7,1.6,1.7v3.06h-.76v-3.15a.88.88,0,0,0-.95-.94,1.31,1.31,0,0,0-1.38,1.46v2.63h-.76Zm6.06,0h.93v.67h-.93v2.89c0,.35.1.42.58.42h.35v.67h-.58c-.8,0-1.11-.16-1.11-1v-3h-.79v-.67h.79v-1.4h.76Zm5.9,4.63a1,1,0,0,1-.55.13c-.39,0-.65-.22-.65-.72a2,2,0,0,1-1.64.72c-.84,0-1.53-.38-1.53-1.3s.78-1.28,1.57-1.44,1.57-.1,1.57-.68-.55-.78-1-.78c-.65,0-1.12.2-1.16.89h-.76c0-1.15.93-1.56,2-1.56.83,0,1.74.19,1.74,1.28v2.39c0,.36,0,.53.25.53a.6.6,0,0,0,.23-.05ZM261.08,327a4.09,4.09,0,0,1-1.39.31c-.5.09-.93.27-.93.84s.43.69.9.69c1,0,1.42-.63,1.42-1.06Zm1.92-2.25h.72v1h0a1.68,1.68,0,0,1,1.71-1.09v.81c-1.23,0-1.68.7-1.68,1.88v2.07H263Zm4.85,5.27c-.35.91-.66,1.25-1.34,1.25a1.39,1.39,0,0,1-.54-.09v-.7a1.48,1.48,0,0,0,.45.11.65.65,0,0,0,.63-.42l.32-.79-1.85-4.63h.87l1.36,3.81h0l1.31-3.81h.81Zm9-5.16a1.41,1.41,0,0,0-1.59-1.32c-.72,0-1.44.26-1.44,1.1s1,.91,2.06,1.14,2.05.6,2.05,1.86-1.34,1.91-2.51,1.91c-1.44,0-2.65-.7-2.65-2.26h.81c0,1.08.9,1.55,1.87,1.55.77,0,1.63-.25,1.63-1.17s-1-1-2.05-1.27-2.07-.52-2.07-1.7,1.17-1.88,2.34-1.88a2.06,2.06,0,0,1,2.36,2Zm5.15,1.38a1.09,1.09,0,0,0-1.15-.93c-1.11,0-1.45.88-1.45,1.82s.39,1.71,1.36,1.71a1.21,1.21,0,0,0,1.28-1.14h.78a1.93,1.93,0,0,1-2,1.81,2.12,2.12,0,0,1-2.18-2.38,2.19,2.19,0,0,1,2.2-2.49,1.77,1.77,0,0,1,2,1.6Zm1.67-3.27h.77v2.46h0a1.57,1.57,0,0,1,1.47-.79c1.22,0,1.6.7,1.6,1.7v3.06h-.77v-3.15a.88.88,0,0,0-.94-.94,1.31,1.31,0,0,0-1.38,1.46v2.63h-.77Zm7,1.67a2.44,2.44,0,1,1-2.26,2.44A2.21,2.21,0,0,1,290.71,324.67Zm0,4.2c.8,0,1.45-.63,1.45-1.76s-.65-1.77-1.45-1.77-1.45.64-1.45,1.77S289.9,328.87,290.71,328.87Zm5.16-4.2a2.44,2.44,0,1,1-2.26,2.44A2.21,2.21,0,0,1,295.87,324.67Zm0,4.2c.8,0,1.45-.63,1.45-1.76s-.65-1.77-1.45-1.77-1.45.64-1.45,1.77S295.07,328.87,295.87,328.87Zm3.21-5.87h.76v6.43h-.76ZM143.57,201.35a2.54,2.54,0,0,1,1,2.06,3.08,3.08,0,0,1-3.24,3.07c-1.87,0-3.49-1-3.49-3.07a2.49,2.49,0,0,1,2.13-2.76v.86a1.73,1.73,0,0,0-1.41,1.9c0,1.56,1.35,2.21,2.73,2.21a2.31,2.31,0,0,0,2.56-2.21,1.94,1.94,0,0,0-2.1-2.06v2.06H141v-2.82h3.39v.54Zm1.42-3.72c.91.35,1.24.66,1.24,1.35a1.59,1.59,0,0,1-.08.53h-.7a1.74,1.74,0,0,0,.11-.45.66.66,0,0,0-.43-.63l-.79-.32L139.71,200v-.86l3.81-1.36v0l-3.81-1.31v-.81ZM139.71,195v-.72h.69v0a1.73,1.73,0,0,1-.79-1.51,1.22,1.22,0,0,1,.79-1.27,1.72,1.72,0,0,1-.79-1.46c0-.93.38-1.55,1.35-1.55h3.41v.76h-3.05c-.58,0-1,.16-1,.9a1.13,1.13,0,0,0,1.19,1.22h2.9v.77h-3.05c-.61,0-1,.18-1,.87a1.25,1.25,0,0,0,1.19,1.24h2.9V195Zm0-7.68v-.72h.74v0a1.62,1.62,0,0,1-.84-1.51c0-1.23.7-1.6,1.7-1.6h3.06v.76h-3.15a.88.88,0,0,0-.94.95,1.31,1.31,0,0,0,1.46,1.37h2.63v.77Zm4.64-9.13a1.06,1.06,0,0,1,.13.55c0,.4-.22.65-.72.65a2.08,2.08,0,0,1,.72,1.64c0,.84-.38,1.54-1.31,1.54s-1.28-.79-1.43-1.58-.11-1.56-.68-1.56-.78.54-.78,1c0,.65.2,1.13.88,1.16v.77c-1.15,0-1.55-.94-1.55-2,0-.84.19-1.75,1.28-1.75h2.39c.36,0,.52,0,.52-.24a.8.8,0,0,0,0-.24ZM142,179.39a4.15,4.15,0,0,1,.31,1.39c.09.5.27.94.84.94s.68-.44.68-.9c0-1-.63-1.43-1.05-1.43Zm.93-2.42c.69,0,.9-.62.9-1.25,0-.47-.11-1.12-.69-1.12s-.69.75-.87,1.52-.42,1.52-1.31,1.52-1.32-.93-1.32-1.74c0-1,.32-1.84,1.46-1.91v.77c-.6.05-.79.58-.79,1.08s.13,1,.6,1,.64-.81.81-1.52.42-1.52,1.32-1.52c1.11,0,1.47,1,1.47,2s-.43,1.92-1.58,2Zm-4-4.84v.77h-.94v-.77Zm.83.77v-.77h4.66v.77Zm4.66-5.81v.72h-.74v0a1.61,1.61,0,0,1,.85,1.51c0,1.23-.7,1.6-1.7,1.6h-3.07v-.76h3.16a.88.88,0,0,0,.93-1,1.31,1.31,0,0,0-1.46-1.37h-2.63v-.77Zm-4.66-1.15v-.72h.69v0a1.71,1.71,0,0,1-.79-1.5,1.23,1.23,0,0,1,.79-1.28,1.7,1.7,0,0,1-.79-1.46c0-.93.38-1.55,1.35-1.55h3.41v.77h-3.05c-.58,0-1,.15-1,.9a1.12,1.12,0,0,0,1.19,1.21h2.9v.77h-3.05c-.61,0-1,.19-1,.87a1.26,1.26,0,0,0,1.19,1.25h2.9v.76ZM84.65,22.17v-1l6.43-2.51v.95l-1.94.7v2.72l1.94.72v.88Zm3.77.64V20.63l-3,1.07v0Zm2.26-8.61c1.51,0,2.29.69,2.29,2.16,0,.87-.35,1.88-1.37,1.92v-.76c.56,0,.76-.7.76-1.21,0-1-.73-1.39-1.77-1.39h-.31a1.56,1.56,0,0,1,.85,1.45,2.11,2.11,0,0,1-2.36,2.08,2.2,2.2,0,0,1-2.46-2.15,1.54,1.54,0,0,1,.78-1.39h-.67V14.2Zm-2,.75c-.81,0-1.66.36-1.66,1.33s.8,1.37,1.69,1.37,1.78-.3,1.78-1.31S89.53,15,88.65,15Zm.95-5.88a1.88,1.88,0,0,1,1.58,2c0,1.49-1,2.19-2.44,2.24a2.25,2.25,0,0,1-2.43-2.19C86.31,9.46,87.85,9,89,9v3.49A1.38,1.38,0,0,0,90.51,11a1.13,1.13,0,0,0-.91-1.21Zm-1.3.74a1.34,1.34,0,0,0,0,2.68Zm-35.66,9.3a2.49,2.49,0,0,1,1,2.06,3.08,3.08,0,0,1-3.24,3.06c-1.88,0-3.5-1-3.5-3.06A2.49,2.49,0,0,1,49,18.41v.85a1.74,1.74,0,0,0-1.42,1.91c0,1.56,1.35,2.21,2.73,2.21a2.32,2.32,0,0,0,2.57-2.21,1.94,1.94,0,0,0-2.1-2.06v2.05h-.72V18.34h3.38v.54Zm-3.85-1.87v-.72h1v0a1.68,1.68,0,0,1-1.09-1.71h.81c0,1.23.7,1.68,1.88,1.68h2.07v.77Zm4.63-7.15a1,1,0,0,1,.13.55c0,.4-.21.65-.72.65a2,2,0,0,1,.72,1.64c0,.84-.38,1.54-1.3,1.54s-1.28-.79-1.44-1.58-.1-1.56-.68-1.56-.77.54-.77,1c0,.65.19,1.13.88,1.16v.77c-1.15,0-1.56-.94-1.56-2,0-.84.19-1.75,1.28-1.75h2.39c.36,0,.53,0,.53-.24a.6.6,0,0,0-.05-.24ZM51,11.33a3.92,3.92,0,0,1,.31,1.39c.09.5.27.94.84.94s.69-.44.69-.9c0-1-.63-1.43-1.06-1.43Zm2.4-6.11V6h-.63V6a1.54,1.54,0,0,1,.74,1.48A2.18,2.18,0,0,1,51.1,9.63a2.15,2.15,0,0,1-2.42-2.12A1.77,1.77,0,0,1,49.41,6V6H47V5.22Zm-.56,2.16c0-1-.89-1.42-1.76-1.42s-1.76.41-1.76,1.47.89,1.39,1.8,1.39S52.88,8.37,52.88,7.38ZM52,.07a1.88,1.88,0,0,1,1.58,2c0,1.49-1,2.19-2.45,2.24a2.24,2.24,0,0,1-2.42-2.19C48.68.46,50.22,0,51.35,0V3.49A1.38,1.38,0,0,0,52.88,2,1.13,1.13,0,0,0,52,.83Zm-1.3.74a1.34,1.34,0,0,0,0,2.68ZM247.13,203.42a1.1,1.1,0,0,0-1,1.24c0,.56.21,1.12.86,1.12s.7-.79.89-1.6.46-1.6,1.44-1.6,1.49,1,1.49,2c0,1.12-.55,2.06-1.76,2.06V206c.84,0,1.2-.7,1.2-1.45s-.19-1.27-.91-1.27-.8.8-1,1.6-.41,1.6-1.32,1.6-1.47-.9-1.47-1.81a1.62,1.62,0,0,1,1.59-1.85Zm2.38-4.63a1.47,1.47,0,0,1,1.24,1.55c0,1.15-.8,1.7-1.91,1.74a1.75,1.75,0,0,1-1.88-1.71c0-1.28,1.19-1.67,2.07-1.64v2.71a1.06,1.06,0,0,0,1.19-1.12.87.87,0,0,0-.71-.94Zm-1,.57a1.05,1.05,0,0,0-1,1,1,1,0,0,0,1,1Zm-.31-3.7a.85.85,0,0,0-.72.9c0,.86.68,1.13,1.42,1.13s1.32-.31,1.32-1.06a.94.94,0,0,0-.88-1V195a1.52,1.52,0,0,1,1.41,1.6,1.65,1.65,0,0,1-1.85,1.7,1.7,1.7,0,0,1-1.94-1.71,1.38,1.38,0,0,1,1.24-1.56ZM247,192.8a1.9,1.9,0,1,1,1.89,1.76A1.71,1.71,0,0,1,247,192.8Zm3.26,0c0-.62-.49-1.13-1.37-1.13s-1.37.51-1.37,1.13.49,1.13,1.37,1.13S250.22,193.42,250.22,192.8ZM247,190.34v-.56h.58a1.26,1.26,0,0,1-.66-1.18c0-1,.54-1.24,1.32-1.24h2.38v.59h-2.45a.69.69,0,0,0-.73.74,1,1,0,0,0,1.14,1.07h2v.59Zm3.62-7.12v.59h-.49a1.23,1.23,0,0,1,.58,1.16,1.71,1.71,0,0,1-1.91,1.67A1.67,1.67,0,0,1,247,185a1.4,1.4,0,0,1,.56-1.17h-1.86v-.59Zm-.44,1.68c0-.8-.69-1.11-1.37-1.11s-1.37.32-1.37,1.14.7,1.09,1.4,1.09S250.22,185.67,250.22,184.9Zm.43-5.81a.85.85,0,0,1,.1.43c0,.31-.17.5-.56.5a1.63,1.63,0,0,1,.56,1.28c0,.66-.3,1.2-1,1.2s-1-.61-1.11-1.23-.09-1.22-.54-1.22-.6.43-.6.81.16.87.69.9v.6c-.9,0-1.21-.73-1.21-1.54,0-.65.14-1.36,1-1.36h1.86c.28,0,.41,0,.41-.19a.82.82,0,0,0,0-.18Zm-1.86,1a3,3,0,0,1,.25,1.08c.07.39.21.73.65.73s.53-.34.53-.7c0-.79-.49-1.11-.82-1.11Zm-1.75-1.5V178h.76a1.32,1.32,0,0,1-.84-1.33h.63c0,1,.54,1.31,1.46,1.31h1.61v.59Zm4.11-3.77c.7.27,1,.52,1,1.05a1.13,1.13,0,0,1-.06.41h-.55a1.06,1.06,0,0,0,.09-.35.52.52,0,0,0-.33-.49l-.62-.24L247,176.6v-.67l3-1.06h0l-3-1v-.63Zm-1.63-4.39c.53,0,.7-.48.7-1s-.08-.88-.54-.88-.54.59-.67,1.18-.33,1.19-1,1.19-1-.72-1-1.35c0-.8.25-1.44,1.13-1.49v.6c-.46,0-.61.45-.61.84s.1.77.46.77.5-.63.64-1.19.32-1.18,1-1.18c.87,0,1.15.81,1.15,1.54s-.33,1.5-1.23,1.54Zm-1.32-5.59a.84.84,0,0,0-.72.89c0,.86.68,1.13,1.42,1.13s1.32-.3,1.32-1.06a.94.94,0,0,0-.88-1v-.61a1.51,1.51,0,0,1,1.41,1.6,1.65,1.65,0,0,1-1.85,1.69,1.7,1.7,0,0,1-1.94-1.71,1.38,1.38,0,0,1,1.24-1.56Zm-2.54-1.3v-.6h1.91a1.24,1.24,0,0,1-.61-1.15c0-.95.54-1.24,1.32-1.24h2.38v.59h-2.45a.69.69,0,0,0-.73.74,1,1,0,0,0,1.14,1.07h2v.6Zm1.3-5.46a1.9,1.9,0,1,1,1.89,1.76A1.71,1.71,0,0,1,247,158.05Zm3.26,0c0-.62-.49-1.13-1.37-1.13s-1.37.51-1.37,1.13.49,1.13,1.37,1.13S250.22,158.68,250.22,158.05ZM247,154a1.9,1.9,0,1,1,1.89,1.76A1.71,1.71,0,0,1,247,154Zm3.26,0c0-.62-.49-1.12-1.37-1.12s-1.37.5-1.37,1.12.49,1.13,1.37,1.13S250.22,154.66,250.22,154Zm-4.56-2.49V151h5v.59Zm6.39-4.44a5.89,5.89,0,0,1-3.28,1.1,5.54,5.54,0,0,1-3.23-1.1v-.46a5.78,5.78,0,0,0,3.23.93,5.87,5.87,0,0,0,3.28-.93Zm-4.44-2.6-1.85-.64,1.85-.64v-1.93l1.21,1.54,1.84-.61-1.09,1.64,1.09,1.64-1.84-.61-1.21,1.54Zm4.44-3.43a5.85,5.85,0,0,0-3.23-.92,5.94,5.94,0,0,0-3.28.92v-.45a5.81,5.81,0,0,1,3.28-1.1,5.47,5.47,0,0,1,3.23,1.1Zm-42,65.09v-3c0-1.21.66-2,1.69-2a1.55,1.55,0,0,1,1.63,1.12h0c.14-.75.69-.9,1.32-1a3.24,3.24,0,0,0,1.77-.37v.95c-.26.25-.95.11-1.58.24s-1.16.24-1.16,1.07v2.09h2.74v.85Zm3-2.64c0-.8-.21-1.48-1.15-1.48a1,1,0,0,0-1.1,1.14v2.13H213Zm2-7.37a1.88,1.88,0,0,1,1.58,2c0,1.49-1,2.19-2.45,2.23a2.24,2.24,0,0,1-2.42-2.18c0-1.65,1.54-2.16,2.66-2.11v3.48a1.38,1.38,0,0,0,1.54-1.45,1.12,1.12,0,0,0-.91-1.2Zm-1.3.74a1.34,1.34,0,0,0-1.31,1.34,1.32,1.32,0,0,0,1.31,1.33Zm2.75-5.72a.92.92,0,0,1,.13.54c0,.4-.22.65-.72.65a2.06,2.06,0,0,1,.72,1.64c0,.85-.38,1.54-1.3,1.54s-1.28-.78-1.44-1.57-.1-1.57-.68-1.57-.77.55-.77,1c0,.65.19,1.13.88,1.17v.76c-1.15,0-1.56-.94-1.56-2,0-.84.19-1.75,1.28-1.75h2.39c.36,0,.53,0,.53-.24a.56.56,0,0,0,0-.23ZM214,192.41a3.81,3.81,0,0,1,.31,1.38c.09.51.27.94.84.94s.69-.43.69-.9c0-1-.63-1.42-1.06-1.42Zm-4-2v-.76h6.43v.76Zm5-2.42c.68,0,.9-.62.9-1.25s-.11-1.13-.7-1.13-.69.76-.86,1.52-.43,1.53-1.32,1.53-1.32-.93-1.32-1.74c0-1,.32-1.85,1.46-1.91v.77c-.6.05-.78.57-.78,1.08s.12,1,.59,1,.64-.81.81-1.53.42-1.52,1.32-1.52c1.11,0,1.47,1,1.47,2s-.42,1.93-1.57,2Zm-1.7-7.19a1.08,1.08,0,0,0-.92,1.15c0,1.11.87,1.45,1.81,1.45s1.71-.39,1.71-1.36a1.21,1.21,0,0,0-1.14-1.28V180a1.93,1.93,0,0,1,1.81,2.05,2.12,2.12,0,0,1-2.38,2.18,2.19,2.19,0,0,1-2.49-2.2,1.78,1.78,0,0,1,1.6-2ZM210,179.12v-.76h2.46v0a1.57,1.57,0,0,1-.79-1.47c0-1.22.7-1.6,1.7-1.6h3.06V176h-3.15a.87.87,0,0,0-.93.94,1.31,1.31,0,0,0,1.45,1.38h2.63v.76Zm6.43-8.85V171h-.74v0a1.61,1.61,0,0,1,.85,1.51c0,1.22-.7,1.6-1.7,1.6h-3.06v-.76h3.15a.88.88,0,0,0,.94-1,1.31,1.31,0,0,0-1.46-1.38h-2.63v-.76Zm-6.43-1.2v-.76h6.43v.76Zm5-5.92a1.88,1.88,0,0,1,1.58,2c0,1.48-1,2.19-2.45,2.23a2.24,2.24,0,0,1-2.42-2.19c0-1.64,1.54-2.15,2.66-2.1v3.48a1.38,1.38,0,0,0,1.54-1.45,1.12,1.12,0,0,0-.91-1.2Zm-1.3.74a1.34,1.34,0,0,0,0,2.67Zm65.88,42.27v-.85h2.77v-3.39h-2.77v-.85H286v.85H283v3.39H286v.85ZM286,195.67a1,1,0,0,1,.13.54c0,.4-.22.65-.72.65a2.09,2.09,0,0,1,.72,1.64c0,.85-.38,1.54-1.31,1.54s-1.28-.78-1.43-1.57-.11-1.57-.68-1.57-.78.55-.78,1c0,.65.2,1.13.88,1.17v.76c-1.15,0-1.55-.94-1.55-2,0-.84.19-1.75,1.28-1.75h2.39c.36,0,.52,0,.52-.24a.74.74,0,0,0,0-.23Zm-2.38,1.24a4,4,0,0,1,.31,1.38c.09.51.27.94.84.94s.68-.43.68-.9c0-1-.63-1.42-1.05-1.42Zm2.4-5.81v.72h-.74v0a1.61,1.61,0,0,1,.85,1.51c0,1.23-.71,1.61-1.7,1.61h-3.06v-.77h3.15a.88.88,0,0,0,.93-.95,1.31,1.31,0,0,0-1.46-1.37h-2.62v-.77Zm-4.65-1.18v-.76H282v0a1.54,1.54,0,0,1-.74-1.48,2.19,2.19,0,0,1,2.45-2.15,2.16,2.16,0,0,1,2.42,2.13,1.77,1.77,0,0,1-.73,1.5v0h2.4v.76Zm.56-2.16c0,1,.88,1.43,1.76,1.43s1.76-.42,1.76-1.47-.89-1.4-1.8-1.4S281.89,186.77,281.89,187.76Zm-.56-4.21v-.92H282v.92h2.89c.35,0,.41-.1.41-.57v-.35H286v.58c0,.79-.16,1.11-1,1.11h-3v.79h-.67v-.79h-1.4v-.77Zm3.18-2.24c.69,0,.9-.62.9-1.25,0-.48-.11-1.12-.69-1.12s-.69.75-.87,1.52-.42,1.52-1.31,1.52-1.32-.93-1.32-1.74c0-1,.32-1.84,1.45-1.91v.77c-.59.05-.78.57-.78,1.08s.13,1,.6,1,.64-.81.81-1.52.42-1.53,1.32-1.53c1.11,0,1.47,1,1.47,2s-.43,1.92-1.58,2Zm-1.69-7.19a1.08,1.08,0,0,0-.93,1.15c0,1.11.88,1.45,1.82,1.45s1.7-.39,1.7-1.36a1.2,1.2,0,0,0-1.13-1.28v-.78a1.93,1.93,0,0,1,1.81,2,2.12,2.12,0,0,1-2.38,2.18,2.19,2.19,0,0,1-2.49-2.19,1.78,1.78,0,0,1,1.6-2Zm-3.27-1.67v-.77H282v0a1.57,1.57,0,0,1-.79-1.46c0-1.23.7-1.61,1.7-1.61H286v.77h-3.15a.88.88,0,0,0-.94.94,1.31,1.31,0,0,0,1.46,1.38H286v.77Zm6.43-8.86v.72h-.74v0a1.61,1.61,0,0,1,.85,1.51c0,1.23-.71,1.6-1.7,1.6h-3.06v-.76h3.15a.88.88,0,0,0,.93-1,1.31,1.31,0,0,0-1.46-1.37h-2.62v-.77Zm-6.43-1.2v-.76H286v.76Zm4.95-5.92a1.88,1.88,0,0,1,1.59,2c0,1.49-1,2.19-2.45,2.23a2.23,2.23,0,0,1-2.42-2.18c0-1.65,1.54-2.16,2.66-2.11v3.48a1.37,1.37,0,0,0,1.53-1.45,1.11,1.11,0,0,0-.91-1.2Zm-1.29.74a1.34,1.34,0,0,0-1.32,1.34,1.33,1.33,0,0,0,1.32,1.33ZM432,202.44a1.41,1.41,0,0,0-1.31,1.6c0,.72.26,1.44,1.1,1.44s.91-1,1.14-2.07.59-2,1.86-2,1.91,1.34,1.91,2.51c0,1.45-.7,2.66-2.27,2.66v-.81c1.09,0,1.55-.9,1.55-1.87,0-.78-.24-1.63-1.17-1.63s-1,1-1.26,2.05-.52,2.06-1.7,2.06S430,205.17,430,204a2.08,2.08,0,0,1,2-2.37Zm-.1-2v-.77h.63a1.57,1.57,0,0,1-.74-1.49,2.18,2.18,0,0,1,2.45-2.14,2.15,2.15,0,0,1,2.42,2.12,1.8,1.8,0,0,1-.73,1.51h2.4v.77Zm.56-2.16c0,1,.89,1.42,1.76,1.42s1.76-.41,1.76-1.47-.89-1.39-1.8-1.39S432.45,197.28,432.45,198.27Zm2.61-7.12a1.87,1.87,0,0,1,1.59,2c0,1.48-1,2.19-2.45,2.23a2.24,2.24,0,0,1-2.42-2.19c0-1.65,1.54-2.15,2.66-2.1v3.48a1.37,1.37,0,0,0,1.53-1.45,1.12,1.12,0,0,0-.91-1.21Zm-1.29.74a1.34,1.34,0,0,0,0,2.67Zm-.39-4.77a1.1,1.1,0,0,0-.93,1.16c0,1.1.88,1.45,1.82,1.45s1.7-.39,1.7-1.36a1.2,1.2,0,0,0-1.13-1.28v-.78a1.93,1.93,0,0,1,1.81,2.05,2.12,2.12,0,0,1-2.38,2.18,2.19,2.19,0,0,1-2.49-2.2,1.79,1.79,0,0,1,1.6-2Zm-2.33-2.48v.77h-.94v-.77Zm.84.77v-.77h4.65v.77Zm4.63-6.08a1.06,1.06,0,0,1,.13.55c0,.4-.22.65-.72.65a2.08,2.08,0,0,1,.72,1.64c0,.84-.38,1.54-1.31,1.54s-1.28-.79-1.43-1.58-.11-1.57-.68-1.57-.78.55-.78,1c0,.65.2,1.12.89,1.16v.77c-1.16-.05-1.56-.94-1.56-2,0-.83.19-1.74,1.28-1.74h2.39c.36,0,.52,0,.52-.25a.79.79,0,0,0,0-.23Zm-2.38,1.24a4.15,4.15,0,0,1,.31,1.39c.09.5.27.94.84.94s.68-.44.68-.9c0-1-.63-1.43-1.05-1.43Zm-4-2v-.77h6.43v.77Zm5-4.93c.69,0,.9-.62.9-1.25s-.11-1.12-.69-1.12-.69.75-.86,1.52-.43,1.52-1.32,1.52-1.32-.93-1.32-1.74c0-1,.32-1.84,1.46-1.91v.77c-.6.05-.79.57-.79,1.08s.13,1,.6,1,.64-.81.81-1.52.42-1.52,1.32-1.52c1.11,0,1.47,1,1.47,2s-.42,1.92-1.58,2Zm-1.69-7.19a1.09,1.09,0,0,0-.93,1.15c0,1.11.88,1.45,1.82,1.45s1.7-.38,1.7-1.36a1.19,1.19,0,0,0-1.13-1.27v-.79a1.93,1.93,0,0,1,1.81,2.05,2.12,2.12,0,0,1-2.38,2.18,2.19,2.19,0,0,1-2.49-2.19,1.78,1.78,0,0,1,1.6-2Zm-3.27-1.67V164h2.46v0a1.56,1.56,0,0,1-.79-1.46c0-1.23.7-1.61,1.7-1.61h3.06v.77h-3.15a.88.88,0,0,0-.94,1,1.31,1.31,0,0,0,1.46,1.37h2.63v.77Zm1.67-7a2.44,2.44,0,1,1,2.44,2.26A2.21,2.21,0,0,1,431.78,157.78Zm4.19,0c0-.8-.63-1.45-1.75-1.45s-1.77.65-1.77,1.45.63,1.45,1.77,1.45S436,158.58,436,157.78Zm-4.19-5.17a2.44,2.44,0,1,1,2.44,2.26A2.21,2.21,0,0,1,431.78,152.61Zm4.19,0c0-.8-.63-1.45-1.75-1.45s-1.77.65-1.77,1.45.63,1.45,1.77,1.45S436,153.41,436,152.61Zm-5.86-3.2v-.77h6.43v.77ZM5.37,178.25a1.4,1.4,0,0,0-1.31,1.59c0,.72.26,1.44,1.1,1.44s.91-1,1.14-2.06.59-2.05,1.85-2.05,1.92,1.34,1.92,2.51c0,1.44-.7,2.65-2.27,2.65v-.81c1.08,0,1.55-.9,1.55-1.87,0-.77-.24-1.63-1.17-1.63s-1,1-1.26,2.06-.52,2.06-1.7,2.06S3.34,181,3.34,179.81c0-1.32.62-2.32,2-2.37Zm3.07-6a1.88,1.88,0,0,1,1.59,2c0,1.48-1,2.19-2.45,2.23a2.24,2.24,0,0,1-2.42-2.19c0-1.64,1.54-2.15,2.66-2.1v3.48a1.37,1.37,0,0,0,1.53-1.45,1.11,1.11,0,0,0-.91-1.2ZM7.15,173a1.34,1.34,0,0,0,0,2.67Zm-.39-4.76a1.08,1.08,0,0,0-.93,1.15c0,1.11.88,1.45,1.82,1.45s1.7-.39,1.7-1.36a1.2,1.2,0,0,0-1.13-1.28v-.78A1.93,1.93,0,0,1,10,169.5a2.12,2.12,0,0,1-2.38,2.18,2.19,2.19,0,0,1-2.49-2.2,1.79,1.79,0,0,1,1.6-2Zm-1.6-3.68a2.21,2.21,0,0,1,2.44-2.26,2.27,2.27,0,1,1,0,4.52A2.21,2.21,0,0,1,5.16,164.59Zm4.19,0c0-.81-.63-1.45-1.75-1.45s-1.77.64-1.77,1.45S6.46,166,7.6,166,9.35,165.39,9.35,164.59Zm-4.09-3.16v-.72H6v0a1.62,1.62,0,0,1-.84-1.51c0-1.23.7-1.61,1.7-1.61H9.92v.77H6.77a.88.88,0,0,0-.94.94,1.31,1.31,0,0,0,1.46,1.38H9.92v.77Zm4.66-9.17V153H9.29v0a1.56,1.56,0,0,1,.74,1.48,2.19,2.19,0,0,1-2.45,2.15,2.15,2.15,0,0,1-2.42-2.13,1.77,1.77,0,0,1,.73-1.5v0H3.49v-.77Zm-.57,2.17c0-1-.88-1.43-1.75-1.43s-1.77.42-1.77,1.47.89,1.4,1.8,1.4S9.35,155.42,9.35,154.43ZM9.9,147a1.06,1.06,0,0,1,.13.55c0,.4-.22.65-.72.65A2.08,2.08,0,0,1,10,149.8c0,.85-.38,1.54-1.31,1.54s-1.28-.78-1.43-1.58-.11-1.56-.68-1.56-.78.55-.78,1c0,.65.2,1.13.88,1.16v.77c-1.15,0-1.55-.94-1.55-2,0-.84.19-1.75,1.28-1.75H8.83c.36,0,.52,0,.52-.24a.8.8,0,0,0,0-.24Zm-2.38,1.25a4,4,0,0,1,.31,1.38c.09.51.27.94.84.94s.68-.43.68-.9c0-1-.63-1.42-1-1.42Zm-2.26-1.93v-.72h1v0a1.68,1.68,0,0,1-1.09-1.71H6c0,1.24.7,1.69,1.88,1.69H9.92v.76Zm5.28-4.85c.91.35,1.24.67,1.24,1.35a1.59,1.59,0,0,1-.08.53H11a1.74,1.74,0,0,0,.11-.45.67.67,0,0,0-.43-.63l-.79-.31-4.63,1.84v-.86l3.81-1.36v0l-3.81-1.31v-.81ZM11.7,135a7.52,7.52,0,0,1-4.21,1.42A7.05,7.05,0,0,1,3.34,135v-.58a7.49,7.49,0,0,0,4.15,1.19,7.63,7.63,0,0,0,4.21-1.19Zm-6.33-4.91a1.4,1.4,0,0,0-1.31,1.59c0,.72.26,1.44,1.1,1.44s.91-1,1.14-2.06S6.89,129,8.15,129s1.92,1.34,1.92,2.51c0,1.44-.7,2.66-2.27,2.66v-.81c1.08,0,1.55-.9,1.55-1.88,0-.77-.24-1.63-1.17-1.63s-1,1-1.26,2.06S6.4,134,5.22,134s-1.88-1.16-1.88-2.33.62-2.32,2-2.37Zm3.07-6a1.88,1.88,0,0,1,1.59,2c0,1.49-1,2.19-2.45,2.23a2.23,2.23,0,0,1-2.42-2.18c0-1.65,1.54-2.16,2.66-2.11v3.48a1.37,1.37,0,0,0,1.53-1.45,1.11,1.11,0,0,0-.91-1.2Zm-1.29.74a1.35,1.35,0,0,0-1.32,1.34,1.33,1.33,0,0,0,1.32,1.33Zm-.39-4.76a1.08,1.08,0,0,0-.93,1.15c0,1.11.88,1.45,1.82,1.45s1.7-.39,1.7-1.36a1.2,1.2,0,0,0-1.13-1.28v-.78a1.93,1.93,0,0,1,1.81,2,2.12,2.12,0,0,1-2.38,2.18,2.19,2.19,0,0,1-2.49-2.2,1.77,1.77,0,0,1,1.6-2Zm4.94-1a7.49,7.49,0,0,0-4.15-1.19,7.63,7.63,0,0,0-4.21,1.19v-.58a7.52,7.52,0,0,1,4.21-1.42,7.05,7.05,0,0,1,4.15,1.42ZM20.12,78.7a1.41,1.41,0,0,0-1.32,1.6c0,.72.26,1.44,1.1,1.44s.91-1,1.15-2.07.59-2,1.85-2,1.92,1.34,1.92,2.51c0,1.44-.71,2.66-2.27,2.66V82c1.08,0,1.55-.9,1.55-1.87,0-.78-.25-1.63-1.17-1.63s-1,1-1.26,2-.53,2.06-1.71,2.06-1.88-1.16-1.88-2.33a2.08,2.08,0,0,1,2-2.37Zm3.07-6a1.88,1.88,0,0,1,1.58,2c0,1.49-1,2.19-2.45,2.24a2.24,2.24,0,0,1-2.42-2.19c0-1.65,1.54-2.15,2.67-2.11v3.49a1.38,1.38,0,0,0,1.53-1.45,1.13,1.13,0,0,0-.91-1.21Zm-1.3.74a1.34,1.34,0,0,0,0,2.68Zm-.39-4.76a1.08,1.08,0,0,0-.92,1.15c0,1.11.87,1.45,1.82,1.45s1.7-.38,1.7-1.36A1.2,1.2,0,0,0,23,68.69V67.9a1.93,1.93,0,0,1,1.81,2,2.11,2.11,0,0,1-2.37,2.18c-1.4,0-2.5-.72-2.5-2.19a1.79,1.79,0,0,1,1.6-2Zm-1-4a2,2,0,0,1-2.26-2.06,1.81,1.81,0,0,1,1.84-2,2.57,2.57,0,0,1,2.19,1.54c.48.81.89,1.64,1.68,1.8V60.74h.67v4.17a3.05,3.05,0,0,1-2.61-1.79C21.39,62,21,61.49,20.11,61.49A1.16,1.16,0,0,0,19,62.72c0,.89.82,1.27,1.58,1.24Zm-.42,141.05a1.42,1.42,0,0,0-1.32,1.6c0,.72.26,1.44,1.1,1.44s.91-1,1.15-2.06.59-2.06,1.85-2.06,1.92,1.35,1.92,2.52c0,1.44-.71,2.65-2.27,2.65v-.81c1.08,0,1.55-.9,1.55-1.87,0-.78-.25-1.63-1.17-1.63s-1,1-1.26,2.05-.53,2.06-1.71,2.06-1.88-1.16-1.88-2.33a2.08,2.08,0,0,1,2-2.37Zm3.07-5.95a1.87,1.87,0,0,1,1.58,2c0,1.48-1,2.18-2.45,2.23a2.24,2.24,0,0,1-2.42-2.19c0-1.65,1.54-2.15,2.67-2.11v3.49a1.37,1.37,0,0,0,1.53-1.45,1.13,1.13,0,0,0-.91-1.21Zm-1.3.74a1.34,1.34,0,0,0,0,2.67Zm-.39-4.77a1.09,1.09,0,0,0-.92,1.16c0,1.1.87,1.45,1.82,1.45s1.7-.39,1.7-1.36A1.21,1.21,0,0,0,23,195.77V195a1.93,1.93,0,0,1,1.81,2,2.12,2.12,0,0,1-2.37,2.18,2.2,2.2,0,0,1-2.5-2.2,1.79,1.79,0,0,1,1.6-2Zm3.16-6.8v.76H20.09v1.66h-.61c0-.87-.24-1.66-1.2-1.84V189ZM18.24,341.31v-2.82a1.76,1.76,0,0,1,1.9-2,1.75,1.75,0,0,1,1.89,2v2h2.63v.86Zm3.07-.86v-1.67c0-1-.41-1.41-1.17-1.41s-1.18.44-1.18,1.41v1.67ZM20,335.63v-.72h1v0a1.68,1.68,0,0,1-1.09-1.71h.81c0,1.23.7,1.68,1.88,1.68h2.07v.77Zm-.84-3.84v.77h-.93v-.77Zm.84.77v-.77h4.65v.77Zm0-1.95v-.72h.68v0a1.73,1.73,0,0,1-.79-1.51,1.24,1.24,0,0,1,.79-1.27,1.75,1.75,0,0,1-.79-1.46c0-.93.39-1.55,1.35-1.55h3.41v.76H21.61c-.57,0-1,.16-1,.9A1.12,1.12,0,0,0,21.76,327h2.9v.77H21.61c-.6,0-1,.18-1,.87a1.25,1.25,0,0,0,1.18,1.24h2.9v.77Zm4.64-11.8a1,1,0,0,1,.12.55c0,.39-.21.64-.72.64a2.06,2.06,0,0,1,.72,1.64c0,.85-.38,1.54-1.3,1.54s-1.28-.78-1.44-1.57-.1-1.57-.68-1.57-.77.55-.77,1c0,.64.19,1.12.88,1.16V323c-1.15,0-1.56-.93-1.56-2,0-.84.19-1.75,1.28-1.75h2.39c.36,0,.53,0,.53-.24a.6.6,0,0,0-.05-.23Zm-2.39,1.24a4.07,4.07,0,0,1,.32,1.38c.09.51.27.94.83.94s.69-.43.69-.9c0-1-.63-1.42-1.06-1.42ZM20,318.12v-.72h1a1.7,1.7,0,0,1-1.09-1.72h.81c0,1.24.7,1.69,1.88,1.69h2.07v.76Zm5.27-4.85c.91.35,1.25.67,1.25,1.35a1.59,1.59,0,0,1-.08.53h-.71a1.35,1.35,0,0,0,.11-.45.67.67,0,0,0-.42-.63l-.79-.31L20,315.6v-.86l3.81-1.36v0L20,312.06v-.81Zm62-167.06h-.85v-5.07H84.58v-.68c1,0,1.85-.26,2-1.33h.65Zm6.19-2.4h1v.75h-1v1.65h-.8v-1.65H89.55v-.82l3.23-4.61h.68Zm-.8,0v-3.47h0l-2.36,3.47Zm-5.39,30.72h-.85v-5.07H84.58v-.68c1,0,1.85-.26,2-1.33h.65Zm4.18-4h.37a1.2,1.2,0,0,0,1.35-1.16,1.13,1.13,0,0,0-1.26-1.14c-.93,0-1.33.71-1.34,1.54h-.85a2.1,2.1,0,0,1,2.19-2.29c1.23,0,2.16.59,2.16,1.9a1.62,1.62,0,0,1-1,1.41v0a1.61,1.61,0,0,1,1.28,1.71,2.18,2.18,0,0,1-2.44,2.16,2.14,2.14,0,0,1-2.36-2.3h.85a1.44,1.44,0,0,0,1.51,1.55,1.41,1.41,0,0,0,1.54-1.37A1.35,1.35,0,0,0,92,171.18a4.24,4.24,0,0,0-.51,0Zm-4.18,32.36h-.85v-5.07H84.58v-.68c1,0,1.85-.26,2-1.33h.65Zm2.44-4.57A2.2,2.2,0,0,1,92,195.77a2,2,0,0,1,2.22,2,2.84,2.84,0,0,1-1.72,2.43c-.89.54-1.82,1-2,1.86h3.64v.75H89.51a3.37,3.37,0,0,1,2-2.89c1.2-.74,1.81-1.18,1.81-2.16a1.29,1.29,0,0,0-1.37-1.28c-1,0-1.41.91-1.38,1.76Zm-2.44,32.89h-.85V226.1H84.58v-.68c1,0,1.85-.26,2-1.33h.65Zm5.56,0H92V226.1H90.14v-.68c1,0,1.85-.26,2-1.33h.65Zm-5.56,28.32h-.85v-5.07H84.58v-.68c1,0,1.85-.26,2-1.33h.65Zm4.78-7.08c2.22,0,2.36,2,2.36,3.61s-.14,3.59-2.36,3.59-2.36-2-2.36-3.59S89.83,252.41,92.05,252.41Zm0,6.45c1.45,0,1.46-1.79,1.46-2.85s0-2.85-1.46-2.85S90.59,255,90.59,256,90.6,258.86,92.05,258.86ZM87.83,286.1a1.2,1.2,0,0,0,1.3,1.08c1,0,1.55-.91,1.6-2.73l0,0a1.86,1.86,0,0,1-1.64,1A2.14,2.14,0,0,1,86.83,283a2.22,2.22,0,0,1,2.33-2.31c1.32,0,2.43.71,2.43,3.39,0,2.44-.74,3.81-2.46,3.81A1.94,1.94,0,0,1,87,286.1Zm1.29-4.62c-1,0-1.39.81-1.39,1.68a1.43,1.43,0,1,0,2.85-.06A1.47,1.47,0,0,0,89.12,281.48Zm.1,27.57c1.55,0,2.15.91,2.15,1.81a1.64,1.64,0,0,1-1,1.47,1.7,1.7,0,0,1,1.26,1.76,2.39,2.39,0,0,1-4.76,0,1.78,1.78,0,0,1,1.24-1.76,1.6,1.6,0,0,1-1-1.47A1.89,1.89,0,0,1,89.22,309.05Zm.08,6.45a1.37,1.37,0,0,0,1.45-1.38,1.49,1.49,0,0,0-3,0A1.36,1.36,0,0,0,89.3,315.5Zm0-3.47a1.09,1.09,0,0,0,1.17-1.14,1.06,1.06,0,0,0-1.19-1.09,1.12,1.12,0,1,0,0,2.23Zm2.28,26.19a10.47,10.47,0,0,0-2.72,6.23h-1a10.13,10.13,0,0,1,2.8-6.16H87v-.8h4.59Zm-1,29.28a1.14,1.14,0,0,0-1.19-1.06c-1.45,0-1.68,1.6-1.72,2.68l0,0a1.92,1.92,0,0,1,1.77-.93,2.11,2.11,0,0,1,2.17,2.29,2.24,2.24,0,0,1-2.37,2.38c-2.1,0-2.44-1.92-2.44-3.4,0-1.95.59-3.8,2.61-3.8a1.84,1.84,0,0,1,2,1.81Zm-2.75,3.06a1.45,1.45,0,1,0,2.9,0,1.42,1.42,0,0,0-1.43-1.6A1.44,1.44,0,0,0,87.88,370.56Zm-39.32-226a1.2,1.2,0,0,0,1.3,1.07c1,0,1.55-.9,1.6-2.73l0,0a1.86,1.86,0,0,1-1.64,1,2.14,2.14,0,0,1-2.24-2.37,2.22,2.22,0,0,1,2.33-2.31c1.32,0,2.43.71,2.43,3.39,0,2.44-.74,3.81-2.46,3.81a1.94,1.94,0,0,1-2.15-1.82Zm1.29-4.63c-1,0-1.39.81-1.39,1.68a1.43,1.43,0,1,0,2.85-.06A1.47,1.47,0,0,0,49.85,139.88Zm.1,27.57c1.55,0,2.15.91,2.15,1.81a1.64,1.64,0,0,1-1,1.47,1.7,1.7,0,0,1,1.26,1.76,2.39,2.39,0,0,1-4.76,0,1.79,1.79,0,0,1,1.24-1.76,1.6,1.6,0,0,1-1-1.47A1.89,1.89,0,0,1,50,167.45ZM50,173.9a1.37,1.37,0,0,0,1.45-1.37,1.49,1.49,0,0,0-3,0A1.36,1.36,0,0,0,50,173.9Zm0-3.47a1.09,1.09,0,0,0,1.17-1.14A1.06,1.06,0,0,0,50,168.2a1.12,1.12,0,1,0,0,2.23Zm2.28,26.19a10.5,10.5,0,0,0-2.72,6.23h-1a10.16,10.16,0,0,1,2.8-6.16H47.72v-.8h4.59Zm-1,29.28a1.14,1.14,0,0,0-1.19-1.06c-1.45,0-1.68,1.6-1.72,2.69l0,0a1.92,1.92,0,0,1,1.77-.93,2.12,2.12,0,0,1,2.17,2.29A2.24,2.24,0,0,1,50,231.29c-2.1,0-2.44-1.92-2.44-3.4,0-1.95.59-3.8,2.61-3.8a1.84,1.84,0,0,1,2,1.81ZM48.61,229a1.45,1.45,0,1,0,2.9,0,1.42,1.42,0,0,0-1.43-1.6A1.45,1.45,0,0,0,48.61,229Zm3.31,24.32H49.06l-.38,2,0,0a1.79,1.79,0,0,1,1.32-.51,2.2,2.2,0,0,1,2.29,2.42,2.31,2.31,0,0,1-2.48,2.36,2.08,2.08,0,0,1-2.26-2h.85a1.4,1.4,0,0,0,1.49,1.28,1.49,1.49,0,0,0,1.5-1.67,1.54,1.54,0,0,0-1.6-1.61,1.7,1.7,0,0,0-1.32.67l-.73,0,.66-3.68h3.5Zm-.51,32.13h1v.74h-1v1.66h-.8v-1.66H47.5v-.82l3.23-4.6h.68Zm-.8,0v-3.47h0l-2.36,3.47ZM49.4,312.09h.37a1.2,1.2,0,0,0,1.35-1.16,1.13,1.13,0,0,0-1.26-1.14c-.93,0-1.33.71-1.34,1.54h-.85a2.1,2.1,0,0,1,2.19-2.29c1.23,0,2.16.59,2.16,1.9a1.62,1.62,0,0,1-1,1.41v0a1.61,1.61,0,0,1,1.28,1.71,2.18,2.18,0,0,1-2.44,2.16,2.14,2.14,0,0,1-2.36-2.3h.85a1.44,1.44,0,0,0,1.51,1.55,1.41,1.41,0,0,0,1.54-1.37,1.35,1.35,0,0,0-1.51-1.35,2.85,2.85,0,0,0-.51,0Zm-1.74,27.79a2.2,2.2,0,0,1,2.28-2.51,2,2,0,0,1,2.22,2,2.83,2.83,0,0,1-1.72,2.42c-.89.54-1.82,1-2,1.87h3.64v.75H47.46a3.38,3.38,0,0,1,2-2.9c1.2-.73,1.81-1.18,1.81-2.15a1.29,1.29,0,0,0-1.37-1.28c-1,0-1.41.91-1.38,1.76Zm3.12,32.89h-.85V367.7H48.09V367c1,0,1.85-.26,2-1.33h.65ZM87.28,46.7h-.85V41.62H84.59V41c1,0,1.85-.26,2-1.33h.65Zm7.09-6.23a10.44,10.44,0,0,0-2.72,6.23h-1a10.11,10.11,0,0,1,2.8-6.16H89.78v-.8h4.59ZM87.28,75.1h-.85V70H84.59v-.68c1,0,1.85-.26,2-1.33h.65Zm6.14-5.28a1.14,1.14,0,0,0-1.19-1.06c-1.45,0-1.68,1.6-1.72,2.69l0,0a1.92,1.92,0,0,1,1.77-.93,2.12,2.12,0,0,1,2.17,2.3,2.24,2.24,0,0,1-2.37,2.38c-2.1,0-2.44-1.92-2.44-3.41,0-2,.59-3.8,2.61-3.8a1.84,1.84,0,0,1,2,1.81Zm-2.75,3.07a1.45,1.45,0,1,0,2.9,0,1.43,1.43,0,0,0-1.43-1.61A1.45,1.45,0,0,0,90.67,72.89ZM87.28,103.5h-.85V98.42H84.59v-.68c1,0,1.85-.26,2-1.33h.65ZM94,97.28H91.12l-.38,2,0,0a1.79,1.79,0,0,1,1.32-.51,2.21,2.21,0,0,1,2.29,2.43,2.31,2.31,0,0,1-2.48,2.36,2.08,2.08,0,0,1-2.26-2h.85A1.4,1.4,0,0,0,92,102.87a1.49,1.49,0,0,0,1.5-1.68,1.54,1.54,0,0,0-1.6-1.61,1.7,1.7,0,0,0-1.32.67l-.73,0,.66-3.68H94ZM48.05,46.7H47.2V41.62H45.36V41c1,0,1.85-.26,2-1.33h.65Zm2.44-4.58a2.2,2.2,0,0,1,2.28-2.5,2,2,0,0,1,2.22,2,2.84,2.84,0,0,1-1.72,2.43c-.89.54-1.82,1-2,1.87h3.64v.75H50.29a3.38,3.38,0,0,1,2-2.9c1.2-.74,1.81-1.18,1.81-2.16a1.29,1.29,0,0,0-1.37-1.27c-1,0-1.41.9-1.38,1.75Zm-2.44,33H47.2V70H45.36v-.68c1,0,1.85-.26,2-1.33h.65Zm5.56,0h-.85V70H50.92v-.68c1,0,1.85-.26,2-1.33h.65Zm-5.56,28.4H47.2V98.42H45.36v-.68c1,0,1.85-.26,2-1.33h.65Zm4.78-7.09c2.22,0,2.36,2,2.36,3.61s-.14,3.6-2.36,3.6-2.36-2-2.36-3.6S50.61,96.41,52.83,96.41Zm0,6.46c1.45,0,1.46-1.8,1.46-2.86s0-2.85-1.46-2.85S51.37,99,51.37,100,51.38,102.87,52.83,102.87Zm317.5,98.29a2.49,2.49,0,0,1,1,2.06,3.08,3.08,0,0,1-3.24,3.06c-1.88,0-3.5-1-3.5-3.06a2.5,2.5,0,0,1,2.14-2.77v.86a1.74,1.74,0,0,0-1.42,1.91c0,1.56,1.35,2.2,2.73,2.2a2.32,2.32,0,0,0,2.57-2.2,1.94,1.94,0,0,0-2.1-2.06v2.05h-.72v-2.82h3.38v.54Zm-.67-5.87a1.88,1.88,0,0,1,1.58,2c0,1.48-1,2.19-2.45,2.23a2.24,2.24,0,0,1-2.42-2.19c0-1.64,1.54-2.15,2.67-2.1v3.48a1.37,1.37,0,0,0,1.53-1.45,1.12,1.12,0,0,0-.91-1.2Zm-1.3.74a1.34,1.34,0,0,0,0,2.67Zm1.31-2.07c.68,0,.9-.62.9-1.25s-.11-1.13-.7-1.13-.69.76-.86,1.52-.42,1.52-1.32,1.52-1.32-.92-1.32-1.73c0-1,.32-1.85,1.46-1.91v.76c-.6.06-.78.58-.78,1.08s.12,1,.59,1,.64-.81.81-1.52.42-1.52,1.32-1.52c1.11,0,1.47,1,1.47,2s-.42,1.93-1.57,2Zm1.44-8.16a1,1,0,0,1,.13.55c0,.4-.22.65-.72.65a2,2,0,0,1,.72,1.64c0,.85-.38,1.54-1.3,1.54s-1.28-.78-1.44-1.58-.1-1.56-.68-1.56-.77.55-.77,1c0,.65.19,1.13.88,1.16V190c-1.15-.05-1.56-.94-1.56-2,0-.84.19-1.75,1.28-1.75H370c.36,0,.53,0,.53-.24a.6.6,0,0,0-.05-.24Zm-2.38,1.25a3.81,3.81,0,0,1,.31,1.38c.09.51.27.94.84.94s.69-.43.69-.9c0-1-.63-1.42-1.06-1.42Zm-2.25-2v-.72h.68a1.74,1.74,0,0,1-.79-1.51,1.23,1.23,0,0,1,.79-1.28,1.72,1.72,0,0,1-.79-1.45c0-.93.39-1.55,1.35-1.55h3.41v.76h-3.05c-.57,0-1,.15-1,.9a1.12,1.12,0,0,0,1.18,1.22h2.9v.76h-3.05c-.6,0-1,.19-1,.88a1.25,1.25,0,0,0,1.18,1.24h2.9v.76Zm0-8.74v-.92h.67v.92H370c.35,0,.42-.09.42-.57v-.35h.67V176c0,.79-.16,1.11-1,1.11h-3v.79h-.67v-.79h-1.4v-.77Zm3.19-2.24c.68,0,.9-.62.9-1.25,0-.47-.11-1.12-.7-1.12s-.69.75-.86,1.52-.42,1.52-1.32,1.52-1.32-.93-1.32-1.74c0-1,.32-1.84,1.46-1.91v.77c-.6,0-.78.58-.78,1.08s.12,1,.59,1,.64-.81.81-1.52.42-1.52,1.32-1.52c1.11,0,1.47,1,1.47,2s-.42,1.92-1.57,2Zm-1.7-7.19a1.08,1.08,0,0,0-.92,1.15c0,1.11.87,1.45,1.81,1.45s1.71-.38,1.71-1.36a1.21,1.21,0,0,0-1.14-1.27v-.79a1.94,1.94,0,0,1,1.81,2.06,2.11,2.11,0,0,1-2.38,2.17,2.19,2.19,0,0,1-2.49-2.19,1.79,1.79,0,0,1,1.6-2Zm-3.26-1.67v-.77h2.45a1.58,1.58,0,0,1-.79-1.47c0-1.23.7-1.6,1.7-1.6h3.06v.76H368a.87.87,0,0,0-.93,1,1.3,1.3,0,0,0,1.45,1.37h2.63v.77Zm6.42-8.86v.72h-.74v0a1.61,1.61,0,0,1,.85,1.51c0,1.23-.7,1.6-1.7,1.6h-3.06v-.76h3.15a.88.88,0,0,0,.94-.95,1.31,1.31,0,0,0-1.46-1.37h-2.63v-.77Zm-6.42-1.19v-.77h6.42v.77Zm5-5.93a1.88,1.88,0,0,1,1.58,2c0,1.49-1,2.19-2.45,2.23a2.24,2.24,0,0,1-2.42-2.18c0-1.65,1.54-2.15,2.67-2.11v3.48a1.37,1.37,0,0,0,1.53-1.44,1.13,1.13,0,0,0-.91-1.21Zm-1.3.74a1.34,1.34,0,0,0-1.31,1.34,1.32,1.32,0,0,0,1.31,1.33Z"/>
    </g>
  </g>
</svg>
